<?xml version="1.0" encoding="iso-8859-1"?>
<!-- Generator: Adobe Illustrator 19.0.0, SVG Export Plug-In . SVG Version: 6.00 Build 0)  -->
<svg version="1.1" id="Capa_1" xmlns="http://www.w3.org/2000/svg" xmlns:xlink="http://www.w3.org/1999/xlink" x="0px" y="0px"
	 viewBox="0 0 512 512" style="enable-background:new 0 0 512 512;" xml:space="preserve">
<g>
	<g>
		<path d="M448,0H64c-8.832,0-16,7.168-16,16v480c0,8.832,7.168,16,16,16h384c8.832,0,16-7.168,16-16V16C464,7.168,456.832,0,448,0z
			 M432,480H80V272h352V480z M432,240H80V32h352V240z"/>
	</g>
</g>
<g>
	<g>
		<path d="M304,112v32h-96v-32h-32v48c0,8.832,7.168,16,16,16h128c8.832,0,16-7.168,16-16v-48H304z"/>
	</g>
</g>
<g>
	<g>
		<path d="M304,352v32h-96v-32h-32v48c0,8.832,7.168,16,16,16h128c8.832,0,16-7.168,16-16v-48H304z"/>
	</g>
</g>
<g>
</g>
<g>
</g>
<g>
</g>
<g>
</g>
<g>
</g>
<g>
</g>
<g>
</g>
<g>
</g>
<g>
</g>
<g>
</g>
<g>
</g>
<g>
</g>
<g>
</g>
<g>
</g>
<g>
</g>
</svg>
