<?xml version="1.0" encoding="iso-8859-1"?>
<!-- Generator: Adobe Illustrator 19.0.0, SVG Export Plug-In . SVG Version: 6.00 Build 0)  -->
<svg version="1.1" id="Layer_1" xmlns="http://www.w3.org/2000/svg" xmlns:xlink="http://www.w3.org/1999/xlink" x="0px" y="0px"
	 viewBox="0 0 491.52 491.52" style="enable-background:new 0 0 491.52 491.52;" xml:space="preserve">
<g>
	<g>
		<path d="M471.04,122.465h-102.4v-81.92c0-11.311-9.169-20.48-20.48-20.48h-204.8c-11.311,0-20.48,9.169-20.48,20.48v81.92H20.48
			c-11.311,0-20.48,9.169-20.48,20.48v266.24c0,9.235,6.18,17.327,15.09,19.758l83.702,22.835
			c96.223,26.235,197.714,26.235,293.934,0.001l83.705-22.836c8.909-2.431,15.09-10.523,15.09-19.758v-266.24
			C491.52,131.635,482.351,122.465,471.04,122.465z M450.56,204.385c0,45.296-36.624,81.92-81.92,81.92h-40.96v-40.96
			c0-11.311-9.169-20.48-20.48-20.48v-61.44h40.96h102.4V204.385z M225.28,163.425h40.96v61.44h-40.96V163.425z M204.8,265.825
			h81.92v81.92H204.8V265.825z M163.84,61.025h163.84v61.44h-40.96H204.8h-40.96V61.025z M40.96,163.425h102.4h40.96v61.44
			c-11.311,0-20.48,9.169-20.48,20.48v40.96h-40.96c-45.296,0-81.92-36.624-81.92-81.92V163.425z M381.948,412.263
			c-89.162,24.31-183.214,24.31-272.379-0.001L40.96,393.544v-97.541c21.733,19.442,50.431,31.262,81.92,31.262h40.96v40.96
			c0,11.311,9.169,20.48,20.48,20.48H307.2c11.311,0,20.48-9.169,20.48-20.48v-40.96h40.96c31.489,0,60.187-11.82,81.92-31.262
			v97.541L381.948,412.263z"/>
	</g>
</g>
<g>
</g>
<g>
</g>
<g>
</g>
<g>
</g>
<g>
</g>
<g>
</g>
<g>
</g>
<g>
</g>
<g>
</g>
<g>
</g>
<g>
</g>
<g>
</g>
<g>
</g>
<g>
</g>
<g>
</g>
</svg>
