<?xml version="1.0" encoding="iso-8859-1"?>
<!-- Generator: Adobe Illustrator 16.0.0, SVG Export Plug-In . SVG Version: 6.00 Build 0)  -->
<!DOCTYPE svg PUBLIC "-//W3C//DTD SVG 1.1//EN" "http://www.w3.org/Graphics/SVG/1.1/DTD/svg11.dtd">
<svg version="1.1" id="Capa_1" xmlns="http://www.w3.org/2000/svg" xmlns:xlink="http://www.w3.org/1999/xlink" x="0px" y="0px"
	 width="46px" height="46px" viewBox="0 0 46 46" style="enable-background:new 0 0 46 46;" xml:space="preserve">
<g>
	<g id="Next">
		<g>
			<path d="M29.305,21.475l-6.779-6.778c-0.586-0.585-1.536-0.585-2.121,0l-0.708,0.708c-0.585,0.585-0.585,1.535,0,2.121
				l5.448,5.448l-5.547,5.547c-0.597,0.598-0.597,1.564,0,2.162l0.721,0.721c0.597,0.597,1.564,0.597,2.161,0l6.925-6.926
				c0.466-0.465,0.556-1.151,0.295-1.716C29.77,22.306,29.654,21.826,29.305,21.475z M23,0C10.298,0,0,10.298,0,23s10.298,23,23,23
				s23-10.298,23-23S35.702,0,23,0z M23,42C12.507,42,4,33.493,4,23S12.507,4,23,4s19,8.507,19,19S33.493,42,23,42z"/>
		</g>
	</g>
</g>
<g>
</g>
<g>
</g>
<g>
</g>
<g>
</g>
<g>
</g>
<g>
</g>
<g>
</g>
<g>
</g>
<g>
</g>
<g>
</g>
<g>
</g>
<g>
</g>
<g>
</g>
<g>
</g>
<g>
</g>
</svg>
