<?xml version="1.0" encoding="iso-8859-1"?>
<!-- Generator: Adobe Illustrator 19.0.0, SVG Export Plug-In . SVG Version: 6.00 Build 0)  -->
<svg version="1.1" id="Layer_1" xmlns="http://www.w3.org/2000/svg" xmlns:xlink="http://www.w3.org/1999/xlink" x="0px" y="0px"
	 viewBox="0 0 512 512" style="enable-background:new 0 0 512 512;" xml:space="preserve">
<g>
	<g>
		<g>
			<path d="M505.854,150.336c-3.691-1.749-8.149-1.173-11.349,1.451l-110.507,92.096V160c0-4.139-2.389-7.915-6.144-9.664
				c-3.712-1.749-8.149-1.173-11.349,1.451l-110.507,92.096V160c0-4.224-2.496-8.064-6.379-9.771
				c-3.84-1.749-8.384-0.96-11.499,1.899l-66.859,61.291c-2.432,2.24-3.712,5.483-3.413,8.789l24.021,276.267l10.581-0.363
				l-10.667,3.221c0,5.888,4.779,10.667,10.667,10.667h298.88c5.888,0,10.667-4.779,10.667-10.667V160
				C511.998,155.861,509.609,152.085,505.854,150.336z M319.998,394.667c0,5.888-4.779,10.667-10.667,10.667h-64
				c-5.888,0-10.667-4.779-10.667-10.667v-64c0-5.888,4.779-10.667,10.667-10.667h64c5.888,0,10.667,4.779,10.667,10.667V394.667z
				 M447.998,394.667c0,5.888-4.779,10.667-10.667,10.667h-64c-5.888,0-10.667-4.779-10.667-10.667v-64
				c0-5.888,4.779-10.667,10.667-10.667h64c5.888,0,10.667,4.779,10.667,10.667V394.667z"/>
			<path d="M127.956,9.749C127.486,4.224,122.857,0,117.332,0h-64c-5.525,0-10.155,4.224-10.624,9.749L0.041,500.416
				c-0.256,2.987,0.747,5.931,2.752,8.128C4.798,510.741,7.678,512,10.665,512h149.333c0.128,0,0.277-0.021,0.427,0
				c5.888,0,10.667-4.779,10.667-10.667c0-1.365-0.256-2.667-0.725-3.861L127.956,9.749z"/>
		</g>
	</g>
</g>
<g>
</g>
<g>
</g>
<g>
</g>
<g>
</g>
<g>
</g>
<g>
</g>
<g>
</g>
<g>
</g>
<g>
</g>
<g>
</g>
<g>
</g>
<g>
</g>
<g>
</g>
<g>
</g>
<g>
</g>
</svg>
