<?xml version="1.0" encoding="iso-8859-1"?>
<!-- Generator: Adobe Illustrator 19.0.0, SVG Export Plug-In . SVG Version: 6.00 Build 0)  -->
<svg version="1.1" id="Layer_1" xmlns="http://www.w3.org/2000/svg" xmlns:xlink="http://www.w3.org/1999/xlink" x="0px" y="0px"
	 viewBox="0 0 345.602 345.602" style="enable-background:new 0 0 345.602 345.602;" xml:space="preserve">
<path shape-rendering="auto" image-rendering="auto" color-rendering="auto" color-interpolation="sRGB" d="M96.401,30.994
	c-25.807-0.626-51.237,9.472-69.8,28.58C1.258,85.662-5.141,123.802,3.863,155.72c11.592,41.091,50.549,77.826,85.863,107.123
	c35.313,29.298,68.125,49.901,68.125,49.901c4.975,3.127,11.267,3.278,16.387,0.397c0,0,35.542-19.994,73.85-49.039
	c38.308-29.046,80.63-65.814,93.437-108.558c9.683-32.316,2.2-70.7-23.375-96.57c-25.048-25.336-62.678-35.73-95.988-23.366
	c-20.882,7.751-37.076,21.864-48.725,39.811c-11.948-17.998-29.166-33.187-51.35-40.157C113.64,32.606,105.003,31.204,96.401,30.994
	L96.401,30.994z M95.563,62.893c5.655,0.147,11.352,1.081,16.925,2.832c21.647,6.802,39.723,28.91,44.637,48.877
	c3.765,15.29,25.084,16.492,30.55,1.722c8.287-22.445,23.975-43.059,44.637-50.4c22.231-7.212,46.417-1.343,63.05,15.482
	c16.149,16.335,21.72,44.267,15.512,64.983c-8.199,27.364-45.787,64.73-82.137,92.291c-29.315,22.227-52.289,35.979-61.913,41.616
	c-9.183-5.998-29.989-19.884-56.65-42.003c-33.491-27.786-68.091-64.967-75.5-91.23c-5.989-21.233-0.989-48.902,14.9-65.258
	C61.937,69.081,78.6,62.455,95.563,62.893L95.563,62.893z"/>
<g>
</g>
<g>
</g>
<g>
</g>
<g>
</g>
<g>
</g>
<g>
</g>
<g>
</g>
<g>
</g>
<g>
</g>
<g>
</g>
<g>
</g>
<g>
</g>
<g>
</g>
<g>
</g>
<g>
</g>
</svg>
