<?xml version="1.0" encoding="iso-8859-1"?>
<!-- Generator: Adobe Illustrator 16.0.0, SVG Export Plug-In . SVG Version: 6.00 Build 0)  -->
<!DOCTYPE svg PUBLIC "-//W3C//DTD SVG 1.1//EN" "http://www.w3.org/Graphics/SVG/1.1/DTD/svg11.dtd">
<svg xmlns="http://www.w3.org/2000/svg" xmlns:xlink="http://www.w3.org/1999/xlink" version="1.1" id="Capa_1" x="0px" y="0px" width="512px" height="512px" viewBox="0 0 58.396 58.396" style="enable-background:new 0 0 58.396 58.396;" xml:space="preserve">
<g>
	<path d="M33.646,24.314h-2.192v-8.157h2.404c0.985,0,1.723,0.323,2.215,0.969c0.488,0.645,0.734,1.614,0.734,2.906   c0,1.429-0.265,2.499-0.791,3.212C35.494,23.958,34.7,24.314,33.646,24.314z M58.396,9.343v39.708c0,5.16-4.183,9.344-9.343,9.344   H9.344c-0.08,0-0.154-0.021-0.234-0.023v-3.602H7.242v3.369C3.098,57.182,0,53.486,0,49.05V9.341c0-4.433,3.098-8.128,7.241-9.086   v3.368H9.11v-3.6C9.19,0.021,9.264,0,9.344,0h39.709C54.213,0,58.396,4.184,58.396,9.343z M9.11,45.471H7.242v4.648H9.11V45.471z    M9.11,36.168H7.242v4.654H9.11V36.168z M9.11,26.873H7.242v4.648H9.11V26.873z M9.11,17.574H7.242v4.649H9.11V17.574z M9.11,8.278   H7.242v4.649H9.11V8.278z M41.375,26.456h1.305h1.295v-5.262h5.45v-1.076v-1.066h-5.45v-2.827h6.255v-1.109v-1.101h-8.853v12.441   H41.375z M28.857,26.456h1.296h3.819c1.781,0,3.137-0.554,4.058-1.663c0.922-1.11,1.383-2.729,1.383-4.863   c0-1.935-0.442-3.406-1.332-4.408c-0.89-1.007-2.188-1.509-3.898-1.509h-4.029h-1.296V26.456z M17.294,26.456h1.306h1.294v-4.426   c0.733-0.017,1.603-0.024,2.606-0.017c1.416,0,2.496-0.348,3.233-1.043c0.738-0.696,1.11-1.717,1.11-3.06   c0-1.269-0.37-2.238-1.11-2.899c-0.738-0.663-1.818-0.995-3.233-0.995h-3.91h-1.297V26.456z M51.156,43.367H16.458v2.336h34.698   V43.367z M51.156,33.778H16.458v2.335h34.698V33.778z M23.7,19.387c0.362-0.319,0.544-0.805,0.544-1.456   c0-0.593-0.182-1.037-0.544-1.333c-0.364-0.294-0.911-0.441-1.64-0.441h-2.165v3.713h2.165C22.789,19.87,23.336,19.709,23.7,19.387   z" fill="#e06055"/>
</g>
<g>
</g>
<g>
</g>
<g>
</g>
<g>
</g>
<g>
</g>
<g>
</g>
<g>
</g>
<g>
</g>
<g>
</g>
<g>
</g>
<g>
</g>
<g>
</g>
<g>
</g>
<g>
</g>
<g>
</g>
</svg>
