<svg version="1.0" xmlns="http://www.w3.org/2000/svg"
 width="172.000000pt" height="172.000000pt" viewBox="0 0 172.000000 172.000000"
 preserveAspectRatio="xMidYMid meet">
<g transform="translate(0.000000,172.000000) scale(0.100000,-0.100000)"
fill="#000000" stroke="none">
<path d="M1412 1417 c-12 -6 -164 -230 -338 -497 -174 -267 -321 -490 -327
-497 -9 -9 -63 32 -231 178 -140 120 -228 189 -242 189 -37 0 -74 -37 -74 -75
0 -35 -7 -28 442 -418 91 -78 126 -87 170 -39 21 22 166 242 657 996 57 88 62
116 26 151 -27 28 -49 31 -83 12z"/>
</g>
</svg>
