<svg xmlns="http://www.w3.org/2000/svg" xmlns:xlink="http://www.w3.org/1999/xlink" width="20.617" height="20.617" viewBox="0 0 20.617 20.617"><defs><clipPath id="a"><rect width="20.617" height="20.617" fill="#57b8ff"/></clipPath></defs><g clip-path="url(#a)"><path d="M10.3,0A10.309,10.309,0,1,0,20.617,10.309,10.3,10.3,0,0,0,10.3,0m7.144,6.185H14.4a16.037,16.037,0,0,0-1.423-3.67,8.28,8.28,0,0,1,4.465,3.67M10.309,2.1a14.522,14.522,0,0,1,1.969,4.082H8.339A14.552,14.552,0,0,1,10.309,2.1M2.329,12.37a8.554,8.554,0,0,1-.267-2.062,8.547,8.547,0,0,1,.267-2.062H5.814a17.025,17.025,0,0,0-.144,2.062,17.025,17.025,0,0,0,.144,2.062Zm.846,2.062h3.04A16.183,16.183,0,0,0,7.639,18.1a8.23,8.23,0,0,1-4.464-3.67m3.04-8.247H3.175a8.23,8.23,0,0,1,4.464-3.67,16.183,16.183,0,0,0-1.424,3.67m4.094,12.329a14.552,14.552,0,0,1-1.97-4.082h3.939a14.522,14.522,0,0,1-1.969,4.082M12.72,12.37H7.9a15,15,0,0,1-.165-2.062A14.875,14.875,0,0,1,7.9,8.247H12.72a15.035,15.035,0,0,1,.166,2.062,15.167,15.167,0,0,1-.166,2.062m.258,5.732a16.037,16.037,0,0,0,1.423-3.67h3.042a8.284,8.284,0,0,1-4.465,3.67M14.8,12.37a17.025,17.025,0,0,0,.144-2.062A17.025,17.025,0,0,0,14.8,8.247h3.484a8.5,8.5,0,0,1,.268,2.062,8.5,8.5,0,0,1-.268,2.062Z" fill="#57b8ff"/></g></svg>