<svg xmlns="http://www.w3.org/2000/svg" width="18.327" height="18.327" viewBox="0 0 18.327 18.327"><g transform="translate(0 0)"><path d="M148.224,94.306a9,9,0,0,0-7.746,13.6l-1.577,4.727,5.132-1.35a9.005,9.005,0,1,0,4.191-16.977Zm5.593,13.016-.556.555c-1.762,1.762-3.752.893-5.514-.869l-3.222-3.222c-1.762-1.762-2.629-3.751-.867-5.513l.555-.555a.859.859,0,0,1,1.012-.153,6.527,6.527,0,0,1,1.685,1.948c.2.347.219.765-.133.965a8.08,8.08,0,0,0-.683.625,1.165,1.165,0,0,0,.164,1.655l2.516,2.516a1.165,1.165,0,0,0,1.657.165,7.946,7.946,0,0,0,.625-.683c.2-.354.616-.332.963-.133a6.511,6.511,0,0,1,1.949,1.683A.863.863,0,0,1,153.817,107.322Z" transform="translate(-138.901 -94.306)" fill="#2cb742"/></g><path d="M1.576,13.6a9.013,9.013,0,1,1,3.556,3.377L0,18.327ZM5.312,3.413l-.556.556c-1.762,1.762-.895,3.75.867,5.512L8.846,12.7c1.761,1.763,3.752,2.631,5.513.869l.557-.556A.863.863,0,0,0,15.066,12a6.5,6.5,0,0,0-1.948-1.683c-.347-.2-.766-.221-.963.133a8.029,8.029,0,0,1-.625.683,1.166,1.166,0,0,1-1.658-.166L7.356,8.453A1.164,1.164,0,0,1,7.192,6.8a8.048,8.048,0,0,1,.683-.626c.352-.2.331-.616.133-.964A6.512,6.512,0,0,0,6.324,3.261a.859.859,0,0,0-1.012.153Z" transform="translate(0)" fill="#21d59b"/></svg>