<?xml version="1.0" encoding="utf-8"?>
<!-- Generator: Adobe Illustrator 16.2.0, SVG Export Plug-In . SVG Version: 6.00 Build 0)  -->
<!DOCTYPE svg PUBLIC "-//W3C//DTD SVG 1.1//EN" "http://www.w3.org/Graphics/SVG/1.1/DTD/svg11.dtd">
<svg version="1.1" id="Layer_1" xmlns="http://www.w3.org/2000/svg" xmlns:xlink="http://www.w3.org/1999/xlink" x="0px" y="0px"
	 width="160px" height="160px" viewBox="0 0 160 160" enable-background="new 0 0 160 160" xml:space="preserve">
<g>
	<path fill-rule="evenodd" clip-rule="evenodd" fill="#E21E24" d="M123.146,103.517v18.114h-6.668v-18.114H123.146L123.146,103.517z
		 M101.723,107.495c3.615,0,6.578,2.212,6.578,4.93c0,2.726-2.963,4.938-6.578,4.938c-3.611,0-6.574-2.212-6.574-4.938
		C95.148,109.707,98.111,107.495,101.723,107.495L101.723,107.495z M103.485,103.517c-9.7-1.253-15.07,3.052-15.07,8.561
		c0,5.501,5.995,9.994,13.308,9.994c7.32,0,13.58-4.514,13.312-9.994c-0.074-1.774-0.629-3.546-1.363-4.582l-7.5-10.141h-8.149
		L103.485,103.517L103.485,103.517z M72.16,113.657c0,2.46,2.279,3.705,4.156,3.705s4.376-1.38,4.376-3.705v-10.141h6.307v10.141
		c0,7.035-6.221,8.446-10.683,8.446c-4.452,0-10.802-1.411-10.802-8.446v-10.141h6.646V113.657L72.16,113.657z M52.152,97.354
		h-8.335l2.163,2.33l-14.26,21.946h7.802l2.793-4.269h14.813l2.695,4.269h7.643L52.152,97.354L52.152,97.354z M54.404,112.996
		h-9.273l4.701-7.215L54.404,112.996z"/>
	<path fill-rule="evenodd" clip-rule="evenodd" fill="#FDFDFD" d="M122.334,78.73c1.877,0.148,3.636-0.039,5.473-0.466
		c1.053-0.296,2.04-0.659,3.04-1.105c0.967-0.494,1.849-1.026,2.726-1.659c0.837-0.661,1.62-1.36,2.351-2.143
		c0.698-0.81,1.335-1.648,1.906-2.548c0.689-1.173,1.216-2.358,1.656-3.652c0.298-1.077,0.522-2.124,0.661-3.22
		c0.062-0.859,0.082-1.689,0.062-2.538c-0.098-1.412-0.347-2.706-0.723-4.068c-0.265-0.762-0.563-1.51-0.89-2.253
		c-0.738-1.461-1.607-2.716-2.673-3.958c-0.73-0.759-1.514-1.481-2.351-2.135c-1.105-0.789-2.212-1.44-3.456-1.995
		c-1.004-0.394-2.036-0.718-3.102-0.967c-1.493-0.268-3.012-0.374-4.529-0.335c-2.551,0.208-5.109,0.987-7.264,2.39
		c-0.147,0.107-0.314,0.246-0.461,0.354c1.697,2.559,2.823,5.54,3.505,8.513c0.196,0.957,0.355,1.918,0.457,2.883
		c0.322,3.073,0.017,6.183-0.832,9.146c-0.719,2.438-1.837,4.908-3.306,6.992C116.813,77.565,119.612,78.532,122.334,78.73
		L122.334,78.73z M110.121,56.747c-0.286-0.759-0.604-1.51-0.988-2.229c-0.89,1.677-1.534,3.464-1.819,5.352
		c-0.155,1.075-0.229,2.163-0.155,3.259c0.146,2.34,0.897,4.69,2.012,6.753c0.714-1.43,1.244-2.842,1.571-4.413
		c0.547-2.686,0.375-5.529-0.433-8.157L110.121,56.747L110.121,56.747z M97.144,78.573c2.082-0.347,3.959-1.047,5.808-2.055
		l0.71-0.425c-0.396-0.534-0.739-1.146-1.065-1.72c-1.109-1.965-1.959-4.059-2.51-6.26c-0.314-1.283-0.534-2.559-0.661-3.881
		c-0.159-1.985-0.077-3.95,0.237-5.915c0.6-3.546,1.913-6.874,3.938-9.837c-0.856-0.561-1.746-1.085-2.693-1.479
		c-1.611-0.672-3.31-1.127-5.056-1.255c-3.636-0.277-7.19,0.563-10.251,2.538c2.171,3.269,3.514,7.101,4.061,10.981
		c0.114,1.175,0.195,2.289,0.188,3.475c-0.062,2.321-0.457,4.582-1.146,6.805c-0.739,2.358-1.841,4.523-3.179,6.596
		C88.917,78.375,93.124,79.203,97.144,78.573L97.144,78.573z M81.115,56.601c-0.286-0.79-0.641-1.562-1.057-2.292
		c-0.63,1.215-1.173,2.47-1.53,3.783c-0.345,1.353-0.561,2.746-0.561,4.146c0.008,0.89,0.087,1.787,0.257,2.656
		c0.374,1.818,1.006,3.536,1.885,5.156c0.553-1.077,1.027-2.202,1.353-3.369c0.296-1.173,0.514-2.31,0.581-3.514
		c0.071-1.64-0.049-3.28-0.424-4.87C81.49,57.734,81.303,57.144,81.115,56.601L81.115,56.601z M70.905,56.325
		c0.641-2.521,1.669-4.851,3.032-7.062l0.522-0.782l0.08-0.118c-1.888-1.165-3.912-1.975-6.093-2.399
		c-1.579-0.306-3.299-0.337-4.899-0.206c-2.23,0.316-4.354,1.008-6.27,2.191c-0.227,0.149-0.473,0.316-0.682,0.483
		c1.71,2.559,2.824,5.54,3.505,8.513c0.347,1.589,0.543,3.199,0.583,4.821c0.021,1.479-0.089,2.942-0.316,4.393
		c-0.169,0.947-0.375,1.886-0.643,2.814c-0.72,2.438-1.836,4.908-3.307,6.992c5.203,3.724,12.807,3.762,18.071,0.118
		c-2.016-3.012-3.389-6.321-3.991-9.896c-0.394-2.47-0.422-4.977-0.067-7.456C70.56,57.923,70.717,57.123,70.905,56.325
		L70.905,56.325z M51.856,56.482c-0.257-0.672-0.553-1.333-0.887-1.965c-0.879,1.677-1.522,3.464-1.808,5.352
		c-0.159,1.075-0.229,2.163-0.159,3.259c0.149,2.34,0.898,4.69,2.006,6.753c0.533-1.075,0.988-2.132,1.302-3.297
		C53.237,63.354,53.06,59.633,51.856,56.482L51.856,56.482z M41.605,66.682c-0.365-1.965-0.484-3.93-0.386-5.934
		c0.288-4.395,1.738-8.62,4.217-12.267c-0.849-0.561-1.749-1.085-2.687-1.479c-1.618-0.672-3.317-1.127-5.054-1.255
		c-1.293-0.101-2.579-0.031-3.862,0.128c-0.81,0.147-1.61,0.335-2.399,0.563c-1.293,0.435-2.469,0.967-3.665,1.659
		c-0.897,0.571-1.738,1.203-2.536,1.905c-0.779,0.73-1.483,1.5-2.145,2.351c-0.79,1.096-1.44,2.222-1.985,3.456
		c-0.415,1.026-0.72,2.032-0.978,3.1l-0.139,0.82c-0.147,1.116-0.196,2.232-0.167,3.358c0.049,0.841,0.167,1.659,0.306,2.487
		c0.386,1.62,0.9,3.063,1.669,4.544c0.394,0.682,0.831,1.362,1.293,2.014c0.831,1.067,1.718,1.985,2.736,2.873
		c0.838,0.663,1.728,1.255,2.646,1.787c1.214,0.612,2.438,1.107,3.752,1.471c0.79,0.19,1.62,0.35,2.43,0.447
		c0.908,0.057,1.788,0.098,2.685,0.049c2.451-0.188,4.711-0.82,6.895-1.937l0.561-0.306l0.702-0.425
		c-0.663-0.907-1.214-1.975-1.73-2.982C42.771,71.077,42.05,68.914,41.605,66.682L41.605,66.682z M138.225,81.731
		c-0.951,0.682-1.938,1.313-2.954,1.907c-1.049,0.522-2.122,1.017-3.236,1.451c-1.139,0.386-2.285,0.72-3.461,0.987l-1.191,0.217
		c-2.098,0.257-4.199,0.365-6.292,0.139c-2.547-0.286-4.946-0.938-7.288-1.955c-1.657-0.751-3.191-1.648-4.66-2.705
		c-1.629,1.134-3.31,2.111-5.146,2.883c-2.546,1.047-5.162,1.658-7.908,1.867c-1.897,0.107-3.803,0.008-5.676-0.296
		c-3.763-0.682-7.311-2.145-10.431-4.375c-1.334,0.938-2.726,1.777-4.215,2.459c-3.081,1.401-6.341,2.173-9.729,2.25
		c-2.232,0.029-4.444-0.208-6.617-0.769c-3.061-0.8-5.856-2.163-8.443-4.02c-1.363,0.946-2.736,1.776-4.226,2.477
		c-3.091,1.433-6.468,2.242-9.875,2.312c-1.422,0.021-2.816-0.098-4.218-0.267c-1.195-0.206-2.369-0.492-3.536-0.818
		c-1.135-0.386-2.23-0.82-3.318-1.304c-1.046-0.533-2.073-1.127-3.05-1.759c-1.295-0.918-2.458-1.886-3.605-2.973
		c-0.81-0.849-1.579-1.736-2.301-2.654c-0.682-0.959-1.312-1.947-1.896-2.955c-0.535-1.067-1.026-2.122-1.471-3.238
		c-0.386-1.134-0.712-2.28-0.987-3.456c-0.206-1.214-0.365-2.42-0.455-3.644L12,62.248l0.039-1.253l0.09-1.234l0.159-1.216
		l0.206-1.193l0.288-1.188l0.314-1.143l0.386-1.129l0.445-1.113l0.492-1.078l0.535-1.046l0.594-1.026l0.62-0.979l0.682-0.957
		l0.722-0.908c0.769-0.897,1.579-1.736,2.418-2.549c0.879-0.75,1.818-1.491,2.767-2.171c0.996-0.632,2.004-1.216,3.05-1.759
		c1.087-0.483,2.183-0.928,3.318-1.313c1.167-0.326,2.34-0.612,3.536-0.808c1.749-0.219,3.505-0.337,5.264-0.237
		c2.23,0.167,4.403,0.603,6.497,1.332c2.065,0.76,3.95,1.717,5.778,2.942l0.404,0.286l0.327,0.236
		c3.485-2.595,7.664-4.224,11.989-4.709c2.587-0.247,5.203-0.139,7.751,0.414c2.271,0.504,4.472,1.314,6.527,2.42
		c0.988,0.543,1.926,1.155,2.844,1.798c1.548-1.165,3.29-2.133,5.077-2.883c3.426-1.453,7.245-2.055,10.971-1.837
		c1.195,0.088,2.408,0.255,3.575,0.502c2.774,0.602,5.46,1.708,7.859,3.23c0.526,0.334,1.064,0.701,1.563,1.064
		c2.388-1.765,5.113-3.1,7.966-3.919c2.171-0.623,4.374-0.898,6.635-0.929l1.29,0.03l1.273,0.099l1.24,0.159
		c1.225,0.206,2.399,0.481,3.595,0.808c1.147,0.375,2.24,0.81,3.351,1.313c1.073,0.533,2.064,1.118,3.061,1.759
		c0.946,0.68,1.853,1.392,2.734,2.171c0.849,0.813,1.641,1.641,2.379,2.53c0.722,0.916,1.383,1.875,1.995,2.863l0.571,1.026
		l0.535,1.046l0.465,1.078l0.425,1.105l0.363,1.137l0.317,1.143c0.266,1.197,0.474,2.37,0.621,3.597
		c0.089,1.243,0.118,2.487,0.089,3.732c-0.089,1.224-0.244,2.43-0.465,3.644l-0.277,1.186l-0.322,1.145l-0.388,1.126
		c-0.433,1.116-0.914,2.184-1.461,3.238c-0.792,1.373-1.648,2.639-2.628,3.873c-0.768,0.897-1.559,1.736-2.416,2.546l-0.89,0.762
		L138.225,81.731z"/>
	<path fill-rule="evenodd" clip-rule="evenodd" fill="#666666" d="M51.352,75.896c-3.595-3.596-5.637-8.196-5.637-13.648
		c0-5.194,1.944-9.816,5.231-13.37c3.229,3.525,5.225,8.227,5.225,13.37c0,3.575-0.691,6.589-2.371,9.479
		c2.499-7.938,1.777-13.527-1.284-17.961c0.553,0.779,2.053,5.153,1.777,8.481c0,3.685-1.125,7.11-3.042,9.955L51.352,75.896
		L51.352,75.896z M147.271,62.248c0-13.016-10.104-23.582-23.574-23.582c-5.473,0-10.536,1.887-14.604,5.048
		c-4.049-3.161-9.092-5.048-14.577-5.048c-5.395,0-10.428,1.817-14.466,4.958c-4.058-3.081-9.047-4.958-14.517-4.958
		c-5.472,0-10.537,1.887-14.597,5.048c-4.048-3.161-9.104-5.048-14.574-5.048c-12.985,0-23.581,10.595-23.581,23.582
		S23.377,85.81,36.362,85.81c5.47,0,10.526-1.885,14.625-4.986c4.097,3.141,9.114,4.986,14.546,4.986
		c5.372,0,10.338-1.815,14.458-4.896c4.118,3.051,9.114,4.896,14.525,4.896c5.48,0,10.528-1.885,14.634-4.986
		c4.097,3.141,9.116,4.986,14.548,4.986C136.67,85.81,147.271,75.235,147.271,62.248L147.271,62.248z M123.697,41.137
		c-3.991,0-7.659,1.134-10.834,3.119c5.183-4.138,13.507-5.035,23.072-1.697c-3.448-2.094-7.893-3.448-12.238-3.448
		c-5.521,0-10.639,2.006-14.625,5.265l0.061,2.656c-3.803-3.645-8.961-5.895-14.617-5.895c-3.979,0-7.655,1.134-10.813,3.119
		c5.166-4.138,13.499-5.035,23.048-1.697c-3.444-2.094-7.876-3.448-12.234-3.448c-5.5,0-10.477,1.856-14.466,5.125v2.796
		c-3.791-3.645-8.857-5.895-14.517-5.895c-3.981,0-7.664,1.134-10.824,3.119c5.176-4.138,13.501-5.035,23.058-1.697
		c-3.446-2.094-7.88-3.448-12.234-3.448c-5.511,0-10.626,2.006-14.625,5.265l0.062,2.656c-3.793-3.645-8.949-5.895-14.607-5.895
		c-3.981,0-7.664,1.134-10.833,3.119c5.185-4.138,13.507-5.035,23.066-1.697c-3.446-2.094-7.89-3.448-12.234-3.448
		c-12.74,0-23.138,10.408-23.138,23.138c0,4.424,1.541,9.264,4.158,13.164c-5.285-10.42-2.618-18.338,0.75-23.266
		c-1.295,2.893-2.983,6.764-2.893,10.102c0.325,11.485,9.5,21.113,21.122,21.113c5.895,0,10.873-2.095,14.784-6.043
		c3.869,4.038,8.402,6.043,14.387,6.043c5.501,0,10.765-2.213,14.595-6.112c3.764,3.772,8.671,6.112,14.388,6.112
		c5.905,0,10.871-2.095,14.785-6.043c3.881,4.038,8.401,6.043,14.396,6.043c11.626,0,21.102-9.489,21.102-21.113
		C144.799,50.706,135.241,41.137,123.697,41.137L123.697,41.137z M77.263,75.807l1.779,0.109c-3.171-3.713-5.509-8.504-5.629-13.668
		c-0.08-3.328,1.589-7.209,2.885-10.102c-3.359,4.928-6.036,12.846-0.751,23.266c-2.608-3.9-4.148-8.74-4.148-13.164
		c0-5.599,1.808-10.15,5.154-14.162h2.618c-3.556-3.297-8.443-5.656-13.638-5.656c-5.709,0-11.079,2.665-13.795,5.391
		c3.544,3.783,5.727,8.87,5.727,14.428c0,5.719-1.877,10.469-5.588,14.25c3.614,3.566,8.205,5.56,13.656,5.56
		c4.444,0,8.463-1.324,11.663-3.623c-2.932,2.527-14.427,4.086-19.604,0.059c1.808,0.888,3.705,1.631,7.941,1.7
		C70.005,80.193,74.125,78.532,77.263,75.807L77.263,75.807z M80.04,75.472c-3.338-3.555-5.323-8.028-5.323-13.224
		c0-5.194,2.024-9.944,5.333-13.488c3.366,3.535,5.293,8.225,5.293,13.488c0,3.575-0.692,6.589-2.369,9.479
		c2.499-7.938,1.775-13.527-1.285-17.961c0.553,0.779,2.055,5.153,1.787,8.481c0,3.793-1.193,7.337-3.22,10.24L80.04,75.472
		L80.04,75.472z M81.066,76.519c3.497-3.734,5.582-8.721,5.582-14.271c0-5.558-2.036-10.356-5.582-14.162
		c3.556-3.495,8.096-5.656,13.449-5.656c5.167,0,10.002,1.945,13.532,5.214l-2.273,0.01c-3.26,3.979-5.215,9.075-5.215,14.595
		c0,4.424,1.538,9.264,4.158,13.164c-5.284-10.42-2.62-18.338,0.751-23.266c-1.294,2.893-2.975,6.753-2.897,10.102
		c0.122,5.529,1.979,10.084,5.55,13.905l-2.04-0.217c-3.118,2.637-7.17,4.257-11.565,4.257c-4.235-0.069-5.966-0.91-7.929-1.7
		c5.162,4.027,16.658,2.469,19.592-0.059c-3.199,2.299-7.219,3.623-11.663,3.623C88.819,82.058,84.73,79.797,81.066,76.519
		L81.066,76.519z M84.463,76.341c2.813-3.901,4.634-8.929,4.634-14.093c0-5.104-1.836-10.328-4.554-14.162
		c2.823-2.024,6.26-3.158,9.973-3.158c3.804,0,7.317,1.244,10.161,3.377c-2.873,3.952-4.563,8.759-4.563,13.943
		c0,5.164,1.809,10.153,4.62,14.052c-2.849,2.006-6.497,3.259-10.219,3.261C90.803,79.561,87.289,78.375,84.463,76.341
		L84.463,76.341z M80.109,71.57c-1.679-2.675-2.903-5.964-2.903-9.322c0-3.426,1.085-6.625,2.844-9.399
		c1.826,2.636,2.795,5.904,2.795,9.399C82.845,65.674,81.846,68.873,80.109,71.57L80.109,71.57z M75.565,76.271
		c-2.881-4.009-4.621-8.828-4.621-14.023c0-5.272,1.759-10.15,4.69-14.07c-2.824-1.967-6.427-3.25-10.091-3.25
		c-4.395-0.247-9.194,2.271-9.896,3.456c2.608,3.763,4.287,8.878,4.287,13.864c0,5.154-1.679,9.935-4.564,13.895
		c2.816,2.174,6.352,3.418,10.163,3.418C69.254,79.559,72.731,78.375,75.565,76.271L75.565,76.271z M49.96,76.153
		c-3.577-3.821-5.423-8.376-5.542-13.905c-0.08-3.349,1.592-7.209,2.883-10.102c-3.356,4.928-6.034,12.846-0.749,23.266
		c-2.607-3.9-4.158-8.74-4.158-13.164c0-5.52,1.965-10.616,5.215-14.595l2.281-0.01c-3.525-3.269-8.365-5.214-13.529-5.214
		c-10.912,0-19.82,8.906-19.82,19.818s8.918,19.81,19.82,19.81c4.434,0,8.453-1.324,11.663-3.623
		c-2.944,2.527-14.438,4.086-19.614,0.059c2.461,0.623,3.716,1.631,7.952,1.7c4.395,0,8.433-1.62,11.552-4.257L49.96,76.153
		L49.96,76.153z M51.016,71.424c1.689-2.677,2.656-5.817,2.656-9.176c0-3.377-0.977-6.545-2.685-9.253
		c-1.689,2.646-2.775,5.876-2.775,9.253C48.212,65.556,49.387,68.816,51.016,71.424L51.016,71.424z M46.582,76.3
		c-2.816-3.898-4.632-8.888-4.632-14.052c0-5.185,1.689-9.991,4.562-13.943c-2.832-2.133-6.359-3.377-10.15-3.377
		c-9.539,0-17.321,7.781-17.321,17.32c0,9.541,7.782,17.313,17.321,17.313C40.075,79.559,43.729,78.306,46.582,76.3L46.582,76.3z
		 M109.517,75.896c-3.591-3.596-5.64-8.196-5.64-13.648c0-5.194,1.946-9.816,5.224-13.37c3.24,3.525,5.224,8.227,5.224,13.37
		c0,3.575-0.69,6.589-2.367,9.479c2.506-7.938,1.775-13.527-1.273-17.961c0.539,0.779,2.053,5.153,1.775,8.481
		c0,3.685-1.126,7.11-3.04,9.955L109.517,75.896L109.517,75.896z M110.039,76.498c3.705-3.781,5.591-8.531,5.591-14.25
		c0-5.558-2.184-10.645-5.737-14.428c2.726-2.726,8.088-5.391,13.805-5.391c10.899,0,19.8,8.906,19.8,19.818
		c0,3.575-0.682,6.589-2.363,9.479c2.502-7.938,1.771-13.527-1.281-17.961c0.543,0.779,2.057,5.153,1.779,8.481
		c0,9.886-8.06,17.945-17.935,17.945c-4.24-0.069-6.134-0.813-7.949-1.7c5.174,4.027,16.67,2.469,19.6-0.059
		c-3.199,2.299-7.215,3.623-11.65,3.623C118.245,82.058,113.654,80.064,110.039,76.498L110.039,76.498z M113.524,76.143
		c2.885-3.96,4.562-8.74,4.562-13.895c0-4.986-1.677-10.102-4.284-13.864c0.701-1.186,5.501-3.703,9.896-3.456
		c9.528,0,17.314,7.781,17.314,17.32c0,9.541-7.786,17.311-17.314,17.313C119.882,79.561,116.348,78.316,113.524,76.143
		L113.524,76.143z M109.182,71.424c-1.64-2.607-2.807-5.868-2.807-9.176c0-3.377,1.077-6.606,2.774-9.253
		c1.702,2.708,2.686,5.876,2.686,9.253C111.835,65.606,110.859,68.747,109.182,71.424z"/>
</g>
</svg>
