<?xml version="1.0" encoding="UTF-8"?>
<!DOCTYPE svg PUBLIC "-//W3C//DTD SVG 1.1//EN" "http://www.w3.org/Graphics/SVG/1.1/DTD/svg11.dtd">
<!-- Creator: CorelDRAW X7 -->
<svg xmlns="http://www.w3.org/2000/svg" xml:space="preserve" width="160px" height="160px" version="1.1" style="shape-rendering:geometricPrecision; text-rendering:geometricPrecision; image-rendering:optimizeQuality; fill-rule:evenodd; clip-rule:evenodd"
viewBox="0 0 1600 1600"
 xmlns:xlink="http://www.w3.org/1999/xlink">
 <defs>
  <style type="text/css">
   <![CDATA[
    .fil1 {fill:black}
    .fil0 {fill:black}
    .fil5 {fill:#563300}
    .fil4 {fill:#5C3600}
    .fil15 {fill:#5D4219}
    .fil18 {fill:#5D4319}
    .fil17 {fill:#5E4319}
    .fil7 {fill:#5F3C01}
    .fil16 {fill:#62471C}
    .fil8 {fill:#663F01}
    .fil11 {fill:#6B4A02}
    .fil10 {fill:#704901}
    .fil12 {fill:#855B02}
    .fil14 {fill:#DBCD73}
    .fil3 {fill:#ED1B24}
    .fil13 {fill:#FACB15}
    .fil9 {fill:#FDCB0F}
    .fil2 {fill:#FFCB08}
    .fil6 {fill:white}
   ]]>
  </style>
 </defs>
 <g id="Layer_x0020_1">
  <metadata id="CorelCorpID_0Corel-Layer"/>
  <g id="_937721168">
   <path class="fil0" d="M317 1159l155 0c7,0 12,-6 12,-13l0 -68c0,-7 -5,-13 -12,-13l-155 0c-7,0 -12,6 -12,13l0 68c0,7 5,13 12,13zm10 -76l136 0c2,0 4,2 4,4l0 49c0,3 -2,4 -4,4l-136 0c-2,0 -4,-1 -4,-4l0 -49c0,-2 2,-4 4,-4z"/>
   <path class="fil0" d="M100 1159l18 0 0 -23 149 0c7,0 13,-6 13,-13l0 -45c0,-7 -6,-13 -13,-13l-167 0 0 94zm18 -41l0 -35 138 0c3,0 6,3 6,6l0 23c0,4 -3,6 -6,6l-138 0z"/>
   <path class="fil0" d="M508 1159l19 0 0 -23 131 0 12 23 20 0 -12 -23c6,-1 10,-7 10,-13l0 -45c0,-7 -6,-13 -13,-13l-167 0 0 94zm19 -41l0 -35 137 0c3,0 6,3 6,6l0 23c0,4 -3,6 -6,6l-137 0z"/>
   <polygon class="fil0" points="1120,1159 1138,1159 1138,1121 1272,1121 1272,1159 1291,1159 1291,1065 1272,1065 1272,1103 1138,1103 1138,1065 1120,1065 "/>
   <path class="fil0" d="M936 1159l156 0 0 -19c0,0 -1,0 -1,0l-146 0c-2,0 -4,-1 -4,-4l0 -49c0,-2 2,-4 4,-4l146 0c0,0 1,0 1,0l0 -18 -156 0c-7,0 -13,6 -13,13l0 68c0,7 6,13 13,13z"/>
   <polygon class="fil0" points="1319,1159 1500,1159 1500,1140 1337,1140 1337,1121 1500,1121 1500,1103 1337,1103 1337,1083 1500,1083 1500,1065 1319,1065 "/>
   <path class="fil0" d="M739 1091l0 -4c0,-2 2,-4 4,-4l146 0c0,0 1,0 1,0l0 -18 -157 0c-7,0 -12,6 -12,13l0 30c0,7 5,13 12,13l14 0 0 0c0,0 0,0 1,0l119 0c3,0 5,2 5,4l0 11c0,3 -2,4 -5,4l-145 0c-1,0 -1,0 -1,0l0 19 156 0c7,0 13,-6 13,-13l0 -31c0,-7 -6,-12 -13,-12l-13 0 0 -1c0,1 -1,1 -1,1l-120 0c-2,0 -4,-2 -4,-5l0 -7z"/>
   <g>
    <path class="fil1" d="M684 862l108 0 0 68c-23,-4 -55,-22 -74,-36l-9 -7c-4,-4 -24,-22 -25,-25zm106 -357l0 95 8 0 0 -47 -1 0 183 0 -1 47 -109 0 0 48c0,3 0,2 1,3l108 1 0 47c-4,1 -103,0 -108,0 -1,0 0,0 -1,1l0 5 108 0 0 2 0 0c-1,44 -27,98 -55,131 -2,3 -4,6 -7,9 -1,1 -1,1 -1,2l-14 14c-1,2 -2,3 -4,4 -1,1 -1,1 -2,2 -2,2 0,1 -2,2 0,-1 1,-3 1,-4 0,-2 -1,-3 -1,-4 0,3 0,6 -2,7 -1,0 -1,0 -2,-1l3 3c0,0 1,0 1,0l-10 9c-3,3 -7,5 -11,8 -17,14 -51,34 -72,40 0,1 0,1 -1,1 0,0 -1,0 -1,0l0 -154 -6 0 0 27 -151 0c-3,-6 -18,-38 -19,-46l124 0c-11,-11 -19,-22 -23,-39 -2,-7 -2,-11 -2,-19l-108 0 -2 0c-1,-26 -1,-54 -1,-80 0,-26 -1,-52 -1,-79 24,-10 55,-19 83,-25 30,-6 66,-11 97,-11 1,0 1,0 1,1zm-181 -19c13,-4 26,-10 42,-14 57,-16 101,-23 162,-23 53,0 110,11 159,27 7,2 8,1 8,4 1,9 0,38 0,49 -3,-1 -7,-2 -10,-3 -23,-8 -46,-14 -70,-19 -43,-8 -68,-9 -110,-9 -46,0 -97,9 -140,22l-40 13 -1 -47zm179 451c9,0 2,3 17,-2 15,-6 28,-12 42,-20 9,-5 17,-11 25,-17 13,-10 27,-22 38,-34l7 -8c2,-1 2,-2 3,-3l14 -17c6,-8 11,-16 16,-25 5,-8 11,-18 15,-28 9,-19 16,-40 19,-63 2,-14 2,-65 2,-81 0,-28 0,-56 0,-83 0,-9 1,-76 1,-83l-1 -1c-4,-2 -40,-12 -43,-12 -103,-27 -196,-24 -299,5 -6,2 -38,12 -41,14 0,27 0,54 0,80 0,27 1,53 1,80 0,17 -1,65 1,79 3,22 10,44 18,63 13,31 23,45 41,69 1,2 1,2 2,3l7 8c2,2 3,4 5,6 7,7 17,17 26,24 21,17 28,22 55,35 5,2 25,11 29,11z"/>
    <path class="fil2" d="M807 887c7,5 10,0 14,-3 1,1 4,4 9,4 4,-1 4,-4 5,-8 2,10 -9,12 -13,5 -2,2 -4,4 -7,5 -4,2 -6,0 -8,-3zm23 -13c0,-1 0,0 0,-1 0,0 1,-1 1,-1 2,-2 11,-8 14,-9 9,-4 35,-8 42,3 -8,-3 -5,-5 -20,-5 -25,0 -34,13 -37,13zm57 -20c-2,-2 2,-7 7,-9 1,0 2,0 2,-1 2,0 0,0 1,0 0,0 1,-1 1,-1l1 0c-1,3 -1,2 -3,3 -2,1 -3,1 -4,2 -3,2 -3,3 -5,6zm-19 -7c0,-5 7,-10 12,-12 2,-1 1,0 2,-2l0 3c-4,1 -6,2 -8,4 -1,1 -2,2 -3,4 -2,2 -1,2 -3,3zm-20 3c-1,-2 0,-7 2,-10 1,-3 5,-5 5,-7 4,5 -7,2 -7,17zm-3 -3c0,3 1,3 1,5l12 -2c1,-4 1,-7 5,-12 5,-6 13,-9 16,-5 0,0 0,0 -1,1 0,0 -1,0 -1,0 -1,0 -2,1 -3,1 -2,2 -2,3 -4,4 -1,2 -2,3 -3,4 0,1 -1,2 -1,3 0,1 0,1 0,2 1,2 0,0 1,1 1,0 8,2 10,2 1,-4 4,-7 6,-9 3,-2 10,-4 11,1 -3,1 -4,1 -6,4 -2,1 -4,4 -4,8l1 0c0,1 0,1 0,1 4,2 7,6 6,10 -3,-1 -5,-9 -24,-9 -8,0 -18,2 -24,5 -5,2 -14,9 -17,12 2,1 4,1 5,4 5,6 -4,13 -10,1 -2,3 -5,9 -10,8 -3,-1 -4,-4 -3,-6 1,-3 3,-4 5,-5 -3,-3 -6,-5 -6,-10 6,-5 10,0 12,4 2,-2 4,-5 7,-6 -2,-4 -3,-5 -3,-10 0,-5 2,-11 6,-11 0,3 -3,10 2,17 3,-1 5,-4 9,-5 -1,-6 -2,-9 0,-15 3,-7 10,-10 13,-7 0,0 -1,1 -2,2 -3,3 -6,7 -6,12zm-26 -21c-4,4 -11,5 -13,-1 1,2 4,3 6,3 3,-1 5,-2 7,-4 1,2 0,2 2,3 -2,-1 -1,0 -2,-1zm2 2c3,1 6,2 9,0 3,-2 3,-4 4,-8 0,1 2,6 -3,10 -2,1 -3,1 -6,1 -3,-1 -4,-2 -4,-3zm11 -12c0,-2 9,-5 11,-6 4,-2 8,-4 12,-5 13,-4 37,-7 50,-1 4,1 8,5 10,8 -1,-1 -2,-2 -4,-4 -14,-11 -46,-5 -61,0 -6,3 -15,7 -16,8 -2,1 -1,0 -2,0zm81 -23c-1,0 -2,1 -1,-1 4,-6 9,-4 12,-8 1,5 -3,4 -6,5 -4,2 -3,2 -5,4zm-100 -10c10,5 9,-1 11,-6 1,7 -3,10 -7,9 -1,0 -2,-1 -3,-2 -2,1 -5,2 -8,1 -1,-2 0,-1 -1,-2 4,1 4,2 8,0zm78 4c0,0 -2,1 0,-3 7,-12 11,-7 13,-12 1,3 0,3 -2,4 -3,1 -3,1 -5,3 -2,1 -2,2 -3,4 -1,1 -2,3 -3,4zm-23 2c-1,-3 2,-10 4,-12 1,-2 2,-3 3,-4 3,-2 2,-1 4,-4 2,4 -2,2 -6,9 -2,2 -2,3 -3,5 -1,2 -1,4 -2,6zm-62 -14c2,-1 5,-1 8,-2 3,-1 6,-2 8,-2 -1,1 -1,1 -2,2 4,10 -3,12 -5,8l-1 -1c-5,4 -10,1 -8,-5zm51 18c2,-8 1,-12 5,-19 4,-7 12,-9 15,-5 -2,2 -3,2 -5,4 -4,5 -10,18 -4,18l10 -1c1,-6 4,-12 8,-16 5,-6 13,-6 16,-2 -1,0 1,0 -1,0 -1,1 -1,1 -2,1 -6,2 -11,11 -11,16l13 2c2,-2 2,-4 4,-5 2,-2 3,-3 5,-5 4,-2 10,-2 11,3 -6,2 -9,4 -12,9 3,3 12,7 11,19 -2,0 -3,-2 -4,-4 -2,-1 -3,-2 -4,-3 -11,-8 -26,-7 -38,-6 -9,1 -17,3 -25,6 -6,2 -17,7 -21,10 1,1 1,1 2,2 5,7 -3,13 -8,9 -1,-2 -1,-3 -3,-5 -2,2 -6,8 -11,3 -2,-2 -2,-5 -1,-7 1,-2 3,-3 5,-4 -1,-2 0,0 -1,-2 -6,-7 -1,-13 6,-10 4,2 3,4 5,7 4,-2 8,-4 12,-6 1,-7 -3,-10 1,-18 2,-5 9,-10 12,-9 0,2 0,1 -1,3 0,0 -1,1 -1,2 -1,2 -2,3 -2,5 -1,5 -1,9 1,13 4,-2 8,-4 13,-5zm-34 -18c-1,-3 -1,-1 1,-3l5 -4c2,-2 5,-3 8,-5 4,-3 11,-6 17,-8 24,-9 58,-14 81,1 4,3 5,3 8,7 -1,-1 -1,-2 -3,-2 -7,-6 -15,-9 -24,-11 -13,-3 -24,-3 -37,0 -41,8 -53,23 -56,25zm117 -30c-2,-2 3,-7 12,-8 4,0 2,0 4,-2 1,6 -4,3 -9,4 -5,2 -6,5 -7,6zm-22 -10c-1,-2 -1,1 -1,-2l3 -3c10,-10 11,-6 13,-10 2,4 -2,3 -8,7 -4,3 -5,5 -7,8zm-26 -2c0,-4 2,-6 4,-9 2,-2 6,-5 8,-6 -1,3 -1,3 -4,4 -6,5 -6,9 -8,11zm-17 5c2,-17 18,-27 26,-21 -1,2 -13,8 -11,18l13 1c3,-6 5,-24 28,-17 -1,2 0,1 -2,2 -1,0 -2,0 -8,5 -2,1 -6,5 -6,10l13 4c2,-2 2,-3 4,-5 8,-8 21,-6 21,0 -10,0 -12,3 -17,10 4,3 12,8 10,16 -2,0 -5,-4 -9,-6 -20,-13 -44,-12 -67,-7 -12,3 -15,5 -24,8 2,-3 5,-5 9,-10 4,-6 10,-4 20,-8zm-11 -132c1,7 0,48 0,58 0,17 2,41 -3,55 -7,27 -32,50 -66,50 -33,0 -58,-23 -66,-50 -4,-15 -2,-38 -2,-55 0,-9 -1,-53 0,-58l137 0zm-239 89c5,-1 6,-1 10,-3 2,-2 0,-2 2,-1 0,1 -5,6 -12,4zm25 -13c0,0 0,0 0,0l2 4c1,5 -3,9 -10,8 2,-1 5,0 8,-3 2,-4 1,-6 0,-9zm0 0l-2 -2c3,-2 5,-3 8,-5 18,-10 39,-16 60,-17 1,0 4,0 5,1 -1,1 -9,1 -11,1 -4,0 -7,0 -11,1 -24,5 -30,10 -50,19l1 2zm6 -22c-2,0 -3,-3 -3,-5 0,-10 7,-11 7,-16 1,2 3,2 0,5 -5,4 -6,11 -4,16zm20 -7c-3,-4 -1,-9 1,-13 1,-1 2,-2 4,-3 5,-3 2,-2 4,-5 1,4 0,4 -2,5 -10,6 -6,14 -7,16zm22 -5c-1,-2 1,-5 2,-7 1,-2 1,-3 3,-5 1,-1 3,-3 5,-4 2,-2 3,-1 3,-5 3,2 1,4 -1,5 -11,7 -9,14 -12,16zm-12 4c2,-1 1,-6 2,-10 1,-4 2,-6 4,-8 3,-4 10,-8 17,-6 -1,2 0,1 -2,2 -7,5 -12,12 -12,20l17 -1c2,-4 5,-10 9,-11l0 18c-4,1 -8,0 -12,1 -11,1 -21,3 -31,6 -11,3 -17,7 -26,12 -2,1 -6,3 -8,4 2,2 3,2 4,5 3,5 -2,13 -11,3 -3,2 -9,9 -13,4 -2,-2 -2,-5 -1,-8 1,-2 3,-2 5,-3 -1,-2 -2,-3 -2,-6 -1,-7 6,-9 9,-6 2,1 2,3 3,6l9 -6c-10,-19 3,-30 11,-28 -1,3 -2,1 -4,5 -4,7 -3,12 0,18l12 -5c-1,-7 -2,-12 2,-18 2,-4 7,-9 14,-7 0,2 -1,1 -2,2 -9,6 -8,13 -6,21l12 -4zm-44 -21c13,-5 17,-10 35,-15 8,-2 39,-7 44,-3 -6,0 -12,-1 -23,1 -14,1 -26,4 -38,10 -5,2 -12,6 -17,8 2,4 3,7 0,10 -2,3 -6,4 -10,2 4,0 7,0 9,-3 3,-4 1,-6 0,-10zm12 -19c-1,-3 2,-14 4,-16 4,-2 1,-1 3,-4 1,8 -1,0 -4,11 -1,1 -1,3 -2,4 -1,5 1,3 -1,5zm87 -23c6,5 -5,5 -7,7 -4,2 -4,4 -7,3 2,-1 3,-3 6,-4 2,-2 6,-2 8,-3l0 -3zm-118 3c8,-2 6,-4 7,-2 -2,2 -5,3 -8,3l1 -1zm63 -8c5,4 0,6 -2,7 -1,1 -2,2 -3,3 -3,4 -3,7 -4,9 -2,-2 1,-8 3,-10 2,-3 3,-3 7,-5l-1 -4zm3 19c3,-9 7,-23 21,-22 2,0 3,1 4,2 -1,1 0,1 -2,1 0,0 -1,0 -1,0 -8,2 -14,12 -11,18l15 -1c3,-8 6,-14 17,-14 3,0 7,1 7,4 -5,1 -9,1 -14,9l-4 0 0 10c-20,1 -22,-2 -46,5 -18,5 -24,11 -36,15 1,2 2,3 2,6 1,7 -7,10 -12,1 -2,2 -8,7 -12,2 -4,-5 1,-9 6,-10 -1,-4 -4,-10 0,-12 5,-2 8,3 9,6 4,-1 7,-3 11,-4 0,-9 -1,-11 2,-19 3,-5 8,-9 13,-7 0,1 -2,2 -3,4 -1,2 -1,4 -2,6 -1,3 -4,8 0,11 1,0 12,-4 12,-4 0,-1 1,-12 2,-14 1,-4 3,-7 6,-9 3,-2 10,-4 12,-1 -1,1 -1,1 -3,2 -2,1 -4,3 -5,6 -3,3 -3,6 -2,12l14 -3zm27 -22c1,1 2,3 1,5 -2,2 -8,-1 -13,9 -1,1 -1,1 -1,3 -1,2 0,1 -2,2 0,-5 3,-8 5,-10 4,-5 5,-2 10,-5l0 -4zm-61 -21c-2,-4 1,-12 3,-15 1,-1 3,-4 5,-5 5,-3 3,-1 4,-4l1 3c-1,1 -3,2 -5,3 -2,2 -3,3 -4,5 -1,1 -2,3 -3,6 -1,4 0,5 -1,7zm91 -13c4,-10 21,-3 18,-12 2,2 2,2 2,5 -5,1 -11,0 -16,5 -2,1 -2,2 -4,2zm-59 3c-1,0 -2,1 -1,-4 3,-14 13,-13 15,-17l0 -1 1 2c-2,3 -3,2 -5,4 -10,5 -9,12 -10,16zm30 -4c1,-10 8,-15 15,-18 3,-1 5,0 5,-4 1,0 2,1 1,3 -1,2 -13,3 -17,11 -3,7 -1,7 -4,8zm-12 3c2,-10 2,-14 8,-20 6,-5 16,-7 21,-5 1,1 0,1 1,1 -3,2 -7,1 -14,7 -2,2 -7,11 -5,16l18 -1c2,-2 3,-5 5,-7 7,-8 23,-8 24,-2 -9,0 -17,2 -20,10 10,2 19,6 19,16 -6,-1 -11,-17 -64,-6 -11,3 -20,5 -31,9 -10,3 -15,6 -24,10 0,0 -1,0 -2,1 -1,1 0,0 -1,1 3,3 5,8 0,11 -4,3 -8,-1 -10,-4 -2,2 -8,7 -12,2 -4,-5 1,-9 6,-10 -1,-4 -2,-4 -2,-9 3,-2 4,-3 8,-2 2,1 2,2 3,3 1,1 1,0 1,1 1,0 1,0 1,1l0 0c0,0 0,0 0,0 3,-1 7,-4 10,-5 -1,-8 -2,-17 3,-23 5,-7 14,-10 17,-7 -2,1 -4,2 -6,4 -8,8 -8,19 -5,21 1,0 15,-6 21,-7 0,-9 0,-15 5,-21 5,-6 16,-8 19,-5l-2 1c-2,1 -2,0 -5,2 -4,3 -7,7 -8,12 -3,13 4,7 21,5zm-92 150l108 0c0,8 0,12 2,19 4,17 12,28 23,39l15 10c8,5 12,4 17,7 4,0 8,1 13,1l11 0c1,0 1,0 1,1l-4 0 0 153c1,1 -1,1 1,0 21,-6 55,-26 72,-40 4,-3 8,-5 11,-8l10 -9c0,0 -1,0 -1,0l-3 -3c1,1 1,1 2,1 2,-1 2,-4 2,-7 0,1 1,2 1,4 0,1 -1,3 -1,4 2,-1 0,0 2,-2 1,-1 1,-1 2,-2 2,-1 3,-2 4,-4l14 -14c0,-1 0,-1 1,-2 3,-3 5,-6 7,-9 28,-33 54,-87 55,-131l0 0 -107 -1c-1,7 -2,14 -4,20 -1,3 -2,5 -3,8 -2,4 -3,6 -5,7 4,-10 7,-11 10,-28 2,-12 1,-98 1,-113l-72 0 -8 0 0 -95c-44,1 -98,9 -140,23l-38 13c-2,1 -1,0 -2,1 0,13 1,26 1,39 1,13 0,26 1,39 1,23 1,56 1,79z"/>
    <path class="fil2" d="M794 645c4,2 6,0 9,-1 3,0 6,0 8,1l2 1c0,0 0,0 0,0 0,2 -6,1 -6,4 1,6 9,7 9,12 -3,0 -3,-2 -7,-2 2,4 6,3 5,11 -2,-1 -5,-7 -7,-4 -1,0 4,3 3,10 -3,0 -3,-4 -6,-5 -6,-1 -14,17 2,17l17 0c7,0 9,5 13,6 7,-4 0,-12 -2,-15 -2,-2 -4,-3 -5,-6 -2,-6 3,-9 4,-4l1 1c1,-1 0,1 1,-1 1,-2 1,-5 2,-7 2,-1 2,-1 5,-1 3,-1 1,-1 3,-3 2,0 3,0 3,3 -1,3 -9,7 -6,12 1,0 1,1 2,-2 1,-1 1,-2 1,-3l3 0c1,9 -5,7 -3,11 2,2 7,-3 6,2 0,2 0,2 0,2 0,0 0,1 -1,1 0,0 0,0 0,0 2,0 0,0 1,0 1,1 1,1 1,1 0,2 0,3 -1,4 -1,2 -2,2 -3,3 2,3 4,0 4,4 -2,2 -6,1 -8,0 -3,-2 -6,1 -7,2l1 6c1,8 -17,10 -2,21 1,5 -1,7 -3,9 -5,3 -3,4 -5,7 -1,1 -6,2 -10,5l1 5c-2,1 -6,2 -8,1 -1,-4 2,-4 3,-7 2,-5 6,-5 8,-9 1,-3 6,-6 5,-11 -2,-1 -5,-2 -6,-2 -4,-2 -2,-4 -6,-4 -2,4 2,9 -3,11 -5,2 -8,6 -13,7 -2,1 -3,2 -5,3l0 4c-2,1 -5,1 -8,0 1,-3 2,-2 3,-4 1,-1 1,-3 3,-4 1,-1 2,0 5,-2 10,-7 5,-7 10,-10 1,-5 -3,-4 -4,-9 0,-3 1,-1 1,-5 -7,-1 -15,1 -19,-2 -3,-1 -3,-2 -6,-3 -4,0 -4,3 -10,2 -6,-1 -13,-6 -13,3 0,3 0,9 1,12 1,3 4,1 6,2 0,4 0,3 -2,6 -3,0 -3,-1 -4,-3 -2,-3 -2,-2 -5,-4 0,-3 -2,-19 0,-22 3,-1 3,0 6,-1 3,-1 4,0 7,-1l0 -4c-1,0 -1,0 -1,0 0,0 0,0 0,0 -1,0 -4,0 -6,-2 0,-4 0,-3 -2,-6 -1,-2 -1,-3 -2,-5 -5,1 -5,8 -9,12 -1,2 -2,3 -2,5l2 3c-2,1 -6,3 -8,3 -2,-4 2,-7 4,-11 0,-2 0,-3 1,-5l9 -12c5,-1 4,0 6,3 1,2 3,5 6,4 2,-2 0,-5 4,-9 3,-4 3,-3 7,-5 0,-2 1,-7 1,-7 -5,-3 -5,3 -9,2 -1,-1 0,-2 0,-3 -3,0 -4,0 -6,-1l0 -1c2,-2 2,0 4,-3 3,-5 7,-6 13,-5 -1,-3 -3,-3 -5,-6l9 1c1,-1 1,-2 4,-3 6,-1 2,-3 7,-5 2,-1 5,-2 7,-1 -2,2 -5,3 -5,6zm65 -35l-127 0c-1,5 0,47 0,54 0,16 -2,38 2,53 6,25 30,48 61,48 31,0 55,-23 62,-48 3,-13 2,-37 2,-52 0,-7 0,-52 0,-55z"/>
    <path class="fil2" d="M919 507l7 1 0 -40c3,0 2,3 2,9l0 32 -8 -2c-1,0 0,0 -1,0zm38 -6l16 5c0,-3 0,-7 0,-9 2,1 2,0 2,4 0,2 0,4 0,6l-18 -6zm-12 2c-1,-1 -1,-4 0,-6l1 1c0,1 0,4 -1,5zm30 -11c0,-3 -1,-8 0,-9 2,0 1,6 1,9l-1 0zm-261 -3c-1,7 -5,9 -12,10 -4,1 -25,5 -29,6 -4,0 -5,-1 -6,-6 -1,-5 -1,-16 0,-22 1,-7 5,-8 12,-10 6,-2 22,-5 28,-5 5,0 6,2 7,5 1,6 1,16 0,22zm176 -2l0 14 -2 0c1,-2 1,-3 1,-7 0,-3 0,-5 0,-8l3 0 -2 1zm-265 23l0 10 -8 3 0 -37c0,-1 2,-1 5,-2 2,-1 4,-2 6,-2 5,-2 20,-7 24,-7 6,0 6,3 6,10 0,11 -2,14 -11,17l-22 8zm110 -23c-1,3 0,7 -1,10 -1,0 -3,0 -5,1 -3,0 -4,0 -6,0 2,-1 8,-2 10,-2l0 -10c2,0 17,-2 21,-1l-19 2zm152 11l-9 -1 0 -36 9 1 0 14 29 5 0 -14 9 2 0 37 -9 -2 0 -14c-5,-2 -23,-5 -29,-6l0 14zm-122 -17c4,3 4,8 5,14 -3,0 -10,1 -12,0 2,-2 7,-1 10,-1 1,-4 -1,-10 -3,-13zm178 8c4,1 25,7 27,8 2,1 2,0 2,7l-29 -9c0,13 -3,8 15,14 5,2 11,3 15,5l0 6 -38 -12 0 -36c5,0 31,9 38,11l0 6 -30 -9 0 9zm-284 -14c3,3 5,21 -5,27 -7,4 -18,6 -26,10 0,10 1,9 -3,11l-9 3c0,-1 0,-1 2,-2l8 -3 0 -10c5,-1 9,-3 13,-5 11,-3 19,-4 21,-15 0,-6 0,-10 -1,-16zm116 19c10,0 22,0 32,0 6,-1 9,-1 11,-6 1,-5 1,-10 -1,-15 2,1 3,4 3,6 1,11 -2,15 -11,15 -11,1 -23,1 -34,1l0 -1zm-17 -37c6,-1 9,1 9,8 0,14 -1,9 -9,13 1,1 0,1 1,1 3,2 8,4 7,13l-8 1c0,-5 -2,-10 -7,-10l-19 2 0 10 -8 1 0 -37 34 -2zm112 10c1,-3 0,-7 1,-9 1,1 1,-2 1,2l0 8c-33,-2 -39,-10 -35,16 -2,-2 -2,-4 -2,-7 0,-9 -1,-11 5,-12 3,-1 26,2 30,2zm-1 23l1 6c-10,0 -21,-2 -31,-3 -14,-1 -14,-3 -14,-17 0,-24 0,-20 44,-17l0 6c-8,0 -15,-1 -23,-2 -12,0 -13,1 -13,13 0,11 3,10 13,11 8,1 15,2 23,3zm-52 -34c0,-1 0,-1 0,-1 2,1 1,-2 1,2 0,0 0,2 0,2 0,2 0,3 0,5l-28 -1c-6,0 -5,1 -5,3 0,2 0,1 -1,2 -1,-5 -1,-5 5,-5l28 0 0 -7zm-103 7c4,4 3,14 3,20 0,18 -5,17 -27,21 -3,1 -7,2 -10,2 -2,1 -6,1 -8,1 0,0 -1,0 -1,0 -1,-1 -1,-1 -1,-1 6,0 33,-5 39,-7 6,-3 6,-7 7,-15 0,-7 0,-16 -2,-21zm61 24c6,0 12,-1 18,-1 4,0 13,2 15,-1 2,-2 1,-6 0,-8 -2,-1 -5,-1 -7,-1 -20,0 -26,3 -26,-9 -1,-7 0,-10 6,-11 8,-2 25,0 34,0l0 5c-8,0 -26,-1 -32,1 -1,3 -2,5 1,8 5,1 18,0 24,1 4,0 7,0 8,3 1,3 4,16 -5,18 -4,0 -31,0 -36,0l0 -5zm-13 -8c2,-1 3,-1 5,-3 3,-3 2,-14 0,-18 1,1 0,0 2,1 0,1 0,1 0,2 1,1 1,2 1,3 0,2 0,5 0,7 0,5 -3,9 -8,8zm-153 7l1 47 40 -13c43,-13 94,-22 140,-22 42,0 67,1 110,9 24,5 47,11 70,19 3,1 7,2 10,3 0,-11 1,-40 0,-49 0,-3 -1,-2 -8,-4 -49,-16 -106,-27 -159,-27 -61,0 -105,7 -162,23 -16,4 -29,10 -42,14z"/>
    <polygon class="fil3" points="798,600 870,600 870,600 979,600 980,553 797,553 798,553 "/>
    <path class="fil3" d="M792 776l-14 -2 0 0c-5,-3 -9,-2 -17,-7l-15 -10 -124 0c1,8 16,40 19,46l151 0 0 -27z"/>
    <path class="fil3" d="M871 699c5,0 104,1 108,0l0 -47 -108 -1 0 48z"/>
    <path class="fil1" d="M844 686c2,-1 3,-1 6,-1 -1,1 -1,2 -2,3 -3,0 -3,0 -4,-2zm-52 -14c0,-5 0,-10 0,-14 -2,-6 -4,-5 -5,-8 5,-2 8,7 8,12 0,5 1,9 -3,10zm2 -27c0,-3 3,-4 5,-6 -2,-1 -5,0 -7,1 -5,2 -1,4 -7,5 -3,1 -3,2 -4,3l-9 -1c2,3 4,3 5,6 -6,-1 -10,0 -13,5 -2,3 -2,1 -4,3l0 1c2,1 3,1 6,1 0,1 -1,2 0,3 4,1 4,-5 9,-2 0,0 -1,5 -1,7 -4,2 -4,1 -7,5 -4,4 -2,7 -4,9 -3,1 -5,-2 -6,-4 -2,-3 -1,-4 -6,-3l-9 12c-1,2 -1,3 -1,5 -2,4 -6,7 -4,11 2,0 6,-2 8,-3l-2 -3c0,-2 1,-3 2,-5 4,-4 4,-11 9,-12 1,2 1,3 2,5 2,3 2,2 2,6 2,2 5,2 6,2 0,0 0,0 0,0 0,0 0,0 1,0l0 4c-3,1 -4,0 -7,1 -3,1 -3,0 -6,1 -2,3 0,19 0,22 3,2 3,1 5,4 1,2 1,3 4,3 2,-3 2,-2 2,-6 -2,-1 -5,1 -6,-2 -1,-3 -1,-9 -1,-12 0,-9 7,-4 13,-3 6,1 6,-2 10,-2 3,1 3,2 6,3 4,3 12,1 19,2 0,4 -1,2 -1,5 1,5 5,4 4,9 -5,3 0,3 -10,10 -3,2 -4,1 -5,2 -2,1 -2,3 -3,4 -1,2 -2,1 -3,4 3,1 6,1 8,0l0 -4c2,-1 3,-2 5,-3 5,-1 8,-5 13,-7 5,-2 1,-7 3,-11 4,0 2,2 6,4 1,0 4,1 6,2 1,5 -4,8 -5,11 -2,4 -6,4 -8,9 -1,3 -4,3 -3,7 2,1 6,0 8,-1l-1 -5c4,-3 9,-4 10,-5 2,-3 0,-4 5,-7 2,-2 4,-4 3,-9 -15,-11 3,-13 2,-21l-1 -6c1,-1 4,-4 7,-2 2,1 6,2 8,0 0,-4 -2,-1 -4,-4 1,-1 2,-1 3,-3 1,-1 1,-2 1,-4 0,0 0,0 -1,-1 -1,0 1,0 -1,0 0,0 0,0 0,0 1,0 1,-1 1,-1 0,0 0,0 0,-2 1,-5 -4,0 -6,-2 -2,-4 4,-2 3,-11l-3 0c0,1 0,2 -1,3 -1,3 -1,2 -2,2 -3,-5 5,-9 6,-12 0,-3 -1,-3 -3,-3 -2,2 0,2 -3,3 -3,0 -3,0 -5,1 -1,2 -1,5 -2,7 -1,2 0,0 -1,1l-1 -1c-1,-5 -6,-2 -4,4 1,3 3,4 5,6 2,3 9,11 2,15 -4,-1 -6,-6 -13,-6l-17 0c-16,0 -8,-18 -2,-17 3,1 3,5 6,5 1,-7 -4,-10 -3,-10 2,-3 5,3 7,4 1,-8 -3,-7 -5,-11 4,0 4,2 7,2 0,-5 -8,-6 -9,-12 0,-3 6,-2 6,-4 0,0 0,0 0,0l-2 -1c-2,-1 -5,-1 -8,-1 -3,1 -5,3 -9,1z"/>
    <path class="fil3" d="M684 862c1,3 21,21 25,25l9 7c19,14 51,32 74,36l0 -68 -108 0z"/>
    <path class="fil1" d="M859 610c0,3 0,48 0,55 0,15 1,39 -2,52 -7,25 -31,48 -62,48 -31,0 -55,-23 -61,-48 -4,-15 -2,-37 -2,-53 0,-7 -1,-49 0,-54l127 0zm5 -4l-137 0c-1,5 0,49 0,58 0,17 -2,40 2,55 8,27 33,50 66,50 34,0 59,-23 66,-50 5,-14 3,-38 3,-55 0,-10 1,-51 0,-58z"/>
    <path class="fil1" d="M705 549c-17,2 -24,8 -21,-5 1,-5 4,-9 8,-12 3,-2 3,-1 5,-2l2 -1c-3,-3 -14,-1 -19,5 -5,6 -5,12 -5,21 -6,1 -20,7 -21,7 -3,-2 -3,-13 5,-21 2,-2 4,-3 6,-4 -3,-3 -12,0 -17,7 -5,6 -4,15 -3,23 -3,1 -7,4 -10,5 0,0 0,0 0,0l0 0c0,-1 0,-1 -1,-1 0,-1 0,0 -1,-1 -1,-1 -1,-2 -3,-3 -4,-1 -5,0 -8,2 0,5 1,5 2,9 -5,1 -10,5 -6,10 4,5 10,0 12,-2 2,3 6,7 10,4 5,-3 3,-8 0,-11 1,-1 0,0 1,-1 1,-1 2,-1 2,-1 9,-4 14,-7 24,-10 11,-4 20,-6 31,-9 53,-11 58,5 64,6 0,-10 -9,-14 -19,-16 3,-8 11,-10 20,-10 -1,-6 -17,-6 -24,2 -2,2 -3,5 -5,7l-18 1c-2,-5 3,-14 5,-16 7,-6 11,-5 14,-7 -1,0 0,0 -1,-1 -5,-2 -15,0 -21,5 -6,6 -6,10 -8,20z"/>
    <path class="fil1" d="M857 793c-5,1 -9,3 -13,5 -2,-4 -2,-8 -1,-13 0,-2 1,-3 2,-5 0,-1 1,-2 1,-2 1,-2 1,-1 1,-3 -3,-1 -10,4 -12,9 -4,8 0,11 -1,18 -4,2 -8,4 -12,6 -2,-3 -1,-5 -5,-7 -7,-3 -12,3 -6,10 1,2 0,0 1,2 -2,1 -4,2 -5,4 -1,2 -1,5 1,7 5,5 9,-1 11,-3 2,2 2,3 3,5 5,4 13,-2 8,-9 -1,-1 -1,-1 -2,-2 4,-3 15,-8 21,-10 8,-3 16,-5 25,-6 12,-1 27,-2 38,6 1,1 2,2 4,3 1,2 2,4 4,4 1,-12 -8,-16 -11,-19 3,-5 6,-7 12,-9 -1,-5 -7,-5 -11,-3 -2,2 -3,3 -5,5 -2,1 -2,3 -4,5l-13 -2c0,-5 5,-14 11,-16 1,0 1,0 2,-1 2,0 0,0 1,0 -3,-4 -11,-4 -16,2 -4,4 -7,10 -8,16l-10 1c-6,0 0,-13 4,-18 2,-2 3,-2 5,-4 -3,-4 -11,-2 -15,5 -4,7 -3,11 -5,19z"/>
    <path class="fil1" d="M689 603l-14 3c-1,-6 -1,-9 2,-12 1,-3 3,-5 5,-6 2,-1 2,-1 3,-2 -2,-3 -9,-1 -12,1 -3,2 -5,5 -6,9 -1,2 -2,13 -2,14 0,0 -11,4 -12,4 -4,-3 -1,-8 0,-11 1,-2 1,-4 2,-6 1,-2 3,-3 3,-4 -5,-2 -10,2 -13,7 -3,8 -2,10 -2,19 -4,1 -7,3 -11,4 -1,-3 -4,-8 -9,-6 -4,2 -1,8 0,12 -5,1 -10,5 -6,10 4,5 10,0 12,-2 5,9 13,6 12,-1 0,-3 -1,-4 -2,-6 12,-4 18,-10 36,-15 24,-7 26,-4 46,-5l0 -10 4 0c5,-8 9,-8 14,-9 0,-3 -4,-4 -7,-4 -11,0 -14,6 -17,14l-15 1c-3,-6 3,-16 11,-18 0,0 1,0 1,0 2,0 1,0 2,-1 -1,-1 -2,-2 -4,-2 -14,-1 -18,13 -21,22z"/>
    <path class="fil1" d="M686 652l-12 4c-2,-8 -3,-15 6,-21 1,-1 2,0 2,-2 -7,-2 -12,3 -14,7 -4,6 -3,11 -2,18l-12 5c-3,-6 -4,-11 0,-18 2,-4 3,-2 4,-5 -8,-2 -21,9 -11,28l-9 6c-1,-3 -1,-5 -3,-6 -3,-3 -10,-1 -9,6 0,3 1,4 2,6 -2,1 -4,1 -5,3 -1,3 -1,6 1,8 4,5 10,-2 13,-4 9,10 14,2 11,-3 -1,-3 -2,-3 -4,-5 2,-1 6,-3 8,-4 9,-5 15,-9 26,-12 10,-3 20,-5 31,-6 4,-1 8,0 12,-1l0 -18c-4,1 -7,7 -9,11l-17 1c0,-8 5,-15 12,-20 2,-1 1,0 2,-2 -7,-2 -14,2 -17,6 -2,2 -3,4 -4,8 -1,4 0,9 -2,10z"/>
    <path class="fil1" d="M875 738c-10,4 -16,2 -20,8 -4,5 -7,7 -9,10 9,-3 12,-5 24,-8 23,-5 47,-6 67,7 4,2 7,6 9,6 2,-8 -6,-13 -10,-16 5,-7 7,-10 17,-10 0,-6 -13,-8 -21,0 -2,2 -2,3 -4,5l-13 -4c0,-5 4,-9 6,-10 6,-5 7,-5 8,-5 2,-1 1,0 2,-2 -23,-7 -25,11 -28,17l-13 -1c-2,-10 10,-16 11,-18 -8,-6 -24,4 -26,21z"/>
    <path class="fil1" d="M845 847c0,-5 3,-9 6,-12 1,-1 2,-2 2,-2 -3,-3 -10,0 -13,7 -2,6 -1,9 0,15 -4,1 -6,4 -9,5 -5,-7 -2,-14 -2,-17 -4,0 -6,6 -6,11 0,5 1,6 3,10 -3,1 -5,4 -7,6 -2,-4 -6,-9 -12,-4 0,5 3,7 6,10 -2,1 -4,2 -5,5 -1,2 0,5 3,6 5,1 8,-5 10,-8 6,12 15,5 10,-1 -1,-3 -3,-3 -5,-4 3,-3 12,-10 17,-12 6,-3 16,-5 24,-5 19,0 21,8 24,9 1,-4 -2,-8 -6,-10 0,0 0,0 0,-1l-1 0c0,-4 2,-7 4,-8 2,-3 3,-3 6,-4 -1,-5 -8,-3 -11,-1 -2,2 -5,5 -6,9 -2,0 -9,-2 -10,-2 -1,-1 0,1 -1,-1 0,-1 0,-1 0,-2 0,-1 1,-2 1,-3 1,-1 2,-2 3,-4 2,-1 2,-2 4,-4 1,0 2,-1 3,-1 0,0 1,0 1,0 1,-1 1,-1 1,-1 -3,-4 -11,-1 -16,5 -4,5 -4,8 -5,12l-12 2c0,-2 -1,-2 -1,-5z"/>
    <path class="fil1" d="M697 470c5,-1 8,0 9,5 0,3 0,11 -1,13 -2,5 -16,7 -21,8 -5,0 -9,1 -9,-5 -1,-3 -1,-10 0,-13 2,-5 16,-7 22,-8zm17 19c1,-6 1,-16 0,-22 -1,-3 -2,-5 -7,-5 -6,0 -22,3 -28,5 -7,2 -11,3 -12,10 -1,6 -1,17 0,22 1,5 2,6 6,6 4,-1 25,-5 29,-6 7,-1 11,-3 12,-10z"/>
    <path class="fil4" d="M788 937l2 1c8,2 8,1 14,-1 6,-2 11,-4 16,-6 24,-11 38,-19 58,-35 9,-7 20,-17 28,-25 9,-8 12,-14 20,-22 13,-15 32,-45 40,-64 19,-43 21,-59 21,-104l1 -186c1,-7 1,-15 1,-21 -1,0 -2,-1 -2,-1 0,7 -1,74 -1,83 0,27 0,55 0,83 0,16 0,67 -2,81 -3,23 -10,44 -19,63 -4,10 -10,20 -15,28 -5,9 -10,17 -16,25l-14 17c-1,1 -1,2 -3,3l-7 8c-11,12 -25,24 -38,34 -8,6 -16,12 -25,17 -14,8 -27,14 -42,20 -15,5 -8,2 -17,2z"/>
    <path class="fil1" d="M753 464c5,-1 6,2 6,6 0,4 -2,6 -6,6 -5,1 -16,2 -21,2l0 -13 21 -1zm-29 -5l0 37 8 -1 0 -10 19 -2c5,0 7,5 7,10l8 -1c1,-9 -4,-11 -7,-13 -1,0 0,0 -1,-1 8,-4 9,1 9,-13 0,-7 -3,-9 -9,-8l-34 2z"/>
    <path class="fil1" d="M887 484c6,1 24,4 29,6l0 14 9 2 0 -37 -9 -2 0 14 -29 -5 0 -14 -9 -1 0 36 9 1 0 -14z"/>
    <path class="fil1" d="M943 480l30 9 0 -6c-7,-2 -33,-11 -38,-11l0 36 38 12 0 -6c-4,-2 -10,-3 -15,-5 -18,-6 -15,-1 -15,-14l29 9c0,-7 0,-6 -2,-7 -2,-1 -23,-7 -27,-8l0 -9z"/>
    <path class="fil1" d="M625 489c13,-2 26,-13 25,1 0,6 -5,6 -11,8 -5,2 -10,4 -14,5l0 -14zm22 13c9,-3 11,-6 11,-17 0,-7 0,-10 -6,-10 -4,0 -19,5 -24,7 -2,0 -4,1 -6,2 -3,1 -5,1 -5,2l0 37 8 -3 0 -10 22 -8z"/>
    <path class="fil1" d="M775 487l0 5c5,0 32,0 36,0 9,-2 6,-15 5,-18 -1,-3 -4,-3 -8,-3 -6,-1 -19,0 -24,-1 -3,-3 -2,-5 -1,-8 6,-2 24,-1 32,-1l0 -5c-9,0 -26,-2 -34,0 -6,1 -7,4 -6,11 0,12 6,9 26,9 2,0 5,0 7,1 1,2 2,6 0,8 -2,3 -11,1 -15,1 -6,0 -12,1 -18,1z"/>
    <path class="fil1" d="M869 490c-8,-1 -15,-2 -23,-3 -10,-1 -13,0 -13,-11 0,-12 1,-13 13,-13 8,1 15,2 23,2l0 -6c-44,-3 -44,-7 -44,17 0,14 0,16 14,17 10,1 21,3 31,3l-1 -6z"/>
    <path class="fil2" d="M677 494c-1,-4 -1,-8 -1,-12 0,-5 2,-6 6,-7 4,-1 17,-5 21,-3 -3,1 -8,1 -11,2 -14,3 -15,2 -15,14 0,5 1,4 0,6zm20 -24c-6,1 -20,3 -22,8 -1,3 -1,10 0,13 0,6 4,5 9,5 5,-1 19,-3 21,-8 1,-2 1,-10 1,-13 -1,-5 -4,-6 -9,-5z"/>
    <path class="fil5" d="M613 699c0,-23 0,-56 -1,-79 -1,-13 0,-26 -1,-39 0,-13 -1,-26 -1,-39 1,-1 0,0 2,-1l38 -13c42,-14 96,-22 140,-23 0,-1 0,-1 -1,-1 -31,0 -67,5 -97,11 -28,6 -59,15 -83,25 0,27 1,53 1,79 0,26 0,54 1,80l2 0z"/>
    <path class="fil1" d="M1041 467c3,0 6,0 8,1 0,2 0,4 -3,4l-3 0 -2 -1 0 -4zm11 15c-1,1 0,1 -1,1 0,1 0,1 -1,1 0,0 -1,1 -2,1 -2,1 -4,1 -6,1 -10,-1 -14,-15 -6,-22 5,-6 13,-4 17,0 4,5 5,16 -1,18 -1,-3 -3,-5 -4,-8 3,0 4,-1 5,-3 2,-9 -12,-7 -16,-7 0,4 -1,15 0,18l4 0 0 -7c5,-1 3,1 7,7l4 0zm-25 -7c1,8 9,16 19,15 9,-2 16,-9 15,-19 -1,-9 -9,-16 -19,-15 -8,2 -16,9 -15,19z"/>
    <path class="fil2" d="M733 467c4,-1 20,-3 23,-1l-21 2c-1,2 0,6 -1,8 -1,-1 -1,-5 -1,-9zm-1 -2l0 13c5,0 16,-1 21,-2 4,0 6,-2 6,-6 0,-4 -1,-7 -6,-6l-21 1z"/>
    <path class="fil2" d="M645 485c3,-1 2,0 2,0 -4,1 -15,5 -19,6l0 9 -2 1 1 -11 18 -5zm-20 4l0 14c4,-1 9,-3 14,-5 6,-2 11,-2 11,-8 1,-14 -12,-3 -25,-1z"/>
    <path class="fil6" d="M1052 482l-4 0c-4,-6 -2,-8 -7,-7l0 7 -4 0c-1,-3 0,-14 0,-18 4,0 18,-2 16,7 -1,2 -2,3 -5,3 1,3 3,5 4,8 6,-2 5,-13 1,-18 -4,-4 -12,-6 -17,0 -8,7 -4,21 6,22 2,0 4,0 6,-1 1,0 2,-1 2,-1 1,0 1,0 1,-1 1,0 0,0 1,-1z"/>
    <path class="fil7" d="M978 707l0 -2 -108 0 0 -5c1,-1 0,-1 1,-1l0 -48c-1,-1 -1,0 -1,-3l0 -48 0 0c0,15 1,101 -1,113 -3,17 -6,18 -10,28 2,-1 3,-3 5,-7 1,-3 2,-5 3,-8 2,-6 3,-13 4,-20l107 1z"/>
    <path class="fil7" d="M792 776l6 0 0 154c0,0 1,0 1,0 1,0 1,0 1,-1 -2,1 0,1 -1,0l0 -153 4 0c0,-1 0,-1 -1,-1l-11 0c-5,0 -9,-1 -13,-1l0 0 14 2z"/>
    <path class="fil7" d="M823 775c3,-2 15,-17 56,-25 13,-3 24,-3 37,0 9,2 17,5 24,11 2,0 2,1 3,2 -3,-4 -4,-4 -8,-7 -23,-15 -57,-10 -81,-1 -6,2 -13,5 -17,8 -3,2 -6,3 -8,5l-5 4c-2,2 -2,0 -1,3z"/>
    <path class="fil1" d="M806 775c-2,6 3,9 8,5l1 1c2,4 9,2 5,-8 1,-1 1,-1 2,-2 -2,0 -5,1 -8,2 -3,1 -6,1 -8,2z"/>
    <path class="fil7" d="M832 816c1,0 0,1 2,0 1,-1 10,-5 16,-8 15,-5 47,-11 61,0 2,2 3,3 4,4 -2,-3 -6,-7 -10,-8 -13,-6 -37,-3 -50,1 -4,1 -8,3 -12,5 -2,1 -11,4 -11,6z"/>
    <path class="fil8" d="M642 631c1,4 3,6 0,10 -2,3 -5,3 -9,3 4,2 8,1 10,-2 3,-3 2,-6 0,-10 5,-2 12,-6 17,-8 12,-6 24,-9 38,-10 11,-2 17,-1 23,-1 -5,-4 -36,1 -44,3 -18,5 -22,10 -35,15z"/>
    <path class="fil7" d="M659 475c1,6 1,10 1,16 -2,11 -10,12 -21,15 -4,2 -8,4 -13,5l0 10 -8 3c-2,1 -2,1 -2,2l9 -3c4,-2 3,-1 3,-11 8,-4 19,-6 26,-10 10,-6 8,-24 5,-27z"/>
    <path class="fil7" d="M650 682l-1 -2c20,-9 26,-14 50,-19 4,-1 7,-1 11,-1 2,0 10,0 11,-1 -1,-1 -4,-1 -5,-1 -21,1 -42,7 -60,17 -3,2 -5,3 -8,5l2 2z"/>
    <path class="fil7" d="M714 463c2,5 2,14 2,21 -1,8 -1,12 -7,15 -6,2 -33,7 -39,7 0,0 0,0 1,1 0,0 1,0 1,0 2,0 6,0 8,-1 3,0 7,-1 10,-2 22,-4 27,-3 27,-21 0,-6 1,-16 -3,-20z"/>
    <path class="fil4" d="M830 874c3,0 12,-13 37,-13 15,0 12,2 20,5 -7,-11 -33,-7 -42,-3 -3,1 -12,7 -14,9 0,0 -1,1 -1,1 0,1 0,0 0,1z"/>
    <path class="fil9" d="M792 672c4,-1 3,-5 3,-10 0,-5 -3,-14 -8,-12 1,3 3,2 5,8 0,4 0,9 0,14z"/>
    <path class="fil8" d="M870 467c-4,0 -27,-3 -30,-2 -6,1 -5,3 -5,12 0,3 0,5 2,7 -4,-26 2,-18 35,-16l0 -8c0,-4 0,-1 -1,-2 -1,2 0,6 -1,9z"/>
    <path class="fil7" d="M775 494l0 1c11,0 23,0 34,-1 9,0 12,-4 11,-15 0,-2 -1,-5 -3,-6 2,5 2,10 1,15 -2,5 -5,5 -11,6 -10,0 -22,0 -32,0z"/>
    <path class="fil10" d="M919 507c1,0 0,0 1,0l8 2 0 -32c0,-6 1,-9 -2,-9l0 40 -7 -1z"/>
    <path class="fil8" d="M677 494c1,-2 0,-1 0,-6 0,-12 1,-11 15,-14 3,-1 8,-1 11,-2 -4,-2 -17,2 -21,3 -4,1 -6,2 -6,7 0,4 0,8 1,12z"/>
    <path class="fil10" d="M817 463l-28 0c-6,0 -6,0 -5,5 1,-1 1,0 1,-2 0,-2 -1,-3 5,-3l28 1c0,-2 0,-3 0,-5 0,0 0,-2 0,-2 0,-4 1,-1 -1,-2 0,0 0,0 0,1l0 7z"/>
    <path class="fil7" d="M807 887c2,3 4,5 8,3 3,-1 5,-3 7,-5 4,7 15,5 13,-5 -1,4 -1,7 -5,8 -5,0 -8,-3 -9,-4 -4,3 -7,8 -14,3z"/>
    <path class="fil8" d="M754 485c-4,-1 -19,1 -21,1l0 10c-2,0 -8,1 -10,2 2,0 3,0 6,0 2,-1 4,-1 5,-1 1,-3 0,-7 1,-10l19 -2z"/>
    <path class="fil7" d="M717 546c3,-1 1,-1 4,-8 4,-8 16,-9 17,-11 1,-2 0,-3 -1,-3 0,4 -2,3 -5,4 -7,3 -14,8 -15,18z"/>
    <path class="fil7" d="M687 550c1,-4 0,-11 10,-16 2,-2 3,-1 5,-4l-1 -2 0 1c-2,4 -12,3 -15,17 -1,5 0,4 1,4z"/>
    <path class="fil7" d="M655 560c1,-2 0,-3 1,-7 1,-3 2,-5 3,-6 1,-2 2,-3 4,-5 2,-1 4,-2 5,-3l-1 -3c-1,3 1,1 -4,4 -2,1 -4,4 -5,5 -2,3 -5,11 -3,15z"/>
    <path class="fil10" d="M733 467c0,4 0,8 1,9 1,-2 0,-6 1,-8l21 -2c-3,-2 -19,0 -23,1z"/>
    <path class="fil6" d="M1041 471l2 1 3 0c3,0 3,-2 3,-4 -2,-1 -5,-1 -8,-1l0 4z"/>
    <path class="fil7" d="M698 648c3,-2 1,-9 12,-16 2,-1 4,-3 1,-5 0,4 -1,3 -3,5 -2,1 -4,3 -5,4 -2,2 -2,3 -3,5 -1,2 -3,5 -2,7z"/>
    <path class="fil7" d="M716 585c-5,3 -6,0 -10,5 -2,2 -5,5 -5,10 2,-1 1,0 2,-2 0,-2 0,-2 1,-3 5,-10 11,-7 13,-9 1,-2 0,-4 -1,-5l0 4z"/>
    <path class="fil4" d="M627 490l-1 11 2 -1 0 -9c4,-1 15,-5 19,-6 0,0 1,-1 -2,0l-18 5z"/>
    <path class="fil7" d="M687 588c-4,2 -5,2 -7,5 -2,2 -5,8 -3,10 1,-2 1,-5 4,-9 1,-1 2,-2 3,-3 2,-1 7,-3 2,-7l1 4z"/>
    <path class="fil4" d="M676 653c1,-2 -3,-10 7,-16 2,-1 3,-1 2,-5 -2,3 1,2 -4,5 -2,1 -3,2 -4,3 -2,4 -4,9 -1,13z"/>
    <path class="fil7" d="M813 783c-4,2 -4,1 -8,0 1,1 0,0 1,2 3,1 6,0 8,-1 1,1 2,2 3,2 4,1 8,-2 7,-9 -2,5 -1,11 -11,6z"/>
    <path class="fil7" d="M762 479c5,1 8,-3 8,-8 0,-2 0,-5 0,-7 0,-1 0,-2 -1,-3 0,-1 0,-1 0,-2 -2,-1 -1,0 -2,-1 2,4 3,15 0,18 -2,2 -3,2 -5,3z"/>
    <path class="fil8" d="M868 789c1,-2 1,-4 2,-6 1,-2 1,-3 3,-5 4,-7 8,-5 6,-9 -2,3 -1,2 -4,4 -1,1 -2,2 -3,4 -2,2 -5,9 -4,12z"/>
    <path class="fil7" d="M656 660c-2,-5 -1,-12 4,-16 3,-3 1,-3 0,-5 0,5 -7,6 -7,16 0,2 1,5 3,5z"/>
    <path class="fil7" d="M746 547c2,0 2,-1 4,-2 5,-5 11,-4 16,-5 0,-3 0,-3 -2,-5 3,9 -14,2 -18,12z"/>
    <path class="fil7" d="M918 735c2,-3 3,-5 7,-8 6,-4 10,-3 8,-7 -2,4 -3,0 -13,10l-3 3c0,3 0,0 1,2z"/>
    <path class="fil4" d="M654 612c2,-2 0,0 1,-5 1,-1 1,-3 2,-4 3,-11 5,-3 4,-11 -2,3 1,2 -3,4 -2,2 -5,13 -4,16z"/>
    <path class="fil4" d="M891 787c1,-1 2,-3 3,-4 1,-2 1,-3 3,-4 2,-2 2,-2 5,-3 2,-1 3,-1 2,-4 -2,5 -6,0 -13,12 -2,4 0,3 0,3z"/>
    <path class="fil4" d="M940 745c1,-1 2,-4 7,-6 5,-1 10,2 9,-4 -2,2 0,2 -4,2 -9,1 -14,6 -12,8z"/>
    <path class="fil7" d="M868 847c2,-1 1,-1 3,-3 1,-2 2,-3 3,-4 2,-2 4,-3 8,-4l0 -3c-1,2 0,1 -2,2 -5,2 -12,7 -12,12z"/>
    <path class="fil11" d="M821 828c0,1 1,2 4,3 3,0 4,0 6,-1 5,-4 3,-9 3,-10 -1,4 -1,6 -4,8 -3,2 -6,1 -9,0z"/>
    <path class="fil8" d="M765 481c2,3 4,9 3,13 -3,0 -8,-1 -10,1 2,1 9,0 12,0 -1,-6 -1,-11 -5,-14z"/>
    <path class="fil7" d="M741 592c-2,1 -6,1 -8,3 -3,1 -4,3 -6,4 3,1 3,-1 7,-3 2,-2 13,-2 7,-7l0 3z"/>
    <path class="fil4" d="M892 733c2,-2 2,-6 8,-11 3,-1 3,-1 4,-4 -2,1 -6,4 -8,6 -2,3 -4,5 -4,9z"/>
    <path class="fil4" d="M887 854c2,-3 2,-4 5,-6 1,-1 2,-1 4,-2 2,-1 2,0 3,-3l-1 0c0,0 -1,1 -1,1 -1,0 1,0 -1,0 0,1 -1,1 -2,1 -5,2 -9,7 -7,9z"/>
    <path class="fil7" d="M913 793c2,-2 1,-2 5,-4 3,-1 7,0 6,-5 -3,4 -8,2 -12,8 -1,2 0,1 1,1z"/>
    <path class="fil8" d="M848 850c0,-15 11,-12 7,-17 0,2 -4,4 -5,7 -2,3 -3,8 -2,10z"/>
    <path class="fil7" d="M650 682c1,3 2,5 0,9 -3,3 -6,2 -8,3 7,1 11,-3 10,-8l-2 -4c0,0 0,0 0,0z"/>
    <path class="fil4" d="M892 486l-3 0c0,3 0,5 0,8 0,4 0,5 -1,7l2 0 0 -14 2 -1z"/>
    <path class="fil8" d="M819 826c1,1 0,0 2,1 -2,-1 -1,-1 -2,-3 -2,2 -4,3 -7,4 -2,0 -5,-1 -6,-3 2,6 9,5 13,1z"/>
    <path class="fil12" d="M975 507c0,-2 0,-4 0,-6 0,-4 0,-3 -2,-4 0,2 0,6 0,9l-16 -5 18 6z"/>
    <path class="fil8" d="M625 695c7,2 12,-3 12,-4 -2,-1 0,-1 -2,1 -4,2 -5,2 -10,3z"/>
    <path class="fil10" d="M975 492l1 0c0,-3 1,-9 -1,-9 -1,1 0,6 0,9z"/>
    <path class="fil13" d="M844 686c1,2 1,2 4,2 1,-1 1,-2 2,-3 -3,0 -4,0 -6,1z"/>
    <path class="fil7" d="M622 593c3,0 6,-1 8,-3 -1,-2 1,0 -7,2l-1 1z"/>
    <path class="fil13" d="M834 623l2 0c1,-3 1,-3 -2,-3l0 3z"/>
    <path class="fil10" d="M945 503c1,-1 1,-4 1,-5l-1 -1c-1,2 -1,5 0,6z"/>
    <path class="fil2" d="M820 626l2 0c0,-2 0,-3 -1,-4l-1 4z"/>
    <g>
     <path class="fil1" d="M834 624l0 -4c0,0 2,0 2,0 1,1 2,2 1,3 0,2 -2,1 -3,1l0 0zm-3 9c0,0 0,1 1,1 1,0 2,-1 2,-2 0,-2 0,-3 0,-4 0,0 1,1 1,1l0 1c0,0 0,0 0,0 1,1 2,3 3,3 0,0 0,0 0,0 1,0 1,1 1,1 1,0 2,-1 2,-2 0,-1 0,-1 -1,-2 0,-1 -2,-3 -3,-3 1,-1 1,-1 2,-1 1,-1 2,-2 2,-3 0,-2 0,-3 -1,-4l-1 -1c0,0 0,0 0,0 0,0 0,0 -1,0 0,-1 0,-1 0,-1 -1,0 -2,0 -3,0 -2,0 -4,-1 -5,2 0,0 0,10 0,12 0,1 0,1 1,2z"/>
     <path class="fil1" d="M804 633c0,0 1,1 1,1 1,0 2,0 4,-1 1,0 2,-1 2,-2 1,-1 2,-3 1,-5 0,-1 0,-1 0,-1 0,-1 0,-1 0,-1 0,0 0,0 -1,0 -1,-1 -3,-1 -4,0 0,0 -1,0 -1,1 0,1 0,1 1,2 0,0 0,0 0,0 0,0 0,0 0,0 0,0 0,0 0,0 1,0 2,0 2,0 0,1 0,2 -1,3 0,0 -1,0 -1,0 -1,0 -1,0 -2,0 0,0 -1,-2 -1,-3 -1,-1 -1,-2 0,-4 0,-4 4,-3 4,-3l1 1c0,0 0,0 1,0 0,1 0,1 0,1 1,0 1,-1 1,-1 1,0 1,-1 1,-2 -1,-1 -2,-1 -2,-2l0 0c-1,0 -1,0 -1,0 -1,0 -1,-1 -2,-1 -3,0 -6,3 -7,6 0,2 0,5 1,7 0,1 1,3 2,4 0,0 0,0 1,0z"/>
     <path class="fil1" d="M766 633l0 0c1,0 1,1 1,1 1,0 2,0 3,0 3,0 5,-2 5,-5 1,-2 1,-4 1,-6 0,-1 0,-4 0,-5 -1,0 -1,-1 -1,-1 0,0 0,0 -1,0 -2,0 -2,1 -2,3 0,2 0,3 0,5 0,2 0,3 -1,4 -1,2 -3,1 -3,1 -1,0 -1,-2 -1,-3 -1,-2 0,-7 -1,-9 0,-1 0,-1 0,-1 0,0 -1,0 -1,0 -2,0 -2,1 -2,3 0,2 0,4 0,5 0,3 0,5 2,7 0,0 0,0 0,0 0,1 1,1 1,1z"/>
     <path class="fil1" d="M820 626l1 -4c0,0 0,-1 0,-1l2 6 -3 0c0,0 0,0 0,0l0 -1zm-5 7c1,1 1,1 1,1 1,0 2,-1 2,-1 0,-1 1,-2 1,-3l4 0c1,0 1,0 1,1 0,0 0,0 0,0 0,0 0,1 0,1 1,1 1,1 1,1 0,0 0,0 1,1 0,0 0,0 0,0 0,0 1,0 1,-1 1,0 1,-2 0,-3 0,-1 0,-3 -1,-4 0,-2 -1,-3 -1,-5 -1,-1 -1,-2 -1,-3 -1,0 -1,-1 -1,-1 0,0 -1,0 -1,0 -2,0 -3,1 -3,2 -1,2 -1,4 -2,5 0,2 -1,3 -1,5 0,0 -1,1 -1,2 0,1 0,2 0,2z"/>
     <path class="fil1" d="M742 625l1 1c0,0 0,0 0,0 1,0 1,0 1,0 1,0 1,1 1,1l0 0c1,0 1,0 1,1 1,1 0,3 -2,2 0,0 -1,0 -2,0 0,0 -1,-1 -2,0 0,0 0,1 0,1 0,1 0,2 1,2 0,0 0,0 0,0 0,0 0,0 0,0 0,0 1,1 1,1 1,0 1,0 2,0 1,0 2,0 3,0 1,-1 2,-2 2,-3 1,-1 1,-2 1,-4 0,-1 -1,-2 -1,-2 -1,-1 -1,-1 -1,-1l-1 0c0,0 0,-1 -1,-1 0,0 -1,0 -1,0 -2,-1 -2,-2 -1,-3 1,-1 4,2 5,0 0,-1 0,-2 0,-2 0,0 0,-1 -1,-1l0 0c0,0 0,0 0,0 0,0 0,0 -1,0 -1,-1 -2,-1 -4,0 -3,1 -4,5 -2,7 0,1 1,1 1,1z"/>
     <path class="fil1" d="M789 620c0,0 0,0 1,0 0,0 0,0 0,0 0,0 0,0 0,0 1,0 2,0 2,0 0,2 0,11 0,12 1,1 1,1 1,1 0,0 0,1 1,1 1,0 2,-1 2,-2 0,-1 0,-10 0,-12 1,0 2,1 3,0 0,-1 1,-2 0,-3 0,0 -1,0 -1,0 -1,0 -2,0 -3,0 -1,0 -2,0 -3,0 -1,0 -2,0 -3,1 0,0 0,1 0,1 0,1 0,1 0,1z"/>
     <path class="fil1" d="M752 620c0,0 0,0 0,0 0,0 0,0 0,0 1,0 0,0 1,0 0,0 0,0 1,0 0,0 0,0 1,0 0,2 0,11 0,12 0,0 0,1 0,1 0,0 0,0 0,0 1,0 1,1 1,1 2,0 2,-1 2,-2 0,-1 0,-10 0,-12 1,0 4,1 4,-1 0,-1 0,-1 -1,-2 0,0 0,0 -1,0 -2,0 -4,0 -6,0 -1,0 -3,0 -3,2 0,0 0,1 1,1z"/>
     <path class="fil1" d="M778 620c0,0 0,0 1,0 0,0 0,0 0,0 0,0 1,0 2,0 0,2 0,11 0,12 0,1 1,1 1,1 0,0 0,1 1,1 1,0 1,-1 1,-2 1,-1 0,-3 0,-4 0,-3 0,-5 0,-8 2,0 4,1 4,-1 0,-1 0,-1 0,-2 -1,0 -1,0 -1,0 -1,0 -5,0 -7,0 -1,0 -2,0 -2,1 0,0 0,0 0,1 0,0 0,1 0,1z"/>
     <path class="fil1" d="M844 620c0,0 0,0 0,0 0,0 0,0 0,0l1 0c0,0 1,0 2,0l0 10c0,2 0,2 0,3 1,0 1,1 1,1 1,0 1,0 2,-1 0,-1 0,-4 0,-5 0,-2 0,-5 0,-8 2,0 4,1 4,-1 0,-1 0,-1 -1,-2 0,0 0,0 -1,0 -1,0 -4,0 -6,0 -1,0 -3,0 -3,2 0,0 0,1 1,1z"/>
     <path class="fil14" d="M767 634c0,0 0,0 1,0 0,0 1,0 2,0l1 0c1,0 2,0 3,-1 2,-1 2,-4 2,-6 0,-2 1,-7 0,-8 0,-1 0,-2 -1,-2 0,0 0,1 1,1 0,1 0,4 0,5 0,2 0,4 -1,6 0,3 -2,5 -5,5 -1,0 -2,0 -3,0z"/>
     <path class="fil15" d="M815 633c0,0 0,-1 0,-2 0,-1 1,-2 1,-2 0,-2 1,-3 1,-5 1,-1 1,-3 2,-5 0,-1 1,-2 3,-2 0,-1 -2,-1 -3,0 0,0 -1,1 -1,2l-4 11c0,0 0,1 0,1 0,1 1,2 1,2z"/>
     <path class="fil15" d="M804 633c-1,0 -1,0 -1,0 -1,-1 -2,-3 -2,-4 -1,-2 -1,-5 -1,-7 1,-3 4,-6 7,-6 1,0 1,1 2,1 0,0 0,0 0,0 -1,-1 -1,-1 -2,-1 0,0 0,0 -1,0l0 0c-1,0 -3,0 -3,1 -2,1 -3,3 -3,5 0,0 -1,1 -1,2 0,0 0,0 0,0 0,1 0,1 0,1 0,2 1,3 1,4 0,1 1,2 1,2 1,1 2,2 3,2z"/>
     <path class="fil15" d="M831 633c-1,-1 -1,-1 -1,-2 0,-2 0,-12 0,-12 1,-3 3,-2 5,-2 1,0 2,0 3,0 -1,0 -2,0 -3,0 -1,-1 -4,-1 -5,0 0,0 0,0 0,1 0,1 0,2 0,3 0,2 0,5 0,7 0,1 0,2 0,3 0,1 0,1 0,2 0,0 1,0 1,0z"/>
     <path class="fil14" d="M794 634c0,0 1,0 1,0 1,0 1,-1 1,-1 1,-1 1,-3 1,-4 0,-3 0,-5 0,-8 1,0 2,0 3,-1 0,-1 0,-2 -1,-3 1,1 0,2 0,3 -1,1 -2,0 -3,0 0,2 0,11 0,12 0,1 -1,2 -2,2z"/>
     <path class="fil14" d="M848 634c0,0 1,0 1,0 0,0 0,0 1,0 0,0 1,-1 1,-1 0,-1 0,-3 0,-4 0,-3 0,-5 0,-8 1,0 3,0 3,-1 0,0 1,0 1,-1l0 0c-1,-1 -1,-2 -2,-2 1,1 1,1 1,2 0,2 -2,1 -4,1 0,3 0,6 0,8 0,1 0,4 0,5 -1,1 -1,1 -2,1z"/>
     <path class="fil14" d="M756 634c1,0 2,1 3,-1 0,-1 0,-3 0,-4 0,-3 0,-5 0,-8 1,0 2,0 3,0 0,-1 0,-1 0,-1l0 -2c0,0 0,-1 -1,-1 1,1 1,1 1,2 0,2 -3,1 -4,1 0,2 0,11 0,12 0,1 0,2 -2,2z"/>
     <path class="fil14" d="M783 634c0,0 2,1 2,-1 0,-1 0,-3 0,-4 0,-3 0,-5 0,-8 1,0 2,0 2,0 1,0 2,-1 2,-1 -1,-1 0,0 -1,-1l0 0c0,2 -2,1 -4,1 0,3 0,5 0,8 0,1 1,3 0,4 0,1 0,2 -1,2z"/>
     <path class="fil15" d="M768 630l0 0c0,0 2,1 3,-1 1,-1 1,-2 1,-4 0,-2 0,-3 0,-5 0,-2 0,-3 2,-3 0,-1 0,-1 -1,-1 -1,0 -1,1 -1,2 -1,2 -1,3 -1,5 0,2 1,4 0,5 0,1 -1,2 -3,2z"/>
     <path class="fil14" d="M839 634c1,0 2,0 3,-1 1,-1 -1,-3 -2,-4l-1 -2c-1,0 -1,0 -1,0 2,0 3,-1 3,-3 1,-1 1,-2 1,-3 -1,0 -1,-1 -1,-1 0,-1 -1,-2 -2,-2 0,0 0,0 0,0l1 1c1,1 1,2 1,4 0,1 -1,2 -2,3 -1,0 -1,0 -2,1 1,0 3,2 3,3 1,1 1,1 1,2 0,1 -1,2 -2,2z"/>
     <path class="fil15" d="M762 618l0 2c0,2 0,6 0,8 1,1 1,2 2,3 0,1 0,1 1,1 0,0 1,1 1,1 0,0 -1,0 -1,-1 0,0 0,0 0,0 -2,-2 -2,-4 -2,-7 0,-1 0,-3 0,-5 0,-2 0,-3 2,-3 0,-1 0,-1 -1,-1 0,0 -1,0 -1,0 0,1 -1,1 -1,2z"/>
     <path class="fil14" d="M826 634c0,0 3,0 2,-3 0,-1 0,-2 0,-2 -1,-1 -3,-10 -4,-10 0,-1 0,-2 -1,-2 0,0 0,1 1,1 0,1 0,2 1,3 0,2 1,3 1,5 1,1 1,3 1,4 1,1 1,3 0,3 0,1 -1,1 -1,1z"/>
     <path class="fil14" d="M805 634c0,0 0,0 0,0 1,0 1,0 2,0l0 0c2,0 3,0 4,-1 0,0 0,0 0,-1 1,0 1,0 1,0 1,-2 2,-8 0,-8 0,0 0,0 0,1 0,0 0,0 0,1 1,2 0,4 -1,5 0,1 -1,2 -2,2 -2,1 -3,1 -4,1z"/>
     <path class="fil16" d="M847 633c0,-1 0,-1 0,-3l0 -10c-1,0 -2,0 -2,0 0,0 0,1 0,1 0,0 1,0 1,0 0,1 0,9 0,10 0,1 0,1 0,2 1,0 1,0 1,0 0,0 0,0 0,0z"/>
     <path class="fil16" d="M782 633c0,0 -1,0 -1,-1 0,-1 0,-10 0,-12 -1,0 -2,0 -2,0 0,0 0,1 0,1 1,0 1,0 1,0 0,2 0,4 0,7 0,1 0,4 1,5 0,0 0,0 0,0 0,0 0,0 1,0z"/>
     <path class="fil16" d="M755 633c0,0 0,0 0,0 0,0 0,-1 0,-1 0,-1 0,-10 0,-12 -1,0 -1,0 -1,0 -1,0 -1,0 -1,0 0,0 0,0 0,0 0,0 0,1 0,1 0,0 0,0 0,0 0,0 1,0 1,0 0,2 0,4 0,7 0,1 0,4 0,5 1,0 1,0 1,0z"/>
     <path class="fil16" d="M793 633c0,0 0,0 -1,-1 0,-1 0,-10 0,-12 0,0 -1,0 -2,0 0,1 1,1 2,1 0,2 0,4 0,7 0,1 -1,4 0,5 0,0 0,0 1,0z"/>
     <path class="fil14" d="M742 634c0,0 0,0 0,0 0,0 1,0 1,0 0,0 1,0 1,0 1,0 2,0 3,0 1,0 2,-1 3,-2 1,-1 1,-3 1,-5 -1,-1 -1,-2 -2,-2 0,-1 -1,-1 -1,-1 0,0 0,0 1,1 0,0 1,1 1,2 0,2 0,3 -1,4 0,1 -1,2 -2,3 -1,0 -2,0 -3,0 -1,0 -1,0 -2,0z"/>
     <path class="fil14" d="M768 630l0 0c0,-1 -1,-1 -1,-2 0,0 0,-1 0,-1 0,0 0,-7 0,-7 0,-1 0,-2 0,-2 0,-1 -1,-1 -1,-1 0,0 0,0 0,1 1,2 0,7 1,9 0,1 0,3 1,3z"/>
     <path class="fil15" d="M742 625c0,0 -1,0 -1,-1 -2,-2 -1,-6 2,-7 2,-1 3,-1 4,0l0 0c0,-1 0,-1 -1,-1 -2,0 -5,0 -6,2 0,1 -1,2 -1,2 0,1 0,3 1,4 0,0 0,0 1,1 0,0 0,0 0,0 0,0 1,0 1,0z"/>
     <path class="fil14" d="M805 630l1 0c-1,-1 -1,0 -1,-1 -1,-2 -1,-5 0,-6 0,-1 1,-2 1,-2 1,-1 1,-1 2,-1 0,0 -4,-1 -4,3 -1,2 -1,3 0,4 0,1 1,3 1,3z"/>
     <path class="fil17" d="M741 633c-1,0 -1,-1 -1,-2 0,0 0,-1 0,-1 1,-1 2,0 2,0 1,0 2,0 2,0 2,1 3,-1 2,-2 0,-1 0,-1 -1,-1l0 0c0,0 0,-1 -1,-1 0,0 0,0 -1,0 1,0 0,0 1,0 0,0 0,0 0,0 0,0 0,0 0,1 1,0 1,0 1,0 1,0 1,2 0,3 -2,0 -4,-1 -5,-1 -1,0 -1,1 -1,1 0,0 0,0 0,1l0 0c0,0 0,1 0,1 1,0 1,1 2,1z"/>
     <path class="fil18" d="M788 617c0,1 0,1 0,2l0 0c1,1 0,0 1,1 0,0 0,0 0,0 0,0 0,0 0,-1 0,0 0,-1 0,-1 1,-1 2,-1 3,-1 1,0 2,0 3,0 1,0 2,0 3,0 0,0 -1,-1 -2,-1 -1,0 -6,0 -6,0 -1,1 -2,1 -2,2 0,0 0,-1 0,-1z"/>
     <path class="fil15" d="M778 620c0,0 0,-1 0,-1 0,-1 0,-1 0,-1 0,-1 1,-1 2,-1 2,0 6,0 7,0l-1 0c0,0 0,0 0,0 -1,-1 -2,-1 -3,-1 -1,0 -4,0 -5,1 0,0 -1,0 -1,0 0,1 0,3 1,3z"/>
     <path class="fil15" d="M844 620c-1,0 -1,-1 -1,-1 0,-2 2,-2 3,-2 2,0 5,0 6,0 0,0 -1,0 -1,-1l-6 0c-1,0 -2,1 -2,1 -1,1 -1,3 1,3z"/>
     <path class="fil15" d="M752 620c-1,0 -1,-1 -1,-1 0,-2 2,-2 3,-2 2,0 4,0 6,0 0,0 -1,0 -1,-1l-6 0c-1,0 -2,0 -2,2 -1,0 -1,1 0,2 0,0 0,0 1,0z"/>
     <path class="fil14" d="M745 623c-1,-1 -1,-1 -1,-1 0,-1 1,-1 1,-2 1,0 2,1 3,1 2,0 3,-2 1,-3 0,0 0,-1 -1,-1 1,0 1,1 1,1 0,0 0,1 0,2 -1,2 -4,-1 -5,0 -1,1 -1,2 1,3z"/>
     <path class="fil14" d="M832 634c0,0 1,0 1,0 1,0 1,-1 1,-1 1,-1 0,-3 1,-4 0,0 -1,-1 -1,-1 0,1 0,2 0,4 0,1 -1,2 -2,2z"/>
     <path class="fil14" d="M816 634c1,0 2,0 3,-1 0,0 0,-1 0,-2 0,0 0,0 0,0l4 0 0 -1 -4 0c0,1 -1,2 -1,3 0,0 -1,1 -2,1z"/>
     <path class="fil15" d="M821 622c0,0 0,0 0,0 0,1 0,1 0,2 1,0 1,2 1,2l-1 0c-1,0 -1,0 -1,0 0,0 0,0 0,0 0,0 0,1 0,0l0 1c0,0 0,0 0,0l3 0 -2 -6c0,0 0,1 0,1z"/>
     <path class="fil15" d="M807 627c-1,-1 -1,-1 -1,-2 0,-1 1,-1 1,-1 1,-1 3,-1 4,0 0,-1 -1,-1 -1,-1 0,0 -1,0 -1,0 -1,0 -2,0 -3,0 0,0 0,1 0,1 -1,1 -1,2 1,3z"/>
     <path class="fil16" d="M806 630l-1 0c1,0 1,0 2,0 0,0 1,0 1,0 1,-1 1,-2 1,-3 0,0 -1,0 -2,0 1,0 0,0 1,0 0,0 0,0 0,0 0,1 0,2 0,2 -1,1 -1,1 -2,1z"/>
     <path class="fil15" d="M836 621c1,1 1,3 -1,3l-1 0 0 0c1,0 3,1 3,-1 1,-1 0,-2 -1,-3l0 1z"/>
     <path class="fil14" d="M834 624l1 0 0 -3 1 0 0 -1c0,0 -2,0 -2,0l0 4z"/>
     <path class="fil14" d="M820 626c0,1 0,0 0,0 0,0 0,0 0,0 0,0 0,0 1,0 0,0 0,0 0,0 0,0 0,-1 0,-1 0,0 0,-1 0,-1 0,-1 0,-1 0,-2 0,0 0,0 0,0l-1 4z"/>
     <path class="fil14" d="M810 622c1,0 1,0 2,0 1,-1 0,-3 -1,-4 0,0 0,-1 -1,-1 0,1 1,1 2,2 0,1 0,2 -1,2 0,0 0,1 -1,1z"/>
     <path class="fil15" d="M823 631c1,0 1,1 1,1 0,1 0,1 0,1 1,0 1,0 1,0 0,0 0,0 -1,-1 0,0 0,-1 0,-1 0,0 0,0 0,0 0,-1 0,-1 -1,-1l0 1z"/>
    </g>
   </g>
  </g>
 </g>
</svg>
