<?xml version="1.0" encoding="utf-8"?>
<!-- Generator: Adobe Illustrator 16.2.0, SVG Export Plug-In . SVG Version: 6.00 Build 0)  -->
<!DOCTYPE svg PUBLIC "-//W3C//DTD SVG 1.1//EN" "http://www.w3.org/Graphics/SVG/1.1/DTD/svg11.dtd">
<svg version="1.1" id="Layer_1" xmlns="http://www.w3.org/2000/svg" xmlns:xlink="http://www.w3.org/1999/xlink" x="0px" y="0px"
	 width="160px" height="160px" viewBox="0 0 160 160" enable-background="new 0 0 160 160" xml:space="preserve">
<g>
	<path fill-rule="evenodd" clip-rule="evenodd" fill="#A4302E" d="M111.907,41.61c-6.263-1.566-24.277-3.156-43.464-1.958
		c-18.795,1.176-19.187,9.986-19.967,16.25c-0.785,6.266,0.584,38.371,0.584,38.371s18.991,2.609,30.936,2.483
		c11.944-0.131,31.014,1.838,32.893-11.877C114.844,70.585,111.907,41.61,111.907,41.61z"/>
	<g>
		<polygon fill-rule="evenodd" clip-rule="evenodd" fill="#A4302E" points="76.792,110.334 76.792,107.981 53.692,107.981 
			53.692,121.294 76.792,121.294 76.792,118.945 59.174,118.945 59.174,115.813 75.816,115.813 75.816,113.463 59.174,113.463 
			59.174,110.334 		"/>
		<path fill-rule="evenodd" clip-rule="evenodd" fill="#A4302E" d="M44.754,113.855c0,0-10.67-0.393-12.236-0.393
			c-1.567,0-2.643-0.392-2.643-1.96c0-1.07,1.46-1.169,2.741-1.173v0.004h15.203v-2.353H29.93c0,0-5.341-0.196-5.341,3.717
			c0,3.231,1.859,4.016,4.796,4.016s10.378,0.49,11.747,0.49c0,0,1.858,0.18,1.858,1.467c0,0.784-0.486,1.274-1.369,1.274H24.785
			v2.349c0,0,18.27,0,19.316,0c1.045,0,4.081-0.49,4.081-3.722C48.181,114.542,46.515,114.052,44.754,113.855z"/>
		<polygon fill-rule="evenodd" clip-rule="evenodd" fill="#A4302E" points="136,108.01 112.152,108.01 112.152,110.792 
			121.441,110.792 121.441,121.294 126.511,121.294 126.511,110.792 136,110.792 		"/>
		<path fill-rule="evenodd" clip-rule="evenodd" fill="#A4302E" d="M87.826,107.981c-2.541,0-4.992,1.765-4.992,3.815v9.559h4.698
			v-5.058h14.126v4.996h4.697v-13.313H87.826L87.826,107.981z M87.532,113.953L87.532,113.953v-0.98c0-1.029,0.98-2.446,2.741-2.446
			h11.385v3.427H87.532z"/>
	</g>
	<path fill-rule="evenodd" clip-rule="evenodd" fill="#E21E24" d="M111.318,41.022c-6.262-1.565-24.276-3.156-43.464-1.957
		c-18.795,1.174-19.187,9.984-19.967,16.25c-0.784,6.265,0.588,38.373,0.588,38.373s18.991,2.606,30.931,2.479
		c11.945-0.13,31.013,1.839,32.892-11.877C114.256,69.999,111.318,41.022,111.318,41.022z"/>
	<path fill-rule="evenodd" clip-rule="evenodd" fill="#B2B2B2" d="M50.089,55.513c0-0.024-0.184-8.486,4.379-11.093
		c3.125-1.787,9.081-3.441,19.938-3.758c8.292-0.235,19.445,0.307,34.387,2.171l0.123,0.014l0.004,0.129
		c0.004,0.028,0.393,10.978,0.393,11.75v0.161l-0.16-0.016c-0.073-0.006-25.646-2.196-30.322-1.826
		c-0.927,0.074-1.45,0.259-1.683,0.492c-0.102,0.1-0.143,0.21-0.131,0.325c0.008,0.119,0.078,0.249,0.192,0.378
		c0.315,0.37,0.96,0.692,1.634,0.792l0.004,0.002c0.069,0.012,25.841,4.249,30.351,5.227l0.115,0.026v0.116v4.506v0.18l-0.18-0.037
		c-0.115-0.022-40.515-8.029-58.91-9.396l-0.135-0.01V55.513L50.089,55.513z M50.256,64.766l-0.18-0.028l0.012,0.182l0.196,2.741
		l0.008,0.121l0.118,0.015c7.708,0.962,31.287,7.41,32.071,7.625c0.621,0.378,1.034,0.788,1.189,1.152
		c0.073,0.166,0.086,0.316,0.049,0.445l0,0c-0.045,0.126-0.151,0.239-0.318,0.331c-0.372,0.192-1.029,0.265-2.019,0.141
		c-5.47-0.684-30.478-2.543-30.547-2.547l-0.143-0.01l-0.016,0.139c-0.588,5.3,0,16.048,0,16.082l0.004,0.122l0.127,0.017
		c11.912,1.438,24.567,2.145,34.877,1.887c9.371-0.236,16.81-1.266,20.033-3.275c4.779-2.99,3.595-12.452,3.59-12.479l-0.012-0.088
		l-0.078-0.033C94.718,71.618,50.383,64.784,50.256,64.766L50.256,64.766z M50.064,58.5l-0.184-0.029l0.012,0.18l0.196,2.937
		l0.008,0.127l0.123,0.01c12.721,1.174,58.783,11.52,58.914,11.548l0.18,0.043v-0.184v-4.228l-0.11-0.029
		C95.493,65.548,50.195,58.518,50.064,58.5z"/>
	<path fill-rule="evenodd" clip-rule="evenodd" fill="#4C4C4C" d="M51.266,56.688c0-0.026-0.184-8.484,4.379-11.095
		c3.125-1.785,9.081-3.444,19.939-3.756c8.289-0.239,19.445,0.307,34.383,2.171l0.127,0.014l0.004,0.129
		c0,0.028,0.392,10.98,0.392,11.75v0.161l-0.163-0.014c-0.069-0.004-25.646-2.198-30.323-1.83c-0.927,0.074-1.45,0.261-1.683,0.494
		c-0.102,0.102-0.139,0.21-0.131,0.323c0.012,0.123,0.082,0.253,0.188,0.38h0.004c0.318,0.37,0.96,0.697,1.634,0.792v0.004
		c0.078,0.01,25.854,4.244,30.355,5.223l0.118,0.024v0.121v4.503v0.178l-0.176-0.033c-0.118-0.026-40.519-8.027-58.913-9.396
		l-0.135-0.01V56.688L51.266,56.688z M51.433,65.936l-0.184-0.024l0.017,0.182l0.192,2.743l0.008,0.118l0.123,0.017
		c7.708,0.96,31.287,7.412,32.067,7.623c0.625,0.378,1.033,0.791,1.192,1.152c0.07,0.164,0.086,0.317,0.041,0.443h0.004
		c-0.045,0.129-0.146,0.241-0.314,0.329c-0.371,0.196-1.033,0.27-2.018,0.145c-5.474-0.682-30.482-2.542-30.556-2.545l-0.135-0.012
		l-0.021,0.143c-0.584,5.296,0,16.046,0,16.075l0.008,0.127l0.123,0.012c11.916,1.442,24.571,2.146,34.886,1.892
		c9.362-0.236,16.81-1.267,20.028-3.28c4.779-2.99,3.595-12.449,3.591-12.476l-0.008-0.09l-0.082-0.028
		C95.894,72.792,51.56,65.958,51.433,65.936L51.433,65.936z M51.237,59.674l-0.184-0.029l0.016,0.182l0.196,2.939l0.008,0.123
		l0.123,0.01c12.721,1.176,58.779,11.52,58.914,11.548l0.18,0.041v-0.182v-4.109V70.08l-0.114-0.028
		C96.662,66.722,51.368,59.692,51.237,59.674z"/>
	<g>
		<polygon fill-rule="evenodd" clip-rule="evenodd" fill="#E21E24" points="76.208,109.746 76.208,107.393 53.104,107.393 
			53.104,120.706 76.208,120.706 76.208,118.357 58.586,118.357 58.586,115.224 75.228,115.224 75.228,112.875 58.586,112.875 
			58.586,109.746 		"/>
		<path fill-rule="evenodd" clip-rule="evenodd" fill="#E21E24" d="M44.166,113.268c0,0-10.67-0.393-12.235-0.393
			c-1.566,0-2.645-0.393-2.645-1.957c0-1.074,1.462-1.172,2.741-1.176v0.004h15.202v-2.354H29.341c0,0-5.341-0.195-5.341,3.722
			c0,3.231,1.861,4.016,4.798,4.016c2.938,0,10.376,0.49,11.749,0.49c0,0,1.859,0.18,1.859,1.463c0,0.784-0.49,1.274-1.373,1.274
			H24.196v2.349c0,0,18.27,0,19.316,0s4.081-0.486,4.081-3.722C47.593,113.953,45.926,113.463,44.166,113.268z"/>
		<polygon fill-rule="evenodd" clip-rule="evenodd" fill="#E21E24" points="135.412,107.426 111.563,107.426 111.563,110.203 
			120.854,110.203 120.854,120.706 125.923,120.706 125.923,110.203 135.412,110.203 		"/>
		<path fill-rule="evenodd" clip-rule="evenodd" fill="#E21E24" d="M87.238,107.393c-2.541,0-4.992,1.765-4.992,3.815v9.56h4.697
			v-5.058h14.126v4.996h4.698v-13.313H87.238L87.238,107.393z M86.943,113.365L86.943,113.365v-0.98c0-1.025,0.98-2.442,2.741-2.442
			h11.385v3.423H86.943z"/>
	</g>
	<linearGradient id="SVGID_1_" gradientUnits="userSpaceOnUse" x1="52.957" y1="67.5068" x2="106.5307" y2="67.5068">
		<stop  offset="0" style="stop-color:#899DA4"/>
		<stop  offset="0.26" style="stop-color:#E7EBEB"/>
		<stop  offset="0.45" style="stop-color:#F4F7F6"/>
		<stop  offset="0.5" style="stop-color:#F7FCFB"/>
		<stop  offset="0.65" style="stop-color:#ECEFEE"/>
		<stop  offset="1" style="stop-color:#899DA4"/>
	</linearGradient>
	<path fill-rule="evenodd" clip-rule="evenodd" fill="url(#SVGID_1_)" d="M55.13,45.133c5.482-3.133,19.771-5.874,54.232-1.564
		l0.392,11.744c0,0-25.657-2.198-30.347-1.826c-3.325,0.262-1.76,2.022,0,2.282c0,0,25.841,4.244,30.347,5.223v4.506
		c0,0-40.527-8.027-58.93-9.4C50.824,56.097,50.641,47.697,55.13,45.133L55.13,45.133z M109.754,69.606
		C96.049,66.279,50.628,59.23,50.628,59.23l0.196,2.935c12.721,1.174,58.93,11.555,58.93,11.555V69.606L109.754,69.606z
		 M50.824,65.497l0.192,2.739c7.835,0.979,32.108,7.633,32.108,7.633c1.961,1.179,1.961,2.743-1.172,2.351
		c-5.47-0.685-30.544-2.545-30.544-2.545c-0.584,5.288,0,16.057,0,16.057c22.713,2.736,48.101,2.831,54.82-1.373
		c4.702-2.937,3.525-12.333,3.525-12.333C95.265,72.35,50.824,65.497,50.824,65.497z"/>
</g>
</svg>
