<?xml version="1.0" encoding="utf-8"?>
<!-- Generator: Adobe Illustrator 16.2.0, SVG Export Plug-In . SVG Version: 6.00 Build 0)  -->
<!DOCTYPE svg PUBLIC "-//W3C//DTD SVG 1.1//EN" "http://www.w3.org/Graphics/SVG/1.1/DTD/svg11.dtd">
<svg version="1.1" id="Layer_1" xmlns="http://www.w3.org/2000/svg" xmlns:xlink="http://www.w3.org/1999/xlink" x="0px" y="0px"
	 width="160px" height="160px" viewBox="0 0 160 160" enable-background="new 0 0 160 160" xml:space="preserve">
<g>
	<radialGradient id="SVGID_1_" cx="69.77" cy="68.8364" r="62.584" gradientUnits="userSpaceOnUse">
		<stop  offset="0" style="stop-color:#FFFFFF"/>
		<stop  offset="1" style="stop-color:#757777"/>
	</radialGradient>
	
		<polygon fill-rule="evenodd" clip-rule="evenodd" fill="url(#SVGID_1_)" stroke="#201E1C" stroke-width="0.0102" stroke-miterlimit="2.6131" points="
		126.5,79.993 126.5,80.51 126.483,81.485 126.442,82.479 126.283,84.431 126.055,86.412 125.765,88.34 125.348,90.305 
		124.878,92.188 124.331,94.083 123.669,95.95 122.967,97.788 122.162,99.614 121.3,101.366 120.369,103.118 119.348,104.81 
		118.257,106.436 117.093,108.045 115.872,109.597 114.581,111.104 113.229,112.538 111.823,113.902 110.357,115.242 
		108.838,116.492 107.27,117.681 105.647,118.816 103.969,119.85 102.258,120.842 100.505,121.745 98.725,122.578 96.886,123.325 
		95.048,124.016 93.152,124.604 91.258,125.118 89.317,125.584 87.381,125.911 85.429,126.185 83.46,126.373 81.507,126.499 
		79.526,126.516 77.545,126.442 75.588,126.299 73.624,126.07 71.684,125.768 69.731,125.363 67.836,124.878 65.94,124.334 
		64.062,123.685 62.219,122.982 60.426,122.178 58.646,121.304 56.909,120.355 55.198,119.335 53.576,118.272 51.983,117.104 
		50.419,115.871 48.907,114.597 47.486,113.24 46.109,111.807 44.786,110.34 43.54,108.82 42.348,107.252 41.212,105.631 
		40.178,103.952 39.174,102.257 38.267,100.488 37.434,98.707 36.674,96.869 36.012,95.015 35.424,93.136 34.893,91.253 
		34.448,89.313 34.117,87.393 33.831,85.436 33.643,83.455 33.529,81.485 33.5,79.505 33.586,77.536 33.716,75.583 33.961,73.601 
		34.248,71.646 34.664,69.708 35.15,67.798 35.698,65.917 36.343,64.034 37.045,62.196 37.85,60.387 38.729,58.605 39.66,56.882 
		40.681,55.188 41.759,53.536 42.907,51.941 44.141,50.392 45.436,48.882 46.783,47.46 48.205,46.065 49.671,44.761 51.191,43.496 
		52.755,42.317 54.381,41.183 56.06,40.135 57.767,39.13 59.52,38.225 61.3,37.406 63.139,36.645 64.993,35.984 66.872,35.352 
		68.771,34.863 70.708,34.418 72.647,34.073 74.6,33.785 76.569,33.613 78.55,33.499 80.519,33.484 82.483,33.542 84.436,33.701 
		86.405,33.93 88.357,34.216 90.298,34.633 92.222,35.106 94.088,35.653 95.967,36.315 97.805,37.018 99.631,37.809 101.384,38.685 
		103.119,39.618 104.827,40.637 106.465,41.729 108.074,42.877 109.609,44.113 111.117,45.406 112.526,46.756 113.919,48.163 
		115.227,49.644 116.488,51.18 117.665,52.746 118.801,54.367 119.851,56.051 120.854,57.743 121.745,59.51 122.579,61.276 
		123.339,63.117 124.017,64.953 124.601,66.851 125.136,68.746 125.564,70.686 125.912,72.624 126.124,74.089 126.283,75.583 
		126.397,77.02 126.483,78.512 126.5,79.505 	"/>
	<path fill-rule="evenodd" clip-rule="evenodd" fill="#201E1C" d="M53.662,86.558l-0.029-0.074l-0.4-1.896l-0.273-1.909
		l-0.143-1.938v-1.926l0.143-1.924l0.273-1.924l0.4-1.869l0.029-0.071l0.502-1.81l0.69-1.795l0.776-1.767l0.919-1.724l1.034-1.624
		l1.135-1.536l1.25-1.495l0.801-0.788l0.576-0.576l1.45-1.292l1.536-1.162l1.609-1.064l1.679-0.934l1.752-0.818l1.781-0.733
		l1.854-0.546l0.257-0.057l1.622-0.388l1.924-0.317l1.912-0.157l1.45-0.028l0.49-0.015l1.908,0.101l1.924,0.245l1.479,0.288
		l0.421,0.069l1.851,0.533l1.838,0.631l1.765,0.733l1.724,0.904l1.654,1.02l1.564,1.106l1.491,1.236l0.232,0.229l1.177,1.106
		l1.307,1.422l1.205,1.493l1.078,1.595l0.977,1.681l0.846,1.724l0.735,1.796l0.028,0.057l0.588,1.767l0.445,1.781l0.331,1.781
		l0.217,1.795l0.069,1.823v0.46v0.488l-0.029,1.45l-0.216,1.911l-0.359,1.896l-0.458,1.883l-0.588,1.781l-0.028,0.058l-0.735,1.793
		l-0.846,1.724l-0.977,1.65l-1.09,1.597l-1.193,1.54l-1.307,1.405l-1.177,1.103l-0.232,0.221l-1.491,1.233l-1.564,1.119
		l-1.654,1.005l-1.724,0.891l-1.765,0.76l-1.838,0.649l-1.851,0.486l-0.421,0.073l-1.479,0.286l-1.924,0.262l-1.908,0.098
		l-0.49-0.017l-1.45-0.024l-1.912-0.171l-1.924-0.286l-1.622-0.376l-0.257-0.058l-1.854-0.588l-1.781-0.69l-1.752-0.837
		l-1.679-0.948l-1.609-1.074l-1.536-1.164l-1.45-1.278L60.77,99.05l-0.801-0.8l-1.25-1.479l-1.152-1.539l-1.017-1.639l-0.919-1.707
		l-0.776-1.74l-0.69-1.821L53.662,86.558L53.662,86.558z M112.771,67.826l5.109-5.702l-1.85-3.347l-3.26,0.431l-6.907,0.907
		l-1.667,0.214l1.667,2.429l0.069,0.114l2.442-0.46l2.153,3.763l-1.851,2.054l1.307,2.715L112.771,67.826L112.771,67.826z
		 M112.771,48.494l-0.519-0.546l-1.422-1.393l-1.507-1.321l-1.553-1.25l-1.593-1.192l-0.314-0.217l-1.353-0.905l-1.724-1.033
		l-1.735-0.962l-1.798-0.876l-0.743-0.331l-1.078-0.488l-1.883-0.732l-1.896-0.646l-1.908-0.546l-1.939-0.487l-1.953-0.374
		l-1.883-0.288l-0.114-0.015l-1.965-0.214l-2.026-0.146l-1.695-0.028l-0.273-0.015L77.9,34.561l-1.993,0.131l-1.998,0.229
		l-0.646,0.116l-1.307,0.2l-1.981,0.388l-1.924,0.488l-1.94,0.574l-1.879,0.661l-1.854,0.733l-1.609,0.717l-0.212,0.101l-1.797,0.89
		l-1.736,0.962l-1.695,1.064l-1.65,1.104l-0.016,0.015l-1.609,1.207l-1.536,1.25l-1.495,1.35L47.6,48.12l-1.36,1.464l-1.324,1.538
		l-1.221,1.538l-1.164,1.638l-1.091,1.693l-1.033,1.695l-0.931,1.781l-0.862,1.795l-0.764,1.854l-0.731,1.864l-0.604,1.912
		l-0.531,1.924l-0.458,1.954l-0.347,1.953l-0.286,1.969l-0.172,2.01L34.607,78.7v1.98l0.069,2.013l0.16,1.995l0.273,1.997
		l0.314,1.953l0.433,1.956l0.515,1.92l0.588,1.896l0.69,1.899l0.764,1.838l0.817,1.838l0.947,1.753l0.989,1.739l1.078,1.68
		l1.152,1.654l1.217,1.576l1.279,1.523l1.348,1.467l1.438,1.438l1.438,1.348l1.548,1.263l1.609,1.221l0.388,0.274l1.25,0.878
		l1.679,1.046l1.74,1.005l1.765,0.923l0.674,0.311l1.164,0.522l1.838,0.744l1.896,0.689l1.895,0.589l1.924,0.502l1.969,0.434
		l1.809,0.285l0.16,0.029l1.993,0.24l1.969,0.188l2.026,0.057l0.76-0.012l1.209-0.013l1.993-0.09l1.997-0.2l0.601-0.086l1.381-0.188
		l1.952-0.372l1.953-0.444l1.939-0.548l1.896-0.617l1.867-0.706l1.552-0.67l0.286-0.114l1.81-0.866l1.752-0.947l1.724-1.029
		l1.667-1.095l0.114-0.09l1.52-1.087l1.536-1.233l1.539-1.312l1.435-1.352l0.878-0.903l0.515-0.53l1.336-1.508l1.25-1.552
		l1.192-1.594l1.136-1.666l1.033-1.724l0.96-1.724l0.891-1.798l0.82-1.821l0.731-1.871l0.646-1.879l0.56-1.937l0.49-1.911
		l0.372-1.969l0.318-1.983l0.229-1.98l0.086-0.993l0.057-1.493l0.029-0.99v-0.531v-0.488l-0.029-0.992l-0.102-1.995l-0.213-1.998
		l-0.273-1.98l-0.376-1.969l-0.474-1.953l-0.543-1.926l-0.604-1.896l-0.703-1.866l-0.805-1.838l-0.874-1.781l-0.936-1.781
		l-1.017-1.697l-1.136-1.692l-1.176-1.624l-1.238-1.536l-1.307-1.523L112.771,48.494L112.771,48.494z M112.771,63.948l-0.793,0.848
		l-1.52-2.571l2.313-0.388l2.312-0.372L112.771,63.948L112.771,63.948z M98.512,115.426l0.388-0.058l0.355-0.102l0.331-0.099
		l0.331-0.114l0.286-0.159l0.302-0.127l0.273-0.171l0.274-0.188l0.273-0.188l0.229-0.204l0.258-0.184l0.232-0.2l0.241-0.217
		l0.188-0.258l0.188-0.277l0.126-0.286l0.114-0.314l0.103-0.359l0.058-0.355l0.045-0.404l-0.029-0.347l-0.032-0.372l-0.099-0.348
		l-0.102-0.343l-0.127-0.327l-0.143-0.29l-0.159-0.273l-0.188-0.257l-0.184-0.274l-0.188-0.257l-0.217-0.232l-0.245-0.213
		l-0.229-0.172l-0.273-0.204l-0.286-0.155l-0.314-0.131l-0.376-0.085l-0.388-0.029l-0.36-0.028l-0.343,0.028l-0.314,0.029h-0.086
		l-0.359,0.085l-0.347,0.099l-0.331,0.118l-0.299,0.127l-0.318,0.146l-0.273,0.155l-0.298,0.159l-0.274,0.172l-0.273,0.188
		l-0.257,0.199l-0.205,0.217l-0.212,0.217l-0.2,0.257l-0.176,0.274l-0.143,0.302l-0.131,0.314l-0.086,0.355l-0.057,0.393
		l-0.041,0.388v0.388l0.028,0.4l0.069,0.376l0.103,0.327l0.143,0.331l0.131,0.289l0.172,0.303l0.188,0.245l0.184,0.253l0.204,0.262
		l0.213,0.229l0.232,0.204l0.27,0.172l0.303,0.172l0.273,0.143l0.331,0.127l0.343,0.102l0.376,0.058l0.388,0.028L98.512,115.426
		L98.512,115.426z M98.512,54.513l0.331,0.1l0.355,0.101l0.359,0.043l0.404,0.03l0.343-0.017l0.376-0.014l0.372-0.058l0.331-0.1
		l0.33-0.114l0.314-0.146l0.286-0.172l0.303-0.173l0.245-0.2l0.285-0.2l0.245-0.217l0.245-0.23l0.217-0.258l0.213-0.245l0.216-0.257
		l0.172-0.288l0.172-0.3l0.159-0.288l0.131-0.303l0.143-0.3l0.098-0.346l0.074-0.302l0.085-0.316l0.058-0.331l0.028-0.359
		l0.029-0.329l0.016-0.316l0.029-0.402l-0.045-0.402l-0.086-0.357l-0.086-0.359l-0.144-0.288l-0.13-0.301l-0.159-0.245l-0.2-0.257
		l-0.43-0.49l-0.474-0.414l-0.547-0.376l-4.665-2.657l-0.878-0.503l-5.27,9.424l4.91,2.914l0.604,0.331l0.53,0.26L98.512,54.513
		L98.512,54.513z M98.512,108.33l0.2,0.058l0.273,0.159l0.27,0.159l0.245,0.185l0.245,0.244l0.188,0.229l0.2,0.273l0.159,0.262
		l0.126,0.314l0.144,0.298l0.118,0.348l0.114,0.285l0.099,0.359l0.045,0.348l-0.029,0.359l-0.086,0.286l-0.143,0.286l-0.176,0.273
		l-0.241,0.217l-0.232,0.2l-0.27,0.143l-0.318,0.114l-0.331,0.073l-0.314,0.029l-0.286-0.062l-0.058-0.013l-0.33-0.086l-0.303-0.143
		l-0.229-0.2l-0.232-0.204l-0.213-0.257l-0.2-0.258l-0.176-0.273l-0.159-0.258l-0.143-0.302l-0.155-0.303l-0.114-0.331l-0.074-0.314
		l-0.045-0.375v-0.36l0.062-0.343l0.143-0.327l0.155-0.29l0.172-0.273l0.262-0.2l0.286-0.176l0.285-0.139l0.303-0.073l0.318-0.041
		l0.327,0.058L98.512,108.33L98.512,108.33z M98.512,46.196l0.743-1.321l2.398,1.378l0.232,0.245l0.2,0.301l0.159,0.331l0.098,0.345
		l0.029,0.329v0.359l-0.029,0.345l-0.085,0.317l-0.069,0.33l-0.115,0.346l-0.146,0.3l-0.127,0.303l-0.188,0.316l-0.188,0.271
		l-0.2,0.273l-0.229,0.243l-0.262,0.217l-0.27,0.214l-0.273,0.202l-0.286,0.157l-0.347,0.115l-0.344,0.071h-0.33l-0.372-0.071
		h-0.017l-0.4-0.144l-2.111-1.307L98.512,46.196L98.512,46.196z M85.972,118.126l-0.874-4.869l-2.283,0.416l-0.273-1.462
		l3.431-0.588l3.19-0.548l0.245,1.381l-2.271,0.458l1.05,6.135l-1.997,0.327L85.972,118.126L85.972,118.126z M85.972,46.211
		l-0.286,0.53l-0.359,0.52l-0.445,0.429l-0.474,0.459l-0.502,0.359l-0.604,0.303l-0.646,0.214l-0.69,0.117l-0.715,0.098
		l-0.792,0.073l-0.286,0.015l-0.588,0.015l-0.805-0.058l-0.719-0.058l-0.702-0.159l-0.674-0.214l-0.645-0.245l-0.519-0.344
		l-0.49-0.433L74.6,47.389l-0.359-0.562l-0.286-0.574l-0.245-0.676l-0.143-0.717l-0.102-0.805l-0.028-0.861l0.057-0.819l0.159-0.745
		l0.217-0.662l0.298-0.631l0.347-0.517l0.417-0.477l0.486-0.416l0.531-0.344l0.604-0.287l0.662-0.215l0.76-0.159l0.805-0.103
		l0.805-0.041l0.588,0.015l0.274,0.015l0.861,0.071l0.76,0.129l0.72,0.188l0.674,0.229l0.604,0.288l0.502,0.359l0.486,0.432
		l0.417,0.487l0.29,0.56l0.212,0.488l0.062,0.159l0.212,0.675l0.086,0.373l0.062,0.402l0.013,0.389l0.028,0.431v0.459l-0.028,0.387
		l-0.029,0.433l-0.143,0.731l-0.229,0.676L85.972,46.211L85.972,46.211z M80.171,39.401l0.331,0.028l0.646,0.231l0.547,0.373
		l0.388,0.445l0.344,0.589l0.229,0.646l0.118,0.76l0.041,0.776l-0.028,0.417l-0.013,0.402l-0.017,0.431l-0.028,0.417l-0.172,0.719
		l-0.29,0.631l-0.416,0.474l-0.503,0.359l-0.629,0.258l-0.547,0.06l-0.216,0.028l-0.76-0.088l-0.674-0.258l-0.49-0.388l-0.4-0.46
		l-0.318-0.616l-0.2-0.662l-0.086-0.762l-0.045-0.702l0.045-0.748l0.086-0.775l0.188-0.731l0.303-0.576l0.4-0.488l0.462-0.416
		l0.674-0.286l0.662-0.131L80.171,39.401L80.171,39.401z M73.264,119.376h-0.257l-0.347-0.013l-0.331-0.062l-0.314-0.057
		l-0.331-0.099l-0.331-0.114l-0.314-0.146l-0.286-0.155l-0.302-0.172l-0.274-0.172l-0.229-0.261l-0.217-0.286l-0.155-0.303
		l-0.175-0.375l-0.127-0.4l-0.057-0.43v-0.42l0.057-0.4l0.948-4.71l2.226,0.417l-0.85,4.913l-0.057,0.327l0.045,0.331l0.114,0.314
		l0.188,0.262l0.2,0.257l0.286,0.176l0.331,0.098l0.331-0.028l0.229-0.069l0.057-0.032l0.303-0.172l0.229-0.229l0.171-0.262
		l0.115-0.314l0.98-5.053l2.194,0.372l-1.063,5.212l-0.085,0.371l-0.155,0.335l-0.216,0.314l-0.245,0.258l-0.286,0.229l-0.286,0.176
		l-0.306,0.184l-0.314,0.073l-0.343,0.058l-0.331,0.045l-0.36,0.013H73.264L73.264,119.376z M60.77,115.14l1.568,1.107l1.953-7.933
		l-2.488-1.618l-1.033,0.703l-5.755,3.962l1.679,1.233l1.593-1.005l2.484,1.639l0.273,0.188l-0.273,1.147l-0.115,0.49L60.77,115.14
		L60.77,115.14z M60.77,55.675l1.438-1.005l-1.438-2.098l-4.71-6.936l-2.397,1.81l-0.098,0.071l0.098,0.143l6.033,8.776
		L60.77,55.675L60.77,55.675z M60.77,50.448l4.697,2.152l2.814-1.692l-6.074-3.076l0.057-6.361l-1.495,0.992l-1.303,0.874
		l-0.045,6.492L60.77,50.448L60.77,50.448z M60.77,109.54l1.438-0.98l-0.817,3.406l-0.621-0.433l-1.422-1.033L60.77,109.54
		L60.77,109.54z M53.662,65.198l0.102-0.157l0.27-0.591l0.233-0.688l0.098-0.389l0.102-0.416l0.028-0.389v-0.33l-0.012-0.372
		l-0.102-0.402l-0.114-0.431l-0.2-0.49l-0.302-0.517l-0.102-0.086l-0.359-0.344l-0.56-0.345l-0.646-0.23l-0.764-0.129l-0.8,0.086
		l-0.662,0.216l-0.576,0.329l-0.531,0.346l-0.486,0.416l-0.417,0.474l-0.404,0.488l-0.388,0.503l-0.502,0.388l-0.302,0.188
		l-0.343,0.029l-0.331-0.074l-0.302-0.2l-0.155-0.244l-0.102-0.301v-0.619l0.159-0.631l0.257-0.488l0.359-0.573l0.343-0.548
		l0.318-0.517l0.069-0.359l-0.776-1.19l-0.744,0.931l-0.388,0.518l-0.388,0.532l-0.359,0.503l-0.331,0.56l-0.331,0.562l-0.302,0.617
		l-0.184,0.689l-0.159,0.718l-0.017,0.805l0.131,0.719l0.302,0.631l0.388,0.49l0.486,0.429l0.547,0.331l0.703,0.174l0.805-0.029
		l0.674-0.202l0.617-0.302l0.519-0.359l0.461-0.46l0.429-0.457l0.359-0.52l0.417-0.502l0.69-0.574l0.302-0.116l0.343-0.043
		l0.331,0.086l0.241,0.217l0.245,0.271l0.171,0.316l0.102,0.331l0.012,0.331l-0.053,0.359l-0.217,0.659l-0.318,0.562l-0.384,0.531
		l-0.404,0.474l-0.417,0.488l-0.359,0.431l1.479,1.034l0.49-0.488l0.212-0.245l0.433-0.486l0.359-0.49l0.4-0.517l0.347-0.517
		L53.662,65.198z"/>
	<path fill-rule="evenodd" clip-rule="evenodd" fill="#006E3F" d="M84.995,88.581l-0.56-0.028l-0.689-0.188l-0.646-0.359
		l-0.531-0.44l-0.445-0.593l-0.286-0.646l-0.159-0.719v-0.702l0.159-0.705l0.286-0.659l0.445-0.56l0.531-0.488l0.646-0.331
		l0.689-0.186l0.56-0.031l0.188-0.014l0.702,0.114l0.679,0.273l0.588,0.417l0.486,0.502l0.375,0.631l0.229,0.677l0.057,0.359
		l0.029,0.373L88.3,85.607l-0.057,0.376l-0.229,0.674l-0.375,0.633l-0.486,0.531l-0.588,0.388l-0.679,0.27l-0.702,0.115
		L84.995,88.581L84.995,88.581z M84.995,56.768l-0.098-0.101l-0.662-0.562l-0.719-0.545l-0.743-0.517l-0.907-0.346l-0.935-0.243
		l-0.919-0.073h-1.16l-1.152,0.06l-1.147,0.114l-1.136,0.214l-1.131,0.231l-0.445,0.143l-0.347,0.217l-0.286,0.331l-0.216,0.414
		v0.462l0.2,0.531l0.461,0.76l0.576,0.689l0.645,0.603l0.646,0.634l0.604,0.603l0.646,0.618l0.588,0.646l0.604,0.631l0.588,0.662
		l0.302,0.474l0.098,0.402l-0.188,0.271l-0.372-0.071l-0.331-0.286l-0.547-0.532L76.9,62.556l-0.604-0.647l-0.56-0.688l-0.633-0.603
		l-0.646-0.619l-0.662-0.573l-0.646-0.603l-0.69-0.576l-0.702-0.545l-0.792-0.432l-0.903-0.245l-0.976,0.031l-0.919,0.3
		l-1.147,0.619L65.9,58.663l-1.095,0.775l-1.034,0.805l-0.976,0.862l-0.948,0.919l-0.891,0.977l-0.845,1.007l-0.172,0.674
		l0.172,0.674l0.502,0.488l0.788,0.447l0.878,0.371l0.874,0.389l0.862,0.345l0.862,0.402L65.74,68.2l0.805,0.431l0.658,0.417
		l0.388,0.286l0.216,0.359l-0.13,0.288h-0.429l-0.486-0.229l-0.809-0.432l-0.817-0.431l-0.862-0.388l-0.862-0.374l-0.903-0.374
		l-0.948-0.288l-0.919-0.259l-0.976-0.114l-0.976,0.128l-0.735,0.52l-0.56,0.661l-0.588,1.02l-0.502,1.033l-0.429,1.048L55.5,72.609
		l-0.302,1.107l-0.126,1.062l0.126,1.005l0.49,0.776l0.76,0.46l1.062,0.202l1.193,0.055l1.266,0.073l1.274,0.2l1.238,0.346
		l1.192,0.459l1.132,0.589l1.147,0.733l1.079,0.89l0.935,0.977l0.805,0.95l0.715,1.048l0.621,1.09l0.515,1.136l0.404,1.193
		l0.298,1.209l0.204,1.233v0.719l-0.176,0.429l-0.372,0.245l-0.474,0.013l-0.486-0.144l-0.805-0.29l-0.821-0.416l-0.833-0.43
		l-0.903-0.343l-0.976-0.232l-1.078-0.155l-1.079-0.029l-1.09,0.029L61.3,88.814h-1.074l-1.05-0.017l-0.891,0.057L57.8,88.912
		l-0.388,0.2l-0.318,0.29l-0.229,0.384l-0.016,0.49l0.175,0.417l0.372,0.375l0.719,0.499l0.646,0.588l0.576,0.707l0.502,0.747
		l0.445,0.776l0.388,0.857l0.359,0.923l0.388,0.846l0.674,0.604l0.976,0.258l1.148-0.024l1.033-0.176l0.85-0.404l0.731-0.531
		l0.76-0.474l0.862-0.372l1.033-0.232l1.193-0.058l1.752-0.098h12.564h1.45h2.488h1.245h1.25l0.662,0.114l0.433,0.204l0.258,0.367
		l0.159,0.45l0.155,0.49l0.257,0.371l0.404,0.184l0.515,0.09l0.98-0.09l1.063-0.27l1.046-0.359l0.992-0.49l0.964-0.56l0.887-0.657
		l0.85-0.707l0.76-0.805l0.719-0.874l-0.76-0.821l-0.821-0.747l-0.861-0.702l-0.96-0.605l-0.977-0.56l-1.005-0.416l-1.066-0.372
		l-1.017-0.262l-1.005-0.012l-0.417,0.114l-0.69,0.543l-0.159,0.604l-0.143,0.49l-0.359,0.229l-0.429-0.086l-0.2-0.372v-0.531
		l0.212-0.865l0.474-1.605l0.389-1.581l0.318-1.621l0.298-1.727l0.217-1.693l0.114-1.737l0.028-1.724l-0.057-1.738l-0.127-1.738
		l-0.245-1.709l-0.416-1.81l-0.458-1.624l-0.592-1.624l-0.675-1.593l-0.788-1.523l-0.891-1.436l-0.792-1.179l-0.862-1.134
		l-0.915-1.121l-0.979-1.033L84.995,56.768z"/>
	<polygon fill-rule="evenodd" clip-rule="evenodd" fill="#FFFFFF" points="42.821,60.115 40.436,60.372 40.983,59.425 
		42.388,59.094 42.074,57.527 42.617,56.596 43.422,59.065 	"/>
</g>
</svg>
