<?xml version="1.0" encoding="utf-8"?>
<!-- Generator: Adobe Illustrator 16.2.0, SVG Export Plug-In . SVG Version: 6.00 Build 0)  -->
<!DOCTYPE svg PUBLIC "-//W3C//DTD SVG 1.1//EN" "http://www.w3.org/Graphics/SVG/1.1/DTD/svg11.dtd">
<svg version="1.1" id="Layer_1" xmlns="http://www.w3.org/2000/svg" xmlns:xlink="http://www.w3.org/1999/xlink" x="0px" y="0px"
	 width="160px" height="160px" viewBox="0 0 160 160" enable-background="new 0 0 160 160" xml:space="preserve">
<g>
	<circle fill-rule="evenodd" clip-rule="evenodd" fill="#FDFDFD" cx="79.998" cy="80" r="46.035"/>
	<radialGradient id="SVGID_1_" cx="53.0298" cy="42.8018" r="104.784" gradientUnits="userSpaceOnUse">
		<stop  offset="0" style="stop-color:#54ABDF"/>
		<stop  offset="0.18" style="stop-color:#257FC3"/>
		<stop  offset="0.46" style="stop-color:#006EB7"/>
		<stop  offset="1" style="stop-color:#00376F"/>
	</radialGradient>
	<circle fill-rule="evenodd" clip-rule="evenodd" fill="url(#SVGID_1_)" cx="80" cy="80" r="46.5"/>
	<path fill-rule="evenodd" clip-rule="evenodd" fill="#140F66" d="M80.656,48.244c2.928,0,5.765,0.395,8.467,1.126L80.13,69.471
		l-8.815-19.85C74.354,48.673,77.307,48.244,80.656,48.244L80.656,48.244z M75.006,80.977h10.249l6.114,13.673l15.002-33.621
		c-0.292-0.401-0.585-0.798-0.894-1.182c-2.202-2.62-4.802-4.887-7.719-6.705L85.893,79.763H75.292L63.48,53.147
		c-3.613,2.283-6.745,5.261-9.209,8.742l14.582,32.76L75.006,80.977L75.006,80.977z M65.577,109.339
		c-10.299-5.436-17.332-16.25-17.332-28.681c0.002-2.994,0.365-5.812,1.127-8.563l16.692,37.483
		C65.867,109.485,65.771,109.437,65.577,109.339L65.577,109.339z M80.081,112.755c-2.85,0-5.667-0.365-8.391-1.093l8.851-20.003
		l8.857,19.764C86.425,112.3,83.212,112.755,80.081,112.755L80.081,112.755z M95.428,108.916l16.232-36.468
		c0.626,2.537,0.943,5.145,0.943,7.785C112.604,92.261,105.933,103.286,95.428,108.916L95.428,108.916z M80.622,120.795
		c22.13,0,40.134-18.005,40.134-40.131c0-22.13-18.004-40.134-40.134-40.134c-22.128-0.002-40.133,18.004-40.133,40.134
		C40.489,102.79,58.494,120.795,80.622,120.795z"/>
	<radialGradient id="SVGID_2_" cx="57.7822" cy="45.8799" r="88.8923" gradientUnits="userSpaceOnUse">
		<stop  offset="0" style="stop-color:#FFFFFF"/>
		<stop  offset="0.51" style="stop-color:#FFFFFF"/>
		<stop  offset="0.74" style="stop-color:#C8CBCA"/>
		<stop  offset="1" style="stop-color:#3F4243"/>
	</radialGradient>
	<path fill-rule="evenodd" clip-rule="evenodd" fill="url(#SVGID_2_)" d="M47.147,80c0,13.333,7.94,24.805,19.348,29.956
		L48.702,69.992C47.692,73.148,47.147,76.513,47.147,80L47.147,80z M53.313,60.84c2.612-3.634,5.951-6.713,9.803-9.024L75.151,78.84
		h9.697l12.045-27.021c3.848,2.312,7.183,5.389,9.795,9.021L91.251,95.511l-6.402-14.349h-9.697l-6.399,14.356L53.313,60.84
		L53.313,60.84z M111.299,69.992l-17.793,39.964c11.407-5.151,19.35-16.623,19.35-29.956
		C112.855,76.511,112.307,73.148,111.299,69.992L111.299,69.992z M89.65,111.41l-9.646-21.66l-9.644,21.665
		c3.049,0.934,6.284,1.438,9.64,1.438C83.358,112.853,86.596,112.349,89.65,111.41L89.65,111.41z M70.36,48.586l9.644,21.66
		l9.643-21.658c-3.051-0.935-6.288-1.438-9.646-1.438C76.645,47.149,73.409,47.653,70.36,48.586L70.36,48.586z M40.325,80
		c0-21.912,17.763-39.675,39.675-39.675c21.911-0.003,39.676,17.763,39.676,39.675c0,21.913-17.765,39.678-39.676,39.678
		C58.088,119.678,40.325,101.913,40.325,80z"/>
</g>
</svg>
