<?xml version="1.0" encoding="utf-8"?>
<!-- Generator: Adobe Illustrator 21.0.2, SVG Export Plug-In . SVG Version: 6.00 Build 0)  -->
<svg version="1.1" id="Layer_1" xmlns="http://www.w3.org/2000/svg" xmlns:xlink="http://www.w3.org/1999/xlink" x="0px" y="0px"
	 viewBox="0 0 80 80" style="enable-background:new 0 0 80 80;" xml:space="preserve">
<style type="text/css">
	.st0{fill:#CAD1D8;}
	.st1{fill:#576D7E;}
	.st2{fill:#35495C;}
	.st3{fill:#E2E5E7;}
	.st4{fill:#B0B7BD;}
</style>
<g>
	<polygon class="st0" points="13.5,29.6 13.5,29.2 40.2,10.4 67,29.2 67,29.6 	"/>
	<rect x="49.1" y="34.5" class="st1" width="9.9" height="27.2"/>
	<rect x="35.3" y="34.5" class="st1" width="9.9" height="27.2"/>
	<rect x="21.4" y="34.5" class="st1" width="9.9" height="27.2"/>
	<path class="st2" d="M21.4,34.5v1.9v25.2h3V38.4c0-1.1,0.9-1.9,2-1.9h5v-1.9H21.4z"/>
	<path class="st2" d="M35.3,34.5v1.9v25.2h3V38.4c0-1.1,0.9-1.9,2-1.9h5v-1.9H35.3z"/>
	<path class="st2" d="M49.1,34.5v1.9v25.2h3V38.4c0-1.1,0.9-1.9,2-1.9h5v-1.9H49.1z"/>
	<path class="st3" d="M15.5,65.5c0,0.5,0.4,1,1,1H64c0.5,0,1-0.4,1-1v-2.9c0-0.5-0.4-1-1-1H16.5c-0.5,0-1,0.4-1,1V65.5z"/>
	<path class="st3" d="M15.5,33.5c0,0.5,0.4,1,1,1H64c0.5,0,1-0.4,1-1v-2.9c0-0.5-0.4-1-1-1H16.5c-0.5,0-1,0.4-1,1V33.5z"/>
	<path class="st3" d="M12.5,70.4c0,0.5,0.4,1,1,1H67c0.5,0,1-0.4,1-1v-3.9c0-0.5-0.4-1-1-1H13.5c-0.5,0-1,0.4-1,1V70.4z"/>
	<rect x="17.5" y="36.4" class="st3" width="4" height="25.2"/>
	<rect x="31.3" y="36.4" class="st3" width="4" height="25.2"/>
	<rect x="45.2" y="36.4" class="st3" width="4" height="25.2"/>
	<rect x="59" y="36.4" class="st3" width="4" height="25.2"/>
	<path class="st3" d="M40.2,11.6l24.3,17H15.9L40.2,11.6z M40.2,9.3L12.5,28.7v1.9h55.4v-1.9L40.2,9.3L40.2,9.3z"/>
	<ellipse class="st3" cx="40.2" cy="21.9" rx="3" ry="2.9"/>
	<path class="st4" d="M40.2,24.8c-1.5,0-2.7-1-2.9-2.4c0,0.2,0,0.3,0,0.5c0,1.6,1.3,2.9,3,2.9c1.6,0,3-1.3,3-2.9c0-0.2,0-0.3,0-0.5
		C42.9,23.7,41.7,24.8,40.2,24.8z"/>
	<path class="st0" d="M67,71.3c0.5,0,1-0.4,1-1v-3.9H42.2c-0.5,0-1,0.4-1,1v1.9c0,0.5-0.4,1-1,1H12.5c0,0.5,0.4,1,1,1h27.7H67z"/>
	<path class="st0" d="M65,65.5v-2.9H42.2c-0.5,0-1,0.4-1,1l0,0c0,0.5-0.4,1-1,1H15.5v1h25.7H65z"/>
	<path class="st0" d="M44.2,34.5l1,1.9h1c0.5,0,1,0.4,1,1v24.3h2V36.4l1-1.9H44.2z"/>
	<path class="st0" d="M58,34.5l1,1.9h1c0.5,0,1,0.4,1,1v24.3h2V36.4l1-1.9H58z"/>
	<path class="st0" d="M30.3,34.5l1,1.9h1c0.5,0,1,0.4,1,1v24.3h2V36.4l1-1.9H30.3z"/>
	<path class="st0" d="M16.5,34.5l1,1.9h1c0.5,0,1,0.4,1,1v24.3h2V36.4l1-1.9H16.5z"/>
	<path class="st0" d="M15.5,30.6v1h22.8c1.1,0,2,0.9,2,1.9v1H64c0.5,0,1-0.4,1-1v-1.9v-1H15.5z"/>
</g>
<polygon class="st4" points="66.2,29 44.2,13 44.2,11.4 68.7,29 "/>
<polygon class="st4" points="14.5,28.7 36.5,12.7 36.5,11.2 11.9,28.7 "/>
</svg>
