<svg xmlns="http://www.w3.org/2000/svg" viewBox="0 0 49.8 58.2"><defs><style>.cls-1{fill:#038dcb;}.cls-1,.cls-2,.cls-3{fill-rule:evenodd;}.cls-2{fill:#2865ac;}.cls-3{fill:#53c1f0;}.cls-4{fill:#fff;}</style></defs><g id="katman_2" data-name="katman 2"><g id="katman_1-2" data-name="katman 1"><path class="cls-1" d="M6.53,0H32.92L49.8,16.71v35a6.55,6.55,0,0,1-6.53,6.52H6.53A6.55,6.55,0,0,1,0,51.68V6.53A6.55,6.55,0,0,1,6.53,0Z"/><polygon class="cls-2" points="35.32 15.18 49.8 28.55 49.8 16.71 45.89 12.84 35.32 15.18 35.32 15.18"/><path class="cls-3" d="M49.78,16.69H39.49A6.55,6.55,0,0,1,33,10.16V0L49.78,16.69Z"/><path class="cls-4" d="M6.86,49.58V36.78h4.39a6.06,6.06,0,0,1,3.51.86A3,3,0,0,1,16,40.29a2.85,2.85,0,0,1-.46,1.59,2.71,2.71,0,0,1-1.34,1v0a2.72,2.72,0,0,1,1.7,1,3.16,3.16,0,0,1,.56,1.88,3.38,3.38,0,0,1-1.16,2.8,5.41,5.41,0,0,1-3.43.93Zm2.57-5.66v3.69h2.42a2.16,2.16,0,0,0,1.53-.47,1.69,1.69,0,0,0,.5-1.3,2,2,0,0,0-.44-1.43A1.83,1.83,0,0,0,12,43.92Zm0-1.78h1.91a2.46,2.46,0,0,0,1.56-.41,1.5,1.5,0,0,0,.51-1.24,1.59,1.59,0,0,0-.52-1.32,2.67,2.67,0,0,0-1.64-.41H9.43v3.38Zm12.33-5.36L25,46.26h0l3.3-9.48h3.36v12.8H29.15V45.76L29.41,40h0l-3.46,9.56H24.19l-3.44-9.53h0l.26,5.7v3.82H18.41V36.78Zm14.92,8.16v4.64H34.11V36.78h5.1a5.09,5.09,0,0,1,3.5,1.11,4.19,4.19,0,0,1,0,6,5.13,5.13,0,0,1-3.5,1.1Zm0-2h2.53a2.15,2.15,0,0,0,1.64-.57,2.12,2.12,0,0,0,.54-1.5,2.21,2.21,0,0,0-.54-1.54,2.12,2.12,0,0,0-1.64-.59H36.68V43Z"/><path class="cls-3" d="M16.43,8.34a3.08,3.08,0,1,1-3.08,3.07,3.07,3.07,0,0,1,3.08-3.07Zm-2.89,16.9,5.19-6.86L22,20.83l5.47-7.69,9,12.12-22.91,0Z"/></g></g></svg>