<svg id="Layer_1" data-name="Layer 1" xmlns="http://www.w3.org/2000/svg" viewBox="0 0 191.66 184.25"><defs><style>.cls-1{fill:#faa61a;}</style></defs><path class="cls-1" d="M155.26,72.92c-3.66,4.1-6.53,6.74-6.53,6.74.44-4.48.87-9.61.48-13.14a26.13,26.13,0,0,0-4-12.08,14.09,14.09,0,0,0-11.8-6.39,12.28,12.28,0,0,0-11.59,7.52c-2.13,4.54-2.1,9.81-1.71,13.43,1,9,5.66,19.65,13.93,24.07a91.66,91.66,0,0,1-4,10.68c-5.7,12.82-13.18,20.78-19.51,20.78-1.56,0-3.41-.42-5.34-3.51a24.13,24.13,0,0,1-2.69-6.75c1.21-1.32,2.41-2.75,3.58-4.25,5.8-7.49,12.24-19.41,11.26-28.34a12.33,12.33,0,0,0-12.82-11.43c-12.91,0-16.44,22.67-14.76,38,0,.38.09.77.14,1.14-4.6,4.07-9.09,6.3-12.72,6.3-2.35,0-3.53-.73-4.48-2.78-5-10.64,3.43-34.43,13.55-45.75,2-1.86,3.12-3.12,3.34-3.36,2-2.19,1.73-5.73-.62-8.07a6.56,6.56,0,0,0-4.56-1.94,5.27,5.27,0,0,0-3.56,1.33c-1.14,1-2.27,2.16-3.28,3.27a96.53,96.53,0,0,1-12.2,9.77C58.73,72.63,48.59,78,38.29,78a28.87,28.87,0,0,1-4.5-.36,6.24,6.24,0,0,0-1-.08,5.08,5.08,0,0,0-5.21,4.88,6.65,6.65,0,0,0,5.53,6.71,39.53,39.53,0,0,0,6.45.52c7.53,0,15.46-2,23.63-6.08-4.32,12.83-4.75,25.29-1,33.26a17.25,17.25,0,0,0,16.32,10.51c2.75,0,8.17-.69,14.81-5.06a29.92,29.92,0,0,0,2.13,4.07c4,6.35,9.79,9.84,16.41,9.84,17,0,29-22.19,34.26-41.55,5.87-1.28,9-4.68,11.15-6.8a39.06,39.06,0,0,0,6-8.65C166.35,72.85,159.8,67.82,155.26,72.92ZM100.78,88.63A22.81,22.81,0,0,1,103.07,83c1.73-2.94,4.08-3.64,3.58,1.5a25.1,25.1,0,0,1-1.92,6.79,54,54,0,0,1-5.58,10.15A53,53,0,0,1,100.78,88.63Zm36-7.3c-2.46-2.65-4.48-7.47-5-12.33-.42-3.85.2-9.27,2.9-9.27.6,0,.71.06,1.07.58a14.74,14.74,0,0,1,1.77,6.21A56.06,56.06,0,0,1,136.81,81.33Z"/></svg>