<svg xmlns="http://www.w3.org/2000/svg" viewBox="0 0 46.09 61.46"><defs><style>.cls-1{fill:#35495c;}.cls-2{fill:#576d7e;}.cls-3{fill:#e2e5e7;}.cls-4{fill:#cad1d8;}.cls-5{fill:#123247;}.cls-6{fill:#231f20;}.cls-7{fill:#b0b7bd;}</style></defs><title>creditcard</title><g id="Layer_2" data-name="Layer 2"><g id="Layer_1-2" data-name="Layer 1"><path class="cls-1" d="M36.49,60.5a8.65,8.65,0,0,1-8.64-8.64V9.6a8.64,8.64,0,0,1,17.29,0V51.86a8.64,8.64,0,0,1-8.64,8.64Z"/><path class="cls-2" d="M36.5,1.92A7.69,7.69,0,0,1,44.17,9.6V51.86a7.68,7.68,0,1,1-15.36,0V9.6a7.69,7.69,0,0,1,7.68-7.68ZM36.5,0h0a9.6,9.6,0,0,0-9.6,9.6V51.86a9.6,9.6,0,0,0,9.6,9.6h0a9.6,9.6,0,0,0,9.6-9.6V9.6A9.6,9.6,0,0,0,36.5,0Z"/><path class="cls-3" d="M44.17,8.64H3.84A3.85,3.85,0,0,0,0,12.48V49a3.85,3.85,0,0,0,3.84,3.84H44.17Z"/><path class="cls-4" d="M31.69,41.29H9.6a1.92,1.92,0,0,0,0,3.84H31.69a1.92,1.92,0,0,0,0-3.84Z"/><rect class="cls-5" y="16.33" width="44.17" height="11.52"/><rect class="cls-4" x="38.41" y="8.64" width="5.76" height="7.68"/><rect class="cls-6" x="38.41" y="16.33" width="5.76" height="11.52"/><rect class="cls-4" x="38.41" y="27.85" width="5.76" height="13.44"/><rect class="cls-4" x="38.41" y="45.13" width="5.76" height="7.68"/><path class="cls-4" d="M44.17,41.29H38.41a1.92,1.92,0,0,0,0,3.84h5.76Z"/><rect class="cls-7" x="38.41" y="41.29" width="5.76" height="3.84"/></g></g></svg>