<?xml version="1.0" encoding="utf-8"?>
<!-- Generator: Adobe Illustrator 21.0.2, SVG Export Plug-In . SVG Version: 6.00 Build 0)  -->
<svg version="1.1" id="Layer_1" xmlns="http://www.w3.org/2000/svg" xmlns:xlink="http://www.w3.org/1999/xlink" x="0px" y="0px"
	 viewBox="0 0 512 512" style="enable-background:new 0 0 512 512;" xml:space="preserve">
<style type="text/css">
	.st0{fill:#6E421B;}
	.st1{fill:#91582B;}
	.st2{fill:#C9D1D7;}
	.st3{fill:#7D4B22;}
	.st4{fill:#AFB6BD;}
</style>
<g>
	<path class="st0" d="M448.9,248.5H276.3l122-122c3.1-3.1,3.1-8.2,0-11.3c-3.1-3.1-8.2-3.1-11.3,0l-122,122V64.7c0-4.4-3.6-8-8-8
		c-4.4,0-8,3.6-8,8v172.6l-122-122c-3.1-3.1-8.2-3.1-11.3,0c-3.1,3.1-3.1,8.2,0,11.3l122,122H65.2c-4.4,0-8,3.6-8,8c0,4.4,3.6,8,8,8
		h172.6l-122,122c-3.1,3.1-3.1,8.2,0,11.3c3.1,3.1,8.2,3.1,11.3,0l122-122v172.6c0,4.4,3.6,8,8,8c4.4,0,8-3.6,8-8V275.8l122,122
		c3.1,3.1,8.2,3.1,11.3,0c3.1-3.1,3.1-8.2,0-11.3l-122-122h172.6c4.4,0,8-3.6,8-8C456.9,252.1,453.3,248.5,448.9,248.5z"/>
	<g>
		<path class="st1" d="M257,416.4c-88.2,0-159.9-71.7-159.9-159.9c0-88.2,71.7-159.9,159.9-159.9c88.2,0,159.9,71.7,159.9,159.9
			C416.9,344.7,345.2,416.4,257,416.4z M257,144.6c-61.7,0-111.9,50.2-111.9,111.9c0,61.7,50.2,111.9,111.9,111.9
			c61.7,0,111.9-50.2,111.9-111.9C368.9,194.8,318.7,144.6,257,144.6z"/>
	</g>
	<g>
		<path class="st1" d="M257,80.7c-8.8,0-16-7.2-16-16v-48c0-8.8,7.2-16,16-16c8.8,0,16,7.2,16,16v48C273,73.5,265.8,80.7,257,80.7z"
			/>
	</g>
	<g>
		<path class="st1" d="M257,512.4c-8.8,0-16-7.2-16-16v-48c0-8.8,7.2-16,16-16c8.8,0,16,7.2,16,16v48
			C273,505.2,265.8,512.4,257,512.4z"/>
	</g>
	<g>
		<path class="st1" d="M496.8,272.5h-48c-8.8,0-16-7.2-16-16c0-8.8,7.2-16,16-16h48c8.8,0,16,7.2,16,16
			C512.8,265.4,505.7,272.5,496.8,272.5z"/>
	</g>
	<g>
		<path class="st1" d="M65.2,272.5h-48c-8.8,0-16-7.2-16-16c0-8.8,7.2-16,16-16h48c8.8,0,16,7.2,16,16
			C81.1,265.4,74,272.5,65.2,272.5z"/>
	</g>
	<g>
		<path class="st1" d="M381.4,132.2c-6.2-6.2-6.2-16.4,0-22.6l33.9-33.9c6.2-6.2,16.4-6.2,22.6,0c6.2,6.2,6.2,16.4,0,22.6L404,132.2
			C397.7,138.4,387.6,138.4,381.4,132.2z"/>
	</g>
	<g>
		<path class="st1" d="M76.1,437.4c-6.2-6.2-6.2-16.4,0-22.6l33.9-33.9c6.2-6.2,16.4-6.2,22.6,0c6.2,6.2,6.2,16.4,0,22.6l-33.9,33.9
			C92.5,443.7,82.4,443.7,76.1,437.4z"/>
	</g>
	<g>
		<path class="st1" d="M415.3,437.4l-33.9-33.9c-6.2-6.2-6.2-16.4,0-22.6c6.2-6.2,16.4-6.2,22.6,0l33.9,33.9
			c6.2,6.2,6.2,16.4,0,22.6C431.7,443.7,421.5,443.7,415.3,437.4z"/>
	</g>
	<g>
		<path class="st1" d="M110,132.2L76.1,98.3c-6.2-6.2-6.2-16.4,0-22.6c6.2-6.2,16.4-6.2,22.6,0l33.9,33.9c6.2,6.2,6.2,16.4,0,22.6
			C126.4,138.4,116.3,138.4,110,132.2z"/>
	</g>
	<g>
		<circle class="st2" cx="121.1" cy="256.5" r="8"/>
	</g>
	<g>
		<ellipse transform="matrix(0.7071 -0.7071 0.7071 0.7071 -202.2245 217.0675)" class="st2" cx="160.9" cy="352.6" rx="8" ry="8"/>
	</g>
	<g>
		<path class="st2" d="M155.3,166.1c-3.1-3.1-3.1-8.2,0-11.3c3.1-3.1,8.2-3.1,11.3,0c3.1,3.1,3.1,8.2,0,11.3
			C163.4,169.2,158.4,169.2,155.3,166.1z"/>
	</g>
	<g>
		<path class="st1" d="M305,256.5c0,26.5-21.5,48-48,48c-26.5,0-48-21.5-48-48c0-26.5,21.5-48,48-48
			C283.5,208.6,305,230.1,305,256.5z"/>
	</g>
	<path class="st3" d="M368.9,256.5c0,61.7-50.2,111.9-111.9,111.9v48c88.2,0,159.9-71.7,159.9-159.9c0-88.2-71.7-159.9-159.9-159.9
		v48C318.7,144.6,368.9,194.8,368.9,256.5z"/>
	<g>
		<circle class="st2" cx="257" cy="120.6" r="8"/>
	</g>
	<g>
		<circle class="st2" cx="257" cy="392.4" r="8"/>
	</g>
	<g>
		<circle class="st2" cx="392.9" cy="256.5" r="8"/>
	</g>
	<g>
		<path class="st2" d="M358.8,166.1c-3.1,3.1-8.2,3.1-11.3,0c-3.1-3.1-3.1-8.2,0-11.3c3.1-3.1,8.2-3.1,11.3,0
			C361.9,157.9,361.9,163,358.8,166.1z"/>
	</g>
	<g>
		<path class="st2" d="M347.4,358.3c-3.1-3.1-3.1-8.2,0-11.3c3.1-3.1,8.2-3.1,11.3,0c3.1,3.1,3.1,8.2,0,11.3
			C355.6,361.4,350.6,361.4,347.4,358.3z"/>
	</g>
	<path class="st4" d="M262.7,398.1c3.1-3.1,3.1-8.2,0-11.3l-11.3,11.3C254.5,401.2,259.5,401.2,262.7,398.1z"/>
	<path class="st4" d="M358.8,358.3c3.1-3.1,3.1-8.2,0-11.3l-11.3,11.3C350.6,361.4,355.6,361.4,358.8,358.3z"/>
	<path class="st4" d="M398.6,262.2c3.1-3.1,3.1-8.2,0-11.3l-11.3,11.3C390.4,265.3,395.4,265.3,398.6,262.2z"/>
	<path class="st4" d="M358.8,166.1c3.1-3.1,3.1-8.2,0-11.3l-11.3,11.3C350.6,169.2,355.6,169.2,358.8,166.1z"/>
	<path class="st4" d="M166.6,166.1c3.1-3.1,3.1-8.2,0-11.3l-11.3,11.3C158.4,169.2,163.4,169.2,166.6,166.1z"/>
	<path class="st4" d="M126.8,262.2c3.1-3.1,3.1-8.2,0-11.3l-11.3,11.3C118.6,265.3,123.6,265.3,126.8,262.2z"/>
	<path class="st4" d="M166.6,358.3c3.1-3.1,3.1-8.2,0-11.3l-11.3,11.3C158.4,361.4,163.4,361.4,166.6,358.3z"/>
	<path class="st4" d="M262.7,126.3c3.1-3.1,3.1-8.2,0-11.3l-11.3,11.3C254.5,129.4,259.5,129.4,262.7,126.3z"/>
	<path class="st3" d="M305,256.5c0-26.5-21.5-48-48-48v95.9C283.5,304.5,305,283,305,256.5z"/>
	<g>
		<path class="st3" d="M273,256.5c0,8.8-7.2,16-16,16c-8.8,0-16-7.2-16-16c0-8.8,7.2-16,16-16C265.8,240.5,273,247.7,273,256.5z"/>
	</g>
	<path class="st0" d="M257,248.5c7.4,0,13.6,5.1,15.4,12c0.3-1.3,0.6-2.6,0.6-4c0-8.8-7.2-16-16-16c-8.8,0-16,7.2-16,16
		c0,1.4,0.2,2.7,0.6,4C243.4,253.7,249.6,248.5,257,248.5z"/>
	<path class="st3" d="M448.9,272.5h48c8.8,0,16-7.2,16-16h-79.9C432.9,265.4,440,272.5,448.9,272.5z"/>
	<path class="st3" d="M17.2,272.5h48c8.8,0,16-7.2,16-16H1.2C1.2,265.4,8.4,272.5,17.2,272.5z"/>
	<path class="st3" d="M273,64.7v-48c0-8.8-7.2-16-16-16v79.9C265.9,80.7,273,73.5,273,64.7z"/>
	<path class="st3" d="M273,496.4v-48c0-8.8-7.2-16-16-16v79.9C265.9,512.4,273,505.2,273,496.4z"/>
	<path class="st3" d="M404,132.2l33.9-33.9c6.2-6.2,6.2-16.4,0-22.6l-56.5,56.5C387.6,138.4,397.7,138.4,404,132.2z"/>
	<path class="st3" d="M98.7,437.4l33.9-33.9c6.2-6.2,6.2-16.4,0-22.6l-56.5,56.5C82.4,443.7,92.5,443.7,98.7,437.4z"/>
	<path class="st3" d="M381.4,403.5l33.9,33.9c6.2,6.2,16.4,6.2,22.6,0l-56.5-56.5C375.1,387.1,375.1,397.3,381.4,403.5z"/>
	<path class="st3" d="M76.1,98.3l33.9,33.9c6.2,6.2,16.4,6.2,22.6,0L76.1,75.7C69.9,81.9,69.9,92,76.1,98.3z"/>
</g>
</svg>
