<?xml version="1.0" encoding="utf-8"?>
<!-- Generator: Adobe Illustrator 21.0.2, SVG Export Plug-In . SVG Version: 6.00 Build 0)  -->
<svg version="1.1" id="Layer_1" xmlns="http://www.w3.org/2000/svg" xmlns:xlink="http://www.w3.org/1999/xlink" x="0px" y="0px"
	 viewBox="0 0 512 512" style="enable-background:new 0 0 512 512;" xml:space="preserve">
<style type="text/css">
	.st0{fill:#8A5428;}
	.st1{fill:#7D4B22;}
	.st2{fill:#E2E4E6;}
	.st3{fill:#C9D1D7;}
	.st4{fill:#F6B74E;}
	.st5{fill:#D89C44;}
</style>
<g>
	<path class="st0" d="M382,52.2H131.1c-8.7,0-15.7-7-15.7-15.7V20.8c0-8.7,7-15.7,15.7-15.7H382c8.7,0,15.7,7,15.7,15.7v15.7
		C397.7,45.2,390.7,52.2,382,52.2z"/>
	<path class="st1" d="M131.1,52.2H382c8.7,0,15.7-7,15.7-15.7V20.8c0-8.7-7-15.7-15.7-15.7H256.6v15.7c0,8.7-7,15.7-15.7,15.7H115.4
		C115.4,45.2,122.5,52.2,131.1,52.2z"/>
	<path class="st0" d="M382,506.9H131.1c-8.7,0-15.7-7-15.7-15.7v-15.7c0-8.7,7-15.7,15.7-15.7H382c8.7,0,15.7,7,15.7,15.7v15.7
		C397.7,499.9,390.7,506.9,382,506.9z"/>
	<path class="st1" d="M131.1,506.9H382c8.7,0,15.7-7,15.7-15.7v-15.7c0-8.7-7-15.7-15.7-15.7H256.6v15.7c0,8.7-7,15.7-15.7,15.7
		H115.4C115.4,499.9,122.5,506.9,131.1,506.9z"/>
	<path class="st2" d="M366.3,52.2H146.8v110.6c0,9.4,4.2,18.3,11.5,24.3l68.7,56.2c3.8,3.1,6.1,7.8,6.1,12.8v0c0,5-2.2,9.7-6.1,12.8
		L158.3,325c-7.3,6-11.5,14.9-11.5,24.3v110.6h219.5V349.3c0-9.4-4.2-18.3-11.5-24.3l-68.7-56.2c-3.8-3.1-6.1-7.8-6.1-12.8v0
		c0-5,2.2-9.7,6.1-12.8l68.7-56.2c7.3-6,11.5-14.9,11.5-24.3V52.2z"/>
	<path class="st3" d="M286.2,243.2c-3.8,3.1-6.1,7.8-6.1,12.8v0h-23.5v-25.3c0-14.2,3.9-28.2,11.2-40.3l1.2-2
		c7.3-12.2,11.2-26.1,11.2-40.3V52.2h86.2v110.6c0,9.4-4.2,18.3-11.5,24.3L286.2,243.2z"/>
	<path class="st4" d="M350.6,347.9v96.3H162.5v-96.3c0-3.4,2.2-6.4,5.4-7.4l78.8-26.3c6.4-2.1,13.4-2.1,19.8,0l78.8,26.3
		C348.5,341.6,350.6,344.6,350.6,347.9z"/>
	<path class="st4" d="M162.5,166.1v-27.7h188.2v27.7c0,2.3-1,4.5-2.8,6l-91.3,76.1l-91.3-76.1C163.5,170.7,162.5,168.4,162.5,166.1z
		"/>
	<path class="st3" d="M280.1,256c0-5,2.2-9.7,6.1-12.8l68.7-56.2c7.3-6,11.5-14.9,11.5-24.3V52.2h-86.2v95.9
		c0,14.2-3.9,28.2-11.2,40.3l-1.2,2c-7.3,12.2-11.2,26.1-11.2,40.3V256v25.3c0,14.2,3.9,28.2,11.2,40.3l1.2,2
		c7.3,12.2,11.2,26.1,11.2,40.3v95.9h86.2V349.3c0-9.4-4.2-18.3-11.5-24.3l-68.7-56.2C282.3,265.7,280.1,261,280.1,256L280.1,256
		L280.1,256z"/>
	<path class="st5" d="M350.6,444.2v-96.3c0-3.4-2.2-6.4-5.4-7.4l-78.8-26.3c-1-0.3-2-0.5-2.9-0.7c1.3,2.8,2.6,5.6,4.2,8.2l1.2,2
		c7.3,12.2,11.2,26.1,11.2,40.3v80.2H350.6z"/>
	<path class="st4" d="M162.5,138.4v27.7c0,2.3,1,4.5,2.8,6l77.8,64.8c3.6,3,5.6,7.4,5.6,12v14.9c0,4.3,3.5,7.8,7.8,7.8
		c4.3,0,7.8-3.5,7.8-7.8V249c0-4.7,2.1-9.1,5.6-12l77.8-64.8c1.8-1.5,2.8-3.7,2.8-6v-27.7H162.5z"/>
	<path class="st5" d="M347.8,172.1c1.8-1.5,2.8-3.7,2.8-6v-27.7h-70.6v9.6c0,14.2-3.9,28.2-11.2,40.3l-1.2,2
		c-7.3,12.2-11.2,26.1-11.2,40.3V256v15.7c4.3,0,7.8-3.5,7.8-7.8V249c0-4.7,2.1-9.1,5.6-12L347.8,172.1z"/>
	<circle class="st4" cx="256.6" cy="287.4" r="7.8"/>
	<path class="st5" d="M264.4,287.4c0-4.3-3.5-7.8-7.8-7.8v15.7C260.9,295.2,264.4,291.7,264.4,287.4z"/>
</g>
</svg>
