<?xml version="1.0" encoding="utf-8"?>
<!-- Generator: Adobe Illustrator 21.0.2, SVG Export Plug-In . SVG Version: 6.00 Build 0)  -->
<svg version="1.1" id="Layer_1" xmlns="http://www.w3.org/2000/svg" xmlns:xlink="http://www.w3.org/1999/xlink" x="0px" y="0px"
	 viewBox="0 0 512 512" style="enable-background:new 0 0 512 512;" xml:space="preserve">
<style type="text/css">
	.st0{fill:#71C8F0;}
	.st1{fill:#4DBEED;}
	.st2{fill:#5DA8DC;}
	.st3{fill:#DA5742;}
	.st4{fill:#FCB833;}
	.st5{fill:#009866;}
	.st6{fill:#F79838;}
	.st7{fill:#EE3A39;}
	.st8{fill:#009949;}
</style>
<g>
	<path class="st0" d="M426.2,231.9c-0.9-6.4-2.1-12.7-3.7-18.8c-7.9-31.2-24.1-59.1-46.1-81.2c-24.3,5.5-53.3,15.2-86.6,29.9
		l-6.3-14.3c25.8-11.4,53.2-21.4,78.9-28.2c-13.2-10.7-28-19.5-44-26.1c-5.9-2.4-12-4.5-18.2-6.3c-15.5-4.4-31.8-6.8-48.6-6.8
		c-14.9,0-29.3,1.9-43.1,5.3c-9.4,29.5-16.7,68-20.2,112.9c7.9-4.9,15.9-9.8,23.9-14.4c7.7-4.4,15.4-8.7,23-12.8l7.4,13.8
		c-7.5,4-15,8.2-22.5,12.5c-11.5,6.6-22.5,13.4-33,20.2c-0.6,12.6-1.1,25.4-1.1,38.8c0,46.8,4.2,92,12.1,131l-15.4,3.1
		c-8.2-39.9-12.4-86.3-12.4-134.1c0-9.3,0.2-18.7,0.6-28c-38,26.1-68.2,52.3-89.1,75.6c8.3,29.9,24.3,56.6,45.8,77.8
		c4.5,4.5,9.3,8.7,14.3,12.7c30.1,24,68.2,38.3,109.7,38.3c16.9,0,33.2-2.5,48.7-6.9c6.2-1.8,12.3-3.9,18.2-6.3
		c51.2-21,90.4-65.3,104.1-119.8c1.6-6.2,2.8-12.4,3.6-18.8c1.1-8,1.7-16.1,1.7-24.4C428,248,427.3,239.9,426.2,231.9z"/>
	<path class="st1" d="M369.2,134.7c22,22.1,38.3,50,46.1,81.2c1.6,6.2,2.8,12.4,3.7,18.8c1.1,8,1.8,16.1,1.8,24.4
		c0,8.3-0.6,16.5-1.7,24.4c-0.9,6.4-2.1,12.7-3.6,18.8c-13.7,54.5-52.9,98.8-104.1,119.8c-5.9,2.4-12,4.6-18.2,6.3
		c-15.5,4.4-31.8,6.9-48.7,6.9c0,0,94.4-38.9,117.2-113.9C401.4,190.9,369.2,134.7,369.2,134.7z"/>
	<path class="st2" d="M77.7,227.3c-1.6,9.4-2.4,19.1-2.4,29c0,9.8,0.8,19.4,2.4,28.7c9.2-9.5,19.6-19.2,30.8-28.8
		C97.2,246.6,86.9,236.9,77.7,227.3z"/>
	<path class="st2" d="M120.7,246.1c15.9-12.8,33.2-25.4,51.2-37.3c2.7-42.5,8.8-83.7,18.4-117.8c-17.6,6.5-33.8,15.8-48.2,27.3
		c-5,4-9.8,8.3-14.3,12.7c-21.5,21.3-37.5,48-45.9,77.9c0.8,0.9,1.6,1.8,2.4,2.7C94.8,223,107.1,234.6,120.7,246.1z"/>
	<path class="st3" d="M186.1,256.3c0-70.1,9.2-129.5,22.4-171c12.9-40.5,29.7-64.1,45.6-64.1c16.1,0,33.3,24.8,46.2,65.6
		c6.2,1.8,12.3,3.9,18.2,6.3c-15.6-56.5-38.4-87.6-64.3-87.6c-28.3,0-49.7,34.9-63.9,85.5c-13.1,46.8-19.9,106.9-19.9,165.3
		c0,47.8,4.3,94.2,12.4,134.1l15.4-3.1C190.3,348.3,186.1,303.1,186.1,256.3z"/>
	<path class="st3" d="M300.3,425.7c-12.8,40.9-30,65.7-46.2,65.7c-14.5,0-29.9-19.7-42.3-54l-14.7,5.3c15.2,42.1,34.9,64.3,57,64.3
		c25.9,0,48.7-31.2,64.4-87.7C312.6,421.8,306.5,423.9,300.3,425.7z"/>
	<path class="st4" d="M212.3,183.8c-8,4.7-16,9.5-23.9,14.4c-5.5,3.5-11,7-16.4,10.6c-36.1,24-69.3,50.5-94.2,76.3
		c-35.8,37-54.7,72.5-40.7,96.7c7.9,13.7,25.2,20.6,50.3,20.6c15.4,0,33.8-2.7,54.7-8c-5-4-9.8-8.2-14.3-12.7
		c-40.3,8.6-69.3,5.9-77.1-7.8c-7.8-13.6,3.7-39.2,31.3-70c20.9-23.3,51.1-49.5,89.1-75.6c5.3-3.6,10.6-7.2,16.2-10.8
		c10.5-6.8,21.5-13.5,33-20.2c7.5-4.4,15.1-8.5,22.5-12.5l-7.4-13.8C227.6,175.1,220,179.3,212.3,183.8z"/>
	<path class="st4" d="M471.3,130.9c-14.9-25.8-58.9-24.9-108.9-11.7c-25.8,6.8-53.1,16.8-78.9,28.2l6.3,14.3
		c33.2-14.7,62.2-24.3,86.6-29.9c45.1-10.3,73.7-6.3,81.3,6.8c8.2,14.2-5.3,42.2-35.2,74.3c1.6,6.2,2.8,12.4,3.7,18.8
		C468.4,189.5,484.5,153.6,471.3,130.9z"/>
	<path class="st5" d="M426.3,280.8c-0.9,6.4-2.1,12.7-3.6,18.8c26.4,28.3,39.9,52.9,37.2,68.5l15.4,2.7
		C480.2,342.2,451.7,306.3,426.3,280.8z"/>
	<circle class="st6" cx="262.8" cy="166.1" r="33.3"/>
	<path class="st7" d="M229.6,414.8c0,18.4-14.9,33.3-33.3,33.3c-18.4,0-33.3-14.9-33.3-33.3c0-18.4,14.9-33.3,33.3-33.3
		C214.7,381.4,229.6,396.4,229.6,414.8z"/>
	<path class="st8" d="M482,388.2c0,18.4-14.9,33.3-33.3,33.3c-18.4,0-33.3-14.9-33.3-33.3c0-18.4,14.9-33.3,33.3-33.3
		C467.1,354.9,482,369.8,482,388.2z"/>
	<path class="st8" d="M421.2,386.6c-47.9,0-124.7-27.2-201.1-71.4c-37.4-21.6-71.3-45.3-99.4-69.2c-13.6-11.6-26-23.2-36.4-34.5
		c-0.8-0.9-1.6-1.8-2.4-2.7c-27.4-30.5-39.2-56.6-31.4-70.2c7.9-13.7,36.9-16.4,77.2-7.8c4.5-4.5,9.3-8.8,14.3-12.7
		c-55.1-13.8-92.4-9.4-105.1,12.7c-12.2,21.1,0.2,52.6,35.8,91.3c1.6,1.7,3.3,3.4,5,5.1c9.2,9.6,19.5,19.3,30.8,29
		c29.2,25.1,64.7,50,103.8,72.6c78.7,45.4,158.5,73.5,209,73.5c0.6,0,1.1,0,1.7,0l-0.2-15.7C422.3,386.6,421.7,386.6,421.2,386.6z"
		/>
</g>
</svg>
