<?xml version="1.0" encoding="utf-8"?>
<!-- Generator: Adobe Illustrator 21.0.2, SVG Export Plug-In . SVG Version: 6.00 Build 0)  -->
<svg version="1.1" id="Layer_1" xmlns="http://www.w3.org/2000/svg" xmlns:xlink="http://www.w3.org/1999/xlink" x="0px" y="0px"
	 viewBox="0 0 512 512" style="enable-background:new 0 0 512 512;" xml:space="preserve">
<style type="text/css">
	.st0{fill:#D2453C;}
	.st1{fill:#BB3D34;}
	.st2{fill:#F05B4E;}
	.st3{fill:#A9362E;}
	.st4{fill:#7D4B22;}
	.st5{fill:#8FC560;}
	.st6{fill:#73AE43;}
</style>
<g>
	<path class="st0" d="M256.3,335.3c-47.6,0-86.3,38.7-86.3,86.3s38.7,86.3,86.3,86.3c47.6,0,86.3-38.7,86.3-86.3
		S303.9,335.3,256.3,335.3z"/>
	<path class="st1" d="M304.4,350c9.3,13.8,14.7,30.3,14.7,48.1c0,47.6-38.7,86.3-86.3,86.3c-17.8,0-34.4-5.4-48.1-14.7
		c15.5,23,41.8,38.2,71.7,38.2c47.6,0,86.3-38.7,86.3-86.3C342.7,391.8,327.5,365.5,304.4,350z"/>
	<g>
		<path class="st2" d="M201.4,429.5c-4.3,0-7.8-3.5-7.8-7.8c0-34.6,28.2-62.8,62.8-62.8c4.3,0,7.8,3.5,7.8,7.8s-3.5,7.8-7.8,7.8
			c-26,0-47.1,21.1-47.1,47.1C209.2,426,205.7,429.5,201.4,429.5z"/>
	</g>
	<path class="st3" d="M193.5,413.8c24.7,0,47-10.5,62.8-27.3c15.8,16.7,38,27.3,62.8,27.3c7.9,0,15.5-1.2,22.8-3.1
		c-5.4-42.4-41.7-75.3-85.6-75.3c-43.9,0-80.1,32.9-85.6,75.3C178,412.6,185.7,413.8,193.5,413.8z"/>
	<path class="st1" d="M264.2,366.7c0-4.3-3.5-7.8-7.8-7.8c-32,0-58.4,24-62.2,54.9c5.5,0,10.9-0.6,16.1-1.7
		c4.4-21.4,23.4-37.6,46.1-37.6C260.7,374.5,264.2,371,264.2,366.7z"/>
	<path class="st0" d="M193.5,225.4c-47.6,0-86.3,38.7-86.3,86.3s38.7,86.3,86.3,86.3c47.6,0,86.3-38.7,86.3-86.3
		S241.2,225.4,193.5,225.4z"/>
	<path class="st0" d="M319.1,225.4c-47.6,0-86.3,38.7-86.3,86.3s38.7,86.3,86.3,86.3c47.6,0,86.3-38.7,86.3-86.3
		S366.7,225.4,319.1,225.4z"/>
	<path class="st1" d="M367.2,240.1c9.3,13.8,14.7,30.3,14.7,48.1c0,47.6-38.7,86.3-86.3,86.3c-17.8,0-34.4-5.4-48.1-14.7
		c15.5,23,41.8,38.2,71.7,38.2c47.6,0,86.3-38.7,86.3-86.3C405.5,281.9,390.3,255.6,367.2,240.1z"/>
	<path class="st1" d="M241.7,240.1c9.3,13.8,14.7,30.3,14.7,48.1c0,47.6-38.7,86.3-86.3,86.3c-17.8,0-34.4-5.4-48.1-14.7
		c15.5,23,41.8,38.2,71.7,38.2c47.6,0,86.3-38.7,86.3-86.3C279.9,281.9,264.7,255.6,241.7,240.1z"/>
	<path class="st3" d="M130.7,303.9c24.7,0,47-10.5,62.8-27.3c15.8,16.7,38,27.3,62.8,27.3c7.9,0,15.5-1.2,22.8-3.1
		c-5.4-42.4-41.7-75.3-85.6-75.3c-43.9,0-80.1,32.9-85.6,75.3C115.2,302.7,122.9,303.9,130.7,303.9z"/>
	<path class="st3" d="M256.3,303.9c24.7,0,47-10.5,62.8-27.3c15.8,16.7,38,27.3,62.8,27.3c7.9,0,15.5-1.2,22.8-3.1
		c-5.4-42.4-41.7-75.3-85.6-75.3c-43.9,0-80.1,32.9-85.6,75.3C240.8,302.7,248.4,303.9,256.3,303.9z"/>
	<path class="st2" d="M144.6,272.5c-8.6,10.8-13.9,24.4-13.9,39.2c0,4.3,3.5,7.8,7.8,7.8c4.3,0,7.8-3.5,7.8-7.8
		c0-16.4,8.4-30.8,21.1-39.2H144.6z"/>
	<path class="st1" d="M131.3,303.9c5.5,0,11-0.6,16.2-1.7c2.6-12.3,9.9-22.9,20.1-29.7h-23C137.5,281.3,132.8,292.1,131.3,303.9z"/>
	<path class="st2" d="M270.2,272.5c-8.6,10.8-13.9,24.4-13.9,39.2c0,4.3,3.5,7.8,7.8,7.8c4.3,0,7.8-3.5,7.8-7.8
		c0-16.4,8.4-30.8,21.1-39.2H270.2z"/>
	<path class="st1" d="M256.9,303.9c5.5,0,11-0.6,16.2-1.7c2.6-12.3,9.9-22.9,20.1-29.7h-23C263.1,281.3,258.4,292.1,256.9,303.9z"/>
	<g>
		<path class="st4" d="M264.2,194c-8.7,0-15.7-7-15.7-15.7c0-110.1,58.1-154.4,69.8-162.2c7.2-4.8,17-2.9,21.8,4.4
			c4.8,7.2,2.9,17-4.4,21.8c-5.7,3.8-55.8,40-55.8,136.1C279.9,187,272.9,194,264.2,194z"/>
	</g>
	<path class="st5" d="M284.2,35c-15.1-18.7-36.8-29.4-59.3-29.4S180.8,16.3,165.7,35c-4.7,5.8-4.7,14,0,19.8
		c15.1,18.7,36.8,29.4,59.3,29.4s44.1-10.7,59.3-29.4C288.9,49,288.9,40.7,284.2,35z"/>
	<path class="st6" d="M224.9,84.1c22.5,0,44.1-10.7,59.3-29.4c2.3-2.9,3.5-6.4,3.5-9.9H162.1c0,3.5,1.2,7,3.5,9.9
		C180.8,73.4,202.4,84.1,224.9,84.1z"/>
	<path class="st0" d="M381.9,115.5c-47.6,0-86.3,38.7-86.3,86.3s38.7,86.3,86.3,86.3c47.6,0,86.3-38.7,86.3-86.3
		S429.5,115.5,381.9,115.5z"/>
	<path class="st1" d="M430,130.2c9.3,13.8,14.7,30.3,14.7,48.1c0,47.6-38.7,86.3-86.3,86.3c-17.8,0-34.4-5.4-48.1-14.7
		c15.5,23,41.8,38.2,71.7,38.2c47.6,0,86.3-38.7,86.3-86.3C468.3,172,453.1,145.7,430,130.2z"/>
	<g>
		<path class="st2" d="M327,209.7c-4.3,0-7.8-3.5-7.8-7.8c0-34.6,28.2-62.8,62.8-62.8c4.3,0,7.8,3.5,7.8,7.8c0,4.3-3.5,7.8-7.8,7.8
			c-26,0-47.1,21.1-47.1,47.1C334.8,206.2,331.3,209.7,327,209.7z"/>
	</g>
	<path class="st0" d="M256.3,115.5c-47.6,0-86.3,38.7-86.3,86.3s38.7,86.3,86.3,86.3c47.6,0,86.3-38.7,86.3-86.3
		S303.9,115.5,256.3,115.5z"/>
	<path class="st0" d="M130.7,115.5c-47.6,0-86.3,38.7-86.3,86.3s38.7,86.3,86.3,86.3c47.6,0,86.3-38.7,86.3-86.3
		S178.4,115.5,130.7,115.5z"/>
	<path class="st1" d="M304.4,130.2c9.3,13.8,14.7,30.3,14.7,48.1c0,47.6-38.7,86.3-86.3,86.3c-17.8,0-34.4-5.4-48.1-14.7
		c15.5,23,41.8,38.2,71.7,38.2c47.6,0,86.3-38.7,86.3-86.3C342.7,172,327.5,145.7,304.4,130.2z"/>
	<g>
		<path class="st2" d="M75.8,209.7c-4.3,0-7.8-3.5-7.8-7.8c0-34.6,28.2-62.8,62.8-62.8c4.3,0,7.8,3.5,7.8,7.8c0,4.3-3.5,7.8-7.8,7.8
			c-26,0-47.1,21.1-47.1,47.1C83.7,206.2,80.1,209.7,75.8,209.7z"/>
	</g>
	<g>
		<path class="st2" d="M201.4,209.7c-4.3,0-7.8-3.5-7.8-7.8c0-34.6,28.2-62.8,62.8-62.8c4.3,0,7.8,3.5,7.8,7.8
			c0,4.3-3.5,7.8-7.8,7.8c-26,0-47.1,21.1-47.1,47.1C209.2,206.2,205.7,209.7,201.4,209.7z"/>
	</g>
	<path class="st1" d="M178.9,130.2c9.3,13.8,14.7,30.3,14.7,48.1c0,47.6-38.7,86.3-86.3,86.3c-17.8,0-34.4-5.4-48.1-14.7
		c15.5,23,41.8,38.2,71.7,38.2c47.6,0,86.3-38.7,86.3-86.3C217.1,172,201.9,145.7,178.9,130.2z"/>
</g>
</svg>
