<?xml version="1.0" encoding="utf-8"?>
<!-- Generator: Adobe Illustrator 21.0.2, SVG Export Plug-In . SVG Version: 6.00 Build 0)  -->
<svg version="1.1" id="Layer_1" xmlns="http://www.w3.org/2000/svg" xmlns:xlink="http://www.w3.org/1999/xlink" x="0px" y="0px"
	 viewBox="0 0 512 512" style="enable-background:new 0 0 512 512;" xml:space="preserve">
<style type="text/css">
	.st0{fill:#E2E4E6;}
	.st1{fill:#35495C;}
</style>
<g>
	<g>
		<path class="st0" d="M77.5,232.8C88,152.1,152.1,88,232.9,77.4V45.7c-98.1,10.9-176.2,89-187.1,187.1H77.5z"/>
		<path class="st0" d="M280,77.4c80.8,10.6,144.9,74.7,155.4,155.4h31.7c-10.9-98.1-89-176.2-187.1-187.1V77.4z"/>
		<path class="st0" d="M435.5,279.9c-10.6,80.8-74.7,144.9-155.4,155.4V467c98.1-10.9,176.2-89,187.1-187.1H435.5z"/>
		<path class="st0" d="M232.9,435.4C152.1,424.8,88,360.7,77.5,279.9H45.8c10.9,98.1,89,176.2,187.1,187.1V435.4z"/>
	</g>
	<g>
		<path class="st1" d="M295.7,5.1h-78.5c-8.7,0-15.7,7-15.7,15.7v78.5c0,8.7,7,15.7,15.7,15.7h78.5c8.7,0,15.7-7,15.7-15.7V20.8
			C311.4,12.2,304.4,5.1,295.7,5.1z M280,83.6h-47.1V36.5H280V83.6z"/>
		<path class="st1" d="M295.7,397.7h-78.5c-8.7,0-15.7,7-15.7,15.7v78.5c0,8.7,7,15.7,15.7,15.7h78.5c8.7,0,15.7-7,15.7-15.7v-78.5
			C311.4,404.7,304.4,397.7,295.7,397.7z M280,476.2h-47.1v-47.1H280V476.2z"/>
		<path class="st1" d="M492,201.4h-78.5c-8.7,0-15.7,7-15.7,15.7v78.5c0,8.7,7,15.7,15.7,15.7H492c8.7,0,15.7-7,15.7-15.7v-78.5
			C507.7,208.4,500.7,201.4,492,201.4z M476.3,279.9h-47.1v-47.1h47.1V279.9z"/>
		<path class="st1" d="M99.4,201.4H20.9c-8.7,0-15.7,7-15.7,15.7v78.5c0,8.7,7,15.7,15.7,15.7h78.5c8.7,0,15.7-7,15.7-15.7v-78.5
			C115.1,208.4,108.1,201.4,99.4,201.4z M83.7,279.9H36.6v-47.1h47.1V279.9z"/>
	</g>
</g>
</svg>
