<?xml version="1.0" encoding="utf-8"?>
<!-- Generator: Adobe Illustrator 21.0.2, SVG Export Plug-In . SVG Version: 6.00 Build 0)  -->
<svg version="1.1" id="Layer_1" xmlns="http://www.w3.org/2000/svg" xmlns:xlink="http://www.w3.org/1999/xlink" x="0px" y="0px"
	 viewBox="0 0 512 512" style="enable-background:new 0 0 512 512;" xml:space="preserve">
<style type="text/css">
	.st0{fill:#35495C;}
	.st1{fill:#425A70;}
	.st2{fill:#E2E4E6;}
	.st3{fill:#C9D1D7;}
	.st4{fill:#F05642;}
	.st5{fill:#83BD5A;}
</style>
<g>
	<path class="st0" d="M505.3,474.3c0,17.1-14,31.2-31.2,31.2H38c-17.1,0-31.2-14-31.2-31.2V38.1C6.9,21,20.9,7,38,7h436.1
		c17.1,0,31.2,14,31.2,31.2V474.3z"/>
	<g>
		<rect x="6.9" y="302.9" class="st1" width="498.4" height="15.6"/>
	</g>
	<g>
		<rect x="6.9" y="412" class="st1" width="498.4" height="15.6"/>
	</g>
	<g>
		<rect x="6.9" y="193.9" class="st1" width="498.4" height="15.6"/>
	</g>
	<g>
		<rect x="6.9" y="84.9" class="st1" width="498.4" height="15.6"/>
	</g>
	<polygon class="st2" points="505.3,154.5 505.3,109.4 351.4,270.6 258,137.3 260.7,130.5 250.6,126.6 244.3,117.7 238.4,121.8 
		231.7,119.2 227.7,129.3 218.8,135.6 223,141.5 125.1,393.3 6.9,289 6.9,330.6 113,424.2 111.3,428.6 123.3,433.3 132.9,441.7 
		136,438.2 140.4,439.9 145,428 153.5,418.4 149.9,415.3 244.5,172.2 329.5,293.6 327.5,295.6 337.7,305.4 345.7,316.8 348,315.2 
		350.1,317.2 359.8,307 371.2,299 369.6,296.7 	"/>
	<g>
		<path class="st3" d="M131.5,388.6c9.8,0,18.5,4.7,24.2,11.8l3.2-8.3c-7-7-16.7-11.3-27.4-11.3c-0.6,0-1.1,0.1-1.6,0.2l-3.1,8.1
			C128.3,388.8,129.9,388.6,131.5,388.6z"/>
		<path class="st3" d="M121.7,390.3l-6.6-5.8c-9.8,4.6-17.2,13-20.5,23.4l6.4,5.6C103.2,402.6,111.2,393.8,121.7,390.3z"/>
	</g>
	<circle class="st4" cx="131.5" cy="419.7" r="31.2"/>
	<g>
		<path class="st3" d="M379.3,286.5l6.1-6.4c-4.2-10-12.4-17.7-22.6-21.4l-6,6.3C367.7,267.6,376.2,275.8,379.3,286.5z"/>
		<path class="st3" d="M346.9,264.3l-5.1-7.3c-10.8,2.2-19.9,8.9-25.4,18l5,7.1C326,272.2,335.6,265.2,346.9,264.3z"/>
	</g>
	<circle class="st4" cx="349.5" cy="295.1" r="31.2"/>
	<path class="st3" d="M268.7,152.5c-5,10.6-15.7,18.1-28.2,18.1c-9.8,0-18.5-4.7-24.2-11.8l-3.2,8.3c7,7,16.7,11.3,27.4,11.3
		c0.6,0,1.1-0.1,1.6-0.2l2.3-6l3.7,5.4c10.8-2.2,19.9-8.9,25.4-18L268.7,152.5z"/>
	<circle class="st5" cx="240.5" cy="139.4" r="31.2"/>
</g>
</svg>
