<?xml version="1.0" encoding="utf-8"?>
<!-- Generator: Adobe Illustrator 21.0.2, SVG Export Plug-In . SVG Version: 6.00 Build 0)  -->
<svg version="1.1" id="Layer_1" xmlns="http://www.w3.org/2000/svg" xmlns:xlink="http://www.w3.org/1999/xlink" x="0px" y="0px"
	 viewBox="0 0 512 512" style="enable-background:new 0 0 512 512;" xml:space="preserve">
<style type="text/css">
	.st0{fill:#35495C;}
	.st1{fill:#113247;}
	.st2{fill:#F05642;}
	.st3{fill:#FAAB43;}
	.st4{fill:#F69120;}
	.st5{fill:#D2463C;}
</style>
<g>
	<path class="st0" d="M460.9,364.7v-80.9c0-26.1-21.2-47.3-47.3-47.3H271.7v-88.8c27.2-7,47.3-31.7,47.3-61
		c0-34.8-28.3-63.1-63.1-63.1s-63.1,28.3-63.1,63.1c0,29.3,20.2,54,47.3,61v88.8H98.2c-26.1,0-47.3,21.2-47.3,47.3v80.9
		c-27.2,7-47.3,31.7-47.3,61c0,34.8,28.3,63.1,63.1,63.1s63.1-28.3,63.1-63.1c0-29.3-20.2-54-47.3-61v-80.9
		c0-8.7,7.1-15.8,15.8-15.8h141.9v96.7c-27.2,7-47.3,31.7-47.3,61c0,34.8,28.3,63.1,63.1,63.1s63.1-28.3,63.1-63.1
		c0-29.3-20.2-54-47.3-61V268h141.9c8.7,0,15.8,7.1,15.8,15.8v80.9c-27.2,7-47.3,31.7-47.3,61c0,34.8,28.3,63.1,63.1,63.1
		s63.1-28.3,63.1-63.1C508.2,396.4,488.1,371.8,460.9,364.7z M224.4,86.7c0-17.4,14.1-31.5,31.5-31.5c17.4,0,31.5,14.1,31.5,31.5
		s-14.1,31.5-31.5,31.5C238.5,118.2,224.4,104.1,224.4,86.7z M98.2,425.7c0,17.4-14.1,31.5-31.5,31.5s-31.5-14.1-31.5-31.5
		c0-17.4,14.1-31.5,31.5-31.5S98.2,408.3,98.2,425.7z M287.4,425.7c0,17.4-14.1,31.5-31.5,31.5c-17.4,0-31.5-14.1-31.5-31.5
		c0-17.4,14.1-31.5,31.5-31.5C273.3,394.2,287.4,408.3,287.4,425.7z M445.1,457.3c-17.4,0-31.5-14.1-31.5-31.5
		c0-17.4,14.1-31.5,31.5-31.5c17.4,0,31.5,14.1,31.5,31.5C476.7,443.1,462.5,457.3,445.1,457.3z"/>
	<path class="st1" d="M300.5,470.3c24.6-24.6,24.6-64.6,0-89.2l-89.2,89.2C235.9,495,275.9,495,300.5,470.3z"/>
	<path class="st1" d="M489.8,470.3c24.6-24.6,24.6-64.6,0-89.2l-89.2,89.2C425.2,495,465.1,495,489.8,470.3z"/>
	<path class="st1" d="M111.3,470.3c24.6-24.6,24.6-64.6,0-89.2l-89.2,89.2C46.7,495,86.6,495,111.3,470.3z"/>
	<path class="st1" d="M300.5,131.3c24.6-24.6,24.6-64.6,0-89.2l-89.2,89.2C235.9,155.9,275.9,155.9,300.5,131.3z"/>
	<path class="st2" d="M224.4,86.7c0-17.4,14.1-31.5,31.5-31.5c17.4,0,31.5,14.1,31.5,31.5s-14.1,31.5-31.5,31.5
		C238.5,118.2,224.4,104.1,224.4,86.7z"/>
	<path class="st3" d="M287.4,425.7c0,17.4-14.1,31.5-31.5,31.5c-17.4,0-31.5-14.1-31.5-31.5c0-17.4,14.1-31.5,31.5-31.5
		C273.3,394.2,287.4,408.3,287.4,425.7z"/>
	<path class="st4" d="M273.9,399.9c3.6,5.1,5.7,11.3,5.7,18c0,17.4-14.1,31.5-31.5,31.5c-6.7,0-12.9-2.1-18-5.7
		c5.7,8.2,15.1,13.6,25.9,13.6c17.4,0,31.5-14.1,31.5-31.5C287.4,415,282.1,405.6,273.9,399.9z"/>
	<path class="st5" d="M273.9,60.8c3.6,5.1,5.7,11.3,5.7,18c0,17.4-14.1,31.5-31.5,31.5c-6.7,0-12.9-2.1-18-5.7
		c5.7,8.2,15.1,13.6,25.9,13.6c17.4,0,31.5-14.1,31.5-31.5C287.4,76,282.1,66.5,273.9,60.8z"/>
	<path class="st3" d="M476.7,425.7c0,17.4-14.1,31.5-31.5,31.5c-17.4,0-31.5-14.1-31.5-31.5c0-17.4,14.1-31.5,31.5-31.5
		C462.5,394.2,476.7,408.3,476.7,425.7z"/>
	<path class="st4" d="M463.1,399.9c3.6,5.1,5.7,11.3,5.7,18c0,17.4-14.1,31.5-31.5,31.5c-6.7,0-12.9-2.1-18-5.7
		c5.7,8.2,15.1,13.6,25.9,13.6c17.4,0,31.5-14.1,31.5-31.5C476.7,415,471.3,405.6,463.1,399.9z"/>
	<path class="st3" d="M98.2,425.7c0,17.4-14.1,31.5-31.5,31.5s-31.5-14.1-31.5-31.5c0-17.4,14.1-31.5,31.5-31.5
		S98.2,408.3,98.2,425.7z"/>
	<path class="st4" d="M84.6,399.9c3.6,5.1,5.7,11.3,5.7,18c0,17.4-14.1,31.5-31.5,31.5c-6.7,0-12.9-2.1-18-5.7
		c5.7,8.2,15.1,13.6,25.9,13.6c17.4,0,31.5-14.1,31.5-31.5C98.2,415,92.8,405.6,84.6,399.9z"/>
</g>
</svg>
