<?xml version="1.0" encoding="utf-8"?>
<!-- Generator: Adobe Illustrator 21.0.2, SVG Export Plug-In . SVG Version: 6.00 Build 0)  -->
<svg version="1.1" id="Capa_1" xmlns="http://www.w3.org/2000/svg" xmlns:xlink="http://www.w3.org/1999/xlink" x="0px" y="0px"
	 viewBox="0 0 512 512" style="enable-background:new 0 0 512 512;" xml:space="preserve">
<style type="text/css">
	.st0{fill:#576D7E;}
	.st1{fill:#35495C;}
	.st2{fill:#83BD5A;}
	.st3{fill:#6FA04E;}
	.st4{fill:#113247;}
</style>
<g>
	<path class="st0" d="M429.3,319.8H82.7c-26.1,0-47.3,21.2-47.3,47.3v47.3c0,26.1,21.2,47.3,47.3,47.3h346.6
		c26.1,0,47.3-21.2,47.3-47.3V367C476.6,341,455.4,319.8,429.3,319.8z"/>
	<path class="st1" d="M334.8,319.8v-31.5c0-8.7-7.1-15.8-15.8-15.8H193c-8.7,0-15.8,7.1-15.8,15.8v31.5H334.8z"/>
	<path class="st2" d="M208.8,181v91.5h94.5V181c29-16.7,47.3-47.8,47.3-81.8c0-52.1-42.4-94.5-94.5-94.5
		c-52.1,0-94.5,42.4-94.5,94.5C161.5,133.2,179.7,164.3,208.8,181z"/>
	<path class="st1" d="M82.7,461.5c0,26.1,21.2,47.3,47.3,47.3h252c26.1,0,47.3-21.2,47.3-47.3H82.7z"/>
	<path class="st3" d="M263.9,181H256h-47.3v4.8l31.1,10.4c9.6,3.2,16.2,12.2,16.2,22.4V241c0,8.7-7.1,15.8-15.8,15.8h-31.5v15.8
		h94.5v-15.8V181H263.9z"/>
	<path class="st4" d="M82.7,461.5c0,5.5,1,10.8,2.8,15.8h154.8c8.7,0,15.8,7.1,15.8,15.8v15.8h126c20.5,0,38-13.2,44.5-31.5h0
		c1.7-4.9,2.8-10.2,2.8-15.8H82.7z"/>
	<path class="st1" d="M256,351.3V430c0,8.7-7.1,15.8-15.8,15.8H47.6c8.7,9.6,21.2,15.8,35.1,15.8H256h173.3
		c26.1,0,47.3-21.2,47.3-47.3V367c0-12.1-4.6-23.1-12.1-31.5H271.8C263.1,335.5,256,342.6,256,351.3z"/>
	<path class="st4" d="M263.9,288.3V304c0,4.4-3.5,7.9-7.9,7.9h-78.8v7.9h86.6h70.9v-31.5c0-2.9-0.8-5.6-2.2-7.9h-60.8
		C267.4,280.4,263.9,283.9,263.9,288.3z"/>
	<path class="st3" d="M309.9,21.7c10.7,15.3,17,33.9,17,53.9c0,52.2-42.3,94.5-94.5,94.5c-20.1,0-38.6-6.3-53.9-17
		c17.1,24.5,45.4,40.6,77.6,40.6c52.2,0,94.5-42.3,94.5-94.5C350.5,67.1,334.5,38.7,309.9,21.7z"/>
</g>
</svg>
