<?xml version="1.0" encoding="utf-8"?>
<!-- Generator: Adobe Illustrator 21.0.2, SVG Export Plug-In . SVG Version: 6.00 Build 0)  -->
<svg version="1.1" id="Layer_1" xmlns="http://www.w3.org/2000/svg" xmlns:xlink="http://www.w3.org/1999/xlink" x="0px" y="0px"
	 viewBox="0 0 512 512" style="enable-background:new 0 0 512 512;" xml:space="preserve">
<style type="text/css">
	.st0{fill:#D89C44;}
	.st1{fill:#009FC4;}
	.st2{fill:#EEC8AD;}
	.st3{fill:#EFCDB0;}
	.st4{fill:#E1B597;}
	.st5{fill:#113247;}
	.st6{fill:#E2E4E6;}
	.st7{fill:#FFFFFF;}
	.st8{fill:#0093B6;}
	.st9{fill:#C9D1D7;}
	.st10{fill:#F05642;}
	.st11{fill:#C58F3E;}
</style>
<g>
	<circle class="st0" cx="338.4" cy="175.9" r="16.5"/>
	<circle class="st0" cx="338.4" cy="200.6" r="16.5"/>
	<circle class="st0" cx="338.4" cy="225.3" r="16.5"/>
	<circle class="st0" cx="338.4" cy="250" r="16.5"/>
	<g>
		<g>
			<path class="st1" d="M404.1,509.5H109.6c-9.6,0-17.3-7.4-17.3-16.5l-0.7-85.8c0-73.3,11.6-114.5,90.8-126.4
				c15.2-2.3,134.9-1.4,147.4,0.8c74,13.4,90.9,54.6,90.9,125.6l0.7,85.8C421.4,502.2,413.7,509.5,404.1,509.5z"/>
		</g>
	</g>
	<path class="st2" d="M297.3,241.8c25.4-9.4,37-38.7,41.1-65.8c3-19.8,5.8-67.7,7.2-95.1l-40.2-20.1L165.6,85.4
		c0.4,7.5,2.9,29.1,3.4,37.1c-6.5,0.5-11.7,8.5-11.7,18.4c0,10.2,5.5,18.5,12.3,18.5c0.7,0,1.5-0.1,2.2-0.3c0.6,6.6,1.3,12.4,2,16.8
		c4.1,27.1,15.7,56.4,41.1,65.8c0,6.3,0,12.9,0,16.5v0c0,9.4-6.7,17.5-16,19.2c-6.4,1.2-13,2.5-16.6,3.5c3.2,38,73.7,84.3,73.7,84.3
		s70.1-45.9,73.7-83.4c-3.7-1.2-10.5-2.8-17.1-4.1c-9-1.9-15.5-9.9-15.5-19.1v-0.3C297.3,254.7,297.3,248.1,297.3,241.8z"/>
	<path class="st3" d="M297.3,241.8c25.4-9.4,37-38.7,41.1-65.8c3-19.8,5.8-67.7,7.2-95.1l-40.2-20.1L165.6,85.4
		c0.4,7.5,2.9,29.1,3.4,37.1c-6.5,0.5-11.7,8.5-11.7,18.4c0,10.2,5.5,18.5,12.3,18.5c0.7,0,1.5-0.1,2.2-0.3c0.6,6.6,1.3,12.4,2,16.8
		c4.1,27.1,15.7,56.4,41.1,65.8c0,6.3,0,12.9,0,16.5v0c0,9.4-6.7,17.5-16,19.2c-6.4,1.2-13,2.5-16.6,3.5c3.2,38,73.7,84.3,73.7,84.3
		s70.1-45.9,73.7-83.4c-3.7-1.2-10.5-2.8-17.1-4.1c-9-1.9-15.5-9.9-15.5-19.1v-0.3C297.3,254.7,297.3,248.1,297.3,241.8z"/>
	<path class="st4" d="M346.9,123.8c-0.9-2.2-1.9-4.5-2.8-6.7c1-5.8,2.5-14.2,2.6-15.2l-1.7-0.3c0.2-4.5,0.5-8.7,0.7-12.5l-81.3-28.3
		l-98.7,32.9c0.3,5.6,1.8,19,2.7,28.8c1.3-7.1,6.1-12.4,13.7-12.4h49.4c4.5,0,8.8-1.2,12.4-3.3c5.4-3.2,12.3,1.3,12.3,7.6v61.6
		h-24.7l24.7,16.5v24.2c0,0.2,0,0.3-0.1,0.5h0.1v15.2c0,10.2,9.2,18,19.2,16.2c-5.3,0.9-11.4,1.5-19.2,1.5
		c-20.2,0-29.1-3.8-41.1-8.2v8.2c7,2.6,12.9,5,20.7,6.5c11.8,2.3,20.4,12.3,20.4,24.3v29.5c0,17.8,18.4,30.2,34.5,22.6
		c21.3-10,36.5-28.9,39.2-51.2c-3.7-1.2-10.6-2.8-17.1-4.1c-9-1.9-15.5-9.9-15.5-19.1v-0.3c0-2,0-4.9,0-8.2c0-2.6,0-5.4,0-8.2
		c25.4-9.4,37-38.7,41.1-65.8c0.7-4.4,1.3-10.2,1.9-16.8c0.7,0.2,1.4,0.3,2.2,0.3c6.8,0,12.3-8.3,12.3-18.5
		C354.9,133.1,351.6,126.4,346.9,123.8z"/>
	<g>
		<circle class="st5" cx="223.2" cy="134.8" r="16.5"/>
	</g>
	<g>
		<circle class="st5" cx="289" cy="134.8" r="16.5"/>
	</g>
	<g>
		<path class="st6" d="M223.2,130.7c0,2.3-1.8,4.1-4.1,4.1c-2.3,0-4.1-1.8-4.1-4.1c0-2.3,1.8-4.1,4.1-4.1
			C221.4,126.6,223.2,128.4,223.2,130.7z"/>
	</g>
	<g>
		<path class="st6" d="M289,130.7c0,2.3-1.8,4.1-4.1,4.1c-2.3,0-4.1-1.8-4.1-4.1c0-2.3,1.8-4.1,4.1-4.1
			C287.2,126.6,289,128.4,289,130.7z"/>
	</g>
	<g>
		<path class="st7" d="M296,194.7c-1.3-1.5-3.4-2.3-5.6-2.3h-68.6c-2.2,0-4.3,0.9-5.6,2.3c-1.3,1.5-1.6,3.3-0.8,5
			c7,15.5,23,25.6,40.7,25.6c17.8,0,33.8-10,40.7-25.6C297.6,198,297.3,196.2,296,194.7z"/>
	</g>
	<path class="st6" d="M290.4,192.4h-68.6c-2.2,0-4.3,0.9-5.6,2.3c-1.3,1.5-1.6,3.3-0.8,5c0.1,0.3,0.3,0.6,0.5,0.9h80.5
		c0.1-0.3,0.3-0.6,0.5-0.9c0.8-1.7,0.4-3.6-0.8-5C294.7,193.3,292.6,192.4,290.4,192.4z"/>
	<path class="st8" d="M329.8,281.7c-3.6,37.6-73.7,83.4-73.7,83.4v107c0,9.1-6.6,21-15.7,21H92.3c0,9.1,7.8,16.5,17.3,16.5h294.5
		c9.6,0,17.3-7.4,17.3-16.5l-0.7-85.8C420.7,336.3,403.9,295.2,329.8,281.7z"/>
	<g>
		<circle class="st6" cx="256.1" cy="389.9" r="16.5"/>
	</g>
	<g>
		<circle class="st6" cx="256.1" cy="439.2" r="16.5"/>
	</g>
	<path class="st9" d="M262.9,424.2c0.9,2.1,1.5,4.3,1.5,6.7c0,9.1-7.4,16.5-16.5,16.5c-2.4,0-4.7-0.5-6.7-1.5
		c2.6,5.7,8.3,9.7,15,9.7c9.1,0,16.5-7.4,16.5-16.5C272.6,432.5,268.6,426.8,262.9,424.2z"/>
	<path class="st9" d="M262.9,374.9c0.9,2.1,1.5,4.3,1.5,6.7c0,9.1-7.4,16.5-16.5,16.5c-2.4,0-4.7-0.5-6.7-1.5
		c2.6,5.7,8.3,9.7,15,9.7c9.1,0,16.5-7.4,16.5-16.5C272.6,383.2,268.6,377.5,262.9,374.9z"/>
	<circle class="st10" cx="165.6" cy="159.5" r="8.2"/>
	<path class="st0" d="M354.9,274.7c0,9.1-7.4,32.9-16.5,32.9c-9.1,0-16.5-23.8-16.5-32.9s7.4-16.5,16.5-16.5
		C347.5,258.2,354.9,265.6,354.9,274.7z"/>
	<path class="st11" d="M301.4,110.1h-24.7c-2.3,0-4.1-1.8-4.1-4.1l0,0c0-2.3,1.8-4.1,4.1-4.1h24.7c2.3,0,4.1,1.8,4.1,4.1l0,0
		C305.5,108.3,303.7,110.1,301.4,110.1z"/>
	<path class="st0" d="M235.6,110.1h-24.7c-2.3,0-4.1-1.8-4.1-4.1l0,0c0-2.3,1.8-4.1,4.1-4.1h24.7c2.3,0,4.1,1.8,4.1,4.1l0,0
		C239.7,108.3,237.8,110.1,235.6,110.1z"/>
	<g>
		<path class="st0" d="M264.4,3.2h-16.5c-50,0-90.5,40.5-90.5,90.5V141c0-9.9,5.2-17.9,11.7-18.4c-0.2-2.8-0.6-7.4-1.1-12.4
			c0-9.1,5.1-16.5,14.1-16.5h49.4c13.6,0,24.7-11.1,24.7-24.7c0,13.6,11.1,24.7,24.7,24.7H322c13.6,0,21.5,11,21.5,24.6
			c-0.1,1.4-0.2,2.8-0.3,4.3c6.5,0.5,11.7,8.5,11.7,18.4V93.7C354.9,43.7,314.3,3.2,264.4,3.2z"/>
	</g>
	<circle class="st10" cx="346.6" cy="159.5" r="8.2"/>
	<path class="st11" d="M349.2,188.3c3.5-3,5.7-7.4,5.7-12.3c0-3.8-1.3-7.2-3.5-9.9c-1.4,1-3,1.7-4.8,1.7c-2.9,0-5.3-1.6-6.8-3.8
		c-0.2,2.2-0.5,4.2-0.7,6.1c0,0.2,0,0.4-0.1,0.6c-0.2,1.9-0.5,3.7-0.7,5.3v8.2c-0.5,0-1-0.1-1.5-0.1c-0.6,2.7-1.2,5.3-1.9,8
		c1.1,0.2,2.3,0.4,3.5,0.4v16.5c-3,0-5.9-0.9-8.3-2.3c-0.9,2.1-1.9,4.1-2.9,6.1c2.9,2.8,6.9,4.5,11.2,4.5v16.5
		c-7.7,0-14-5.3-15.9-12.3c-0.3,1.3-0.6,2.7-0.6,4.1c0,9.1,7.4,16.5,16.5,16.5v16.5c-7.7,0-14-5.3-15.9-12.3
		c-0.3,1.3-0.6,2.7-0.6,4.1c0,9.1,7.4,16.5,16.5,16.5v32.9c-4.3,0-8.3-2.4-11.8-5.9c0,0.1-0.1,0.2-0.1,0.3c3,7.4,7.2,13.8,11.9,13.8
		c9.1,0,16.5-23.8,16.5-32.9c0-4.9-2.2-9.3-5.7-12.3c3.5-3,5.7-7.4,5.7-12.3s-2.2-9.3-5.7-12.3c3.5-3,5.7-7.4,5.7-12.3
		c0-4.9-2.2-9.3-5.7-12.3c3.5-3,5.7-7.4,5.7-12.3C354.9,195.7,352.6,191.3,349.2,188.3z"/>
	<path class="st11" d="M264.4,3.2L264.4,3.2c-4.5,0-8.2,3.7-8.2,8.2V69c0,13.6,11.1,24.7,24.7,24.7H322c13.6,0,21.5,11,21.5,24.6
		c-0.1,1.4-0.2,2.8-0.3,4.3c6.5,0.5,11.7,8.5,11.7,18.4V93.7C354.9,43.7,314.3,3.2,264.4,3.2z"/>
</g>
</svg>
