<?xml version="1.0" encoding="utf-8"?>
<!-- Generator: Adobe Illustrator 21.0.2, SVG Export Plug-In . SVG Version: 6.00 Build 0)  -->
<svg version="1.1" id="Capa_1" xmlns="http://www.w3.org/2000/svg" xmlns:xlink="http://www.w3.org/1999/xlink" x="0px" y="0px"
	 viewBox="0 0 512 512" style="enable-background:new 0 0 512 512;" xml:space="preserve">
<style type="text/css">
	.st0{fill:#8EADBE;}
	.st1{fill:#7B9BB1;}
	.st2{fill:#8FC560;}
	.st3{fill:#B1C3D0;}
	.st4{fill:#73AE43;}
	.st5{fill:#FFFFFF;}
	.st6{fill:#E2E4E6;}
	.st7{fill:#231F20;}
</style>
<g>
	<g>
		<path class="st0" d="M256.4,240.5c-8.7,0-15.7-7-15.7-15.7v-23.6c0-8.7,7-15.7,15.7-15.7c8.7,0,15.7,7,15.7,15.7v23.6
			C272.1,233.5,265,240.5,256.4,240.5z"/>
	</g>
	<path class="st1" d="M256.3,201.3h-15.7v7.9h7.9c4.3,0,7.9,3.5,7.9,7.9v15.7h15.7l0-31.4H256.3z"/>
	<path class="st2" d="M397.7,476.1c0,17.3-14.1,31.4-31.4,31.4H146.4c-17.3,0-31.4-14.1-31.4-31.4V369.7
		c0-76.5,59.4-141.8,135.9-144.7c80.4-3,146.8,61.5,146.8,141.2V476.1z"/>
	<g>
		<g>
			<path class="st3" d="M366.3,201.3H146.4c-26,0-47.1-21.1-47.1-47.1h0V20.7C99.3,12,106.3,5,115,5h282.7c8.7,0,15.7,7,15.7,15.7
				v132.6c0,0.3,0,0.6,0,0.9C413.4,180.1,392.3,201.3,366.3,201.3z"/>
		</g>
	</g>
	<path class="st4" d="M256.4,284.7v175.7c0,8.7-7,15.7-15.7,15.7H115c0,17.3,14.1,31.4,31.4,31.4h109.9h109.9
		c17.3,0,31.4-14.1,31.4-31.4V366.2c0-52.9-29.2-99-72.3-123.2C294.5,225.7,256.4,249.3,256.4,284.7z"/>
	<circle class="st5" cx="256.4" cy="374" r="86.4"/>
	<path class="st6" d="M342.7,374c0-47.7-38.7-86.4-86.4-86.4v172.8C304.1,460.4,342.7,421.7,342.7,374z"/>
	<g>
		<path class="st7" d="M256.4,397.6c-8.7,0-15.7-7-15.7-15.7c0,0,7-62.8,15.7-62.8c8.7,0,15.7,62.8,15.7,62.8
			C272.1,390.6,265,397.6,256.4,397.6z"/>
	</g>
	<path class="st0" d="M366.3,201.3c26,0,47.1-21.1,47.1-47.1c0-0.3,0-133.5,0-133.5c0-8.7-7-15.7-15.7-15.7H256.3v31.4h-157v15.7
		h141.3c8.7,0,15.7,7,15.7,15.7v102.1c0,8.7-7,15.7-15.7,15.7H111.4c8.6,9.6,21.1,15.7,35,15.7h109.9H366.3z"/>
	<g>
		<path class="st3" d="M413.4,36.4H99.3c-8.7,0-15.7-7-15.7-15.7S90.6,5,99.3,5h314.1c8.7,0,15.7,7,15.7,15.7S422.1,36.4,413.4,36.4
			z"/>
	</g>
</g>
</svg>
