<?xml version="1.0" encoding="utf-8"?>
<!-- Generator: Adobe Illustrator 21.0.2, SVG Export Plug-In . SVG Version: 6.00 Build 0)  -->
<svg version="1.1" id="Capa_1" xmlns="http://www.w3.org/2000/svg" xmlns:xlink="http://www.w3.org/1999/xlink" x="0px" y="0px"
	 viewBox="0 0 512 512" style="enable-background:new 0 0 512 512;" xml:space="preserve">
<style type="text/css">
	.st0{fill:#C4C7C9;}
	.st1{fill:#FCCF63;}
	.st2{fill:#F6B74E;}
	.st3{fill:#D89C44;}
	.st4{fill:#00A5D7;}
	.st5{fill:#C6E9FA;}
	.st6{fill:#50BEE7;}
	.st7{fill:#20AFDC;}
	.st8{fill:#ABE0F9;}
	.st9{fill:#C9D1D7;}
</style>
<g>
	<path class="st0" d="M405.6,150.3c-3.3-2.9-8.4-2.5-11.3,0.9L274,291.6l38-133c1.2-4.2-1.3-8.7-5.5-9.9c-4.2-1.2-8.7,1.2-9.9,5.5
		l-40.4,141.3l-40.4-141.3c-1.2-4.3-5.7-6.7-9.9-5.5c-4.3,1.2-6.7,5.7-5.5,9.9l38,133L118.1,151.1c-2.9-3.4-7.9-3.8-11.3-0.9
		c-3.4,2.9-3.8,7.9-0.9,11.3l126,147h48.6l126-147C409.4,158.2,409,153.2,405.6,150.3z"/>
	<g>
		<path class="st1" d="M360.3,500.9c0,4.4-3.6,8-8,8H160c-4.4,0-8-3.6-8-8V316.6c0-4.4,3.6-8,8-8h192.3c4.4,0,8,3.6,8,8V500.9z"/>
	</g>
	<g>
		<path class="st2" d="M328.3,468.8c0,4.4-3.6,8-8,8H192.1c-4.4,0-8-3.6-8-8V348.6c0-4.4,3.6-8,8-8h128.2c4.4,0,8,3.6,8,8V468.8z"/>
	</g>
	<path class="st3" d="M320.3,340.6H192.1c-4.4,0-8,3.6-8,8v8c0-4.4,3.6-8,8-8h128.2c4.4,0,8,3.6,8,8v-8
		C328.3,344.2,324.7,340.6,320.3,340.6z"/>
	<path class="st3" d="M328.3,348.6c0-4.4-140.6,128.2-136.2,128.2h24l112.2-104.2V348.6z"/>
	<g>
		<path class="st4" d="M95.9,164.4c0-88.5,71.7-160.2,160.2-160.2s160.2,71.7,160.2,160.2H95.9z"/>
	</g>
	<g>
		<path class="st5" d="M160,164.4c0-88.5,43-160.2,96.1-160.2s96.1,71.7,96.1,160.2H160z"/>
	</g>
	<g>
		<path class="st6" d="M224.1,164.4c0-88.5,14.3-160.2,32-160.2c17.7,0,32,71.7,32,160.2H224.1z"/>
	</g>
	<g>
		<g>
			<polygon class="st1" points="179,504.5 157.1,481.2 333.3,312.9 355.3,336.3 			"/>
		</g>
	</g>
	<path class="st7" d="M256.2,4.1c-0.1,0-0.3,0-0.4,0c-10.3,0-13.6,14.1-4.5,18.9c50.6,26.9,85.1,80,85.1,141.3h80.1
		C416.4,75.9,344.7,4.1,256.2,4.1z"/>
	<path class="st8" d="M256.2,4.1c-0.3,0-0.5,0.1-0.8,0.1c-10,0.4-13.1,14.1-4.2,18.8c50.6,26.9,85.1,80,85.1,141.3h16
		C352.3,75.9,309.3,4.1,256.2,4.1z"/>
	<path class="st7" d="M246.2,12.2c-0.8,4,0.6,8.5,5,10.9c8.9,4.7,17.2,10.3,25,16.5c-5.5-22.1-12.5-35.4-20.1-35.4
		C252.7,4.1,249.3,7,246.2,12.2z"/>
	<g>
		<polygon class="st9" points="206.6,180.4 223.3,180.4 218.7,164.4 202.1,164.4 		"/>
		<polygon class="st9" points="310.3,164.4 293.6,164.4 289,180.4 305.7,180.4 		"/>
		<polygon class="st9" points="122,180.4 143.1,180.4 129.4,164.4 108.3,164.4 		"/>
		<polygon class="st9" points="404.1,164.4 383,164.4 369.2,180.4 390.3,180.4 		"/>
	</g>
</g>
</svg>
