<?xml version="1.0" encoding="utf-8"?>
<!-- Generator: Adobe Illustrator 21.0.2, SVG Export Plug-In . SVG Version: 6.00 Build 0)  -->
<svg version="1.1" id="Capa_1" xmlns="http://www.w3.org/2000/svg" xmlns:xlink="http://www.w3.org/1999/xlink" x="0px" y="0px"
	 viewBox="0 0 512 512" style="enable-background:new 0 0 512 512;" xml:space="preserve">
<style type="text/css">
	.st0{fill:#576D7E;}
	.st1{fill:#35495C;}
	.st2{fill:#113247;}
	.st3{fill:#E2E4E6;}
	.st4{fill:#C9D1D7;}
	.st5{fill:#FFFFFF;}
	.st6{fill:#F05642;}
</style>
<g>
	<path class="st0" d="M303.1,462.1V65.8c0-34.2-27.9-62.1-62.1-62.1H85.7c-34.2,0-62.1,27.9-62.1,62.1v396.4H303.1z"/>
	<path class="st0" d="M318.6,501c0,4.3-3.5,7.8-7.8,7.8h-295c-4.3,0-7.8-3.5-7.8-7.8v-31.1c0-4.3,3.5-7.8,7.8-7.8h295
		c4.3,0,7.8,3.5,7.8,7.8V501z"/>
	<path class="st1" d="M241,19.2h-62.1c-8.6,0-15.5,7-15.5,15.5v326.1c-18.4,0-33.8-11.5-37.7-26.8c-0.6,2.7-1.1,5.4-1.1,7.7
		c0,15.5,11.4,28.6,27.2,33c6.8,1.9,11.6,7.9,11.6,15v41.4c0,8.6-7,15.5-15.5,15.5H23.6v15.5h139.8h139.8V81.3
		C303.1,47,275.3,19.2,241,19.2z"/>
	<path class="st1" d="M163.3,485.4L163.3,485.4c0,8.6-7,15.5-15.5,15.5H8c0,4.3,3.5,7.8,7.8,7.8h147.5h147.5c4.3,0,7.8-3.5,7.8-7.8
		v-31.1H178.9C170.3,469.9,163.3,476.9,163.3,485.4z"/>
	<path class="st1" d="M489.4,174.5c-8.6,0-15.5,7-15.5,15.5v232.9c0,25.7-20.9,46.6-46.6,46.6c-25.7,0-46.6-20.9-46.6-46.6V314.2
		c0-42.8-34.8-77.6-77.6-77.6v31.1c25.7,0,46.6,20.9,46.6,46.6v108.7c0,42.8,34.8,77.6,77.6,77.6c42.8,0,77.6-34.8,77.6-77.6V190
		C505,181.4,498,174.5,489.4,174.5z"/>
	<path class="st2" d="M498.1,173.5L436,111.4c-9.1-9.1-23.8-9.1-32.9,0c-9.1,9.1-9.1,23.8,0,32.9l39.8,37.9c0,15.5,0,9,0,23.3
		c0,25.7,15.5,31.1,31.1,31.1s31.1,0,31.1-15.5c0-3.2,0-15.5,0-23.3C505,182.2,504.3,179.7,498.1,173.5z"/>
	<path class="st2" d="M202.1,334c0,19.1-17.4,34.6-38.8,34.6c-21.4,0-38.8-15.5-38.8-34.6c0-24.7,38.8-74.1,38.8-74.1
		S202.1,309.3,202.1,334z"/>
	<path class="st3" d="M256.5,174.5c0,8.5-7,15.5-15.5,15.5H85.7c-8.5,0-15.5-7-15.5-15.5V73.5c0-8.5,7-15.5,15.5-15.5H241
		c8.5,0,15.5,7,15.5,15.5V174.5z"/>
	<path class="st4" d="M241,58h-77.6H85.7c-8.5,0-15.5,7-15.5,15.5V89c0-8.5,7-15.5,15.5-15.5h62.1c8.6,0,15.5,7,15.5,15.5V190H241
		c8.5,0,15.5-7,15.5-15.5V73.5C256.5,65,249.5,58,241,58z"/>
	<path class="st5" d="M163.3,112.3c-42.9,0-77.6,34.8-77.6,77.6H241C241,147.1,206.2,112.3,163.3,112.3z"/>
	<path class="st3" d="M241,190c0-42.9-34.8-77.6-77.6-77.6V190H241z"/>
	<path class="st6" d="M163.3,174.5c-8.6,0-15.5,7-15.5,15.5h31.1C178.9,181.4,171.9,174.5,163.3,174.5z"/>
	<path class="st6" d="M153.6,190H171c0-1.6-0.4-3.3-1.4-4.7l-46.6-62.1c-2.6-3.4-7.4-4.1-10.9-1.6c-3.4,2.6-4.1,7.4-1.6,10.9
		L153.6,190z"/>
</g>
</svg>
