<?xml version="1.0" encoding="utf-8"?>
<!-- Generator: Adobe Illustrator 21.0.2, SVG Export Plug-In . SVG Version: 6.00 Build 0)  -->
<svg version="1.1" id="Layer_1" xmlns="http://www.w3.org/2000/svg" xmlns:xlink="http://www.w3.org/1999/xlink" x="0px" y="0px"
	 viewBox="0 0 512 512" style="enable-background:new 0 0 512 512;" xml:space="preserve">
<style type="text/css">
	.st0{fill:#F7C24F;}
	.st1{fill:#F6B74E;}
	.st2{fill:#B0B7BD;}
	.st3{fill:#83BD5A;}
	.st4{fill:#FCCF63;}
	.st5{fill:#FFFFFF;}
	.st6{fill:#C9D1D7;}
	.st7{fill:#6FA04E;}
	.st8{fill:#4F6873;}
	.st9{fill:#35495C;}
	.st10{fill:#576D7E;}
	.st11{fill:#D89C44;}
</style>
<g>
	<g>
		<path class="st0" d="M480.8,435.2c0,4.6-3.7,8.3-8.3,8.3H190.6c-4.6,0-8.3-3.7-8.3-8.3V161.6c0-4.6-3.9-61.6,8.3-58h281.9
			c4.6,0,8.3,3.7,8.3,8.3V435.2z"/>
	</g>
	<path class="st1" d="M472.5,443.5c4.6,0,8.3-3.7,8.3-8.3V120.1H348.1c-9.2,0-16.6,7.4-16.6,16.6v273.6c0,9.2-7.4,16.6-16.6,16.6
		H182.3v8.3c0,4.6,3.7,8.3,8.3,8.3H472.5z"/>
	<path class="st2" d="M480.8,443.5H182.3V28.9c0-9.2-7.4-16.6-16.6-16.6H116c-9.2,0-16.6,7.4-16.6,16.6s7.4,16.6,16.6,16.6h33.2
		v414.6c0,9.2,7.4,16.6,16.6,16.6h315.1c9.2,0,16.6-7.4,16.6-16.6S490,443.5,480.8,443.5z"/>
	<g>
		<path class="st3" d="M116,45.5c0,4.6-3.7,8.3-8.3,8.3H24.7c-4.6,0-8.3-3.7-8.3-8.3V12.3c0-4.6,3.7-8.3,8.3-8.3h82.9
			c4.6,0,8.3,3.7,8.3,8.3V45.5z"/>
	</g>
	<g>
		<polygon class="st4" points="290.1,219.6 273.5,211.3 256.9,219.6 240.3,211.3 223.8,219.6 223.8,103.5 290.1,103.5 		"/>
	</g>
	<g>
		<rect x="207.2" y="344" class="st5" width="91.2" height="74.6"/>
	</g>
	<g>
		<g>
			<rect x="215.5" y="352.3" class="st6" width="66.3" height="8.3"/>
		</g>
	</g>
	<g>
		<g>
			<rect x="215.5" y="368.9" class="st6" width="58" height="8.3"/>
		</g>
	</g>
	<g>
		<g>
			<rect x="215.5" y="385.5" class="st6" width="41.5" height="8.3"/>
		</g>
	</g>
	<g>
		<g>
			<rect x="215.5" y="402.1" class="st6" width="66.3" height="8.3"/>
		</g>
	</g>
	<path class="st7" d="M16.5,28.9v16.6c0,4.6,3.7,8.3,8.3,8.3h82.9c4.6,0,8.3-3.7,8.3-8.3V28.9H16.5z"/>
	<path class="st8" d="M132.5,28.9c-4.6,0-8.3-3.7-8.3-8.3v-8.3H116v33.2h8.3h24.9v373.2h16.6V45.5v-8.3c0-4.6-3.7-8.3-8.3-8.3H132.5
		z"/>
	<path class="st8" d="M207.2,476.7h273.6c9.2,0,16.6-7.4,16.6-16.6H207.2V476.7z"/>
	<g>
		<circle class="st9" cx="165.7" cy="460.1" r="49.8"/>
	</g>
	<g>
		<circle class="st10" cx="165.7" cy="460.1" r="16.6"/>
	</g>
	<g>
		<polygon class="st0" points="439.4,219.6 422.8,211.3 406.2,219.6 389.6,211.3 373,219.6 373,120.1 439.4,120.1 		"/>
	</g>
	<g>
		<rect x="381.3" y="402.1" class="st11" width="74.6" height="16.6"/>
	</g>
	<g>
		<polygon class="st11" points="439.4,344 422.8,368.9 431.1,368.9 431.1,393.8 447.7,393.8 447.7,368.9 455.9,368.9 		"/>
	</g>
	<g>
		<polygon class="st11" points="397.9,344 381.3,368.9 389.6,368.9 389.6,393.8 406.2,393.8 406.2,368.9 414.5,368.9 		"/>
	</g>
	<rect x="373" y="103.5" class="st4" width="66.3" height="16.6"/>
</g>
</svg>
