<?xml version="1.0" encoding="utf-8"?>
<!-- Generator: Adobe Illustrator 21.0.2, SVG Export Plug-In . SVG Version: 6.00 Build 0)  -->
<svg version="1.1" id="Layer_1" xmlns="http://www.w3.org/2000/svg" xmlns:xlink="http://www.w3.org/1999/xlink" x="0px" y="0px"
	 viewBox="0 0 512 512" style="enable-background:new 0 0 512 512;" xml:space="preserve">
<style type="text/css">
	.st0{fill:#B1C3D0;}
	.st1{fill:#83BD5A;}
	.st2{fill:#6FA04E;}
	.st3{fill:#35495C;}
	.st4{fill:#8EADBE;}
</style>
<g>
	<path class="st0" d="M378.3,484.8l-16.4-49.1c0,0,0,0-0.1,0c-2.2-6.5-8.2-11.2-15.4-11.2h-73.6v-40.9c0-9-7.3-16.4-16.4-16.4
		c-9,0-16.4,7.3-16.4,16.4v40.9h-73.6c-7.2,0-13.3,4.7-15.4,11.2c0,0,0,0-0.1,0l-16.4,49.1c-2.9,8.6,1.8,17.8,10.3,20.7
		c1.7,0.6,3.5,0.8,5.2,0.8c6.9,0,13.2-4.3,15.5-11.2l12.6-37.9h61.8V490c0,9,7.3,16.4,16.4,16.4c9,0,16.4-7.3,16.4-16.4v-32.7h61.8
		l12.6,37.9c2.3,6.9,8.7,11.2,15.5,11.2c1.7,0,3.5-0.3,5.2-0.8C376.5,502.6,381.1,493.4,378.3,484.8z"/>
	<path class="st1" d="M338.2,7.4H174.6c-22.5,0-40.9,18.3-40.9,40.9c0,0.5,0,0.9,0.1,1.4l16.4,188.1c0.7,8.5,7.8,14.9,16.3,14.9h180
		c8.5,0,15.6-6.5,16.3-14.9l16.4-188.1c0-0.5,0.1-1,0.1-1.4C379.1,25.7,360.8,7.4,338.2,7.4z"/>
	<g>
		<circle class="st2" cx="223.7" cy="97.3" r="16.4"/>
	</g>
	<g>
		<circle class="st2" cx="289.1" cy="97.3" r="16.4"/>
	</g>
	<g>
		<circle class="st2" cx="223.7" cy="162.8" r="16.4"/>
	</g>
	<g>
		<circle class="st2" cx="289.1" cy="162.8" r="16.4"/>
	</g>
	<path class="st0" d="M428.2,244.6c-4.5,0-8.2,3.7-8.2,8.2v73.6H92.8v-73.6c0-4.5-3.7-8.2-8.2-8.2c-4.5,0-8.2,3.7-8.2,8.2v81.8
		c0,4.5,3.7,8.2,8.2,8.2h343.5c4.5,0,8.2-3.7,8.2-8.2v-81.8C436.4,248.2,432.7,244.6,428.2,244.6z"/>
	<path class="st1" d="M362.8,285.5H150.1c-27.1,0-49.1,22-49.1,49.1l0,32.7c0,9,7.3,16.4,16.4,16.4h278.1c9,0,16.4-7.3,16.4-16.4
		v-32.7C411.8,307.5,389.8,285.5,362.8,285.5z"/>
	<g>
		<path class="st3" d="M125.5,244.6c0,4.5-3.7,8.2-8.2,8.2H51.9c-4.5,0-8.2-3.7-8.2-8.2v-16.4c0-4.5,3.7-8.2,8.2-8.2h65.4
			c4.5,0,8.2,3.7,8.2,8.2V244.6z"/>
	</g>
	<g>
		<path class="st3" d="M469.1,244.6c0,4.5-3.7,8.2-8.2,8.2h-65.4c-4.5,0-8.2-3.7-8.2-8.2v-16.4c0-4.5,3.7-8.2,8.2-8.2h65.4
			c4.5,0,8.2,3.7,8.2,8.2V244.6z"/>
	</g>
	<path class="st4" d="M240.1,383.6V400h8.2c4.5,0,8.2,3.7,8.2,8.2V490h16.4v-90v-16.4H240.1z"/>
	<rect x="76.5" y="252.8" class="st4" width="8.2" height="81.8"/>
	<rect x="428.2" y="252.8" class="st4" width="8.2" height="81.8"/>
	<path class="st4" d="M76.5,334.6c0,4.5,3.7,8.2,8.2,8.2H101v-8.2H76.5z"/>
	<path class="st4" d="M436.4,334.6c0,4.5-3.7,8.2-8.2,8.2h-16.4v-8.2H436.4z"/>
	<rect x="240.1" y="252.8" class="st0" width="32.7" height="32.7"/>
	<path class="st4" d="M256.4,252.8h-16.4v16.4h8.2c4.5,0,8.2,3.7,8.2,8.2v8.2h16.4v-32.7H256.4z"/>
	<path class="st4" d="M348.3,446.5c-1.1-3.3-4.2-5.6-7.8-5.6H330h-57.3v16.4h49.1h12.7l12.6,37.9l15.5-5.2L348.3,446.5z"/>
	<path class="st4" d="M164.6,446.5c1.1-3.3,4.2-5.6,7.8-5.6h10.5h57.3v16.4H191h-12.7l-12.6,37.9l-15.5-5.2L164.6,446.5z"/>
	<g>
		<circle class="st3" cx="362.8" cy="490" r="16.4"/>
	</g>
	<g>
		<circle class="st3" cx="150.1" cy="490" r="16.4"/>
	</g>
	<g>
		<circle class="st3" cx="256.4" cy="490" r="16.4"/>
	</g>
	<path class="st2" d="M411.8,367.3v-24.5H101l0,24.5c0,9,7.3,16.4,16.4,16.4h278.1C404.5,383.6,411.8,376.3,411.8,367.3z"/>
</g>
</svg>
