<svg id="Capa_1" enable-background="new 0 0 512 512" height="512" viewBox="0 0 512 512" width="512" xmlns="http://www.w3.org/2000/svg"><path d="m403.461 338.413h-71.158c-1.342 1.056-2.709 2.084-4.102 3.083l5.673 8.54c.385.58.34 1.345-.11 1.876l-42.952 50.629c-.615.724-1.728.738-2.36.028l-31.495-35.387c-.638.007-1.276.007-1.915 0l-31.495 35.387c-.632.71-1.745.697-2.36-.028l-42.952-50.629c-.451-.531-.495-1.296-.11-1.876l5.665-8.528c-1.398-1.002-2.772-2.034-4.118-3.094h-71.134c-33.373 0-60.427 27.054-60.427 60.427v111.629c0 .846.685 1.531 1.531 1.531h412.714c.846 0 1.531-.685 1.531-1.531v-111.63c.001-33.373-27.053-60.427-60.426-60.427z" fill="#93c8a5"/><path d="m408.564 338.626c9.531 10.682 15.324 24.772 15.324 40.215v31.823c0 44.921-36.416 81.337-81.337 81.337h-294.439v18.469c0 .846.685 1.531 1.531 1.531h412.714c.846 0 1.531-.685 1.531-1.531v-111.63c0-31.654-24.339-57.623-55.324-60.214z" fill="#80bc93"/><path d="m108.539 338.413h41.363v127.633h-41.363z" fill="#dd636e"/><path d="m362.097 338.413h41.363v127.633h-41.363z" fill="#dd636e" transform="matrix(-1 0 0 -1 765.558 804.459)"/><path d="m108.539 466.046h294.921v45.954h-294.921z" fill="#e4989d"/><path d="m402.12 466.046c-14.851 15.966-36.044 25.954-59.569 25.954h-234.012v20h294.921v-45.954z" fill="#dd636e"/><path d="m333.874 350.036-5.673-8.54c-7.601 5.45-15.954 10.017-24.938 13.526l-16.134 6.301c-9.706 3.791-19.931 5.744-30.172 5.859l31.495 35.387c.632.71 1.745.697 2.36-.028l42.952-50.629c.45-.531.495-1.296.11-1.876z" fill="#bcddc8"/><path d="m224.869 361.326-16.157-6.308c-8.977-3.505-17.324-8.067-24.921-13.51l-5.665 8.528c-.385.58-.34 1.345.11 1.876l42.952 50.629c.615.724 1.728.738 2.36.028l31.495-35.387c-10.242-.114-20.467-2.066-30.174-5.856z" fill="#bcddc8"/><path d="m255.043 367.182-13.483 15.149v51.301c0 1.333 1.081 2.414 2.414 2.414h24.053c1.333 0 2.414-1.081 2.414-2.414v-51.301l-13.483-15.149c-.639.007-1.277.007-1.915 0z" fill="#aad3b9"/><path d="m120.113 155.856h16.111v-46.727h-16.111c-6.498 0-11.766 5.268-11.766 11.766v23.195c0 6.498 5.268 11.766 11.766 11.766z" fill="#b4acb7"/><path d="m391.887 155.856h-16.111v-46.727h16.111c6.498 0 11.766 5.268 11.766 11.766v23.195c0 6.498-5.268 11.766-11.766 11.766z" fill="#b4acb7"/><path d="m308.587 0h-105.209c-41.165 0-74.654 33.49-74.654 74.654v166.742c0 24.541 7.316 48.224 21.159 68.488s33.242 35.693 56.102 44.619l16.157 6.309c10.916 4.262 22.384 6.393 33.854 6.393 11.472 0 22.945-2.133 33.863-6.396l16.134-6.301c22.856-8.928 42.254-24.356 56.094-44.62 13.84-20.263 21.155-43.944 21.155-68.482v-166.752c-.001-41.164-33.491-74.654-74.655-74.654z" fill="#d3ced5"/><path d="m320.371.929c14.092 13.587 22.87 32.651 22.87 53.725v166.751c0 24.538-7.315 48.22-21.155 68.482-13.84 20.264-33.237 35.692-56.094 44.62l-16.134 6.301c-10.918 4.264-22.392 6.396-33.863 6.396-11.47 0-22.938-2.131-33.854-6.393l-3.832-1.496c8.456 6.2 17.738 11.308 27.674 15.188l16.157 6.309c10.916 4.262 22.384 6.393 33.854 6.393 11.472 0 22.945-2.133 33.863-6.396l16.134-6.301c22.856-8.928 42.254-24.356 56.094-44.62 13.84-20.263 21.155-43.944 21.155-68.482v-166.752c.001-37.155-27.284-68.058-62.869-73.725z" fill="#c3bec6"/><path d="m173.534 246.633c-20.573 0-37.31-16.738-37.31-37.31v-73.275c0-20.573 16.737-37.309 37.31-37.309h164.934c20.573 0 37.309 16.737 37.309 37.309v73.275c0 20.573-16.737 37.31-37.309 37.31z" fill="#efecef"/><path d="m338.467 98.738h-6.955c2.722 5.176 4.264 11.066 4.264 17.309v73.275c0 20.573-16.737 37.31-37.309 37.31h-157.979c6.248 11.88 18.716 20 33.045 20h164.934c20.573 0 37.309-16.738 37.309-37.31v-73.275c0-20.572-16.736-37.309-37.309-37.309z" fill="#e2dfe2"/><path d="m338.467 215.28h-164.933c-3.29 0-5.958-2.667-5.958-5.958v-73.275c0-3.29 2.667-5.958 5.958-5.958h164.933c3.29 0 5.958 2.667 5.958 5.958v73.275c-.001 3.291-2.668 5.958-5.958 5.958z" fill="#958b95"/><path d="m338.467 130.09h-34.042v25.206c0 22.083-17.901 39.984-39.984 39.984h-96.864v14.042c0 3.29 2.667 5.958 5.958 5.958h164.933c3.29 0 5.958-2.667 5.958-5.958v-73.275c-.002-3.289-2.669-5.957-5.959-5.957z" fill="#868086"/><g fill="#b4acb7"><path d="m209.485 66.851h-33.03c-1.613 0-2.921 1.308-2.921 2.921v28.965h38.872v-28.964c0-1.614-1.308-2.922-2.921-2.922z"/><path d="m302.516 66.851h33.03c1.613 0 2.921 1.308 2.921 2.921v28.965h-38.872v-28.964c-.001-1.614 1.307-2.922 2.921-2.922z"/></g></svg>