<?xml version="1.0" encoding="utf-8"?>
<!-- Generator: Adobe Illustrator 21.0.2, SVG Export Plug-In . SVG Version: 6.00 Build 0)  -->
<svg version="1.1" id="Layer_1" xmlns="http://www.w3.org/2000/svg" xmlns:xlink="http://www.w3.org/1999/xlink" x="0px" y="0px"
	 viewBox="0 0 512 512" style="enable-background:new 0 0 512 512;" xml:space="preserve">
<style type="text/css">
	.st0{fill:#E2E4E6;}
	.st1{fill:#C9D1D7;}
	.st2{fill:#F05642;}
	.st3{fill:#C44138;}
</style>
<g>
	<ellipse class="st0" cx="256.5" cy="460.1" rx="148.9" ry="47"/>
	<path class="st1" d="M358.8,426c-26.7-8-62.7-12.9-102.3-12.9v47L358.8,426z"/>
	<path class="st2" d="M256.5,5.5c-73.5,0-133.3,59.8-133.3,133.2c0,101.6,115.3,307,120.2,314.4c2.9,4.4,7.8,7,13,7
		c5.2,0,10.1-2.6,13-7c4.9-7.4,120.2-212.8,120.2-314.4C389.7,65.2,330,5.5,256.5,5.5z M256.5,177.9c-21.6,0-39.2-17.5-39.2-39.2
		s17.5-39.2,39.2-39.2c21.6,0,39.2,17.5,39.2,39.2S278.1,177.9,256.5,177.9z"/>
	<path class="st3" d="M297.6,11.9c-20.3-6.6-41.1,8.5-41.1,29.8v57.7c21.6,0,39.2,17.5,39.2,39.2s-17.5,39.2-39.2,39.2v249.7
		c0,9.5-8.4,16.9-17.7,15.6c-0.4-0.1-0.8-0.1-1.2-0.2c3.2,5.7,5.3,9.3,5.8,10.1c2.9,4.4,7.8,7,13,7c5.2,0,10.1-2.6,13-7
		c4.9-7.4,120.2-212.8,120.2-314.4C389.7,79.6,351,29.3,297.6,11.9z"/>
	<path class="st3" d="M256.5,177.9c-21.6,0-39.2-17.6-39.2-39.2s17.6-39.2,39.2-39.2V68.2c-38.9,0-70.5,31.6-70.5,70.5
		s31.6,70.5,70.5,70.5V177.9z"/>
	<path class="st2" d="M256.5,99.5c21.6,0,39.2,17.6,39.2,39.2s-17.6,39.2-39.2,39.2v31.4c38.9,0,70.5-31.6,70.5-70.5
		s-31.6-70.5-70.5-70.5V99.5z"/>
</g>
</svg>
