<?xml version="1.0" encoding="utf-8"?>
<!-- Generator: Adobe Illustrator 21.0.2, SVG Export Plug-In . SVG Version: 6.00 Build 0)  -->
<svg version="1.1" id="Layer_1" xmlns="http://www.w3.org/2000/svg" xmlns:xlink="http://www.w3.org/1999/xlink" x="0px" y="0px"
	 viewBox="0 0 512 512" style="enable-background:new 0 0 512 512;" xml:space="preserve">
<style type="text/css">
	.st0{fill:#FFFFFF;}
	.st1{fill:#E2E4E6;}
	.st2{fill:#576D7E;}
	.st3{fill:#C9D1D7;}
	.st4{fill:#F05642;}
	.st5{fill:#AEB9C1;}
	.st6{fill:#50BEE7;}
	.st7{fill:#C44138;}
	.st8{fill:#009FC4;}
	.st9{fill:#35495C;}
	.st10{fill:#113247;}
</style>
<g>
	<path class="st0" d="M492.2,256.7c0,130.3-105.7,236-236,236c-130.3,0-236-105.7-236-236s105.7-236,236-236
		C386.6,20.8,492.2,126.4,492.2,256.7z"/>
	<g>
		<path class="st1" d="M256.2,20.8V68c-4.3,0-7.9-3.5-7.9-7.9v15.7c0,1.9,0.6,3.6,1.7,4.9c3.5,4.3,6.1,9.2,6.1,14.8v119l-39.3,18.6
			l-70.8,149.4l76.4-36.2c15.7-7.4,33.7,4,33.7,21.3v125c130.3,0,236-105.7,236-236S386.6,20.8,256.2,20.8z"/>
		<path class="st1" d="M119.9,125c-0.9,0.3-1.8,0.5-2.7,0.5c-2,0-4-0.8-5.6-2.3l-16.5-16.5c-35,37.6-57,87.3-58.9,142.1h1.2
			c5.2-48.6,26.2-92.4,57.8-126.4l16.5,16.5c1.5,1.5,3.5,2.3,5.6,2.3c2,0,4-0.8,5.6-2.3c3.1-3.1,3.1-8,0-11.1L119.9,125z"/>
		<path class="st1" d="M59.6,264.6H36.2c0.2,5.3,0.6,10.5,1.2,15.7h22.2c4.3,0,7.9-3.5,7.9-7.9S64,264.6,59.6,264.6z"/>
		<path class="st1" d="M119.9,404.2l-13.6,13.6c2.7,2.5,5.5,5,8.4,7.4l8.1-8.1c3.1-3.1,3.1-8.1,0-11.1
			C121.9,405.1,121,404.6,119.9,404.2z"/>
		<path class="st1" d="M248.4,52.4V36.7c-54.8,1.9-104.5,24-142.1,58.9l8.4,8.4C151.1,73.3,197.5,54.2,248.4,52.4z"/>
	</g>
	<path class="st2" d="M256.2,5C117.5,5,4.6,118,4.6,256.7s112.9,251.7,251.7,251.7c138.8,0,251.7-112.9,251.7-251.7S395,5,256.2,5z
		 M417.3,406.7l-16.5-16.5c-3.1-3.1-8.1-3.1-11.1,0s-3.1,8,0,11.1l16.5,16.5c-37.6,35-87.3,57-142.1,58.9v-23.4
		c0-4.3-3.5-7.9-7.9-7.9c-4.3,0-7.9,3.5-7.9,7.9v23.4c-54.8-1.9-104.5-24-142.1-58.9l16.5-16.5c3.1-3.1,3.1-8.1,0-11.1
		s-8-3.1-11.1,0l-16.5,16.5c-35-37.6-57-87.3-58.9-142.1h23.4c4.3,0,7.9-3.5,7.9-7.9c0-4.3-3.5-7.9-7.9-7.9H36.2
		c1.9-54.8,24-104.5,58.9-142.1l16.5,16.5c1.5,1.5,3.5,2.3,5.6,2.3c2,0,4-0.8,5.6-2.3c3.1-3.1,3.1-8,0-11.1l-16.5-16.5
		c37.6-35,87.3-57,142.1-58.9v23.4c0,4.3,3.5,7.9,7.9,7.9c4.3,0,7.9-3.5,7.9-7.9V36.7c54.8,1.9,104.5,24,142.1,58.9l-16.5,16.5
		c-3.1,3.1-3.1,8.1,0,11.1c1.5,1.5,3.5,2.3,5.6,2.3c2,0,4-0.8,5.6-2.3l16.5-16.5c35,37.6,57,87.3,58.9,142.1h-23.4
		c-4.3,0-7.9,3.5-7.9,7.9c0,4.3,3.5,7.9,7.9,7.9h23.4C474.3,319.4,452.3,369.1,417.3,406.7z"/>
	<g>
		<polygon class="st3" points="272,241 240.5,241 256.2,99.4 		"/>
	</g>
	<g>
		<polygon class="st3" points="272,272.5 272,241 413.5,256.7 		"/>
	</g>
	<g>
		<polygon class="st3" points="240.5,241 240.5,272.5 98.9,256.7 		"/>
	</g>
	<g>
		<polygon class="st3" points="240.5,272.5 272,272.5 256.2,414 		"/>
	</g>
	<g>
		<polygon class="st4" points="295.6,296.1 216.9,217.4 366.4,146.6 		"/>
	</g>
	<g>
		<polygon class="st5" points="245.8,319.7 247.4,334.6 266.1,325.8 267.9,309.2 		"/>
	</g>
	<g>
		<polygon class="st6" points="216.9,217.4 295.6,296.1 146.1,366.8 		"/>
	</g>
	<polygon class="st7" points="295.6,296.1 366.4,146.6 256.2,256.7 	"/>
	<polygon class="st8" points="256.2,256.7 146.1,366.8 295.6,296.1 	"/>
	<g>
		<circle class="st9" cx="256.2" cy="256.7" r="15.7"/>
	</g>
	<path class="st10" d="M262.7,242.4c0.9,2,1.4,4.1,1.4,6.5c0,8.7-7,15.7-15.7,15.7c-2.3,0-4.5-0.5-6.5-1.4c2.5,5.5,7.9,9.3,14.3,9.3
		c8.7,0,15.7-7,15.7-15.7C272,250.4,268.2,244.9,262.7,242.4z"/>
	<path class="st9" d="M264.1,60.1V36.7c54.8,1.9,104.5,24,142.1,58.9l-16.5,16.5c-3.1,3.1-3.1,8.1,0,11.1c1.5,1.5,3.5,2.3,5.6,2.3
		c2,0,4-0.8,5.6-2.3l16.5-16.5c35,37.6,57,87.3,58.9,142.1h-23.4c-4.3,0-7.9,3.5-7.9,7.9c0,4.3,3.5,7.9,7.9,7.9h23.4
		c-1.9,54.8-24,104.5-58.9,142.1l-16.5-16.5c-3.1-3.1-8.1-3.1-11.1,0s-3.1,8,0,11.1l16.5,16.5c-37.6,35-87.3,57-142.1,58.9v-23.4
		c0-4.3-3.5-7.9-7.9-7.9v62.9c138.8,0,251.7-112.9,251.7-251.7S395,5,256.2,5V68C260.6,68,264.1,64.4,264.1,60.1z"/>
</g>
</svg>
