<?xml version="1.0" encoding="utf-8"?>
<!-- Generator: Adobe Illustrator 21.0.2, SVG Export Plug-In . SVG Version: 6.00 Build 0)  -->
<svg version="1.1" id="Capa_1" xmlns="http://www.w3.org/2000/svg" xmlns:xlink="http://www.w3.org/1999/xlink" x="0px" y="0px"
	 viewBox="0 0 512 512" style="enable-background:new 0 0 512 512;" xml:space="preserve">
<style type="text/css">
	.st0{fill:#35495C;}
	.st1{fill:#E2E4E6;}
	.st2{fill:#F05642;}
	.st3{fill:#F6B74E;}
	.st4{fill:#83BD5A;}
	.st5{fill:#6E8390;}
</style>
<g>
	<path class="st0" d="M36.6,491.7c-17.3,0-31.4-14.1-31.4-31.4V52c0-17.3,14.1-31.4,31.4-31.4h439.8c17.3,0,31.4,14.1,31.4,31.4
		v408.4c0,17.3-14.1,31.4-31.4,31.4H36.6z"/>
	<path class="st1" d="M44.5,468.2c-8.6,0-15.7-7.1-15.7-15.7V106.9c0-8.6,7.1-15.7,15.7-15.7h424.1c8.6,0,15.7,7.1,15.7,15.7v345.5
		c0,8.6-7.1,15.7-15.7,15.7H44.5z"/>
	<path class="st2" d="M36.6,55.9c0-6.5,5.3-11.8,11.8-11.8c6.5,0,11.8,5.3,11.8,11.8c0,6.5-5.3,11.8-11.8,11.8
		C41.9,67.7,36.6,62.4,36.6,55.9z"/>
	<path class="st3" d="M83.8,55.9c0-6.5,5.3-11.8,11.8-11.8c6.5,0,11.8,5.3,11.8,11.8c0,6.5-5.3,11.8-11.8,11.8
		C89,67.7,83.8,62.4,83.8,55.9z"/>
	<path class="st4" d="M130.9,55.9c0-6.5,5.3-11.8,11.8-11.8c6.5,0,11.8,5.3,11.8,11.8c0,6.5-5.3,11.8-11.8,11.8
		C136.2,67.7,130.9,62.4,130.9,55.9z"/>
	<g>
		<path class="st5" d="M472.5,67.7h-267c-6.5,0-11.8-5.3-11.8-11.8s5.3-11.8,11.8-11.8h267c6.5,0,11.8,5.3,11.8,11.8
			S479,67.7,472.5,67.7z"/>
	</g>
	<g>
		<path class="st0" d="M377.6,310.9c6.1-6.1,6.1-16.1,0-22.2c0,0,0,0,0,0l-41.9-41.9c-6.1-6.1-16.1-6.1-22.2,0
			c-6.1,6.1-6.1,16.1,0,22.2l30.8,30.8l-30.8,30.8l0,0c-6.1,6.1-6.1,16.1,0,22.2c6.1,6.1,16.1,6.1,22.2,0c0,0,0,0,0,0L377.6,310.9
			C377.5,311,377.6,310.9,377.6,310.9z"/>
		<path class="st0" d="M199.6,246.8c-6.1-6.1-16.1-6.1-22.2,0c0,0,0,0,0,0l-41.8,41.8c0,0-0.1,0-0.1,0.1c-6.1,6.1-6.1,16.1,0,22.2
			c0,0,0,0,0,0l41.9,41.9c0,0,0,0,0,0c6.1,6.1,16.1,6.1,22.2,0c6.1-6.1,6.1-16.1,0-22.2l0,0l-30.8-30.8l30.8-30.8l0,0
			C205.8,262.9,205.8,252.9,199.6,246.8z"/>
		<path class="st0" d="M288.8,242c-5.6-3.3-12.8-1.3-16.1,4.3l-55,95.2c-3.3,5.6-1.3,12.8,4.3,16.1c5.6,3.2,12.8,1.3,16.1-4.3
			l55-95.2C296.3,252.5,294.4,245.3,288.8,242z"/>
	</g>
</g>
</svg>
