<?xml version="1.0" encoding="utf-8"?>
<!-- Generator: Adobe Illustrator 21.0.2, SVG Export Plug-In . SVG Version: 6.00 Build 0)  -->
<svg version="1.1" id="Layer_1" xmlns="http://www.w3.org/2000/svg" xmlns:xlink="http://www.w3.org/1999/xlink" x="0px" y="0px"
	 viewBox="0 0 512 512" style="enable-background:new 0 0 512 512;" xml:space="preserve">
<style type="text/css">
	.st0{fill:#E2E4E6;}
	.st1{fill:#576D7E;}
	.st2{fill:#B1C3D0;}
	.st3{fill:#35495C;}
	.st4{fill:#FFFFFF;}
	.st5{fill:#8EADBE;}
</style>
<g>
	<g>
		<polygon class="st0" points="426.1,231.2 268.9,26.9 256.5,36.5 244,26.9 86.9,231.2 111.8,250.4 256.5,62.3 401.2,250.4 		"/>
	</g>
	<g>
		<g>
			<path class="st1" d="M508,460.9V272.3c0-25.9-21.2-47.2-47.2-47.2H52.2C26.2,225.1,5,246.3,5,272.3v188.6
				C5,486.8,26.2,508,52.2,508h408.6C486.7,508,508,486.8,508,460.9z"/>
		</g>
	</g>
	<g>
		
			<ellipse transform="matrix(0.7071 -0.7071 0.7071 0.7071 49.3144 192.0531)" class="st2" cx="256.5" cy="36.5" rx="31.4" ry="31.4"/>
	</g>
	<path class="st3" d="M508,460.9V272.3c0-25.9-21.2-47.2-47.2-47.2h-47.2L295.8,508h165C486.7,508,508,486.8,508,460.9z"/>
	<polygon class="st3" points="327.2,225.1 209.3,508 264.3,508 382.2,225.1 	"/>
	<g>
		<path class="st4" d="M126.9,383.4c-4.5,4-9.4,6-14.6,6c-15.6,0-21.2-12-21.2-22.3c0-10.4,5.6-21.5,21.2-21.5
			c5.9,0,9.2,1.3,12.6,4.9c4,4,11,4.5,15.7,0.3c2.1-2.2,3.3-5.1,3.2-8.2c-0.1-3.1-1.4-6-3.8-8.2c-8.6-7.4-17.2-10.8-27.8-10.8
			c-29.4,0-42.6,21.8-42.6,43.4c0,26.3,16.7,43.3,42.6,43.3c8.6,0,19.6-1.1,28.9-9.7c5.5-5.5,4.3-11.7,1.6-15.5
			C139.4,380.8,132.1,379.4,126.9,383.4z"/>
		<path class="st4" d="M200.1,387.5h-26v-51.2c0-5.8-4.8-10.6-10.4-10.6c-6,0-10.9,4.8-10.9,10.6v62.9c0,6,4.8,10.6,10.9,10.6h36.4
			c4.5,0,7.3-1.8,8.9-3.4c2.1-2,3.2-4.8,3.2-7.7C212.2,393.3,207.9,387.5,200.1,387.5z"/>
		<path class="st4" d="M257.2,323c-22.6,0-45.4,15.2-45.4,44.3c0,28.6,21.9,43.6,43.6,43.6c0.7,0,1.4,0,1.9,0
			c21,0,43.3-15.3,43.3-43.6C300.5,338.4,278.2,324.1,257.2,323z M256,345.2c11.1,0,22.3,7.6,22.3,22.2c0,14.5-11.2,22.2-22.3,22.2
			c-10.9,0-21.8-7.6-21.8-22.2C234.2,352.8,245.1,345.2,256,345.2z"/>
		<path class="st4" d="M342.7,356.7c-11.5-3.2-15.2-4.9-14.6-8.7c0.8-4.1,5.5-5,9.2-5c4.8,0,10.3,1.5,13.6,3.6
			c5.6,4.1,13.5,1.4,15.7-4.9c1.5-4.3,0-9-4-12.2c-6-4.6-14.7-7.3-23.7-7.3c-14.8,0-30.6,7.3-32.6,23.5
			c-2.4,21.7,15.6,26.7,28.8,30.4c8.8,2.5,14.7,4.4,15,7.4c-0.2,1.7-0.8,7.1-10.4,7.1c-6.6,0-13.7-2.5-17.1-4.8
			c-4.9-4-10-4.2-15.6,1.6c-2.9,4.4-3.1,11.5,2.3,16c6.6,5.5,17.1,8.7,28.2,8.7c20.6,0,34.3-10.9,34.7-27.7
			C372.8,365,355.4,360.2,342.7,356.7z"/>
		<path class="st4" d="M432.3,387.5h-29.6v-8.7h23.8c3.4,0,6.4-1.3,8.4-3.5c1.8-2,2.9-4.7,2.9-7.6c0-5.4-4-11.1-11.3-11.1h-23.8
			v-8.6h27.8c7.4,0,11.4-5.7,11.4-11.1c0-5.5-3.9-11-11.4-11h-39.5c-6,0-10.8,4.7-10.8,10.8V399c0,6,4.7,10.8,10.8,10.8h41.4
			c4.5,0,7.2-1.8,8.7-3.4c2-2,3.1-4.7,3.1-7.6C444.1,393.3,439.9,387.5,432.3,387.5z"/>
	</g>
	<path class="st5" d="M278.7,58.7c12.3-12.3,12.3-32.2,0-44.5l-44.5,44.5C246.5,71,266.4,71,278.7,58.7z"/>
</g>
</svg>
