<?xml version="1.0" encoding="utf-8"?>
<!-- Generator: Adobe Illustrator 21.0.2, SVG Export Plug-In . SVG Version: 6.00 Build 0)  -->
<svg version="1.1" id="Layer_1" xmlns="http://www.w3.org/2000/svg" xmlns:xlink="http://www.w3.org/1999/xlink" x="0px" y="0px"
	 viewBox="0 0 512 512" style="enable-background:new 0 0 512 512;" xml:space="preserve">
<style type="text/css">
	.st0{fill:#D89C44;}
	.st1{fill:#FFFFFF;}
	.st2{fill:#F6B74E;}
</style>
<g>
	<g>
		<path class="st0" d="M202.1,20.3H39.7c-17,0-30.9,13.9-30.9,30.9V144h495V97.6c0-17-13.9-30.9-30.9-30.9h-232L202.1,20.3z"/>
	</g>
	<g>
		<path class="st1" d="M465.1,144c0,8.5-7,15.5-15.5,15.5h-379c-8.5,0-15.5-7-15.5-15.5v-30.9c0-8.5,7-15.5,15.5-15.5h379
			c8.5,0,15.5,7,15.5,15.5V144z"/>
	</g>
	<g>
		<path class="st2" d="M503.7,461.1c0,17-13.9,30.9-30.9,30.9H39.7c-17,0-30.9-13.9-30.9-30.9V151.8c0-17,13.9-30.9,30.9-30.9h433.1
			c17,0,30.9,13.9,30.9,30.9V461.1z"/>
	</g>
</g>
</svg>
