<?xml version="1.0" encoding="utf-8"?>
<!-- Generator: Adobe Illustrator 21.0.2, SVG Export Plug-In . SVG Version: 6.00 Build 0)  -->
<svg version="1.1" id="Layer_1" xmlns="http://www.w3.org/2000/svg" xmlns:xlink="http://www.w3.org/1999/xlink" x="0px" y="0px"
	 viewBox="0 0 512 512" style="enable-background:new 0 0 512 512;" xml:space="preserve">
<style type="text/css">
	.st0{fill:#748A9D;}
	.st1{fill:#35495C;}
	.st2{fill:#E2E4E6;}
	.st3{fill:#C9D1D7;}
	.st4{fill:#F05642;}
	.st5{fill:#D2453C;}
</style>
<g>
	<g>
		<path class="st0" d="M398.3,479.8c-1.9,0-3.9-0.1-5.9-0.2l-60.7-4.5c-19.8-1.5-46.4-2.3-74.7-2.3c-28.3,0-54.8,0.8-74.7,2.3
			l-60.7,4.5c-23.3,1.8-44.4-6.7-59.1-23.2c-13.6-15.3-20.3-35.9-18.8-58.1l4.3-63.3c2.9-43,2.9-112.9,0-155.8l-4.3-63.3
			c-1.5-22.2,5.2-42.8,18.8-58.1c14.8-16.5,35.8-25,59.1-23.2l60.7,4.5c19.8,1.5,46.4,2.3,74.7,2.3c28.3,0,54.8-0.8,74.7-2.3
			l60.7-4.5c23.2-1.8,44.4,6.7,59.1,23.2c13.6,15.3,20.3,35.9,18.8,58.1l-4.3,63.3c-2.9,43-2.9,112.9,0,155.8l4.3,63.3
			c1.5,22.2-5.2,42.8-18.8,58.1C438,471.4,419.1,479.8,398.3,479.8z M257,457c28.7,0,55.6,0.8,75.8,2.3l60.7,4.5
			c18.6,1.3,35.4-5.2,47-18.2c10.7-12,16-28.5,14.8-46.2l-4.3-63.3c-3-43.6-3-114.5,0-158.1l4.3-63.3c1.2-17.8-4-34.2-14.8-46.2
			c-11.6-13-28.4-19.6-47-18.2l-60.7,4.5C312.6,56.2,285.7,57,257,57c-28.7,0-55.6-0.8-75.8-2.3l-60.7-4.5
			c-18.6-1.3-35.4,5.2-47,18.2c-10.7,12-16,28.5-14.8,46.2l4.3,63.3c3,43.6,3,114.5,0,158.1l-4.3,63.3c-1.2,17.8,4,34.2,14.8,46.2
			c11.6,13,28.4,19.6,47,18.2l60.7-4.5C201.4,457.8,228.3,457,257,457z"/>
	</g>
	<path class="st1" d="M490.8,272.7h-15.1v-31.5h15.1c4.2,0,7.5,3.5,7.5,7.9v15.7C498.3,269.2,494.9,272.7,490.8,272.7z"/>
	<path class="st1" d="M38.3,272.7H23.2c-4.2,0-7.5-3.5-7.5-7.9v-15.7c0-4.3,3.4-7.9,7.5-7.9h15.1V272.7z"/>
	<path class="st1" d="M241.9,500.9v-15.7h30.2v15.7c0,4.3-3.4,7.9-7.5,7.9h-15.1C245.3,508.8,241.9,505.3,241.9,500.9z"/>
	<path class="st1" d="M241.9,28.8V13.1c0-4.3,3.4-7.9,7.5-7.9h15.1c4.2,0,7.5,3.5,7.5,7.9v15.7H241.9z"/>
	<path class="st2" d="M257,21C132.1,21,30.8,126.6,30.8,257S132.1,493,257,493s226.2-105.7,226.2-236S381.9,21,257,21z M257,382.9
		c-66.6,0-120.6-56.4-120.6-125.9c0-69.5,54-125.9,120.6-125.9c66.7,0,120.6,56.3,120.6,125.9C377.6,326.4,323.7,382.9,257,382.9z"
		/>
	<path class="st3" d="M257,21V76c95.8,0,173.4,81,173.4,181c0,99.9-77.6,181-173.4,181V493c124.9,0,226.2-105.7,226.2-236
		S381.9,21,257,21z"/>
	<path class="st4" d="M377.6,257c0,20.6-4.8,40-13.3,57.2l107.3,17.2c7.4-23.4,11.5-48.4,11.5-74.4s-4.1-51-11.5-74.4l-107.3,17.2
		C372.8,217,377.6,236.4,377.6,257z"/>
	<path class="st5" d="M482.3,236.3c-0.5-5.8-1.1-11.6-2-17.3c0-0.2-0.1-0.5-0.1-0.7c-2-12.3-4.8-24.2-8.5-35.7l-53.1,8.5
		c7.7,20.4,11.9,42.6,11.9,65.9s-4.2,45.5-11.9,65.9l53.1,8.5c3.7-11.5,6.5-23.5,8.5-35.7c0-0.2,0.1-0.5,0.1-0.7
		c0.9-5.7,1.5-11.5,2-17.3c0.1-1,0.2-2.1,0.2-3.2c0.4-5.8,0.7-11.6,0.7-17.5c0-5.9-0.3-11.7-0.7-17.5
		C482.5,238.4,482.4,237.4,482.3,236.3z"/>
	<path class="st3" d="M257,382.9c-66.6,0-120.6-56.4-120.6-125.9s54-125.9,120.6-125.9V76c-95.8,0-173.4,81-173.4,181
		c0,99.9,77.6,181,173.4,181V382.9z"/>
	<path class="st4" d="M136.4,257c0-19.7,4.5-38.2,12.2-54.8l-108.2-13c-6.2,21.5-9.5,44.3-9.5,67.8s3.4,46.4,9.5,67.8l108.2-13
		C140.8,295.2,136.4,276.7,136.4,257z"/>
	<path class="st5" d="M136.4,257c0-19.7,4.5-38.2,12.2-54.8l-54.7-6.6c-6.6,19.2-10.3,39.8-10.3,61.4s3.6,42.2,10.3,61.4l54.7-6.6
		C140.8,295.2,136.4,276.7,136.4,257z"/>
	<path class="st4" d="M185.7,33l16.5,112c16.5-8.8,35-13.8,54.8-13.8c19.8,0,38.3,5,54.8,13.8l16.5-112c-22.4-7.8-46.4-12-71.3-12
		C232.1,21,208.1,25.2,185.7,33z"/>
	<path class="st5" d="M193.9,88.5l8.3,56.5c16.5-8.8,35-13.8,54.8-13.8V76C234.7,76,213.4,80.5,193.9,88.5z"/>
	<path class="st5" d="M320.1,88.5l8.2-55.5c-11.1-3.8-22.5-6.8-34.3-8.8c-0.2,0-0.4-0.1-0.6-0.1c-5.5-0.9-11-1.6-16.6-2.1
		c-1-0.1-2-0.2-3-0.2c-5.5-0.4-11.1-0.7-16.8-0.7V76C279.3,76,300.6,80.5,320.1,88.5z"/>
	<path class="st4" d="M328.3,481l-16.5-112c-16.5,8.8-35,13.9-54.8,13.9c-19.8,0-38.4-5.1-54.8-13.8L185.7,481
		c22.4,7.8,46.4,12,71.3,12C281.9,493,305.9,488.8,328.3,481z"/>
	<path class="st5" d="M257,382.9c-19.8,0-38.4-5.1-54.8-13.8l-8.3,56.5c19.6,8,40.9,12.4,63.1,12.4V382.9z"/>
	<path class="st5" d="M276.8,492.1c5.6-0.5,11.1-1.2,16.6-2.1c0.2,0,0.4-0.1,0.6-0.1c11.8-2,23.2-5,34.3-8.8l-8.2-55.5
		c-19.6,8-40.9,12.4-63.1,12.4V493c5.7,0,11.2-0.3,16.8-0.7C274.8,492.3,275.8,492.2,276.8,492.1z"/>
</g>
</svg>
