<svg id="Capa_1" enable-background="new 0 0 511.918 511.918" height="512" viewBox="0 0 511.918 511.918" width="512" xmlns="http://www.w3.org/2000/svg"><path d="m449.767 202.12-37.054-6.506c-1.851-10.395-4.583-20.625-8.151-30.519l28.813-24.142c3.355-2.809 4.203-7.599 2.014-11.388l-17.627-30.531c-2.188-3.787-6.757-5.45-10.866-3.95l-35.371 12.902c-6.792-8.039-14.271-15.518-22.311-22.31l12.902-35.37c1.5-4.109-.161-8.679-3.95-10.867l-30.529-17.626c-3.79-2.189-8.58-1.341-11.386 2.011l-24.144 28.816c-9.893-3.568-20.125-6.301-30.519-8.151l-6.507-37.053c-.755-4.309-4.479-7.436-8.854-7.436h-35.253c-4.375 0-8.099 3.127-8.854 7.435l-6.506 37.054c-10.395 1.851-20.625 4.583-30.519 8.151l-24.142-28.812c-2.81-3.355-7.599-4.203-11.388-2.014l-30.528 17.625c-3.79 2.187-5.452 6.758-3.952 10.867l12.902 35.371c-8.039 6.792-15.518 14.271-22.31 22.31l-35.37-12.902c-4.11-1.5-8.679.162-10.867 3.95l-17.626 30.529c-2.189 3.79-1.342 8.58 2.011 11.386l28.815 24.144c-3.568 9.893-6.301 20.125-8.151 30.519l-37.057 6.507c-4.307.758-7.432 4.482-7.432 8.855v35.253c0 4.375 3.128 8.099 7.435 8.854l37.054 6.506c1.851 10.396 4.583 20.627 8.151 30.519l-28.818 24.146c-3.349 2.809-4.194 7.594-2.009 11.383l17.627 30.531c2.186 3.786 6.755 5.446 10.866 3.95l35.371-12.903c6.792 8.039 14.271 15.518 22.31 22.311l-12.902 35.37c-1.5 4.109.161 8.679 3.95 10.867l30.529 17.626c3.79 2.188 8.58 1.342 11.386-2.011l24.144-28.815c9.893 3.568 20.125 6.301 30.519 8.151l6.507 37.058c.758 4.306 4.482 7.431 8.854 7.431h35.253c4.375 0 8.099-3.127 8.854-7.435l6.506-37.054c10.395-1.851 20.625-4.583 30.519-8.151l24.142 28.813c2.808 3.352 7.595 4.202 11.388 2.014l30.531-17.627c3.788-2.188 5.448-6.758 3.949-10.865l-6.135-16.819c-.375-1.027-.969-1.96-1.743-2.733l-52.707-52.707c-17.187-17.186-40.147-27.01-64.653-27.662-17.153-.457-33.335-7.195-45.566-18.975-16.339-15.736-23.697-38.321-20.071-60.384l41.184 41.185c2.628 2.63 6.492 3.664 10.081 2.703l32.824-8.795c3.59-.962 6.417-3.791 7.378-7.378l8.794-32.822c.962-3.591-.073-7.454-2.701-10.08l-41.183-41.183c21.582-3.527 43.808 3.477 59.457 19.126 12.341 12.341 19.442 28.74 19.994 46.174.788 24.918 10.618 48.037 27.679 65.099l52.595 52.595c.773.773 1.706 1.368 2.733 1.743l16.817 6.134c4.109 1.5 8.681-.162 10.867-3.95l17.626-30.529c2.189-3.79 1.342-8.579-2.011-11.386l-28.815-24.144c3.568-9.895 6.301-20.126 8.151-30.519l37.058-6.507c4.306-.758 7.431-4.482 7.431-8.854v-35.252c.002-4.374-3.123-8.098-7.433-8.857z" fill="#8eaadf"/><path d="m449.767 202.12-37.054-6.506c-1.851-10.395-4.583-20.625-8.151-30.519l28.813-24.142c3.355-2.809 4.203-7.599 2.014-11.388l-17.627-30.531c-2.188-3.787-6.757-5.45-10.866-3.95l-35.371 12.902c-6.792-8.039-14.271-15.518-22.311-22.31l12.902-35.37c1.5-4.109-.161-8.679-3.95-10.867l-30.529-17.626c-3.79-2.189-8.58-1.341-11.386 2.011l-24.144 28.816c-3.816-1.376-7.684-2.625-11.591-3.75 26.42 15.24 48.718 36.826 64.794 62.671l-.034.024c17.486 28.178 27.593 61.414 27.593 97.016 0 37.301-11.094 72.006-30.147 101.016l44.623 44.623c.773.773 1.706 1.368 2.733 1.743l16.817 6.134c4.109 1.5 8.681-.162 10.867-3.95l17.626-30.529c2.189-3.79 1.342-8.579-2.011-11.386l-28.815-24.144c3.568-9.895 6.301-20.126 8.151-30.519l37.058-6.507c4.306-.758 7.431-4.482 7.431-8.854v-35.252c0-4.373-3.125-8.097-7.435-8.856z" fill="#698ed5"/><path d="m355.982 390.077c-.375-1.027-.969-1.96-1.743-2.733l-42.061-42.061c-32.687 29.571-76.027 47.586-123.577 47.586-29.256 0-56.913-6.829-81.482-18.963l-12.034 32.989c-1.5 4.109.161 8.679 3.95 10.867l30.529 17.626c3.79 2.188 8.58 1.342 11.386-2.011l24.144-28.815c9.893 3.568 20.125 6.301 30.519 8.151l6.507 37.058c.758 4.306 4.482 7.431 8.854 7.431h35.253c4.375 0 8.099-3.127 8.854-7.435l6.506-37.054c10.395-1.851 20.625-4.583 30.519-8.151l24.142 28.813c2.808 3.352 7.595 4.202 11.388 2.014l30.531-17.627c3.788-2.188 5.448-6.758 3.949-10.865z" fill="#698ed5"/><path d="m296.229 339.94c-15.835-15.835-37.164-24.872-59.55-25.468-18.322-.488-36.494-7.515-50.569-21.071-20.906-20.135-27.723-49.226-20.452-75.203.662-2.365 3.633-3.14 5.369-1.404l46.703 46.704c.741.741 1.822 1.031 2.835.76l32.823-8.795c1.013-.271 1.804-1.062 2.075-2.075l8.795-32.823c.271-1.013-.018-2.093-.76-2.835l-46.703-46.703c-1.743-1.743-.95-4.712 1.424-5.375 25.534-7.14 54.075-.668 74.159 19.416 14.202 14.202 21.598 32.634 22.187 51.24.714 22.549 9.534 44.08 25.486 60.032l3.343 3.343c12.812-20.646 20.217-44.998 20.217-71.083 0-74.565-60.447-135.011-135.011-135.011-74.565 0-135.011 60.447-135.011 135.011 0 74.565 60.447 135.011 135.011 135.011 26.085 0 50.437-7.405 71.083-20.217z" fill="#4073c8"/><path d="m264.998 319.933c-21.725 14.936-48.04 23.679-76.397 23.679-13.743 0-27.004-2.056-39.496-5.874 22.3 16.272 49.777 25.874 79.497 25.874 26.085 0 50.437-7.405 71.083-20.217l-3.455-3.455c-8.93-8.929-19.605-15.696-31.232-20.007z" fill="#3b66c1"/><path d="m268.086 99.455c33.657 24.553 55.526 64.295 55.526 109.146 0 15.237-2.525 29.885-7.178 43.548 3.439 16.626 11.455 32.03 23.617 44.192l3.343 3.343c12.812-20.646 20.217-44.998 20.217-71.083.001-60.827-40.225-112.259-95.525-129.146z" fill="#3b66c1"/><path d="m171.027 216.795 46.703 46.704c.741.741 1.822 1.031 2.835.76l32.823-8.795c1.013-.271 1.804-1.062 2.075-2.075l8.795-32.823c.271-1.013-.018-2.093-.76-2.835l-46.703-46.703c-.667-.667-.96-1.513-.938-2.341-23.598 4.995-42.175 23.572-47.171 47.17.83-.021 1.676.273 2.341.938z" fill="#8eaadf"/><path d="m263.499 217.731-24.028-24.028c-.741-.741-1.822-1.031-2.835-.76l-32.823 8.795c-1.013.271-1.804 1.062-2.075 2.075l-8.795 32.823c-.271 1.013.018 2.093.76 2.835l24.028 24.028c.741.741 1.822 1.031 2.835.76l32.823-8.795c1.013-.271 1.804-1.062 2.075-2.075l8.795-32.823c.271-1.013-.019-2.094-.76-2.835z" fill="#d3ced5"/><path d="m263.499 217.731-24.028-24.028c-.741-.741-1.822-1.031-2.835-.76l-2.307.618 9.169 9.169c.741.741 1.031 1.822.76 2.835l-8.795 32.823c-.271 1.013-1.063 1.804-2.075 2.075l-30.516 8.177 14.858 14.858c.741.741 1.822 1.031 2.835.76l32.823-8.795c1.013-.271 1.804-1.063 2.075-2.075l8.795-32.823c.272-1.012-.018-2.093-.759-2.834z" fill="#c3bec6"/><path d="m292.379 185.068c-20.084-20.084-48.625-26.556-74.159-19.416-2.374.664-3.168 3.632-1.424 5.375l46.703 46.703c.741.741 1.031 1.822.76 2.835l-8.795 32.823c-.271 1.013-1.062 1.804-2.075 2.075l-32.823 8.795c-1.013.271-2.093-.018-2.835-.76l-46.704-46.704c-1.737-1.737-4.707-.961-5.369 1.404-7.271 25.976-.454 55.068 20.452 75.203 14.075 13.556 32.247 20.583 50.569 21.071 22.386.596 43.715 9.633 59.55 25.468l162.925 162.925c12.07 12.07 31.641 12.07 43.711 0s12.07-31.641 0-43.711l-162.813-162.813c-15.953-15.953-24.773-37.483-25.486-60.032-.589-18.608-7.985-37.039-22.187-51.241z" fill="#b4acb7"/><path d="m483.714 491.214c-1.919 0-3.839-.732-5.303-2.197l-25.714-25.714c-2.929-2.929-2.929-7.678 0-10.606 2.929-2.929 7.678-2.929 10.606 0l25.714 25.714c2.929 2.929 2.929 7.678 0 10.606-1.464 1.465-3.383 2.197-5.303 2.197z" fill="#a59da5"/></svg>