<svg id="Capa_1" enable-background="new 0 0 512 512" height="512" viewBox="0 0 512 512" width="512" xmlns="http://www.w3.org/2000/svg"><path d="m342.749 504.5h-341.907c-.465 0-.842-.377-.842-.842v-142.117c0-.465.377-.842.842-.842h343.024c9.173 0 16.985-7.506 16.832-16.678-.149-8.915-7.447-16.122-16.397-16.122h-175.051c-88.552 0-161.503-71.194-161.75-159.746-.246-88.541 71.714-160.653 160.2-160.653h343.459c.465 0 .842.377.842.842v142.117c0 .465-.377.842-.842.842h-343.025c-9.173 0-16.985 7.506-16.831 16.677.149 8.915 7.447 16.122 16.397 16.122h176.6c88.486 0 160.446 72.112 160.199 160.654-.247 88.552-73.198 159.746-161.75 159.746z" fill="#d3ced5"/><path d="m511.158 7.5h-46.658v77.307c0 25.678-20.816 46.493-46.493 46.493h-289.873c-9.173 0-16.985 7.506-16.831 16.677.149 8.915 7.447 16.122 16.397 16.122h24.022c1.73-7.318 8.574-12.799 16.413-12.799h343.025c.465 0 .842-.377.842-.842v-142.116c-.002-.465-.379-.842-.844-.842z" fill="#c3bec6"/><path d="m395.025 192.329c42.052 28.999 69.627 77.557 69.474 132.425-.247 88.552-73.198 159.746-161.75 159.746h-302.749v19.158c0 .465.377.842.842.842h341.907c88.552 0 161.504-71.194 161.751-159.746.197-70.811-45.789-131.113-109.475-152.425z" fill="#c3bec6"/><path d="m167.699 121.3h344.301v-83.8h-123.265v57.371c0 .828-.671 1.5-1.5 1.5h-85.871c-.829 0-1.5-.672-1.5-1.5v-57.371h-132.165c-71.792 0-130.199 58.408-130.199 130.2s58.407 130.199 130.199 130.199h176.602c25.585 0 46.399 20.815 46.399 46.4s-20.814 46.4-46.399 46.4h-132.165v57.395c0 .828-.672 1.5-1.5 1.5h-85.871c-.828 0-1.5-.672-1.5-1.5v-57.395h-123.265v83.801h344.301c71.792 0 130.199-58.408 130.199-130.201 0-71.792-58.407-130.2-130.199-130.2h-43.865v57.371c0 .828-.671 1.5-1.5 1.5h-85.871c-.828 0-1.5-.672-1.5-1.5v-57.37h-43.865c-25.585 0-46.399-20.815-46.399-46.4-.001-25.585 20.813-46.4 46.398-46.4z" fill="#958b95"/><path d="m512 37.5v83.8h-343.564c-25.541 0-47.154 20.892-47.136 46.432.007 9.788 3.06 18.876 8.261 26.367h-1.861c-25.883 0-46.884-21.303-46.391-47.297.481-25.402 21.762-45.502 47.169-45.502h287.518c26.788 0 48.505-21.716 48.505-48.505v-15.295zm-130.505 182.011c32.13 23.732 53.005 61.868 53.005 104.788 0 71.793-58.407 130.201-130.199 130.201h-304.301v20h344.301c71.792 0 130.199-58.408 130.199-130.201 0-58.873-39.278-108.745-93.005-124.788z" fill="#868086"/><path d="m175.201 37.5v83.8h-7.502c-2.544 0-5.04.206-7.474.602-.016-.199-.024-.4-.024-.603v-83.586c2.482-.142 4.982-.213 7.498-.213zm196.183 269.145c4.065 2.932 7.638 6.505 10.57 10.57.157-.133.311-.274.459-.422l59.061-59.06c-3.33-3.734-6.873-7.276-10.607-10.607l-59.061 59.061c-.149.147-.289.301-.422.458zm-230.768-101.291c-4.065-2.932-7.638-6.505-10.57-10.57-.157.133-.311.274-.459.422l-59.06 59.061c3.33 3.734 6.872 7.276 10.607 10.607l59.061-59.061c.148-.148.288-.302.421-.459zm34.585 92.545v-83.8h-7.502c-2.544 0-5.04-.206-7.474-.602-.016.199-.024.4-.024.603v83.586c2.482.142 4.982.213 7.498.213zm161.599-83.799v83.8h7.501c2.544 0 5.041.206 7.475.602.016-.199.024-.4.024-.603v-83.586c-2.482-.142-4.982-.213-7.499-.213zm-249.899 260.4v-83.8h-15v83.801zm176.599-176.601v-24.929h-15v24.929zm88.3-176.599v-24.929h-15v24.929zm73.3 0h15v-83.8h-15zm-354.573-40.168 59.06 59.06c.148.148.302.289.459.422 2.932-4.065 6.505-7.638 10.57-10.57-.133-.157-.274-.311-.422-.459l-59.06-59.061c-3.735 3.332-7.277 6.874-10.607 10.608zm281.273 393.155v-83.587c0-.203-.008-.404-.024-.603-2.434.396-4.931.602-7.475.602h-7.501v83.801h7.501c2.517 0 5.017-.072 7.499-.213zm89.674-43.42-59.061-59.06c-.148-.148-.302-.289-.459-.422-2.932 4.065-6.505 7.638-10.57 10.57.133.157.273.31.422.459l59.062 59.061c3.734-3.332 7.276-6.874 10.606-10.608zm-192.974-309.567h15v-83.8h-15zm225.787 215.499h-83.587c-.203 0-.404.008-.603.024.396 2.434.603 4.931.603 7.476s-.207 5.042-.603 7.476c.199.016.4.024.603.024h83.586c.142-2.482.213-4.983.213-7.5s-.071-5.017-.212-7.5zm-210.787 137.701v-83.8h-15v83.801zm-225.786-299.3h83.587c.203 0 .403-.008.602-.024-.396-2.434-.603-4.931-.603-7.476s.207-5.042.603-7.476c-.198-.016-.399-.024-.602-.024h-83.587c-.142 2.482-.214 4.983-.214 7.5s.072 5.018.214 7.5zm137.487 299.3v-24.905h-15v24.906z" fill="#868086"/><path d="m90.349 175.2c-3.292-4.46-5.806-9.527-7.339-15 40.681.009 38.317-.022 38.892.024-.788 4.848-.818 9.928 0 14.952-.472.037-7.637.017-31.553.024zm173.151-73.9h-15v20h15zm-88.299 0h-15v19.999c0 .203.008.404.024.603 5.532-.9 8.718-.499 14.976-.602zm-75.116 9.391 29.501 29.502c.148.148.302.289.459.422 2.932-4.065 6.505-7.638 10.57-10.57-.133-.157-.274-.311-.422-.459l-26.074-26.075c-5.095 1.613-9.833 4.059-14.034 7.18zm330.782 136.434-13.197 13.197c2.598 4.586 4.926 9.344 6.961 14.252l16.843-16.842c-3.331-3.734-6.873-7.276-10.607-10.607zm-20.512 152.623c-2.927 4.102-6.085 8.028-9.456 11.758l29.968 29.967c.358-.351 4.6-3.943 10.607-10.607zm-235.154 54.752h-15v20h15zm176.599-333.2v-20h-15v20zm122.486 215.499h-40.382c-.487 5.09-1.269 10.096-2.327 15h42.709c.262-4.765.31-9.626 0-15zm-210.786 117.701h-15v20h15zm88.273 19.788c.009 0 .018-.001.027-.001v-28.757c-4.865 1.913-9.872 3.541-15 4.864v24.106c5.673-.034 9.345.109 14.973-.212zm88.327-379.392c-4.582 2.629-9.635 4.532-15 5.551v20.854h15c0-.001 0-26.405 0-26.405zm-353.199 359.604h-15v20h15z" fill="#787078"/><path d="m298.936 272.971h-85.871c-.828 0-1.5-.672-1.5-1.5v-85.871c0-.828.672-1.5 1.5-1.5h85.871c.828 0 1.5.672 1.5 1.5v85.871c0 .828-.672 1.5-1.5 1.5z" fill="#ce9875"/><path d="m273.239 222.68h-34.477c-1.133 0-2.052-.919-2.052-2.052v-36.529h38.58v36.529c0 1.133-.918 2.052-2.051 2.052z" fill="#ecd5c6"/><path d="m210.637 449.594h-85.871c-.828 0-1.5-.672-1.5-1.5v-85.871c0-.828.672-1.5 1.5-1.5h85.871c.828 0 1.5.672 1.5 1.5v85.871c0 .828-.672 1.5-1.5 1.5z" fill="#ce9875"/><path d="m184.939 399.303h-34.477c-1.133 0-2.052-.919-2.052-2.052v-36.529h38.58v36.529c.001 1.134-.917 2.052-2.051 2.052z" fill="#ecd5c6"/><path d="m387.235 96.371h-85.871c-.828 0-1.5-.672-1.5-1.5v-85.871c0-.828.672-1.5 1.5-1.5h85.871c.828 0 1.5.672 1.5 1.5v85.871c0 .829-.671 1.5-1.5 1.5z" fill="#ce9875"/><path d="m361.538 46.08h-34.477c-1.133 0-2.052-.919-2.052-2.052v-36.528h38.58v36.529c.001 1.133-.918 2.051-2.051 2.051z" fill="#ecd5c6"/></svg>