<?xml version="1.0" encoding="utf-8"?>
<!-- Generator: Adobe Illustrator 21.0.2, SVG Export Plug-In . SVG Version: 6.00 Build 0)  -->
<svg version="1.1" id="Layer_1" xmlns="http://www.w3.org/2000/svg" xmlns:xlink="http://www.w3.org/1999/xlink" x="0px" y="0px"
	 viewBox="0 0 512 512" style="enable-background:new 0 0 512 512;" xml:space="preserve">
<style type="text/css">
	.st0{fill:#83BD5A;}
	.st1{fill:#6FA04E;}
	.st2{fill:#35495C;}
	.st3{fill:#113247;}
	.st4{fill:#C9D1D7;}
	.st5{fill:#B0B7BD;}
</style>
<g>
	<path class="st0" d="M430.3,492.9c0,8.7-7.1,15.8-15.8,15.8H99.1c-8.7,0-15.8-7.1-15.8-15.8V224.8c0-8.7,7.1-15.8,15.8-15.8h315.4
		c8.7,0,15.8,7.1,15.8,15.8V492.9z"/>
	<path class="st1" d="M99.1,508.7h315.4c8.7,0,15.8-7.1,15.8-15.8V224.8H272.6c-8.7,0-15.8,7.1-15.8,15.8v236.6
		c0,8.7-7.1,15.8-15.8,15.8H83.3C83.3,501.6,90.4,508.7,99.1,508.7z"/>
	<rect x="83.3" y="437.7" class="st1" width="173.5" height="15.8"/>
	<rect x="256.8" y="453.5" class="st0" width="173.5" height="15.8"/>
	<rect x="83.3" y="248.5" class="st1" width="173.5" height="15.8"/>
	<rect x="256.8" y="264.2" class="st0" width="173.5" height="15.8"/>
	<path class="st2" d="M288.4,327.3c0-17.4-14.1-31.5-31.5-31.5s-31.5,14.1-31.5,31.5c0,10.8,5.4,20.3,13.7,26l-12.2,60.9
		c-0.9,4.3,2,7.7,6.3,7.7h47.3c4.3,0,7.2-3.5,6.3-7.7l-12.2-60.9C282.9,347.6,288.4,338.1,288.4,327.3z"/>
	<g>
		<path class="st3" d="M256.8,303.7c16.2,0,29.5,12.3,31.2,28.1c0.2-1.5,0.3-3,0.3-4.5c0-17.4-14.1-31.5-31.5-31.5
			s-31.5,14.1-31.5,31.5c0,1.5,0.1,3,0.3,4.5C227.4,316,240.6,303.7,256.8,303.7z"/>
	</g>
	<path class="st4" d="M256.8,4c-69.6,0-126.2,56.6-126.2,126.2V209h31.5v-78.9c0-52.2,42.4-94.6,94.6-94.6
		c52.2,0,94.6,42.4,94.6,94.6V209H383v-78.9C383,60.6,326.4,4,256.8,4z"/>
	<path class="st5" d="M241.1,35.5c-52.3,0-94.6,42.4-94.6,94.6v55.2c0,4.4-3.5,7.9-7.9,7.9h-7.9V209h31.5v-15.8v-63.1
		c0-49.6,38.2-90.2,86.7-94.2C246.3,35.7,243.7,35.5,241.1,35.5z"/>
	<path class="st5" d="M256.8,4c-2.7,0-5.3,0.2-7.9,0.4c66,4.1,118.3,58.8,118.3,125.8v55.2c0,4.4-3.5,7.9-7.9,7.9h-7.9V209H383
		v-15.8v-63.1C383,60.5,326.5,4,256.8,4z"/>
</g>
</svg>
