<?xml version="1.0" encoding="utf-8"?>
<!-- Generator: Adobe Illustrator 21.0.2, SVG Export Plug-In . SVG Version: 6.00 Build 0)  -->
<svg version="1.1" id="Capa_1" xmlns="http://www.w3.org/2000/svg" xmlns:xlink="http://www.w3.org/1999/xlink" x="0px" y="0px"
	 viewBox="0 0 512 512" style="enable-background:new 0 0 512 512;" xml:space="preserve">
<style type="text/css">
	.st0{fill:#35495C;}
	.st1{fill:#008CCF;}
	.st2{fill:#0076AE;}
	.st3{fill:#005F8D;}
	.st4{fill:#89D6F7;}
	.st5{fill:#ABE0F9;}
	.st6{fill:#E2E4E6;}
	.st7{fill:#FFFFFF;}
	.st8{fill:#C9D1D7;}
	.st9{fill:#77C1DE;}
</style>
<g>
	<path class="st0" d="M433.4,484.1l-65.2-97.8c-5-7.5-15.1-9.5-22.6-4.5c-7.5,5-9.5,15.1-4.5,22.6l21.1,31.7H151.4l21.1-31.7
		c5-7.5,3-17.6-4.5-22.6c-7.5-5-17.6-3-22.6,4.5l-65.2,97.8c-5,7.5-3,17.6,4.5,22.6c2.8,1.9,5.9,2.7,9,2.7c5.3,0,10.4-2.5,13.6-7.3
		l22.3-33.5h254.2l22.3,33.5c3.1,4.7,8.3,7.3,13.6,7.3c3.1,0,6.2-0.9,9-2.7C436.3,501.7,438.4,491.6,433.4,484.1z"/>
	<path class="st1" d="M452.4,379c0,17.9-14.7,32.6-32.6,32.6h-326c-17.9,0-32.6-14.7-32.6-32.6V53c0-17.9,14.7-32.6,32.6-32.6h326
		c17.9,0,32.6,14.7,32.6,32.6V379z"/>
	<path class="st2" d="M256.8,411.6h163c17.9,0,32.6-14.7,32.6-32.6V53c0-6-1.7-11.5-4.6-16.3H281.2c-13.5,0-24.5,10.9-24.5,24.5
		V411.6z"/>
	<path class="st2" d="M85.6,264.9c80.4,0,148.4,22.2,171.2,65.2v81.5h-163c-17.9,0-32.6-14.7-32.6-32.6V264.9H85.6z"/>
	<path class="st3" d="M427.9,264.9c-80.4,0-148.4,22.2-171.2,65.2V379c0,9-7.3,16.3-16.3,16.3H65.7c5.7,9.7,16.1,16.3,28,16.3h163
		h163c17.9,0,32.6-14.7,32.6-32.6V264.9H427.9z"/>
	<path class="st1" d="M44.9,191.6c0,4.5-3.7,8.2-8.2,8.2H20.4c-4.5,0-8.2-3.7-8.2-8.2V93.7c0-4.5,3.7-8.2,8.2-8.2h16.3
		c4.5,0,8.2,3.7,8.2,8.2V191.6z"/>
	<path class="st1" d="M501.3,191.6c0,4.5-3.7,8.2-8.2,8.2h-16.3c-4.5,0-8.2-3.7-8.2-8.2V93.7c0-4.5,3.7-8.2,8.2-8.2h16.3
		c4.5,0,8.2,3.7,8.2,8.2V191.6z"/>
	<rect x="44.9" y="101.9" class="st2" width="16.3" height="32.6"/>
	<rect x="452.4" y="101.9" class="st2" width="16.3" height="32.6"/>
	<path class="st4" d="M289.4,85.6h122.3c9,0,16.3,7.3,16.3,16.3v122.3c0,9-7.3,16.3-16.3,16.3H191.6L289.4,85.6z"/>
	<path class="st5" d="M101.9,85.6h187.5l-97.8,154.9h-89.7c-9,0-16.3-7.3-16.3-16.3V101.9C85.6,92.9,93,85.6,101.9,85.6z"/>
	<polygon class="st5" points="240.5,240.5 264.9,240.5 362.7,85.6 338.3,85.6 	"/>
	<path class="st6" d="M354.6,61.1c0,4.5-3.7,8.2-8.2,8.2H167.1c-4.5,0-8.2-3.7-8.2-8.2V12.2c0-4.5,3.7-8.2,8.2-8.2h179.3
		c4.5,0,8.2,3.7,8.2,8.2V61.1z"/>
	<path class="st6" d="M125.4,355.6c9.5,9.5,25,9.6,34.6,0c9.6-9.6,9.6-25,0-34.6L125.4,355.6z"/>
	<path class="st7" d="M160,321c-9.5-9.6-25-9.6-34.6,0c-9.6,9.6-9.6,25,0,34.6L160,321z"/>
	<path class="st6" d="M353.6,355.6c9.5,9.5,25,9.6,34.6,0s9.6-25,0-34.6L353.6,355.6z"/>
	<path class="st7" d="M388.2,321c-9.5-9.6-25-9.6-34.6,0c-9.6,9.6-9.6,25,0,34.6L388.2,321z"/>
	<path class="st3" d="M142.7,362.7c-12.1,0-22.1-8.8-24-20.4c-0.2,1.3-0.4,2.7-0.4,4.1c0,13.5,11,24.5,24.5,24.5
		c13.5,0,24.5-11,24.5-24.5c0-1.4-0.2-2.7-0.4-4.1C164.8,353.9,154.8,362.7,142.7,362.7z"/>
	<g>
		<path class="st0" d="M313.8,370.9H199.7c-4.5,0-8.2-3.6-8.2-8.2s3.6-8.2,8.2-8.2h114.1c4.5,0,8.2,3.6,8.2,8.2
			S318.3,370.9,313.8,370.9z"/>
	</g>
	<path class="st2" d="M501.3,191.6V93.7h-8.2c-4.5,0-8.2,3.6-8.2,8.2v81.5c0,4.5-3.6,8.2-8.2,8.2h-8.2c0,4.5,3.7,8.2,8.2,8.2h8.2
		h8.2C497.6,199.7,501.3,196,501.3,191.6z"/>
	<path class="st2" d="M44.9,191.6V93.7h-8.2c-4.5,0-8.2,3.6-8.2,8.2v81.5c0,4.5-3.6,8.2-8.2,8.2h-8.2c0,4.5,3.7,8.2,8.2,8.2h8.2h8.2
		C41.2,199.7,44.9,196,44.9,191.6z"/>
	<path class="st8" d="M354.6,61.1V12.2h-81.5c-9,0-16.3,7.3-16.3,16.3v16.3c0,9-7.3,16.3-16.3,16.3H159c0,4.5,3.7,8.2,8.2,8.2h89.7
		h89.7C350.9,69.3,354.6,65.6,354.6,61.1z"/>
	<g>
		<path class="st7" d="M322,44.8H191.6c-4.5,0-8.2-3.6-8.2-8.2s3.6-8.2,8.2-8.2H322c4.5,0,8.2,3.6,8.2,8.2S326.5,44.8,322,44.8z"/>
	</g>
	<path class="st9" d="M411.6,85.6H289.4H101.9c-9,0-16.3,7.3-16.3,16.3v16.3c0-9,7.3-16.3,16.3-16.3h187.5h122.3
		c9,0,16.3,7.3,16.3,16.3v-16.3C427.9,92.9,420.6,85.6,411.6,85.6z"/>
</g>
</svg>
