<?xml version="1.0" encoding="utf-8"?>
<!-- Generator: Adobe Illustrator 21.0.2, SVG Export Plug-In . SVG Version: 6.00 Build 0)  -->
<svg version="1.1" id="Layer_1" xmlns="http://www.w3.org/2000/svg" xmlns:xlink="http://www.w3.org/1999/xlink" x="0px" y="0px"
	 viewBox="0 0 512 512" style="enable-background:new 0 0 512 512;" xml:space="preserve">
<style type="text/css">
	.st0{fill:#35495C;}
	.st1{fill:#113247;}
	.st2{fill:#B1C3D0;}
	.st3{fill:#748A9D;}
	.st4{fill:#576D7E;}
</style>
<g>
	<path class="st0" d="M430.7,486.1c0,4.4-3.6,7.9-7.9,7.9h-47.6c-4.4,0-7.9-3.6-7.9-7.9v-7.9c0-4.4,3.6-7.9,7.9-7.9h47.6
		c4.4,0,7.9,3.6,7.9,7.9V486.1z"/>
	<path class="st1" d="M422.7,470.3h-23.8v23.8h23.8c4.4,0,7.9-3.6,7.9-7.9v-7.9C430.7,473.8,427.1,470.3,422.7,470.3z"/>
	<path class="st0" d="M145.2,486.1c0,4.4-3.6,7.9-7.9,7.9H89.7c-4.4,0-7.9-3.6-7.9-7.9v-7.9c0-4.4,3.6-7.9,7.9-7.9h47.6
		c4.4,0,7.9,3.6,7.9,7.9V486.1z"/>
	<path class="st1" d="M137.3,470.3h-23.8v23.8h23.8c4.4,0,7.9-3.6,7.9-7.9v-7.9C145.2,473.8,141.6,470.3,137.3,470.3z"/>
	<g>
		<path class="st0" d="M510,462.3c0,8.7-7.1,15.9-15.9,15.9H18.4c-8.7,0-15.9-7.1-15.9-15.9V34.2c0-8.7,7.1-15.9,15.9-15.9h475.7
			c8.7,0,15.9,7.1,15.9,15.9V462.3z"/>
	</g>
	<path class="st0" d="M494.1,18.3H256.2v428.2H50.1c-8.7,0-15.9-7.1-15.9-15.9v7.9c0,8.7,7.1,15.9,15.9,15.9h190.3
		c8.8,0,15.9,7.1,15.9,15.9v7.9h237.9c8.7,0,15.9-7.1,15.9-15.9V34.2C510,25.4,502.8,18.3,494.1,18.3z"/>
	<g>
		<path class="st2" d="M478.2,430.6c0,8.7-7.1,15.9-15.9,15.9H50.1c-8.7,0-15.9-7.1-15.9-15.9V65.9c0-8.7,7.1-15.9,15.9-15.9h412.3
			c8.7,0,15.9,7.1,15.9,15.9V430.6z"/>
	</g>
	<path class="st3" d="M256.2,81.7v333c0,8.8-7.1,15.9-15.9,15.9H34.2l0,0c0,8.7,7.1,15.9,15.9,15.9h412.3c8.7,0,15.9-7.1,15.9-15.9
		V65.9H272.1C263.3,65.9,256.2,73,256.2,81.7z"/>
	<g>
		<path class="st1" d="M42.1,184.8c0,4.4-3.6,7.9-7.9,7.9h-7.9c-4.4,0-7.9-3.6-7.9-7.9v-47.6c0-4.4,3.6-7.9,7.9-7.9h7.9
			c4.4,0,7.9,3.6,7.9,7.9V184.8z"/>
	</g>
	<g>
		<path class="st1" d="M42.1,359.3c0,4.4-3.6,7.9-7.9,7.9h-7.9c-4.4,0-7.9-3.6-7.9-7.9v-47.6c0-4.4,3.6-7.9,7.9-7.9h7.9
			c4.4,0,7.9,3.6,7.9,7.9V359.3z"/>
	</g>
	<g>
		<path class="st0" d="M256.2,343.2c-51.2,0-92.9-40.4-95.1-91c-0.1,1.4-0.2,2.9-0.2,4.3c0,52.7,42.7,95.3,95.3,95.3
			s95.3-42.7,95.3-95.3c0-1.5-0.2-2.9-0.2-4.3C349.1,302.8,307.4,343.2,256.2,343.2z"/>
	</g>
	<g>
		<path class="st0" d="M89.7,89.7c0,8.7-7.1,15.9-15.9,15.9S58,98.4,58,89.7c0-8.8,7.1-15.9,15.9-15.9S89.7,80.9,89.7,89.7z"/>
	</g>
	<g>
		<path class="st0" d="M89.7,406.8c0,8.7-7.1,15.9-15.9,15.9S58,415.6,58,406.8c0-8.8,7.1-15.9,15.9-15.9S89.7,398.1,89.7,406.8z"/>
	</g>
	<g>
		<path class="st4" d="M351.6,247.9c0,52.7-42.7,95.3-95.3,95.3s-95.3-42.7-95.3-95.3c0-52.7,42.7-95.3,95.3-95.3
			S351.6,195.2,351.6,247.9z"/>
	</g>
	<g>
		<path class="st2" d="M256.2,327.5c-4.4,0-7.9-3.6-7.9-7.9v-7.9c0-4.4,3.5-7.9,7.9-7.9c4.4,0,7.9,3.6,7.9,7.9v7.9
			C264.2,324,260.6,327.5,256.2,327.5z"/>
	</g>
	<g>
		<path class="st2" d="M256.2,192.7c-4.4,0-7.9-3.6-7.9-7.9v-7.9c0-4.4,3.5-7.9,7.9-7.9c4.4,0,7.9,3.6,7.9,7.9v7.9
			C264.2,189.2,260.6,192.7,256.2,192.7z"/>
	</g>
	<g>
		<path class="st2" d="M192.8,256.2h-7.9c-4.4,0-7.9-3.6-7.9-7.9s3.5-7.9,7.9-7.9h7.9c4.4,0,7.9,3.6,7.9,7.9
			S197.2,256.2,192.8,256.2z"/>
	</g>
	<g>
		<path class="st2" d="M327.6,256.2h-7.9c-4.4,0-7.9-3.6-7.9-7.9s3.5-7.9,7.9-7.9h7.9c4.4,0,7.9,3.6,7.9,7.9S332,256.2,327.6,256.2z
			"/>
	</g>
	<g>
		<path class="st2" d="M205.8,306.6c-2,0-4.1-0.8-5.6-2.3c-3.1-3.1-3.1-8.1,0-11.2l5.6-5.6c3.1-3.1,8.1-3.1,11.2,0
			c3.1,3.1,3.1,8.1,0,11.2l-5.6,5.6C209.8,305.9,207.8,306.6,205.8,306.6z"/>
	</g>
	<g>
		<path class="st2" d="M301.1,211.3c-2,0-4.1-0.8-5.6-2.3c-3.1-3.1-3.1-8.1,0-11.2l5.6-5.6c3.1-3.1,8.1-3.1,11.2,0
			c3.1,3.1,3.1,8.1,0,11.2l-5.6,5.6C305.1,210.6,303.1,211.3,301.1,211.3z"/>
	</g>
	<g>
		<path class="st2" d="M211.4,211.3c-2,0-4.1-0.8-5.6-2.3l-5.6-5.6c-3.1-3.1-3.1-8.1,0-11.2c3.1-3.1,8.1-3.1,11.2,0l5.6,5.6
			c3.1,3.1,3.1,8.1,0,11.2C215.4,210.6,213.4,211.3,211.4,211.3z"/>
	</g>
	<g>
		<path class="st2" d="M306.7,306.6c-2,0-4.1-0.8-5.6-2.3l-5.6-5.6c-3.1-3.1-3.1-8.1,0-11.2c3.1-3.1,8.1-3.1,11.2,0l5.6,5.6
			c3.1,3.1,3.1,8.1,0,11.2C310.7,305.9,308.7,306.6,306.7,306.6z"/>
	</g>
	<g>
		<path class="st0" d="M295.9,256.2h-0.8c-3.7,18.1-19.7,31.7-38.8,31.7c-20.5,0-37.2-15.7-39.2-35.7c-0.1,1.3-0.4,2.6-0.4,4
			c0,21.9,17.7,39.6,39.6,39.6c19.2,0,35.2-13.6,38.8-31.7h0.8c4.4,0,7.9-3.6,7.9-7.9c0-1.5-0.5-2.8-1.2-4
			C301.2,254.5,298.8,256.2,295.9,256.2z"/>
	</g>
	<g>
		<path class="st2" d="M295.9,240.3h-0.8c-3.7-18.1-19.7-31.7-38.8-31.7c-21.9,0-39.6,17.7-39.6,39.6s17.7,39.6,39.6,39.6
			c19.2,0,35.2-13.6,38.8-31.7h0.8c4.4,0,7.9-3.6,7.9-7.9C303.8,243.9,300.3,240.3,295.9,240.3z"/>
	</g>
	<g>
		<g>
			<path class="st4" d="M406.9,343.4c-8.8,0-15.9-7.1-15.9-15.9V169c0-8.8,7.1-15.9,15.9-15.9s15.9,7.1,15.9,15.9v158.6
				C422.7,336.3,415.6,343.4,406.9,343.4z"/>
		</g>
	</g>
	<path class="st1" d="M85.1,418c6.2-6.2,6.2-16.2,0-22.4L62.6,418C68.8,424.2,78.9,424.2,85.1,418z"/>
	<path class="st1" d="M85.1,100.9c6.2-6.2,6.2-16.2,0-22.4l-22.4,22.4C68.8,107.1,78.9,107.1,85.1,100.9z"/>
	<g>
		<path class="st0" d="M454.4,406.8c0,8.7-7.1,15.9-15.9,15.9s-15.9-7.1-15.9-15.9c0-8.8,7.1-15.9,15.9-15.9
			S454.4,398.1,454.4,406.8z"/>
	</g>
	<g>
		<path class="st0" d="M454.4,89.7c0,8.7-7.1,15.9-15.9,15.9s-15.9-7.1-15.9-15.9c0-8.8,7.1-15.9,15.9-15.9S454.4,80.9,454.4,89.7z"
			/>
	</g>
	<path class="st1" d="M449.8,418c6.2-6.2,6.2-16.2,0-22.4L427.4,418C433.6,424.2,443.6,424.2,449.8,418z"/>
	<path class="st1" d="M449.8,100.9c6.2-6.2,6.2-16.2,0-22.4l-22.4,22.4C433.6,107.1,443.6,107.1,449.8,100.9z"/>
</g>
</svg>
