<?xml version="1.0" encoding="utf-8"?>
<!-- Generator: Adobe Illustrator 21.0.2, SVG Export Plug-In . SVG Version: 6.00 Build 0)  -->
<svg version="1.1" id="Layer_1" xmlns="http://www.w3.org/2000/svg" xmlns:xlink="http://www.w3.org/1999/xlink" x="0px" y="0px"
	 viewBox="0 0 429.9 429.9" style="enable-background:new 0 0 429.9 429.9;" xml:space="preserve">
<style type="text/css">
	.st0{fill:#B1C3D0;}
	.st1{fill:#576D7E;}
	.st2{fill:#83BD5A;}
	.st3{fill:#7CB255;}
	.st4{fill:#6FA04E;}
	.st5{fill:#669447;}
</style>
<g>
	<path class="st0" d="M414.2,347.1H295.2c-7.3,0-13.2,5.9-13.2,13.2s5.9,13.2,13.2,13.2h119.1c7.3,0,13.2-5.9,13.2-13.2
		S421.6,347.1,414.2,347.1z"/>
	<g>
		<path class="st1" d="M414.2,373.6c-7.3,0-13.2,0-13.2,0v-52.9c0-7.3,5.9-24.3,13.2-24.3c7.3,0,13.2,16.9,13.2,24.3v39.7
			C427.5,367.7,421.6,373.6,414.2,373.6z"/>
	</g>
	<path class="st2" d="M158.9,58.3C73,56.9,2.7,127.1,4.2,213c1.4,83.6,72,160.6,155.6,160.6h148.6V214
		C308.4,130.4,242.5,59.7,158.9,58.3z"/>
	<path class="st3" d="M48.8,318c27.5,27.5,65.6,55.6,107.5,55.6h152.1V210.4c0-41.9-17.1-80-44.6-107.5L48.8,318z"/>
	<path class="st4" d="M156.3,124.5c-47.4,0-86,38.6-86,86s38.6,86,86,86s86-38.6,86-86S203.7,124.5,156.3,124.5z"/>
	<path class="st5" d="M83.5,223.7c0-47.4,38.6-86,86-86c20.3,0,39,7.1,53.8,19c-15.8-19.6-39.9-32.2-67-32.2c-47.4,0-86,38.6-86,86
		c0,27.1,12.6,51.2,32.2,67C90.7,262.7,83.5,244,83.5,223.7z"/>
</g>
</svg>
