<?xml version="1.0" encoding="utf-8"?>
<!-- Generator: Adobe Illustrator 21.0.2, SVG Export Plug-In . SVG Version: 6.00 Build 0)  -->
<svg version="1.1" id="Layer_1" xmlns="http://www.w3.org/2000/svg" xmlns:xlink="http://www.w3.org/1999/xlink" x="0px" y="0px"
	 viewBox="0 0 512 512" style="enable-background:new 0 0 512 512;" xml:space="preserve">
<style type="text/css">
	.st0{fill:#B1C3D0;}
	.st1{fill:#8EADBE;}
	.st2{fill:#8A5428;}
	.st3{fill:#F05642;}
	.st4{fill:#D2453C;}
	.st5{fill:#7D4B22;}
</style>
<g>
	<path class="st0" d="M240.9,19.3C240.9,19.3,240.9,19.3,240.9,19.3V35c0,0,0,0,0,0c0,8.7,7.1,15.8,15.8,15.8
		c8.7,0,15.8-7.1,15.8-15.8l0,0V19.3l0,0l0,0c0-8.7-7.1-15.8-15.8-15.8C248,3.5,240.9,10.5,240.9,19.3z"/>
	<path class="st1" d="M270.3,43c1.4-2.3,2.2-5,2.2-7.9V19.3c0-8.7-7.1-15.8-15.8-15.8V43H270.3z"/>
	<path class="st0" d="M272.5,232.7v7.9c0-8.7-7.1-7.9-15.8-7.9c-8.7,0-15.8-0.8-15.8,7.9c0,0,0,189.7,0,189.7h0
		c0,26.2-21.2,47.4-47.4,47.4c-26.2,0-47.4-21.2-47.4-47.4c0,0,0,0,0,0c0-8.7-7.1-15.8-15.8-15.8c-8.7,0-15.8,7.1-15.8,15.8
		c0,0,0,0,0,0c0,43.7,35.4,79,79,79c43.6,0,79.1-35.4,79.1-79c0,0,0,0,0,0L272.5,232.7z"/>
	<path class="st2" d="M240.9,430.3L240.9,430.3c0,26.2-21.2,47.4-47.4,47.4c-26.2,0-47.4-21.2-47.4-47.4c0,0,0,0,0,0
		c0-8.7-7.1-15.8-15.8-15.8c-8.7,0-15.8,7.1-15.8,15.8c0,0,0,0,0,0c0,43.7,35.4,79,79,79c43.6,0,79.1-35.4,79.1-79c0,0,0,0,0,0
		l0-31.6h-31.6C240.9,417.5,240.9,430.3,240.9,430.3z"/>
	<path class="st1" d="M240.9,240.6v15.8h7.9c4.4,0,7.9,3.5,7.9,7.9v173.9c0,24.1-9.8,45.9-25.6,61.6c2.5-1.4,4.9-2.9,7.2-4.5
		c0.1-0.1,0.2-0.2,0.3-0.3c6.9-4.9,13-10.8,18.1-17.6v0.1c9.9-13.2,15.8-29.4,15.8-47.1V256.4v-15.8H240.9z"/>
	<path class="st3" d="M256.7,35.1c-126.4,0-229.2,102.8-229.2,229.2c0,4.4,3.5,7.9,7.9,7.9c4.4,0,7.9-3.5,7.9-7.9
		c0-13.1,10.6-23.7,23.7-23.7c13.1,0,23.7,10.6,23.7,23.7c0,4.4,3.5,7.9,7.9,7.9c4.4,0,7.9-3.5,7.9-7.9c0-13.1,10.6-23.7,23.7-23.7
		c13.1,0,23.7,10.6,23.7,23.7c0,4.4,3.5,7.9,7.9,7.9c4.4,0,7.9-3.5,7.9-7.9c0-13.1,10.6-23.7,23.7-23.7c13.1,0,23.7,10.6,23.7,23.7
		c0,4.4,3.5,7.9,7.9,7.9c4.4,0,7.9-3.5,7.9-7.9c0-13.1,10.6-23.7,23.7-23.7c13.1,0,23.7,10.6,23.7,23.7c0,4.4,3.5,7.9,7.9,7.9
		c4.4,0,7.9-3.5,7.9-7.9c0-13.1,10.6-23.7,23.7-23.7c13.1,0,23.7,10.6,23.7,23.7c0,4.4,3.5,7.9,7.9,7.9c4.4,0,7.9-3.5,7.9-7.9
		c0-13.1,10.6-23.7,23.7-23.7c13.1,0,23.7,10.6,23.7,23.7c0,4.4,3.5,7.9,7.9,7.9c4.4,0,7.9-3.5,7.9-7.9c0-13.1,10.6-23.7,23.7-23.7
		c13.1,0,23.7,10.6,23.7,23.7c0,4.4,3.5,7.9,7.9,7.9c4.4,0,7.9-3.5,7.9-7.9C485.9,137.9,383.1,35.1,256.7,35.1z"/>
	<path class="st4" d="M256.7,35.1c-0.1,0-0.2,0-0.3,0c-9.8,0-14.6,12-7.7,18.9c37,36.6,125.3,94.4,125.3,188.5
		c7.2-3,16.1-2.6,24.8,3.4c5.9,4.1,8.2,11.2,8,18.3c-0.1,4.4,3.5,8,7.9,8c4.4,0,8-3.6,7.9-8.1c-0.2-7,1.8-14,7.5-18
		c19.2-13.6,39.9-0.1,39.9,18.2c0,4.4,3.5,7.9,7.9,7.9c4.4,0,7.9-3.5,7.9-7.9C485.9,137.9,383.1,35.1,256.7,35.1z"/>
	<path class="st5" d="M256.7,398.7v39.5c0,24.1-9.8,45.9-25.6,61.6c2.5-1.4,4.9-2.9,7.2-4.5c0.1-0.1,0.2-0.2,0.3-0.3
		c6.9-4.9,13-10.8,18.1-17.6v0.1c9.9-13.2,15.8-29.4,15.8-47.1v-31.8H256.7z"/>
</g>
</svg>
