<?xml version="1.0" encoding="utf-8"?>
<!-- Generator: Adobe Illustrator 21.0.2, SVG Export Plug-In . SVG Version: 6.00 Build 0)  -->
<svg version="1.1" id="Layer_1" xmlns="http://www.w3.org/2000/svg" xmlns:xlink="http://www.w3.org/1999/xlink" x="0px" y="0px"
	 viewBox="0 0 512 512" style="enable-background:new 0 0 512 512;" xml:space="preserve">
<style type="text/css">
	.st0{fill:#E2E4E6;}
	.st1{fill:#6E8390;}
	.st2{fill:#C9D1D7;}
	.st3{fill:#35495C;}
	.st4{fill:#83BD5A;}
	.st5{fill:#6FA04E;}
	.st6{fill:#113247;}
</style>
<g>
	<g>
		<g>
			<path class="st0" d="M109.8,444.5c-9,0-16.3-7.3-16.3-16.3v-97.8c0-9,7.3-16.3,16.3-16.3s16.3,7.3,16.3,16.3v97.8
				C126.1,437.2,118.8,444.5,109.8,444.5z"/>
		</g>
	</g>
	<g>
		<g>
			<path class="st0" d="M207.7,444.5c-9,0-16.3-7.3-16.3-16.3v-97.8c0-9,7.3-16.3,16.3-16.3c9,0,16.3,7.3,16.3,16.3v97.8
				C224,437.2,216.7,444.5,207.7,444.5z"/>
		</g>
	</g>
	<g>
		<g>
			<path class="st0" d="M158.7,509.7c-9,0-16.3-7.3-16.3-16.3v-163c0-9,7.3-16.3,16.3-16.3c9,0,16.3,7.3,16.3,16.3v163
				C175,502.4,167.7,509.7,158.7,509.7z"/>
		</g>
	</g>
	<g>
		<g>
			<path class="st0" d="M256.6,509.7c-9,0-16.3-7.3-16.3-16.3v-163c0-9,7.3-16.3,16.3-16.3c9,0,16.3,7.3,16.3,16.3v163
				C272.9,502.4,265.6,509.7,256.6,509.7z"/>
		</g>
	</g>
	<g>
		<g>
			<path class="st0" d="M305.5,509.7c-9,0-16.3-7.3-16.3-16.3v-163c0-9,7.3-16.3,16.3-16.3s16.3,7.3,16.3,16.3v163
				C321.8,502.4,314.5,509.7,305.5,509.7z"/>
		</g>
	</g>
	<g>
		<g>
			<path class="st0" d="M354.4,477.1c-9,0-16.3-7.3-16.3-16.3V330.4c0-9,7.3-16.3,16.3-16.3c9,0,16.3,7.3,16.3,16.3v130.4
				C370.7,469.8,363.4,477.1,354.4,477.1z"/>
		</g>
	</g>
	<g>
		<g>
			<path class="st0" d="M403.3,444.5c-9,0-16.3-7.3-16.3-16.3v-97.8c0-9,7.3-16.3,16.3-16.3s16.3,7.3,16.3,16.3v97.8
				C419.6,437.2,412.3,444.5,403.3,444.5z"/>
		</g>
	</g>
	<g>
		<path class="st0" d="M419.6,216.2V102.1L305.5,4.3H126.1c-17.9,0-32.6,14.7-32.6,32.6v179.3H419.6z"/>
	</g>
	<g>
		<path class="st1" d="M338.1,102.1h81.5L305.5,4.3v65.2C305.5,87.4,320.2,102.1,338.1,102.1z"/>
	</g>
	<g>
		<g>
			<path class="st2" d="M354.4,191.8H158.7c-9,0-16.3-7.3-16.3-16.3c0-9,7.3-16.3,16.3-16.3h195.6c9,0,16.3,7.3,16.3,16.3
				C370.7,184.5,363.4,191.8,354.4,191.8z"/>
		</g>
	</g>
	<g>
		<g>
			<path class="st2" d="M224,134.7h-65.2c-9,0-16.3-7.3-16.3-16.3s7.3-16.3,16.3-16.3H224c9,0,16.3,7.3,16.3,16.3
				S233,134.7,224,134.7z"/>
		</g>
	</g>
	<g>
		<g>
			<path class="st2" d="M224,77.6h-65.2c-9,0-16.3-7.3-16.3-16.3S149.7,45,158.7,45H224c9,0,16.3,7.3,16.3,16.3S233,77.6,224,77.6z"
				/>
		</g>
	</g>
	<path class="st3" d="M460.4,216.2H52.8c-9,0-16.3,7.3-16.3,16.3v97.8c0,9,7.3,16.3,16.3,16.3h407.6c9,0,16.3-7.3,16.3-16.3v-97.8
		C476.7,223.5,469.4,216.2,460.4,216.2z"/>
	<g>
		<circle class="st4" cx="109.8" cy="281.4" r="16.3"/>
	</g>
	<g>
		<circle class="st4" cx="158.7" cy="281.4" r="16.3"/>
	</g>
	<path class="st5" d="M165.4,266.6c0.9,2,1.5,4.3,1.5,6.7c0,9-7.3,16.3-16.3,16.3c-2.4,0-4.6-0.5-6.7-1.5c2.6,5.7,8.2,9.6,14.8,9.6
		c9,0,16.3-7.3,16.3-16.3C175,274.8,171.1,269.2,165.4,266.6z"/>
	<path class="st5" d="M116.5,266.6c0.9,2,1.5,4.3,1.5,6.7c0,9-7.3,16.3-16.3,16.3c-2.4,0-4.6-0.5-6.7-1.5c2.6,5.7,8.2,9.6,14.8,9.6
		c9,0,16.3-7.3,16.3-16.3C126.1,274.8,122.2,269.2,116.5,266.6z"/>
	<path class="st6" d="M52.8,346.7h407.6c9,0,16.3-7.3,16.3-16.3v-97.8H272.9c-9,0-16.3,7.3-16.3,16.3V314c0,9-7.3,16.3-16.3,16.3
		H36.5C36.5,339.4,43.8,346.7,52.8,346.7z"/>
	<rect x="93.5" y="346.7" class="st2" width="32.6" height="16.3"/>
	<rect x="142.4" y="346.7" class="st2" width="32.6" height="16.3"/>
	<rect x="191.4" y="346.7" class="st2" width="32.6" height="16.3"/>
	<rect x="240.3" y="346.7" class="st2" width="32.6" height="16.3"/>
	<rect x="289.2" y="346.7" class="st2" width="32.6" height="16.3"/>
	<rect x="338.1" y="346.7" class="st2" width="32.6" height="16.3"/>
	<rect x="387" y="346.7" class="st2" width="32.6" height="16.3"/>
</g>
</svg>
