<?xml version="1.0" encoding="utf-8"?>
<!-- Generator: Adobe Illustrator 21.0.2, SVG Export Plug-In . SVG Version: 6.00 Build 0)  -->
<svg version="1.1" id="Layer_1" xmlns="http://www.w3.org/2000/svg" xmlns:xlink="http://www.w3.org/1999/xlink" x="0px" y="0px"
	 viewBox="0 0 512 512" style="enable-background:new 0 0 512 512;" xml:space="preserve">
<style type="text/css">
	.st0{fill:#D8D8B6;}
	.st1{fill:#EFEDD3;}
	.st2{fill:#F05642;}
	.st3{fill:#C9D1D7;}
	.st4{fill:#F6B74E;}
	.st5{fill:#D2453C;}
	.st6{fill:#576D7E;}
	.st7{fill:#F7C24F;}
	.st8{fill:#D89C44;}
</style>
<path class="st0" d="M509.1,374c0,9.2-7.1,16.8-15.8,16.8H19.2c-8.7,0-15.8-7.5-15.8-16.8V38.7c0-9.2,7.1-16.8,15.8-16.8h474.1
	c8.7,0,15.8,7.5,15.8,16.8V374z"/>
<path class="st1" d="M499.9,359.7c0,8.8-8.5,16-18.9,16H35.7c-10.4,0-18.9-7.2-18.9-16V53.7c0-8.8,8.5-16,18.9-16H481
	c10.4,0,18.9,7.2,18.9,16V359.7z"/>
<polygon class="st2" points="422.2,491.3 382.6,466.2 343.1,491.3 343.1,332.1 422.2,332.1 "/>
<g>
	<polygon class="st3" points="446.3,325 447.6,331.8 461.7,315.3 458.1,311.1 	"/>
	<polygon class="st3" points="319,288.8 315.8,272.8 314.2,273.4 317.7,290.4 	"/>
	<polygon class="st3" points="449.5,272.8 446.3,288.8 447.6,290.4 451.1,273.4 	"/>
	<polygon class="st3" points="319,325 307.2,311.1 303.6,315.3 317.7,331.8 	"/>
	<polygon class="st3" points="429.2,356.3 422.2,379.5 399.7,374.4 382.6,390.7 365.6,374.4 343.1,379.5 336.1,356.3 315.8,349.4 
		314.2,357.2 336.1,364.7 343.1,387.9 365.6,382.8 382.6,399.1 399.7,382.8 422.2,387.9 429.2,364.7 451.1,357.2 449.5,349.4 	"/>
</g>
<polygon class="st4" points="382.6,223.1 399.7,239.4 422.2,234.3 429.2,257.5 451.1,265 446.3,288.8 461.7,306.9 446.3,325 
	451.1,348.8 429.2,356.3 422.2,379.5 399.7,374.4 382.6,390.7 365.6,374.4 343.1,379.5 336.1,356.3 314.2,348.8 319,325 
	303.6,306.9 319,288.8 314.2,265 336.1,257.5 343.1,234.3 365.6,239.4 "/>
<polygon class="st5" points="399.7,374.4 382.6,390.7 365.6,374.4 343.1,379.5 343.1,396.3 365.6,391.1 382.6,407.5 399.7,391.1 
	422.2,396.3 422.2,379.5 "/>
<g>
	<path class="st6" d="M153.5,332.1H58.7c-6.8,0-7.9-3.8-7.9-8.4c0-4.6,1.1-8.4,7.9-8.4h94.8c6.8,0,7.9,3.8,7.9,8.4
		C161.4,328.3,160.3,332.1,153.5,332.1z"/>
</g>
<g>
	<path class="st6" d="M343.1,97.3h-158c-6.8,0-7.9-3.8-7.9-8.4c0-4.6,1.1-8.4,7.9-8.4h158c6.8,0,7.9,3.8,7.9,8.4
		C351,93.6,349.9,97.3,343.1,97.3z"/>
</g>
<g>
	<path class="st6" d="M311.5,130.9h-94.8c-6.8,0-7.9-3.8-7.9-8.4c0-4.6,1.1-8.4,7.9-8.4h94.8c6.8,0,7.9,3.8,7.9,8.4
		C319.4,127.1,318.3,130.9,311.5,130.9z"/>
</g>
<g>
	<path class="st6" d="M256.2,265H58.7c-6.8,0-7.9-3.8-7.9-8.4c0-4.6,1.1-8.4,7.9-8.4h197.5c6.8,0,7.9,3.8,7.9,8.4
		C264.1,261.2,263,265,256.2,265z"/>
</g>
<g>
	<path class="st6" d="M303.6,231.5H58.7c-6.8,0-7.9-3.8-7.9-8.4s1.1-8.4,7.9-8.4h244.9c6.8,0,7.9,3.8,7.9,8.4
		S310.4,231.5,303.6,231.5z"/>
</g>
<g>
	<path class="st6" d="M303.6,197.9H58.7c-6.8,0-7.9-3.8-7.9-8.4c0-4.6,1.1-8.4,7.9-8.4h244.9c6.8,0,7.9,3.8,7.9,8.4
		C311.5,194.2,310.4,197.9,303.6,197.9z"/>
</g>
<polygon class="st7" points="399.7,239.4 382.6,223.1 381.6,224.1 333.5,355.4 336.1,356.3 343.1,379.5 359.7,375.7 411.4,236.8 "/>
<polygon class="st7" points="382.6,390.7 399.7,374.4 422.2,379.5 429.2,356.3 451.1,348.8 446.3,325 461.7,306.9 446.3,288.8 
	451.1,265 429.2,257.5 425.1,244.1 373.8,382.2 "/>
<path class="st8" d="M382.6,281.8c-13.1,0-23.7,11.3-23.7,25.1c0,13.9,10.6,25.1,23.7,25.1c13.1,0,23.7-11.3,23.7-25.1
	C406.3,293,395.7,281.8,382.6,281.8z"/>
<polygon class="st5" points="382.6,399.1 422.2,382.4 422.2,491.3 382.6,466.2 "/>
</svg>
