<?xml version="1.0" encoding="utf-8"?>
<!-- Generator: Adobe Illustrator 21.0.2, SVG Export Plug-In . SVG Version: 6.00 Build 0)  -->
<svg version="1.1" id="Layer_1" xmlns="http://www.w3.org/2000/svg" xmlns:xlink="http://www.w3.org/1999/xlink" x="0px" y="0px"
	 viewBox="0 0 455.4 455.4" style="enable-background:new 0 0 455.4 455.4;" xml:space="preserve">
<style type="text/css">
	.st0{fill:#F6B74E;}
	.st1{fill:#35495C;}
	.st2{fill:#D89C44;}
	.st3{fill:#C58F3E;}
	.st4{fill:#113247;}
</style>
<g>
	<path class="st0" d="M410.9,389.4l21-182.3H25.3l21,182.3c0,23.1,18.9,42.1,42.1,42.1h280.5C392,431.5,410.9,412.5,410.9,389.4z"/>
	<g>
		<path class="st1" d="M94.3,190.6c-2.6,2.9-7.1,3.2-10.1,0.7l-21.5-18.7c-2.9-2.6-3.2-7.1-0.7-10L180.7,27.2
			c2.6-2.9,7.1-3.2,10.1-0.7l21.5,18.7c2.9,2.6,3.2,7.1,0.7,10L94.3,190.6z"/>
	</g>
	<g>
		<path class="st1" d="M363,190.6c2.6,2.9,7.1,3.2,10.1,0.7l21.5-18.7c2.9-2.6,3.2-7.1,0.7-10L276.6,27.2c-2.6-2.9-7.1-3.2-10.1-0.7
			l-21.5,18.7c-2.9,2.6-3.2,7.1-0.7,10L363,190.6z"/>
	</g>
	<path class="st2" d="M214.6,368.4C214.6,368.3,214.6,368.3,214.6,368.4v-77.1c0,0,0,0,0,0c0-7.7-6.3-14-14-14c-7.7,0-14,6.3-14,14
		l0,0v77.1l0,0l0,0c0,7.8,6.3,14,14,14C208.3,382.4,214.6,376.1,214.6,368.4z"/>
	<path class="st3" d="M193.6,375.4v-77.1c0-7.8,6.3-14,14-14c2.1,0,4,0.5,5.8,1.3c-2.2-4.9-7.1-8.3-12.8-8.3c-7.7,0-14,6.3-14,14
		v77.1c0,5.7,3.4,10.6,8.3,12.8C194,379.4,193.6,377.4,193.6,375.4z"/>
	<path class="st2" d="M326.8,368.4C326.8,368.3,326.8,368.3,326.8,368.4v-77.1c0,0,0,0,0,0c0-7.7-6.3-14-14-14c-7.7,0-14,6.3-14,14
		l0,0v77.1l0,0l0,0c0,7.8,6.3,14,14,14C320.5,382.4,326.8,376.1,326.8,368.4z"/>
	<path class="st2" d="M270.7,368.4C270.7,368.3,270.7,368.3,270.7,368.4v-77.1c0,0,0,0,0,0c0-7.7-6.3-14-14-14c-7.7,0-14,6.3-14,14
		l0,0v77.1l0,0l0,0c0,7.8,6.3,14,14,14C264.4,382.4,270.7,376.1,270.7,368.4z"/>
	<path class="st2" d="M158.5,368.4C158.5,368.3,158.5,368.3,158.5,368.4v-77.1c0,0,0,0,0,0c0-7.7-6.3-14-14-14c-7.7,0-14,6.3-14,14
		l0,0v77.1l0,0l0,0c0,7.8,6.3,14,14,14C152.2,382.4,158.5,376.1,158.5,368.4z"/>
	<path class="st0" d="M453,214.1c0,7.7-6.3,14-14,14H18.3c-7.7,0-14-6.3-14-14V158c0-7.7,6.3-14,14-14H439c7.7,0,14,6.3,14,14V214.1
		z"/>
	<path class="st1" d="M91.9,186c0,7.7-6.3,14-14,14s-14-6.3-14-14c0-7.8,6.3-14,14-14S91.9,178.3,91.9,186z"/>
	<path class="st2" d="M429.6,228.1H27.7l0.2,1.6c0.8,7.1,6.8,12.4,13.9,12.4h172.8c7.7,0,14,6.3,14,14v147.3c0,7.7-6.3,14-14,14
		H57.1c7.7,8.6,18.9,14,31.2,14h140.2h140.2c23.1,0,42.1-18.9,42.1-42.1l17-147.3h0L429.6,228.1z"/>
	<path class="st2" d="M214.6,207.1H4.2v7c0,7.7,6.3,14,14,14H439c7.7,0,14-6.3,14-14V158H242.6c-7.7,0-14,6.3-14,14v21
		C228.6,200.8,222.3,207.1,214.6,207.1z"/>
	<path class="st3" d="M137.5,375.4v-77.1c0-7.8,6.3-14,14-14c2.1,0,4,0.5,5.8,1.3c-2.2-4.9-7.1-8.3-12.8-8.3c-7.7,0-14,6.3-14,14
		v77.1c0,5.7,3.4,10.6,8.3,12.8C137.9,379.4,137.5,377.4,137.5,375.4z"/>
	<path class="st3" d="M249.7,375.4v-77.1c0-7.8,6.3-14,14-14c2.1,0,4,0.5,5.8,1.3c-2.2-4.9-7.1-8.3-12.8-8.3c-7.7,0-14,6.3-14,14
		v77.1c0,5.7,3.4,10.6,8.3,12.8C250.1,379.4,249.7,377.4,249.7,375.4z"/>
	<path class="st3" d="M305.8,375.4v-77.1c0-7.8,6.3-14,14-14c2.1,0,4,0.5,5.8,1.3c-2.2-4.9-7.1-8.3-12.8-8.3c-7.7,0-14,6.3-14,14
		v77.1c0,5.7,3.4,10.6,8.3,12.8C306.2,379.4,305.8,377.4,305.8,375.4z"/>
	<path class="st1" d="M386.4,186c0,7.7-6.3,14-14,14c-7.7,0-14-6.3-14-14c0-7.8,6.3-14,14-14C380.1,172,386.4,178.3,386.4,186z"/>
	<polygon class="st4" points="378.9,144 366.6,129.9 309.8,129.9 322.1,144 	"/>
	<polygon class="st4" points="78.3,144 90.6,129.9 147.4,129.9 135.2,144 	"/>
</g>
</svg>
