<svg id="Capa_1" enable-background="new 0 0 512 512" height="512" viewBox="0 0 512 512" width="512" xmlns="http://www.w3.org/2000/svg"><path d="m185.135 207.913v-17.304c0-4.447 3.605-8.053 8.053-8.053h125.626c4.447 0 8.053 3.605 8.053 8.053v17.304c0 4.447-3.605 8.053-8.053 8.053h-125.627c-4.447-.001-8.052-3.606-8.052-8.053z" fill="#efecef"/><path d="m303.964 182.556h-95.928v-20.175c0-2.698 2.187-4.886 4.886-4.886h86.157c2.698 0 4.886 2.187 4.886 4.886v20.175z" fill="#d3ced5"/><path d="m224.042 91.494h63.915v20.351c0 2.698-2.187 4.886-4.886 4.886h-54.144c-2.698 0-4.886-2.187-4.886-4.886v-20.351z" fill="#dd636e"/><path d="m242.24 116.731h27.52v40.764h-27.52z" fill="#958b95"/><path d="m337.598 60.44h-163.196c-8.575 0-15.527 6.952-15.527 15.527s6.952 15.527 15.527 15.527h163.195c8.575 0 15.527-6.952 15.527-15.527s-6.951-15.527-15.526-15.527z" fill="#e4989d"/><path d="m426.001 451.56h30.722c5.253 0 9.511-4.258 9.511-9.511v-79.997c0-5.253-4.258-9.511-9.511-9.511h-30.722c-5.253 0-9.511 4.258-9.511 9.511v79.997c0 5.252 4.258 9.511 9.511 9.511z" fill="#efecef"/><path d="m85.999 451.56h-30.722c-5.253 0-9.511-4.258-9.511-9.511v-79.997c0-5.253 4.258-9.511 9.511-9.511h30.722c5.253 0 9.511 4.258 9.511 9.511v79.997c0 5.252-4.258 9.511-9.511 9.511z" fill="#efecef"/><path d="m45.766 362.051v79.997h-44.566c-.663 0-1.2-.537-1.2-1.2v-77.6c0-.663.537-1.2 1.2-1.2h44.566zm370.724-.003h-16.285c-1.276 0-2.31-1.034-2.31-2.31v-81.509c0-34.387-27.876-62.264-62.264-62.264h-158.276c-34.388 0-62.265 27.877-62.265 62.265v81.508c0 1.276-1.034 2.31-2.31 2.31h-17.27v80h37.316c34.388 0 62.265-27.877 62.265-62.265v-81.509c0-1.276 1.034-2.31 2.31-2.31h118.184c1.276 0 2.31 1.034 2.31 2.31v81.509c0 34.388 27.877 62.265 62.265 62.265h36.331c-.001 0-.001-79.999-.001-80zm94.31 0h-44.566v80h44.564c.664 0 1.202-.538 1.202-1.202v-77.598c0-.662-.537-1.2-1.2-1.2z" fill="#d3ced5"/><path d="m357.895 258.229v65.224c0 10.27 8.325 18.595 18.595 18.595.002.001.222.001 21.405.002v-63.822c0-32.369-24.7-58.969-56.28-61.98 10.111 11.072 16.28 25.806 16.28 41.981z" fill="#d3ced5"/><path d="m319.052 294.561c0-10.27-8.325-18.595-18.595-18.595h-126.771c-10.27 0-18.595 8.325-18.595 18.595v65.223c0 33.489-26.438 60.802-59.581 62.208v20.057h37.316c34.388 0 62.265-27.877 62.265-62.265v-81.508c0-1.276 1.034-2.31 2.31-2.31h121.651z" fill="#c3bec6"/><path d="m1.2 442.048h44.566v-80h-44.566c-.663 0-1.2.537-1.2 1.2v77.6c0 .663.537 1.2 1.2 1.2z" fill="#d3ced5"/><g fill="#c3bec6"><path d="m1.2 442.048h44.566v-20h-45.766v18.8c0 .663.537 1.2 1.2 1.2z"/><path d="m340.159 422.048c-2.019 0-4.014-.096-5.984-.284 11.386 12.464 27.772 20.284 45.984 20.284h36.331v-20z"/><path d="m510.798 362.048h-44.564v80h44.564c.664 0 1.202-.538 1.202-1.202v-77.596c0-.663-.538-1.202-1.202-1.202z"/></g><path d="m433.861 352.54v99.02h15v-99.02z" fill="#e2dfe2"/><path d="m63.139 352.54v99.02h15v-99.02z" fill="#e2dfe2"/></svg>