<?xml version="1.0" encoding="utf-8"?>
<!-- Generator: Adobe Illustrator 21.0.2, SVG Export Plug-In . SVG Version: 6.00 Build 0)  -->
<svg version="1.1" id="Layer_1" xmlns="http://www.w3.org/2000/svg" xmlns:xlink="http://www.w3.org/1999/xlink" x="0px" y="0px"
	 viewBox="0 0 512 512" style="enable-background:new 0 0 512 512;" xml:space="preserve">
<style type="text/css">
	.st0{fill:#35495C;}
	.st1{fill:#113247;}
	.st2{fill:#83BD5A;}
	.st3{fill:#F6B74E;}
	.st4{fill:#D89C44;}
	.st5{fill:#6FA04E;}
	.st6{fill:#F05642;}
	.st7{fill:#D2453C;}
</style>
<g>
	<path class="st0" d="M375.5,494.3c0,8.7-7.1,15.8-15.8,15.8H153.8c-8.7,0-15.8-7.1-15.8-15.8V19.2c0-8.7,7.1-15.8,15.8-15.8h205.9
		c8.7,0,15.8,7.1,15.8,15.8V494.3z"/>
	<path class="st1" d="M272.5,19.2c-8.7,0-15.8,7.1-15.8,15.8v134.6c-27.9,0-50.9-20.7-54.8-47.5c-0.4,2.6-0.6,5.2-0.6,7.9
		c0,26.4,18.4,48.4,43.1,54c7.2,1.6,12.3,8,12.3,15.4v112.7c-27.9,0-50.9-20.7-54.8-47.5c-0.4,2.6-0.6,5.2-0.6,7.9
		c0,26.4,18.4,48.4,43.1,54c7.2,1.6,12.3,8,12.3,15.4v112.7c-27.9,0-50.9-20.7-54.8-47.5c-0.4,2.6-0.6,5.2-0.6,7.9
		c0,25.7,17.5,47.4,41.3,53.6c9.9,2.6,9,17.4-1.3,17.6c-0.1,0-0.3,0-0.5,0H137.9v7.9c0,8.7,7.1,15.8,15.8,15.8h102.9h102.9
		c8.7,0,15.8-7.1,15.8-15.8V19.2H272.5z"/>
	<circle class="st2" cx="256.7" cy="114.2" r="55.4"/>
	<circle class="st3" cx="256.7" cy="256.7" r="55.4"/>
	<path class="st4" d="M256.7,217.1c27.9,0,50.9,20.7,54.8,47.5c0.4-2.6,0.6-5.2,0.6-7.9c0-30.6-24.8-55.4-55.4-55.4
		s-55.4,24.8-55.4,55.4c0,2.7,0.3,5.3,0.6,7.9C205.7,237.8,228.8,217.1,256.7,217.1z"/>
	<path class="st5" d="M256.7,74.6c27.9,0,50.9,20.7,54.8,47.5c0.4-2.6,0.6-5.2,0.6-7.9c0-30.6-24.8-55.4-55.4-55.4
		s-55.4,24.8-55.4,55.4c0,2.7,0.3,5.3,0.6,7.9C205.7,95.3,228.8,74.6,256.7,74.6z"/>
	<circle class="st6" cx="256.7" cy="399.2" r="55.4"/>
	<path class="st7" d="M256.7,359.6c27.9,0,50.9,20.7,54.8,47.5c0.4-2.6,0.6-5.2,0.6-7.9c0-30.6-24.8-55.4-55.4-55.4
		s-55.4,24.8-55.4,55.4c0,2.7,0.3,5.3,0.6,7.9C205.7,380.3,228.8,359.6,256.7,359.6z"/>
	<path class="st0" d="M430.9,58.8h-55.4v95c36.1-7.3,63.3-40.9,63.3-79.2v-7.9C438.8,62.3,435.2,58.8,430.9,58.8z"/>
	<path class="st0" d="M430.9,201.3h-55.4v95c36.1-7.3,63.3-40.9,63.3-79.2v-7.9C438.8,204.9,435.2,201.3,430.9,201.3z"/>
	<path class="st0" d="M430.9,343.8h-55.4v95c36.1-7.3,63.3-40.9,63.3-79.2v-7.9C438.8,347.4,435.2,343.8,430.9,343.8z"/>
	<path class="st0" d="M82.5,58.8h55.4v95c-36.1-7.3-63.3-40.9-63.3-79.2v-7.9C74.6,62.3,78.1,58.8,82.5,58.8z"/>
	<path class="st0" d="M82.5,201.3h55.4v95c-36.1-7.3-63.3-40.9-63.3-79.2v-7.9C74.6,204.9,78.1,201.3,82.5,201.3z"/>
	<path class="st0" d="M82.5,343.8h55.4v95c-36.1-7.3-63.3-40.9-63.3-79.2v-7.9C74.6,347.4,78.1,343.8,82.5,343.8z"/>
	<path class="st1" d="M395,418.8c-7.4-7.4-11.6-17.5-11.6-28v-46.9h-7.9v55.4v39.6c10.1-2,19.4-6.2,27.7-11.9L395,418.8z"/>
	<path class="st1" d="M395,276.2c-7.4-7.4-11.6-17.5-11.6-28v-46.9h-7.9v55.4v39.6c10.1-2,19.4-6.2,27.7-11.9L395,276.2z"/>
	<path class="st1" d="M395,133.7c-7.4-7.4-11.6-17.5-11.6-28V58.8h-7.9v55.4v39.6c10.1-2,19.4-6.2,27.7-11.9L395,133.7z"/>
	<path class="st1" d="M118.4,418.8c7.4-7.4,11.6-17.5,11.6-28v-46.9h7.9v55.4v39.6c-10.1-2-19.4-6.2-27.7-11.9L118.4,418.8z"/>
	<path class="st1" d="M118.4,276.2c7.4-7.4,11.6-17.5,11.6-28v-46.9h7.9v55.4v39.6c-10.1-2-19.4-6.2-27.7-11.9L118.4,276.2z"/>
	<path class="st1" d="M118.4,133.7c7.4-7.4,11.6-17.5,11.6-28V58.8h7.9v55.4v39.6c-10.1-2-19.4-6.2-27.7-11.9L118.4,133.7z"/>
</g>
</svg>
