<?xml version="1.0" encoding="utf-8"?>
<!-- Generator: Adobe Illustrator 21.0.2, SVG Export Plug-In . SVG Version: 6.00 Build 0)  -->
<svg version="1.1" id="Layer_1" xmlns="http://www.w3.org/2000/svg" xmlns:xlink="http://www.w3.org/1999/xlink" x="0px" y="0px"
	 viewBox="0 0 512 512" style="enable-background:new 0 0 512 512;" xml:space="preserve">
<style type="text/css">
	.st0{fill:#113247;}
	.st1{fill:#576D7E;}
	.st2{fill:#50BEE7;}
	.st3{fill:#FFFFFF;}
</style>
<g>
	<g>
		<path class="st0" d="M79.6,154.8L44.4,303.2h110.2c8.6,0,15.6,7,15.6,15.6c0,47.4,15.6,46.9,85.9,46.9s85.9,0.5,85.9-46.9
			c0-8.6,7-15.6,15.6-15.6H468l-35.2-148.4H79.6z"/>
	</g>
	<g>
		<path class="st1" d="M506.1,318.9c0-1.8-0.3-3.7-0.9-5.5l-46.9-179.7c-2.3-6.1-8.1-10.1-14.6-10.1H68.8c-6.5,0-12.3,4-14.6,10.1
			L7.3,313.4c-0.7,1.8-0.9,3.7-0.9,5.5h0v132.8c0,17.2,14.1,31.2,31.2,31.2h437.4c17.2,0,31.2-14.1,31.2-31.2L506.1,318.9
			L506.1,318.9z M79.6,154.8h353.3L468,303.2H357.8c-8.6,0-15.6,7-15.6,15.6c0,47.4-15.6,46.9-85.9,46.9s-85.9,0.5-85.9-46.9
			c0-8.6-7-15.6-15.6-15.6H44.4L79.6,154.8z"/>
	</g>
	<g>
		<g>
			<path class="st2" d="M154.7,131.4c0-56.1,45.5-101.5,101.5-101.5c56.1,0,101.5,45.5,101.5,101.5s-45.5,101.5-101.5,101.5
				C200.1,232.9,154.7,187.5,154.7,131.4z"/>
		</g>
		<g>
			<path class="st3" d="M207.2,143.4c6.6,5.5,16.5,4.6,22-2l11.4-13.7v50.6c0,8.6,7,15.6,15.6,15.6c8.6,0,15.6-7,15.6-15.6v-50.6
				l11.4,13.7c5.5,6.6,15.4,7.5,22,2c6.6-5.5,7.5-15.4,2-22l-39.1-46.9c-3-3.6-7.4-5.6-12-5.6c-4.6,0-9,2.1-12,5.6l-39.1,46.9
				C199.6,128,200.5,137.9,207.2,143.4z"/>
		</g>
	</g>
</g>
</svg>
