<?xml version="1.0" encoding="utf-8"?>
<!-- Generator: Adobe Illustrator 21.0.2, SVG Export Plug-In . SVG Version: 6.00 Build 0)  -->
<svg version="1.1" id="Layer_1" xmlns="http://www.w3.org/2000/svg" xmlns:xlink="http://www.w3.org/1999/xlink" x="0px" y="0px"
	 viewBox="0 0 512 512" style="enable-background:new 0 0 512 512;" xml:space="preserve">
<style type="text/css">
	.st0{fill:#C9D1D7;}
	.st1{fill:#E2E4E6;}
	.st2{fill:#35495C;}
	.st3{fill:#50BEE7;}
	.st4{fill:#46A6CB;}
	.st5{fill:#253647;}
	.st6{fill:#8FC560;}
	.st7{fill:#6EA740;}
	.st8{fill:#73AE43;}
</style>
<g>
	<path class="st0" d="M361.4,55V21.4c0-9.3-7.5-16.8-16.8-16.8H142.9c-9.3,0-16.8,7.5-16.8,16.8V55H361.4z"/>
	<path class="st1" d="M411.8,55H75.7c-9.3,0-16.8,7.5-16.8,16.8v420.1c0,9.3,7.5,16.8,16.8,16.8h336.1c9.3,0,16.8-7.5,16.8-16.8
		V71.8C428.6,62.5,421.1,55,411.8,55z"/>
	<g>
		<rect x="126.1" y="433.1" class="st2" width="33.6" height="75.6"/>
		<rect x="193.3" y="433.1" class="st2" width="33.6" height="75.6"/>
		<rect x="327.8" y="433.1" class="st2" width="33.6" height="75.6"/>
		<rect x="260.5" y="433.1" class="st2" width="33.6" height="75.6"/>
	</g>
	<g>
		<path class="st2" d="M437,63.4c0,4.6-3.8,8.4-8.4,8.4H58.9c-4.6,0-8.4-3.8-8.4-8.4V55c0-4.6,3.8-8.4,8.4-8.4h369.7
			c4.6,0,8.4,3.8,8.4,8.4V63.4z"/>
	</g>
	<g>
		<polygon class="st0" points="428.6,139 58.9,88.6 58.9,71.8 428.6,71.8 		"/>
	</g>
	<g>
		<rect x="126.1" y="71.8" class="st3" width="33.6" height="327.7"/>
	</g>
	<polygon class="st4" points="159.7,102.4 159.7,71.8 126.1,71.8 126.1,97.8 	"/>
	<g>
		<rect x="193.3" y="71.8" class="st3" width="33.6" height="327.7"/>
	</g>
	<polygon class="st4" points="226.9,111.5 226.9,71.8 193.3,71.8 193.3,107 	"/>
	<g>
		<rect x="327.8" y="71.8" class="st3" width="33.6" height="327.7"/>
	</g>
	<polygon class="st4" points="361.4,129.9 361.4,71.8 327.8,71.8 327.8,125.3 	"/>
	<g>
		<rect x="260.5" y="71.8" class="st3" width="33.6" height="327.7"/>
	</g>
	<polygon class="st4" points="294.1,120.7 294.1,71.8 260.5,71.8 260.5,116.1 	"/>
	<rect x="126.1" y="97" class="st4" width="8.4" height="302.5"/>
	<rect x="193.3" y="97" class="st4" width="8.4" height="302.5"/>
	<rect x="260.5" y="97" class="st4" width="8.4" height="302.5"/>
	<rect x="327.8" y="97" class="st4" width="8.4" height="302.5"/>
	<rect x="260.5" y="433.1" class="st5" width="33.6" height="8.4"/>
	<rect x="126.1" y="433.1" class="st5" width="33.6" height="8.4"/>
	<rect x="327.8" y="433.1" class="st5" width="33.6" height="8.4"/>
	<rect x="193.3" y="433.1" class="st5" width="33.6" height="8.4"/>
	<g>
		<path class="st6" d="M94.1,508.7c4.3-6.1,6.8-13.4,6.8-21.4c0-20.7-16.9-37.4-37.8-37.4c-20.9,0-37.8,16.8-37.8,37.4
			c0,8,2.5,15.3,6.8,21.4H94.1z"/>
	</g>
	<g>
		<path class="st7" d="M451,508.7c3.5-4.9,5.6-10.7,5.6-17.1c0-16.5-13.8-29.9-30.8-29.9c-17,0-30.8,13.4-30.8,29.9
			c0,6.4,2.1,12.3,5.5,17.1H451z"/>
	</g>
	<g>
		<path class="st6" d="M480.7,508.7c4.2-6.1,6.7-13.4,6.7-21.4c0-20.7-16.6-37.4-37-37.4c-20.4,0-37,16.8-37,37.4
			c0,8,2.5,15.3,6.7,21.4H480.7z"/>
	</g>
	<path class="st8" d="M415.8,463.4c-12.1,4-20.9,15.1-20.9,28.2c0,6.4,2.1,12.3,5.5,17.1h13.4c-4.2-6.1-6.7-13.4-6.7-21.4
		C407.3,478.2,410.5,469.9,415.8,463.4z"/>
	<g>
		<path class="st8" d="M85.7,457.3c4.7,6.1,7.7,13.7,7.7,22c0,12.1-6.1,22.7-15.3,29.4h16.1c4.8-6.2,6.8-13.7,6.8-22.1
			C100.9,474.6,94.9,464,85.7,457.3z"/>
	</g>
	<g>
		<path class="st8" d="M472.5,457.3c4.6,6.1,7.5,13.7,7.5,22c0,12.1-5.9,22.7-15,29.4h15.7c4.7-6.2,6.7-13.7,6.7-22.1
			C487.4,474.6,481.5,464,472.5,457.3z"/>
	</g>
</g>
</svg>
