<?xml version="1.0" encoding="utf-8"?>
<!-- Generator: Adobe Illustrator 21.0.2, SVG Export Plug-In . SVG Version: 6.00 Build 0)  -->
<svg version="1.1" id="Capa_1" xmlns="http://www.w3.org/2000/svg" xmlns:xlink="http://www.w3.org/1999/xlink" x="0px" y="0px"
	 viewBox="0 0 512 512" style="enable-background:new 0 0 512 512;" xml:space="preserve">
<style type="text/css">
	.st0{fill:#969DAB;}
	.st1{fill:#D04B39;}
	.st2{fill:#F05642;}
	.st3{fill:#576D7E;}
</style>
<path class="st0" d="M268.8,127.9c-39-17.1-67.6-37.6-83.8-59.5h51.7c9.2,0,16.7-7,16.7-15.7s-7.5-15.7-16.7-15.7h-65.8
	c-0.5-3.1-0.9-6.3-0.9-9.4v-6.3c0-8.7-7.5-15.7-16.7-15.7c-9.2,0-16.7,7-16.7,15.7v6.3c0,49.7,41.9,95.3,118,128.6
	c35.2,15.4,62,33.7,78.8,53.2h-46.7c-9.2,0-16.7,7-16.7,15.7s7.5,15.7,16.7,15.7h64.4c1.5,5.2,2.3,10.4,2.3,15.7
	c0,5.4-0.8,10.6-2.2,15.7h-64.5c-9.2,0-16.7,7-16.7,15.7s7.5,15.7,16.7,15.7h46.8c-10.6,12.3-23.9,22.6-36.1,30.6
	c-7.6,4.9-9.5,14.7-4.3,21.8c3.2,4.4,8.5,6.8,13.8,6.8c3.3,0,6.6-0.9,9.4-2.8c46.1-29.8,70.4-65.6,70.4-103.4
	C386.8,206.8,344.9,161.2,268.8,127.9z"/>
<path class="st1" d="M262,356.7c-35.2-15.4-62-33.7-78.8-53.2H230c9.2,0,16.7-7,16.7-15.7s-7.5-15.7-16.7-15.7h-64.4
	c-1.5-5.2-2.3-10.4-2.3-15.7c0-5.4,0.8-10.6,2.2-15.7H230c9.2,0,16.7-7,16.7-15.7s-7.5-15.7-16.7-15.7h-46.8
	c10.3-12,23.1-22,34.9-29.7c7.6-5,9.4-14.7,4.1-21.8c-5.3-7.1-15.7-8.8-23.2-3.9c-45.2,29.6-69.1,65.1-69.1,102.4
	c0,49.7,41.9,95.3,118,128.6c39,17.1,67.6,37.6,83.8,59.5H280c-9.2,0-16.7,7-16.7,15.7s7.5,15.7,16.7,15.7h65.8
	c0.5,3.1,0.9,6.3,0.9,9.4v6.3c0,8.7,7.5,15.7,16.7,15.7c9.2,0,16.7-7,16.7-15.7v-6.3C380.1,435.7,338.1,390,262,356.7z"/>
<g>
	<g>
		<path class="st2" d="M365.1,5.7c-9.2,0-16.7,7-16.7,15.7v6.3c0,3.2-0.4,6.3-0.9,9.4h-65.8c-9.2,0-16.7,7-16.7,15.7
			s7.5,15.7,16.7,15.7h51.9c-11.2,15.1-26.9,27.6-41.2,36.8c-7.6,4.9-9.5,14.7-4.3,21.8c3.2,4.4,8.5,6.8,13.8,6.8
			c3.3,0,6.6-0.9,9.4-2.8c46.1-29.8,70.4-65.6,70.4-103.4v-6.3C381.8,12.7,374.3,5.7,365.1,5.7z"/>
		<path class="st2" d="M268.8,356.7c-35.2-15.4-62-33.7-78.8-53.2h46.7c9.2,0,16.7-7,16.7-15.7s-7.5-15.7-16.7-15.7h-64.4
			c-1.5-5.2-2.3-10.4-2.3-15.7c0-5.4,0.8-10.6,2.2-15.7h64.5c9.2,0,16.7-7,16.7-15.7s-7.5-15.7-16.7-15.7h-46.8
			c10.3-12,23.1-22,34.9-29.7c7.6-5,9.4-14.7,4.1-21.8c-5.3-7.1-15.7-8.8-23.2-3.9c-45.2,29.6-69.1,65.1-69.1,102.4
			c0,49.7,41.9,95.3,118,128.6c39,17.1,67.6,37.6,83.8,59.5h-51.7c-9.2,0-16.7,7-16.7,15.7s7.5,15.7,16.7,15.7h65.8
			c0.5,3.1,0.9,6.3,0.9,9.4v6.3c0,8.7,7.5,15.7,16.7,15.7c9.2,0,16.7-7,16.7-15.7v-6.3C386.8,435.7,344.9,390,268.8,356.7z"/>
	</g>
	<g>
		<path class="st3" d="M263.8,127.9c-39-17.1-67.6-37.6-83.8-59.5h51.7c9.2,0,16.7-7,16.7-15.7s-7.5-15.7-16.7-15.7h-65.8
			c-0.5-3.1-0.9-6.3-0.9-9.4v-6.3c0-8.7-7.5-15.7-16.7-15.7c-9.2,0-16.7,7-16.7,15.7v6.3c0,49.7,41.9,95.3,118,128.6
			c35.2,15.4,62,33.7,78.8,53.2h-46.7c-9.2,0-16.7,7-16.7,15.7s7.5,15.7,16.7,15.7h64.4c1.5,5.2,2.3,10.4,2.3,15.7
			c0,5.4-0.8,10.6-2.2,15.7h-64.5c-9.2,0-16.7,7-16.7,15.7s7.5,15.7,16.7,15.7h46.8c-10.6,12.3-23.9,22.6-36.1,30.6
			c-7.6,4.9-9.5,14.7-4.3,21.8c3.2,4.4,8.5,6.8,13.8,6.8c3.3,0,6.6-0.9,9.4-2.8c46.1-29.8,70.4-65.6,70.4-103.4
			C381.8,206.8,339.9,161.2,263.8,127.9z"/>
		<path class="st3" d="M231.7,444.6h-51.8c10.9-14.8,26.1-26.9,39.9-36c7.6-5,9.4-14.7,4.1-21.8c-5.3-7.1-15.7-8.8-23.2-3.9
			c-45.2,29.6-69.1,65.1-69.1,102.4v6.3c0,8.7,7.5,15.7,16.7,15.7c9.2,0,16.7-7,16.7-15.7v-6.3c0-3.2,0.3-6.3,0.9-9.4h65.8
			c9.2,0,16.7-7,16.7-15.7S240.9,444.6,231.7,444.6z"/>
	</g>
</g>
</svg>
