<?xml version="1.0" encoding="utf-8"?>
<!-- Generator: Adobe Illustrator 21.0.2, SVG Export Plug-In . SVG Version: 6.00 Build 0)  -->
<svg version="1.1" id="Layer_1" xmlns="http://www.w3.org/2000/svg" xmlns:xlink="http://www.w3.org/1999/xlink" x="0px" y="0px"
	 viewBox="0 0 512 512" style="enable-background:new 0 0 512 512;" xml:space="preserve">
<style type="text/css">
	.st0{fill:#4D6D98;}
	.st1{fill:#CDDFEF;}
	.st2{fill:#80A7C9;}
	.st3{fill:#D4E7F7;}
	.st4{fill:#A1C6E0;}
	.st5{fill:#7AA1C1;}
	.st6{fill:#FFFFFF;}
</style>
<g>
	<polygon class="st0" points="507.5,147.2 256.7,507.7 357,147.2 	"/>
	<polygon class="st1" points="256.7,507.7 5.9,147.2 156.4,147.2 	"/>
	<polygon class="st2" points="507.5,147.2 357,147.2 290.1,6.2 390.5,6.2 	"/>
	<polygon class="st3" points="223.3,6.2 156.4,147.2 5.9,147.2 122.9,6.2 	"/>
	<polygon class="st4" points="357,147.2 156.4,147.2 223.3,6.2 290.1,6.2 	"/>
	<polygon class="st5" points="357,147.2 256.7,507.7 156.4,147.2 	"/>
	<path class="st6" d="M178.3,139.4c-8.6,0-15.7-7-15.7-15.7c0-4.3-3.5-7.8-7.8-7.8c-4.3,0-7.8,3.5-7.8,7.8c0,8.6-7,15.7-15.7,15.7
		c-4.3,0-7.8,3.5-7.8,7.8s3.5,7.8,7.8,7.8c8.6,0,15.7,7,15.7,15.7c0,4.3,3.5,7.8,7.8,7.8c4.3,0,7.8-3.5,7.8-7.8
		c0-8.6,7-15.7,15.7-15.7c4.3,0,7.8-3.5,7.8-7.8S182.7,139.4,178.3,139.4z"/>
</g>
</svg>
