<?xml version="1.0" encoding="utf-8"?>
<!-- Generator: Adobe Illustrator 21.0.2, SVG Export Plug-In . SVG Version: 6.00 Build 0)  -->
<svg version="1.1" id="Capa_1" xmlns="http://www.w3.org/2000/svg" xmlns:xlink="http://www.w3.org/1999/xlink" x="0px" y="0px"
	 viewBox="0 0 512 512" style="enable-background:new 0 0 512 512;" xml:space="preserve">
<style type="text/css">
	.st0{fill:#83BD5A;}
	.st1{fill:#6FA04E;}
	.st2{fill:#576D7E;}
	.st3{fill:#35495C;}
	.st4{fill:#B1C3D0;}
	.st5{fill:#113247;}
	.st6{fill:#E2E4E6;}
	.st7{fill:#FFFFFF;}
	.st8{fill:#89D6F7;}
	.st9{fill:#ABE0F9;}
	.st10{fill:#8EADBE;}
	.st11{fill:#77C1DE;}
</style>
<g>
	<g>
		<path class="st0" d="M34.8,415.2V19.1c0-8.8,7.1-15.8,15.8-15.8h412c8.8,0,15.8,7.1,15.8,15.8v396.1H34.8z"/>
	</g>
	<path class="st1" d="M256.6,42.9v340.7c0,8.8-7.1,15.8-15.8,15.8h-206v15.8h221.8h221.8V27h-206C263.7,27,256.6,34.1,256.6,42.9z"
		/>
	<path class="st2" d="M407.2,272.6V137.9c0-17.4-14.3-31.7-31.7-31.7H137.8c-17.4,0-31.7,14.3-31.7,31.7v134.7
		c0,0-47.5,13.4-47.5,39.6l0.5,103c0,8.8,7.1,15.8,15.8,15.8h364c8.8,0,15.8-7.1,15.8-15.8v-103C454.7,286,407.2,272.6,407.2,272.6z
		"/>
	<path class="st3" d="M407.2,272.6V137.9c0-5.8-1.7-11.2-4.4-15.8H272.5c-8.8,0-15.8,7.1-15.8,15.8v245.6c0,8.8-7.1,15.8-15.8,15.8
		H58.6v15.8h198.1v15.8h182.2c8.8,0,15.8-7.1,15.8-15.8v-103C454.7,286,407.2,272.6,407.2,272.6z"/>
	<g>
		<path class="st3" d="M145.7,510.3H98.2c-8.8,0-15.8-7.1-15.8-15.8v-47.5c0-8.8,7.1-15.8,15.8-15.8h47.5c8.8,0,15.8,7.1,15.8,15.8
			v47.5C161.6,503.2,154.5,510.3,145.7,510.3z"/>
	</g>
	<g>
		<path class="st3" d="M415.1,510.3h-47.5c-8.8,0-15.8-7.1-15.8-15.8v-47.5c0-8.8,7.1-15.8,15.8-15.8h47.5c8.8,0,15.8,7.1,15.8,15.8
			v47.5C430.9,503.2,423.9,510.3,415.1,510.3z"/>
	</g>
	<g>
		<path class="st4" d="M502.2,454.8c0,4.4-3.6,7.9-7.9,7.9H19c-4.4,0-7.9-3.6-7.9-7.9v-31.7c0-4.4,3.6-7.9,7.9-7.9h475.4
			c4.4,0,7.9,3.6,7.9,7.9V454.8z"/>
	</g>
	<g>
		<path class="st5" d="M169.5,280.5v87.1c0,8.7,7.1,15.8,15.8,15.8V264.7C176.6,264.7,169.5,271.8,169.5,280.5z"/>
		<rect x="232.9" y="264.7" class="st5" width="15.8" height="118.8"/>
		<rect x="201.2" y="264.7" class="st5" width="15.8" height="118.8"/>
		<rect x="264.6" y="264.7" class="st5" width="15.8" height="118.8"/>
		<rect x="296.3" y="264.7" class="st5" width="15.8" height="118.8"/>
		<path class="st5" d="M328,264.7v118.8c8.7,0,15.8-7.1,15.8-15.8v-87.1C343.8,271.8,336.7,264.7,328,264.7z"/>
	</g>
	<path class="st6" d="M376.9,374.2c12.4,12.4,32.4,12.4,44.8,0s12.4-32.4,0-44.8L376.9,374.2z"/>
	<path class="st7" d="M421.7,329.4c-12.4-12.4-32.4-12.4-44.8,0s-12.4,32.4,0,44.8L421.7,329.4z"/>
	<path class="st6" d="M91.6,374.2c12.4,12.4,32.4,12.4,44.8,0c12.4-12.4,12.4-32.4,0-44.8L91.6,374.2z"/>
	<path class="st7" d="M136.5,329.4c-12.4-12.4-32.4-12.4-44.8,0s-12.4,32.4,0,44.8L136.5,329.4z"/>
	<path class="st3" d="M438.9,225.1c0,4.4-3.6,7.9-7.9,7.9h-15.8c-4.4,0-7.9-3.6-7.9-7.9v-79.2c0-4.4,3.6-7.9,7.9-7.9h15.8
		c4.4,0,7.9,3.6,7.9,7.9V225.1z"/>
	<path class="st3" d="M74.4,225.1c0,4.4,3.6,7.9,7.9,7.9h15.8c4.4,0,7.9-3.6,7.9-7.9v-79.2c0-4.4-3.6-7.9-7.9-7.9H82.4
		c-4.4,0-7.9,3.6-7.9,7.9V225.1z"/>
	<path class="st8" d="M268,137.9h91.7c8.7,0,15.8,7.1,15.8,15.8v63.4c0,8.7-7.1,15.8-15.8,15.8h-146L268,137.9z"/>
	<path class="st9" d="M153.7,137.9H268L213.6,233h-60c-8.7,0-15.8-7.1-15.8-15.8v-63.4C137.8,145.1,144.9,137.9,153.7,137.9z"/>
	<path class="st3" d="M114,383.5c-16.1,0-29.3-12.1-31.3-27.7c-0.2,1.3-0.4,2.6-0.4,4c0,17.5,14.2,31.7,31.7,31.7
		s31.7-14.2,31.7-31.7c0-1.4-0.2-2.6-0.4-4C143.4,371.4,130.2,383.5,114,383.5z"/>
	<path class="st3" d="M399.3,383.5c-16.1,0-29.3-12.1-31.3-27.7c-0.2,1.3-0.4,2.6-0.4,4c0,17.5,14.2,31.7,31.7,31.7
		c17.5,0,31.7-14.2,31.7-31.7c0-1.4-0.2-2.6-0.4-4C428.6,371.4,415.4,383.5,399.3,383.5z"/>
	<path class="st5" d="M82.4,462.7v15.8h23.8c8.8,0,15.8,7.1,15.8,15.8v15.8h23.8c8.8,0,15.8-7.1,15.8-15.8v-15.8v-15.8H82.4z"/>
	<path class="st5" d="M351.7,462.7v15.8h23.8c8.8,0,15.8,7.1,15.8,15.8v15.8h23.8c8.8,0,15.8-7.1,15.8-15.8v-15.8v-15.8H351.7z"/>
	<path class="st10" d="M256.6,439c0,4.4-3.5,7.9-7.9,7.9H11v7.9c0,4.4,3.4,7.9,7.7,7.9h475.9c4.2,0,7.7-3.6,7.7-7.9v-31.7H264.6
		c-4.4,0-7.9,3.5-7.9,7.9V439z"/>
	<path class="st5" d="M90.3,153.8v63.4c0,4.4-3.5,7.9-7.9,7.9h-7.9c0,4.4,3.6,7.9,7.9,7.9h7.9h7.9c4.4,0,7.9-3.6,7.9-7.9v-79.2h-7.9
		C93.8,145.8,90.3,149.4,90.3,153.8z"/>
	<path class="st5" d="M423,153.8v63.4c0,4.4-3.5,7.9-7.9,7.9h-7.9c0,4.4,3.6,7.9,7.9,7.9h7.9h7.9c4.4,0,7.9-3.6,7.9-7.9v-79.2h-7.9
		C426.6,145.8,423,149.4,423,153.8z"/>
	<path class="st11" d="M359.6,137.9h-23.8H153.7c-8.7,0-15.8,7.1-15.8,15.8v15.8c0-8.7,7.1-15.8,15.8-15.8h182.2h23.8
		c8.7,0,15.8,7.1,15.8,15.8v-15.8C375.5,145.1,368.4,137.9,359.6,137.9z"/>
</g>
</svg>
