<?xml version="1.0" encoding="utf-8"?>
<!-- Generator: Adobe Illustrator 21.0.2, SVG Export Plug-In . SVG Version: 6.00 Build 0)  -->
<svg version="1.1" id="Layer_1" xmlns="http://www.w3.org/2000/svg" xmlns:xlink="http://www.w3.org/1999/xlink" x="0px" y="0px"
	 viewBox="0 0 512 512" style="enable-background:new 0 0 512 512;" xml:space="preserve">
<style type="text/css">
	.st0{fill:#576D7E;}
	.st1{fill:#E2E4E6;}
	.st2{fill:#35495C;}
	.st3{fill:#C9D1D7;}
	.st4{fill:#F05642;}
	.st5{fill:#B0B7BD;}
	.st6{fill:#113247;}
</style>
<g>
	<g>
		<path class="st0" d="M256.7,58.8c-8.7,0-15.8-7.1-15.8-15.8V27.1c0-8.7,7.1-15.8,15.8-15.8c8.7,0,15.8,7.1,15.8,15.8V43
			C272.6,51.7,265.5,58.8,256.7,58.8z"/>
	</g>
	<path class="st0" d="M331.3,475.3l-58.7-58.7v-25.1c0-8.7-7.1-15.8-15.8-15.8c-8.7,0-15.8,7.1-15.8,15.8v25.1l-58.7,58.7
		c-6.2,6.2-6.2,16.2,0,22.4c3.1,3.1,7.1,4.6,11.2,4.6c4.1,0,8.1-1.5,11.2-4.6l36.3-36.3v17.2c0,8.7,7.1,15.8,15.8,15.8
		c8.7,0,15.8-7.1,15.8-15.8v-17.2l36.3,36.3c3.1,3.1,7.1,4.6,11.2,4.6c4.1,0,8.1-1.5,11.2-4.6C337.5,491.5,337.5,481.5,331.3,475.3z
		"/>
	<path class="st1" d="M494.3,90.5v285.1c0,8.7-7.1,15.8-15.8,15.8H35c-8.7,0-15.8-7.1-15.8-15.8V90.5H494.3z"/>
	<path class="st2" d="M510.2,82.6c0,4.4-3.6,7.9-7.9,7.9h-491c-4.4,0-7.9-3.6-7.9-7.9V50.9c0-4.4,3.6-7.9,7.9-7.9h491
		c4.4,0,7.9,3.6,7.9,7.9V82.6z"/>
	<rect x="19.1" y="90.5" class="st3" width="475.2" height="15.8"/>
	<path class="st0" d="M169.6,161.8c-43.7,0-79.2,35.5-79.2,79.2s35.5,79.2,79.2,79.2c43.7,0,79.2-35.5,79.2-79.2h-79.2V161.8z"/>
	<path class="st4" d="M185.4,145.9v79.2h79.2C264.6,181.4,229.2,145.9,185.4,145.9z"/>
	<circle class="st4" cx="347.8" cy="173.6" r="11.9"/>
	<circle class="st0" cx="347.8" cy="260.8" r="11.9"/>
	<g>
		<path class="st5" d="M407.2,209.3h-63.4c-4.4,0-7.9-3.5-7.9-7.9c0-4.4,3.5-7.9,7.9-7.9h63.4c4.4,0,7.9,3.5,7.9,7.9
			C415.1,205.7,411.6,209.3,407.2,209.3z"/>
	</g>
	<g>
		<path class="st5" d="M407.2,296.4h-63.4c-4.4,0-7.9-3.5-7.9-7.9s3.5-7.9,7.9-7.9h63.4c4.4,0,7.9,3.5,7.9,7.9
			S411.6,296.4,407.2,296.4z"/>
	</g>
	<g>
		<path class="st5" d="M375.5,320.2h-31.7c-4.4,0-7.9-3.5-7.9-7.9s3.5-7.9,7.9-7.9h31.7c4.4,0,7.9,3.5,7.9,7.9
			S379.9,320.2,375.5,320.2z"/>
	</g>
	<path class="st2" d="M194.3,485.5c-3.8,3.8-10.3,2.8-12.7-2c-0.8-1.6-1.5-3.3-1.9-4.9c-3.5,6-2.7,13.9,2.5,19l0,0l0,0
		c3.1,3.1,7.1,4.6,11.2,4.6c4.1,0,8.1-1.5,11.2-4.6l52.2-50.8v-23.8L194.3,485.5z"/>
	<path class="st2" d="M319.2,485.5c3.8,3.8,10.3,2.8,12.7-2c0.8-1.6,1.5-3.3,1.9-4.9c3.5,6,2.7,13.9-2.5,19l0,0l0,0
		c-3.1,3.1-7.1,4.6-11.2,4.6c-4.1,0-8.1-1.5-11.2-4.6l-52.2-50.8v-23.8L319.2,485.5z"/>
	<path class="st2" d="M256.7,439v38.3c0,5.5-5.5,9.3-10.7,7.5c-1.6-0.6-3.2-1.2-4.6-2c2,7.2,8.7,12.3,16.7,11.6
		c8.3-0.7,14.4-8.3,14.4-16.7v-16.3V439H256.7z"/>
	<path class="st2" d="M240.9,391.4v7.9h7.2c4.7,0,8.6,3.9,8.6,8.6l0,0c0,4.8,3.9,8.6,8.6,8.6h7.2v-17.2v-7.9H240.9z"/>
	<path class="st6" d="M11.2,90.5h491c4.4,0,7.9-3.6,7.9-7.9V50.9c0-4.4-3.6-7.9-7.9-7.9H256.7v15.8c0,4.4-3.5,7.9-7.9,7.9H3.3v15.8
		C3.3,86.9,6.9,90.5,11.2,90.5z"/>
	<path class="st2" d="M256.7,26.4V43h15.8V27.1c0-0.9-0.1-1.8-0.2-2.7C270.8,15.2,256.7,17,256.7,26.4z"/>
</g>
</svg>
