<?xml version="1.0" encoding="utf-8"?>
<!-- Generator: Adobe Illustrator 21.0.2, SVG Export Plug-In . SVG Version: 6.00 Build 0)  -->
<svg version="1.1" id="Layer_1" xmlns="http://www.w3.org/2000/svg" xmlns:xlink="http://www.w3.org/1999/xlink" x="0px" y="0px"
	 viewBox="0 0 512 512" style="enable-background:new 0 0 512 512;" xml:space="preserve">
<style type="text/css">
	.st0{fill:#83BD5A;}
	.st1{fill:#E2E4E6;}
	.st2{fill:#C9D1D7;}
	.st3{fill:#576D7E;}
	.st4{fill:#35495C;}
	.st5{fill:#6FA04E;}
</style>
<g>
	<path class="st0" d="M437.1,199.1l-56.6-70.8L438.4,56c4-5,4.7-11.8,2-17.5c-2.8-5.7-8.5-9.4-14.9-9.4H227.3
		c-9.1,0-16.5,7.4-16.5,16.5V211c0,9.1,7.4,16.5,16.5,16.5h198.2c0.1,0,0.1,0,0.2,0c9.1,0,16.5-7.4,16.5-16.5
		C442.1,206.3,440.2,202.1,437.1,199.1z"/>
	<ellipse class="st1" cx="227.3" cy="458.9" rx="157" ry="49.6"/>
	<path class="st2" d="M210.7,451.6l25.1,13.9l118.4-34.8c-8.2-3.6-17.7-6.8-28.5-9.5L210.7,451.6z"/>
	<g>
		<path class="st3" d="M227.3,467.2c-9.1,0-16.5-7.4-16.5-16.5V20.9c0-9.1,7.4-16.5,16.5-16.5c9.1,0,16.5,7.4,16.5,16.5v429.8
			C243.8,459.8,236.4,467.2,227.3,467.2z"/>
	</g>
	<path class="st4" d="M243.6,17.9c-1.6-9.6-16.3-7.8-16.3,2v41.7V87v359.8c0,8.1-8.7,13.2-15.7,9.2l-0.2-0.1
		c2,7.5,9.1,12.9,17.4,12.1c8.7-0.8,15-8.7,15-17.4V52.3V37.2V20.7C243.8,19.7,243.7,18.8,243.6,17.9z"/>
	<path class="st5" d="M437.1,199.1l-56.6-70.8h-95.4c-13.7,0-24.8-11.1-24.8-24.8V29.1h-16.5v198.3h16.5h165.1h0.2
		c6.5,0,12.8-3.7,15.2-9.8C443.7,210.5,441.7,203.5,437.1,199.1z"/>
</g>
</svg>
