<?xml version="1.0" encoding="utf-8"?>
<!-- Generator: Adobe Illustrator 21.0.2, SVG Export Plug-In . SVG Version: 6.00 Build 0)  -->
<svg version="1.1" id="Layer_1" xmlns="http://www.w3.org/2000/svg" xmlns:xlink="http://www.w3.org/1999/xlink" x="0px" y="0px"
	 viewBox="0 0 456.2 456.2" style="enable-background:new 0 0 456.2 456.2;" xml:space="preserve">
<style type="text/css">
	.st0{fill:#35495C;}
	.st1{fill:#576D7E;}
	.st2{fill:#83BD5A;}
	.st3{fill:#6FA04E;}
	.st4{fill:#668D46;}
	.st5{fill:#A0CE6A;}
</style>
<g>
	<g>
		<path class="st0" d="M326.6,446.6c-34.9,0-63.3-28.4-63.3-63.3V73.8c0-34.9,28.4-63.3,63.3-63.3c34.9,0,63.3,28.4,63.3,63.3v309.5
			c0,16.9-6.6,32.8-18.5,44.8C359.4,440.1,343.5,446.6,326.6,446.6C326.6,446.6,326.6,446.6,326.6,446.6z"/>
		<path class="st1" d="M326.6,17.6c31,0,56.2,25.2,56.2,56.3v309.5c0,31-25.2,56.3-56.3,56.3c-31,0-56.2-25.2-56.2-56.3V73.8
			C270.3,42.8,295.6,17.6,326.6,17.6L326.6,17.6z M326.6,3.5C326.6,3.5,326.6,3.5,326.6,3.5L326.6,3.5c-38.9,0-70.3,31.5-70.4,70.3
			v309.5c0,38.8,31.5,70.3,70.3,70.3c0,0,0,0,0,0h0c38.8,0,70.3-31.5,70.3-70.3V73.9C396.9,35,365.4,3.5,326.6,3.5L326.6,3.5z"/>
	</g>
	<path class="st2" d="M382.9,116.1H100.6c-7.2,0-13.1,5.6-13.1,12.5v200.1c0,6.9,5.9,12.5,13.1,12.5h282.3V116.1z"/>
	<rect x="340.7" y="116.1" class="st3" width="42.2" height="225.1"/>
	<path class="st3" d="M354.7,226.7c0-38.9-31.5-70.3-70.3-70.3c-38.8,0-70.4,31.5-70.3,70.3c0,38.9,31.5,70.4,70.3,70.4
		C323.2,297,354.7,265.5,354.7,226.7z M242.2,226.7c0-23.3,18.9-42.2,42.2-42.2c23.3,0,42.2,18.9,42.2,42.2
		c0,23.3-18.9,42.2-42.2,42.2C261.1,268.9,242.2,250,242.2,226.7z"/>
	<path class="st4" d="M340.7,184.6v84.2c8.8-11.7,14.1-26.3,14.1-42.1C354.7,210.9,349.5,196.4,340.7,184.6z"/>
	<path class="st3" d="M143.7,226.7c0-11.6,9.4-21.1,21.1-21.1c11.7,0,21.1,9.5,21.1,21.1c0,11.7-9.4,21.1-21.1,21.1
		C153.2,247.8,143.7,238.4,143.7,226.7z"/>
	<path class="st5" d="M242.2,226.7c0-23.3,18.9-42.2,42.2-42.2c23.3,0,42.2,18.9,42.2,42.2c0,23.3-18.9,42.2-42.2,42.2
		C261.1,268.9,242.2,250,242.2,226.7z"/>
	<path class="st3" d="M382.9,341.1H135.1c-5.4-23.7-24-42.2-47.6-47.6V163.7c23.7-5.4,42.3-24,47.6-47.6h247.8V87.9H87.4
		c-15.5,0-28.1,12.7-28.1,28.1v225.1c0,15.5,12.7,28.1,28.1,28.1h295.4V341.1z"/>
	<rect x="340.7" y="87.9" class="st4" width="42.2" height="28.1"/>
	<rect x="340.7" y="341.1" class="st4" width="42.2" height="28.1"/>
</g>
</svg>
