<svg id="Capa_1" enable-background="new 0 0 512 512" height="512" viewBox="0 0 512 512" width="512" xmlns="http://www.w3.org/2000/svg"><path d="m158.513 405.212c-2.845 0-5.564-1.626-6.825-4.382-1.723-3.767-.066-8.217 3.7-9.94l165.675-75.799-134.555-74.775c-2.253-1.252-3.706-3.575-3.846-6.149-.14-2.575 1.053-5.041 3.157-6.529l115.874-81.98c3.383-2.393 8.063-1.589 10.455 1.791 2.392 3.381 1.59 8.062-1.791 10.454l-106.141 75.094 137.098 76.188c2.472 1.374 3.961 4.022 3.851 6.849s-1.802 5.35-4.374 6.527l-179.163 81.97c-1.011.462-2.072.681-3.115.681z" fill="#c3bec6"/><path d="m144.622 477.194c-.471 0-.949-.045-1.429-.137-4.067-.785-6.729-4.718-5.943-8.786l69.534-360.261c.785-4.066 4.72-6.723 8.785-5.943 4.067.785 6.729 4.718 5.943 8.786l-69.534 360.261c-.692 3.587-3.833 6.08-7.356 6.08z" fill="#d3ced5"/><path d="m367.378 477.194c-3.522 0-6.664-2.493-7.356-6.08l-69.534-360.261c-.785-4.067 1.876-8 5.943-8.786 4.068-.781 8.001 1.876 8.785 5.943l69.534 360.261c.785 4.067-1.876 8-5.943 8.786-.48.092-.958.137-1.429.137z" fill="#d3ced5"/><path d="m256 488.292c-4.143 0-7.5-3.358-7.5-7.5v-381.36c0-4.142 3.357-7.5 7.5-7.5s7.5 3.358 7.5 7.5v381.36c0 4.142-3.357 7.5-7.5 7.5z" fill="#958b95"/><path d="m144.617 477.193c-2.076 0-4.142-.856-5.624-2.535-2.742-3.104-2.448-7.844.655-10.586l81.484-71.983c3.105-2.742 7.845-2.449 10.587.656 2.742 3.104 2.448 7.844-.655 10.586l-81.484 71.983c-1.427 1.26-3.198 1.879-4.963 1.879z" fill="#d3ced5"/><path d="m353.487 405.212c-1.044 0-2.104-.219-3.115-.682l-179.163-81.97c-2.572-1.177-4.264-3.701-4.374-6.527s1.379-5.475 3.851-6.849l137.098-76.188-106.141-75.094c-3.381-2.392-4.183-7.073-1.791-10.454s7.07-4.185 10.455-1.791l115.874 81.98c2.104 1.489 3.297 3.955 3.157 6.529s-1.593 4.896-3.846 6.149l-134.555 74.775 165.675 75.799c3.767 1.724 5.423 6.174 3.7 9.94-1.26 2.756-3.98 4.383-6.825 4.383z" fill="#d3ced5"/><path d="m367.383 477.193c-1.765 0-3.536-.619-4.963-1.879l-81.484-71.983c-3.104-2.743-3.397-7.482-.655-10.586 2.743-3.105 7.481-3.397 10.587-.656l81.484 71.983c3.104 2.743 3.397 7.482.655 10.586-1.483 1.678-3.549 2.535-5.624 2.535z" fill="#d3ced5"/><path d="m396.015 462.193h-60.297c-5.137 0-9.316 4.18-9.316 9.317v31.173c0 5.137 4.18 9.317 9.316 9.317h60.297c5.138 0 9.317-4.18 9.317-9.317v-31.173c0-5.137-4.18-9.317-9.317-9.317z" fill="#958b95"/><path d="m176.282 462.193h-60.297c-5.138 0-9.317 4.18-9.317 9.317v31.173c0 5.137 4.18 9.317 9.317 9.317h60.297c5.137 0 9.316-4.18 9.316-9.317v-31.173c.001-5.137-4.179-9.317-9.316-9.317z" fill="#958b95"/><path d="m310.252 109.432h-108.504c-1.2 0-2.173-.973-2.173-2.173v-29.313c0-1.2.973-2.173 2.173-2.173h108.505c1.2 0 2.173.973 2.173 2.173v29.313c0 1.2-.973 2.173-2.174 2.173z" fill="#d3ced5"/><path d="m310.252 75.772h-37.827v4.44c0 7.854-6.367 14.22-14.22 14.22h-58.631v12.827c0 1.2.973 2.173 2.173 2.173h108.505c1.2 0 2.173-.973 2.173-2.173v-29.313c.001-1.201-.972-2.174-2.173-2.174z" fill="#c3bec6"/><path d="m278.842 75.772h-45.683v-22.599c0-1.424 1.155-2.579 2.579-2.579h40.525c1.424 0 2.579 1.155 2.579 2.579z" fill="#efecef"/><path d="m268.483 0h-24.965c-.603 0-1.092.489-1.092 1.092v49.502h27.149v-49.502c-.001-.603-.489-1.092-1.092-1.092z" fill="#958b95"/><path d="m291.966 471.411h-71.932c-13.474 0-24.436 10.962-24.436 24.436v6.911c0 5.096 4.146 9.243 9.243 9.243h102.316c5.097 0 9.243-4.146 9.243-9.243v-6.911c.001-13.474-10.961-24.436-24.434-24.436z" fill="#ce9875"/><g fill="#efecef"><path d="m267.484 451.396h-22.967c-.909 0-1.645-.736-1.645-1.645v-25.396c0-.909.736-1.645 1.645-1.645h22.967c.908 0 1.645.736 1.645 1.645v25.396c0 .909-.737 1.645-1.645 1.645z"/><path d="m318.025 159.28h-124.05c-4.143 0-7.5-3.358-7.5-7.5s3.357-7.5 7.5-7.5h124.051c4.143 0 7.5 3.358 7.5 7.5s-3.358 7.5-7.501 7.5z"/><path d="m333.849 241.26h-155.698c-4.143 0-7.5-3.358-7.5-7.5s3.357-7.5 7.5-7.5h155.697c4.143 0 7.5 3.358 7.5 7.5s-3.357 7.5-7.499 7.5z"/><path d="m363.67 405.21h-215.34c-4.143 0-7.5-3.358-7.5-7.5s3.357-7.5 7.5-7.5h215.34c4.143 0 7.5 3.358 7.5 7.5s-3.357 7.5-7.5 7.5z"/><path d="m349.671 323.24h-187.342c-4.143 0-7.5-3.358-7.5-7.5s3.357-7.5 7.5-7.5h187.342c4.143 0 7.5 3.358 7.5 7.5s-3.358 7.5-7.5 7.5z"/></g></svg>