<?xml version="1.0" encoding="utf-8"?>
<!-- Generator: Adobe Illustrator 21.0.2, SVG Export Plug-In . SVG Version: 6.00 Build 0)  -->
<svg version="1.1" id="Layer_1" xmlns="http://www.w3.org/2000/svg" xmlns:xlink="http://www.w3.org/1999/xlink" x="0px" y="0px"
	 viewBox="0 0 495.6 495.6" style="enable-background:new 0 0 495.6 495.6;" xml:space="preserve">
<style type="text/css">
	.st0{fill:#F6B74E;}
	.st1{fill:#FCCF63;}
	.st2{fill:#83BD5A;}
	.st3{fill:#50BEE7;}
	.st4{fill:#009AC0;}
	.st5{fill:#6FA04E;}
	.st6{fill:#576D7E;}
	.st7{fill:#F05642;}
	.st8{fill:#35495C;}
	.st9{fill:#D2463C;}
</style>
<g>
	<g>
		<path class="st0" d="M248.4,465.8c-23.8,0-47.3-3-69.9-9.1c-4.5-1.2-8.2-4.4-10-8.7c-1.8-4.3-1.5-9.1,0.8-13.2
			c7.6-13.5,11.6-28.7,11.6-44.1c0-49.6-40.4-90-90-90c-18.6,0-36.4,5.7-51.7,16.4c-3.9,2.8-9,3.5-13.5,1.9
			c-4.6-1.6-8.1-5.3-9.5-9.9c-5.2-17.4-7.8-35.3-7.8-53.4c0-115.8,107.7-210,240-210c132.3,0,240,94.2,240,210
			S380.7,465.8,248.4,465.8z"/>
	</g>
	<g>
		<path class="st1" d="M248.4,450.8c-23.8,0-47.3-3-69.9-9.1c-4.5-1.2-8.2-4.4-10-8.7c-1.8-4.3-1.5-9.1,0.8-13.2
			c7.6-13.5,11.6-28.7,11.6-44.1c0-49.6-40.4-90-90-90c-18.6,0-36.4,5.7-51.7,16.4c-3.9,2.8-9,3.5-13.5,1.9
			c-4.6-1.6-8.1-5.3-9.5-9.9c-5.2-17.4-7.8-35.3-7.8-53.4c0-115.8,107.7-210,240-210c132.3,0,240,94.2,240,210
			S380.7,450.8,248.4,450.8z"/>
	</g>
	<path class="st2" d="M248.4,90.8c-24.8,0-45,20.2-45,45s20.2,45,45,45c24.8,0,45-20.2,45-45S273.2,90.8,248.4,90.8z"/>
	<path class="st3" d="M360.9,128.3c-24.8,0-45,20.2-45,45s20.2,45,45,45c24.8,0,45-20.2,45-45S385.7,128.3,360.9,128.3z"/>
	<path class="st4" d="M384.3,135c4.2,6.8,6.6,14.8,6.6,23.4c0,24.8-20.2,45-45,45c-8.6,0-16.6-2.5-23.4-6.6
		c7.9,12.9,22.1,21.6,38.4,21.6c24.8,0,45-20.2,45-45C405.9,157.1,397.2,142.9,384.3,135z"/>
	<path class="st5" d="M271.8,98.3c4.2,6.8,6.6,14.8,6.6,23.4c0,24.8-20.2,45-45,45c-8.6,0-16.6-2.5-23.4-6.6
		c7.9,12.9,22.1,21.6,38.4,21.6c24.8,0,45-20.2,45-45C293.4,120.5,284.7,106.2,271.8,98.3z"/>
	<path class="st6" d="M375.9,240.8c-24.8,0-45,20.2-45,45s20.2,45,45,45c24.8,0,45-20.2,45-45S400.7,240.8,375.9,240.8z"/>
	<path class="st7" d="M135.9,128.3c-24.8,0-45,20.2-45,45s20.2,45,45,45c24.8,0,45-20.2,45-45S160.7,128.3,135.9,128.3z"/>
	<path class="st8" d="M399.3,247.5c4.2,6.8,6.6,14.8,6.6,23.4c0,24.8-20.2,45-45,45c-8.6,0-16.6-2.5-23.4-6.6
		c7.9,12.9,22.1,21.6,38.4,21.6c24.8,0,45-20.2,45-45C420.9,269.6,412.2,255.4,399.3,247.5z"/>
	<path class="st9" d="M159.3,135c4.2,6.8,6.6,14.8,6.6,23.4c0,24.8-20.2,45-45,45c-8.6,0-16.6-2.5-23.4-6.6
		c7.9,12.9,22.1,21.6,38.4,21.6c24.8,0,45-20.2,45-45C180.9,157.1,172.2,142.9,159.3,135z"/>
</g>
</svg>
