<?xml version="1.0" encoding="utf-8"?>
<!-- Generator: Adobe Illustrator 21.0.2, SVG Export Plug-In . SVG Version: 6.00 Build 0)  -->
<svg version="1.1" id="Layer_1" xmlns="http://www.w3.org/2000/svg" xmlns:xlink="http://www.w3.org/1999/xlink" x="0px" y="0px"
	 viewBox="0 0 512 512" style="enable-background:new 0 0 512 512;" xml:space="preserve">
<style type="text/css">
	.st0{fill:#586C71;}
	.st1{fill:#425057;}
	.st2{fill:#F05642;}
	.st3{fill:#D2453C;}
	.st4{fill:#263137;}
	.st5{fill:#313C42;}
	.st6{fill:#E2E4E6;}
	.st7{fill:#83BD5A;}
	.st8{fill:#84CAEF;}
	.st9{fill:#FCCF63;}
</style>
<g>
	<g>
		<path class="st0" d="M403.9,202.3c-8.6,0-15.5-7-15.5-15.5v-31.1c0-8.6,7-15.5,15.5-15.5s15.5,7,15.5,15.5v31.1
			C419.5,195.4,412.5,202.3,403.9,202.3z"/>
	</g>
	<g>
		<path class="st0" d="M403.9,373.4c-8.6,0-15.5-7-15.5-15.5v-93.3c0-8.6,7-15.5,15.5-15.5s15.5,7,15.5,15.5v93.3
			C419.5,366.4,412.5,373.4,403.9,373.4z"/>
	</g>
	<path class="st1" d="M403.9,202.3c8.6,0,15.5-7,15.5-15.5v-15.5h-31.1v15.5C388.4,195.4,395.3,202.3,403.9,202.3z"/>
	<path class="st1" d="M403.9,373.4c8.6,0,15.5-7,15.5-15.5v-46.6h-31.1v46.6C388.4,366.4,395.3,373.4,403.9,373.4z"/>
	<path class="st2" d="M302.8,8H194c-25.7,0-46.6,20.9-46.6,46.6l-7.8,46.6c0,8.6,7,15.5,15.5,15.5h186.6c8.6,0,15.5-7,15.5-15.5
		l-7.8-46.6C349.5,28.9,328.6,8,302.8,8z"/>
	<path class="st3" d="M337.5,23.5H264c-8.6,0-15.5,7-15.5,15.5v15.5c0,8.6-7,15.5-15.5,15.5h-88.1l-3.9,23.3h107.5
		c0,0,108.8,16.4,108.8,7.8l-7.8-46.6C349.5,42.7,344.9,31.8,337.5,23.5z"/>
	<path class="st2" d="M341.7,396.7H155.1c-8.6,0-15.5,7-15.5,15.5l7.8,46.6c0,25.7,20.9,46.6,46.6,46.6h108.8
		c25.7,0,46.6-20.9,46.6-46.6l7.8-46.6C357.3,403.6,350.3,396.7,341.7,396.7z"/>
	<path class="st3" d="M302.8,505.5c25.7,0,46.6-20.9,46.6-46.6L356,420H248.4H140.9l3.9,23.3h88.1c8.6,0,15.5,7,15.5,15.5v15.5
		c0,8.6-7,15.5-15.5,15.5h-73.5c8.5,9.5,20.9,15.5,34.7,15.5h54.4H302.8z"/>
	<path class="st4" d="M388.4,365.6c0,25.7-21,46.6-46.6,46.6H155.1c-25.7,0-46.6-21-46.6-46.6V147.9c0-25.7,21-46.6,46.6-46.6h186.6
		c25.7,0,46.6,21,46.6,46.6V365.6z"/>
	<path class="st5" d="M116.3,357.8V122.3c3.5-5.2,8-9.7,13.2-13.2h204.5L116.3,357.8z"/>
	<circle class="st2" cx="248.4" cy="256.8" r="38.9"/>
	<circle class="st6" cx="333.9" cy="256.8" r="23.3"/>
	<circle class="st7" cx="287.3" cy="171.2" r="23.3"/>
	<circle class="st8" cx="209.6" cy="171.2" r="23.3"/>
	<circle class="st8" cx="287.3" cy="342.3" r="23.3"/>
	<circle class="st6" cx="209.6" cy="342.3" r="23.3"/>
	<circle class="st9" cx="162.9" cy="256.8" r="23.3"/>
	<path class="st1" d="M341.7,427.8H155.1c-34.3,0-62.2-27.9-62.2-62.2V147.9c0-34.3,27.9-62.2,62.2-62.2h186.6
		c34.3,0,62.2,27.9,62.2,62.2v217.7C403.9,399.9,376,427.8,341.7,427.8z M155.1,116.8c-17.1,0-31.1,14-31.1,31.1v217.7
		c0,17.1,13.9,31.1,31.1,31.1h186.6c17.1,0,31.1-14,31.1-31.1V147.9c0-17.1-13.9-31.1-31.1-31.1H155.1z"/>
	<path class="st0" d="M95.2,381.9c-1.4-5.2-2.2-10.7-2.2-16.3V147.9c0-34.3,27.9-62.2,62.2-62.2h186.6c4,0,7.9,0.4,11.6,1.1
		l-26.2,30h-172c-17.1,0-31.1,14-31.1,31.1v201L95.2,381.9z"/>
</g>
</svg>
