<?xml version="1.0" encoding="utf-8"?>
<!-- Generator: Adobe Illustrator 21.0.2, SVG Export Plug-In . SVG Version: 6.00 Build 0)  -->
<svg version="1.1" id="Layer_1" xmlns="http://www.w3.org/2000/svg" xmlns:xlink="http://www.w3.org/1999/xlink" x="0px" y="0px"
	 viewBox="0 0 512 512" style="enable-background:new 0 0 512 512;" xml:space="preserve">
<style type="text/css">
	.st0{fill:#E2E4E6;}
	.st1{fill:#576D7E;}
	.st2{fill:#B1C3D0;}
	.st3{fill:#35495C;}
	.st4{fill:#8EADBE;}
	.st5{fill:#FFFFFF;}
</style>
<g>
	<g>
		<polygon class="st0" points="425,231.6 268.6,28.3 256.2,37.8 243.9,28.3 87.5,231.6 112.3,250.7 256.2,63.5 400.2,250.7 		"/>
	</g>
	<g>
		<g>
			<path class="st1" d="M506.4,460V272.4c0-25.8-21.1-46.9-46.9-46.9H53c-25.8,0-46.9,21.1-46.9,46.9V460
				c0,25.8,21.1,46.9,46.9,46.9h406.6C485.3,506.9,506.4,485.8,506.4,460z"/>
		</g>
	</g>
	<g>
		
			<ellipse transform="matrix(0.7071 -0.7071 0.7071 0.7071 48.2928 192.2787)" class="st2" cx="256.2" cy="37.8" rx="31.3" ry="31.3"/>
	</g>
	<path class="st3" d="M506.4,460V272.4c0-25.8-21.1-46.9-46.9-46.9h-46.9L295.3,506.9h164.2C485.3,506.9,506.4,485.8,506.4,460z"/>
	<polygon class="st3" points="326.6,225.5 209.3,506.9 264.1,506.9 381.3,225.5 	"/>
	<path class="st4" d="M278.4,60c12.2-12.2,12.2-32,0-44.2L234.1,60C246.3,72.2,266.1,72.2,278.4,60z"/>
	<g>
		<path class="st5" d="M142.5,322.9c-22.5,0-45.2,15.1-45.2,44.1c0,28.5,21.8,43.4,43.3,43.4c0.7,0,1.4,0,1.9,0
			c20.9,0,43.1-15.2,43.1-43.3C185.6,338.2,163.3,323.9,142.5,322.9z M141.3,344.9c11,0,22.2,7.6,22.2,22.1c0,14.5-11.1,22-22.2,22
			c-10.8,0-21.7-7.6-21.7-22C119.6,352.5,130.5,344.9,141.3,344.9z"/>
		<path class="st5" d="M231.2,324.6h-25.3c-7,0-11.4,6-11.4,11.5v61.7c0,7.2,5.8,11.5,11.4,11.5c6.3,0,10.9-4.8,10.9-11.5v-10.5
			h14.4c15.4,0,31-10.6,31-30.9C262.2,334.6,246.1,324.6,231.2,324.6z M231.2,365.7h-14.4v-19.5h14.4c5.1,0,9.2,4.5,9.2,10.1
			C240.4,360.8,236.6,365.7,231.2,365.7z"/>
		<path class="st5" d="M320.7,387.1h-29.5v-8.6h23.7c3.3,0,6.3-1.3,8.4-3.5c1.8-2,2.8-4.7,2.8-7.6c0-5.4-3.9-11.1-11.2-11.1h-23.7
			v-8.6h27.6c7.4,0,11.4-5.7,11.4-11.1c0-5.5-3.9-11-11.4-11h-39.3c-6,0-10.7,4.7-10.7,10.7v62.2c0,6,4.7,10.7,10.7,10.7h41.2
			c4.4,0,7.1-1.8,8.6-3.3c2-2,3-4.7,3-7.6C332.4,392.9,328.3,387.1,320.7,387.1z"/>
		<path class="st5" d="M400.9,324.6c-6.2,0-10.8,6.1-10.8,11.5v31.3l-29.3-36.6l-0.6-0.7c-2.9-2.8-4.8-4.6-10.2-4.6
			c-3.9,0-10.5,1.5-10.5,11.7v60.6c0,6.5,4.9,11.5,11.4,11.5c6.4,0,10.8-4.7,10.8-11.5v-31l29.7,37.6c3.5,3.2,6.2,4.9,11.5,4.9h0.6
			l0.6-0.2c7.4-2.3,8.6-8.1,8.6-11.3v-61.7C412.6,330.2,407,324.6,400.9,324.6z"/>
	</g>
</g>
</svg>
