<?xml version="1.0" encoding="utf-8"?>
<!-- Generator: Adobe Illustrator 21.0.2, SVG Export Plug-In . SVG Version: 6.00 Build 0)  -->
<svg version="1.1" id="Layer_1" xmlns="http://www.w3.org/2000/svg" xmlns:xlink="http://www.w3.org/1999/xlink" x="0px" y="0px"
	 viewBox="0 0 512 512" style="enable-background:new 0 0 512 512;" xml:space="preserve">
<style type="text/css">
	.st0{fill:#F05642;}
	.st1{fill:#D2463C;}
	.st2{fill:#D2453C;}
	.st3{fill:#FCCF63;}
	.st4{fill:#F6B74E;}
	.st5{fill:#D89C44;}
</style>
<g>
	<path class="st0" d="M493.6,486.3c0,8.7-7.1,15.8-15.8,15.8H35.1c-8.7,0-15.8-7.1-15.8-15.8V209.7c0-8.7,7.1-15.8,15.8-15.8h442.6
		c8.7,0,15.8,7.1,15.8,15.8V486.3z"/>
	<path class="st0" d="M509.4,193.9c0,8.7-7.1,15.8-15.8,15.8H19.3c-8.7,0-15.8-7.1-15.8-15.8v-71.1c0-8.7,7.1-15.8,15.8-15.8h474.2
		c8.7,0,15.8,7.1,15.8,15.8V193.9z"/>
	<path class="st1" d="M493.6,209.7c8.7,0,15.8-7.1,15.8-15.8v-71.1H272.2c-8.7,0-15.8,7.1-15.8,15.8v31.6c0,8.7-7.1,15.8-15.8,15.8
		H3.5v7.9c0,8.7,7.1,15.8,15.8,15.8h237.1H493.6z"/>
	<path class="st1" d="M19.3,209.7v15.8h221.3c8.7,0,15.8,7.1,15.8,15.8v229.2c0,8.7-7.1,15.8-15.8,15.8H19.3
		c0,8.7,7.1,15.8,15.8,15.8h221.3h221.3c8.7,0,15.8-7.1,15.8-15.8V225.5v-15.8H19.3z"/>
	<path class="st2" d="M301.8,106.9h-10.1c-3.3,3.7-7.2,6.9-11.6,9.4v8.9C288.9,121.1,296.3,114.8,301.8,106.9z"/>
	<path class="st2" d="M232.7,125.2v-8.9c-4.3-2.5-8.2-5.7-11.6-9.4h-10.1C216.5,114.8,224,121.1,232.7,125.2z"/>
	<rect x="232.7" y="106.9" class="st3" width="47.4" height="395.2"/>
	<path class="st4" d="M232.7,209.7h23.7h23.7v-86.9h-7.9c-8.7,0-15.8,7.1-15.8,15.8v31.6c0,8.7-7.1,15.8-15.8,15.8h-7.9V209.7z"/>
	<path class="st4" d="M232.7,209.7v15.8h7.9c8.7,0,15.8,7.1,15.8,15.8v229.2c0,8.7-7.1,15.8-15.8,15.8h-7.9v15.8h23.7h23.7V209.7
		H232.7z"/>
	<path class="st4" d="M385.2,14.2l-88.8,35.5c4.7,7.4,7.5,16.2,7.5,25.6c0,12.2-4.6,23.2-12.1,31.6h122.8V34
		C414.5,16.6,401.3,7.7,385.2,14.2z"/>
	<path class="st4" d="M280.1,125.2v-8.9c-7,4-15.1,6.4-23.7,6.4c-8.6,0-16.7-2.4-23.7-6.4v8.9c7.2,3.4,15.2,5.4,23.7,5.4
		C264.9,130.6,273,128.6,280.1,125.2z"/>
	<path class="st4" d="M127.7,14.2l88.8,35.5c-4.7,7.4-7.5,16.2-7.5,25.6c0,12.2,4.6,23.2,12.1,31.6H98.4V34
		C98.4,16.6,111.6,7.7,127.7,14.2z"/>
	<path class="st5" d="M216.9,99V59.5l-14.5,24.2c-5.7,9.5-16,15.3-27.1,15.3H98.4v7.9h126.5L216.9,99z"/>
	<path class="st5" d="M296,99V59.5l14.5,24.2c5.7,9.5,16,15.3,27.1,15.3h76.9v7.9H288.1L296,99z"/>
	
		<ellipse transform="matrix(0.7071 -0.7071 0.7071 0.7071 21.8675 203.382)" class="st3" cx="256.4" cy="75.3" rx="47.4" ry="47.4"/>
	<path class="st4" d="M290,108.8c18.5-18.5,18.5-48.5,0-67.1l-67.1,67.1C241.4,127.3,271.4,127.4,290,108.8z"/>
</g>
</svg>
