<?xml version="1.0" encoding="utf-8"?>
<!-- Generator: Adobe Illustrator 21.0.2, SVG Export Plug-In . SVG Version: 6.00 Build 0)  -->
<svg version="1.1" id="Layer_1" xmlns="http://www.w3.org/2000/svg" xmlns:xlink="http://www.w3.org/1999/xlink" x="0px" y="0px"
	 viewBox="0 0 512 512" style="enable-background:new 0 0 512 512;" xml:space="preserve">
<style type="text/css">
	.st0{fill:#6FA04E;}
	.st1{fill:#D2453C;}
	.st2{fill:#20AFDC;}
	.st3{fill:#009FC4;}
	.st4{fill:#BB3D34;}
	.st5{fill:#5C8F43;}
	.st6{fill:#83BD5A;}
	.st7{fill:#F05642;}
	.st8{fill:#50BEE7;}
</style>
<g>
	<path class="st0" d="M359.6,117.4v374.9c0,8.6,24.5,15.6,54.7,15.6c30.2,0,54.7-7,54.7-15.6V117.4H359.6z"/>
	<path class="st1" d="M203.4,211.1v281.2c0,8.6,24.5,15.6,54.7,15.6c30.2,0,54.7-7,54.7-15.6V211.1H203.4z"/>
	<path class="st2" d="M47.2,23.7v468.6c0,8.6,24.5,15.6,54.7,15.6c30.2,0,54.7-7,54.7-15.6V23.7H47.2z"/>
	<path class="st3" d="M101.9,23.7v328v115.4v40.8c30.2,0,54.7-7,54.7-15.6V23.7H101.9z"/>
	<path class="st4" d="M258.1,211.1v140.6v115.4v40.8c30.2,0,54.7-7,54.7-15.6V211.1H258.1z"/>
	<path class="st5" d="M414.3,117.4v234.3v115.4v40.8c30.2,0,54.7-7,54.7-15.6V117.4H414.3z"/>
	<ellipse class="st6" cx="414.3" cy="117.4" rx="54.7" ry="15.6"/>
	<path class="st7" d="M312.8,211.1c0,8.6-24.5,15.6-54.7,15.6c-30.2,0-54.7-7-54.7-15.6c0-8.6,24.5-15.6,54.7-15.6
		C288.3,195.5,312.8,202.5,312.8,211.1z"/>
	<ellipse class="st8" cx="101.9" cy="23.7" rx="54.7" ry="15.6"/>
</g>
</svg>
