<?xml version="1.0" encoding="utf-8"?>
<!-- Generator: Adobe Illustrator 21.0.2, SVG Export Plug-In . SVG Version: 6.00 Build 0)  -->
<svg version="1.1" id="Layer_1" xmlns="http://www.w3.org/2000/svg" xmlns:xlink="http://www.w3.org/1999/xlink" x="0px" y="0px"
	 viewBox="0 0 512 512" style="enable-background:new 0 0 512 512;" xml:space="preserve">
<style type="text/css">
	.st0{fill:#E2E4E6;}
	.st1{fill:#C9D1D7;}
	.st2{fill:#35495C;}
	.st3{fill:#253647;}
	.st4{fill:#50BEE7;}
	.st5{fill:#009FC4;}
	.st6{fill:#F05642;}
	.st7{fill:#8FC560;}
	.st8{fill:#6EA740;}
	.st9{fill:#73AE43;}
</style>
<g>
	<circle class="st0" cx="216.2" cy="410" r="8.1"/>
	<g>
		<polygon class="st0" points="442.4,507 54.5,507 54.5,240.3 248.5,66.5 442.4,240.3 		"/>
	</g>
	<g>
		<polygon class="st1" points="54.5,240.3 54.5,266.2 248.5,90.7 442.4,266.2 442.4,240.3 248.5,66.5 		"/>
	</g>
	<g>
		<path class="st2" d="M224.2,313h-97c-8.9,0-16.2,7.2-16.2,16.2V507h129.3V329.2C240.4,320.3,233.2,313,224.2,313z"/>
	</g>
	<path class="st3" d="M224.2,313h-97c-8.9,0-16.2,7.2-16.2,16.2v16.2c0-8.9,7.2-16.2,16.2-16.2h97c8.9,0,16.2,7.2,16.2,16.2v-16.2
		C240.4,320.3,233.2,313,224.2,313z"/>
	<path class="st2" d="M393.9,313H280.8c-4.5,0-8.1,3.6-8.1,8.1v113.1c0,4.5,3.6,8.1,8.1,8.1h113.1c4.5,0,8.1-3.6,8.1-8.1V321.1
		C402,316.6,398.4,313,393.9,313z M329.3,369.6h-40.4v-40.4h40.4V369.6z M345.5,329.2h40.4v40.4h-40.4V329.2z M288.9,385.7h40.4
		v40.4h-40.4V385.7z M345.5,385.7h40.4v40.4h-40.4V385.7z"/>
	
		<ellipse transform="matrix(0.7071 -0.7071 0.7071 0.7071 -57.1294 229.5183)" class="st4" cx="248.5" cy="183.7" rx="24.2" ry="24.2"/>
	<path class="st5" d="M225,189.4c1-4.2,3.1-8.2,6.3-11.4c9.5-9.5,24.8-9.5,34.3,0c3.3,3.3,5.3,7.2,6.3,11.4
		c1.9-7.9-0.1-16.7-6.3-22.9c-9.5-9.5-24.8-9.5-34.3,0C225.1,172.8,223.1,181.5,225,189.4z"/>
	<path class="st2" d="M248.5,224.1c-22.3,0-40.4-18.1-40.4-40.4s18.1-40.4,40.4-40.4s40.4,18.1,40.4,40.4S270.8,224.1,248.5,224.1z
		 M248.5,159.5c-13.4,0-24.2,10.9-24.2,24.2s10.9,24.2,24.2,24.2c13.4,0,24.2-10.9,24.2-24.2S261.9,159.5,248.5,159.5z"/>
	<path class="st1" d="M62.6,442.3c-2.8,0-5.5,0.3-8.1,0.8V507h41.2c4.6-6.7,7.3-14.8,7.3-23.5C103,460.7,84.9,442.3,62.6,442.3z"/>
	<g>
		<g>
			<path class="st6" d="M248.5,66.5L52.8,243.8c-6.2,6.2-16.4,6.2-22.6,0l-11.3-11.2c-6.2-6.1-6.2-16.2,0-22.4L237.2,10.6
				c6.2-6.2,16.4-6.2,22.6,0l218.4,199.7c6.2,6.2,6.2,16.2,0,22.4l-11.3,11.2c-6.2,6.2-16.4,6.2-22.6,0L248.5,66.5z"/>
		</g>
	</g>
	<g>
		<rect x="288.9" y="329.2" class="st4" width="40.4" height="40.4"/>
	</g>
	<g>
		<rect x="345.5" y="329.2" class="st4" width="40.4" height="40.4"/>
	</g>
	<g>
		<rect x="288.9" y="385.7" class="st4" width="40.4" height="40.4"/>
	</g>
	<g>
		<rect x="345.5" y="385.7" class="st4" width="40.4" height="40.4"/>
	</g>
	<rect x="288.9" y="385.7" class="st5" width="40.4" height="8.1"/>
	<rect x="345.5" y="385.7" class="st5" width="40.4" height="8.1"/>
	<rect x="288.9" y="329.2" class="st5" width="40.4" height="8.1"/>
	<rect x="345.5" y="329.2" class="st5" width="40.4" height="8.1"/>
	<g>
		<path class="st7" d="M87.7,507c4.6-6.7,7.3-14.8,7.3-23.5c0-22.7-18.1-41.1-40.4-41.1s-40.4,18.4-40.4,41.1
			c0,8.7,2.7,16.8,7.3,23.5H87.7z"/>
	</g>
	<g>
		<path class="st8" d="M451.3,507c4.6-6.7,7.3-14.8,7.3-23.5c0-22.7-18.1-41.1-40.4-41.1c-22.3,0-40.4,18.4-40.4,41.1
			c0,8.7,2.7,16.8,7.3,23.5H451.3z"/>
	</g>
	<g>
		<path class="st7" d="M490.3,507c5.5-8.3,8.7-18.5,8.7-29.4c0-28.4-21.7-51.4-48.5-51.4s-48.5,23-48.5,51.4c0,10.9,3.2,21,8.7,29.4
			H490.3z"/>
	</g>
	<path class="st9" d="M405.2,444.7c-15.9,5.5-27.4,20.7-27.4,38.8c0,8.7,2.7,16.8,7.3,23.5h17.6c-5.5-8.3-8.7-18.5-8.7-29.4
		C393.9,465.1,398.2,453.6,405.2,444.7z"/>
	<g>
		<path class="st9" d="M78.7,450.5c5.1,6.8,8.2,15.1,8.2,24.1c0,13.3-6.5,25-16.4,32.3h16.2c5.1-6.8,8.3-15.1,8.3-24.2
			C95,469.5,88.5,457.9,78.7,450.5z"/>
	</g>
	<g>
		<path class="st9" d="M479.5,436.4c6.1,8.4,9.8,18.8,9.8,30.2c0,16.6-7.8,31.2-19.7,40.4h20.6c6.1-8.5,8.7-18.9,8.7-30.3
			C499,460.1,491.3,445.6,479.5,436.4z"/>
	</g>
	<circle class="st0" cx="216.2" cy="410" r="8.1"/>
</g>
</svg>
