<?xml version="1.0" encoding="utf-8"?>
<!-- Generator: Adobe Illustrator 21.0.2, SVG Export Plug-In . SVG Version: 6.00 Build 0)  -->
<svg version="1.1" id="Layer_1" xmlns="http://www.w3.org/2000/svg" xmlns:xlink="http://www.w3.org/1999/xlink" x="0px" y="0px"
	 viewBox="0 0 512 512" style="enable-background:new 0 0 512 512;" xml:space="preserve">
<style type="text/css">
	.st0{fill:#E1E1E1;}
	.st1{fill:#535C6C;}
	.st2{fill:#008CCF;}
	.st3{fill:#FBB116;}
	.st4{fill:#FFD44F;}
	.st5{fill:#7A8D9A;}
	.st6{fill:#FFFFFF;}
	.st7{fill:#009FC4;}
	.st8{fill:#FCDB84;}
</style>
<g>
	<g>
		<path class="st0" d="M44.4,56.4c15.4,5.2,31.8,5.2,47.2,0l18.5,38.9v42.9H25.9V95.3C25.9,95.3,34.8,76.6,44.4,56.4z"/>
		<path class="st1" d="M44.4,56.4C55.7,32.6,68,6.8,68,6.8l23.6,49.6C76.2,61.6,59.8,61.6,44.4,56.4z"/>
		<path class="st2" d="M25.9,429.5v68.1c27.4,9.8,56.8,9.8,84.3,0v-67.8v-0.3C82.7,439.3,53.3,439.3,25.9,429.5z"/>
		<path class="st3" d="M110.2,95.3V444c-13.7,4.9-27.9,7.4-42.1,7.4V102.7C82.3,102.7,96.5,100.2,110.2,95.3z"/>
		<path class="st4" d="M25.9,95.3c13.7,4.9,27.9,7.4,42.2,7.4v348.7c-14.2,0-28.4-2.5-42.2-7.4V95.3L25.9,95.3z"/>
	</g>
	<g>
		<polygon class="st5" points="486.6,503.1 176.6,503.1 486.6,8.7 		"/>
		<polygon class="st6" points="426.1,443.7 283,443.7 426.1,215.4 		"/>
		<rect x="459" y="468.5" class="st1" width="27.7" height="15.4"/>
		<rect x="459" y="409.9" class="st1" width="27.7" height="15.4"/>
		<rect x="459" y="351.3" class="st1" width="27.7" height="15.4"/>
		<rect x="459" y="292.7" class="st1" width="27.7" height="15.4"/>
		<rect x="459" y="234" class="st1" width="27.7" height="15.4"/>
		<rect x="459" y="175.4" class="st1" width="27.7" height="15.4"/>
		<rect x="459" y="116.8" class="st1" width="27.7" height="15.4"/>
	</g>
	<g>
		<path class="st7" d="M331.8,69.2H177.4c-21.3,0-38.6,17.3-38.6,38.6v231.7c0,21.3,17.3,38.6,38.6,38.6h154.5
			c21.3,0,38.6-17.3,38.6-38.6V107.8C370.5,86.5,353.2,69.2,331.8,69.2z"/>
		<g>
			<path class="st8" d="M223.7,280.7h-38.6c-8.5,0-15.4,6.9-15.4,15.4v38.6c0,8.5,7,15.4,15.4,15.4h38.6c8.5,0,15.4-7,15.4-15.4
				v-38.6C239.2,287.7,232.2,280.7,223.7,280.7z"/>
			<path class="st8" d="M324.1,280.7h-38.6c-8.5,0-15.4,6.9-15.4,15.4v38.6c0,8.5,7,15.4,15.4,15.4h38.6c8.5,0,15.4-7,15.4-15.4
				v-38.6C339.6,287.7,332.6,280.7,324.1,280.7z"/>
			<path class="st8" d="M223.7,180.3h-38.6c-8.5,0-15.4,6.9-15.4,15.4v38.6c0,8.5,7,15.4,15.4,15.4h38.6c8.5,0,15.4-6.9,15.4-15.4
				v-38.6C239.2,187.3,232.2,180.3,223.7,180.3z"/>
			<path class="st8" d="M324.1,180.3h-38.6c-8.5,0-15.4,6.9-15.4,15.4v38.6c0,8.5,7,15.4,15.4,15.4h38.6c8.5,0,15.4-6.9,15.4-15.4
				v-38.6C339.6,187.3,332.6,180.3,324.1,180.3z"/>
		</g>
		<rect x="169.6" y="101.3" class="st0" width="169.9" height="47.6"/>
		<g>
			<path class="st1" d="M321.8,119.1c-2.9-2.9-8-2.9-10.9,0c-1.5,1.4-2.2,3.4-2.2,5.5c0,2,0.8,4,2.2,5.4c1.4,1.5,3.4,2.3,5.4,2.3
				c2.1,0,4.1-0.9,5.5-2.3c1.5-1.4,2.2-3.4,2.2-5.4C324,122.5,323.2,120.5,321.8,119.1z"/>
			<path class="st1" d="M285.5,116.9c-4.2,0-7.7,3.4-7.7,7.7c0,4.2,3.5,7.7,7.7,7.7c4.2,0,7.7-3.5,7.7-7.7
				C293.2,120.3,289.7,116.9,285.5,116.9z"/>
			<path class="st1" d="M249.2,119.1c-1.5,1.4-2.3,3.4-2.3,5.5c0,2,0.8,4,2.3,5.4c1.4,1.5,3.4,2.3,5.5,2.3c2,0,4-0.9,5.4-2.3
				c1.5-1.4,2.3-3.4,2.3-5.4c0-2.1-0.8-4.1-2.3-5.5C257.2,116.3,252,116.3,249.2,119.1z"/>
		</g>
		<g>
			<rect x="285.5" y="296.2" class="st5" width="38.6" height="11.6"/>
			<polygon class="st5" points="216.9,294.8 204.4,307.3 191.9,294.8 183.7,303 196.2,315.5 183.7,328 191.9,336.2 204.4,323.7 
				216.9,336.2 225.1,328 212.6,315.5 225.1,303 			"/>
			<rect x="285.5" y="209.6" class="st5" width="38.6" height="11.6"/>
			<polygon class="st5" points="198.6,234.7 210.2,234.7 210.2,221.2 223.7,221.2 223.7,209.6 210.2,209.6 210.2,196.1 198.6,196.1 
				198.6,209.6 185.1,209.6 185.1,221.2 198.6,221.2 			"/>
			<rect x="285.5" y="323.2" class="st5" width="38.6" height="11.6"/>
		</g>
	</g>
</g>
</svg>
