<?xml version="1.0" encoding="utf-8"?>
<!-- Generator: Adobe Illustrator 21.0.2, SVG Export Plug-In . SVG Version: 6.00 Build 0)  -->
<svg version="1.1" id="Layer_1" xmlns="http://www.w3.org/2000/svg" xmlns:xlink="http://www.w3.org/1999/xlink" x="0px" y="0px"
	 viewBox="0 0 448.5 448.5" style="enable-background:new 0 0 448.5 448.5;" xml:space="preserve">
<style type="text/css">
	.st0{fill:#B1C3D0;}
	.st1{fill:#F05642;}
	.st2{fill:#FCCF63;}
	.st3{fill:#F6B74E;}
	.st4{fill:#D2453C;}
</style>
<g>
	<g>
		<path class="st0" d="M246.2,323.7c-8,0-14.5-6.5-14.5-14.5v-54.4L46.4,199.9c-6.2-1.8-10.4-7.5-10.4-13.9v-79.7
			c0-24,19.5-43.5,43.5-43.5c8,0,14.5,6.5,14.5,14.5s-6.5,14.5-14.5,14.5c-8,0-14.5,6.5-14.5,14.5v68.9l185.3,54.9
			c6.2,1.8,10.4,7.5,10.4,13.9v65.2C260.7,317.2,254.2,323.7,246.2,323.7z"/>
	</g>
	<path class="st1" d="M268,294.7h-43.5c-8,0-14.5,6.5-14.5,14.5v123.2c0,8,6.5,14.5,14.5,14.5H268c8,0,14.5-6.5,14.5-14.5V309.2
		C282.5,301.2,276,294.7,268,294.7z"/>
	<g>
		<path class="st2" d="M384,4.8H108.5c-16,0-29,13-29,29v87c0,16,13,29,29,29H384c16,0,29-13,29-29v-87C412.9,17.8,400,4.8,384,4.8z
			"/>
	</g>
	<path class="st3" d="M384,4.8v58c0,8-6.5,14.5-14.5,14.5H123c-8,0-14.5,6.5-14.5,14.5v58H384c16,0,29-13,29-29V77.3V33.8
		C412.9,17.8,400,4.8,384,4.8z"/>
	<path class="st4" d="M268,294.7h-21.7v123.2c0,8-6.5,14.5-14.5,14.5H210c0,8,6.5,14.5,14.5,14.5h21.7H268c8,0,14.5-6.5,14.5-14.5
		V309.2C282.5,301.2,276,294.7,268,294.7z"/>
</g>
</svg>
