<?xml version="1.0" encoding="utf-8"?>
<!-- Generator: Adobe Illustrator 21.0.2, SVG Export Plug-In . SVG Version: 6.00 Build 0)  -->
<svg version="1.1" id="Layer_1" xmlns="http://www.w3.org/2000/svg" xmlns:xlink="http://www.w3.org/1999/xlink" x="0px" y="0px"
	 viewBox="0 0 512 512" style="enable-background:new 0 0 512 512;" xml:space="preserve">
<style type="text/css">
	.st0{fill:#113247;}
	.st1{fill:#35495C;}
	.st2{fill:#F6B74E;}
	.st3{fill:#83BD5A;}
	.st4{fill:#6FA04E;}
	.st5{fill:#DFA747;}
	.st6{fill:#06273A;}
</style>
<g>
	<g>
		<g>
			<rect x="233.2" y="137.7" class="st0" width="47.3" height="63.1"/>
		</g>
	</g>
	<g>
		<g>
			<rect x="233.2" y="311.2" class="st0" width="47.3" height="63.1"/>
		</g>
	</g>
	<path class="st1" d="M477.7,358.5l-441.6,0c-17.4,0-31.5,14.1-31.5,31.5v78.9c0,17.4,14.1,31.5,31.5,31.5h441.6
		c17.4,0,31.5-14.1,31.5-31.6v-78.9C509.3,372.6,495.2,358.5,477.7,358.5z"/>
	<g>
		
			<ellipse transform="matrix(0.7071 -0.7071 0.7071 0.7071 -265.1369 218.1186)" class="st2" cx="130.7" cy="429.1" rx="15.8" ry="15.8"/>
	</g>
	<g>
		
			<ellipse transform="matrix(0.7071 -0.7071 0.7071 0.7071 -279.0792 184.7413)" class="st2" cx="83.5" cy="429.2" rx="15.8" ry="15.8"/>
	</g>
	<path class="st0" d="M256.9,390.1v78.9c0,8.7-7.1,15.8-15.8,15.8H8.9c5.5,9.4,15.5,15.8,27.2,15.8h441.6
		c17.4,0,31.5-14.1,31.5-31.6v-78.9c0-5.8-1.7-11.1-4.4-15.8H272.7C264,374.3,256.9,381.4,256.9,390.1z"/>
	<g>
		<path class="st3" d="M446.2,413.7h-94.6c-8.7,0-15.8,7.1-15.8,15.8s7.1,15.8,15.8,15.8h94.6c8.7,0,15.8-7.1,15.8-15.8
			S454.9,413.7,446.2,413.7z"/>
	</g>
	<path class="st4" d="M351.5,421.6h94.6c7.3,0,13.5,5,15.2,11.8c0.3-1.3,0.6-2.6,0.6-3.9c0-8.7-7.1-15.8-15.8-15.8h-94.6
		c-8.7,0-15.8,7.1-15.8,15.8c0,1.4,0.2,2.7,0.6,3.9C338.1,426.7,344.2,421.6,351.5,421.6z"/>
	<path class="st5" d="M136,434.4c-5.1,5.1-12.9,5.9-18.9,2.5c0.7,1.2,1.5,2.3,2.5,3.4c6.2,6.2,16.2,6.2,22.3,0
		c6.2-6.2,6.2-16.2,0-22.3c-1-1-2.2-1.8-3.4-2.5C141.9,421.5,141.2,429.3,136,434.4z"/>
	<path class="st5" d="M89,434.3c-5.1,5.1-12.9,5.9-18.9,2.5c0.7,1.2,1.5,2.3,2.5,3.4c6.2,6.2,16.1,6.2,22.3,0
		c6.2-6.2,6.2-16.2,0-22.3c-1-1-2.2-1.8-3.4-2.5C95,421.3,94.2,429.1,89,434.3z"/>
	<path class="st1" d="M477.7,185H36.1c-17.4,0-31.5,14.1-31.5,31.5v78.9c0,17.4,14.1,31.5,31.5,31.5h441.6
		c17.4,0,31.5-14.1,31.5-31.6v-78.9C509.3,199.1,495.2,185,477.7,185z"/>
	<g>
		
			<ellipse transform="matrix(0.7071 -0.7071 0.7071 0.7071 -142.4498 167.2999)" class="st2" cx="130.7" cy="255.6" rx="15.8" ry="15.8"/>
	</g>
	<g>
		
			<ellipse transform="matrix(0.7071 -0.7071 0.7071 0.7071 -156.3926 133.9228)" class="st2" cx="83.5" cy="255.7" rx="15.8" ry="15.8"/>
	</g>
	<path class="st0" d="M256.9,216.6v78.9c0,8.7-7.1,15.8-15.8,15.8H8.9c5.5,9.4,15.5,15.8,27.2,15.8h441.6
		c17.4,0,31.5-14.1,31.5-31.6v-78.9c0-5.8-1.7-11.1-4.4-15.8H272.7C264,200.8,256.9,207.9,256.9,216.6z"/>
	<g>
		<path class="st3" d="M446.2,240.2h-94.6c-8.7,0-15.8,7.1-15.8,15.8c0,8.7,7.1,15.8,15.8,15.8h94.6c8.7,0,15.8-7.1,15.8-15.8
			C462,247.3,454.9,240.2,446.2,240.2z"/>
	</g>
	<path class="st4" d="M351.5,248.1h94.6c7.3,0,13.5,5,15.2,11.8c0.3-1.3,0.6-2.6,0.6-3.9c0-8.7-7.1-15.8-15.8-15.8h-94.6
		c-8.7,0-15.8,7.1-15.8,15.8c0,1.4,0.2,2.7,0.6,3.9C338.1,253.2,344.2,248.1,351.5,248.1z"/>
	<path class="st5" d="M136,260.9c-5.1,5.1-12.9,5.9-18.9,2.5c0.7,1.2,1.5,2.3,2.5,3.4c6.2,6.2,16.2,6.2,22.3,0
		c6.2-6.2,6.2-16.2,0-22.3c-1-1-2.2-1.8-3.4-2.5C141.9,248,141.2,255.8,136,260.9z"/>
	<path class="st5" d="M89,260.8c-5.1,5.1-12.9,5.9-18.9,2.5c0.7,1.2,1.5,2.3,2.5,3.4c6.2,6.2,16.1,6.2,22.3,0
		c6.2-6.2,6.2-16.2,0-22.3c-1-1-2.2-1.8-3.4-2.5C95,247.8,94.2,255.6,89,260.8z"/>
	<path class="st1" d="M477.7,11.5H36.1c-17.4,0-31.5,14.1-31.5,31.5v78.9c0,17.4,14.1,31.5,31.5,31.5h441.6
		c17.4,0,31.5-14.1,31.5-31.6V43.1C509.3,25.6,495.2,11.5,477.7,11.5z"/>
	<g>
		
			<ellipse transform="matrix(0.7071 -0.7071 0.7071 0.7071 -19.7632 116.4815)" class="st2" cx="130.7" cy="82.1" rx="15.8" ry="15.8"/>
	</g>
	<g>
		
			<ellipse transform="matrix(0.7071 -0.7071 0.7071 0.7071 -33.7061 83.1044)" class="st2" cx="83.5" cy="82.2" rx="15.8" ry="15.8"/>
	</g>
	<path class="st0" d="M256.9,43.1v78.9c0,8.7-7.1,15.8-15.8,15.8H8.9c5.5,9.4,15.5,15.8,27.2,15.8h441.6c17.4,0,31.5-14.1,31.5-31.6
		V43.1c0-5.8-1.7-11.1-4.4-15.8H272.7C264,27.3,256.9,34.4,256.9,43.1z"/>
	<g>
		<path class="st3" d="M446.2,66.7h-94.6c-8.7,0-15.8,7.1-15.8,15.8s7.1,15.8,15.8,15.8h94.6c8.7,0,15.8-7.1,15.8-15.8
			S454.9,66.7,446.2,66.7z"/>
	</g>
	<path class="st4" d="M351.5,74.6h94.6c7.3,0,13.5,5,15.2,11.8c0.3-1.3,0.6-2.6,0.6-3.9c0-8.7-7.1-15.8-15.8-15.8h-94.6
		c-8.7,0-15.8,7.1-15.8,15.8c0,1.4,0.2,2.7,0.6,3.9C338.1,79.7,344.2,74.6,351.5,74.6z"/>
	<path class="st5" d="M136,87.4c-5.1,5.1-12.9,5.9-18.9,2.5c0.7,1.2,1.5,2.3,2.5,3.4c6.2,6.2,16.2,6.2,22.3,0
		c6.2-6.2,6.2-16.2,0-22.3c-1-1-2.2-1.8-3.4-2.5C141.9,74.5,141.2,82.3,136,87.4z"/>
	<path class="st5" d="M89,87.2c-5.1,5.1-12.9,5.9-18.9,2.5c0.7,1.2,1.5,2.3,2.5,3.4c6.2,6.2,16.1,6.2,22.3,0
		c6.2-6.2,6.2-16.2,0-22.3c-1-1-2.2-1.8-3.4-2.5C95,74.3,94.2,82.1,89,87.2z"/>
	<path class="st6" d="M233.2,327v7.9H249c4.4,0,7.9,3.5,7.9,7.9v15.8h23.7v-23.7V327H233.2z"/>
	<path class="st6" d="M233.2,153.5v7.9H249c4.4,0,7.9,3.5,7.9,7.9V185h23.7v-23.7v-7.9H233.2z"/>
</g>
</svg>
