<?xml version="1.0" encoding="utf-8"?>
<!-- Generator: Adobe Illustrator 21.0.2, SVG Export Plug-In . SVG Version: 6.00 Build 0)  -->
<svg version="1.1" id="Layer_1" xmlns="http://www.w3.org/2000/svg" xmlns:xlink="http://www.w3.org/1999/xlink" x="0px" y="0px"
	 viewBox="0 0 512 512" style="enable-background:new 0 0 512 512;" xml:space="preserve">
<style type="text/css">
	.st0{fill:#FCCF63;}
	.st1{fill:#F6B74E;}
	.st2{fill:#D89C44;}
	.st3{fill:#FFFFFF;}
</style>
<g>
	<polygon class="st0" points="114.7,47 64.5,5.1 64.5,74.9 	"/>
	<polygon class="st1" points="114.7,88.8 39.4,88.8 114.7,47 	"/>
	<polygon class="st2" points="399.1,5.1 114.7,5.1 64.5,5.1 114.7,47 114.7,88.8 399.1,88.8 399.1,47 449.3,5.1 	"/>
	<polygon class="st0" points="399.1,47 449.3,5.1 449.3,74.9 	"/>
	<polygon class="st1" points="399.1,88.8 474.4,88.8 399.1,47 	"/>
	<path class="st0" d="M39.4,88.8v401.7c0,8.2,5.3,16.6,14.5,16.6h405.9c9.2,0,14.5-8.4,14.5-16.6V88.8H39.4z"/>
	<circle class="st2" cx="139.8" cy="155.7" r="25.1"/>
	<path class="st1" d="M256.9,130.6v158.9c-69.6,0-126.9-53.4-133.2-121.4c-0.4,1.4-0.6,2.8-0.6,4.3c0,68.6,51.9,125.4,118.6,133
		c8.6,1,15.3,8,15.3,16.7v143.2c0,9.2-7.5,16.7-16.7,16.7H39.4v8.5c0,8.2,5.3,16.6,14.5,16.6h405.9c9.2,0,14.5-8.4,14.5-16.6V113.9
		H273.6C264.4,113.9,256.9,121.4,256.9,130.6z"/>
	<circle class="st2" cx="374" cy="155.7" r="25.1"/>
	<g>
		<path class="st3" d="M256.9,289.6c-73.8,0-133.8-60-133.8-133.8c0-9.2,7.5-16.7,16.7-16.7s16.7,7.5,16.7,16.7
			c0,55.4,45,100.4,100.4,100.4s100.4-45,100.4-100.4c0-9.2,7.5-16.7,16.7-16.7c9.2,0,16.7,7.5,16.7,16.7
			C390.7,229.5,330.7,289.6,256.9,289.6z"/>
	</g>
</g>
</svg>
