<svg xmlns="http://www.w3.org/2000/svg" viewBox="0 0 62.09 62.09"><defs><style>.cls-1{fill:#c7eafb;}.cls-2{fill:#fff;}.cls-3{fill:#35495c;}.cls-4{fill:#abe1fa;}.cls-5{fill:#123247;}.cls-6{fill:#f15642;}.cls-7{fill:#d2473c;}</style></defs><title>search</title><g id="Layer_2" data-name="Layer 2"><g id="Layer_1-2" data-name="Layer 1"><circle class="cls-1" cx="21.34" cy="21.34" r="17.46"/><path class="cls-2" d="M7.76,22.31a1,1,0,0,1-1-1A14.57,14.57,0,0,1,21.34,6.79a1,1,0,0,1,0,1.94A12.63,12.63,0,0,0,8.73,21.34,1,1,0,0,1,7.76,22.31Z"/><path class="cls-3" d="M46,43.26,37.74,35A21.37,21.37,0,1,0,35,37.74L43.26,46ZM3.88,21.34A17.46,17.46,0,1,1,21.34,38.81,17.48,17.48,0,0,1,3.88,21.34Z"/><path class="cls-4" d="M31.59,7.22A17.44,17.44,0,0,1,7.22,31.59,17.45,17.45,0,1,0,31.59,7.22Z"/><path class="cls-5" d="M18.32,42.48a21.29,21.29,0,0,0,15.4-3.75,1.93,1.93,0,0,1,2.48.21l5.69,5.69h2.74L33.69,33.69A17.46,17.46,0,1,1,9,9L6.26,6.26A21.33,21.33,0,0,0,18.32,42.48Z"/><path class="cls-6" d="M61.51,53.53a2,2,0,0,1,0,2.82l-5.16,5.16a2,2,0,0,1-2.82,0L39.39,47.37a2,2,0,0,1,0-2.82l5.16-5.16a2,2,0,0,1,2.82,0Z"/><path class="cls-7" d="M61.7,53.76l-2.6,2.6a1.94,1.94,0,0,1-2.74,0L44.55,44.55a1.94,1.94,0,0,0-2.74,0l-2.6,2.6v0L53.53,61.51a2,2,0,0,0,2.82,0l2.58-2.58,2.58-2.58A2,2,0,0,0,61.7,53.76Z"/></g></g></svg>