<?xml version="1.0" encoding="utf-8"?>
<!-- Generator: Adobe Illustrator 21.0.2, SVG Export Plug-In . SVG Version: 6.00 Build 0)  -->
<svg version="1.1" id="Layer_1" xmlns="http://www.w3.org/2000/svg" xmlns:xlink="http://www.w3.org/1999/xlink" x="0px" y="0px"
	 viewBox="0 0 455.4 455.4" style="enable-background:new 0 0 455.4 455.4;" xml:space="preserve">
<style type="text/css">
	.st0{fill:#113247;}
	.st1{fill:#C9D1D7;}
	.st2{fill:#E2E4E6;}
	.st3{fill:#B2BBC6;}
	.st4{fill:#576D7E;}
	.st5{fill:#35495C;}
</style>
<g>
	<path class="st0" d="M389.7,206.9c-3.9,0-7,3.1-7,7c0,3.9,3.1,7,7,7c27.1,0,49.1,22,49.2,49.1c0,0,0,0,0,0
		c0,27.1-22,49.1-49.1,49.1H224.5c31.6-18.2,52.9-52.2,52.9-91.3c0-58.2-47.2-105.3-105.3-105.3c-58.2,0-105.3,47.2-105.3,105.3
		c0,58.2,47.2,105.3,105.3,105.3h217.7c34.8,0,63.2-28.3,63.2-63.2c0,0,0,0,0,0C452.9,235.3,424.6,206.9,389.7,206.9z"/>
	<path class="st1" d="M172,59.5C79.1,59.5,3.5,135.1,3.5,228c0,92.9,75.6,168.5,168.5,168.5S340.6,320.9,340.6,228
		C340.6,135.1,265,59.5,172,59.5z M87.8,277.2c-27.1,0-49.2-22.1-49.2-49.2s22.1-49.2,49.2-49.2c27.1,0,49.2,22.1,49.2,49.2
		S114.9,277.2,87.8,277.2z M172,361.4c-27.1,0-49.2-22.1-49.2-49.2s22.1-49.2,49.2-49.2c27.1,0,49.2,22.1,49.2,49.2
		S199.1,361.4,172,361.4z M172,192.9c-27.1,0-49.2-22.1-49.2-49.2s22.1-49.2,49.2-49.2c27.1,0,49.2,22.1,49.2,49.2
		S199.1,192.9,172,192.9z M256.3,277.2c-27.1,0-49.2-22.1-49.2-49.2s22.1-49.2,49.2-49.2c27.1,0,49.2,22.1,49.2,49.2
		S283.4,277.2,256.3,277.2z"/>
	<g>
		<path class="st2" d="M136.9,228c0,27.1-22,49.2-49.2,49.2c-27.2,0-49.2-22-49.2-49.2s22-49.2,49.2-49.2
			C114.9,178.8,136.9,200.9,136.9,228z M144,228c0-31-25.2-56.2-56.2-56.2c-31,0-56.2,25.2-56.2,56.2s25.2,56.2,56.2,56.2
			C118.7,284.2,144,259,144,228L144,228z"/>
	</g>
	<path class="st3" d="M221.2,143.7c0,27.1-22.1,49.2-49.2,49.2v70.2c27.1,0,49.2,22.1,49.2,49.2s-22.1,49.2-49.2,49.2v35.1
		c92.9,0,168.5-75.6,168.5-168.5c0-92.9-75.6-168.5-168.5-168.5v35.1C199.1,94.6,221.2,116.6,221.2,143.7z M256.3,178.8
		c27.1,0,49.2,22.1,49.2,49.2s-22.1,49.2-49.2,49.2c-27.1,0-49.2-22.1-49.2-49.2S229.2,178.8,256.3,178.8z"/>
	<path class="st4" d="M186.1,228c0,7.8-6.3,14-14,14c-7.8,0-14-6.3-14-14c0-7.7,6.3-14,14-14C179.8,214,186.1,220.3,186.1,228z"/>
	<path class="st5" d="M172,221c6.5,0,12,4.5,13.5,10.5c0.3-1.1,0.5-2.3,0.5-3.5c0-7.7-6.3-14-14-14c-7.8,0-14,6.3-14,14
		c0,1.2,0.2,2.4,0.5,3.5C160.1,225.5,165.5,221,172,221z"/>
	<g>
		<path class="st2" d="M172,94.6c27.1,0,49.2,22,49.2,49.2c0,27.2-22,49.2-49.2,49.2c-27.1,0-49.2-22-49.2-49.2
			C122.9,116.6,144.9,94.6,172,94.6z M172,87.6c-31,0-56.2,25.2-56.2,56.2c0,31,25.2,56.2,56.2,56.2c31,0,56.2-25.2,56.2-56.2
			C228.2,112.8,203,87.6,172,87.6L172,87.6z"/>
	</g>
	<g>
		<path class="st2" d="M172,263.1c27.1,0,49.2,22,49.2,49.2c0,27.2-22,49.2-49.2,49.2c-27.1,0-49.2-22-49.2-49.2
			C122.9,285.1,144.9,263.1,172,263.1z M172,256.1c-31,0-56.2,25.2-56.2,56.2c0,31,25.2,56.2,56.2,56.2c31,0,56.2-25.2,56.2-56.2
			C228.2,281.3,203,256.1,172,256.1L172,256.1z"/>
	</g>
	<g>
		<path class="st2" d="M305.5,228c0,27.1-22,49.2-49.2,49.2c-27.2,0-49.2-22-49.2-49.2s22-49.2,49.2-49.2
			C283.5,178.8,305.5,200.9,305.5,228z M312.5,228c0-31-25.2-56.2-56.2-56.2c-31,0-56.2,25.2-56.2,56.2s25.2,56.2,56.2,56.2
			C287.3,284.2,312.5,259,312.5,228L312.5,228z"/>
	</g>
	<path class="st3" d="M122.9,312.3c0-27.1,22-49.2,49.2-49.2v-7c-31,0-56.2,25.2-56.2,56.2c0,31,25.2,56.2,56.2,56.2v-7
		C144.9,361.4,122.9,339.4,122.9,312.3z"/>
	<path class="st3" d="M38.6,228c0-27.1,22-49.2,49.2-49.2v-7c-31,0-56.2,25.2-56.2,56.2c0,31,25.2,56.2,56.2,56.2v-7
		C60.6,277.2,38.6,255.2,38.6,228z"/>
	<path class="st3" d="M122.9,143.7c0-27.1,22-49.2,49.2-49.2v-7c-31,0-56.2,25.2-56.2,56.2c0,31,25.2,56.2,56.2,56.2v-7
		C144.9,192.9,122.9,170.9,122.9,143.7z"/>
	<path class="st3" d="M207.2,228c0-27.1,22-49.2,49.2-49.2v-7c-31,0-56.2,25.2-56.2,56.2c0,31,25.2,56.2,56.2,56.2v-7
		C229.2,277.2,207.2,255.2,207.2,228z"/>
</g>
</svg>
