<?xml version="1.0" encoding="utf-8"?>
<!-- Generator: Adobe Illustrator 21.0.2, SVG Export Plug-In . SVG Version: 6.00 Build 0)  -->
<svg version="1.1" id="Capa_1" xmlns="http://www.w3.org/2000/svg" xmlns:xlink="http://www.w3.org/1999/xlink" x="0px" y="0px"
	 viewBox="0 0 512 512" style="enable-background:new 0 0 512 512;" xml:space="preserve">
<style type="text/css">
	.st0{fill:#D2453C;}
	.st1{fill:#BB3D34;}
	.st2{fill:#89D6F7;}
	.st3{fill:#ABE0F9;}
	.st4{fill:#77C1DE;}
	.st5{fill:#F05642;}
	.st6{fill:#35495C;}
	.st7{fill:#B1C3D0;}
	.st8{fill:#E2E4E6;}
	.st9{fill:#FFFFFF;}
	.st10{fill:#113247;}
	.st11{fill:#8EADBE;}
</style>
<g>
	<path class="st0" d="M52.9,126.5h31.5c2.4,0,4.9,0.6,7,1.7l16.1,8.1l-7.8,39.2L80.7,158H52.9c-8.7,0-15.8-7.1-15.8-15.8
		S44.2,126.5,52.9,126.5z"/>
	<path class="st1" d="M97.9,173.7L80.7,158H52.9c-8.7,0-15.8-7.1-15.8-15.8h45.7c3.5,0,6.5-2.3,7.5-5.6l2.4-7.9l14.8,7.4l-7.5,37.6
		H97.9z"/>
	<path class="st0" d="M462.3,126.5h-31.5c-2.4,0-4.9,0.6-7.1,1.7l-16.1,8.1l7.8,39.2l19.1-17.4h27.8c8.7,0,15.8-7.1,15.8-15.8
		S471,126.5,462.3,126.5z"/>
	<path class="st1" d="M417.2,173.7l17.3-15.8h27.8c8.7,0,15.8-7.1,15.8-15.8h-45.7c-3.5,0-6.5-2.3-7.5-5.6l-2.4-7.9l-14.8,7.4
		l7.5,37.6H417.2z"/>
	<path class="st2" d="M261.3,47.6h-82.8c-18.9,0-34.3,11-40.2,28.6l-16.7,97.5c14.5,0,32.4,0,52.3,0h146.5L261.3,47.6z"/>
	<path class="st3" d="M336.2,47.6h-74.9l59.1,126.1h72.7l-16.7-97.5C370.5,58.6,355.1,47.6,336.2,47.6z"/>
	<path class="st4" d="M138.3,84.1c5.9-17.7,21.3-28.6,40.2-28.6h82.8h74.9c18.9,0,34.3,11,40.2,28.6l14.7,89.6h2l-16.7-97.5
		c-5.9-17.7-21.3-28.6-40.2-28.6h-74.9h-82.8c-18.9,0-34.3,11-40.2,28.6l-16.7,97.5c0.6,0,1.4,0,2,0L138.3,84.1z"/>
	<path class="st5" d="M446.5,173.7h-20.2l-20-107.4c-10.2-30.5-37.7-50.2-70.1-50.2H178.5c-32.4,0-60,19.7-70.1,50.2l-20,107.4
		c-2.7,0-20,0-20.2,0c-26.1,0-47.3,52.7-47.3,78.8V355c0,8.7,7.1,15.8,15.8,15.8H478c8.7,0,15.8-7.1,15.8-15.8V252.6
		C493.8,226.5,472.6,173.7,446.5,173.7z M172.1,173.7c-18.1,0-36,0-50.5,0l16.7-97.5c5.9-17.7,21.3-28.6,40.2-28.6h70.9v15.8h-7.9
		c-4.4,0-7.9,3.5-7.9,7.9c0,4.3,3.5,7.9,7.9,7.9h15.7c0,0,0,0,0,0s0,0,0,0h15.7c4.4,0,7.9-3.5,7.9-7.9c0-4.4-3.5-7.9-7.9-7.9h-7.9
		V47.6h70.9c18.9,0,34.3,11,40.2,28.6l15,97.5H172.1z"/>
	<path class="st0" d="M257.3,355h236.4V252.6c0-22.7-15.1-54.7-22.6-63.1h-198c-8.7,0-15.8,38.6-15.8,47.3v70.9
		c0,8.7-7.1,15.8-15.8,15.8H20.9V355h220.7H257.3z"/>
	<g>
		<path class="st6" d="M131.2,496.9H68.2c-8.7,0-15.8-7.1-15.8-15.8v-70.9c0-8.7,7.1-15.8,15.8-15.8h63.1c8.7,0,15.8,7.1,15.8,15.8
			v70.9C147,489.8,139.9,496.9,131.2,496.9z"/>
	</g>
	<g>
		<path class="st6" d="M446.5,496.9h-63.1c-8.7,0-15.8-7.1-15.8-15.8v-70.9c0-8.7,7.1-15.8,15.8-15.8h63.1c8.7,0,15.8,7.1,15.8,15.8
			v70.9C462.3,489.8,455.2,496.9,446.5,496.9z"/>
	</g>
	<g>
		<path class="st7" d="M509.5,410.2c0,4.3-3.5,7.9-7.9,7.9H13c-4.3,0-7.9-3.5-7.9-7.9v-47.3c0-4.3,3.5-7.9,7.9-7.9h488.7
			c4.3,0,7.9,3.5,7.9,7.9V410.2z"/>
	</g>
	<path class="st8" d="M77.4,298.5c12.3,12.3,32.3,12.3,44.6,0c12.3-12.3,12.3-32.3,0-44.6L77.4,298.5z"/>
	<path class="st9" d="M122,253.9c-12.3-12.3-32.3-12.3-44.6,0s-12.3,32.3,0,44.6L122,253.9z"/>
	<path class="st8" d="M392.7,298.5c12.3,12.3,32.3,12.3,44.6,0c12.3-12.3,12.3-32.3,0-44.6L392.7,298.5z"/>
	<path class="st9" d="M437.3,253.9c-12.3-12.3-32.3-12.3-44.6,0c-12.3,12.3-12.3,32.3,0,44.6L437.3,253.9z"/>
	<g>
		<path class="st1" d="M170.6,260.4V292c0,8.7,7.1,15.8,15.8,15.8v-63.1C177.7,244.7,170.6,251.8,170.6,260.4z"/>
		<rect x="233.7" y="244.7" class="st1" width="15.8" height="63.1"/>
		<rect x="202.2" y="244.7" class="st1" width="15.8" height="63.1"/>
		<rect x="265.2" y="244.7" class="st1" width="15.8" height="63.1"/>
		<rect x="296.7" y="244.7" class="st1" width="15.8" height="63.1"/>
		<path class="st1" d="M328.3,244.7v63.1c8.7,0,15.8-7.1,15.8-15.8v-31.5C344,251.8,336.9,244.7,328.3,244.7z"/>
	</g>
	<path class="st0" d="M99.7,307.7c-16.1,0-29.2-12.1-31.1-27.6c-0.2,1.3-0.4,2.6-0.4,3.9c0,17.4,14.1,31.5,31.5,31.5
		s31.5-14.1,31.5-31.5c0-1.4-0.2-2.6-0.4-3.9C128.9,295.7,115.8,307.7,99.7,307.7z"/>
	<path class="st10" d="M367.7,418.1v39.4h31.5c8.7,0,15.8,7.1,15.8,15.8v23.6h31.5c8.7,0,15.8-7.1,15.8-15.8v-23.6v-39.4H367.7z"/>
	<path class="st10" d="M52.4,418.1v39.4h31.5c8.7,0,15.8,7.1,15.8,15.8v23.6h31.5c8.7,0,15.8-7.1,15.8-15.8v-23.6v-39.4H52.4z"/>
	<path class="st11" d="M257.3,394.4c0,4.4-3.5,7.9-7.9,7.9H5.1v7.9c0,4.3,3.4,7.9,7.6,7.9h489.2c4.2,0,7.6-3.5,7.6-7.9v-47.3H265.2
		c-4.4,0-7.9,3.5-7.9,7.9V394.4z"/>
	<polygon class="st0" points="123.6,165.9 90.4,165.9 88.3,173.7 121.6,173.7 	"/>
	<path class="st0" d="M406.3,66.3c-4.7-14.1-13.1-25.8-24-34.4H273.1c-8.7,0-15.8,7.1-15.8,15.8h-7.9v7.9c4.4,0,7.9,3.5,7.9,7.9
		v15.8c0,0,0,0,0,0h15.7c4.4,0,7.9-3.5,7.9-7.9c0-4.4-3.5-7.9-7.9-7.9h-7.9V47.6h70.9c18.9,0,34.3,11,40.2,28.6l15,97.5h35
		L406.3,66.3z"/>
</g>
</svg>
