<?xml version="1.0" encoding="utf-8"?>
<!-- Generator: Adobe Illustrator 21.0.2, SVG Export Plug-In . SVG Version: 6.00 Build 0)  -->
<svg version="1.1" id="Layer_1" xmlns="http://www.w3.org/2000/svg" xmlns:xlink="http://www.w3.org/1999/xlink" x="0px" y="0px"
	 viewBox="0 0 512 512" style="enable-background:new 0 0 512 512;" xml:space="preserve">
<style type="text/css">
	.st0{fill:#B4E1FA;}
	.st1{fill:#A5D76E;}
	.st2{fill:#FFE164;}
	.st3{fill:#FFA05A;}
	.st4{fill:#FF6464;}
	.st5{fill:#A2CC3A;}
	.st6{fill:#8F96AC;}
	.st7{fill:#C7CFE2;}
	.st8{fill:#707487;}
	.st9{fill:#EBF5AA;}
</style>
<path class="st0" d="M474.5,287.8l-37.5,30v-97.1h35.3c4.9,0,8.8,4,8.8,8.8V274C481.1,279.4,478.7,284.4,474.5,287.8z"/>
<path class="st1" d="M474.5,243.6l-37.5,30v-97.1h35.3c4.9,0,8.8,4,8.8,8.8v44.5C481.1,235.2,478.7,240.3,474.5,243.6z"/>
<path class="st2" d="M474.5,199.5l-37.5,30v-97.1h35.3c4.9,0,8.8,4,8.8,8.8v44.5C481.1,191.1,478.7,196.2,474.5,199.5z"/>
<path class="st3" d="M474.5,155.4l-37.5,30V88.3h35.3c4.9,0,8.8,4,8.8,8.8v44.5C481.1,146.9,478.7,152,474.5,155.4z"/>
<path class="st4" d="M474.5,111.2l-37.5,30V44.1h35.3c4.9,0,8.8,4,8.8,8.8v44.5C481.1,102.8,478.7,107.9,474.5,111.2z"/>
<path class="st5" d="M472.3,0H66.2c-4.9,0-8.8,4-8.8,8.8v494.3c0,4.9,4,8.8,8.8,8.8h379.6c4.9,0,8.8-4,8.8-8.8V91.5
	c0-5.4,2.4-10.4,6.6-13.8l13.2-10.6c4.2-3.4,6.6-8.4,6.6-13.8V8.8C481.1,4,477.2,0,472.3,0z"/>
<path class="st6" d="M136.8,512H66.2c-4.9,0-8.8-4-8.8-8.8V8.8c0-4.9,4-8.8,8.8-8.8h70.6V512z"/>
<g>
	<path class="st7" d="M75,88.3H39.7c-4.9,0-8.8-4-8.8-8.8s4-8.8,8.8-8.8H75c4.9,0,8.8,4,8.8,8.8S79.9,88.3,75,88.3z"/>
	<path class="st7" d="M75,44.1H39.7c-4.9,0-8.8-4-8.8-8.8s4-8.8,8.8-8.8H75c4.9,0,8.8,4,8.8,8.8S79.9,44.1,75,44.1z"/>
	<path class="st7" d="M75,485.5H39.7c-4.9,0-8.8-4-8.8-8.8s4-8.8,8.8-8.8H75c4.9,0,8.8,4,8.8,8.8C83.9,481.6,79.9,485.5,75,485.5z"
		/>
	<path class="st7" d="M75,132.4H39.7c-4.9,0-8.8-4-8.8-8.8c0-4.9,4-8.8,8.8-8.8H75c4.9,0,8.8,4,8.8,8.8
		C83.9,128.5,79.9,132.4,75,132.4z"/>
	<path class="st7" d="M75,176.6H39.7c-4.9,0-8.8-4-8.8-8.8s4-8.8,8.8-8.8H75c4.9,0,8.8,4,8.8,8.8S79.9,176.6,75,176.6z"/>
	<path class="st7" d="M75,220.7H39.7c-4.9,0-8.8-4-8.8-8.8s4-8.8,8.8-8.8H75c4.9,0,8.8,4,8.8,8.8S79.9,220.7,75,220.7z"/>
	<path class="st7" d="M75,264.8H39.7c-4.9,0-8.8-4-8.8-8.8s4-8.8,8.8-8.8H75c4.9,0,8.8,4,8.8,8.8S79.9,264.8,75,264.8z"/>
	<path class="st7" d="M75,309H39.7c-4.9,0-8.8-4-8.8-8.8s4-8.8,8.8-8.8H75c4.9,0,8.8,4,8.8,8.8S79.9,309,75,309z"/>
	<path class="st7" d="M75,353.1H39.7c-4.9,0-8.8-4-8.8-8.8s4-8.8,8.8-8.8H75c4.9,0,8.8,4,8.8,8.8C83.9,349.2,79.9,353.1,75,353.1z"
		/>
	<path class="st7" d="M75,397.2H39.7c-4.9,0-8.8-4-8.8-8.8s4-8.8,8.8-8.8H75c4.9,0,8.8,4,8.8,8.8S79.9,397.2,75,397.2z"/>
	<path class="st7" d="M75,441.4H39.7c-4.9,0-8.8-4-8.8-8.8s4-8.8,8.8-8.8H75c4.9,0,8.8,4,8.8,8.8S79.9,441.4,75,441.4z"/>
</g>
<path class="st8" d="M110.3,494.3L110.3,494.3c-4.9,0-8.8-4-8.8-8.8v-459c0-4.9,4-8.8,8.8-8.8l0,0c4.9,0,8.8,4,8.8,8.8v459
	C119.2,490.4,115.2,494.3,110.3,494.3z"/>
<path class="st9" d="M395.1,327L342,296.4c-5.2-3-11.7-2.1-15.9,2.1l-10.5,10.5c-4,4-10.4,4.4-14.9,0.8
	c-8.2-6.6-16.4-13.9-24.4-21.9c-8-8-15.4-16.2-21.9-24.4c-3.6-4.4-3.2-10.9,0.8-14.9l10.5-10.5c4.2-4.2,5.1-10.7,2.1-15.9
	l-30.6-53.1c-4.3-7.5-14.6-8.9-20.7-2.7l-15.8,15.8c-20.5,20.5,3.4,77.8,53.4,127.8s107.3,74,127.8,53.4l15.8-15.8
	C403.9,341.5,402.6,331.3,395.1,327z"/>
<path class="st1" d="M225.8,162.5c4.5,0,8.9,2.3,11.4,6.6l30.6,53.1c3,5.2,2.1,11.7-2.1,15.9l-10.5,10.5c-4,4-4.4,10.4-0.8,14.9
	c6.6,8.2,13.9,16.4,21.9,24.4c8,8,16.2,15.4,24.4,21.9c2,1.6,4.5,2.5,7,2.5c2.9,0,5.7-1.1,7.9-3.3l10.5-10.5
	c2.5-2.5,5.9-3.9,9.3-3.9c2.2,0,4.5,0.6,6.6,1.8l53.1,30.6c7.5,4.3,8.9,14.6,2.7,20.7L382,363.4c-5,5-12.2,7.4-20.8,7.4
	c-27.1,0-69.1-22.9-107-60.8c-50.1-50-74-107.3-53.4-127.8l15.8-15.8C219.2,163.8,222.5,162.5,225.8,162.5 M225.8,144.9L225.8,144.9
	c-8.2,0-15.9,3.2-21.8,9l-15.8,15.8c-24.7,24.7-14.2,85.1,53.4,152.8c40.7,40.7,86.5,66,119.4,66c17.2,0,27.6-6.8,33.3-12.5
	l15.8-15.8c6.8-6.8,10-16.2,8.8-25.8s-6.8-17.8-15.2-22.7l-53.1-30.6c-4.7-2.7-10-4.1-15.4-4.1c-8.2,0-16,3.2-21.8,9l-6.3,6.3
	c-6.3-5.3-12.5-11-18.5-17c-6-6-11.7-12.2-17-18.5l6.3-6.3c9.8-9.8,11.8-25.1,4.9-37.1l-30.6-53.1
	C247.1,150.8,236.8,144.9,225.8,144.9L225.8,144.9L225.8,144.9z"/>
</svg>
