<?xml version="1.0" encoding="utf-8"?>
<!-- Generator: Adobe Illustrator 21.0.2, SVG Export Plug-In . SVG Version: 6.00 Build 0)  -->
<svg version="1.1" id="Capa_1" xmlns="http://www.w3.org/2000/svg" xmlns:xlink="http://www.w3.org/1999/xlink" x="0px" y="0px"
	 viewBox="0 0 512 512" style="enable-background:new 0 0 512 512;" xml:space="preserve">
<style type="text/css">
	.st0{fill:#E2E4E6;}
	.st1{fill:#C9D1D7;}
	.st2{fill:#35495C;}
	.st3{fill:#50BEE7;}
	.st4{fill:#46A6CB;}
	.st5{fill:#576D7E;}
	.st6{fill:#FCCF63;}
	.st7{fill:#F05642;}
	.st8{fill:#BB3D34;}
	.st9{fill:#F6B74E;}
	.st10{fill:#8FC560;}
	.st11{fill:#6EA740;}
	.st12{fill:#73AE43;}
	.st13{fill:#253647;}
	.st14{fill:#DFA747;}
</style>
<g>
	<polygon class="st0" points="225.3,260.6 256.9,260.6 256.9,15.7 162.1,15.7 162.1,260.6 193.7,260.6 	"/>
	<polygon class="st0" points="91,260.6 122.6,260.6 122.6,15.7 27.8,15.7 27.8,260.6 59.4,260.6 	"/>
	<polygon class="st1" points="122.6,15.7 75.2,15.7 75.2,260.6 91,260.6 122.6,260.6 	"/>
	<polygon class="st1" points="256.9,15.7 209.5,15.7 209.5,260.6 225.3,260.6 256.9,260.6 	"/>
	<path class="st2" d="M492.7,151.5c-5.6-2.6-12.2-1.7-16.9,2.4l-84.5,72.5v-60.5c0-6.2-3.6-11.8-9.2-14.4
		c-5.6-2.6-12.2-1.7-16.9,2.4l-106.2,91H43.6c-8.7,0-15.8,7.1-15.8,15.8v221.3c0,8.7,7.1,15.8,15.8,15.8h442.5
		c8.7,0,15.8-7.1,15.8-15.8V165.8C501.9,159.6,498.3,154,492.7,151.5z"/>
	<g>
		<rect x="320.2" y="339.7" class="st3" width="110.6" height="71.1"/>
		<rect x="320.2" y="339.7" class="st4" width="110.6" height="7.9"/>
		<path class="st5" d="M438.7,426.6H312.3c-4.4,0-7.9-3.5-7.9-7.9v-86.9c0-4.4,3.5-7.9,7.9-7.9h126.4c4.4,0,7.9,3.5,7.9,7.9v86.9
			C446.6,423.1,443.1,426.6,438.7,426.6z M320.2,410.8h110.6v-71.1H320.2V410.8z"/>
	</g>
	<rect x="114.7" y="323.9" class="st6" width="158.1" height="173.9"/>
	<g>
		<rect x="27.8" y="39.4" class="st7" width="47.4" height="23.7"/>
	</g>
	<g>
		<rect x="27.8" y="86.8" class="st7" width="47.4" height="23.7"/>
	</g>
	<g>
		<rect x="75.2" y="39.4" class="st8" width="47.4" height="23.7"/>
	</g>
	<g>
		<rect x="75.2" y="86.8" class="st8" width="47.4" height="23.7"/>
	</g>
	<g>
		<rect x="162.1" y="39.4" class="st7" width="47.4" height="23.7"/>
	</g>
	<g>
		<rect x="162.1" y="86.8" class="st7" width="47.4" height="23.7"/>
	</g>
	<g>
		<rect x="209.5" y="39.4" class="st8" width="47.4" height="23.7"/>
	</g>
	<g>
		<rect x="209.5" y="86.8" class="st8" width="47.4" height="23.7"/>
	</g>
	<rect x="185.8" y="323.9" class="st9" width="15.8" height="173.9"/>
	<g>
		<path class="st10" d="M68.8,497.7c4-5.7,6.4-12.6,6.4-20.1c0-19.4-15.9-35.2-35.6-35.2c-19.6,0-35.6,15.8-35.6,35.2
			c0,7.5,2.4,14.4,6.4,20.1H68.8z"/>
	</g>
	<g>
		<path class="st11" d="M475.6,497.7c3.3-4.6,5.2-10.1,5.2-16.1c0-15.6-13-28.2-29-28.2c-16,0-29,12.6-29,28.2
			c0,6,1.9,11.5,5.2,16.1H475.6z"/>
	</g>
	<g>
		<path class="st10" d="M503.6,497.7c3.9-5.7,6.3-12.6,6.3-20.1c0-19.4-15.6-35.2-34.8-35.2c-19.2,0-34.8,15.8-34.8,35.2
			c0,7.5,2.3,14.4,6.3,20.1H503.6z"/>
	</g>
	<path class="st12" d="M442.5,455.1c-11.4,3.8-19.6,14.2-19.6,26.5c0,6,1.9,11.5,5.2,16.1h12.6c-3.9-5.7-6.3-12.6-6.3-20.1
		C434.5,469,437.5,461.2,442.5,455.1z"/>
	<g>
		<path class="st12" d="M60.9,449.4c4.5,5.8,7.2,12.9,7.2,20.7c0,11.4-5.7,21.4-14.4,27.7h14.3c4.5-5.8,7.3-12.9,7.3-20.7
			C75.2,465.7,69.5,455.7,60.9,449.4z"/>
	</g>
	<g>
		<path class="st12" d="M495.8,449.4c4.4,5.8,7,12.9,7,20.7c0,11.4-5.6,21.4-14.1,27.7h14.8c4.4-5.8,6.3-12.9,6.3-20.7
			C509.8,465.7,504.3,455.7,495.8,449.4z"/>
	</g>
	<path class="st13" d="M492.7,151.5c-5.6-2.6-12.2-1.7-16.9,2.4l-84.5,72.5v-60.5c0-6.2-3.6-11.8-9.2-14.4
		c-5.6-2.6-12.2-1.7-16.9,2.4l-106.2,91h242.9v-79C501.9,159.6,498.3,154,492.7,151.5z"/>
	<rect x="114.7" y="323.9" class="st14" width="158.1" height="15.8"/>
	<circle class="st5" cx="217.4" cy="410.8" r="7.9"/>
	<circle class="st5" cx="170" cy="410.8" r="7.9"/>
</g>
</svg>
