<svg id="katman_1" data-name="katman 1" xmlns="http://www.w3.org/2000/svg" viewBox="0 0 49.8 58.23"><defs><style>.cls-1{fill:#5ea5d6;}.cls-1,.cls-2,.cls-4{fill-rule:evenodd;}.cls-2{fill:#498cbb;}.cls-3,.cls-5{fill:#fff;}.cls-4{fill:#95cdf1;}.cls-5{stroke:#fff;stroke-miterlimit:10;stroke-width:0.35px;}</style></defs><path class="cls-1" d="M6.53,0H32.92L49.8,16.71v35a6.55,6.55,0,0,1-6.53,6.52H6.53A6.55,6.55,0,0,1,0,51.68V6.53A6.55,6.55,0,0,1,6.53,0Z"/><polygon class="cls-2" points="35.32 15.18 49.8 28.55 49.8 16.71 45.89 12.84 35.32 15.18 35.32 15.18"/><path class="cls-3" d="M5.67,48.69V37.85h3.5a4.88,4.88,0,0,1,3.58,1.3,4.6,4.6,0,0,1,1.32,3.39V44a4.53,4.53,0,0,1-1.32,3.38,5,5,0,0,1-3.62,1.28Zm2.18-9.16V47H9a2.73,2.73,0,0,0,2.18-.84A3.39,3.39,0,0,0,11.88,44V42.56a3.37,3.37,0,0,0-.67-2.23,2.66,2.66,0,0,0-2.15-.8ZM24.6,44.25a4.63,4.63,0,0,1-1.25,3.31,4.41,4.41,0,0,1-3.3,1.29,4.32,4.32,0,0,1-3.26-1.29,4.6,4.6,0,0,1-1.26-3.31v-2A4.63,4.63,0,0,1,16.76,39,4.25,4.25,0,0,1,20,37.68,4.32,4.32,0,0,1,23.32,39a4.62,4.62,0,0,1,1.28,3.3v2Zm-2.18-2a3.33,3.33,0,0,0-.62-2.07,2.11,2.11,0,0,0-1.75-.85,2,2,0,0,0-1.69.81,3.4,3.4,0,0,0-.64,2.11v2a3.41,3.41,0,0,0,.61,2.1,2,2,0,0,0,1.69.85,2.08,2.08,0,0,0,1.75-.85,3.35,3.35,0,0,0,.62-2.1v-2ZM34.64,45.1a3.92,3.92,0,0,1-1.22,2.77,4.48,4.48,0,0,1-3.07,1,4.09,4.09,0,0,1-3.13-1.23,4.6,4.6,0,0,1-1.14-3.26V42.2A4.55,4.55,0,0,1,27.25,39a4,4,0,0,1,3.1-1.25,4.32,4.32,0,0,1,3.06,1,4.23,4.23,0,0,1,1.24,2.81H32.46a2.67,2.67,0,0,0-.56-1.59,2,2,0,0,0-1.57-.53,1.8,1.8,0,0,0-1.55.78,3.51,3.51,0,0,0-.55,2v2.17a3.52,3.52,0,0,0,.53,2,1.78,1.78,0,0,0,1.57.76,2,2,0,0,0,1.53-.5,2.49,2.49,0,0,0,.59-1.56Z"/><path class="cls-4" d="M14.47,10.33H35.33V13H14.47Zm0,12.42H28.73v2.62H14.47Zm0-6.21H35.33v2.62H14.47Z"/><path class="cls-4" d="M49.78,16.69H39.49A6.54,6.54,0,0,1,33,10.16V0Z"/><path class="cls-5" d="M42.48,48.69,40,44.48l-2.47,4.21H35.74l3.38-5.53L35.88,37.9h1.81L40,41.83l2.32-3.93h1.79l-3.24,5.26,3.4,5.53Z"/></svg>