<svg id="katman_1" data-name="katman 1" xmlns="http://www.w3.org/2000/svg" viewBox="0 0 49.8 58.23"><defs><style>.cls-1{fill:#733e91;}.cls-1,.cls-2,.cls-3{fill-rule:evenodd;}.cls-2{fill:#6b2e88;}.cls-3{fill:#854f9a;}.cls-4{isolation:isolate;}.cls-5{fill:#fffffe;}</style></defs><path class="cls-1" d="M6.53,0H32.92L49.8,16.71v35a6.55,6.55,0,0,1-6.53,6.52H6.53A6.55,6.55,0,0,1,0,51.68V6.53A6.55,6.55,0,0,1,6.53,0Z"/><polygon class="cls-2" points="35.32 15.18 49.8 28.55 49.8 16.71 45.89 12.84 35.32 15.18 35.32 15.18"/><path class="cls-3" d="M49.78,16.69H39.49A6.54,6.54,0,0,1,33,10.16V0Z"/><path class="cls-3" d="M26.89,9H19.28c-2.79,0-4.61,1.26-5.43,2.87a4.55,4.55,0,0,0,0,4.1c.82,1.61,2.63,2.87,5.43,2.87H31.2a3.14,3.14,0,0,1,3.08,1.64,2.59,2.59,0,0,1,.25,1.13,2.73,2.73,0,0,1-.26,1.16,3.14,3.14,0,0,1-3.07,1.7H22.41a2.29,2.29,0,1,0,0,1.92H31.2A5,5,0,0,0,36,23.52a4.64,4.64,0,0,0,0-3.89,5,5,0,0,0-4.82-2.75H19.28c-2,0-3.2-.79-3.72-1.81a2.69,2.69,0,0,1,0-2.38,3.94,3.94,0,0,1,3.72-1.82h7.49a2.15,2.15,0,0,0,2.13,1.46A2.39,2.39,0,0,0,31.19,10,2.44,2.44,0,0,0,28.9,7.76a2.08,2.08,0,0,0-2,1.2Z"/><g class="cls-4"><path class="cls-5" d="M19.06,43.46a7.81,7.81,0,0,1-.41,2.67A4.48,4.48,0,0,1,17.48,48a4.69,4.69,0,0,1-1.86,1,9.11,9.11,0,0,1-2.61.33H10.29a.72.72,0,0,1-.48-.17.7.7,0,0,1-.2-.56V38.67a.7.7,0,0,1,.2-.56.67.67,0,0,1,.48-.17h2.92a8.34,8.34,0,0,1,2.58.35,4.71,4.71,0,0,1,1.79,1.06,4.51,4.51,0,0,1,1.1,1.72A7,7,0,0,1,19.06,43.46Zm-2.39.08A6.06,6.06,0,0,0,16.48,42a3.25,3.25,0,0,0-.61-1.2A2.79,2.79,0,0,0,14.8,40a4.38,4.38,0,0,0-1.72-.28H11.91v7.73h1.21a4.69,4.69,0,0,0,1.6-.24,2.77,2.77,0,0,0,1.08-.75,3.15,3.15,0,0,0,.65-1.23A5.94,5.94,0,0,0,16.67,43.54Z"/></g><g class="cls-4"><path class="cls-5" d="M30.63,48.44a2.35,2.35,0,0,1,.22.49.23.23,0,0,1-.06.28.7.7,0,0,1-.41.13l-.83,0h-.7l-.41-.06a.51.51,0,0,1-.21-.11.54.54,0,0,1-.11-.18l-2.31-4.1L23.51,49l-.12.18a.64.64,0,0,1-.22.11l-.4.06h-.69l-.77,0a.55.55,0,0,1-.36-.13.25.25,0,0,1,0-.28,2.66,2.66,0,0,1,.24-.49l2.94-5-2.73-4.66a3.56,3.56,0,0,1-.24-.51.25.25,0,0,1,.05-.28.71.71,0,0,1,.4-.11q.3,0,.84,0l.71,0a1.89,1.89,0,0,1,.41.06.41.41,0,0,1,.21.11,1.25,1.25,0,0,1,.12.17L26,42l2.1-3.77a.71.71,0,0,1,.11-.17.42.42,0,0,1,.2-.11,1.59,1.59,0,0,1,.38-.06l.67,0a7.2,7.2,0,0,1,.75,0,.57.57,0,0,1,.38.12.24.24,0,0,1,.05.28,2.46,2.46,0,0,1-.21.5l-2.73,4.64Z"/></g><g class="cls-4"><path class="cls-5" d="M40.24,38.94c0,.17,0,.32,0,.44a1.3,1.3,0,0,1-.08.29.31.31,0,0,1-.12.15.2.2,0,0,1-.15.06h-4v3.06h3.77a.24.24,0,0,1,.15,0,.31.31,0,0,1,.12.15.85.85,0,0,1,.08.28c0,.12,0,.26,0,.44s0,.32,0,.44a1,1,0,0,1-.08.29.34.34,0,0,1-.12.16.25.25,0,0,1-.15,0H35.85V49a.28.28,0,0,1-.05.16.42.42,0,0,1-.21.12,2,2,0,0,1-.38.08l-.61,0-.6,0a2.39,2.39,0,0,1-.39-.08.43.43,0,0,1-.2-.12.23.23,0,0,1-.06-.16V38.72a.68.68,0,0,1,.21-.56.79.79,0,0,1,.53-.17h5.78A.2.2,0,0,1,40,38a.31.31,0,0,1,.12.15,1.6,1.6,0,0,1,.08.3C40.23,38.61,40.24,38.76,40.24,38.94Z"/></g></svg>