<svg xmlns="http://www.w3.org/2000/svg" viewBox="0 0 49.8 58.2"><defs><style>.cls-1{fill:#22b5b9;}.cls-1,.cls-2,.cls-3{fill-rule:evenodd;}.cls-2{fill:#109395;}.cls-3{fill:#65c3d1;}.cls-4{fill:#fff;}</style></defs><g id="katman_2" data-name="katman 2"><g id="katman_1-2" data-name="katman 1"><path class="cls-1" d="M6.53,0H32.92L49.8,16.71v35a6.55,6.55,0,0,1-6.53,6.52H6.53A6.55,6.55,0,0,1,0,51.68V6.53A6.55,6.55,0,0,1,6.53,0Z"/><polygon class="cls-2" points="35.32 15.18 49.8 28.55 49.8 16.71 45.89 12.84 35.32 15.18 35.32 15.18"/><path class="cls-3" d="M49.78,16.69H39.49A6.55,6.55,0,0,1,33,10.16V0L49.78,16.69Z"/><path class="cls-4" d="M17.56,44h-5.3v3.66h6.2v2H9.69V36.78h8.75v2H12.26V42h5.3v2Zm5,1v4.64H20V36.78h5.1a5.06,5.06,0,0,1,3.49,1.11,4.17,4.17,0,0,1,0,6,5.11,5.11,0,0,1-3.49,1.1Zm0-2h2.53a2.16,2.16,0,0,0,1.64-.57,2.12,2.12,0,0,0,.54-1.5,2.21,2.21,0,0,0-.54-1.54,2.13,2.13,0,0,0-1.64-.59H22.6V43Zm16,3.28a1.49,1.49,0,0,0-.51-1.19,5.3,5.3,0,0,0-1.84-.84,10.55,10.55,0,0,1-3.48-1.56,3,3,0,0,1-1.14-2.49,3.08,3.08,0,0,1,1.32-2.58,5.59,5.59,0,0,1,3.44-1,5.22,5.22,0,0,1,3.47,1.11,3.53,3.53,0,0,1,1.31,2.82H38.58A1.86,1.86,0,0,0,38,39.09a2.35,2.35,0,0,0-1.67-.54,2.48,2.48,0,0,0-1.6.45,1.44,1.44,0,0,0-.56,1.17,1.26,1.26,0,0,0,.59,1.08,8.7,8.7,0,0,0,2.09.88,8.24,8.24,0,0,1,3.23,1.54,3.24,3.24,0,0,1,1.07,2.55,3,3,0,0,1-1.28,2.61,5.75,5.75,0,0,1-3.44.94,6.35,6.35,0,0,1-3.67-1.07,3.51,3.51,0,0,1-1.54-3.08h2.56a2,2,0,0,0,.69,1.68,3.18,3.18,0,0,0,2,.52A2.53,2.53,0,0,0,38,47.39a1.37,1.37,0,0,0,.54-1.15Z"/><path class="cls-3" d="M26.89,9H19.28c-2.79,0-4.61,1.26-5.43,2.87a4.53,4.53,0,0,0,0,4.1c.82,1.61,2.63,2.87,5.43,2.87H31.2a3.12,3.12,0,0,1,3.08,1.64,2.59,2.59,0,0,1,.25,1.13,2.8,2.8,0,0,1-.26,1.16,3.16,3.16,0,0,1-3.07,1.7H22.41a2.29,2.29,0,1,0,0,1.92H31.2A5,5,0,0,0,36,23.52a4.68,4.68,0,0,0,.43-1.94A4.57,4.57,0,0,0,36,19.63a5,5,0,0,0-4.82-2.75H19.28c-2,0-3.2-.79-3.72-1.81a2.67,2.67,0,0,1,0-2.38c.52-1,1.75-1.82,3.72-1.82h7.49a2.15,2.15,0,0,0,2.13,1.46,2.39,2.39,0,0,0,2.29-2.29A2.44,2.44,0,0,0,28.9,7.76a2.08,2.08,0,0,0-2,1.2Z"/></g></g></svg>