<svg xmlns="http://www.w3.org/2000/svg" viewBox="0 0 49.8 58.2"><defs><style>.cls-1{fill:#10a651;}.cls-1,.cls-2,.cls-3{fill-rule:evenodd;}.cls-2{fill:#047e3d;}.cls-3{fill:#51b36c;}.cls-4{fill:#fff;}</style></defs><g id="katman_2" data-name="katman 2"><g id="katman_1-2" data-name="katman 1"><path class="cls-1" d="M6.53,0H32.92L49.8,16.71v35a6.55,6.55,0,0,1-6.53,6.53H6.53A6.55,6.55,0,0,1,0,51.67V6.53A6.55,6.55,0,0,1,6.53,0Z"/><polygon class="cls-2" points="35.32 15.18 49.8 28.55 49.8 16.71 45.89 12.84 35.32 15.18 35.32 15.18"/><path class="cls-3" d="M49.78,16.69H39.49A6.55,6.55,0,0,1,33,10.16V0L49.78,16.69Z"/><path class="cls-4" d="M22.36,47.94a4.76,4.76,0,0,1-1.76,1.27,7.47,7.47,0,0,1-3.08.56,5.3,5.3,0,0,1-3.85-1.44,5.12,5.12,0,0,1-1.46-3.81V41.85A5.21,5.21,0,0,1,13.62,38a4.9,4.9,0,0,1,3.69-1.44,5.15,5.15,0,0,1,3.61,1.1,4.79,4.79,0,0,1,1.44,3.08h-2.5a2.94,2.94,0,0,0-.73-1.64,2.37,2.37,0,0,0-1.74-.56,2.34,2.34,0,0,0-1.92.89,3.72,3.72,0,0,0-.7,2.36v2.69a3.64,3.64,0,0,0,.73,2.38,2.45,2.45,0,0,0,2,.89A4.62,4.62,0,0,0,19,47.61a2.05,2.05,0,0,0,.82-.46V44.83H17.52V43.06h4.84v4.88Zm4.93,1.64H24.72V36.78h2.57v12.8Zm10.42-5.32H32.42v5.32H29.85V36.78H38.6v2H32.42v3.52h5.29v2Z"/><path class="cls-3" d="M16.43,8.34a3.08,3.08,0,1,1-3.08,3.07,3.07,3.07,0,0,1,3.08-3.07Zm-2.89,16.9,5.19-6.86L22,20.83l5.47-7.69,9,12.12-22.91,0Z"/></g></g></svg>