<svg xmlns="http://www.w3.org/2000/svg" viewBox="0 0 49.8 58.2"><defs><style>.cls-1{fill:#754695;}.cls-1,.cls-2,.cls-3{fill-rule:evenodd;}.cls-2{fill:#67348b;}.cls-3,.cls-4{fill:#9f76b2;}.cls-4{font-size:24px;font-family:ArialRoundedMTBold, Arial Rounded MT Bold;}.cls-5{font-size:18px;fill:#fffffe;font-family:ArialNarrow-Bold, Arial;font-weight:700;}.cls-6{letter-spacing:-0.06em;}.cls-7{letter-spacing:-0.03em;}</style></defs><g id="katman_2" data-name="katman 2"><g id="katman_1-2" data-name="katman 1"><path class="cls-1" d="M6.53,0H32.92L49.8,16.71v35a6.55,6.55,0,0,1-6.53,6.52H6.53A6.55,6.55,0,0,1,0,51.68V6.53A6.55,6.55,0,0,1,6.53,0Z"/><polygon class="cls-2" points="35.32 15.18 49.8 28.55 49.8 16.71 45.89 12.84 35.32 15.18 35.32 15.18"/><path class="cls-3" d="M49.78,16.69H39.49A6.55,6.55,0,0,1,33,10.16V0L49.78,16.69Z"/><text class="cls-4" transform="translate(5.59 31.88)">&lt;/&gt;</text><text class="cls-5" transform="translate(4.97 49.35)">J<tspan class="cls-6" x="8.21" y="0">AV</tspan><tspan class="cls-7" x="26.54" y="0">A</tspan></text></g></g></svg>