<svg id="Layer_1" data-name="Layer 1" xmlns="http://www.w3.org/2000/svg" viewBox="0 0 235.51 173.66"><defs><style>.cls-1{fill:#231f20;}.cls-2{fill:#faa61a;}.cls-3{fill:#f15a22;}.cls-4{fill:#f37021;}.cls-5{fill:#f7941d;}.cls-6{fill:#f58220;}</style></defs><path class="cls-1" d="M129,116.58a3,3,0,0,1-1.08,2.38,4.16,4.16,0,0,1-2.6,1,3.68,3.68,0,0,1-1.91-.33,5.63,5.63,0,0,1-1.51-1.45l-6-7.59a5.87,5.87,0,0,1-1.46-3.68,4.49,4.49,0,0,1,1-3.15,6.58,6.58,0,0,1,3.64-2.22,3.18,3.18,0,0,0,2.35-3.38,3,3,0,0,0-1-2.48,3.9,3.9,0,0,0-2.64-.94H113v21.4q0,3.73-3.6,3.82a3.23,3.23,0,0,1-2.66-1,4.1,4.1,0,0,1-.93-2.8V91.63A3.41,3.41,0,0,1,109.4,88h8.66a11,11,0,0,1,7.59,2.6,9.25,9.25,0,0,1,3,7.22,8.62,8.62,0,0,1-1.93,5.86,9.06,9.06,0,0,1-5.43,3l6.26,6.75a7.58,7.58,0,0,1,1.06,1.49A3.35,3.35,0,0,1,129,116.58Z"/><path class="cls-1" d="M162.47,119.07a2.76,2.76,0,0,1-.82,2.15,3.07,3.07,0,0,1-2.15.91,3.27,3.27,0,0,1-1.67-.33,13.12,13.12,0,0,1-2.24-1.71l-1.91-1.69a16,16,0,0,1-8,1.95q-7.23,0-11.45-4.66-4.08-4.53-4.08-11.85c0-4.88,1.34-8.84,4-11.85s6.64-4.67,11.49-4.67,8.69,1.56,11.5,4.67,4,7,4,11.85a17.68,17.68,0,0,1-2.84,10.21l1.73,1.51Q162.42,117.51,162.47,119.07Zm-8.92-15.23a11.8,11.8,0,0,0-1.82-6.79,6.87,6.87,0,0,0-6-3.07,6.51,6.51,0,0,0-5.81,2.78,12.4,12.4,0,0,0-2,7.08,11.37,11.37,0,0,0,1.78,6.79,7,7,0,0,0,6,3.07,6.81,6.81,0,0,0,2.18-.32,12.28,12.28,0,0,1-1.64-1.51,3.49,3.49,0,0,1-.76-2,2.8,2.8,0,0,1,.82-2.15,3.09,3.09,0,0,1,2.16-.91,3.24,3.24,0,0,1,1.68.35,21,21,0,0,1,2.22,1.69l.23.18A13.91,13.91,0,0,0,153.55,103.84Z"/><path class="cls-1" d="M187.88,99a10.56,10.56,0,0,1-2.82,7.75,10.35,10.35,0,0,1-7.7,2.86,4.85,4.85,0,0,1-2.78-.88,2.84,2.84,0,0,1-1.32-2.34c-.06-2,.77-3.09,2.47-3.12a5.27,5.27,0,0,0,3.39-1.15,4.44,4.44,0,0,0,.13-6.27,5,5,0,0,0-3.48-1.17h-3.83v21.48q0,3.7-3.56,3.79a3.2,3.2,0,0,1-2.64-1,4.06,4.06,0,0,1-.93-2.78V91.88a3.4,3.4,0,0,1,3.57-3.56h8.76a10.61,10.61,0,0,1,7.77,2.92A10.38,10.38,0,0,1,187.88,99Z"/><path class="cls-1" d="M88.43,89.06a3.22,3.22,0,0,0-2.64-1q-3.57.09-3.57,3.79v15l7.13,6.21V91.84A4.06,4.06,0,0,0,88.43,89.06Z"/><rect class="cls-1" x="84.31" y="71.36" width="2.46" height="31.82"/><path class="cls-2" d="M85.54,41.35l35.51,35.32a11.49,11.49,0,0,1,5.18,3A40.77,40.77,0,0,0,85.54,41.35Z"/><path class="cls-1" d="M85.54,36.43a1.24,1.24,0,0,0-1.23,1.23v4.92h2.47V37.66A1.24,1.24,0,0,0,85.54,36.43Z"/><path class="cls-2" d="M85.54,41.35,110,79.65a11.49,11.49,0,0,1,11.1-3C118.72,56.73,103.71,41.35,85.54,41.35Z"/><path class="cls-3" d="M44.86,79.65a11.52,11.52,0,0,1,16.28,0l24.4-38.3A40.77,40.77,0,0,0,44.86,79.65Z"/><path class="cls-4" d="M61.14,79.65a11.51,11.51,0,0,1,16.27,0l8.13-38.3C72.53,41.35,61.9,58.29,61.14,79.65Z"/><path class="cls-5" d="M85.54,41.35l8.14,38.3a11.51,11.51,0,0,1,16.27,0C109.19,58.29,98.56,41.35,85.54,41.35Z"/><path class="cls-6" d="M85.54,41.35c-4.33,0-7.88,16.94-8.13,38.3a11.51,11.51,0,0,1,16.27,0C93.43,58.29,89.88,41.35,85.54,41.35Z"/><path class="cls-1" d="M89.35,109.05a3.57,3.57,0,0,0,7.14,0,3.57,3.57,0,1,1,7.13,0,10.7,10.7,0,0,1-21.4,0V94.78h7.13v14.27Z"/></svg>