<svg xmlns="http://www.w3.org/2000/svg" viewBox="0 0 49.8 58.2"><defs><style>.cls-1{fill:#eb5e8f;}.cls-1,.cls-2,.cls-4{fill-rule:evenodd;}.cls-2{fill:#d93d72;}.cls-3{fill:#fff;}.cls-4{fill:#f298ba;}</style></defs><g id="katman_2" data-name="katman 2"><g id="katman_1-2" data-name="katman 1"><path class="cls-1" d="M6.53,0H32.92L49.8,16.71v35a6.55,6.55,0,0,1-6.53,6.52H6.53A6.55,6.55,0,0,1,0,51.68V6.53A6.55,6.55,0,0,1,6.53,0Z"/><polygon class="cls-2" points="35.32 15.18 49.8 28.55 49.8 16.71 45.89 12.84 35.32 15.18 35.32 15.18"/><path class="cls-3" d="M10,36.78l3.28,9.48h0l3.29-9.48h3.36v12.8H17.36V45.76L17.61,40h0l-3.46,9.57H12.4L9,40.05h0l.25,5.7v3.82H6.61V36.78Zm14.93,8.16v4.64H22.32V36.78h5.1a5.06,5.06,0,0,1,3.49,1.11,4.17,4.17,0,0,1,0,6,5.11,5.11,0,0,1-3.49,1.1Zm0-2h2.53a2.16,2.16,0,0,0,1.64-.57,2.12,2.12,0,0,0,.54-1.5,2.21,2.21,0,0,0-.54-1.54,2.13,2.13,0,0,0-1.64-.59H24.89V43Zm19,5a4.85,4.85,0,0,1-1.76,1.27,7.47,7.47,0,0,1-3.08.56,5.3,5.3,0,0,1-3.85-1.44,5.13,5.13,0,0,1-1.46-3.82V41.85A5.25,5.25,0,0,1,35.13,38a4.94,4.94,0,0,1,3.7-1.44,5.15,5.15,0,0,1,3.61,1.1,4.88,4.88,0,0,1,1.44,3.08h-2.5a2.94,2.94,0,0,0-.73-1.64,2.68,2.68,0,0,0-3.66.33,3.72,3.72,0,0,0-.7,2.36v2.68A3.65,3.65,0,0,0,37,46.9a2.45,2.45,0,0,0,2,.89,4.62,4.62,0,0,0,1.45-.18,2.05,2.05,0,0,0,.82-.46V44.83H39V43.06h4.84v4.88Z"/><path class="cls-4" d="M49.78,16.69H39.49A6.55,6.55,0,0,1,33,10.16V0L49.78,16.69Z"/><polygon class="cls-4" points="18.09 8.97 31.71 17.85 18.09 26.73 18.09 8.97 18.09 8.97"/></g></g></svg>