<svg xmlns="http://www.w3.org/2000/svg" viewBox="0 0 49.8 58.2"><defs><style>.cls-1{fill:#7566ab;}.cls-1,.cls-2,.cls-3{fill-rule:evenodd;}.cls-2{fill:#574b9a;}.cls-3{fill:#bba9d3;}.cls-4{fill:#fff;}</style></defs><g id="katman_2" data-name="katman 2"><g id="katman_1-2" data-name="katman 1"><path class="cls-1" d="M6.53,0H32.92L49.8,16.71v35a6.55,6.55,0,0,1-6.53,6.53H6.53A6.55,6.55,0,0,1,0,51.67V6.53A6.55,6.55,0,0,1,6.53,0Z"/><polygon class="cls-2" points="35.32 15.18 49.8 28.55 49.8 16.71 45.89 12.84 35.32 15.18 35.32 15.18"/><path class="cls-3" d="M49.78,16.69H39.49A6.55,6.55,0,0,1,33,10.16V0L49.78,16.69Z"/><path class="cls-4" d="M11.55,44.94v4.64H9V36.78h5.1a5.06,5.06,0,0,1,3.49,1.11,4.17,4.17,0,0,1,0,6,5.11,5.11,0,0,1-3.49,1.1Zm0-2h2.53a2.16,2.16,0,0,0,1.64-.57,2.12,2.12,0,0,0,.54-1.5,2.21,2.21,0,0,0-.54-1.54,2.13,2.13,0,0,0-1.64-.59H11.55V43Zm19,2.39a4.66,4.66,0,0,1-1.45,3.27,5.34,5.34,0,0,1-3.62,1.15,4.83,4.83,0,0,1-3.69-1.46,5.41,5.41,0,0,1-1.35-3.85V41.91a5.36,5.36,0,0,1,1.37-3.84,4.78,4.78,0,0,1,3.67-1.47,5.16,5.16,0,0,1,3.62,1.15,5,5,0,0,1,1.45,3.32H28a3.12,3.12,0,0,0-.68-1.87,2.35,2.35,0,0,0-1.84-.63,2.11,2.11,0,0,0-1.83.92A4.06,4.06,0,0,0,23,41.9v2.56a4.16,4.16,0,0,0,.62,2.42,2.11,2.11,0,0,0,1.86.91,2.41,2.41,0,0,0,1.8-.59,2.89,2.89,0,0,0,.7-1.85Zm6.22-4,2.39-4.54h3l-3.79,6.35,4,6.45h-3.1L36.75,45l-2.47,4.61h-3l3.89-6.45-3.79-6.35h3l2.37,4.54Z"/><path class="cls-3" d="M16.43,8.34a3.08,3.08,0,1,1-3.08,3.07,3.07,3.07,0,0,1,3.08-3.07Zm-2.89,16.9,5.19-6.86L22,20.83l5.47-7.69,9,12.12-22.91,0Z"/></g></g></svg>