<?xml version="1.0" encoding="utf-8"?>
<!-- Generator: Adobe Illustrator 25.2.1, SVG Export Plug-In . SVG Version: 6.00 Build 0)  -->
<svg version="1.1" id="Layer_1" xmlns="http://www.w3.org/2000/svg" xmlns:xlink="http://www.w3.org/1999/xlink" x="0px" y="0px"
	 viewBox="0 0 138.46 161.69" style="enable-background:new 0 0 138.46 161.69;" xml:space="preserve">
<style type="text/css">
	.st0{fill:#9CAFB5;}
	.st1{fill:#B9C4C9;}
	.st2{fill:#F09D12;}
	.st3{fill:#EBC710;}
	.st4{fill:#EBEEED;}
</style>
<g>
	<g>
		<g>
			<g>
				<path class="st0" d="M69.23,158.79v2.9c0,0-56.09-13.14-69.23-69.78v-2.9C13.14,145.65,69.23,158.79,69.23,158.79z"/>
			</g>
			<g>
				<path class="st0" d="M138.46,89.18v2.9c0,0-4.7,48.23-69.23,69.61v-2.9C133.76,137.41,138.46,89.18,138.46,89.18z"/>
			</g>
		</g>
	</g>
	<path class="st1" d="M0,0v89.01c13.14,56.64,69.23,69.78,69.23,69.78v-13.11c0,0-46.84-10.96-57.8-58.27V13.11h57.8V0H0z"/>
	<path class="st2" d="M69.23,13.11v132.57c0,0-46.84-10.96-57.8-58.27V13.11H69.23z"/>
	<path class="st3" d="M127.03,13.11v74.48c0,0-3.92,40.26-57.8,58.09V13.11H127.03z"/>
	<path class="st4" d="M138.46,0v89.18c0,0-4.7,48.23-69.23,69.61v-13.11c53.89-17.84,57.8-58.09,57.8-58.09V13.11h-57.8V0H138.46z"
		/>
	<path class="st4" d="M138.46,0v89.18c0,0-4.7,48.23-69.23,69.61v-13.11c53.89-17.84,57.8-58.09,57.8-58.09V13.11h-57.8V0H138.46z"
		/>
	<g>
		<path d="M46.64,98.89V56.46l-8.26,0.05V39.38h32.25c5.41,0,10.19,0.32,13.36,0.95c3.16,0.63,5.81,1.65,7.94,3.05
			c2.75,1.86,4.8,4.16,6.15,6.91c1.34,2.75,2.02,6.01,2.02,9.78c0,6.65-1.97,11.75-5.9,15.29c-3.93,3.54-9.6,5.31-17.01,5.31H65.25
			v18.22H46.64z M65.25,66.13h6.14c3.99,0,7.15-0.44,8.49-1.33c1.35-0.89,2.02-2.46,2.02-4.73c0-2.29-0.65-3.88-1.94-4.77
			c-1.29-0.89-4.48-1.33-8.57-1.33h-6.14V66.13z"/>
	</g>
</g>
</svg>
