<svg xmlns="http://www.w3.org/2000/svg" viewBox="0 0 49.8 58.2"><defs><style>.cls-1{fill:#9a9999;}.cls-1,.cls-2,.cls-3{fill-rule:evenodd;}.cls-2{fill:#808181;}.cls-3{fill:#cdcccc;}.cls-4{fill:#fff;}</style></defs><g id="katman_2" data-name="katman 2"><g id="katman_1-2" data-name="katman 1"><path class="cls-1" d="M6.53,0H32.92L49.8,16.71v35a6.55,6.55,0,0,1-6.53,6.52H6.53A6.55,6.55,0,0,1,0,51.68V6.53A6.55,6.55,0,0,1,6.53,0Z"/><polygon class="cls-2" points="35.32 15.18 49.8 28.55 49.8 16.71 45.89 12.84 35.32 15.18 35.32 15.18"/><path class="cls-3" d="M49.78,16.69H39.49A6.55,6.55,0,0,1,33,10.16V0L49.78,16.69Z"/><path class="cls-4" d="M13.68,46.24a1.49,1.49,0,0,0-.51-1.19,5.4,5.4,0,0,0-1.84-.84,10.35,10.35,0,0,1-3.48-1.56A3,3,0,0,1,6.7,40.16,3.06,3.06,0,0,1,8,37.58a5.57,5.57,0,0,1,3.44-1,5.17,5.17,0,0,1,3.46,1.11,3.51,3.51,0,0,1,1.32,2.82H13.68a1.86,1.86,0,0,0-.58-1.44,2.35,2.35,0,0,0-1.67-.54A2.51,2.51,0,0,0,9.82,39a1.43,1.43,0,0,0-.55,1.17,1.26,1.26,0,0,0,.59,1.08,8.7,8.7,0,0,0,2.09.88,8.31,8.31,0,0,1,3.23,1.54,3.24,3.24,0,0,1,1.07,2.55A3,3,0,0,1,15,48.83a5.8,5.8,0,0,1-3.44.94A6.38,6.38,0,0,1,7.85,48.7a3.52,3.52,0,0,1-1.53-3.08H8.88a2,2,0,0,0,.69,1.68,3.16,3.16,0,0,0,2,.52,2.53,2.53,0,0,0,1.61-.43,1.37,1.37,0,0,0,.54-1.15Zm14.24-.68h0l1.63-8.78h2.48l-2.74,12.8H27l-2.18-8.43h0l-2.18,8.43H20.19l-2.74-12.8h2.49l1.63,8.77h0l2.22-8.77h1.86l2.24,8.78Zm15.72,2.38a4.68,4.68,0,0,1-1.76,1.27,7.42,7.42,0,0,1-3.07.56A5.31,5.31,0,0,1,35,48.33a5.12,5.12,0,0,1-1.46-3.81V41.85A5.21,5.21,0,0,1,34.9,38a4.93,4.93,0,0,1,3.7-1.44,5.14,5.14,0,0,1,3.6,1.1,4.79,4.79,0,0,1,1.44,3.08H41.15a3,3,0,0,0-.74-1.64,2.37,2.37,0,0,0-1.74-.56,2.34,2.34,0,0,0-1.92.89,3.72,3.72,0,0,0-.7,2.36v2.69a3.64,3.64,0,0,0,.73,2.38,2.47,2.47,0,0,0,2,.89,4.6,4.6,0,0,0,1.44-.18,2.05,2.05,0,0,0,.82-.46V44.83H38.81V43.06h4.83v4.88Z"/><path class="cls-3" d="M26.89,9H19.28c-2.79,0-4.61,1.26-5.43,2.87a4.53,4.53,0,0,0,0,4.1c.82,1.61,2.63,2.87,5.43,2.87H31.2a3.12,3.12,0,0,1,3.08,1.64,2.59,2.59,0,0,1,.25,1.13,2.8,2.8,0,0,1-.26,1.16,3.16,3.16,0,0,1-3.07,1.7H22.41a2.29,2.29,0,1,0,0,1.92H31.2A5,5,0,0,0,36,23.52a4.68,4.68,0,0,0,.43-1.94A4.57,4.57,0,0,0,36,19.63a5,5,0,0,0-4.82-2.75H19.28c-2,0-3.2-.79-3.72-1.81a2.67,2.67,0,0,1,0-2.38c.52-1,1.75-1.82,3.72-1.82h7.49a2.15,2.15,0,0,0,2.13,1.46,2.39,2.39,0,0,0,2.29-2.29A2.44,2.44,0,0,0,28.9,7.76a2.08,2.08,0,0,0-2,1.2Z"/></g></g></svg>