<?xml version="1.0" encoding="utf-8"?>
<!-- Generator: Adobe Illustrator 25.0.1, SVG Export Plug-In . SVG Version: 6.00 Build 0)  -->
<svg version="1.1" id="Layer_1" xmlns="http://www.w3.org/2000/svg" xmlns:xlink="http://www.w3.org/1999/xlink" x="0px" y="0px"
	 viewBox="0 0 428.2 280.1" style="enable-background:new 0 0 428.2 280.1;" xml:space="preserve">
<style type="text/css">
	.st0{fill:#FAA61A;}
	.st1{fill:#F37021;}
	.st2{fill:#EF4123;}
</style>
<g>
	<circle class="st0" cx="130.7" cy="80.4" r="62.9"/>
	<path class="st0" d="M214.5,127.8h-0.4c-14.2,0-25.7,11.5-25.7,25.7c0,31.8-25.9,57.7-57.8,57.7c-31.8,0-57.7-25.9-57.7-57.7
		c0-14.2-11.5-25.7-25.7-25.7s-25.7,11.5-25.7,25.7c0,60.1,48.9,109.1,109.1,109.1c33.6,0,63.8-15.3,83.8-39.3
		c15.8-18.9,25.3-43.2,25.3-69.7C239.7,139.5,228.5,128,214.5,127.8z"/>
	<circle class="st1" cx="297.5" cy="80.4" r="62.9"/>
	<path class="st1" d="M381.3,127.8h-0.4c-14.2,0-25.7,11.5-25.7,25.7c0,31.8-25.9,57.7-57.8,57.7c-31.8,0-57.7-25.9-57.7-57.7
		c0-14.2-11.5-25.7-25.7-25.7s-25.7,11.5-25.7,25.7c0,60.1,48.9,109.1,109.1,109.1c33.6,0,63.8-15.3,83.8-39.3
		c15.8-18.9,25.3-43.2,25.3-69.7C406.6,139.5,395.3,128,381.3,127.8z"/>
	<path class="st2" d="M188.4,153.5c0,26.7,9.7,51.1,25.7,70.1c0.1-0.1,0.2-0.3,0.4-0.4c15.8-18.9,25.3-43.2,25.3-69.7
		c0-10.2-6-19-14.6-23.1c-0.3-0.1-0.5-0.3-0.8-0.4c-0.9-0.4-2-0.7-3-1c-0.6-0.2-1.2-0.4-1.9-0.6c-0.8-0.2-1.6-0.2-2.5-0.3
		c-1-0.1-1.9-0.3-2.9-0.3C199.9,127.8,188.4,139.3,188.4,153.5z"/>
</g>
</svg>
