<svg xmlns="http://www.w3.org/2000/svg" viewBox="0 0 49.8 58.2"><defs><style>.cls-1{fill:#e63c30;}.cls-1,.cls-2,.cls-3{fill-rule:evenodd;}.cls-2{fill:#c53225;}.cls-3{fill:#ee746d;}.cls-4{fill:#fff;}</style></defs><g id="katman_2" data-name="katman 2"><g id="katman_1-2" data-name="katman 1"><path class="cls-1" d="M6.53,0H32.92L49.8,16.71v35a6.55,6.55,0,0,1-6.53,6.53H6.53A6.55,6.55,0,0,1,0,51.67V6.53A6.55,6.55,0,0,1,6.53,0Z"/><polygon class="cls-2" points="35.32 15.18 49.8 28.55 49.8 16.71 45.89 12.84 35.32 15.18 35.32 15.18"/><path class="cls-3" d="M49.78,16.69H39.49A6.55,6.55,0,0,1,33,10.16V0L49.78,16.69Z"/><path class="cls-4" d="M18.23,38.76h-4V49.58H11.63V38.76h-4v-2H18.23v2Zm11.43,9.18a4.76,4.76,0,0,1-1.76,1.27,7.42,7.42,0,0,1-3.07.56A5.31,5.31,0,0,1,21,48.33a5.12,5.12,0,0,1-1.46-3.81V41.85A5.21,5.21,0,0,1,20.92,38a4.93,4.93,0,0,1,3.7-1.44,5.14,5.14,0,0,1,3.6,1.1,4.79,4.79,0,0,1,1.44,3.08H27.17a3,3,0,0,0-.74-1.64,2.37,2.37,0,0,0-1.74-.56,2.34,2.34,0,0,0-1.92.89,3.72,3.72,0,0,0-.7,2.36v2.69a3.64,3.64,0,0,0,.73,2.38,2.46,2.46,0,0,0,2,.89,4.6,4.6,0,0,0,1.44-.18,2.05,2.05,0,0,0,.82-.46V44.83H24.83V43.06h4.83v4.88Zm9.06-1.16H34.23l-.87,2.8H30.77l4.4-12.8H37.8l4.39,12.8h-2.6l-.87-2.8Zm-3.87-2h3.26l-1.62-5.19h0l-1.62,5.19Z"/><path class="cls-3" d="M16.43,8.34a3.08,3.08,0,1,1-3.08,3.07,3.07,3.07,0,0,1,3.08-3.07Zm-2.89,16.9,5.19-6.86L22,20.83l5.47-7.69,9,12.12-22.91,0Z"/></g></g></svg>