<svg xmlns="http://www.w3.org/2000/svg" viewBox="0 0 49.8 58.2"><defs><style>.cls-1{fill:#436e81;}.cls-1,.cls-2,.cls-4{fill-rule:evenodd;}.cls-2{fill:#385e6f;}.cls-3{fill:#fff;}.cls-4{fill:#6490a3;}</style></defs><g id="katman_2" data-name="katman 2"><g id="katman_1-2" data-name="katman 1"><path class="cls-1" d="M6.53,0H32.92L49.8,16.71v35a6.55,6.55,0,0,1-6.53,6.52H6.53A6.55,6.55,0,0,1,0,51.68V6.53A6.55,6.55,0,0,1,6.53,0Z"/><polygon class="cls-2" points="35.32 15.18 49.8 28.55 49.8 16.71 45.89 12.84 35.32 15.18 35.32 15.18"/><path class="cls-3" d="M19,38.76H15V49.58H12.42V38.76h-4v-2H19v2Zm6,2.56,2.39-4.54h3l-3.79,6.35,4,6.45H27.58L25.11,45l-2.47,4.61h-3l3.88-6.45-3.78-6.35h3l2.36,4.54Zm16.84-2.56h-4V49.58H35.3V38.76h-4v-2H41.91v2Z"/><path class="cls-4" d="M14.47,10.33H35.33V13H14.47V10.33Zm0,12.42H28.73v2.62H14.47V22.75Zm0-6.21H35.33v2.62H14.47V16.54Z"/><path class="cls-4" d="M49.78,16.69H39.49A6.55,6.55,0,0,1,33,10.16V0L49.78,16.69Z"/></g></g></svg>