<svg xmlns="http://www.w3.org/2000/svg" xmlns:xlink="http://www.w3.org/1999/xlink" viewBox="0 0 49.8 58.2"><defs><style>.cls-1{fill:#b18659;}.cls-1,.cls-3,.cls-4{fill-rule:evenodd;}.cls-2{fill:#fff;}.cls-3{fill:#956d44;}.cls-4{fill:#deb58a;}</style><symbol id="format-icons" data-name="format-icons" viewBox="0 0 49.8 58.2"><path class="cls-1" d="M6.53,0H32.92L49.8,16.71v35a6.55,6.55,0,0,1-6.53,6.52H6.53A6.55,6.55,0,0,1,0,51.68V6.53A6.55,6.55,0,0,1,6.53,0Z"/><path class="cls-2" d="M14.69,36.78h2.56v9a3.8,3.8,0,0,1-1.19,3A4.46,4.46,0,0,1,13,49.77a4.91,4.91,0,0,1-3.2-1,3.6,3.6,0,0,1-1.15-2.94H11.2a2.12,2.12,0,0,0,.44,1.5,1.84,1.84,0,0,0,1.35.43,1.57,1.57,0,0,0,1.26-.52,2.35,2.35,0,0,0,.44-1.53v-9Zm7.48,8.16v4.64H19.6V36.78h5.1a5.09,5.09,0,0,1,3.5,1.11,4.19,4.19,0,0,1,0,6,5.13,5.13,0,0,1-3.5,1.1Zm0-2H24.7a2.15,2.15,0,0,0,1.64-.57,2.12,2.12,0,0,0,.54-1.5,2.21,2.21,0,0,0-.54-1.54,2.12,2.12,0,0,0-1.64-.59H22.17V43Zm19,5a4.68,4.68,0,0,1-1.76,1.27,7.42,7.42,0,0,1-3.07.56,5.29,5.29,0,0,1-3.85-1.44A5.09,5.09,0,0,1,31,44.52V41.85A5.21,5.21,0,0,1,32.42,38a4.94,4.94,0,0,1,3.7-1.44,5.12,5.12,0,0,1,3.6,1.1,4.79,4.79,0,0,1,1.44,3.08H38.67a3,3,0,0,0-.74-1.64,2.35,2.35,0,0,0-1.74-.56,2.32,2.32,0,0,0-1.91.89,3.73,3.73,0,0,0-.71,2.36v2.69a3.64,3.64,0,0,0,.73,2.38,2.47,2.47,0,0,0,2,.89,4.6,4.6,0,0,0,1.44-.18,2.17,2.17,0,0,0,.83-.46V44.83H36.33V43.06h4.83v4.88Z"/><polygon class="cls-3" points="35.32 15.18 49.8 28.55 49.8 16.71 45.89 12.84 35.32 15.18 35.32 15.18"/><path class="cls-4" d="M49.78,16.69H39.49A6.55,6.55,0,0,1,33,10.16V0L49.78,16.69Z"/><path class="cls-4" d="M16.43,8.34a3.08,3.08,0,1,1-3.08,3.07,3.07,3.07,0,0,1,3.08-3.07Zm-2.89,16.9,5.19-6.86L22,20.83l5.47-7.69,9,12.12-22.91,0Z"/></symbol></defs><g id="katman_2" data-name="katman 2"><g id="katman_1-2" data-name="katman 1"><use width="49.8" height="58.2" xlink:href="#format-icons"/></g></g></svg>