<svg id="Layer_1" data-name="Layer 1" xmlns="http://www.w3.org/2000/svg" viewBox="0 0 418.61 268.45"><defs><style>.cls-1{fill:#231f20;}.cls-2{fill:#faa61a;}.cls-3{fill:#f15a22;}</style></defs><path class="cls-1" d="M108.42,123.65a4.53,4.53,0,0,1,4.55,3.42l6.09,35.22a.27.27,0,0,0,.54,0l6.83-31.54c.87-4.55,4-6.83,7.5-6.83,3.28,0,6.42,2.34,7.43,6.83l7,31.54a.27.27,0,1,0,.54,0l6.22-35.22a4.56,4.56,0,0,1,9,1.2c0,.2-.07.61-.14,1.14L156,165c-1.6,9.17-13.05,9.11-15,.07l-7-30.8c-.07-.27-.13-.34-.33-.2l-.14.2-6.83,30.86c-1,4.49-4,6.77-7.5,6.77s-6.83-2.41-7.83-6.9L104,129.41a8.75,8.75,0,0,1-.14-1.07A4.47,4.47,0,0,1,108.42,123.65Z"/><path class="cls-1" d="M193.86,164.9a3.53,3.53,0,0,1-1.61,3.14c-3.62,2.48-8.3,3.69-14.13,3.69-9.17,0-14.13-5-14.13-11.79,0-6.22,4.49-10.91,13.8-10.91a32.53,32.53,0,0,1,7.43,1v-1.8c0-3.55-1.81-5.23-6.36-5.23a21.62,21.62,0,0,0-6.43,1.14c-3.68,1.14-6.16-.6-6.16-3.48a4.21,4.21,0,0,1,2.95-4.09,24.89,24.89,0,0,1,9.84-1.67c9.84,0,14.8,4.55,14.8,13.59Zm-8.64-2.55v-6a22.68,22.68,0,0,0-6.7-1.07c-3.54,0-5.82,1.74-5.82,4.35,0,2.88,2.28,4.48,6,4.48A12.06,12.06,0,0,0,185.22,162.35Z"/><path class="cls-1" d="M210.73,171.73c-8,0-12-5.23-12-13.19V132.09a4.49,4.49,0,1,1,9,0v4.55H216a4,4,0,1,1,0,7.9h-8.37v13.8c0,3.28,1.47,4.95,4.35,4.95a18.07,18.07,0,0,0,4.16-.74c3.21-.8,5.55,1.14,5.55,3.82a4.15,4.15,0,0,1-2.81,3.95A19.82,19.82,0,0,1,210.73,171.73Z"/><path class="cls-1" d="M252.45,164.9a3.53,3.53,0,0,1-1.61,3.14c-3.62,2.48-8.3,3.69-14.13,3.69-9.17,0-14.13-5-14.13-11.79,0-6.22,4.49-10.91,13.8-10.91a32.53,32.53,0,0,1,7.43,1v-1.8c0-3.55-1.81-5.23-6.36-5.23a21.68,21.68,0,0,0-6.43,1.14c-3.68,1.14-6.16-.6-6.16-3.48a4.21,4.21,0,0,1,2.95-4.09,24.89,24.89,0,0,1,9.84-1.67c9.84,0,14.8,4.55,14.8,13.59Zm-8.64-2.55v-6a22.68,22.68,0,0,0-6.7-1.07c-3.54,0-5.82,1.74-5.82,4.35,0,2.88,2.28,4.48,6,4.48A12.05,12.05,0,0,0,243.81,162.35Z"/><path class="cls-1" d="M266.58,166.91a4.44,4.44,0,0,1-4.49,4.62,4.65,4.65,0,0,1-4.48-4.62v-39a4.49,4.49,0,1,1,9,0Z"/><path class="cls-1" d="M299.39,167.91a16.34,16.34,0,0,1-11.05,3.82,16.57,16.57,0,0,1-11-3.82,13.87,13.87,0,0,1-5-9.78,76.39,76.39,0,0,1,0-9.57,13.79,13.79,0,0,1,5-9.84,16.73,16.73,0,0,1,11.12-3.82,16.29,16.29,0,0,1,11.05,3.82,14.06,14.06,0,0,1,4.95,9.84,75.44,75.44,0,0,1,0,9.51A14.08,14.08,0,0,1,299.39,167.91ZM295.44,150c-.2-3.82-2.88-6.5-7.1-6.5a6.75,6.75,0,0,0-7.17,6.5,37.37,37.37,0,0,0,0,6.69,6.75,6.75,0,0,0,7.17,6.5c4.08,0,6.83-2.55,7.1-6.5A37.37,37.37,0,0,0,295.44,150Z"/><path class="cls-1" d="M339.5,169.18c0,4.89-1.54,8.71-4.63,11.39a17.15,17.15,0,0,1-11.65,4,22.68,22.68,0,0,1-10.17-2.34c-2.61-1.27-3.95-3-3.95-4.89a4,4,0,0,1,3.95-4.08,8.86,8.86,0,0,1,3.95,1.27,13.52,13.52,0,0,0,6.29,1.61c4.35,0,7.23-2.35,7.23-6.83v-.41a19.76,19.76,0,0,1-8.3,1.74c-8.5,0-13.46-5.28-14.19-13.25a45.42,45.42,0,0,1,0-8.57c.8-8.3,6.42-13.93,15.8-13.93a25.27,25.27,0,0,1,8.23,1.34,21.52,21.52,0,0,1,5.83,2.75,3.64,3.64,0,0,1,1.61,3.21Zm-22.57-19a41.16,41.16,0,0,0,0,5.69c.27,4.35,2.48,6.56,6.63,6.56a11.85,11.85,0,0,0,7-2V145.28c-.8-.74-3.68-1.81-6.56-1.81C319.61,143.47,317.27,145.68,316.93,150.17Z"/><path class="cls-1" d="M343.85,141.66a4.43,4.43,0,0,1,.33-4.55,4.48,4.48,0,0,1,3.95-2.08c2.21,0,3.75,1.14,4.62,3.49l7.37,19c.2.54.6.54.8,0l7-19c.87-2.35,2.41-3.49,4.62-3.49a4.38,4.38,0,0,1,3.95,2.15,4.43,4.43,0,0,1,.33,4.55l-12.52,29.13c-2.61,6.09-5.62,10.24-8.9,12.45a6.64,6.64,0,0,1-3.69,1.27,4.26,4.26,0,0,1-4.48-4.22,4.41,4.41,0,0,1,2-3.61,16.78,16.78,0,0,0,6.16-8.24Z"/><path class="cls-1" d="M114.5,200.84a2.33,2.33,0,0,1,.94,1.9,2.7,2.7,0,0,1-1,2.14,3.87,3.87,0,0,1-2.54.82,5.78,5.78,0,0,1-2.38-.5,6.27,6.27,0,0,1-1.6-1,.62.62,0,0,1-.22-.44.5.5,0,0,1,.52-.52,1.31,1.31,0,0,1,.5.22,5.28,5.28,0,0,0,3.12,1.12c1.46,0,2.48-.76,2.48-1.88a1.3,1.3,0,0,0-.6-1.14,3.49,3.49,0,0,0-.56-.34c-.34-.18-1.18-.52-1.52-.68a7.1,7.1,0,0,1-1.7-1,2.13,2.13,0,0,1-.84-1.74,2.49,2.49,0,0,1,1-2.1,4,4,0,0,1,2.42-.76,5.88,5.88,0,0,1,2,.34,3.49,3.49,0,0,1,1.28.7c.5.46.2,1-.26,1a.85.85,0,0,1-.44-.16,4.59,4.59,0,0,0-2.52-.76c-1.38,0-2.34.7-2.34,1.74,0,.86.56,1.24,2.06,1.88A12.49,12.49,0,0,1,114.5,200.84Z"/><path class="cls-1" d="M124.7,202.64a.55.55,0,0,1,.54-.44.52.52,0,0,1,.56.52.9.9,0,0,1-.08.4,5.34,5.34,0,0,1-1.08,1.6,3.81,3.81,0,0,1-2.7,1,4.48,4.48,0,0,1-3.16-1.18,3.73,3.73,0,0,1-1-3.36c0-.36.16-1.06.34-2.1a4.54,4.54,0,0,1,4.48-4.1,3.81,3.81,0,0,1,3.76,2.3,2,2,0,0,1,.12.6.53.53,0,0,1-.54.54.59.59,0,0,1-.56-.46,2.81,2.81,0,0,0-2.82-1.88c-1.62,0-2.88,1.1-3.34,3.1a21.14,21.14,0,0,0-.34,2.14,2.62,2.62,0,0,0,.72,2.46,3.39,3.39,0,0,0,2.3.8A2.78,2.78,0,0,0,124.7,202.64Z"/><path class="cls-1" d="M129.46,195.64c.06-.36.26-.54.56-.54a.56.56,0,0,1,.56.7L129,205c-.06.36-.26.54-.56.54a.55.55,0,0,1-.56-.7ZM130.6,193a.74.74,0,0,1-.76-.76.83.83,0,0,1,.86-.88.69.69,0,0,1,.72.74A.84.84,0,0,1,130.6,193Z"/><path class="cls-1" d="M134.08,200.82l-.08.5c-.32,2.06,1,3.3,3.06,3.3a5.46,5.46,0,0,0,2.46-.68,1,1,0,0,1,.38-.1.51.51,0,0,1,.52.5.74.74,0,0,1-.46.64,5.58,5.58,0,0,1-2.82.72,4.46,4.46,0,0,1-3.34-1.2,3.76,3.76,0,0,1-.92-3.22c.1-.82.22-1.58.36-2.26.58-2.7,2.12-4.06,4.58-4.06a4,4,0,0,1,2.9,1.12,3.41,3.41,0,0,1,.72,3.34l-.06.3a1.25,1.25,0,0,1-1.28,1.1Zm5.78-1a.42.42,0,0,0,.44-.34,2.66,2.66,0,0,0-.34-2.58,2.79,2.79,0,0,0-2.14-.84c-2.08,0-3.2,1.2-3.6,3.76Z"/><path class="cls-1" d="M151.12,205c-.06.38-.26.58-.6.58a.52.52,0,0,1-.52-.66l1-5.62c.22-1.3-.06-2.26-.7-2.66a3.23,3.23,0,0,0-1.9-.54,6.14,6.14,0,0,0-3.14.86L143.88,205c-.06.36-.26.54-.56.54a.56.56,0,0,1-.56-.7l1.36-8.24a1,1,0,0,1,.5-.66,7.52,7.52,0,0,1,3.8-1,4.16,4.16,0,0,1,2.92,1c.74.66,1,1.76.74,3.28Z"/><path class="cls-1" d="M161.28,202.64a.55.55,0,0,1,.54-.44.52.52,0,0,1,.56.52.9.9,0,0,1-.08.4,5.34,5.34,0,0,1-1.08,1.6,3.81,3.81,0,0,1-2.7,1,4.48,4.48,0,0,1-3.16-1.18,3.73,3.73,0,0,1-1-3.36c0-.36.16-1.06.34-2.1a4.54,4.54,0,0,1,4.48-4.1,3.81,3.81,0,0,1,3.76,2.3,2,2,0,0,1,.12.6.53.53,0,0,1-.54.54.59.59,0,0,1-.56-.46,2.81,2.81,0,0,0-2.82-1.88c-1.62,0-2.88,1.1-3.34,3.1a21.14,21.14,0,0,0-.34,2.14,2.62,2.62,0,0,0,.72,2.46,3.39,3.39,0,0,0,2.3.8A2.78,2.78,0,0,0,161.28,202.64Z"/><path class="cls-1" d="M165.58,200.82l-.08.5c-.32,2.06,1,3.3,3.06,3.3a5.46,5.46,0,0,0,2.46-.68,1,1,0,0,1,.38-.1.51.51,0,0,1,.52.5.74.74,0,0,1-.46.64,5.58,5.58,0,0,1-2.82.72,4.46,4.46,0,0,1-3.34-1.2,3.76,3.76,0,0,1-.92-3.22c.1-.82.22-1.58.36-2.26.58-2.7,2.12-4.06,4.58-4.06a4,4,0,0,1,2.9,1.12,3.41,3.41,0,0,1,.72,3.34l-.06.3a1.25,1.25,0,0,1-1.28,1.1Zm5.78-1a.42.42,0,0,0,.44-.34,2.66,2.66,0,0,0-.34-2.58,2.79,2.79,0,0,0-2.14-.84c-2.08,0-3.2,1.2-3.6,3.76Z"/><path class="cls-1" d="M187,196.14a3.74,3.74,0,0,1,1.1,3.2,16.53,16.53,0,0,1-.4,2.46c-.58,2.54-2.1,3.9-4.34,3.9a4.54,4.54,0,0,1-3.16-1.16,3.76,3.76,0,0,1-1.14-3.24,19,19,0,0,1,.4-2.44c.56-2.58,2.16-3.9,4.54-3.9A4.2,4.2,0,0,1,187,196.14Zm-.8.8a3.22,3.22,0,0,0-2.22-.88c-1.86,0-3,1-3.46,3.12a16.62,16.62,0,0,0-.32,2.06,2.83,2.83,0,0,0,.36,1.94,3,3,0,0,0,2.72,1.38c1.8,0,2.92-1,3.36-3.08a16.62,16.62,0,0,0,.32-2.06A2.67,2.67,0,0,0,186.2,196.94Z"/><path class="cls-1" d="M191.28,195.42l.16-1c.34-2.12,1.48-3.18,3.46-3.18a3.74,3.74,0,0,1,1.6.3.63.63,0,0,1,.42.58.5.5,0,0,1-.52.52,11,11,0,0,0-1.6-.3c-1.36,0-2,.74-2.22,2.16l-.16.94h2.88c.38,0,.58.18.58.54a.54.54,0,0,1-.58.52h-3L190.84,205a.56.56,0,0,1-.6.54c-.38,0-.6-.28-.54-.7l1.4-8.4h-.76a.53.53,0,0,1-.56-.54.52.52,0,0,1,.56-.52Z"/><path class="cls-1" d="M202.44,200.82l-.08.5c-.32,2.06,1,3.3,3.06,3.3a5.46,5.46,0,0,0,2.46-.68,1,1,0,0,1,.38-.1.51.51,0,0,1,.52.5.74.74,0,0,1-.46.64,5.58,5.58,0,0,1-2.82.72,4.46,4.46,0,0,1-3.34-1.2,3.76,3.76,0,0,1-.92-3.22c.1-.82.22-1.58.36-2.26.58-2.7,2.12-4.06,4.58-4.06a4,4,0,0,1,2.9,1.12,3.41,3.41,0,0,1,.72,3.34l-.06.3a1.25,1.25,0,0,1-1.28,1.1Zm5.78-1a.42.42,0,0,0,.44-.34,2.66,2.66,0,0,0-.34-2.58,2.79,2.79,0,0,0-2.14-.84c-2.08,0-3.2,1.2-3.6,3.76Z"/><path class="cls-1" d="M215,199.2a.55.55,0,0,1,.6.56.59.59,0,0,1-.62.58H211.6a.57.57,0,1,1,0-1.14Z"/><path class="cls-1" d="M224.24,202.64a.55.55,0,0,1,.54-.44.52.52,0,0,1,.56.52.9.9,0,0,1-.08.4,5.34,5.34,0,0,1-1.08,1.6,3.81,3.81,0,0,1-2.7,1,4.48,4.48,0,0,1-3.16-1.18,3.73,3.73,0,0,1-1-3.36c0-.36.16-1.06.34-2.1a4.54,4.54,0,0,1,4.48-4.1,3.81,3.81,0,0,1,3.76,2.3,2,2,0,0,1,.12.6.53.53,0,0,1-.54.54.59.59,0,0,1-.56-.46,2.81,2.81,0,0,0-2.82-1.88c-1.62,0-2.88,1.1-3.34,3.1a21.14,21.14,0,0,0-.34,2.14,2.62,2.62,0,0,0,.72,2.46,3.39,3.39,0,0,0,2.3.8A2.78,2.78,0,0,0,224.24,202.64Z"/><path class="cls-1" d="M235,196.14a3.74,3.74,0,0,1,1.1,3.2,16.53,16.53,0,0,1-.4,2.46c-.58,2.54-2.1,3.9-4.34,3.9a4.54,4.54,0,0,1-3.16-1.16,3.76,3.76,0,0,1-1.14-3.24,19,19,0,0,1,.4-2.44c.56-2.58,2.16-3.9,4.54-3.9A4.2,4.2,0,0,1,235,196.14Zm-.8.8a3.22,3.22,0,0,0-2.22-.88c-1.86,0-3,1-3.46,3.12a16.62,16.62,0,0,0-.32,2.06,2.83,2.83,0,0,0,.36,1.94,3,3,0,0,0,2.72,1.38c1.8,0,2.92-1,3.36-3.08a16.62,16.62,0,0,0,.32-2.06A2.67,2.67,0,0,0,234.22,196.94Z"/><path class="cls-1" d="M251.12,205c-.06.38-.26.58-.58.58a.54.54,0,0,1-.54-.66l1-5.76c.32-2-.46-3.06-2.12-3.06a4.38,4.38,0,0,0-3,1.28,5.64,5.64,0,0,1,0,1.72l-1,5.9c-.06.38-.26.58-.6.58a.54.54,0,0,1-.54-.66l1-6c.34-2-.52-2.86-2.14-2.86a4.65,4.65,0,0,0-2.68.76L238.52,205c-.06.36-.26.54-.56.54a.56.56,0,0,1-.56-.7l1.38-8.28a1.24,1.24,0,0,1,.5-.68,6,6,0,0,1,3.26-1,3,3,0,0,1,2.86,1.42A5.55,5.55,0,0,1,249,195c2.32,0,3.54,1.56,3.12,4.2Z"/><path class="cls-1" d="M267.74,205c-.06.38-.26.58-.58.58a.54.54,0,0,1-.54-.66l1-5.76c.32-2-.46-3.06-2.12-3.06a4.38,4.38,0,0,0-3,1.28,5.64,5.64,0,0,1,0,1.72l-1,5.9c-.06.38-.26.58-.6.58a.54.54,0,0,1-.54-.66l1-6c.34-2-.52-2.86-2.14-2.86a4.65,4.65,0,0,0-2.68.76L255.14,205c-.06.36-.26.54-.56.54a.56.56,0,0,1-.56-.7l1.38-8.28a1.24,1.24,0,0,1,.5-.68,6,6,0,0,1,3.26-1,3,3,0,0,1,2.86,1.42A5.55,5.55,0,0,1,265.6,195c2.32,0,3.54,1.56,3.12,4.2Z"/><path class="cls-1" d="M272.18,200.82l-.08.5c-.32,2.06,1,3.3,3.06,3.3a5.46,5.46,0,0,0,2.46-.68,1,1,0,0,1,.38-.1.51.51,0,0,1,.52.5.74.74,0,0,1-.46.64,5.58,5.58,0,0,1-2.82.72,4.46,4.46,0,0,1-3.34-1.2,3.76,3.76,0,0,1-.92-3.22c.1-.82.22-1.58.36-2.26.58-2.7,2.12-4.06,4.58-4.06a4,4,0,0,1,2.9,1.12,3.41,3.41,0,0,1,.72,3.34l-.06.3a1.25,1.25,0,0,1-1.28,1.1Zm5.78-1a.42.42,0,0,0,.44-.34,2.66,2.66,0,0,0-.34-2.58,2.79,2.79,0,0,0-2.14-.84c-2.08,0-3.2,1.2-3.6,3.76Z"/><path class="cls-1" d="M287.7,195.9a.54.54,0,0,1-.56.56l-.62-.16a4.7,4.7,0,0,0-1.2-.16c-1.26,0-1.94.6-2.2,2.12L282,205a.56.56,0,0,1-.58.54.55.55,0,0,1-.56-.7L282,198q.51-3.06,3.3-3.06a4.8,4.8,0,0,1,1.94.36A.66.66,0,0,1,287.7,195.9Z"/><path class="cls-1" d="M294.88,202.64a.55.55,0,0,1,.54-.44.52.52,0,0,1,.56.52.9.9,0,0,1-.08.4,5.34,5.34,0,0,1-1.08,1.6,3.81,3.81,0,0,1-2.7,1,4.47,4.47,0,0,1-3.16-1.18,3.71,3.71,0,0,1-1-3.36c0-.36.16-1.06.34-2.1a4.55,4.55,0,0,1,4.49-4.1,3.81,3.81,0,0,1,3.76,2.3,2,2,0,0,1,.12.6.53.53,0,0,1-.54.54.59.59,0,0,1-.56-.46,2.81,2.81,0,0,0-2.82-1.88c-1.62,0-2.89,1.1-3.35,3.1a21.14,21.14,0,0,0-.34,2.14,2.64,2.64,0,0,0,.72,2.46,3.4,3.4,0,0,0,2.31.8A2.78,2.78,0,0,0,294.88,202.64Z"/><path class="cls-1" d="M299.17,200.82l-.08.5c-.32,2.06,1,3.3,3.06,3.3a5.53,5.53,0,0,0,2.47-.68.9.9,0,0,1,.38-.1.52.52,0,0,1,.52.5.73.73,0,0,1-.47.64,5.58,5.58,0,0,1-2.82.72,4.46,4.46,0,0,1-3.34-1.2,3.76,3.76,0,0,1-.92-3.22c.1-.82.22-1.58.36-2.26.58-2.7,2.12-4.06,4.59-4.06a4,4,0,0,1,2.9,1.12,3.43,3.43,0,0,1,.72,3.34l-.06.3a1.25,1.25,0,0,1-1.28,1.1Zm5.79-1a.42.42,0,0,0,.44-.34,2.63,2.63,0,0,0-.35-2.58,2.76,2.76,0,0,0-2.13-.84c-2.09,0-3.21,1.2-3.61,3.76Z"/><path class="cls-2" d="M108.6,100.09l25.7-2.64A5.27,5.27,0,0,1,138.58,99h0a5.29,5.29,0,0,1-3.2,9l-38.63,4a5.29,5.29,0,0,1-5.8-5.8l4-38.64a5.29,5.29,0,0,1,9-3.2h0a5.32,5.32,0,0,1,1.52,4.28l-2.64,25.71A5.3,5.3,0,0,0,108.6,100.09Z"/><path class="cls-3" d="M72.89,124.19l-25.7,2.64a5.27,5.27,0,0,1-4.28-1.53h0a5.29,5.29,0,0,1,3.2-9l38.63-4a5.29,5.29,0,0,1,5.8,5.8l-4,38.64a5.29,5.29,0,0,1-9,3.2h0a5.29,5.29,0,0,1-1.52-4.28L78.69,130A5.29,5.29,0,0,0,72.89,124.19Z"/></svg>