<svg xmlns="http://www.w3.org/2000/svg" viewBox="0 0 49.8 58.2"><defs><style>.cls-1{fill:#cd3467;}.cls-1,.cls-2,.cls-4{fill-rule:evenodd;}.cls-2{fill:#a4264e;}.cls-3{fill:#fff;}.cls-4{fill:#e84d7f;}</style></defs><g id="katman_2" data-name="katman 2"><g id="katman_1-2" data-name="katman 1"><path class="cls-1" d="M6.53,0H32.92L49.8,16.71v35a6.55,6.55,0,0,1-6.53,6.52H6.53A6.55,6.55,0,0,1,0,51.68V6.53A6.55,6.55,0,0,1,6.53,0Z"/><polygon class="cls-2" points="35.32 15.18 49.8 28.55 49.8 16.71 45.89 12.84 35.32 15.18 35.32 15.18"/><path class="cls-3" d="M16.74,45.56h0l1.64-8.78h2.47l-2.74,12.8H15.78L13.6,41.15h0l-2.18,8.43H9L6.28,36.78H8.76l1.64,8.77h0l2.22-8.77H14.5l2.24,8.78Zm12.75,1.22H25l-.87,2.8h-2.6l4.41-12.8h2.62L33,49.58H30.36l-.87-2.8Zm-3.88-2h3.26l-1.61-5.19h0l-1.62,5.19Zm13,1.37.17.76h0L39,46.2l2.78-9.42h2.71l-4.35,12.8H37.49l-4.35-12.8h2.72l2.76,9.4Z"/><path class="cls-4" d="M20.83,11.66l12.69-3.4V21.7h0A3.51,3.51,0,1,1,31,18.22V11.41l-7.71,2.07V24h0A3.52,3.52,0,1,1,19.8,20.4a3.47,3.47,0,0,1,1,.15V11.66Z"/><path class="cls-4" d="M49.78,16.69H39.49A6.55,6.55,0,0,1,33,10.16V0L49.78,16.69Z"/></g></g></svg>