<svg xmlns="http://www.w3.org/2000/svg" viewBox="0 0 49.8 58.2"><defs><style>.cls-1{fill:#676767;}.cls-1,.cls-2,.cls-3{fill-rule:evenodd;}.cls-2{fill:#4e4d4d;}.cls-3{fill:#9a9999;}.cls-4{fill:#fff;}</style></defs><g id="katman_2" data-name="katman 2"><g id="katman_1-2" data-name="katman 1"><path class="cls-1" d="M6.53,0H32.92L49.8,16.71v35a6.55,6.55,0,0,1-6.53,6.52H6.53A6.55,6.55,0,0,1,0,51.68V6.53A6.55,6.55,0,0,1,6.53,0Z"/><polygon class="cls-2" points="35.32 15.18 49.8 28.55 49.8 16.71 45.89 12.84 35.32 15.18 35.32 15.18"/><path class="cls-3" d="M49.78,16.69H39.49A6.55,6.55,0,0,1,33,10.16V0L49.78,16.69Z"/><path class="cls-4" d="M15.3,45.56h0L17,36.78h2.48L16.7,49.58H14.33l-2.18-8.43h0L9.94,49.58H7.58L4.83,36.78H7.32L9,45.55H9l2.23-8.77h1.85l2.24,8.78Zm9.24-8.78,3.27,9.48h0l3.3-9.48h3.35v12.8H31.93V45.76L32.18,40h0l-3.47,9.57H27l-3.44-9.53h0l.25,5.7v3.82H21.19V36.78Zm20.21,7.48H39.46v5.32H36.89V36.78h8.76v2H39.46v3.52h5.29v2Z"/><path class="cls-3" d="M26.89,9H19.28c-2.79,0-4.61,1.26-5.43,2.87a4.53,4.53,0,0,0,0,4.1c.82,1.61,2.63,2.87,5.43,2.87H31.2a3.13,3.13,0,0,1,3.08,1.64,2.59,2.59,0,0,1,.25,1.13,2.8,2.8,0,0,1-.26,1.16,3.16,3.16,0,0,1-3.07,1.7H22.41a2.29,2.29,0,1,0,0,1.92H31.2A5,5,0,0,0,36,23.52a4.66,4.66,0,0,0,0-3.89,5,5,0,0,0-4.82-2.75H19.28c-2,0-3.2-.79-3.72-1.81a2.67,2.67,0,0,1,0-2.38c.52-1,1.75-1.82,3.72-1.82h7.49a2.15,2.15,0,0,0,2.13,1.46,2.39,2.39,0,0,0,2.29-2.29A2.44,2.44,0,0,0,28.9,7.76a2.08,2.08,0,0,0-2,1.2Z"/></g></g></svg>