<svg xmlns="http://www.w3.org/2000/svg" viewBox="0 0 49.8 58.2"><defs><style>.cls-1{fill:#699;}.cls-1,.cls-2,.cls-4{fill-rule:evenodd;}.cls-2{fill:#4b7979;}.cls-3{fill:#fff;}.cls-4{fill:#96cccd;}</style></defs><g id="katman_2" data-name="katman 2"><g id="katman_1-2" data-name="katman 1"><path class="cls-1" d="M6.53,0H32.92L49.8,16.71v35a6.55,6.55,0,0,1-6.53,6.52H6.53A6.55,6.55,0,0,1,0,51.68V6.53A6.55,6.55,0,0,1,6.53,0Z"/><polygon class="cls-2" points="35.32 15.18 49.8 28.55 49.8 16.71 45.89 12.84 35.32 15.18 35.32 15.18"/><path class="cls-3" d="M15.13,47.61h6.26v2H12V48.24l6.08-9.48H12v-2h9.2v1.29l-6.11,9.54Zm10.74,2H23.3V36.78h2.57v12.8ZM31,44.94v4.64H28.43V36.78h5.1A5.06,5.06,0,0,1,37,37.89a4.17,4.17,0,0,1,0,6,5.11,5.11,0,0,1-3.49,1.1Zm0-2h2.53a2.16,2.16,0,0,0,1.64-.57,2.12,2.12,0,0,0,.54-1.5,2.21,2.21,0,0,0-.54-1.54,2.13,2.13,0,0,0-1.64-.59H31V43Z"/><path class="cls-4" d="M15.09,10.33H35.67V17H14.13V10.33Zm0,8.4H35.67v6.64H14.13V18.73Zm18.66,1.92H16.05v2.8h17.7v-2.8Zm0-8.4H16.05v2.8h17.7v-2.8Z"/><path class="cls-4" d="M49.78,16.69H39.49A6.55,6.55,0,0,1,33,10.16V0L49.78,16.69Z"/></g></g></svg>