<svg xmlns="http://www.w3.org/2000/svg" viewBox="0 0 49.8 58.2"><defs><style>.cls-1{fill:#7b697b;}.cls-1,.cls-2,.cls-3{fill-rule:evenodd;}.cls-2{fill:#645164;}.cls-3{fill:#998699;}.cls-4{font-size:18px;fill:#fffffe;font-family:Arial-BoldMT, Arial;font-weight:700;}</style></defs><g id="katman_2" data-name="katman 2"><g id="katman_1-2" data-name="katman 1"><path class="cls-1" d="M6.53,0H32.92L49.8,16.71v35a6.55,6.55,0,0,1-6.53,6.52H6.53A6.55,6.55,0,0,1,0,51.68V6.53A6.55,6.55,0,0,1,6.53,0Z"/><polygon class="cls-2" points="35.32 15.18 49.8 28.55 49.8 16.71 45.89 12.84 35.32 15.18 35.32 15.18"/><path class="cls-3" d="M49.78,16.69H39.49A6.55,6.55,0,0,1,33,10.16V0L49.78,16.69Z"/><path class="cls-3" d="M18.18,13.13l9.4,6.13a6.08,6.08,0,0,1,0,10.19h0a6.08,6.08,0,0,1-9.4-5.1V13.13Z"/><text class="cls-4" transform="translate(12.39 48.82)">3D</text></g></g></svg>