<svg xmlns="http://www.w3.org/2000/svg" viewBox="0 0 49.8 58.2"><defs><style>.cls-1{fill:#ea5525;}.cls-1,.cls-2,.cls-3{fill-rule:evenodd;}.cls-2{fill:#c83d17;}.cls-3{fill:#f3997c;}.cls-4{fill:#fff;}</style></defs><g id="katman_2" data-name="katman 2"><g id="katman_1-2" data-name="katman 1"><path class="cls-1" d="M6.53,0H32.92L49.8,16.71v35a6.55,6.55,0,0,1-6.53,6.52H6.53A6.55,6.55,0,0,1,0,51.68V6.53A6.55,6.55,0,0,1,6.53,0Z"/><polygon class="cls-2" points="35.32 15.18 49.8 28.55 49.8 16.71 45.89 12.84 35.32 15.18 35.32 15.18"/><path class="cls-3" d="M49.78,16.69H39.49A6.55,6.55,0,0,1,33,10.16V0L49.78,16.69Z"/><path class="cls-4" d="M24.76,46.78H20.27l-.87,2.8H16.8l4.41-12.8h2.63l4.38,12.8H25.63l-.87-2.8Zm-3.88-2h3.27l-1.62-5.19h0l-1.62,5.19Zm11.36,4.77H29.67V36.78h2.57v12.8Z"/><path class="cls-3" d="M26.89,9H19.28c-2.79,0-4.61,1.26-5.43,2.87a4.53,4.53,0,0,0,0,4.1c.82,1.61,2.63,2.87,5.43,2.87H31.2a3.12,3.12,0,0,1,3.08,1.64,2.59,2.59,0,0,1,.25,1.13,2.8,2.8,0,0,1-.26,1.16,3.16,3.16,0,0,1-3.07,1.7H22.41a2.29,2.29,0,1,0,0,1.92H31.2A5,5,0,0,0,36,23.52a4.68,4.68,0,0,0,.43-1.94A4.57,4.57,0,0,0,36,19.63a5,5,0,0,0-4.82-2.75H19.28c-2,0-3.2-.79-3.72-1.81a2.67,2.67,0,0,1,0-2.38c.52-1,1.75-1.82,3.72-1.82h7.49a2.15,2.15,0,0,0,2.13,1.46,2.39,2.39,0,0,0,2.29-2.29A2.44,2.44,0,0,0,28.9,7.76a2.08,2.08,0,0,0-2,1.2Z"/></g></g></svg>