<svg xmlns="http://www.w3.org/2000/svg" viewBox="0 0 49.8 58.2"><defs><style>.cls-1{fill:#319d9d;}.cls-1,.cls-2,.cls-4{fill-rule:evenodd;}.cls-2{fill:#257e7e;}.cls-3{fill:#fff;}.cls-4{fill:#5fc0c6;}</style></defs><g id="katman_2" data-name="katman 2"><g id="katman_1-2" data-name="katman 1"><path class="cls-1" d="M6.53,0H32.92L49.8,16.71v35a6.55,6.55,0,0,1-6.53,6.52H6.53A6.55,6.55,0,0,1,0,51.68V6.53A6.55,6.55,0,0,1,6.53,0Z"/><polygon class="cls-2" points="35.32 15.18 49.8 28.55 49.8 16.71 45.89 12.84 35.32 15.18 35.32 15.18"/><path class="cls-3" d="M19,46.78H14.5l-.87,2.8H11l4.4-12.8h2.63l4.39,12.8h-2.6L19,46.78Zm-3.87-2h3.26l-1.62-5.19h0l-1.62,5.19Zm13,1.37.18.76h0l.16-.74,2.79-9.42H34l-4.35,12.8H27l-4.35-12.8h2.72l2.75,9.4ZM38,49.58H35.44V36.78H38v12.8Z"/><path class="cls-4" d="M49.78,16.69H39.49A6.55,6.55,0,0,1,33,10.16V0L49.78,16.69Z"/><polygon class="cls-4" points="18.09 8.97 31.71 17.85 18.09 26.73 18.09 8.97 18.09 8.97"/></g></g></svg>