<svg xmlns="http://www.w3.org/2000/svg" viewBox="0 0 56.8 62.09"><defs><style>.cls-1{fill:#cad1d8;}.cls-2{fill:#576d7e;}.cls-3{fill:#35495c;}.cls-4{fill:#e2e5e7;}.cls-5{fill:#b0b7bd;}</style></defs><title>banka</title><g id="Layer_2" data-name="Layer 2"><g id="Layer_1-2" data-name="Layer 1"><polygon class="cls-1" points="1.55 20.37 1.55 19.9 28.28 1.19 55.01 19.9 55.01 20.37 1.55 20.37"/><rect class="cls-2" x="37.19" y="25.23" width="9.9" height="27.17"/><rect class="cls-2" x="23.33" y="25.23" width="9.9" height="27.17"/><rect class="cls-2" x="9.47" y="25.23" width="9.9" height="27.17"/><path class="cls-3" d="M9.47,25.23V52.39h3V29.11a2,2,0,0,1,2-1.94h4.95V25.23Z"/><path class="cls-3" d="M23.33,25.23V52.39h3V29.11a2,2,0,0,1,2-1.94h4.95V25.23Z"/><path class="cls-3" d="M37.19,25.23V52.39h3V29.11a2,2,0,0,1,2-1.94h4.95V25.23Z"/><path class="cls-4" d="M3.53,56.27a1,1,0,0,0,1,1H52a1,1,0,0,0,1-1V53.36a1,1,0,0,0-1-1H4.52a1,1,0,0,0-1,1Z"/><path class="cls-4" d="M3.53,24.26a1,1,0,0,0,1,1H52a1,1,0,0,0,1-1V21.34a1,1,0,0,0-1-1H4.52a1,1,0,0,0-1,1Z"/><path class="cls-4" d="M.56,61.12a1,1,0,0,0,1,1H55a1,1,0,0,0,1-1V57.24a1,1,0,0,0-1-1H1.55a1,1,0,0,0-1,1Z"/><rect class="cls-4" x="5.51" y="27.17" width="3.96" height="25.23"/><rect class="cls-4" x="19.37" y="27.17" width="3.96" height="25.23"/><rect class="cls-4" x="33.23" y="27.17" width="3.96" height="25.23"/><rect class="cls-4" x="47.09" y="27.17" width="3.96" height="25.23"/><path class="cls-4" d="M28.28,2.38l24.31,17H4Zm0-2.38L.56,19.4v1.94H56V19.4L28.28,0Z"/><ellipse class="cls-4" cx="28.28" cy="12.61" rx="2.97" ry="2.91"/><path class="cls-5" d="M28.28,15.52a3,3,0,0,1-2.92-2.43,2.84,2.84,0,0,0,0,.49,3,3,0,0,0,5.94,0,2.84,2.84,0,0,0,0-.49A3,3,0,0,1,28.28,15.52Z"/><path class="cls-1" d="M55,62.09a1,1,0,0,0,1-1V57.24H30.26a1,1,0,0,0-1,1v1.94a1,1,0,0,1-1,1H.56a1,1,0,0,0,1,1H55Z"/><path class="cls-1" d="M53,56.27V53.36H30.26a1,1,0,0,0-1,1h0a1,1,0,0,1-1,1H3.53v1H53Z"/><path class="cls-1" d="M32.24,25.23l1,1.94h1a1,1,0,0,1,1,1V52.39h2V27.17l1-1.94Z"/><path class="cls-1" d="M46.1,25.23l1,1.94h1a1,1,0,0,1,1,1V52.39h2V27.17l1-1.94Z"/><path class="cls-1" d="M18.38,25.23l1,1.94h1a1,1,0,0,1,1,1V52.39h2V27.17l1-1.94Z"/><path class="cls-1" d="M4.52,25.23l1,1.94h1a1,1,0,0,1,1,1V52.39h2V27.17l1-1.94Z"/><path class="cls-1" d="M3.53,21.34v1H26.3a2,2,0,0,1,2,1.94v1H52a1,1,0,0,0,1-1V21.34Z"/><polygon class="cls-5" points="54.24 19.7 32.24 3.7 32.24 2.16 56.8 19.7 54.24 19.7"/><polygon class="cls-5" points="2.56 19.44 24.56 3.44 24.56 1.9 0 19.44 2.56 19.44"/></g></g></svg>