<?xml version="1.0" encoding="utf-8"?>
<!-- Generator: Adobe Illustrator 25.0.1, SVG Export Plug-In . SVG Version: 6.00 Build 0)  -->
<svg version="1.1" id="Layer_1" xmlns="http://www.w3.org/2000/svg" xmlns:xlink="http://www.w3.org/1999/xlink" x="0px" y="0px"
	 viewBox="0 0 199.2 137.8" style="enable-background:new 0 0 199.2 137.8;" xml:space="preserve">
<style type="text/css">
	.st0{fill:#118ACB;}
</style>
<g>
	<path class="st0" d="M192,13l-0.4-1c-0.1-0.3-0.3-0.5-0.5-0.7l-0.8-0.7L189,10l-2.4-1.1L184.1,8l-4.3-0.8l-4.3-0.5l-5-0.3l-4.3-0.5
		h-1.9L163,5.6l-0.6-0.2c-0.2-0.1-0.4-0.1-0.6-0.1h-0.6c-0.3,0-0.6,0.1-0.9,0.2l-0.5,0.2l-1.2,0.8l-0.9,0.8L157,7.7l-0.1,0.2
		c-0.3,0.4-0.4,0.9-0.4,1.3c0,0.1,0,0.2-0.1,0.3L156,9.9l-0.1,0.4c-0.1,0.3-0.2,0.7-0.1,1l0.1,0.4l0.2,2.1c0,0.2,0.1,0.4,0.2,0.6
		l0,0.1c0.1,0.2,0.3,0.4,0.5,0.6c0.1,0.1,0.3,0.1,0.5,0.1l1-0.2c0.3,0,0.6,0.1,0.6,0.4l0.1,0.4c0.1,0.4,0.3,0.7,0.6,0.9
		c0.1,0.1,0.2,0.1,0.3,0.1h1.2h1.1l0.6-0.1c0.2-0.1,0.4-0.2,0.6-0.3l1-0.8l1.1-1.4l0.8-0.9c0.2-0.2,0.3-0.4,0.4-0.6
		c0.1-0.3,0.4-0.5,0.7-0.5h0.6l1.8,0l2.4,0.4l1.9,0.8l1.4,1.1l0.4,0.7c0.2,0.2,0.2,0.5,0.2,0.8c0,0.2-0.1,0.5-0.2,0.6l-1.4,1.5
		c0,0-1.8,1.9-2,1.9c-0.2,0-2.6,1.9-2.6,1.9l-4.6,2.9l-3.1,1.6l-1.9,1l-4.6,3.5l-3.6,3l-0.2,0.1c-0.6,0.3-1.3,0-1.4-0.6l-0.3-1.6
		l-0.5-3.6l0.2-0.9l0.1,0.1c0.6,0.5,1.5,0.3,1.9-0.4l0.4-2.5l0.2-1.8l0.6-1.9c0.2-0.5,0.3-1.1,0.3-1.6v-3.3v-1.8
		c0-0.6-0.1-1.2-0.4-1.8l-0.7-1.7c-0.2-0.6-0.6-1.1-1-1.5L150.4,8c-0.3-0.4-0.7-0.7-1.2-0.9l-1.5-0.7l-2.1-0.8
		c-0.5-0.2-1.1-0.3-1.6-0.3h-2.8h-2.3c-0.4,0-0.8,0.1-1.1,0.2l-3.2,1.1l-3.4,1.1c-0.3,0.1-0.6,0.2-0.8,0.4l-2.5,1.6l-1.7,1.5
		c-0.3,0.2-0.5,0.5-0.6,0.8l-0.4,0.8c-0.3,0.6-0.5,1.2-0.5,1.9v1.8c0,1,0.3,1.9,0.8,2.7l0.5,0.7l1.1,0.9l0.1,1.4l0.1,1.7l0.4,1.1
		l0.8,0.8l0.6,0.9l0.1,0.9v0.8c0,0.3,0.1,0.6,0.3,0.9l0.3,0.3l0.7,1.2l1.1,1.7c0,0,0.8,1.4,0.5,1.4s0,1.1,0,1.1l-2.6,0.1
		c0,0-2.5,0.6-2.7,0.6c-0.2,0-1.6,0.7-1.6,0.7l-1.4,0.2l-1.2-0.1l-1.3-0.1l-3.6,0.4l-2.3,0.5c-0.2,0.1-0.5,0.2-0.7,0.3l-0.7,0.6
		l-2,0.4l-3.5-0.1l-3.7,0.1l-3.9,0.4L98.5,39l-6.8,0.7l-3.7,0.5l-1.9,0.3l-2.3,0.4l-3.2,0.6l-5.7,1L71,43.5l-3.5,0.7h-5.9L59.8,44
		l-0.8-0.6l-0.9-0.7L57.6,42l-1-0.5l-0.8-0.3L55,41c-0.2,0-0.5,0-0.7,0.1l-0.6,0.2l-1.1,0.6L50,42.4l-1.5,0.1l-0.2,0.1
		c-0.3,0.1-0.6,0.4-0.7,0.7l-0.1,0.2l0.5,1.7c0.1,0.3,0.3,0.6,0.5,0.8l0.9,0.7l1.3,0.4l0.7,0.3l0.6-0.2c0.4-0.1,0.8,0,1.1,0.3l0,0.1
		l0.8,0.5l1.4,0.4l1.2,0.7c0.2,0.1,0.3,0.2,0.5,0.2l1.2,0.3l1-0.1l0.8-0.3l1.5,0l2.9,0.2l2.9,0.4l1.3,0.1l1.9,0.6l2.4,0.6l2.8,0.5
		l1.8,0.5l2.2,0.3l3.2,0.1l1.7-0.3c0.3-0.1,0.6,0,0.9,0.2l0.2,0.1c0.2,0.1,0.5,0.2,0.8,0.2h1.7l2-0.1l1.5,0.7c0,0,1.4,1.1,1.7,1.1
		c0.2,0,1.3,0.1,2.1,0.2c0.4,0,0.8-0.1,1.2-0.3l0.8-0.5l0.4-0.3c0.2-0.2,0.5-0.2,0.8-0.2l0.7,0l1.4,0.5l2,0.3l2.1-0.1l2.7-0.6
		l1.6-0.7c0.2-0.1,0.4-0.1,0.6-0.1h1h1.7l1.9-0.5l1.3-0.5l1,0.2l0.9,0.9l0.3,0.1c0.5,0.1,0.8,0.6,0.8,1.1l0.2,1.1l0.7,0.9l0.7,0.7
		l0.1,1.2l0.5,1.1l-0.2,1.3l0.4,1.1l0.2,1.4l0.3,1.2c0.1,0.2,0.1,0.5,0,0.7l-0.3,1.8l-1,0.8l-0.5,1c0,0,0.1,1,0.1,1.3
		c0,0.1,0.1,0.5,0.2,0.7c0.1,0.3,0.1,0.7,0,1l-0.2,0.7l-0.5,0.6c-0.2,0.3-0.5,0.5-0.8,0.6l-0.7,0.2c0,0-1.7,0.7-1.9,0.9
		c-0.2,0.2-1.6,1.3-1.6,1.3l-1.5,1.3c-0.3,0.3-0.7,0.4-1.1,0.4l-2.4-0.1l-1.8,0.2c-0.2,0-0.5,0.1-0.7,0.2l-1.2,0.7
		c-0.2,0.1-0.4,0.3-0.6,0.6l-1,1.5c-0.2,0.3-0.5,0.5-0.8,0.6l-1.3,0.5l-2,0.9l-5.7,2.4l-2.2,0.7c0,0-2.6,0.3-2.8,0.4
		c-0.2,0.1-3.3,0.5-3.6,0.5c-0.4,0-1.5,1.2-1.5,1.2l-2.4,1.6l-1.6,0.5l-2.4,0.6c0,0-1.8,0.4-2.3,0.7c-0.2,0.1-0.5,0.4-0.8,0.6
		c-0.3,0.3-0.7,0.5-1.2,0.5h-1.3c-0.4,0-1.4,0.2-1.6,0.3c-0.1,0-0.2,0.1-0.3,0.2c-0.4,0.2-0.8,0.2-1.1-0.1l0,0l-3.9-0.1l-3.7-0.7
		l-3.7-0.3l-3.4,0.4l-2.8,0.3c-0.3,0-0.6,0.1-0.9,0.3l-2.4,1.4c0,0-4.4,2.7-4.6,2.7c-0.2,0-2.4,0.3-2.4,0.3L39,96.9l-1.8,1
		c-0.2,0.1-0.3,0.2-0.4,0.3l-4.6,4.3c-0.3,0.3-0.5,0.8-0.6,1.2c0,0.5-0.3,0.9-0.7,1.2l-0.7,0.5c-0.4,0.2-0.8,0.4-1.2,0.4
		c-1.7,0-6.1,0-6.3,0c-0.1,0-1.1,0.1-1.8,0.2c-0.4,0.1-0.9,0-1.2-0.3l-0.1-0.1c-0.3-0.2-0.5-0.3-0.8-0.3l-1.4,0l-2.1-0.5l-1.9-1
		l-1.5-0.7c-0.3-0.1-0.5-0.2-0.8-0.1l-0.8,0.1l-0.7,0.2c-0.4,0.1-0.7,0.4-0.8,0.8l-0.2,0.5l0.3,7.7c0,0.3,0.1,0.6,0.3,0.9
		c0.3,0.5,0.8,0.8,1.3,0.8h0.3l1.1,0.1c0.4,0,0.8,0.3,1,0.7c0.1,0.1,0.2,0.2,0.4,0.3l1.2,0.2l1.5-0.2l2.1-0.5c0.2,0,0.3-0.1,0.5-0.2
		l1.6-1l1.9-0.2l2.4,0l1-0.2l1.6-0.9l2.5-1.6c0.2-0.1,0.4-0.2,0.6-0.2l5.4-0.5l0.5,0.2c0.3,0.2,0.6,0.4,0.7,0.8l0.5,1.4l0.1,0.6
		c0.1,0.6,0.6,1.1,1.1,1.2l2.4,1l2.5,0.7c0.1,0,0.3,0.1,0.5,0.1l4.9,0.3l3.7-0.4l4.2-0.3l7.7-1.4l6.2-1.4l2.7-0.7l3.4-1.5l3.4-1.3
		l2.7-1.1l6.5-1l5.8-0.3l4.5-0.5l6.5-0.6l4.7-0.9l0.9-0.3c0.7-0.2,1.3,0.2,1.5,0.8l0.1,0.5l0.9,2.1l1.9,2l0.2,0.2
		c0.4,0.5,0.4,1.3,0.1,1.8l-2.3,3.4c-0.3,0.5-0.8,0.7-1.4,0.7l-4.8-0.3l-3-0.3c-0.4,0-0.7-0.2-1-0.6l-1.5-0.9l-1.9-0.8l-1.5-0.4
		h-0.8l-0.5,0.2c-0.2,0.1-0.4,0.2-0.6,0.4l-0.8,0.9l-1.5,0.9l-1.6,0c-0.5,0-1,0.2-1.3,0.6l-0.4,0.6l-0.5,1.3l-1,3.9
		c0,0.2-0.1,0.4-0.1,0.6v1.4c0,0.6,0.4,1.2,1,1.4l0.9,0.5l1.4,0.3l1-0.1c0.2,0,0.4-0.1,0.6-0.2l1.5-0.7l2.6-1.2l2.9-0.2
		c0.2,0,0.3-0.1,0.5-0.1l0.7-0.3l1.9-0.6l0.9,0l0.9,0.5l1.2,0.3l1-0.3l1.4-0.2l2.3,0.1l2.9,0.8l7.7,1.7c0,0,5.4,1.2,5.7,1.2
		c0.3,0,5.4,2.4,5.4,2.4l5.6,1.7l2.8,0.5c0.2,0,0.4,0,0.6,0l1.8-0.2l2.2,0.3h3c0.3,0,0.6-0.1,0.9-0.2l1.3-0.7l1.3-0.7l1.5-0.5
		l1.6-0.6l0.4-0.2c0.4-0.2,0.7-0.5,0.9-0.9l0.3-0.6l0.5-2l0.2-1.4l0.4-1c0.1-0.2,0.1-0.4,0.1-0.7l0-1.2l-0.4-1.3l-0.6-1.4
		c-0.1-0.2-0.3-0.5-0.5-0.6l-0.9-0.8c-0.2-0.2-0.4-0.4-0.5-0.6l-0.4-0.9l-0.8-1.1c-0.1-0.1-0.2-0.2-0.3-0.3l-1.3-1.1
		c-0.2-0.2-0.4-0.4-0.5-0.7l-0.7-1.2c-0.1-0.1-0.1-0.2-0.2-0.3l-2.3-2.7l-2.5-2.4l-4.8-3.4l-1.2-1.1c-0.2-0.2-0.3-0.4-0.3-0.7
		c0-0.3,0.1-0.6,0.2-0.8l0.4-0.7l0.4-1.5l0.3-2.9l0.1-0.7c0-0.4,0.3-0.8,0.6-1c0.1-0.1,0.2-0.2,0.3-0.3l0.1-0.3l1.2-1l0.1-0.1
		L145,90l1.6,2.2l0.6,0.5c0.6,0.5,1.4,0.7,2.2,0.7h1.6l0.3,2.5l0,0c0.5,1.1,2,1.2,2.7,0.3v-1.8c0-1.2-1-2.2-2.2-2.2h-2.1l-0.1,0
		c-0.9-0.4-1.6-1.1-1.9-2l-0.3-0.8c1,0.7,2.1,1.1,3.3,1.1h2c1.3,0,2.5-1,2.7-2.3c0.2-1,1-1.7,2-1.7h0.9c1,0,1.9,0.6,2.4,1.5
		c0.8,1.6,2.4,2.5,4.1,2.5h1.9l3.3-1.6h1.7l-0.4-1c-0.6-1.4-2.5-1.8-3.5-0.7l0,0h-3.7l-2.7-2.4c-1.2-1.4-3.2-1.8-4.8-1.1l-1.2,0.5
		l-2,3h-2.6l-0.7-0.5c-0.9-0.6-1.9-1-3-1h-0.4l0.7-0.6l2.2-2.7l2.9-3.9l1.9-3.2l1.8-3.7l1.1-2.3l1.5-3l1.9-4.4
		c0.1-0.2,0.1-0.3,0.2-0.5l0.9-5l0.8-3.3l1.4-3.1l2.7-4.3l3.4-4.8l2-2.2l2.6-3.2l3.4-3.4l4.4-4.1l1.5-1.9l0.2-0.3
		c0.2-0.4,0.6-0.6,1-0.7l0.3,0l0.7-0.5l0.8-0.8l0.9-0.7c0.2-0.2,0.4-0.4,0.5-0.7l0.4-1.1l0.5-1.1l0.5-0.7l0.5-1.2l0.4-0.8
		c0.1-0.2,0.3-0.4,0.5-0.6l0.2-0.2c0.4-0.3,0.6-0.8,0.6-1.3v-0.4v-1.2C192.2,13.5,192.1,13.2,192,13z M146.9,88.8
		c0.2,0.2,0.4,0.4,0.7,0.6l-0.9-0.7L146.9,88.8z M146.4,61.1c-0.1,0.3-0.4,0.5-0.6,0.5c0,0,0,0,0,0v0h0l0,0h-0.2h-2.7h-0.5v0
		c0,0,0,0,0,0c-0.3,0-0.4-0.1-0.6-0.5c-0.7-1.4-1.6-4.2-2.2-6.2c-0.6,2.1-1.2,4.4-1.9,6.2c-0.1,0.3-0.4,0.5-0.6,0.5c0,0,0,0,0,0v0h0
		v0h-0.2h-2.7h-0.5v0c0,0,0,0,0,0c-0.3,0-0.5-0.2-0.6-0.5c-1.2-3.1-2.4-12.6-2.4-12.6h2.6c0.4,0,0.8,0.3,0.9,0.8
		c0,0,0.6,4.7,1.4,8.4c0.9-2.9,1.9-6.1,1.9-6.1c0.1-0.3,0.4-0.5,0.6-0.5c0,0,0,0,0,0v0h0.5h2.7h0.2v0h0.1c0,0,0,0,0,0
		c0.2,0,0.4,0.1,0.6,0.5c0.1,0.3,1,3.3,1.9,6.1c0.7-3.7,1.4-8.4,1.4-8.4c0.1-0.4,0.4-0.8,0.9-0.8h2.6
		C148.7,48.5,147.6,58.1,146.4,61.1z M154,49.4v0.8v0.2h0c0,0,0,0,0,0c0,0.1,0,0.1-0.1,0.2c-0.4,0.2-1.2,0.5-1.8,0.7
		c0.6,0.2,1.3,0.4,1.8,0.6c0.1,0,0.1,0.1,0.1,0.2c0,0,0,0,0,0v0h0v0.1V53v0.2h0c0,0,0,0,0,0c0,0.1,0,0.2-0.1,0.2
		c-0.9,0.4-3.6,0.7-3.6,0.7v-0.8c0-0.1,0.1-0.2,0.2-0.3c0,0,1.3-0.2,2.4-0.4c-0.8-0.3-1.7-0.6-1.7-0.6c-0.1,0-0.1-0.1-0.1-0.2
		c0,0,0,0,0,0l0,0v-0.2v-0.8v-0.1l0,0v0c0,0,0,0,0,0c0-0.1,0-0.1,0.1-0.2c0.1,0,1-0.3,1.7-0.6c-1-0.2-2.4-0.4-2.4-0.4
		c-0.1,0-0.2-0.1-0.2-0.3v-0.8c0,0,2.7,0.4,3.6,0.8C153.9,49.2,154,49.2,154,49.4C154,49.3,154,49.3,154,49.4L154,49.4L154,49.4
		L154,49.4z"/>
</g>
</svg>
