<svg xmlns="http://www.w3.org/2000/svg" viewBox="0 0 49.8 58.2"><defs><style>.cls-1{fill:#3fc0f0;}.cls-1,.cls-2,.cls-3{fill-rule:evenodd;}.cls-2{fill:#009fc7;}.cls-3{fill:#9cd7ef;}.cls-4{fill:#fff;}</style></defs><g id="katman_2" data-name="katman 2"><g id="katman_1-2" data-name="katman 1"><path class="cls-1" d="M6.53,0H32.92L49.8,16.71v35a6.55,6.55,0,0,1-6.53,6.52H6.53A6.55,6.55,0,0,1,0,51.68V6.53A6.55,6.55,0,0,1,6.53,0Z"/><polygon class="cls-2" points="35.32 15.18 49.8 28.55 49.8 16.71 45.89 12.84 35.32 15.18 35.32 15.18"/><path class="cls-3" d="M49.78,16.69H39.49A6.55,6.55,0,0,1,33,10.16V0L49.78,16.69Z"/><path class="cls-4" d="M16.37,45.35a4.66,4.66,0,0,1-1.45,3.27,5.33,5.33,0,0,1-3.62,1.15,4.83,4.83,0,0,1-3.69-1.46,5.41,5.41,0,0,1-1.35-3.85V41.91a5.4,5.4,0,0,1,1.37-3.84A4.79,4.79,0,0,1,11.3,36.6a5.14,5.14,0,0,1,3.62,1.15,5,5,0,0,1,1.46,3.32H13.82a3.12,3.12,0,0,0-.68-1.87,2.35,2.35,0,0,0-1.84-.62,2.1,2.1,0,0,0-1.83.91,4.14,4.14,0,0,0-.65,2.41v2.56a4.21,4.21,0,0,0,.63,2.43,2.11,2.11,0,0,0,1.85.9,2.45,2.45,0,0,0,1.81-.59,2.94,2.94,0,0,0,.69-1.85Zm5.12-8.57,3.28,9.48h0l3.29-9.48h3.36v12.8H28.88V45.76L29.14,40h0l-3.46,9.56H23.93l-3.45-9.53h0l.26,5.7v3.82H18.14V36.78ZM38.3,41.32l2.39-4.54h3l-3.78,6.35,4,6.45H40.8L38.33,45l-2.47,4.61h-3l3.89-6.45L33,36.78h3l2.37,4.54Z"/><path class="cls-3" d="M26.89,9H19.28c-2.79,0-4.61,1.26-5.43,2.87a4.53,4.53,0,0,0,0,4.1c.82,1.61,2.63,2.87,5.43,2.87H31.2a3.12,3.12,0,0,1,3.08,1.64,2.59,2.59,0,0,1,.25,1.13,2.8,2.8,0,0,1-.26,1.16,3.16,3.16,0,0,1-3.07,1.7H22.41a2.29,2.29,0,1,0,0,1.92H31.2A5,5,0,0,0,36,23.52a4.68,4.68,0,0,0,.43-1.94A4.57,4.57,0,0,0,36,19.63a5,5,0,0,0-4.82-2.75H19.28c-2,0-3.2-.79-3.72-1.81a2.67,2.67,0,0,1,0-2.38c.52-1,1.75-1.82,3.72-1.82h7.49a2.15,2.15,0,0,0,2.13,1.46,2.39,2.39,0,0,0,2.29-2.29A2.44,2.44,0,0,0,28.9,7.76a2.08,2.08,0,0,0-2,1.2Z"/></g></g></svg>