<?xml version="1.0" encoding="utf-8"?>
<!-- Generator: Adobe Illustrator 21.0.2, SVG Export Plug-In . SVG Version: 6.00 Build 0)  -->
<svg version="1.1" id="Layer_1" xmlns="http://www.w3.org/2000/svg" xmlns:xlink="http://www.w3.org/1999/xlink" x="0px" y="0px"
	 viewBox="0 0 512.2 512.2" style="enable-background:new 0 0 512.2 512.2;" xml:space="preserve">
<style type="text/css">
	.st0{fill:#BEB5BF;}
	.st1{fill:#5C546A;}
	.st2{fill:#7ED3F7;}
	.st3{fill:#FFFFFF;}
	.st4{fill:#868491;}
</style>
<g>
	<g>
		<path class="st0" d="M376.2,410.1c-57.3,0-104-46.7-104-104s46.7-104,104-104s104,46.7,104,104S433.6,410.1,376.2,410.1z
			 M376.2,218.1c-48.5,0-88,39.5-88,88s39.5,88,88,88s88-39.5,88-88S424.7,218.1,376.2,218.1z"/>
	</g>
</g>
<g>
	<g>
		<path class="st0" d="M137.2,411.1c-57.3,0-104-46.7-104-104s46.7-104,104-104s104,46.7,104,104S194.6,411.1,137.2,411.1z
			 M137.2,219.1c-48.5,0-88,39.5-88,88s39.5,88,88,88s88-39.5,88-88S185.7,219.1,137.2,219.1z"/>
	</g>
</g>
<g>
	<g>
		<g>
			<path class="st1" d="M0,244.1v-82.7c0-10.6,4.2-20.8,11.7-28.3l22.6-22.6c3.1-3.1,8.2-3.1,11.3,0c3.1,3.1,3.1,8.2,0,11.3
				L23,144.4c-4.5,4.5-7,10.6-7,17v58.7c0,4.4,3.6,8,8,8h40c3,0,5.8,1.7,7.2,4.4c1.4,2.7,1.1,6-0.8,8.4l-24,32
				c-1.5,2-3.9,3.2-6.4,3.2h-8C14.3,276.1,0,261.8,0,244.1z"/>
		</g>
	</g>
	<g>
		<path class="st2" d="M376,204.1c-52.9,0-96,43.1-96,96s43.1,96,96,96s96-43.1,96-96S428.9,204.1,376,204.1z"/>
	</g>
	<g>
		<path class="st3" d="M395.9,248.2c-17.6,0-32,14.4-32,32s14.4,32,32,32s32-14.4,32-32S413.5,248.2,395.9,248.2z"/>
	</g>
	<g>
		<path class="st2" d="M136.2,204.1c-52.9,0-96,43.1-96,96s43.1,96,96,96s96-43.1,96-96S189.2,204.1,136.2,204.1z"/>
	</g>
	<g>
		<g>
			<path class="st1" d="M284.2,280.1c-4.4,0-8-3.6-8-8c0-11-9-20-20-20s-20,9-20,20c0,4.4-3.6,8-8,8s-8-3.6-8-8
				c0-19.9,16.1-36,36-36s36,16.1,36,36C292.2,276.5,288.6,280.1,284.2,280.1z"/>
		</g>
	</g>
	<g>
		<g>
			<path class="st1" d="M480.2,276.1h-8c-2.5,0-4.9-1.2-6.4-3.2l-24-32c-1.8-2.4-2.1-5.7-0.8-8.4c1.4-2.7,4.1-4.4,7.2-4.4h40
				c4.4,0,8-3.6,8-8v-58.7c0-6.4-2.5-12.5-7-17l-22.6-22.6c-3.1-3.1-3.1-8.2,0-11.3c3.1-3.1,8.2-3.1,11.3,0l22.6,22.6
				c7.5,7.5,11.7,17.7,11.7,28.3v82.7C512.2,261.8,497.9,276.1,480.2,276.1z"/>
		</g>
	</g>
	<g>
		<g>
			<path class="st4" d="M136.2,404.1c-57.3,0-104-46.7-104-104s46.7-104,104-104s104,46.7,104,104S193.6,404.1,136.2,404.1z
				 M136.2,212.1c-48.5,0-88,39.5-88,88s39.5,88,88,88s88-39.5,88-88S184.7,212.1,136.2,212.1z"/>
		</g>
	</g>
	<g>
		<g>
			<path class="st4" d="M376.2,404.1c-57.3,0-104-46.7-104-104s46.7-104,104-104s104,46.7,104,104S433.6,404.1,376.2,404.1z
				 M376.2,212.1c-48.5,0-88,39.5-88,88s39.5,88,88,88s88-39.5,88-88S424.7,212.1,376.2,212.1z"/>
		</g>
	</g>
	<g>
		<path class="st3" d="M156.1,248.2c-17.6,0-32,14.4-32,32s14.4,32,32,32s32-14.4,32-32S173.8,248.2,156.1,248.2z"/>
	</g>
</g>
</svg>
