<?xml version="1.0" encoding="utf-8"?>
<!-- Generator: Adobe Illustrator 21.0.2, SVG Export Plug-In . SVG Version: 6.00 Build 0)  -->
<svg version="1.1" id="Layer_1" xmlns="http://www.w3.org/2000/svg" xmlns:xlink="http://www.w3.org/1999/xlink" x="0px" y="0px"
	 viewBox="0 0 428.3 428.3" style="enable-background:new 0 0 428.3 428.3;" xml:space="preserve">
<style type="text/css">
	.st0{fill:#B1C3D0;}
	.st1{fill:#8EADBE;}
	.st2{fill:#E2E4E6;}
	.st3{fill:#576D7E;}
	.st4{fill:#35495C;}
	.st5{fill:#113247;}
	.st6{fill:#C9D1D7;}
	.st7{fill:#B0B7BD;}
	.st8{fill:#009FC4;}
	.st9{fill:#F05642;}
	.st10{fill:#0093B6;}
	.st11{fill:#D2453C;}
	.st12{fill:#83BD5A;}
	.st13{fill:#6FA04E;}
</style>
<g>
	<g>
		<rect x="171.5" y="381.6" class="st0" width="151.2" height="26.3"/>
		<path class="st1" d="M322.8,381.6h-3.3l-2.9,5.9c-2.2,4.5-6.8,7.3-11.8,7.3H189.5c-5,0-9.5-2.8-11.8-7.3l-2.9-5.9h-3.2l0,18.1v8.2
			h151.2v-8.2L322.8,381.6z"/>
		<path class="st2" d="M385.2,118.6H63l26.3,184.1c0,21.7,17.8,39.5,39.5,39.5h236.7c21.7,0,39.5-17.8,39.5-39.5L424.6,158
			C424.6,136.4,406.9,118.6,385.2,118.6z"/>
		<path class="st3" d="M63,118.6h32.9c0,0-9.9-57.8-13.2-78.9c-1.1-7.2-5.9-13.1-13.2-13.2l0,0l-52.5,0c0,0,0,0-0.1,0
			c-7.3,0-13.1,5.9-13.1,13.2C3.8,47,9.7,52.8,17,52.8h39.9L63,118.6z"/>
		<path class="st4" d="M69.6,46.3c-1.1-7.2-5.9-6.6-13.2-6.6l-52.5,0c0,0,0,0-0.1,0C3.8,47,9.7,52.8,17,52.8h39.9l6.1,65.8h17.5
			C77.4,100.3,71.9,61,69.6,46.3z"/>
		<rect x="135.3" y="342.2" class="st0" width="26.3" height="32.9"/>
		<path class="st1" d="M135.3,342.2v13.1h6.6c3.6,0,6.6,2.9,6.6,6.6V375h13.2v-19.7v-13.1H135.3z"/>
		<path class="st3" d="M174.8,394.8c0,14.5-11.8,26.3-26.3,26.3c-14.5,0-26.3-11.8-26.3-26.3c0-14.5,11.8-26.3,26.3-26.3
			C163,368.5,174.8,380.2,174.8,394.8z"/>
		<path class="st3" d="M372,394.8c0,14.5-11.8,26.3-26.3,26.3s-26.3-11.8-26.3-26.3c0-14.5,11.8-26.3,26.3-26.3S372,380.2,372,394.8
			z"/>
		<path class="st4" d="M167.1,413.4c10.3-10.3,10.3-26.9,0-37.2l-37.2,37.2C140.1,423.6,156.8,423.6,167.1,413.4z"/>
		<path class="st4" d="M364.3,413.4c10.3-10.3,10.3-26.9,0-37.2l-37.2,37.2C337.4,423.6,354.1,423.6,364.3,413.4z"/>
		<circle class="st4" cx="148.5" cy="394.8" r="13.2"/>
		<path class="st5" d="M148.5,388.2c6.1,0,11.2,4.2,12.7,9.9c0.3-1.1,0.5-2.1,0.5-3.3c0-7.3-5.9-13.2-13.2-13.2
			c-7.3,0-13.2,5.9-13.2,13.2c0,1.1,0.2,2.2,0.5,3.3C137.3,392.4,142.4,388.2,148.5,388.2z"/>
		<circle class="st4" cx="345.7" cy="394.8" r="13.2"/>
		<path class="st5" d="M345.7,388.2c6.1,0,11.2,4.2,12.7,9.9c0.3-1.1,0.5-2.1,0.5-3.3c0-7.3-5.9-13.2-13.2-13.2
			c-7.3,0-13.2,5.9-13.2,13.2c0,1.1,0.2,2.2,0.5,3.3C334.5,392.4,339.6,388.2,345.7,388.2z"/>
		<path class="st6" d="M247.1,151.5v157.8c0,10.9-8.8,19.7-19.7,19.7H99.5c7.2,8,17.7,13.2,29.3,13.2h118.4h118.4
			c21.7,0,39.5-17.8,39.5-39.5L424.6,158c0-10.1-3.9-19.3-10.2-26.3H266.8C255.9,131.8,247.1,140.6,247.1,151.5z"/>
		<path class="st6" d="M207.6,283C207.6,283,207.6,283,207.6,283V177.8c0,0,0,0,0,0c0-7.3-5.9-13.2-13.2-13.2
			c-7.3,0-13.1,5.9-13.2,13.2l0,0V283l0,0l0,0c0,7.3,5.9,13.2,13.2,13.2C201.8,296.1,207.6,290.3,207.6,283z"/>
		<path class="st6" d="M312.9,283C312.9,283,312.9,283,312.9,283V177.8c0,0,0,0,0,0c0-7.3-5.9-13.2-13.2-13.2
			c-7.3,0-13.1,5.9-13.2,13.2l0,0V283l0,0l0,0c0,7.3,5.9,13.2,13.2,13.2C307,296.1,312.9,290.3,312.9,283z"/>
		<path class="st6" d="M260.3,283C260.3,283,260.3,283,260.3,283V177.8c0,0,0,0,0,0c0-7.3-5.9-13.2-13.2-13.2
			c-7.3,0-13.1,5.9-13.2,13.2l0,0V283l0,0l0,0c0,7.3,5.9,13.2,13.2,13.2C254.4,296.1,260.3,290.3,260.3,283z"/>
		<path class="st6" d="M155,283C155,283,155,283,155,283V177.8c0,0,0,0,0,0c0-7.3-5.9-13.2-13.2-13.2c-7.3,0-13.1,5.9-13.2,13.2l0,0
			V283l0,0l0,0c0,7.3,5.9,13.2,13.2,13.2C149.2,296.1,155,290.3,155,283z"/>
		<path class="st7" d="M135.3,289.6V184.4c0-7.3,5.9-13.2,13.2-13.2c1.9,0,3.7,0.4,5.4,1.2c-2.1-4.6-6.6-7.8-12-7.8
			c-7.3,0-13.1,5.9-13.2,13.2V283c0,5.3,3.2,9.9,7.8,12C135.8,293.3,135.3,291.5,135.3,289.6z"/>
		<path class="st7" d="M187.9,289.6V184.4c0-7.3,5.9-13.2,13.2-13.2c1.9,0,3.7,0.4,5.4,1.2c-2.1-4.6-6.6-7.8-12-7.8
			c-7.3,0-13.1,5.9-13.2,13.2V283c0,5.3,3.2,9.9,7.8,12C188.4,293.3,187.9,291.5,187.9,289.6z"/>
		<path class="st7" d="M240.5,289.6V184.4c0-7.3,5.9-13.2,13.2-13.2c1.9,0,3.7,0.4,5.4,1.2c-2.1-4.6-6.6-7.8-12-7.8
			c-7.3,0-13.1,5.9-13.2,13.2V283c0,5.3,3.2,9.9,7.8,12C241,293.3,240.5,291.5,240.5,289.6z"/>
		<path class="st7" d="M293.1,289.6V184.4c0-7.3,5.9-13.2,13.2-13.2c1.9,0,3.7,0.4,5.4,1.2c-2.1-4.6-6.6-7.8-12-7.8
			c-7.3,0-13.1,5.9-13.2,13.2V283c0,5.3,3.2,9.9,7.8,12C293.6,293.3,293.1,291.5,293.1,289.6z"/>
		<path class="st6" d="M365.5,283C365.5,283,365.5,283,365.5,283V177.8c0,0,0,0,0,0c0-7.3-5.9-13.2-13.2-13.2
			c-7.3,0-13.1,5.9-13.2,13.2l0,0V283l0,0l0,0c0,7.3,5.9,13.2,13.2,13.2C359.6,296.1,365.5,290.3,365.5,283z"/>
		<path class="st7" d="M345.7,289.6V184.4c0-7.3,5.9-13.2,13.2-13.2c1.9,0,3.7,0.4,5.4,1.2c-2.1-4.6-6.6-7.8-12-7.8
			c-7.3,0-13.1,5.9-13.2,13.2V283c0,5.3,3.2,9.9,7.8,12C346.2,293.3,345.7,291.5,345.7,289.6z"/>
	</g>
	<path class="st8" d="M220.8,33.1H115.6c-7.3,0-13.2,5.9-13.2,13.2v72.3h131.5V46.3C233.9,39,228.1,33.1,220.8,33.1z"/>
	<path class="st9" d="M365.5,6.8h-52.6c-7.3,0-13.2,5.9-13.2,13.2v98.6h78.9V20C378.6,12.7,372.7,6.8,365.5,6.8z"/>
	<path class="st10" d="M168.2,59.4v32.9c0,7.3-5.9,13.2-13.2,13.2h-52.6v13.2h98.6v-13.2h32.9V46.3h-52.6
		C174.1,46.3,168.2,52.2,168.2,59.4z"/>
	<path class="st11" d="M339.2,33.1v59.2c0,7.3-5.9,13.2-13.2,13.2h-13.2v13.2h65.8v-13.2V20h-26.3C345,20,339.2,25.9,339.2,33.1z"/>
	<path class="st12" d="M299.7,46.3h-85.5c-7.3,0-13.2,5.9-13.2,13.2v59.2h111.8V59.4C312.9,52.2,307,46.3,299.7,46.3z"/>
	<path class="st13" d="M260.3,72.6v19.7c0,7.3-5.9,13.2-13.2,13.2h-46v13.2h111.8v-13.2v-46h-39.5C266.1,59.4,260.3,65.3,260.3,72.6
		z"/>
</g>
</svg>
