<?xml version="1.0" encoding="utf-8"?>
<!-- Generator: Adobe Illustrator 21.0.2, SVG Export Plug-In . SVG Version: 6.00 Build 0)  -->
<svg version="1.1" id="Layer_1" xmlns="http://www.w3.org/2000/svg" xmlns:xlink="http://www.w3.org/1999/xlink" x="0px" y="0px"
	 viewBox="0 0 427.1 427.1" style="enable-background:new 0 0 427.1 427.1;" xml:space="preserve">
<style type="text/css">
	.st0{fill:#35495C;}
	.st1{fill:#576D7E;}
	.st2{fill:#E2E4E6;}
	.st3{fill:#C9D1D7;}
	.st4{fill:#113247;}
	.st5{fill:#231F20;}
	.st6{fill:#B0B7BD;}
</style>
<g>
	<g>
		<path class="st0" d="M306.3,417.9c-32.5,0-59-26.5-59-59V70.1c0-32.5,26.5-59,59-59c32.6,0,59.1,26.5,59.1,59v288.6
			c0,15.8-6.1,30.6-17.3,41.8C336.9,411.7,322.1,417.9,306.3,417.9L306.3,417.9z"/>
		<path class="st1" d="M306.3,17.7c28.9,0,52.5,23.5,52.5,52.5v288.6c0,28.9-23.5,52.5-52.5,52.5c-28.9,0-52.5-23.5-52.5-52.5V70.1
			C253.9,41.2,277.4,17.7,306.3,17.7L306.3,17.7z M306.3,4.6C306.3,4.6,306.3,4.6,306.3,4.6L306.3,4.6c-36.3,0-65.6,29.3-65.6,65.6
			v288.7c0,36.2,29.4,65.6,65.6,65.6c0,0,0,0,0,0h0c36.2,0,65.6-29.4,65.6-65.6V70.2C371.9,34,342.5,4.6,306.3,4.6L306.3,4.6z"/>
	</g>
	<path class="st2" d="M358.8,63.6H83.3C68.8,63.6,57,75.4,57,89.8v249.3c0,14.4,11.8,26.2,26.2,26.2h275.5V63.6z"/>
	<path class="st3" d="M273.5,286.7L273.5,286.7L273.5,286.7H122.6l0,0c-7.2,0-13.1,5.9-13.1,13.1c0,7.2,5.9,13.1,13.1,13.1l0,0
		h150.9l0,0l0,0c7.2,0,13.1-5.9,13.1-13.1C286.6,292.5,280.8,286.7,273.5,286.7z"/>
	<rect x="57" y="116.1" class="st4" width="301.8" height="78.7"/>
	<rect x="319.4" y="63.6" class="st3" width="39.4" height="52.5"/>
	<rect x="319.4" y="116.1" class="st5" width="39.4" height="78.7"/>
	<rect x="319.4" y="194.8" class="st3" width="39.4" height="91.8"/>
	<rect x="319.4" y="312.9" class="st3" width="39.4" height="52.5"/>
	<path class="st3" d="M358.8,286.7h-39.4c-7.2,0-13.1,5.9-13.1,13.1c0,7.2,5.9,13.1,13.1,13.1h39.4V286.7z"/>
	<rect x="319.4" y="286.7" class="st6" width="39.4" height="26.2"/>
</g>
</svg>
