<?xml version="1.0" encoding="utf-8"?>
<!-- Generator: Adobe Illustrator 21.0.2, SVG Export Plug-In . SVG Version: 6.00 Build 0)  -->
<svg version="1.1" id="Capa_1" xmlns="http://www.w3.org/2000/svg" xmlns:xlink="http://www.w3.org/1999/xlink" x="0px" y="0px"
	 viewBox="0 0 512 512" style="enable-background:new 0 0 512 512;" xml:space="preserve">
<style type="text/css">
	.st0{fill:#B1C3D0;}
	.st1{fill:#8EADBE;}
</style>
<g>
	<path class="st0" d="M481.7,213.7l-36.8-8.2c-3-0.7-7.7-4.9-8.6-7.9c-0.1-0.4-0.3-0.8-0.4-1.2l-10.2-24.7c-0.2-0.4-0.4-0.9-0.6-1.3
		c-1.4-2.7-1.1-9,0.5-11.6l20.2-31.8c8.6-13.5,6.5-32.9-4.9-44.2l-11.2-11.2c-11-11-31-13.2-44.2-4.9l-31.8,20.2
		c-1.1,0.7-3.6,1.4-6.5,1.4c-2.4,0-4.2-0.5-5.1-0.9c-0.4-0.2-0.8-0.4-1.3-0.6l-24.7-10.2c-0.4-0.2-0.8-0.3-1.2-0.4
		c-2.9-0.9-7.2-5.6-7.9-8.7L299,31c-3.5-15.6-18.7-27.8-34.7-27.8h-15.8c-16,0-31.2,12.2-34.7,27.8l-8.2,36.8
		c-0.7,3-4.9,7.7-7.9,8.6c-0.4,0.1-0.8,0.3-1.2,0.4L171.9,87c-0.4,0.2-0.9,0.4-1.3,0.6c-0.8,0.4-2.6,0.9-5.1,0.9
		c-3,0-5.5-0.7-6.6-1.4l-31.8-20.2C114,58.5,94.1,60.7,83,71.7L71.8,82.9c-11.3,11.3-13.4,30.7-4.9,44.2l20.2,31.8
		c1.6,2.6,1.9,8.9,0.5,11.6c-0.2,0.4-0.4,0.8-0.6,1.3L77,196.4c-0.2,0.4-0.3,0.8-0.4,1.2c-0.9,2.9-5.6,7.2-8.6,7.9l-36.8,8.2
		c-15.6,3.5-27.8,18.7-27.8,34.7v15.8c0,16,12.2,31.2,27.8,34.7l36.8,8.2c3,0.7,7.7,4.9,8.6,7.9c0.1,0.4,0.3,0.8,0.4,1.2l10.2,24.7
		c0.2,0.4,0.4,0.8,0.6,1.3c1.4,2.7,1.1,9-0.5,11.6L67,385.5c-8.6,13.5-6.5,32.9,4.9,44.2L83,440.9c11,11,31,13.3,44.2,4.9l31.8-20.2
		c1.1-0.7,3.6-1.4,6.6-1.4c2.4,0,4.3,0.5,5.1,0.9c0.4,0.2,0.8,0.4,1.3,0.6l24.7,10.2c0.4,0.2,0.8,0.3,1.2,0.4
		c2.9,0.9,7.2,5.6,7.9,8.6l8.2,36.8c3.5,15.6,18.7,27.8,34.7,27.8h15.8c16,0,31.2-12.2,34.7-27.8l8.2-36.8c0.7-3,4.9-7.7,7.9-8.6
		c0.4-0.1,0.8-0.3,1.2-0.4l24.7-10.2c0.4-0.2,0.9-0.4,1.3-0.6c0.8-0.4,2.6-0.9,5-0.9c3,0,5.5,0.7,6.6,1.4l31.8,20.2
		c13.2,8.4,33.2,6.2,44.2-4.8l11.2-11.2c11.3-11.3,13.4-30.7,4.9-44.2l-20.2-31.8c-1.7-2.6-1.9-8.9-0.5-11.6
		c0.2-0.4,0.4-0.8,0.6-1.3l10.2-24.7c0.2-0.4,0.3-0.8,0.4-1.2c0.9-2.9,5.6-7.2,8.7-7.9l36.8-8.2c15.6-3.5,27.8-18.7,27.8-34.7v-15.8
		C509.6,232.4,497.3,217.2,481.7,213.7z M335.5,256.3c0,43.6-35.5,79.1-79.1,79.1c-43.6,0-79.1-35.5-79.1-79.1s35.5-79.1,79.1-79.1
		C300,177.2,335.5,212.7,335.5,256.3z"/>
	<path class="st1" d="M127.2,445.7l31.8-20.2c1.1-0.7,3.6-1.4,6.6-1.4c2.4,0,4.3,0.5,5.1,0.9c0.4,0.2,0.8,0.4,1.3,0.6l24.7,10.2
		c0.4,0.2,0.8,0.3,1.2,0.4c2.9,0.9,7.2,5.6,7.9,8.6l8.2,36.8c3.5,15.6,18.7,27.8,34.7,27.8h15.8c16,0,31.2-12.2,34.7-27.8l8.2-36.8
		c0.7-3,4.9-7.7,7.9-8.6c0.4-0.1,0.8-0.3,1.2-0.4l24.7-10.2c0.4-0.2,0.9-0.4,1.3-0.6c0.8-0.4,2.6-0.9,5-0.9c3,0,5.5,0.7,6.6,1.4
		l31.8,20.2c13.2,8.4,33.2,6.2,44.2-4.8l11.2-11.2c11.3-11.3,13.4-30.7,4.9-44.2l-20.2-31.8c-1.7-2.6-1.9-8.9-0.5-11.6
		c0.2-0.4,0.4-0.8,0.6-1.3l10.2-24.7c0.2-0.4,0.3-0.8,0.4-1.2c0.9-2.9,5.6-7.2,8.7-7.9l36.8-8.2c15.6-3.5,27.8-18.7,27.8-34.7v-15.8
		c0-16-12.2-31.2-27.8-34.7l-36.8-8.2c-3-0.7-7.7-4.9-8.6-7.9c-0.1-0.4-0.3-0.8-0.4-1.2l-10.2-24.7c-0.2-0.4-0.4-0.9-0.6-1.3
		c-1.4-2.7-1.1-9,0.5-11.6l20.2-31.8c8.6-13.5,6.5-32.9-4.9-44.2l-5.6-5.6L312.3,200.4c14.3,14.3,23.2,34.1,23.2,55.9
		c0,43.6-35.5,79.1-79.1,79.1c-21.8,0-41.6-8.9-55.9-23.2L77.4,435.3l5.6,5.6C94,451.9,114,454.2,127.2,445.7z"/>
	<path class="st1" d="M256.4,145.6c-61.2,0-110.7,49.6-110.7,110.7s49.6,110.7,110.7,110.7c61.2,0,110.7-49.6,110.7-110.7
		S317.6,145.6,256.4,145.6z M256.4,335.4c-43.7,0-79.1-35.4-79.1-79.1s35.4-79.1,79.1-79.1c43.7,0,79.1,35.4,79.1,79.1
		S300.1,335.4,256.4,335.4z"/>
	<path class="st0" d="M335.5,256.3c0,43.7-35.4,79.1-79.1,79.1c-21.8,0-41.6-8.9-55.9-23.2l-22.4,22.4c20,20,47.7,32.4,78.3,32.4
		c61.2,0,110.7-49.6,110.7-110.7c0-30.6-12.4-58.3-32.4-78.3l-22.4,22.4C326.7,214.7,335.5,234.5,335.5,256.3z"/>
</g>
</svg>
