<?xml version="1.0" encoding="utf-8"?>
<!-- Generator: Adobe Illustrator 21.0.2, SVG Export Plug-In . SVG Version: 6.00 Build 0)  -->
<svg version="1.1" id="Layer_1" xmlns="http://www.w3.org/2000/svg" xmlns:xlink="http://www.w3.org/1999/xlink" x="0px" y="0px"
	 viewBox="0 0 512 512" style="enable-background:new 0 0 512 512;" xml:space="preserve">
<style type="text/css">
	.st0{fill:#E2E4E6;}
	.st1{fill:#F05642;}
	.st2{fill:#CDD6DD;}
	.st3{fill:#B23B31;}
	.st4{fill:#576D7E;}
	.st5{fill:#B0B7BD;}
	.st6{fill:#C9D1D7;}
</style>
<g>
	<path class="st0" d="M7.3,120.5v357.8c0,17.1,14,31.1,31.1,31.1h373.4l93.3-93.3V120.5H7.3z"/>
	<path class="st1" d="M505.1,19.1c0-8.6-7-15.6-15.6-15.6H22.9c-8.6,0-15.6,7-15.6,15.6v85.8h497.8V19.1z"/>
	<rect x="7.3" y="104.9" class="st2" width="497.8" height="15.6"/>
	<circle class="st3" cx="256.2" cy="58.2" r="15.6"/>
	<circle class="st3" cx="380.7" cy="58.2" r="15.6"/>
	<circle class="st3" cx="131.8" cy="58.2" r="15.6"/>
	<circle class="st4" cx="256.2" cy="136" r="15.6"/>
	<circle class="st4" cx="380.7" cy="136" r="15.6"/>
	<circle class="st4" cx="131.8" cy="136" r="15.6"/>
	<g>
		<path class="st5" d="M380.7,143.8c-4.3,0-7.8-3.5-7.8-7.8V58.2c0-4.3,3.5-7.8,7.8-7.8c4.3,0,7.8,3.5,7.8,7.8V136
			C388.5,140.3,385,143.8,380.7,143.8z"/>
	</g>
	<g>
		<path class="st5" d="M256.2,143.8c-4.3,0-7.8-3.5-7.8-7.8V58.2c0-4.3,3.5-7.8,7.8-7.8c4.3,0,7.8,3.5,7.8,7.8V136
			C264,140.3,260.5,143.8,256.2,143.8z"/>
	</g>
	<g>
		<path class="st5" d="M131.8,143.8c-4.3,0-7.8-3.5-7.8-7.8V58.2c0-4.3,3.5-7.8,7.8-7.8c4.3,0,7.8,3.5,7.8,7.8V136
			C139.5,140.3,136.1,143.8,131.8,143.8z"/>
	</g>
	<path class="st6" d="M92.9,213.8c0,4.3-3.5,7.8-7.8,7.8H54c-4.3,0-7.8-3.5-7.8-7.8v-31.1c0-4.3,3.5-7.8,7.8-7.8h31.1
		c4.3,0,7.8,3.5,7.8,7.8V213.8z"/>
	<path class="st6" d="M155.1,213.8c0,4.3-3.5,7.8-7.8,7.8h-31.1c-4.3,0-7.8-3.5-7.8-7.8v-31.1c0-4.3,3.5-7.8,7.8-7.8h31.1
		c4.3,0,7.8,3.5,7.8,7.8V213.8z"/>
	<path class="st6" d="M217.3,213.8c0,4.3-3.5,7.8-7.8,7.8h-31.1c-4.3,0-7.8-3.5-7.8-7.8v-31.1c0-4.3,3.5-7.8,7.8-7.8h31.1
		c4.3,0,7.8,3.5,7.8,7.8V213.8z"/>
	<path class="st6" d="M279.6,213.8c0,4.3-3.5,7.8-7.8,7.8h-31.1c-4.3,0-7.8-3.5-7.8-7.8v-31.1c0-4.3,3.5-7.8,7.8-7.8h31.1
		c4.3,0,7.8,3.5,7.8,7.8V213.8z"/>
	<path class="st6" d="M341.8,213.8c0,4.3-3.5,7.8-7.8,7.8h-31.1c-4.3,0-7.8-3.5-7.8-7.8v-31.1c0-4.3,3.5-7.8,7.8-7.8H334
		c4.3,0,7.8,3.5,7.8,7.8V213.8z"/>
	<path class="st1" d="M404,213.8c0,4.3-3.5,7.8-7.8,7.8h-31.1c-4.3,0-7.8-3.5-7.8-7.8v-31.1c0-4.3,3.5-7.8,7.8-7.8h31.1
		c4.3,0,7.8,3.5,7.8,7.8V213.8z"/>
	<path class="st1" d="M466.2,213.8c0,4.3-3.5,7.8-7.8,7.8h-31.1c-4.3,0-7.8-3.5-7.8-7.8v-31.1c0-4.3,3.5-7.8,7.8-7.8h31.1
		c4.3,0,7.8,3.5,7.8,7.8V213.8z"/>
	<path class="st6" d="M92.9,276c0,4.3-3.5,7.8-7.8,7.8H54c-4.3,0-7.8-3.5-7.8-7.8v-31.1c0-4.3,3.5-7.8,7.8-7.8h31.1
		c4.3,0,7.8,3.5,7.8,7.8V276z"/>
	<path class="st6" d="M155.1,276c0,4.3-3.5,7.8-7.8,7.8h-31.1c-4.3,0-7.8-3.5-7.8-7.8v-31.1c0-4.3,3.5-7.8,7.8-7.8h31.1
		c4.3,0,7.8,3.5,7.8,7.8V276z"/>
	<path class="st6" d="M217.3,276c0,4.3-3.5,7.8-7.8,7.8h-31.1c-4.3,0-7.8-3.5-7.8-7.8v-31.1c0-4.3,3.5-7.8,7.8-7.8h31.1
		c4.3,0,7.8,3.5,7.8,7.8V276z"/>
	<path class="st6" d="M279.6,276c0,4.3-3.5,7.8-7.8,7.8h-31.1c-4.3,0-7.8-3.5-7.8-7.8v-31.1c0-4.3,3.5-7.8,7.8-7.8h31.1
		c4.3,0,7.8,3.5,7.8,7.8V276z"/>
	<path class="st6" d="M341.8,276c0,4.3-3.5,7.8-7.8,7.8h-31.1c-4.3,0-7.8-3.5-7.8-7.8v-31.1c0-4.3,3.5-7.8,7.8-7.8H334
		c4.3,0,7.8,3.5,7.8,7.8V276z"/>
	<path class="st1" d="M404,276c0,4.3-3.5,7.8-7.8,7.8h-31.1c-4.3,0-7.8-3.5-7.8-7.8v-31.1c0-4.3,3.5-7.8,7.8-7.8h31.1
		c4.3,0,7.8,3.5,7.8,7.8V276z"/>
	<path class="st1" d="M466.2,276c0,4.3-3.5,7.8-7.8,7.8h-31.1c-4.3,0-7.8-3.5-7.8-7.8v-31.1c0-4.3,3.5-7.8,7.8-7.8h31.1
		c4.3,0,7.8,3.5,7.8,7.8V276z"/>
	<path class="st6" d="M92.9,338.3c0,4.3-3.5,7.8-7.8,7.8H54c-4.3,0-7.8-3.5-7.8-7.8v-31.1c0-4.3,3.5-7.8,7.8-7.8h31.1
		c4.3,0,7.8,3.5,7.8,7.8V338.3z"/>
	<path class="st6" d="M155.1,338.3c0,4.3-3.5,7.8-7.8,7.8h-31.1c-4.3,0-7.8-3.5-7.8-7.8v-31.1c0-4.3,3.5-7.8,7.8-7.8h31.1
		c4.3,0,7.8,3.5,7.8,7.8V338.3z"/>
	<path class="st6" d="M217.3,338.3c0,4.3-3.5,7.8-7.8,7.8h-31.1c-4.3,0-7.8-3.5-7.8-7.8v-31.1c0-4.3,3.5-7.8,7.8-7.8h31.1
		c4.3,0,7.8,3.5,7.8,7.8V338.3z"/>
	<path class="st6" d="M279.6,338.3c0,4.3-3.5,7.8-7.8,7.8h-31.1c-4.3,0-7.8-3.5-7.8-7.8v-31.1c0-4.3,3.5-7.8,7.8-7.8h31.1
		c4.3,0,7.8,3.5,7.8,7.8V338.3z"/>
	<path class="st6" d="M341.8,338.3c0,4.3-3.5,7.8-7.8,7.8h-31.1c-4.3,0-7.8-3.5-7.8-7.8v-31.1c0-4.3,3.5-7.8,7.8-7.8H334
		c4.3,0,7.8,3.5,7.8,7.8V338.3z"/>
	<path class="st1" d="M404,338.3c0,4.3-3.5,7.8-7.8,7.8h-31.1c-4.3,0-7.8-3.5-7.8-7.8v-31.1c0-4.3,3.5-7.8,7.8-7.8h31.1
		c4.3,0,7.8,3.5,7.8,7.8V338.3z"/>
	<path class="st1" d="M466.2,338.3c0,4.3-3.5,7.8-7.8,7.8h-31.1c-4.3,0-7.8-3.5-7.8-7.8v-31.1c0-4.3,3.5-7.8,7.8-7.8h31.1
		c4.3,0,7.8,3.5,7.8,7.8V338.3z"/>
	<path class="st6" d="M92.9,400.5c0,4.3-3.5,7.8-7.8,7.8H54c-4.3,0-7.8-3.5-7.8-7.8v-31.1c0-4.3,3.5-7.8,7.8-7.8h31.1
		c4.3,0,7.8,3.5,7.8,7.8V400.5z"/>
	<path class="st6" d="M155.1,400.5c0,4.3-3.5,7.8-7.8,7.8h-31.1c-4.3,0-7.8-3.5-7.8-7.8v-31.1c0-4.3,3.5-7.8,7.8-7.8h31.1
		c4.3,0,7.8,3.5,7.8,7.8V400.5z"/>
	<path class="st6" d="M217.3,400.5c0,4.3-3.5,7.8-7.8,7.8h-31.1c-4.3,0-7.8-3.5-7.8-7.8v-31.1c0-4.3,3.5-7.8,7.8-7.8h31.1
		c4.3,0,7.8,3.5,7.8,7.8V400.5z"/>
	<path class="st6" d="M279.6,400.5c0,4.3-3.5,7.8-7.8,7.8h-31.1c-4.3,0-7.8-3.5-7.8-7.8v-31.1c0-4.3,3.5-7.8,7.8-7.8h31.1
		c4.3,0,7.8,3.5,7.8,7.8V400.5z"/>
	<path class="st6" d="M341.8,400.5c0,4.3-3.5,7.8-7.8,7.8h-31.1c-4.3,0-7.8-3.5-7.8-7.8v-31.1c0-4.3,3.5-7.8,7.8-7.8H334
		c4.3,0,7.8,3.5,7.8,7.8V400.5z"/>
	<path class="st1" d="M404,400.5c0,4.3-3.5,7.8-7.8,7.8h-31.1c-4.3,0-7.8-3.5-7.8-7.8v-31.1c0-4.3,3.5-7.8,7.8-7.8h31.1
		c4.3,0,7.8,3.5,7.8,7.8V400.5z"/>
	<path class="st1" d="M466.2,400.5c0,4.3-3.5,7.8-7.8,7.8h-31.1c-4.3,0-7.8-3.5-7.8-7.8v-31.1c0-4.3,3.5-7.8,7.8-7.8h31.1
		c4.3,0,7.8,3.5,7.8,7.8V400.5z"/>
	<path class="st5" d="M411.8,447.2v62.2l93.3-93.3h-62.2C425.8,416,411.8,430,411.8,447.2z"/>
	<polygon class="st2" points="349.6,509.4 411.8,447.2 411.8,509.4 	"/>
</g>
</svg>
