<?xml version="1.0" encoding="utf-8"?>
<!-- Generator: Adobe Illustrator 21.0.2, SVG Export Plug-In . SVG Version: 6.00 Build 0)  -->
<svg version="1.1" id="Layer_1" xmlns="http://www.w3.org/2000/svg" xmlns:xlink="http://www.w3.org/1999/xlink" x="0px" y="0px"
	 viewBox="0 0 512 512" style="enable-background:new 0 0 512 512;" xml:space="preserve">
<style type="text/css">
	.st0{fill:#8FC560;}
	.st1{fill:#73AE43;}
	.st2{fill:#7D4B22;}
	.st3{fill:none;stroke:#231F20;stroke-width:31.5063;stroke-linecap:round;stroke-linejoin:round;stroke-miterlimit:10;}
	.st4{fill:#D2453C;}
	.st5{fill:#F27052;}
	.st6{fill:#BB3D34;}
</style>
<g>
	<path class="st0" d="M276.7,33.5C261.5,14.7,239.8,4,217.2,4c-22.6,0-44.3,10.7-59.5,29.5c-4.7,5.8-4.7,14.1,0,19.9
		c15.2,18.7,36.9,29.5,59.5,29.5c22.6,0,44.3-10.7,59.5-29.5C281.4,47.5,281.4,39.2,276.7,33.5z"/>
	<path class="st1" d="M217.2,82.8c22.6,0,44.3-10.7,59.5-29.5c2.4-2.9,3.5-6.4,3.5-9.9h-126c0,3.5,1.2,7,3.5,9.9
		C172.9,72,194.6,82.8,217.2,82.8z"/>
	<path class="st2" d="M278.7,122.2c13.7-55.6,45.1-78.4,49.6-81.4c7.2-4.8,9.2-14.6,4.4-21.8c-4.8-7.2-14.6-9.2-21.8-4.4
		c-9.5,6.3-49.9,37-64.6,107.6H278.7z"/>
	<path class="st3" d="M303.8,169.4c-12.9,9.2-29.1,15.8-47.3,15.8c-18.1,0-34.4-6.6-47.3-15.8"/>
	<path class="st4" d="M458.9,117.2c-19.6-22.5-48.7-34.5-84.3-34.5c-18.6,0-44,8.9-68.6,17.6c-18.5,6.5-39.6,13.9-49.6,14
		c0,0-0.1,0-0.1,0c-9.9,0-31-7.4-49.7-14c-24.4-8.6-49.6-17.5-67.9-17.5c-33.5,0-61.9,12.3-82.1,35.6
		c-22.4,25.8-32.6,63.4-27.3,100.5c4.1,29.2,14.5,67.2,24.5,103.9c9.2,33.5,18.6,68.2,22.4,93.1c7.8,52.6,51.5,92.2,101.5,92.2
		c23.6,0,57.7-10.3,78.9-26c21.5,15.5,55.5,26,78.5,26c47,0,84.8-36.9,94-91.9c4.1-24.4,15-58.1,25.7-90.8
		c12.2-37.5,24.8-76.4,29.1-106.5C489.6,179.2,480.5,142.1,458.9,117.2z"/>
	<g>
		<path class="st5" d="M75.4,216.7c-4.4,0-7.9-3.5-7.9-7.9c0-47.8,38.9-86.6,86.6-86.6c4.3,0,7.9,3.5,7.9,7.9c0,4.4-3.5,7.9-7.9,7.9
			c-39.1,0-70.9,31.8-70.9,70.9C83.3,213.2,79.7,216.7,75.4,216.7z"/>
	</g>
	<path class="st6" d="M458.9,117.2c-19.6-22.5-48.7-34.5-84.3-34.5c-18.6,0-44,8.9-68.6,17.6l0,0c-29.6,10.4-49.5,38.4-49.5,69.8
		v245.7c0,28.5-19.1,53.7-46.7,60.9c-18.7,4.9-38.1,7.7-53.8,7.7c-18,0-35.2-3.2-51.1-8.9c18.8,20.1,44.8,32.6,72.8,32.6
		c23.6,0,57.4-10.2,78.7-25.9l0,0c0.1,0,0.1-0.1,0.2-0.1c0.1,0.1,0.3,0.2,0.5,0.3l0,0c21.5,15.3,55.2,25.8,78,25.8
		c47,0,84.8-36.9,94-91.9c4.1-24.4,15-58.1,25.7-90.8c12.2-37.5,24.8-76.4,29.1-106.5C489.6,179.2,480.5,142.1,458.9,117.2z"/>
</g>
</svg>
