<?xml version="1.0" encoding="utf-8"?>
<!-- Generator: Adobe Illustrator 21.0.2, SVG Export Plug-In . SVG Version: 6.00 Build 0)  -->
<svg version="1.1" id="Layer_1" xmlns="http://www.w3.org/2000/svg" xmlns:xlink="http://www.w3.org/1999/xlink" x="0px" y="0px"
	 viewBox="0 0 512 512" style="enable-background:new 0 0 512 512;" xml:space="preserve">
<style type="text/css">
	.st0{fill:#C9D1D7;}
	.st1{fill:#35495C;}
	.st2{fill:#E2E4E6;}
	.st3{fill:#D5D9DE;}
	.st4{fill:#576D7E;}
	.st5{fill:#113247;}
	.st6{fill:#B0B7BD;}
	.st7{fill:#F05642;}
	.st8{fill:#D2453C;}
</style>
<g>
	<g>
		<path class="st0" d="M437.4,163v156.4c39.7-4,70.7-37.5,70.7-78.2S477.1,167,437.4,163z"/>
	</g>
	<g>
		<path class="st1" d="M68,272.7v-62.9v-31.4H20.8c-8.7,0-15.7,7-15.7,15.7v94.3c0,8.7,7,15.7,15.7,15.7H68V272.7z"/>
	</g>
	<g>
		<g>
			<path class="st2" d="M429.8,21.1h-15.9c-22,0-31.2,6-34.1,8.6L254.5,132.5c-3.6,3-5.7,7.4-5.7,12.2v193.1c0,4.7,2.1,9.2,5.7,12.2
				l124.8,102.5c3.3,2.9,12.6,8.9,34.5,8.9h15.9c8.6-0.1,15.5-7.1,15.5-15.7V36.8C445.3,28.2,438.4,21.2,429.8,21.1z"/>
		</g>
	</g>
	<g>
		<g>
			<path class="st3" d="M256.6,272.7v79l122.7,100.7c3.3,2.9,12.6,8.9,34.5,8.9V319.8L256.6,272.7z"/>
		</g>
	</g>
	<g>
		<g>
			<path class="st0" d="M178,477c0,8.6-7.1,15.7-15.7,15.7h-31.4c-8.6,0-15.7-7.1-15.7-15.7V351.3c0-8.6,7.1-15.7,15.7-15.7h31.4
				c8.6,0,15.7,7.1,15.7,15.7V477z"/>
		</g>
	</g>
	<g>
		<g>
			<path class="st4" d="M429.6,21.1c-8.7,0-15.7,0-15.7,0v440.2c0,0,7,0,15.7,0c8.7,0,15.7-7,15.7-15.7V36.8
				C445.3,28.1,438.2,21.1,429.6,21.1z"/>
		</g>
	</g>
	<g>
		<rect x="44.4" y="178.3" class="st5" width="7.9" height="125.8"/>
	</g>
	<g>
		<path class="st1" d="M178,351.3v47.2c8.6,0,15.7-7.1,15.7-15.7v-31.4H178z"/>
	</g>
	<g>
		<rect x="115.1" y="351.3" class="st6" width="62.9" height="15.7"/>
	</g>
	<g>
		<rect x="178" y="351.3" class="st5" width="15.7" height="15.7"/>
	</g>
	<g>
		<path class="st7" d="M99.4,131.2c-26,0-47.2,21.2-47.2,47.2v125.8c0,26,21.2,47.2,47.2,47.2h157.2V131.2H99.4z"/>
	</g>
	<g>
		<path class="st8" d="M52.2,272.7v31.4c0,26,21.2,47.2,47.2,47.2h157.2v-78.6H52.2z"/>
	</g>
</g>
</svg>
