<?xml version="1.0" encoding="utf-8"?>
<!-- Generator: Adobe Illustrator 21.0.2, SVG Export Plug-In . SVG Version: 6.00 Build 0)  -->
<svg version="1.1" id="Layer_1" xmlns="http://www.w3.org/2000/svg" xmlns:xlink="http://www.w3.org/1999/xlink" x="0px" y="0px"
	 viewBox="0 0 509.3 509.3" style="enable-background:new 0 0 509.3 509.3;" xml:space="preserve">
<style type="text/css">
	.st0{fill:#35495C;}
	.st1{fill:#113247;}
	.st2{fill:#576D7E;}
	.st3{fill:#FCCF63;}
	.st4{fill:#D89C44;}
</style>
<g>
	<path class="st0" d="M382.4,224.3H129.4c-8.7,0-15.8,7.1-15.8,15.8v126.5c0,4.6,2,8.9,5.4,11.9c33.5,29.2,78.2,51.3,136.9,51.3
		s103.4-22.1,136.9-51.3c3.4-3,5.4-7.3,5.4-11.9V240.1C398.2,231.4,391.1,224.3,382.4,224.3z"/>
	<path class="st1" d="M382.4,224.3H255.9H129.4c-8.7,0-15.8,7.1-15.8,15.8v23.4c0,0,70.4,27.9,112.1,44.2
		c18.2,7.1,30.1,24.6,30.1,44.2v77.9c58.7,0,103.6-22.2,137.1-51.5c3.4-2.9,5.2-7.3,5.2-11.7V261.1v-21
		C398.2,231.4,391.1,224.3,382.4,224.3z"/>
	<path class="st2" d="M498.9,178L261.8,83.2c-3.8-1.5-8-1.5-11.7,0L12.9,178c-6,2.4-9.9,8.2-9.9,14.7c0,6.5,3.9,12.3,9.9,14.7
		L250,302.2c1.9,0.7,3.9,1.1,5.9,1.1s4-0.4,5.9-1.1l237.1-94.8c6-2.4,9.9-8.2,9.9-14.7C508.8,186.2,504.9,180.4,498.9,178z"/>
	<path class="st0" d="M508.6,191.1l-135.3,53.5l-117.4-44l7,7c5.8,5.8,12.8,10.2,20.5,13l66.6,25.9c3.4,1.3,3.4,6,0,7.4L260.9,289
		c-3,1.2-5,4.1-5,7.4v6.9c2,0,4-0.4,5.9-1.1l237.1-94.8c6-2.4,9.9-8.2,9.9-14.7C508.8,192.1,508.7,191.6,508.6,191.1z"/>
	<path class="st3" d="M406.1,303.3c0-10.3-6.6-19-15.8-22.3v-41c0-4-3-7.3-6.9-7.8l-126.5-47.4c-4.4-0.5-8.3,2.5-8.8,6.9
		c-0.5,4.3,2.5,8.3,6.9,8.8L374.5,247v34.1c-9.2,3.3-15.8,12-15.8,22.3s6.6,19,15.8,22.3v9.4c0,4.4,3.5,7.9,7.9,7.9
		c4.4,0,7.9-3.5,7.9-7.9v-9.4C399.5,322.3,406.1,313.6,406.1,303.3z"/>
	<path class="st4" d="M394.7,283.1c2.2,3.6,3.5,7.8,3.5,12.3c0,13.1-10.6,23.7-23.7,23.7c-4.5,0-8.7-1.3-12.3-3.5
		c4.2,6.8,11.6,11.4,20.2,11.4c13.1,0,23.7-10.6,23.7-23.7C406.1,294.8,401.5,287.3,394.7,283.1z"/>
</g>
</svg>
