<?xml version="1.0" encoding="utf-8"?>
<!-- Generator: Adobe Illustrator 21.0.2, SVG Export Plug-In . SVG Version: 6.00 Build 0)  -->
<svg version="1.1" id="Layer_1" xmlns="http://www.w3.org/2000/svg" xmlns:xlink="http://www.w3.org/1999/xlink" x="0px" y="0px"
	 viewBox="0 0 432.1 432.1" style="enable-background:new 0 0 432.1 432.1;" xml:space="preserve">
<style type="text/css">
	.st0{fill:#113247;}
	.st1{fill:#FCCE44;}
	.st2{fill:#35495C;}
	.st3{fill:#D89C44;}
	.st4{fill:#748A9D;}
	.st5{fill:#576D7E;}
	.st6{fill:#F6B74E;}
	.st7{fill:#231F20;}
</style>
<g>
	<g>
		<rect x="116.7" y="189.7" class="st0" width="200.3" height="26.7"/>
	</g>
	<g>
		<path class="st1" d="M216.9,2.7c-40.6,0-73.5,32.9-73.5,73.5v146.9c0,40.6,32.9,73.5,73.5,73.5s73.5-32.9,73.5-73.5V76.2
			C290.3,35.6,257.4,2.7,216.9,2.7z"/>
	</g>
	<g>
		<path class="st2" d="M290.3,209.7H143.4v13.4c0,40.6,32.9,73.5,73.5,73.5s73.5-32.9,73.5-73.5V209.7z"/>
	</g>
	<g>
		<rect x="143.4" y="216.4" class="st0" width="146.9" height="6.7"/>
	</g>
	<g>
		<path class="st3" d="M276.9,76.2c0-2.3-0.1-4.5-0.3-6.7h-46.4c-3.7,0-6.7,3-6.7,6.7s3,6.7,6.7,6.7h46.7V76.2z"/>
	</g>
	<g>
		<path class="st3" d="M276.9,149.6h-46.7c-3.7,0-6.7,3-6.7,6.7s3,6.7,6.7,6.7h46.7V149.6z"/>
	</g>
	<g>
		<path class="st3" d="M276.9,122.9h-46.7c-3.7,0-6.7,3-6.7,6.7c0,3.7,3,6.7,6.7,6.7h46.7V122.9z"/>
	</g>
	<g>
		<path class="st3" d="M276.9,96.2h-46.7c-3.7,0-6.7,3-6.7,6.7s3,6.7,6.7,6.7h46.7V96.2z"/>
	</g>
	<g>
		<path class="st3" d="M156.8,76.2c0-2.3,0.1-4.5,0.3-6.7h46.4c3.7,0,6.7,3,6.7,6.7s-3,6.7-6.7,6.7h-46.7V76.2z"/>
	</g>
	<g>
		<path class="st3" d="M156.8,149.6h46.7c3.7,0,6.7,3,6.7,6.7s-3,6.7-6.7,6.7h-46.7V149.6z"/>
	</g>
	<g>
		<path class="st3" d="M156.8,122.9h46.7c3.7,0,6.7,3,6.7,6.7c0,3.7-3,6.7-6.7,6.7h-46.7V122.9z"/>
	</g>
	<g>
		<path class="st3" d="M156.8,96.2h46.7c3.7,0,6.7,3,6.7,6.7s-3,6.7-6.7,6.7h-46.7V96.2z"/>
	</g>
	<g>
		<path class="st3" d="M266.8,42.8h-36.6c-3.7,0-6.7,3-6.7,6.7s3,6.7,6.7,6.7h43.2C271.8,51.4,269.6,46.9,266.8,42.8z"/>
	</g>
	<g>
		<path class="st3" d="M203.5,42.8h-36.6c-2.8,4.1-5,8.6-6.6,13.4h43.2c3.7,0,6.7-3,6.7-6.7S207.2,42.8,203.5,42.8z"/>
	</g>
	<g>
		<path class="st2" d="M276.9,390h-33.4v-53.4h-53.4V390h-33.4c-17.5,0-27,10.7-26.7,26.7h0v6.7c0,3.7,3,6.7,6.7,6.7H297
			c3.7,0,6.7-3,6.7-6.7v-6.7C303.7,400.7,294.4,390,276.9,390z"/>
	</g>
	<g>
		<rect x="190.1" y="383.3" class="st0" width="53.4" height="6.7"/>
	</g>
	<path class="st2" d="M330.4,169.7c-7.4,0-13.4,6-13.4,13.4v40.1c0,55.3-44.8,100.2-100.2,100.2s-100.2-44.8-100.2-100.2V183
		c0-7.4-6-13.4-13.4-13.4S90,175.7,90,183v40.1C90,293.2,146.8,350,216.9,350s126.9-56.8,126.9-126.9V183
		C343.7,175.7,337.7,169.7,330.4,169.7z"/>
	<g>
		<rect x="143.4" y="189.7" class="st4" width="146.9" height="26.7"/>
	</g>
	<g>
		<rect x="276.9" y="189.7" class="st5" width="13.4" height="26.7"/>
	</g>
	<g>
		<g>
			<path class="st6" d="M276.9,76.2v113.5h13.4V76.2c0-40.6-32.9-73.5-73.5-73.5c-2.3,0-4.5,0.1-6.7,0.3
				C247.6,6.5,276.9,37.9,276.9,76.2z"/>
		</g>
	</g>
	<g>
		<path class="st0" d="M210.2,296.2c2.2,0.2,4.4,0.3,6.7,0.3c40.6,0,73.5-32.9,73.5-73.5h-13.4C276.9,261.4,247.6,292.8,210.2,296.2
			z"/>
	</g>
	<g>
		<rect x="276.9" y="216.4" class="st7" width="13.4" height="6.7"/>
	</g>
</g>
</svg>
