<?xml version="1.0" encoding="utf-8"?>
<!-- Generator: Adobe Illustrator 21.0.2, SVG Export Plug-In . SVG Version: 6.00 Build 0)  -->
<svg version="1.1" id="Layer_1" xmlns="http://www.w3.org/2000/svg" xmlns:xlink="http://www.w3.org/1999/xlink" x="0px" y="0px"
	 viewBox="0 0 414 414" style="enable-background:new 0 0 414 414;" xml:space="preserve">
<style type="text/css">
	.st0{fill-rule:evenodd;clip-rule:evenodd;fill:#E53A34;}
	.st1{fill-rule:evenodd;clip-rule:evenodd;fill:#D22E2E;}
	.st2{fill-rule:evenodd;clip-rule:evenodd;fill:#EE5451;}
	.st3{fill:#7A5649;}
	.st4{fill-rule:evenodd;clip-rule:evenodd;fill:#5E4137;}
	.st5{fill-rule:evenodd;clip-rule:evenodd;fill:#37474F;}
	.st6{fill-rule:evenodd;clip-rule:evenodd;fill:#CED8DB;}
	.st7{fill-rule:evenodd;clip-rule:evenodd;fill:#465B65;}
</style>
<g>
	<g>
		<g>
			<g>
				<polygon class="st0" points="6.3,85 126.5,85 126.5,158.7 6.3,158.7 46.8,120.5 				"/>
			</g>
			<g>
				<polygon class="st1" points="126.5,101.2 126.5,158.7 88.6,121.6 				"/>
			</g>
			<g>
				<rect x="88.6" y="38.8" class="st2" width="115" height="82.7"/>
			</g>
		</g>
		<g>
			<path class="st3" d="M212.7,24.3c0-4.4-3-8-6.6-8c-3.7,0-6.6,3.6-6.6,8v195c0,4.4,3,8,6.6,8c3.7,0,6.6-3.6,6.6-8V24.3z"/>
		</g>
		<g>
			<circle class="st4" cx="206.1" cy="19.4" r="16.4"/>
		</g>
		<g>
			<polygon class="st5" points="329.1,412.1 83.1,412.1 158.3,271.6 193.9,220.3 246.3,254.6 			"/>
		</g>
		<g>
			<polygon class="st6" points="157.3,273.6 206.1,165.3 247.5,257.2 230.2,254.9 222.3,269.5 212.6,251.9 193.2,271.4 187,248.9 
				177.1,277 170.9,256.2 			"/>
		</g>
		<g>
			<polygon class="st7" points="409,412.1 223.7,412.1 298.2,273.1 329.1,267.7 337.5,279.9 			"/>
		</g>
		<g>
			<polygon class="st6" points="298.1,273.4 316.3,232.8 338.4,281.9 331.7,273.3 328.8,283.3 324,269.8 321,280.6 311.7,271.2 
				307,279.7 303.2,272.7 			"/>
		</g>
		<g>
			<polygon class="st7" points="176,412.1 19.2,412.1 74.9,314.9 110.2,300.6 118.8,311.5 			"/>
		</g>
		<g>
			<polygon class="st6" points="74.6,315.5 97.6,264.4 118.9,311.9 118.5,316.9 110.6,303.4 109.6,315.6 97.7,307.5 94.4,317.5 
				88.9,310.7 			"/>
		</g>
	</g>
</g>
</svg>
