<svg id="Capa_1" enable-background="new 0 0 512 512" height="512" viewBox="0 0 512 512" width="512" xmlns="http://www.w3.org/2000/svg"><path d="m196.01 320.987 59.99 33.07-31.796 35.725c-.619.695-1.71.682-2.312-.027l-42.083-49.605c-.441-.52-.485-1.27-.108-1.838l10.575-15.919c1.255-1.89 3.748-2.501 5.734-1.406z" fill="#b7c8ea"/><path d="m315.99 320.987-59.99 33.069 31.796 35.725c.619.695 1.71.682 2.312-.027l42.083-49.605c.441-.52.485-1.27.108-1.838l-10.575-15.919c-1.255-1.889-3.748-2.5-5.734-1.405z" fill="#b7c8ea"/><path d="m306.248 318.451v-34.127c-17.616 12.05-37.069 18.95-50.248 18.95s-32.633-6.9-50.248-18.95v34.127c0 2.522-1.108 4.78-2.856 6.332l53.104 29.273 53.104-29.274c-1.748-1.552-2.856-3.809-2.856-6.331z" fill="#f1d0a5"/><path d="m306.248 318.451v-34.127c-9.9 6.772-20.379 11.917-30 15.125v9.002.076c.041 4.687-2.259 9.076-6.364 11.338l-37.955 20.923 24.071 13.268 53.104-29.274c-1.748-1.552-2.856-3.809-2.856-6.331z" fill="#f1b986"/><path d="m400.479 326.923h-75.744l7.565 11.388c.378.568.334 1.318-.108 1.838l-42.083 49.605c-.602.71-1.693.723-2.312.027l-31.797-35.725-31.796 35.725c-.619.695-1.71.682-2.312-.027l-42.083-49.605c-.441-.52-.485-1.27-.108-1.838l7.565-11.388h-75.744c-32.698 0-59.205 26.507-59.205 59.205v124.372c0 .828.672 1.5 1.5 1.5h404.368c.828 0 1.5-.672 1.5-1.5v-124.371c-.001-32.698-26.508-59.206-59.206-59.206z" fill="#8eaadf"/><path d="m404.993 327.093c9.146 10.421 14.69 24.081 14.69 39.036v65.054c0 33.588-27.229 60.817-60.817 60.817h-306.55v18.5c0 .828.672 1.5 1.5 1.5h404.368c.828 0 1.5-.672 1.5-1.5v-124.371c0-31.179-24.102-56.729-54.691-59.036z" fill="#698ed5"/><path d="m340.356 145.603h-168.712c-12.634 0-23.881-8.004-28.021-19.941l-1.081-3.119c-1.985-5.724 2.266-11.697 8.324-11.697h210.268c6.059 0 10.309 5.973 8.324 11.697l-1.081 3.119c-4.14 11.937-15.387 19.941-28.021 19.941z" fill="#f4dd45"/><path d="m340.356 145.603h-168.712c-4.684 0-9.177-1.1-13.188-3.093l5.852 79.453c3.537 48.027 62.746 81.31 91.692 81.31s88.155-33.283 91.692-81.31l5.851-79.453c-4.01 1.993-8.503 3.093-13.187 3.093z" fill="#f1d0a5"/><path d="m340.356 145.603h-28.513l-4.151 56.36c-3.537 48.027-62.746 81.31-91.692 81.31-4.336 0-9.351-.747-14.755-2.178 18.724 14.038 40.44 22.178 54.755 22.178 28.946 0 88.155-33.283 91.692-81.31l5.851-79.453c-4.01 1.993-8.503 3.093-13.187 3.093z" fill="#f1b986"/><path d="m358.151 84.213-37.694-4.631c-22.536-2.769-39.468-21.909-39.468-44.615v-32.061c0-1.605-1.301-2.906-2.906-2.906h-44.165c-1.605 0-2.906 1.301-2.906 2.906v32.061c0 22.705-16.932 41.846-39.468 44.615l-37.694 4.631h-4.253v26.634h212.808v-26.634z" fill="#f9ef63"/><path d="m280.988 34.967c0 22.705 16.932 41.846 39.468 44.615l37.694 4.631h.336c-7.823-39.856-38.317-71.585-77.498-81.204z" fill="#f4dd45"/><path d="m153.849 84.213 37.694-4.631c22.536-2.769 39.468-21.909 39.468-44.615v-31.959c-39.182 9.62-69.675 41.348-77.498 81.204h.336z" fill="#f4dd45"/><path d="m158.918 148.779h-16.207c-11.617 0-21.034 9.417-21.034 21.034v2.301c0 21.6 17.51 39.11 39.11 39.11h2.729z" fill="#f1b986"/><path d="m369.288 148.779h-16.207l-4.599 62.445h2.729c21.6 0 39.11-17.51 39.11-39.11v-2.301c.002-11.616-9.416-21.034-21.033-21.034z" fill="#f1d0a5"/><path d="m123.531 398.289h86.024v30.024h-86.024z" fill="#93c8a5"/><path d="m123.531 428.313h86.024v83.687h-86.024z" fill="#f9ef63"/><path d="m123.531 492h86.024v20h-86.024z" fill="#f4dd45"/><path d="m179.701 338.311 7.565-11.388h-63.735v71.366h86.024v-23.077l-29.746-35.062c-.442-.521-.486-1.271-.108-1.839z" fill="#f9ef63"/><path d="m302.446 398.289h86.024v30.024h-86.024z" fill="#93c8a5"/><path d="m302.446 428.313h86.024v83.687h-86.024z" fill="#f9ef63"/><path d="m358.867 492h-56.421v20h86.024v-27.678c-8.762 4.891-18.857 7.678-29.603 7.678z" fill="#f4dd45"/><path d="m332.299 338.311-7.565-11.388h63.735v71.366h-86.024v-23.077l29.746-35.062c.442-.521.486-1.271.108-1.839z" fill="#f9ef63"/><path d="m277.99 110.847h-43.98l9.48-34.78c.295-1.083 1.279-1.834 2.401-1.834h20.218c1.122 0 2.106.751 2.401 1.834z" fill="#fff9c1"/></svg>