<?xml version="1.0" encoding="utf-8"?>
<!-- Generator: Adobe Illustrator 21.0.2, SVG Export Plug-In . SVG Version: 6.00 Build 0)  -->
<svg version="1.1" id="Layer_1" xmlns="http://www.w3.org/2000/svg" xmlns:xlink="http://www.w3.org/1999/xlink" x="0px" y="0px"
	 viewBox="0 0 509.2 509.2" style="enable-background:new 0 0 509.2 509.2;" xml:space="preserve">
<style type="text/css">
	.st0{fill:#F6B74E;}
	.st1{fill:#F9DF9D;}
	.st2{fill:#C9A07C;}
</style>
<g>
	<g>
		<path class="st0" d="M502,397.8L24.8,84.7c-4.9-3.2-11.2-3.5-16.4-0.7C3.2,86.8,0,92.1,0,98v313.2c0,8.8,7.2,16,16,16h477.2
			c7.1,0,13.3-4.6,15.3-11.4C510.6,409,508,401.7,502,397.8z M279.1,347.2H80V216.6L279.1,347.2z"/>
	</g>
	<g>
		<path class="st1" d="M264,395.2c-4.4,0-8,3.6-8,8v24h16v-24C272,398.8,268.4,395.2,264,395.2z"/>
	</g>
	<g>
		<path class="st2" d="M296,379.2c-4.4,0-8,3.6-8,8v40h16v-40C304,382.8,300.4,379.2,296,379.2z"/>
	</g>
	<g>
		<path class="st1" d="M144,427.2v-24c0-4.4-3.6-8-8-8s-8,3.6-8,8v24H144z"/>
	</g>
	<g>
		<path class="st1" d="M392,395.2c-4.4,0-8,3.6-8,8v24h16v-24C400,398.8,396.4,395.2,392,395.2z"/>
	</g>
	<g>
		<path class="st2" d="M360,379.2c-4.4,0-8,3.6-8,8v40h16v-40C368,382.8,364.4,379.2,360,379.2z"/>
	</g>
	<g>
		<path class="st1" d="M328,395.2c-4.4,0-8,3.6-8,8v24h16v-24C336,398.8,332.4,395.2,328,395.2z"/>
	</g>
	<g>
		<path class="st1" d="M208,403.2c0-4.4-3.6-8-8-8s-8,3.6-8,8v24h16V403.2z"/>
	</g>
	<g>
		<path class="st2" d="M40,379.2c-4.4,0-8,3.6-8,8v40h16v-40C48,382.8,44.4,379.2,40,379.2z"/>
	</g>
	<g>
		<path class="st1" d="M72,395.2c-4.4,0-8,3.6-8,8v24h16v-24C80,398.8,76.4,395.2,72,395.2z"/>
	</g>
	<g>
		<path class="st2" d="M176,387.2c0-4.4-3.6-8-8-8s-8,3.6-8,8v40h16V387.2z"/>
	</g>
	<g>
		<path class="st2" d="M424,379.2c-4.4,0-8,3.6-8,8v40h16v-40C432,382.8,428.4,379.2,424,379.2z"/>
	</g>
	<g>
		<path class="st2" d="M240,387.2c0-4.4-3.6-8-8-8s-8,3.6-8,8v40h16V387.2z"/>
	</g>
	<g>
		<path class="st2" d="M112,387.2c0-4.4-3.6-8-8-8s-8,3.6-8,8v40h16V387.2z"/>
	</g>
</g>
</svg>
