<?xml version="1.0" encoding="utf-8"?>
<!-- Generator: Adobe Illustrator 21.0.2, SVG Export Plug-In . SVG Version: 6.00 Build 0)  -->
<svg version="1.1" id="Layer_1" xmlns="http://www.w3.org/2000/svg" xmlns:xlink="http://www.w3.org/1999/xlink" x="0px" y="0px"
	 viewBox="0 0 512 512" style="enable-background:new 0 0 512 512;" xml:space="preserve">
<style type="text/css">
	.st0{fill:#F6B74E;}
	.st1{fill:#FCCF63;}
	.st2{fill:#F4A935;}
	.st3{fill:#D89C44;}
</style>
<g>
	<path class="st0" d="M118.8,210.9l-74.7,74.7C-6.3,336-6.3,418,44.1,468.5c24.5,24.4,56.9,37.8,91.5,37.8c34.6,0,67-13.4,91.4-37.8
		l74.7-74.7L118.8,210.9z"/>
	<path class="st0" d="M468.3,44.3c-24.5-24.4-56.9-37.8-91.5-37.8c-34.6,0-67,13.4-91.4,37.8L210.7,119l182.9,182.9l74.7-74.7
		C518.7,176.9,518.7,94.8,468.3,44.3z"/>
	<g>
		
			<rect x="191.3" y="127.1" transform="matrix(0.7072 -0.707 0.707 0.7072 -106.2584 256.2448)" class="st1" width="129.9" height="258.7"/>
	</g>
	<path class="st2" d="M135.6,506.3c34.6,0,67-13.4,91.4-37.8l74.7-74.7l-91.5-91.4L44.1,468.5C68.6,492.9,101.1,506.3,135.6,506.3z"
		/>
	<path class="st2" d="M393.6,301.9l74.7-74.7c50.4-50.4,50.4-132.4,0-182.9c0,0,0,0,0,0L302.2,210.5L393.6,301.9z"/>
	
		<ellipse transform="matrix(0.7071 -0.7071 0.7071 0.7071 -2.8403 271.6698)" class="st3" cx="326.5" cy="139.3" rx="15.6" ry="15.6"/>
	<path class="st3" d="M384.4,197.2c-6.1,6.1-16,6.1-22.1,0c-6.1-6.1-6.1-16,0-22.1c6.1-6.1,16-6.1,22.1,0
		C390.5,181.2,390.5,191.1,384.4,197.2z"/>
	<ellipse transform="matrix(0.707 -0.7072 0.7072 0.707 59.6768 297.6184)" class="st3" cx="389" cy="76.8" rx="15.6" ry="15.6"/>
	<path class="st3" d="M446.9,134.7c-6.1,6.1-16,6.1-22.1,0c-6.1-6.1-6.1-16,0-22.1c6.1-6.1,16-6.1,22.1,0
		C453,118.7,453,128.6,446.9,134.7z"/>
	<path class="st3" d="M345.4,95.6c-6.1,6.1-16,6.1-22.1,0c-6.1-6.1-6.1-16,0-22.1c6.1-6.1,16-6.1,22.1,0
		C351.5,79.7,351.5,89.5,345.4,95.6z"/>
	<path class="st3" d="M392.2,142.5c-6.1,6.1-16,6.1-22.1,0c-6.1-6.1-6.1-16,0-22.1c6.1-6.1,16-6.1,22.1,0
		C398.3,126.5,398.3,136.4,392.2,142.5z"/>
	<path class="st3" d="M439.1,189.4c-6.1,6.1-16,6.1-22.1,0c-6.1-6.1-6.1-16,0-22.1c6.1-6.1,16-6.1,22.1,0
		C445.2,173.4,445.2,183.3,439.1,189.4z"/>
	
		<ellipse transform="matrix(0.7071 -0.7071 0.7071 0.7071 -252.7498 168.1151)" class="st3" cx="76.6" cy="389.2" rx="15.6" ry="15.6"/>
	<path class="st3" d="M134.5,447.1c-6.1,6.1-16,6.1-22.1,0c-6.1-6.1-6.1-16,0-22.1c6.1-6.1,16-6.1,22.1,0
		C140.6,431.1,140.6,441,134.5,447.1z"/>
	<path class="st3" d="M150.1,337.7c-6.1,6.1-16,6.1-22.1,0c-6.1-6.1-6.1-16,0-22.1c6.1-6.1,16-6.1,22.1,0
		C156.2,321.7,156.2,331.6,150.1,337.7z"/>
	<path class="st3" d="M197,384.6c-6.1,6.1-16,6.1-22.1,0c-6.1-6.1-6.1-16,0-22.1c6.1-6.1,16-6.1,22.1,0
		C203.1,368.6,203.1,378.5,197,384.6z"/>
	
		<ellipse transform="matrix(0.707 -0.7072 0.7072 0.707 -211.8393 157.6818)" class="st3" cx="84.4" cy="334.5" rx="15.6" ry="15.6"/>
	
		<ellipse transform="matrix(0.7071 -0.7071 0.7071 0.7071 -231.2159 204.4979)" class="st3" cx="131.2" cy="381.4" rx="15.6" ry="15.6"/>
	
		<ellipse transform="matrix(0.707 -0.7072 0.7072 0.707 -250.649 251.4297)" class="st3" cx="178.1" cy="428.2" rx="15.6" ry="15.6"/>
	<polygon class="st0" points="302.2,210.5 302.2,210.5 210.3,302.3 210.3,302.3 301.8,393.8 393.6,301.9 	"/>
</g>
</svg>
