<?xml version="1.0" encoding="utf-8"?>
<!-- Generator: Adobe Illustrator 21.0.2, SVG Export Plug-In . SVG Version: 6.00 Build 0)  -->
<svg version="1.1" id="Capa_1" xmlns="http://www.w3.org/2000/svg" xmlns:xlink="http://www.w3.org/1999/xlink" x="0px" y="0px"
	 viewBox="0 0 512 512" style="enable-background:new 0 0 512 512;" xml:space="preserve">
<style type="text/css">
	.st0{fill:#FFCB05;}
	.st1{fill:#A7A4AB;}
	.st2{fill:#FBB04C;}
	.st3{fill:#C3BEC6;}
	.st4{fill:#88838C;}
	.st5{fill:#D5DFF4;}
	.st6{fill:#C3D5EF;}
	.st7{fill:#958B95;}
	.st8{fill:#DD636E;}
	.st9{fill:#ED174C;}
	.st10{fill:#D3CED5;}
	.st11{fill:#FFF9C1;}
	.st12{fill:#F9EF63;}
</style>
<path class="st0" d="M95.1,432.1h-40c-22.9,0-41.5-18.6-41.5-41.5V157.4c0-22.9,18.6-41.4,41.4-41.4h40c22.9,0,41.4,18.6,41.4,41.4
	v233.2C136.6,413.5,118,432.1,95.1,432.1z"/>
<path class="st1" d="M122.7,116H27.6c-2.9,0-5.2-2.3-5.2-5.2V90.6c0-2.9,2.3-5.2,5.2-5.2h95.1c2.9,0,5.2,2.3,5.2,5.2v20.2
	C127.9,113.6,125.6,116,122.7,116z"/>
<path class="st0" d="M261.2,432.1h-40c-22.9,0-41.5-18.6-41.5-41.5V157.4c0-22.9,18.6-41.4,41.4-41.4h40c22.9,0,41.4,18.6,41.4,41.4
	v233.2C302.6,413.5,284.1,432.1,261.2,432.1L261.2,432.1z"/>
<path class="st2" d="M95.1,116h-4.5c3.8,6.3,6,13.6,6,21.4v233.2c0,22.9-18.6,41.5-41.5,41.5H19.7c7.3,12,20.4,20,35.5,20h40
	c22.9,0,41.5-18.6,41.5-41.5V157.4C136.6,134.5,118,116,95.1,116z"/>
<path class="st2" d="M261.2,116h-4.5c3.8,6.3,6,13.6,6,21.4v233.2c0,22.9-18.6,41.5-41.5,41.5h-35.5c7.3,12,20.4,20,35.5,20h40
	c22.9,0,41.5-18.6,41.5-41.5V157.4C302.6,134.5,284.1,116,261.2,116L261.2,116z"/>
<g>
	<path class="st1" d="M288.7,116h-95.1c-2.9,0-5.2-2.3-5.2-5.2V90.6c0-2.9,2.3-5.2,5.2-5.2h95.1c2.9,0,5.2,2.3,5.2,5.2v20.2
		C293.9,113.6,291.6,116,288.7,116z"/>
	<path class="st1" d="M501.9,457.1H10.1c-5.6,0-10.1,4.6-10.1,10.1v26.4c0,4.6,3.8,8.4,8.4,8.4h495.3c4.6,0,8.4-3.8,8.4-8.4v-26.4
		C512,461.6,507.4,457.1,501.9,457.1L501.9,457.1z"/>
	<path class="st1" d="M489.9,361.6H338.4c-6.6,0-12,5.4-12,12v83.5h175.4v-83.5C501.9,366.9,496.5,361.6,489.9,361.6L489.9,361.6z"
		/>
</g>
<path class="st3" d="M489.9,361.6h-28v35.7c0,21.9-17.8,39.7-39.7,39.7h-95.7v20h175.4v-83.5C501.9,366.9,496.5,361.6,489.9,361.6
	L489.9,361.6z"/>
<path class="st4" d="M60.3,432.1H90v25H60.3V432.1z"/>
<path class="st4" d="M226.3,432.1H256v25h-29.7V432.1z"/>
<path class="st4" d="M253.7,85.3h-25V59.9c0-11-8.9-19.9-19.9-19.9H107.6c-11,0-19.9,8.9-19.9,19.9v25.4h-25V59.9
	c0-24.8,20.2-44.9,44.9-44.9h101.1c24.8,0,44.9,20.2,44.9,44.9L253.7,85.3L253.7,85.3z"/>
<path class="st5" d="M400,391.6h-42.2c-0.8,0-1.4,0.6-1.4,1.4v32.6c0,0.8,0.6,1.4,1.4,1.4H400c0.8,0,1.4-0.6,1.4-1.4V393
	C401.5,392.2,400.8,391.6,400,391.6z"/>
<path class="st5" d="M426.8,393v32.6c0,0.8,0.6,1.4,1.4,1.4h42.2c0.8,0,1.4-0.6,1.4-1.4V393c0-0.8-0.6-1.4-1.4-1.4h-42.2
	C427.5,391.6,426.8,392.2,426.8,393z"/>
<path class="st6" d="M470.4,427.1c0.8,0,1.4-0.6,1.4-1.4V393c0-0.8-0.6-1.4-1.4-1.4h-8.6v5.7c0,11.8-5.2,22.5-13.4,29.7L470.4,427.1
	L470.4,427.1z"/>
<path class="st4" d="M369.9,361.6h-25V216.1c0-9.8-8-17.7-17.7-17.7h-24.6v-25h24.6c23.6,0,42.7,19.2,42.7,42.7V361.6z"/>
<path class="st4" d="M136.6,349.3h43.1v25.3h-43.1L136.6,349.3z"/>
<path class="st4" d="M136.6,173.4h43.1v25.3h-43.1L136.6,173.4z"/>
<path class="st7" d="M484.8,93.2h-83.6c-1.7,0-3.1-1.4-3.1-3.1V70.5c0-1.7,1.4-3.1,3.1-3.1h83.6c1.7,0,3.1,1.4,3.1,3.1v19.6
	C487.9,91.8,486.5,93.2,484.8,93.2z"/>
<path class="st8" d="M471.9,39.1c0-1.7-1.4-3.2-3.2-3.2h-51.4c-1.7,0-3.2,1.4-3.2,3.2v28.4h57.7L471.9,39.1L471.9,39.1z"/>
<path class="st9" d="M468.7,35.9h-30c1.7,0,3.2,1.4,3.2,3.2v28.4h30V39.1C471.9,37.3,470.4,35.9,468.7,35.9z"/>
<path class="st8" d="M414.1,275.7h57.7v85.9h-57.7V275.7z"/>
<path class="st9" d="M441.9,275.7V324c0,9.7-7.9,17.6-17.6,17.6h-10.1v20h57.7v-85.9L441.9,275.7z"/>
<path class="st8" d="M414.1,93.2h57.7v55.5h-57.7V93.2z"/>
<path class="st8" d="M414.1,191h57.7v42.3h-57.7V191z"/>
<path class="st10" d="M414.1,148.7h57.7V191h-57.7V148.7z"/>
<path class="st9" d="M441.9,93.2h30v55.5h-30V93.2z"/>
<path class="st9" d="M441.9,191h30v42.3h-30V191z"/>
<path class="st3" d="M441.9,148.7h30V191h-30V148.7z"/>
<path class="st10" d="M414.1,233.3h57.7v42.3h-57.7V233.3z"/>
<path class="st3" d="M441.9,233.3h30v42.3h-30V233.3z"/>
<path class="st11" d="M309.4,251.5H172.9c-4.1,0-7.5-3.4-7.5-7.5s3.4-7.5,7.5-7.5h136.6c4.1,0,7.5,3.4,7.5,7.5
	S313.6,251.5,309.4,251.5z M316.9,274c0-4.1-3.4-7.5-7.5-7.5H172.9c-4.1,0-7.5,3.4-7.5,7.5s3.4,7.5,7.5,7.5h136.6
	C313.6,281.5,316.9,278.2,316.9,274z M316.9,304c0-4.1-3.4-7.5-7.5-7.5H172.9c-4.1,0-7.5,3.4-7.5,7.5s3.4,7.5,7.5,7.5h136.6
	C313.6,311.5,316.9,308.2,316.9,304z M151.6,244c0-4.1-3.4-7.5-7.5-7.5H7.5c-4.1,0-7.5,3.4-7.5,7.5s3.4,7.5,7.5,7.5h136.6
	C148.2,251.5,151.6,248.2,151.6,244z M151.6,274c0-4.1-3.4-7.5-7.5-7.5H7.5c-4.1,0-7.5,3.4-7.5,7.5s3.4,7.5,7.5,7.5h136.6
	C148.2,281.5,151.6,278.2,151.6,274z M151.6,304c0-4.1-3.4-7.5-7.5-7.5H7.5c-4.1,0-7.5,3.4-7.5,7.5s3.4,7.5,7.5,7.5h136.6
	C148.2,311.5,151.6,308.2,151.6,304z"/>
<path class="st12" d="M309.4,311.5h-46.8v-15h46.8c4.1,0,7.5,3.4,7.5,7.5S313.6,311.5,309.4,311.5z M316.9,274
	c0-4.1-3.4-7.5-7.5-7.5h-46.8v15h46.8C313.6,281.5,316.9,278.2,316.9,274z M309.4,236.5h-46.8v15h46.8c4.1,0,7.5-3.4,7.5-7.5
	S313.6,236.5,309.4,236.5z M144.1,236.5H96.6v15h47.5c4.1,0,7.5-3.4,7.5-7.5S148.2,236.5,144.1,236.5z M151.6,304
	c0-4.1-3.4-7.5-7.5-7.5H96.6v15h47.5C148.2,311.5,151.6,308.2,151.6,304z M151.6,274c0-4.1-3.4-7.5-7.5-7.5H96.6v15h47.5
	C148.2,281.5,151.6,278.2,151.6,274z"/>
</svg>
