<?xml version="1.0" encoding="utf-8"?>
<!-- Generator: Adobe Illustrator 21.0.2, SVG Export Plug-In . SVG Version: 6.00 Build 0)  -->
<svg version="1.1" id="Layer_1" xmlns="http://www.w3.org/2000/svg" xmlns:xlink="http://www.w3.org/1999/xlink" x="0px" y="0px"
	 viewBox="0 0 512 512" style="enable-background:new 0 0 512 512;" xml:space="preserve">
<style type="text/css">
	.st0{fill:#707487;}
	.st1{fill:#959CB3;}
	.st2{fill:#73798B;}
	.st3{fill:#505362;}
	.st4{fill:#797F92;}
	.st5{fill:#5B5D6E;}
	.st6{fill:#959CB2;}
	.st7{fill:#464655;}
	.st8{fill:#7D8497;}
</style>
<path class="st0" d="M485.5,512H344.3c-9.8,0-17.7-7.9-17.7-17.7V459h176.6v35.3C503.2,504.1,495.3,512,485.5,512z"/>
<polygon class="st1" points="503.2,459 326.6,459 344.3,211.9 485.5,211.9 "/>
<polygon class="st2" points="487.4,238.3 485.5,211.9 344.3,211.9 326.6,459 397.2,459 405.4,238.3 "/>
<path class="st3" d="M397.2,494.3V459h-70.6v35.3c0,9.8,7.9,17.7,17.7,17.7h70.6C405.1,512,397.2,504.1,397.2,494.3z"/>
<path class="st0" d="M167.7,512H26.5c-9.8,0-17.7-7.9-17.7-17.7V459h176.6v35.3C185.4,504.1,177.5,512,167.7,512z"/>
<polygon class="st1" points="185.4,459 8.8,459 26.5,211.9 167.7,211.9 "/>
<polygon class="st2" points="169.6,238.3 167.7,211.9 26.5,211.9 8.8,459 79.4,459 87.6,238.3 "/>
<path class="st3" d="M79.4,494.3V459H8.8v35.3c0,9.8,7.9,17.7,17.7,17.7h70.6C87.4,512,79.4,504.1,79.4,494.3z"/>
<rect x="335.4" y="17.7" class="st1" width="79.4" height="53"/>
<rect x="335.4" y="17.7" class="st4" width="26.5" height="53"/>
<path class="st0" d="M414.9,26.5h-79.4c-4.9,0-8.8-4-8.8-8.8V8.8c0-4.9,4-8.8,8.8-8.8h79.4c4.9,0,8.8,4,8.8,8.8v8.8
	C423.7,22.5,419.8,26.5,414.9,26.5z"/>
<path class="st5" d="M353.1,17.7V8.8c0-4.9,4-8.8,8.8-8.8h-26.5c-4.9,0-8.8,4-8.8,8.8v8.8c0,4.9,4,8.8,8.8,8.8h26.5
	C357.1,26.5,353.1,22.5,353.1,17.7z"/>
<rect x="97.1" y="17.7" class="st1" width="79.4" height="53"/>
<rect x="97.1" y="17.7" class="st4" width="26.5" height="53"/>
<path class="st6" d="M484.5,220.7h-457c-10.1,0-18.2-8.5-17.6-18.6l6.4-115.2c0.8-14,12.4-25,26.4-25h161.8c4.7,0,9.2,1.9,12.5,5.2
	l7.3,7.3c3.3,3.3,7.8,5.2,12.5,5.2h38.3c4.7,0,9.2-1.9,12.5-5.2L295,67c3.3-3.3,7.8-5.2,12.5-5.2h161.8c14.1,0,25.7,11,26.4,25
	l6.4,115.2C502.7,212.2,494.6,220.7,484.5,220.7z"/>
<path class="st1" d="M300.1,185.4h-88.3c-4.9,0-8.8-4-8.8-8.8v-70.6c0-4.9,4-8.8,8.8-8.8h88.3c4.9,0,8.8,4,8.8,8.8v70.6
	C309,181.4,305,185.4,300.1,185.4z"/>
<path class="st7" d="M264.8,229.5h-17.7c-4.9,0-8.8-4-8.8-8.8V61.8c0-4.9,4-8.8,8.8-8.8h17.7c4.9,0,8.8,4,8.8,8.8v158.9
	C273.7,225.6,269.7,229.5,264.8,229.5z"/>
<g>
	<path class="st0" d="M273.7,185.4h-35.3c-4.9,0-8.8-4-8.8-8.8v-70.6c0-4.9,4-8.8,8.8-8.8h35.3c4.9,0,8.8,4,8.8,8.8v70.6
		C282.5,181.4,278.5,185.4,273.7,185.4z"/>
	<path class="st0" d="M176.6,26.5H97.1c-4.9,0-8.8-4-8.8-8.8V8.8c0-4.9,4-8.8,8.8-8.8h79.4c4.9,0,8.8,4,8.8,8.8v8.8
		C185.4,22.5,181.4,26.5,176.6,26.5z"/>
</g>
<path class="st5" d="M114.8,17.7V8.8c0-4.9,4-8.8,8.8-8.8H97.1c-4.9,0-8.8,4-8.8,8.8v8.8c0,4.9,4,8.8,8.8,8.8h26.5
	C118.7,26.5,114.8,22.5,114.8,17.7z"/>
<path class="st0" d="M273.7,61.8h-35.3c-4.9,0-8.8-4-8.8-8.8l0,0c0-4.9,4-8.8,8.8-8.8h35.3c4.9,0,8.8,4,8.8,8.8l0,0
	C282.5,57.8,278.5,61.8,273.7,61.8z"/>
<g>
	<path class="st5" d="M247.2,176.6v-70.6c0-4.9,4-8.8,8.8-8.8h-17.7c-4.9,0-8.8,4-8.8,8.8v70.6c0,4.9,4,8.8,8.8,8.8H256
		C251.1,185.4,247.2,181.4,247.2,176.6z"/>
	<path class="st5" d="M247.2,53c0-4.9,4-8.8,8.8-8.8h-17.7c-4.9,0-8.8,4-8.8,8.8s4,8.8,8.8,8.8H256C251.1,61.8,247.2,57.8,247.2,53z
		"/>
</g>
<path class="st0" d="M273.7,229.5h-35.3c-4.9,0-8.8-4-8.8-8.8l0,0c0-4.9,4-8.8,8.8-8.8h35.3c4.9,0,8.8,4,8.8,8.8l0,0
	C282.5,225.6,278.5,229.5,273.7,229.5z"/>
<path class="st5" d="M247.2,220.7c0-4.9,4-8.8,8.8-8.8h-17.7c-4.9,0-8.8,4-8.8,8.8s4,8.8,8.8,8.8H256
	C251.1,229.5,247.2,225.6,247.2,220.7z"/>
<path class="st8" d="M81.5,202.1l6.4-115.2c0.8-14,12.4-25,26.4-25H42.7c-14.1,0-25.7,11-26.4,25L9.9,202.1
	c-0.6,10.1,7.5,18.6,17.6,18.6h71.6C89,220.7,80.9,212.2,81.5,202.1z"/>
</svg>
