<?xml version="1.0" encoding="utf-8"?>
<!-- Generator: Adobe Illustrator 21.0.2, SVG Export Plug-In . SVG Version: 6.00 Build 0)  -->
<svg version="1.1" id="Layer_1" xmlns="http://www.w3.org/2000/svg" xmlns:xlink="http://www.w3.org/1999/xlink" x="0px" y="0px"
	 viewBox="0 0 512 512" style="enable-background:new 0 0 512 512;" xml:space="preserve">
<style type="text/css">
	.st0{fill:#EEC8AD;}
	.st1{fill:#009DD1;}
	.st2{fill:#E1B597;}
	.st3{fill:#E2E4E6;}
	.st4{fill:#576D7E;}
	.st5{fill:#3F556B;}
	.st6{fill:#D0D7DA;}
	.st7{fill:#7B9BB1;}
	.st8{fill:#FDDBC5;}
	.st9{fill:#FFFFFF;}
</style>
<g>
	<path class="st0" d="M396.2,199.8l-73-45.6c-21-13.1-47.9-12-67.7,2.9V87.6c0-19.2-16.5-34.6-36.1-32.7
		c-17.1,1.6-29.6,15.5-29.6,32.7v164.3c0,0-47.3-36.4-56.8-41.8c-15.8-9-35-11.4-47.9,1.4c-12.8,12.8-14.2,26.8-1.4,39.7
		c3.5,3.5,84.8,99.4,127.6,140.4h170.7c2.7-5.3,6.8-9.7,12.4-16.4l9.5-11.4c10.2-12.2,15.8-21.9,15.8-37.9v-83.4
		C419.8,225.1,410.9,209,396.2,199.8z"/>
	<path class="st1" d="M222.7,38.4L222.7,38.4c-4.5,0-8.2-3.7-8.2-8.2V13.7c0-4.5,3.7-8.2,8.2-8.2l0,0c4.5,0,8.2,3.7,8.2,8.2v16.4
		C230.9,34.7,227.3,38.4,222.7,38.4z"/>
	<path class="st1" d="M272,87.6L272,87.6c0-4.5,3.7-8.2,8.2-8.2h16.4c4.5,0,8.2,3.7,8.2,8.2l0,0c0,4.5-3.7,8.2-8.2,8.2h-16.4
		C275.7,95.8,272,92.2,272,87.6z"/>
	<path class="st1" d="M140.6,87.6L140.6,87.6c0-4.5,3.7-8.2,8.2-8.2h16.4c4.5,0,8.2,3.7,8.2,8.2l0,0c0,4.5-3.7,8.2-8.2,8.2h-16.4
		C144.3,95.8,140.6,92.2,140.6,87.6z"/>
	<path class="st1" d="M164.6,29.6L164.6,29.6c3.2-3.2,8.4-3.2,11.6,0l11.6,11.6c3.2,3.2,3.2,8.4,0,11.6l0,0c-3.2,3.2-8.4,3.2-11.6,0
		l-11.6-11.6C161.4,38,161.4,32.8,164.6,29.6z"/>
	<path class="st1" d="M257.6,52.8L257.6,52.8c-3.2-3.2-3.2-8.4,0-11.6l11.6-11.6c3.2-3.2,8.4-3.2,11.6,0l0,0c3.2,3.2,3.2,8.4,0,11.6
		l-11.6,11.6C266,56,260.8,56,257.6,52.8z"/>
	<path class="st2" d="M243.9,192.3l11.7,15.6V91.7c0-6.8-5.5-12.3-12.3-12.3l0,0c-6.8,0-12.3,5.5-12.3,12.3v61.6
		C230.9,167.4,235.5,181,243.9,192.3z"/>
	<g>
		<path class="st3" d="M206.3,391.5H387c9.1,0,16.4,7.4,16.4,16.4v32.9H189.9v-32.9C189.9,398.9,197.2,391.5,206.3,391.5z"/>
	</g>
	<path class="st2" d="M211.4,391.5h88.9c-5.7-9.8-16.2-16.4-28.3-16.4h-11.9c-20.5,0-40.3-8-54.8-22.4
		C173.3,321,122.9,263.5,97.4,234c-9-10.4-25.3,2.6-16.8,13.5c0.9,1.2,2,2.4,3.2,3.6C87.4,254.7,168.7,350.6,211.4,391.5z"/>
	<g>
		<path class="st4" d="M189.9,440.8h213.5c9.1,0,16.4,7.4,16.4,16.4v49.3H173.4v-49.3C173.4,448.1,180.8,440.8,189.9,440.8z"/>
	</g>
	<path class="st5" d="M272,490.1h-98.6v16.4h115h131.4v-49.3h-115c-9.1,0-16.4,7.4-16.4,16.4l0,0C288.4,482.7,281.1,490.1,272,490.1
		z"/>
	<path class="st6" d="M206.3,424.4H272c9.1,0,16.4-7.4,16.4-16.4c0-9.1,7.4-16.4,16.4-16.4h73.9h8.2c9.1,0,16.4,7.4,16.4,16.4v32.9
		h-24.6h-49.3h-41.1h-98.6C189.9,431.7,197.2,424.4,206.3,424.4z"/>
	<circle class="st7" cx="370.6" cy="416.2" r="8.2"/>
	<path class="st8" d="M230.9,112.3h-16.4c-4.5,0-8.2-3.7-8.2-8.2V87.6c0-9.1,7.4-16.4,16.4-16.4l0,0c9.1,0,16.4,7.4,16.4,16.4v16.4
		C239.1,108.6,235.5,112.3,230.9,112.3z"/>
	<path class="st9" d="M222.7,104.1c-6.5,0-12.1,1.9-14.8,4.7c1.5,2.1,3.8,3.5,6.6,3.5h16.4c2.8,0,5.1-1.4,6.6-3.5
		C234.9,106,229.3,104.1,222.7,104.1z"/>
	<path class="st0" d="M239.1,104.1V87.6c0-2.4-0.6-4.7-1.5-6.8c-4,2-6.7,6.1-6.7,10.9v20.5C235.5,112.3,239.1,108.6,239.1,104.1z"/>
	<path class="st8" d="M237.5,108.7c-1.4-1.5-3.7-2.7-6.6-3.5v7.1C233.7,112.3,236,110.8,237.5,108.7z"/>
</g>
</svg>
