<?xml version="1.0" encoding="utf-8"?>
<!-- Generator: Adobe Illustrator 21.0.2, SVG Export Plug-In . SVG Version: 6.00 Build 0)  -->
<svg version="1.1" id="Layer_1" xmlns="http://www.w3.org/2000/svg" xmlns:xlink="http://www.w3.org/1999/xlink" x="0px" y="0px"
	 viewBox="0 0 512 512" style="enable-background:new 0 0 512 512;" xml:space="preserve">
<style type="text/css">
	.st0{fill:#35495C;}
	.st1{fill:#50BEE7;}
	.st2{fill:#009FC4;}
	.st3{fill-rule:evenodd;clip-rule:evenodd;fill:#B6D677;}
	.st4{fill-rule:evenodd;clip-rule:evenodd;fill:#83BD5A;}
	.st5{fill:#83BD5A;}
	.st6{fill:#113247;}
</style>
<g>
	<path class="st0" d="M399.3,55.7l24.8-24.8c6.2-6.2,6.2-16.2,0-22.3c-6.2-6.2-16.2-6.2-22.3,0l-71.1,71.1c-6.2,6.2-6.2,16.2,0,22.3
		c3.1,3.1,7.1,4.6,11.2,4.6s8.1-1.5,11.2-4.6l23.8-23.8c60.7,68.2,58.6,172.6-6.8,238.1c-65.4,65.4-169.9,67.6-238.1,6.8l23.8-23.8
		c6.2-6.2,6.2-16.2,0-22.3c-6.2-6.2-16.2-6.2-22.3,0l-71.1,71.1c-6.2,6.2-6.2,16.2,0,22.3c3.1,3.1,7.1,4.6,11.2,4.6
		c4,0,8.1-1.5,11.2-4.6l24.8-24.8c34.9,31.6,78,49.1,122,52.4v79.6h31.6v-79.6c47.2-3.6,93.3-23.4,129.4-59.5
		C470,260.9,472.4,136.3,399.3,55.7z"/>
	<path class="st0" d="M168.2,501.4c0,4.3,3.6,7.9,7.9,7.9h142.1c4.3,0,7.9-3.6,7.9-7.9v-7.9c0-4.3-3.3-9.1-7.4-10.7
		c0,0-51.4-20.9-55.8-20.9h-31.6c-4.3,0-55.8,20.9-55.8,20.9c-4.1,1.5-7.4,6.3-7.4,10.7V501.4z"/>
	<path class="st1" d="M105,193.5c0,78.5,63.6,142.1,142.1,142.1c78.5,0,142.2-63.6,142.1-142.1c0-78.5-63.6-142.2-142.1-142.2
		S105,115,105,193.5z"/>
	<path class="st2" d="M330.5,78.5c17,23.4,27.2,52.2,27.2,83.4c0,78.5-63.6,142.1-142.1,142.1c-31.2,0-59.9-10.2-83.4-27.2
		c25.8,35.6,67.6,58.8,115,58.8c78.5,0,142.2-63.6,142.1-142.1C389.2,146.2,366,104.4,330.5,78.5z"/>
	<path class="st3" d="M363.1,162.7c0,0,7.4-4.3,12.1-7.9c2.8,1,5.2,14.1,4.9,27.5c-20.8,12-30.1,0.7-30.1,0.7s-8.3-8.7-1-14.1
		L363.1,162.7z"/>
	<path class="st4" d="M380.1,182.4c0.3-13.4-2.1-26.5-4.9-27.5c-4.7,3.6-12.1,7.9-12.1,7.9l-5.6,2.5c-0.2,7.3-0.9,14.4-2.1,21.3
		C360.2,188.4,368.3,189.2,380.1,182.4z"/>
	<path class="st3" d="M330.2,149.8c3-1,6.4,0.5,9.8,2c3.4,1.5-4.4,4.4-7.8,6.9c-3.4,2.5-5.4,3.4-5.4,10.3c0,6.9-7.4-5.4-7.9-9.8
		C318.4,154.7,330.2,149.8,330.2,149.8z"/>
	<path class="st3" d="M190.1,201.1c-2.9,2-13.5,3.2-19.3,5.2c-5.9,2-8.3,2.5-12.8,2c-4.4-0.5-9.3,1.5-9.3,1.5l-7.7,9
		c0,0-2.9,7.8-3.9,11.8c-1,3.9-18.6,12.8-18.6,12.8c-3.4-5.1-6.4-10.3-3.9-15.7c2.5-5.4,0.3-7.5,5.2-11.5c4.9-3.9,2.9-16.7,3.9-20.6
		c1-3.9,2.5-9.3,4.9-11.8c2.5-2.5,0.5-11.3,0.5-11.3s-5.4-14.2-4.9-17.7c0.5-3.4,7.4-13.3,10.3-17.2c3-3.9,13.7-10.8,13.7-10.8
		s6.9,1,6.9-3.9c0-4.9,5.9-11.8,5.9-11.8l0.5-9.3c0,0,1.5-8.4,3.4-11.3c2-2.9,3.9-3.9,6.9-5.9c2.9-2,5.9-7.8,8.3-10.3
		c63.3-26.6,104.5-6.4,104.5-6.4l-7.9,12.8c0,0-6.9-3.9-8.8-7.8c-2-3.9-3.4-5.4-3.4-5.4l-9.3,1.5c0,0-4.9,2-7.4,3.4
		c-2.5,1.5-3.9,5.9-3.9,5.9s6.4,7.4,8.3,5.4c2-2,2-3.9,2-3.9l2.5-4.4c0,0,6.9,2,17.7,14.7c10.8,12.8-2,16.7,1,23.6
		c2.9,6.9-12.8,4.9-18.6,6.9c-5.9,2,0-9.8,0-9.8s6.4-0.5,2.5-6.4c-3.9-5.9-11.3-0.5-8.3,1.5c2.9,2,0,5.9-2.9,7.8
		c-2.9,2-5.9,4.9-13.7,7.9c-7.9,2.9-17.2-6.4-17.2-6.4s-1,3.9-2.5,8.3c-1.5,4.4-10.3,9.3-12.3,11.3c-2,2-2.5-9.3,1.5-15.2
		c3.9-5.9-0.8-7-3.3-8.5c-2.5-1.5-10.3-6.4-8.8-9.8c1.5-3.4-14.4-5.2-18.3-6.2c-3.9-1-6.9,3.9-1,5.9c5.9,2,7.8,6.9,2.9,9.8
		c-4.9,2.9-6.4-3.4-8.3-0.5c-2,2.9-0.5,9.3-2.9,13.7c-2.5,4.4,11.8,8.8,16.2,10.3c4.4,1.5,14.2,8.3,11.3,13.2
		c-2.9,4.9,4.6,19.4,7.1,23.8c2.5,4.4,8.8,11.8,8.8,19.6C207.3,198.6,193,199.1,190.1,201.1z"/>
	<path class="st3" d="M325.3,106.6c-5.4,4.4-21.3,3.3-22.3,6.2c-1,2.9-16.5,17.8-16,3.6c0.5-14.2,3.9-31.4,9.3-35.8
		c1.1-0.9,2.7-2.3,4.6-3.9c20.1,0.7,41.6,26.2,40.6,29.8C333.7,108.4,330.7,102.2,325.3,106.6z"/>
	<path class="st3" d="M307.7,146.9c1-3.9,7.4-0.5,7.4-0.5c5.4,8.4-2.1,10.6-4.6,12.1C308,160,306.7,150.8,307.7,146.9z"/>
	<path class="st3" d="M326.6,283c0,0-1.8,9.4,3.9,14.4C286,334.9,225.4,327,225.4,327c0-10.5,7.2-12.4,7.2-12.4l11-4.7l14.1-12.4
		c0,0,12.1-15.4-7.6-22c-17.7-10.5-13.5-2.9-28.7-16.1c-15.2-13.3,18.9-36.5,18.9-36.5c11-12.6,10.1-7.5,19.3-16.7
		c9.2-9.2,34,26.2,34,26.2c6.5,32.7,25.2,19.3,25.2,19.3l19.6,9.2l7.9-5.2l1.3-17l-6.5-17c0,0-8.8-2-11.8,11.8
		c0,0-11.3,7.7-13.3,0.8l2.8-27c0,0-11.1,2.9-21.6,0.3c-10.5-2.6-17.5-17.8-17.5-17.8s7.5-14.7,17.8-11.3l10.3,10
		c0,0,3.6-7.8,10.1-11.8c6.5-3.9,4.9,3.6,14.1,4.9c9.2,1.3,1.2,16.5,10.3,23.1c9.2,6.5,6.6,1.3,14.4,3.9c7.8,2.6,3.9,14.4,3.9,14.4
		l9.2,11.8c0,0,11.2-24.6,11.2-29.4c-0.2-0.3-0.5-0.6-0.8-0.7c0.5-0.3,0.8,0,0.8,0.7c5,7.2-10,64.3-37.8,79.7
		c-1.2-3.1-2.2-5.8-2.2-5.8L327.9,266L326.6,283z"/>
	<g>
		<path class="st5" d="M380.3,204.5c0.3,0.1,0.5,0.4,0.8,0.7C381.1,204.4,380.8,204.2,380.3,204.5z"/>
		<path class="st5" d="M381,205.2c0,4.8-11.2,29.4-11.2,29.4l-9.2-11.8c0,0,3.9-11.8-3.9-14.4c-4-1.3-5.3-0.6-6.8-0.5
			c-2.1,6-4.5,11.9-7.4,17.5l5,13.1l-1.3,17l-7.9,5.2l-14.7-6.8c-17.3,20.4-40.3,35.8-66.5,43.9l-13.7,12.1l-11,4.7
			c0,0-7.2,2-7.2,12.4c0,0,60.6,7.9,105.2-29.6c-5.7-5-3.9-14.4-3.9-14.4l1.3-17l13.1,13.1c0,0,1,2.6,2.2,5.8
			C371,269.4,386,212.4,381,205.2z"/>
	</g>
	<path class="st6" d="M325.9,492.7c-0.4-4.1-3.4-8.4-7.2-9.8c0,0-51.4-20.9-55.8-20.9v-63.2h-15.8c-5.3,0-10.6-0.3-15.8-0.7v15.8
		c0.3,0,0.6,0,1,0.1c8.3,0.6,14.8,7.4,14.8,15.7v32.2v23.7c0,8.7-7.1,15.8-15.8,15.8h-63.2c0,4.3,3.6,7.9,7.9,7.9h142.1
		c4.3,0,7.9-3.6,7.9-7.9v-7.9C326.1,493.2,325.9,492.9,325.9,492.7z"/>
</g>
</svg>
