<?xml version="1.0" encoding="utf-8"?>
<!-- Generator: Adobe Illustrator 21.0.2, SVG Export Plug-In . SVG Version: 6.00 Build 0)  -->
<svg version="1.1" id="Layer_1" xmlns="http://www.w3.org/2000/svg" xmlns:xlink="http://www.w3.org/1999/xlink" x="0px" y="0px"
	 viewBox="0 0 512 512" style="enable-background:new 0 0 512 512;" xml:space="preserve">
<style type="text/css">
	.st0{fill:#E2E4E6;}
	.st1{fill:#C9D1D7;}
	.st2{fill:#EEC8AD;}
	.st3{fill:#E1B597;}
	.st4{fill:#113247;}
	.st5{fill:#7D4B22;}
	.st6{fill:#8A5428;}
	.st7{fill:#FFFFFF;}
	.st8{fill:#F05642;}
	.st9{fill:#D2463C;}
</style>
<g>
	<path class="st0" d="M306.1,274.3c-6.3-1.1-27.7-1.7-49.1-1.7c-21.4,0-42.8,0.5-49.1,1.7c-73.7,13.4-114.6,60.3-114.6,131v89
		c0,9,7.7,16.4,17.2,16.4H257h146.5c9.5,0,17.2-7.3,17.2-16.4v-89C420.7,334.6,379.7,287.6,306.1,274.3z"/>
	<path class="st1" d="M314.1,276c-1.7,25.8-26.6,30-57.1,30v163.7c0,13.6-11,24.6-24.6,24.6H93.3c0,9,7.7,16.4,17.2,16.4h292.9
		c9.5,0,17.2-7.3,17.2-16.4v-89C420.7,337.2,382.6,291.3,314.1,276z"/>
	<path class="st2" d="M306.1,52.3c0,0-146.1,26.5-144.5,49.1c0.4,5.3,0.8,10.8,1.2,16.4c-6.7,0.1-12.2,9.2-12.2,20.4
		c0,11.3,5.5,20.5,12.3,20.5c1,0,1.9-0.2,2.8-0.6c0.5,6.6,0.9,12.4,1.3,17c2.1,26.9,16.9,45.1,40.9,57.3v25.1c0,5.7-1.7,11.4-5.2,16
		c-1.1,1.4-10.3,7.9-11.1,8.1c1.7,25.8,34.9,24.6,65.5,24.6c30.6,0,63.8,1.3,65.5-24.6c-0.8-0.2-10-6.7-11.1-8.1
		c-3.5-4.5-5.2-10.2-5.2-16v-25.1c24-12.2,38.8-30.4,40.9-57.3c1.6-19.8,4.6-62.7,6.5-90C354.5,70.6,306.1,52.3,306.1,52.3z"/>
	<path class="st3" d="M351.2,117.8c0.4-6,0.8-11.9,1.2-17.5c-22.8-4.9-33.9-24.9-46.3-39.8C297,69,278.6,78.2,257,86.3v0
		c-30.3,11.3-67.1,20.6-94.8,22.7c0.2,2.7,0.4,5.4,0.6,8.1c24.5-2,55.8-9.4,83.5-18.8c5.3-1.8,10.8,2.2,10.8,7.8v68.9h-24.6
		l24.6,16.4v38.5c0,10.8,10.4,18.9,20.7,15.8c-6,1.9-12.5,3-20.7,3c-20.5,0-30.4-6.8-49.1-16.4v8.2c14.1,7.2,23.1,12.8,35.4,15.2
		c7.8,1.5,13.7,8,13.7,16v17.7c0,20.2,23.4,32.3,39.2,19.7c10.5-8.4,25.5-14.6,26.3-27.7c-0.8-0.2-10-6.7-11.1-8.1
		c-3.5-4.5-5.2-10.2-5.2-16v-16.9v-8.2c24-12.2,38.8-30.4,40.9-57.3c0.4-4.6,0.8-10.4,1.3-17c0.9,0.4,1.8,0.6,2.8,0.6
		c6.8,0,12.3-9.2,12.3-20.5C363.4,127,357.9,117.9,351.2,117.8z"/>
	<g>
		<circle class="st4" cx="224.2" cy="134.1" r="16.4"/>
	</g>
	<g>
		<circle class="st4" cx="289.7" cy="134.1" r="16.4"/>
	</g>
	<g>
		<path class="st0" d="M289.7,130c0,2.3-1.8,4.1-4.1,4.1c-2.3,0-4.1-1.8-4.1-4.1c0-2.3,1.8-4.1,4.1-4.1
			C287.9,125.9,289.7,127.8,289.7,130z"/>
	</g>
	<g>
		<path class="st0" d="M224.2,130c0,2.3-1.8,4.1-4.1,4.1c-2.3,0-4.1-1.8-4.1-4.1c0-2.3,1.8-4.1,4.1-4.1
			C222.4,125.9,224.2,127.8,224.2,130z"/>
	</g>
	<path class="st5" d="M302,109.6h-24.6c-2.3,0-4.1-1.8-4.1-4.1l0,0c0-2.3,1.8-4.1,4.1-4.1H302c2.3,0,4.1,1.8,4.1,4.1l0,0
		C306.1,107.7,304.2,109.6,302,109.6z"/>
	<path class="st6" d="M236.5,109.6h-24.6c-2.3,0-4.1-1.8-4.1-4.1l0,0c0-2.3,1.8-4.1,4.1-4.1h24.6c2.3,0,4.1,1.8,4.1,4.1l0,0
		C240.6,107.7,238.8,109.6,236.5,109.6z"/>
	<g>
		<path class="st7" d="M296.6,193.7c-1.3-1.5-3.4-2.3-5.6-2.3h-68.2c-2.2,0-4.3,0.9-5.6,2.3c-1.3,1.4-1.6,3.3-0.8,5
			c6.9,15.5,22.8,25.4,40.5,25.4c17.7,0,33.6-10,40.5-25.4C298.2,197,297.9,195.2,296.6,193.7z"/>
	</g>
	<path class="st0" d="M291.1,191.4h-68.2c-2.2,0-4.3,0.9-5.6,2.3c-1.3,1.4-1.6,3.3-0.8,5c0.1,0.3,0.3,0.6,0.5,0.9H297
		c0.1-0.3,0.3-0.6,0.5-0.9c0.7-1.7,0.4-3.5-0.8-5C295.4,192.3,293.3,191.4,291.1,191.4z"/>
	<path class="st6" d="M150.6,85v24.6c46.1,0,131.9-27,155.5-49.1c14.3,17.1,26.7,40.9,57.3,40.9V76.8c0-45.2-36.6-73.7-81.8-73.7
		h-49.1C187.2,3.2,150.6,39.8,150.6,85z"/>
	<path class="st5" d="M306.1,30.8v29.6c14.3,17.1,26.7,40.9,57.3,40.9V76.8c0-26.4-12.5-47.1-31.9-59.7
		C320.5,10,306.1,17.8,306.1,30.8z"/>
	<path class="st1" d="M234.9,333.6c-5.8,7.3-16.5,8.2-23.6,2.1l-46.7-40.8l44.4,51.1c7.4,8.5,21,7.2,26.6-2.6l16.6-29.1l4.7-8.2
		L234.9,333.6z"/>
	<polyline class="st8" points="257,338.7 248.8,338.7 232.4,306 281.5,306 265.1,338.7 257,338.7 	"/>
	<polygon class="st9" points="252.3,314.2 257,306 241.8,324.9 243.9,328.9 	"/>
	<polygon class="st8" points="281.5,469.7 257,494.3 232.4,469.7 248.8,338.7 265.1,338.7 	"/>
	<polygon class="st9" points="257,338.7 265.1,338.7 281.5,306 257,306 	"/>
	<path class="st0" d="M211.3,335.7l-52.6-46l32.7-16.4L257,306l-22.1,27.6C229.1,340.9,218.4,341.8,211.3,335.7z"/>
	<path class="st0" d="M302.6,335.7l52.6-46l-32.7-16.4L257,306l22.1,27.6C284.8,340.9,295.6,341.8,302.6,335.7z"/>
	<path class="st9" d="M281.5,469.7l-16.4-131H257h-8.2l-0.9,8.2h0.9c4.5,0,8.2,3.7,8.2,8.2v139.1L281.5,469.7z"/>
	<rect x="314.3" y="379.7" class="st0" width="65.5" height="40.9"/>
	<rect x="314.3" y="379.7" class="st8" width="65.5" height="8.2"/>
</g>
</svg>
