<?xml version="1.0" encoding="utf-8"?>
<!-- Generator: Adobe Illustrator 21.0.2, SVG Export Plug-In . SVG Version: 6.00 Build 0)  -->
<svg version="1.1" id="Layer_1" xmlns="http://www.w3.org/2000/svg" xmlns:xlink="http://www.w3.org/1999/xlink" x="0px" y="0px"
	 viewBox="0 0 512 512" style="enable-background:new 0 0 512 512;" xml:space="preserve">
<style type="text/css">
	.st0{fill:#F05642;}
	.st1{fill:#113247;}
	.st2{fill:#FFFFFF;}
	.st3{fill:#D2463C;}
	.st4{fill:#E2E4E6;}
	.st5{fill:#35495C;}
</style>
<g>
	<path class="st0" d="M153.5,248.2c0,43.6,35.4,78.9,78.9,78.9s78.9-35.4,78.9-78.9c0-43.6-35.4-78.9-78.9-78.9
		S153.5,204.6,153.5,248.2z M263.9,248.2c0,17.4-14.1,31.6-31.6,31.6s-31.6-14.1-31.6-31.6c0-17.4,14.1-31.6,31.6-31.6
		S263.9,230.7,263.9,248.2z"/>
	<path class="st0" d="M35.1,248.2c0,109,88.3,197.3,197.3,197.3s197.3-88.3,197.3-197.3c0-109-88.3-197.3-197.3-197.3
		S35.1,139.2,35.1,248.2z M390.2,248.2c0,87.2-70.7,157.8-157.8,157.8S74.5,335.4,74.5,248.2S145.3,90.3,232.4,90.3
		S390.2,161,390.2,248.2z"/>
	<path class="st1" d="M301.9,432.8c-9.9,3.7-20.1,6.7-30.6,8.8l25.6,57.6c2.6,5.9,8.4,9.4,14.4,9.4c2.1,0,4.3-0.4,6.4-1.4
		c8-3.5,11.6-12.9,8-20.8L301.9,432.8z"/>
	<path class="st1" d="M232.4,445.4c-5.3,0-10.6-0.3-15.8-0.7v24.4c0,8.7,7.1,15.8,15.8,15.8c8.7,0,15.8-7.1,15.8-15.8v-24.4
		C242.9,445.2,237.7,445.4,232.4,445.4z"/>
	<path class="st1" d="M162.8,432.8L139,486.4c-3.5,8,0,17.3,8,20.8c2.1,0.9,4.3,1.4,6.4,1.4c6,0,11.8-3.5,14.4-9.4l25.6-57.6
		C182.9,439.5,172.7,436.5,162.8,432.8z"/>
	<path class="st0" d="M153.5,248.2c0,43.6,35.4,78.9,78.9,78.9s78.9-35.4,78.9-78.9c0-43.6-35.4-78.9-78.9-78.9
		S153.5,204.6,153.5,248.2z M263.9,248.2c0,17.4-14.1,31.6-31.6,31.6s-31.6-14.1-31.6-31.6c0-17.4,14.1-31.6,31.6-31.6
		S263.9,230.7,263.9,248.2z"/>
	<path class="st2" d="M74.5,248.2c0,87.2,70.7,157.8,157.8,157.8s157.8-70.6,157.8-157.8S319.5,90.3,232.4,90.3S74.5,161,74.5,248.2
		z M350.7,248.2c0,65.3-53,118.4-118.4,118.4S114,313.5,114,248.2s53-118.4,118.4-118.4S350.7,182.8,350.7,248.2z"/>
	<path class="st2" d="M153.5,248.2c0,43.6,35.4,78.9,78.9,78.9s78.9-35.4,78.9-78.9c0-43.6-35.4-78.9-78.9-78.9
		S153.5,204.6,153.5,248.2z M263.9,248.2c0,17.4-14.1,31.6-31.6,31.6s-31.6-14.1-31.6-31.6c0-17.4,14.1-31.6,31.6-31.6
		S263.9,230.7,263.9,248.2z"/>
	<path class="st0" d="M114,248.2c0,65.3,53,118.4,118.4,118.4s118.4-53,118.4-118.4s-53-118.4-118.4-118.4S114,182.8,114,248.2z
		 M311.3,248.2c0,43.6-35.4,78.9-78.9,78.9s-78.9-35.4-78.9-78.9c0-43.6,35.4-78.9,78.9-78.9S311.3,204.6,311.3,248.2z"/>
	<circle class="st0" cx="232.4" cy="248.2" r="31.6"/>
	<path class="st3" d="M349.3,353.9c-3.5,3.9-7.3,7.6-11.2,11.2l28.1,28c3.9-3.6,7.6-7.3,11.2-11.2L349.3,353.9z"/>
	<path class="st3" d="M293.5,298.1c-3.3,4.1-7.1,7.8-11.2,11.2l27.9,27.9c4-3.5,7.7-7.2,11.2-11.2L293.5,298.1z"/>
	<path class="st4" d="M259.5,264.1c-2.7,4.6-6.5,8.4-11.2,11.2l34,34c4.1-3.3,7.8-7.1,11.2-11.2L259.5,264.1z"/>
	<path class="st3" d="M237.9,242.6c-3.1-3.1-8.1-3.1-11.2,0c-1.5,1.5-2.3,3.6-2.3,5.6c0,2,0.8,4,2.3,5.6l21.5,21.5
		c4.6-2.7,8.4-6.5,11.2-11.2L237.9,242.6z"/>
	<path class="st1" d="M476.4,63.6c-1.2-3-4.1-4.9-7.3-4.9h-47.3V11.4c0-3.2-1.9-6.1-4.9-7.3c-3-1.2-6.4-0.6-8.6,1.7l-47.3,47.3
		c-1.5,1.5-2.3,3.5-2.3,5.6V114c0,4.4,3.5,7.9,7.9,7.9h55.2c2.1,0,4.1-0.8,5.6-2.3l47.3-47.3C476.9,70,477.6,66.6,476.4,63.6z"/>
	<path class="st5" d="M458.9,21.6c-3.1-3.1-8.1-3.1-11.2,0l-221,221c-3.1,3.1-3.1,8.1,0,11.2c1.5,1.5,3.6,2.3,5.6,2.3
		c2,0,4-0.8,5.6-2.3l221-221C462,29.7,462,24.7,458.9,21.6z"/>
	<path class="st4" d="M321.4,326c-3.5,4-7.2,7.7-11.2,11.2l27.9,27.9c3.9-3.5,7.6-7.3,11.2-11.2L321.4,326z"/>
</g>
</svg>
