<?xml version="1.0" encoding="utf-8"?>
<!-- Generator: Adobe Illustrator 21.0.2, SVG Export Plug-In . SVG Version: 6.00 Build 0)  -->
<svg version="1.1" id="Capa_1" xmlns="http://www.w3.org/2000/svg" xmlns:xlink="http://www.w3.org/1999/xlink" x="0px" y="0px"
	 viewBox="0 0 512 512" style="enable-background:new 0 0 512 512;" xml:space="preserve">
<style type="text/css">
	.st0{fill:#E2E4E6;}
	.st1{fill:#35495C;}
	.st2{fill:#113247;}
	.st3{fill:#008CCF;}
	.st4{fill:#0080BE;}
	.st5{fill:#50BEE7;}
	.st6{fill:#C9D1D7;}
	.st7{fill:#B3BBC3;}
</style>
<g>
	<g>
		<path class="st0" d="M209.1,59.2c0,4.3-3.5,7.9-7.9,7.9h-15.8c-4.3,0-7.9-3.5-7.9-7.9V12c0-4.3,3.5-7.9,7.9-7.9h15.8
			c4.3,0,7.9,3.5,7.9,7.9V59.2z"/>
	</g>
	<g>
		<path class="st0" d="M272.1,59.2c0,4.3-3.5,7.9-7.9,7.9h-15.8c-4.3,0-7.9-3.5-7.9-7.9V12c0-4.3,3.5-7.9,7.9-7.9h15.8
			c4.3,0,7.9,3.5,7.9,7.9V59.2z"/>
	</g>
	<g>
		<path class="st0" d="M335.2,59.2c0,4.3-3.5,7.9-7.9,7.9h-15.8c-4.3,0-7.9-3.5-7.9-7.9V12c0-4.3,3.5-7.9,7.9-7.9h15.8
			c4.3,0,7.9,3.5,7.9,7.9V59.2z"/>
	</g>
	<g>
		<path class="st0" d="M398.2,59.2c0,4.3-3.5,7.9-7.9,7.9h-15.8c-4.3,0-7.9-3.5-7.9-7.9V12c0-4.3,3.5-7.9,7.9-7.9h15.8
			c4.3,0,7.9,3.5,7.9,7.9V59.2z"/>
	</g>
	<g>
		<path class="st0" d="M146.1,59.2c0,4.3-3.5,7.9-7.9,7.9h-15.8c-4.3,0-7.9-3.5-7.9-7.9V12c0-4.3,3.5-7.9,7.9-7.9h15.8
			c4.3,0,7.9,3.5,7.9,7.9V59.2z"/>
	</g>
	<g>
		<path class="st0" d="M209.1,500.4c0,4.3-3.5,7.9-7.9,7.9h-15.8c-4.3,0-7.9-3.5-7.9-7.9v-47.3c0-4.3,3.5-7.9,7.9-7.9h15.8
			c4.3,0,7.9,3.5,7.9,7.9V500.4z"/>
	</g>
	<g>
		<path class="st0" d="M272.1,500.4c0,4.3-3.5,7.9-7.9,7.9h-15.8c-4.3,0-7.9-3.5-7.9-7.9v-47.3c0-4.3,3.5-7.9,7.9-7.9h15.8
			c4.3,0,7.9,3.5,7.9,7.9V500.4z"/>
	</g>
	<g>
		<path class="st0" d="M335.2,500.4c0,4.3-3.5,7.9-7.9,7.9h-15.8c-4.3,0-7.9-3.5-7.9-7.9v-47.3c0-4.3,3.5-7.9,7.9-7.9h15.8
			c4.3,0,7.9,3.5,7.9,7.9V500.4z"/>
	</g>
	<g>
		<path class="st0" d="M398.2,500.4c0,4.3-3.5,7.9-7.9,7.9h-15.8c-4.3,0-7.9-3.5-7.9-7.9v-47.3c0-4.3,3.5-7.9,7.9-7.9h15.8
			c4.3,0,7.9,3.5,7.9,7.9V500.4z"/>
	</g>
	<g>
		<path class="st0" d="M146.1,500.4c0,4.3-3.5,7.9-7.9,7.9h-15.8c-4.3,0-7.9-3.5-7.9-7.9v-47.3c0-4.3,3.5-7.9,7.9-7.9h15.8
			c4.3,0,7.9,3.5,7.9,7.9V500.4z"/>
	</g>
	<g>
		<path class="st0" d="M508.5,201c0,4.3-3.5,7.9-7.9,7.9h-47.3c-4.3,0-7.9-3.5-7.9-7.9v-15.8c0-4.3,3.5-7.9,7.9-7.9h47.3
			c4.3,0,7.9,3.5,7.9,7.9V201z"/>
	</g>
	<g>
		<path class="st0" d="M508.5,264.1c0,4.3-3.5,7.9-7.9,7.9h-47.3c-4.3,0-7.9-3.5-7.9-7.9v-15.8c0-4.3,3.5-7.9,7.9-7.9h47.3
			c4.3,0,7.9,3.5,7.9,7.9V264.1z"/>
	</g>
	<g>
		<path class="st0" d="M508.5,327.1c0,4.3-3.5,7.9-7.9,7.9h-47.3c-4.3,0-7.9-3.5-7.9-7.9v-15.8c0-4.3,3.5-7.9,7.9-7.9h47.3
			c4.3,0,7.9,3.5,7.9,7.9V327.1z"/>
	</g>
	<g>
		<path class="st0" d="M508.5,390.1c0,4.3-3.5,7.9-7.9,7.9h-47.3c-4.3,0-7.9-3.5-7.9-7.9v-15.8c0-4.3,3.5-7.9,7.9-7.9h47.3
			c4.3,0,7.9,3.5,7.9,7.9V390.1z"/>
	</g>
	<g>
		<path class="st0" d="M508.5,138c0,4.3-3.5,7.9-7.9,7.9h-47.3c-4.3,0-7.9-3.5-7.9-7.9v-15.8c0-4.3,3.5-7.9,7.9-7.9h47.3
			c4.3,0,7.9,3.5,7.9,7.9V138z"/>
	</g>
	<g>
		<path class="st0" d="M67.3,201c0,4.3-3.5,7.9-7.9,7.9H12.2c-4.3,0-7.9-3.5-7.9-7.9v-15.8c0-4.3,3.5-7.9,7.9-7.9h47.3
			c4.3,0,7.9,3.5,7.9,7.9V201z"/>
	</g>
	<g>
		<path class="st0" d="M67.3,264.1c0,4.3-3.5,7.9-7.9,7.9H12.2c-4.3,0-7.9-3.5-7.9-7.9v-15.8c0-4.3,3.5-7.9,7.9-7.9h47.3
			c4.3,0,7.9,3.5,7.9,7.9V264.1z"/>
	</g>
	<g>
		<path class="st0" d="M67.3,327.1c0,4.3-3.5,7.9-7.9,7.9H12.2c-4.3,0-7.9-3.5-7.9-7.9v-15.8c0-4.3,3.5-7.9,7.9-7.9h47.3
			c4.3,0,7.9,3.5,7.9,7.9V327.1z"/>
	</g>
	<g>
		<path class="st0" d="M67.3,390.1c0,4.3-3.5,7.9-7.9,7.9H12.2c-4.3,0-7.9-3.5-7.9-7.9v-15.8c0-4.3,3.5-7.9,7.9-7.9h47.3
			c4.3,0,7.9,3.5,7.9,7.9V390.1z"/>
	</g>
	<g>
		<path class="st0" d="M67.3,138c0,4.3-3.5,7.9-7.9,7.9H12.2c-4.3,0-7.9-3.5-7.9-7.9v-15.8c0-4.3,3.5-7.9,7.9-7.9h47.3
			c4.3,0,7.9,3.5,7.9,7.9V138z"/>
	</g>
	<path class="st1" d="M461.2,429.5c0,17.3-14.2,31.5-31.5,31.5H83.1c-17.3,0-31.5-14.2-31.5-31.5V82.9c0-17.3,14.2-31.5,31.5-31.5
		h346.6c17.3,0,31.5,14.2,31.5,31.5V429.5z"/>
	<path class="st2" d="M429.7,51.4H323L197,461h232.7c17.3,0,31.5-14.2,31.5-31.5V82.9C461.2,65.5,447,51.4,429.7,51.4z"/>
	<path class="st3" d="M374.5,358.6c0,8.7-7.1,15.8-15.8,15.8H154c-8.7,0-15.8-7.1-15.8-15.8V153.8c0-8.7,7.1-15.8,15.8-15.8h204.8
		c8.7,0,15.8,7.1,15.8,15.8V358.6z"/>
	<path class="st4" d="M358.8,138h-62.4l-72.7,236.3h135.1c8.7,0,15.8-7.1,15.8-15.8V153.8C374.5,145.1,367.5,138,358.8,138z"/>
	<circle class="st5" cx="185.5" cy="185.3" r="15.8"/>
	<circle class="st5" cx="232.8" cy="185.3" r="15.8"/>
	<circle class="st5" cx="280" cy="185.3" r="15.8"/>
	<circle class="st5" cx="327.3" cy="185.3" r="15.8"/>
	<circle class="st5" cx="185.5" cy="232.6" r="15.8"/>
	<circle class="st5" cx="232.8" cy="232.6" r="15.8"/>
	<circle class="st5" cx="280" cy="232.6" r="15.8"/>
	<circle class="st5" cx="327.3" cy="232.6" r="15.8"/>
	<circle class="st5" cx="185.5" cy="279.8" r="15.8"/>
	<circle class="st5" cx="232.8" cy="279.8" r="15.8"/>
	<circle class="st5" cx="280" cy="279.8" r="15.8"/>
	<circle class="st5" cx="327.3" cy="279.8" r="15.8"/>
	<circle class="st5" cx="185.5" cy="327.1" r="15.8"/>
	<circle class="st6" cx="98.8" cy="98.6" r="15.8"/>
	<circle class="st6" cx="413.9" cy="98.6" r="15.8"/>
	<circle class="st6" cx="98.8" cy="413.7" r="15.8"/>
	
		<ellipse transform="matrix(0.7071 -0.7071 0.7071 0.7071 -171.3163 413.8845)" class="st6" cx="413.9" cy="413.7" rx="15.8" ry="15.8"/>
	<circle class="st5" cx="232.8" cy="327.1" r="15.8"/>
	<circle class="st5" cx="280" cy="327.1" r="15.8"/>
	<circle class="st5" cx="327.3" cy="327.1" r="15.8"/>
	<rect x="35.8" y="366.5" class="st6" width="15.8" height="31.5"/>
	<rect x="35.8" y="303.5" class="st6" width="15.8" height="31.5"/>
	<rect x="35.8" y="240.4" class="st6" width="15.8" height="31.5"/>
	<rect x="35.8" y="177.4" class="st6" width="15.8" height="31.5"/>
	<rect x="35.8" y="114.4" class="st6" width="15.8" height="31.5"/>
	<rect x="461.2" y="366.5" class="st6" width="15.8" height="31.5"/>
	<rect x="461.2" y="303.5" class="st6" width="15.8" height="31.5"/>
	<rect x="461.2" y="240.4" class="st6" width="15.8" height="31.5"/>
	<rect x="461.2" y="177.4" class="st6" width="15.8" height="31.5"/>
	<rect x="461.2" y="114.4" class="st6" width="15.8" height="31.5"/>
	<rect x="114.6" y="35.6" class="st6" width="31.5" height="15.8"/>
	<rect x="177.6" y="35.6" class="st6" width="31.5" height="15.8"/>
	<rect x="240.6" y="35.6" class="st6" width="31.5" height="15.8"/>
	<rect x="303.7" y="35.6" class="st6" width="31.5" height="15.8"/>
	<rect x="366.7" y="35.6" class="st6" width="31.5" height="15.8"/>
	<rect x="114.6" y="461" class="st6" width="31.5" height="15.8"/>
	<rect x="177.6" y="461" class="st6" width="31.5" height="15.8"/>
	<rect x="240.6" y="461" class="st6" width="31.5" height="15.8"/>
	<rect x="303.7" y="461" class="st6" width="31.5" height="15.8"/>
	<rect x="366.7" y="461" class="st6" width="31.5" height="15.8"/>
	<path class="st7" d="M425.1,424.9c6.2-6.2,6.2-16.1,0-22.3l-22.3,22.3C409,431,418.9,431,425.1,424.9z"/>
	<path class="st7" d="M425.1,109.8c6.2-6.2,6.2-16.1,0-22.3l-22.3,22.3C409,115.9,418.9,115.9,425.1,109.8z"/>
	<path class="st7" d="M110,109.8c6.2-6.2,6.2-16.1,0-22.3l-22.3,22.3C93.9,115.9,103.8,115.9,110,109.8z"/>
	<path class="st7" d="M110,424.9c6.2-6.2,6.2-16.1,0-22.3l-22.3,22.3C93.9,431,103.8,431,110,424.9z"/>
</g>
</svg>
