<?xml version="1.0" encoding="utf-8"?>
<!-- Generator: Adobe Illustrator 21.0.2, SVG Export Plug-In . SVG Version: 6.00 Build 0)  -->
<svg version="1.1" id="Capa_1" xmlns="http://www.w3.org/2000/svg" xmlns:xlink="http://www.w3.org/1999/xlink" x="0px" y="0px"
	 viewBox="0 0 512 512" style="enable-background:new 0 0 512 512;" xml:space="preserve">
<style type="text/css">
	.st0{fill:#008CCF;}
	.st1{fill:#F05642;}
	.st2{fill:#F6B74E;}
	.st3{fill:#83BD5A;}
	.st4{fill:#576D7E;}
	.st5{fill:#35495C;}
	.st6{fill:#B1C3D0;}
	.st7{fill:#D89C44;}
	.st8{fill:#007DC4;}
	.st9{fill:#6FA04E;}
	.st10{fill:#D2453C;}
	.st11{fill:#8EADBE;}
	.st12{fill:#89D6F7;}
</style>
<g>
	<g>
		<rect x="335.4" y="294.9" class="st0" width="78.6" height="53.9"/>
		<rect x="178.2" y="241" class="st0" width="78.6" height="53.9"/>
		<rect x="335.4" y="241" class="st1" width="78.6" height="53.9"/>
		<rect x="178.2" y="187.1" class="st1" width="78.6" height="53.9"/>
		<rect x="256.8" y="241" class="st2" width="78.6" height="53.9"/>
		<rect x="178.2" y="294.9" class="st2" width="78.6" height="53.9"/>
		<rect x="256.8" y="294.9" class="st3" width="78.6" height="53.9"/>
		<rect x="414.1" y="241" class="st3" width="78.6" height="53.9"/>
		<rect x="335.4" y="187.1" class="st4" width="78.6" height="53.9"/>
		<rect x="178.4" y="133.3" class="st4" width="78.6" height="53.9"/>
		<g>
			<path class="st5" d="M83.9,73.3c-4.3,0-7.9-4-7.9-9v-9c0-5,3.5-9,7.9-9c4.3,0,7.9,4,7.9,9v9C91.7,69.2,88.2,73.3,83.9,73.3z"/>
		</g>
		<g>
			<path class="st5" d="M115.3,73.3c-4.3,0-7.9-4-7.9-9v-27c0-5,3.5-9,7.9-9c4.3,0,7.9,4,7.9,9v27C123.2,69.2,119.6,73.3,115.3,73.3
				z"/>
		</g>
		<path class="st6" d="M154.6,64.3H76c-4.3,0-7.9,4-7.9,9v284.5c0,5,3.5,9,7.9,9h78.6c4.3,0,7.9-4,7.9-9V73.3
			C162.5,68.3,159,64.3,154.6,64.3z"/>
		<rect x="256.8" y="285.9" class="st7" width="78.6" height="9"/>
		<rect x="414.1" y="187.1" class="st2" width="78.6" height="53.9"/>
		<rect x="414.1" y="232" class="st7" width="78.6" height="9"/>
		<rect x="256.8" y="80.7" class="st2" width="78.6" height="53.9"/>
		<rect x="256.8" y="125.7" class="st7" width="78.6" height="9"/>
		<rect x="178.2" y="285.9" class="st8" width="78.6" height="9"/>
		<rect x="256.8" y="133.2" class="st0" width="78.6" height="53.9"/>
		<rect x="256.8" y="178.1" class="st8" width="78.6" height="9"/>
		<rect x="335.4" y="321.8" class="st8" width="78.6" height="9"/>
		<rect x="335.4" y="232" class="st5" width="78.6" height="9"/>
		<rect x="256.8" y="26.8" class="st4" width="78.6" height="53.9"/>
		<rect x="256.8" y="71.8" class="st5" width="78.6" height="9"/>
		<rect x="178.4" y="177.9" class="st5" width="78.6" height="9"/>
		<rect x="256.8" y="321.8" class="st9" width="78.6" height="9"/>
		<rect x="414.1" y="285.9" class="st9" width="78.6" height="9"/>
		<rect x="335.4" y="80.7" class="st3" width="78.6" height="53.9"/>
		<rect x="335.4" y="125.7" class="st9" width="78.6" height="9"/>
		<rect x="256.8" y="187.1" class="st3" width="78.6" height="53.9"/>
		<line class="st9" x1="335.4" y1="232" x2="256.8" y2="232"/>
		<rect x="335.4" y="285.9" class="st10" width="78.6" height="9"/>
		<rect x="335.4" y="133.3" class="st1" width="78.6" height="53.9"/>
		<rect x="335.4" y="178.2" class="st10" width="78.6" height="9"/>
		<rect x="178.2" y="232" class="st10" width="78.6" height="9"/>
		<rect x="178.2" y="321.8" class="st7" width="78.6" height="9"/>
		<g>
			<path class="st5" d="M382.6,486.6H36.7c-7.5,0-14-6-15.4-14.4L5.5,352.3c-0.9-5.3,0.3-10.8,3.3-14.9c3-4.2,7.5-6.6,12.2-6.6
				h345.9l18.9-28.8c3-4.5,7.6-7.2,12.6-7.2h94.3c8.7,0,15.7,8,15.7,18C508.4,392.1,452,486.6,382.6,486.6z"/>
		</g>
		<path class="st1" d="M17.5,450.6l3.8,21.5c1.5,8.4,7.9,14.4,15.4,14.4h345.9c31.8,0,51.9-15.8,74-38.1L17.5,450.6z"/>
		<path class="st11" d="M131,73.3c-8.7,0-15.7,8-15.7,18V229c0,9.9-7,18-15.7,18H68.1v83.9h94.3V247V73.3H131z"/>
		<path class="st12" d="M162.5,91.2H131c-4.3,0-7.9,4-7.9,9v9c0,4.9,3.5,9,7.9,9h31.4V91.2z"/>
		<path class="st6" d="M68.1,330.8H36.7V192.5c0-4.6,3.8-8.4,8.4-8.4h23V330.8z"/>
		<path class="st11" d="M52.4,202v27c0,5-3.5,9-7.9,9h-7.9v92.8h15.7h15.7V193.1h-7.9C55.9,193.1,52.4,197.1,52.4,202z"/>
	</g>
	<path class="st12" d="M162.5,131.7H131c-4.3,0-7.9,4-7.9,9v9c0,4.9,3.5,9,7.9,9h31.4V131.7z"/>
</g>
</svg>
