<svg id="Capa_1" enable-background="new 0 0 512 512" height="512" viewBox="0 0 512 512" width="512" xmlns="http://www.w3.org/2000/svg"><path d="m503.558 512h-335.799l48.724-113.71c23.896-55.767 36.217-115.806 36.217-176.477v-55.016h167.05v55.016c0 60.671 12.321 120.71 36.217 176.477l48.278 112.668c.212.493-.15 1.042-.687 1.042z" fill="#d3ced5"/><path d="m455.968 398.29c-23.896-55.767-36.217-115.806-36.217-176.477v-55.016h-40v35.016c0 60.671 12.322 120.71 36.217 176.477l9.094 21.223c18.762 43.784-13.355 92.487-60.989 92.487h-187.744l-8.57 20h335.799c.537 0 .899-.549.688-1.043z" fill="#c3bec6"/><g fill="#f9ef63"><circle cx="336.226" cy="388.059" r="15.914"/><path d="m336.226 424.394c-6.255 0-12.142-1.597-17.286-4.393-.489-.266-1.096-.105-1.374.377l-19.368 33.546c-.285.493-.115 1.13.381 1.408 11.133 6.244 23.973 9.805 37.646 9.805s26.513-3.562 37.646-9.805c.497-.278.666-.915.381-1.408l-19.368-33.546c-.278-.482-.885-.643-1.374-.377-5.142 2.796-11.029 4.393-17.284 4.393z"/><path d="m367.693 369.891c3.128 5.417 4.688 11.313 4.838 17.166.014.556.457 1.001 1.014 1.001h38.736c.569 0 1.036-.465 1.029-1.034-.159-12.764-3.495-25.664-10.331-37.505s-16.341-21.18-27.315-27.7c-.489-.291-1.126-.119-1.41.374l-19.368 33.546c-.278.482-.114 1.088.36 1.378 4.993 3.058 9.319 7.357 12.447 12.774z"/><path d="m304.759 369.891c3.128-5.417 7.454-9.716 12.447-12.773.474-.29.638-.897.36-1.378l-19.368-33.546c-.285-.493-.921-.665-1.41-.374-10.974 6.52-20.478 15.859-27.315 27.7s-10.172 24.742-10.331 37.505c-.007.569.46 1.034 1.029 1.034h38.736c.556 0 .999-.445 1.014-1.001.15-5.853 1.71-11.749 4.838-17.167z"/><path d="m421.846 166.797h-171.24c-5.61 0-10.158-4.548-10.158-10.158v-9.366c0-5.61 4.548-10.158 10.158-10.158h171.241c5.61 0 10.158 4.548 10.158 10.158v9.366c0 5.61-4.548 10.158-10.159 10.158z"/><path d="m224.715 217.153h-146.261c-4.792 0-8.677-3.885-8.677-8.677v-8c0-4.792 3.885-8.677 8.677-8.677h146.261c4.792 0 8.677 3.885 8.677 8.677v8c0 4.792-3.885 8.677-8.677 8.677z"/></g><path d="m252.121 25.681h-82.762c-6.962 0-12.892-5.414-13.14-12.372-.259-7.306 5.586-13.309 12.833-13.309h136.296c6.962 0 12.892 5.414 13.14 12.372.26 7.305-5.585 13.309-12.832 13.309h45.512c10.643 0 19.272 8.628 19.272 19.272 0 10.643-8.628 19.272-19.272 19.272h-21.983c16.114 0 29.176 13.063 29.176 29.176v43.714h-50.216v-32.831c0-3.915-3.174-7.09-7.09-7.09h-9.44c-8.982 0-16.575-7.042-16.821-16.021-.255-9.316 7.22-16.948 16.478-16.948h-52.398c-10.823 0-19.563-8.922-19.264-19.813.288-10.497 9.164-18.73 19.665-18.73h12.846z" fill="#958b95"/><path d="m73.093 87.867h-52.252c-6.963 0-12.892-5.414-13.14-12.372-.26-7.305 5.585-13.308 12.832-13.308h105.786c6.962 0 12.892 5.414 13.14 12.372.26 7.305-5.585 13.309-12.832 13.309h45.512c10.643 0 19.272 8.628 19.272 19.272 0 10.643-8.628 19.272-19.272 19.272h-21.983c16.114 0 29.176 13.063 29.176 29.176v36.212h-40.216v-25.331c0-3.915-3.174-7.09-7.089-7.09h-19.44c-8.982 0-16.575-7.042-16.821-16.021-.255-9.316 7.22-16.948 16.478-16.948h-52.397c-10.823 0-19.563-8.922-19.264-19.813.288-10.497 9.164-18.73 19.665-18.73z" fill="#958b95"/><path d="m233.249 352.399c-6.837-28.847-10.323-58.461-10.323-88.256v-46.99h-142.682v46.99c0 51.821-10.524 103.102-30.934 150.734l-41.17 96.08c-.212.494.15 1.043.687 1.043h158.932l48.724-113.71c6.433-15.011 12.026-30.332 16.766-45.891z" fill="#d3ced5"/><path d="m222.926 264.143v-46.99h-40v26.99c0 19.916 1.558 39.751 4.633 59.33 3.507 22.328 1.006 45.163-7.456 66.12-1.175 2.91-2.381 5.808-3.618 8.696l-19.638 45.83c-17.647 41.18-58.137 67.881-102.938 67.881h-37.646l-8.123 18.957c-.212.494.15 1.043.687 1.043h158.932l48.724-113.71c6.432-15.011 12.025-30.331 16.765-45.89-6.836-28.848-10.322-58.462-10.322-88.257z" fill="#c3bec6"/><path d="m419.753 199.3h-167.05c-4.142 0-7.5-3.357-7.5-7.5s3.358-7.5 7.5-7.5h167.05c4.142 0 7.5 3.357 7.5 7.5s-3.358 7.5-7.5 7.5zm7.5 17.5c0-4.143-3.358-7.5-7.5-7.5h-167.05c-4.142 0-7.5 3.357-7.5 7.5s3.358 7.5 7.5 7.5h167.05c4.142 0 7.5-3.358 7.5-7.5zm.46 25c0-4.143-3.358-7.5-7.5-7.5h-167.97c-4.142 0-7.5 3.357-7.5 7.5s3.358 7.5 7.5 7.5h167.97c4.142 0 7.5-3.358 7.5-7.5zm1.81 25c0-4.143-3.358-7.5-7.5-7.5h-171.59c-4.142 0-7.5 3.357-7.5 7.5s3.358 7.5 7.5 7.5h171.59c4.142 0 7.5-3.358 7.5-7.5z" fill="#e2dfe2"/><path d="m427.253 216.8c0 4.143-3.358 7.5-7.5 7.5h-39.437c-.251-4.993-.418-9.994-.502-15h39.939c4.142 0 7.5 3.357 7.5 7.5zm-46.323 17.5c.364 5.01.813 10.01 1.345 15h37.938c4.142 0 7.5-3.357 7.5-7.5s-3.358-7.5-7.5-7.5zm-1.179-35h40.002c4.142 0 7.5-3.357 7.5-7.5s-3.358-7.5-7.5-7.5h-40.002zm49.772 67.5c0-4.143-3.358-7.5-7.5-7.5h-38.568c.649 5.013 1.382 10.014 2.199 15h36.369c4.142 0 7.5-3.358 7.5-7.5z" fill="#d3ced5"/><path d="m222.927 250.009h-142.681c-4.142 0-7.5-3.357-7.5-7.5s3.358-7.5 7.5-7.5h142.682c4.142 0 7.5 3.357 7.5 7.5s-3.359 7.5-7.501 7.5zm7.5 17.853c0-4.143-3.358-7.5-7.5-7.5h-142.681c-4.142 0-7.5 3.357-7.5 7.5s3.358 7.5 7.5 7.5h142.682c4.141 0 7.499-3.357 7.499-7.5zm1.108 25.353c0-4.143-3.358-7.5-7.5-7.5h-144.897c-4.142 0-7.5 3.357-7.5 7.5s3.358 7.5 7.5 7.5h144.897c4.142 0 7.5-3.358 7.5-7.5zm2.784 25.353c0-4.143-3.358-7.5-7.5-7.5h-150.466c-4.142 0-7.5 3.357-7.5 7.5s3.358 7.5 7.5 7.5h150.466c4.142 0 7.5-3.357 7.5-7.5z" fill="#e2dfe2"/><path d="m222.927 250.009h-39.956c-.03-1.954-.045-3.909-.045-5.865v-9.135h40.002c4.142 0 7.5 3.357 7.5 7.5s-3.359 7.5-7.501 7.5zm3.892 61.059h-38.302c.479 4.997.66 10.006.542 15h37.759c4.142 0 7.5-3.357 7.5-7.5s-3.357-7.5-7.499-7.5zm3.608-43.206c0-4.143-3.358-7.5-7.5-7.5h-39.657c.213 5.009.524 10.01.933 15h38.724c4.142 0 7.5-3.357 7.5-7.5zm1.108 25.353c0-4.143-3.358-7.5-7.5-7.5h-38.841c.549 5.014 1.196 10.015 1.941 15h36.9c4.142 0 7.5-3.358 7.5-7.5z" fill="#d3ced5"/></svg>