<?xml version="1.0" encoding="utf-8"?>
<!-- Generator: Adobe Illustrator 21.0.2, SVG Export Plug-In . SVG Version: 6.00 Build 0)  -->
<svg version="1.1" id="Layer_1" xmlns="http://www.w3.org/2000/svg" xmlns:xlink="http://www.w3.org/1999/xlink" x="0px" y="0px"
	 viewBox="0 0 512 512" style="enable-background:new 0 0 512 512;" xml:space="preserve">
<style type="text/css">
	.st0{fill:#35495C;}
	.st1{fill:#30B19D;}
	.st2{fill:#F6B74E;}
	.st3{fill:#F05642;}
</style>
<g>
	<g>
		<g>
			<path class="st0" d="M504.6,473.7c0,17.1-14,31-31,31H39.2c-17.1,0-31-14-31-31V39.4c0-17.1,14-31,31-31h434.3
				c17.1,0,31,14,31,31V473.7z"/>
		</g>
	</g>
	<g>
		<g>
			<path class="st1" d="M155.6,466H62.5C53.9,466,47,459,47,450.5s6.9-15.5,15.5-15.5h93.1c8.6,0,15.5,6.9,15.5,15.5
				S164.1,466,155.6,466z"/>
		</g>
	</g>
	<g>
		<g>
			<path class="st1" d="M155.6,403.9H62.5c-8.6,0-15.5-6.9-15.5-15.5s6.9-15.5,15.5-15.5h93.1c8.6,0,15.5,6.9,15.5,15.5
				S164.1,403.9,155.6,403.9z"/>
		</g>
	</g>
	<g>
		<g>
			<path class="st2" d="M155.6,341.9H62.5c-8.6,0-15.5-6.9-15.5-15.5s6.9-15.5,15.5-15.5h93.1c8.6,0,15.5,6.9,15.5,15.5
				S164.1,341.9,155.6,341.9z"/>
		</g>
	</g>
	<g>
		<g>
			<path class="st2" d="M155.6,279.8H62.5c-8.6,0-15.5-6.9-15.5-15.5c0-8.6,6.9-15.5,15.5-15.5h93.1c8.6,0,15.5,6.9,15.5,15.5
				C171.1,272.9,164.1,279.8,155.6,279.8z"/>
		</g>
	</g>
	<g>
		<g>
			<path class="st1" d="M310.7,466h-93.1c-8.6,0-15.5-6.9-15.5-15.5s6.9-15.5,15.5-15.5h93.1c8.6,0,15.5,6.9,15.5,15.5
				S319.3,466,310.7,466z"/>
		</g>
	</g>
	<g>
		<g>
			<path class="st1" d="M310.7,403.9h-93.1c-8.6,0-15.5-6.9-15.5-15.5s6.9-15.5,15.5-15.5h93.1c8.6,0,15.5,6.9,15.5,15.5
				S319.3,403.9,310.7,403.9z"/>
		</g>
	</g>
	<g>
		<g>
			<path class="st3" d="M310.7,217.8h-93.1c-8.6,0-15.5-6.9-15.5-15.5s6.9-15.5,15.5-15.5h93.1c8.6,0,15.5,6.9,15.5,15.5
				S319.3,217.8,310.7,217.8z"/>
		</g>
	</g>
	<g>
		<g>
			<path class="st3" d="M310.7,155.7h-93.1c-8.6,0-15.5-6.9-15.5-15.5s6.9-15.5,15.5-15.5h93.1c8.6,0,15.5,6.9,15.5,15.5
				S319.3,155.7,310.7,155.7z"/>
		</g>
	</g>
	<g>
		<g>
			<path class="st2" d="M310.7,341.9h-93.1c-8.6,0-15.5-6.9-15.5-15.5s6.9-15.5,15.5-15.5h93.1c8.6,0,15.5,6.9,15.5,15.5
				S319.3,341.9,310.7,341.9z"/>
		</g>
	</g>
	<g>
		<g>
			<path class="st2" d="M310.7,279.8h-93.1c-8.6,0-15.5-6.9-15.5-15.5c0-8.6,6.9-15.5,15.5-15.5h93.1c8.6,0,15.5,6.9,15.5,15.5
				C326.2,272.9,319.3,279.8,310.7,279.8z"/>
		</g>
	</g>
	<g>
		<g>
			<path class="st1" d="M465.8,466h-93.1c-8.6,0-15.5-6.9-15.5-15.5s6.9-15.5,15.5-15.5h93.1c8.6,0,15.5,6.9,15.5,15.5
				S474.4,466,465.8,466z"/>
		</g>
	</g>
	<g>
		<g>
			<path class="st1" d="M465.8,403.9h-93.1c-8.6,0-15.5-6.9-15.5-15.5s6.9-15.5,15.5-15.5h93.1c8.6,0,15.5,6.9,15.5,15.5
				S474.4,403.9,465.8,403.9z"/>
		</g>
	</g>
</g>
</svg>
