<?xml version="1.0" encoding="utf-8"?>
<!-- Generator: Adobe Illustrator 21.0.2, SVG Export Plug-In . SVG Version: 6.00 Build 0)  -->
<svg version="1.1" id="Layer_1" xmlns="http://www.w3.org/2000/svg" xmlns:xlink="http://www.w3.org/1999/xlink" x="0px" y="0px"
	 viewBox="0 0 512 512" style="enable-background:new 0 0 512 512;" xml:space="preserve">
<style type="text/css">
	.st0{fill:#B1C3D0;}
	.st1{fill:#8EADBE;}
</style>
<g>
	<g>
		<path class="st0" d="M256.7,256.2c-49.3,28.5-112.7,11.5-141.1-37.8l-34.4-59.7C52.6,109.4,69.6,46.1,119,17.6
			c49.3-28.5,112.7-11.5,141.1,37.8l34.4,59.7C323,164.4,306.1,227.7,256.7,256.2z M144.8,62.3c-24.7,14.2-33.2,45.9-18.9,70.6
			l34.4,59.7c14.2,24.7,45.9,33.2,70.6,18.9c24.7-14.2,33.2-45.9,18.9-70.6l-34.4-59.7C201.1,56.6,169.5,48.1,144.8,62.3z"/>
	</g>
	<g>
		<path class="st0" d="M394.5,494.8c-49.3,28.5-112.7,11.5-141.1-37.8l-34.4-59.7c-28.5-49.3-11.5-112.7,37.8-141.1
			c49.3-28.5,112.7-11.5,141.1,37.8l34.4,59.7C460.8,403,443.8,466.3,394.5,494.8z M282.6,301c-24.7,14.2-33.2,45.9-18.9,70.6
			l34.4,59.7c14.2,24.7,45.9,33.2,70.6,18.9c24.7-14.2,33.2-45.9,18.9-70.6l-34.4-59.7C338.9,295.2,307.2,286.7,282.6,301z"/>
	</g>
	<g>
		<path class="st1" d="M385.9,479.9c-36.5,21.1-79.1,20.7-111.5,2.7c32.4,28.6,80.7,35,120.1,12.2c39.4-22.8,58.1-67.8,49.5-110.1
			C443.3,421.8,422.3,458.9,385.9,479.9z"/>
	</g>
	<g>
		<path class="st1" d="M248.1,241.3C211.6,262.4,169,262,136.6,244c32.4,28.6,80.7,35,120.1,12.2c39.4-22.8,58.1-67.8,49.5-110.1
			C305.6,183.2,284.6,220.2,248.1,241.3z"/>
	</g>
	<path class="st0" d="M317,360.6c-16.5,9.5-37.6,3.8-47-12.6l-86.1-149.1c-9.5-16.5-3.8-37.6,12.6-47c16.5-9.5,37.6-3.8,47,12.6
		l86.1,149.1C339.1,330,333.4,351.1,317,360.6z"/>
	<path class="st1" d="M297.4,326.6l-81.3-140.9c-6.7-11.6,1.9-26.4,15.4-25.9c2.5,0.1,5,0.4,7.4,0.9c1.4,1.1,3.3,2.5,4.7,3.6
		l86.1,149.1c9.5,16.4,3.8,37.6-12.6,47l0,0c-15.4,8.9-34.7,4.4-44.9-9.7c3.2,0.9,6.6,1.5,10.1,1.6
		C295.6,353,304.1,338.2,297.4,326.6z"/>
	<path class="st1" d="M230,278.8c0,0.1-0.1,0.1-0.1,0.2c-7.1,8.4-7.8,20.4-2.4,30l27.5,47.7c1.3,2.3,2.9,4.3,4.6,6.2
		c-3.8-10.9-3.7-22.5-0.2-33L230,278.8z"/>
	<path class="st1" d="M289.6,244.4c0.1,0,0.1,0,0.2,0c10.8-1.9,21.6,3.4,27.1,12.9l27.5,47.7c1.3,2.3,2.3,4.7,3,7.1
		c-7.5-8.7-17.6-14.4-28.5-16.7L289.6,244.4z"/>
	<path class="st1" d="M283.4,233.6c0-0.1,0.1-0.1,0.1-0.2c7.1-8.4,7.8-20.4,2.4-30l-27.5-47.7c-1.3-2.3-2.9-4.3-4.6-6.2
		c3.8,10.9,3.7,22.5,0.2,33L283.4,233.6z"/>
	<path class="st1" d="M223.8,268c-0.1,0-0.1,0-0.2,0c-10.8,1.9-21.6-3.4-27.1-12.9l-27.5-47.7c-1.3-2.3-2.3-4.7-3-7.1
		c7.5,8.7,17.6,14.4,28.5,16.7L223.8,268z"/>
</g>
</svg>
