<?xml version="1.0" encoding="utf-8"?>
<!-- Generator: Adobe Illustrator 21.0.2, SVG Export Plug-In . SVG Version: 6.00 Build 0)  -->
<svg version="1.1" id="Layer_1" xmlns="http://www.w3.org/2000/svg" xmlns:xlink="http://www.w3.org/1999/xlink" x="0px" y="0px"
	 viewBox="0 0 512 512" style="enable-background:new 0 0 512 512;" xml:space="preserve">
<style type="text/css">
	.st0{fill:#576D7E;}
	.st1{fill:#35495C;}
	.st2{fill:#83BD5A;}
	.st3{fill:#113247;}
	.st4{fill:#E2E4E6;}
	.st5{fill:#C9D1D7;}
	.st6{fill:#6FA04E;}
</style>
<g>
	<path class="st0" d="M477,146.5H35.5C18.1,146.5,4,160.7,4,178.1v63.1v157.7c0,17.3,14.2,31.5,31.5,31.5H477
		c17.3,0,31.5-14.2,31.5-31.5V241.1v-63.1C508.5,160.7,494.3,146.5,477,146.5z"/>
	<path class="st1" d="M256.2,414.6H8.4c5.5,9.4,15.5,15.8,27.1,15.8H477c17.3,0,31.5-14.2,31.5-31.5V241.1v-63.1
		c0-5.8-1.7-11.1-4.4-15.8H287.8c-17.4,0-31.5,14.1-31.5,31.5V414.6z"/>
	<circle class="st2" cx="67" cy="193.8" r="15.8"/>
	<circle class="st2" cx="114.3" cy="193.8" r="15.8"/>
	<rect x="90.7" y="304.2" class="st3" width="331.1" height="31.5"/>
	<path class="st4" d="M106.4,485c0,8.7,7.1,15.8,15.8,15.8h268c8.7,0,15.8-7.1,15.8-15.8V335.7H106.4V485z"/>
	<polygon class="st1" points="437.5,146.5 74.9,146.5 90.7,67.7 421.8,67.7 	"/>
	<path class="st4" d="M406,28.3c0-8.7-7.1-15.8-15.8-15.8h-268c-8.7,0-15.8,7.1-15.8,15.8v118.3H406V28.3z"/>
	<g>
		<path class="st5" d="M350.8,422.5H161.6c-8.7,0-15.8-7.1-15.8-15.8c0-8.7,7.1-15.8,15.8-15.8h189.2c8.7,0,15.8,7.1,15.8,15.8
			C366.6,415.4,359.5,422.5,350.8,422.5z"/>
	</g>
	<g>
		<path class="st5" d="M272,477.7H161.6c-8.7,0-15.8-7.1-15.8-15.8s7.1-15.8,15.8-15.8H272c8.7,0,15.8,7.1,15.8,15.8
			S280.7,477.7,272,477.7z"/>
	</g>
	<path class="st6" d="M73.5,179.5c0.9,2,1.4,4.2,1.4,6.5c0,8.7-7.1,15.8-15.8,15.8c-2.3,0-4.5-0.5-6.5-1.4c2.5,5.5,8,9.3,14.3,9.3
		c8.7,0,15.8-7.1,15.8-15.8C82.8,187.4,79,182,73.5,179.5z"/>
	<path class="st6" d="M120.8,179.5c0.9,2,1.4,4.2,1.4,6.5c0,8.7-7.1,15.8-15.8,15.8c-2.3,0-4.5-0.5-6.5-1.4c2.5,5.5,8,9.3,14.3,9.3
		c8.7,0,15.8-7.1,15.8-15.8C130.1,187.4,126.3,182,120.8,179.5z"/>
	<rect x="106.4" y="335.7" class="st5" width="299.6" height="15.8"/>
	<polygon class="st1" points="106.4,351.5 106.4,335.7 90.7,335.7 	"/>
	<polygon class="st3" points="406,146.5 406,67.7 413.9,67.7 	"/>
	<polygon class="st3" points="106.4,146.5 98.6,67.7 106.4,67.7 	"/>
</g>
</svg>
