<?xml version="1.0" encoding="utf-8"?>
<!-- Generator: Adobe Illustrator 21.0.2, SVG Export Plug-In . SVG Version: 6.00 Build 0)  -->
<svg version="1.1" id="Layer_1" xmlns="http://www.w3.org/2000/svg" xmlns:xlink="http://www.w3.org/1999/xlink" x="0px" y="0px"
	 viewBox="0 0 512 512" style="enable-background:new 0 0 512 512;" xml:space="preserve">
<style type="text/css">
	.st0{fill:#748A9D;}
	.st1{fill:#576D7E;}
	.st2{fill:#B1C3D0;}
	.st3{fill:#35495C;}
	.st4{fill:#F6B74E;}
	.st5{fill:#8EADBE;}
	.st6{fill:#D89C44;}
	.st7{fill:#113247;}
</style>
<g>
	<path class="st0" d="M433,84.7H308.8l-7.2-9.6c-2.6-3.5-8.4-6.4-12.8-6.4h-64.1c-4.4,0-10.2,2.9-12.8,6.4l-7.2,9.6H80.4
		c-4.4,0-8,3.6-8,8s3.6,8,8,8h120.2h112.2H433c4.4,0,8-3.6,8-8S437.4,84.7,433,84.7z"/>
	<path class="st1" d="M423.6,92.7c-4.3,0-8.3-1.7-11.3-4.7l-3.3-3.3h-8v8H296.8c-8.9,0-16-7.2-16-16v-8h-8v24h-32.1v-24h-8v8
		c0,8.9-7.2,16-16,16h-65.5c-4.3,0-8.3-1.7-11.3-4.7l-3.3-3.3h-8v8H72.4c0,4.4,3.6,8,8,8h48.1h16h96.2h32.1H433c4.4,0,8-3.6,8-8
		H423.6z"/>
	<g>
		<g>
			<path class="st2" d="M272.7,453.3V20.6c0-8.9-7.2-16-16-16c-8.8,0-16,7.2-16,16v432.7C240.7,462.1,272.7,462.1,272.7,453.3z"/>
		</g>
	</g>
	<g>
		<g>
			
				<rect x="-18.3" y="180.8" transform="matrix(0.3515 -0.9362 0.9362 0.3515 -122.0238 201.5122)" class="st3" width="205.4" height="16"/>
		</g>
	</g>
	<g>
		<g>
			
				<rect x="148.5" y="86.1" transform="matrix(0.9363 -0.3511 0.3511 0.9363 -56.3353 66.9948)" class="st3" width="16" height="205.4"/>
		</g>
	</g>
	<path class="st3" d="M328.8,477.3h-6.5c-8.3-14.4-23.8-24-41.6-24h-48.1c-17.8,0-33.2,9.7-41.6,24h-6.5c-4.4,0-8,3.6-8,8v16
		c0,4.4,3.6,8,8,8h144.2c4.4,0,8-3.6,8-8v-16C336.9,480.9,333.2,477.3,328.8,477.3z"/>
	<g>
		<g>
			<path class="st4" d="M208.6,285c0-4.4-3.6-8-8-8H40.4c-4.4,0-8,3.6-8,8l0,0c0,48.7,39.5,88.1,88.1,88.1
				C169.2,373.1,208.7,333.7,208.6,285C208.6,285,208.6,285,208.6,285L208.6,285z"/>
		</g>
	</g>
	<g>
		<g>
			
				<rect x="254.2" y="180.8" transform="matrix(0.3515 -0.9362 0.9362 0.3515 54.6644 456.5785)" class="st3" width="205.4" height="16"/>
		</g>
	</g>
	<g>
		<g>
			
				<rect x="421" y="86.1" transform="matrix(0.9363 -0.3511 0.3511 0.9363 -38.9881 162.6585)" class="st3" width="16" height="205.4"/>
		</g>
	</g>
	<g>
		<g>
			<path class="st4" d="M481.1,285c0-4.4-3.6-8-8-8H312.8c-4.4,0-8,3.6-8,8l0,0c0,48.7,39.5,88.1,88.1,88.1
				C441.6,373.1,481.1,333.7,481.1,285C481.1,285,481.1,285,481.1,285L481.1,285z"/>
		</g>
	</g>
	<g>
		<circle class="st2" cx="392.9" cy="92.7" r="16"/>
	</g>
	<g>
		<circle class="st2" cx="120.5" cy="92.7" r="16"/>
	</g>
	<path class="st5" d="M256.7,19.8v409.5c0,4.4-3.6,8-8,8h-8v16h32.1v-16V20.6c0-0.9-0.1-1.8-0.2-2.7
		C270.9,8.5,256.7,10.3,256.7,19.8z"/>
	<g>
		<circle class="st0" cx="256.7" cy="84.7" r="8"/>
	</g>
	<path class="st1" d="M256.7,84.7c2.9,0,5.4,1.7,6.8,4c0.7-1.2,1.2-2.5,1.2-4c0-4.4-3.6-8-8-8c-4.4,0-8,3.6-8,8c0,1.5,0.5,2.8,1.2,4
		C251.3,86.3,253.8,84.7,256.7,84.7z"/>
	<path class="st5" d="M409,92.7c0-8.9-7.2-16-16-16v32.1C401.8,108.7,409,101.5,409,92.7z"/>
	<path class="st5" d="M136.5,92.7c0-8.9-7.2-16-16-16v32.1C129.3,108.7,136.5,101.5,136.5,92.7z"/>
	<path class="st6" d="M392.9,309L392.9,309c0,28.2-27.5,48.4-54.3,39.7c-3.4-1.1-6.8-2.3-10.1-3.6c3.9,4.2,9.7,8.9,16.2,13.7
		c13.8,9,30.3,14.3,48.1,14.3c46,0,83.7-35.2,87.7-80.1H409C400.1,293,392.9,300.2,392.9,309z"/>
	<path class="st6" d="M120.7,309L120.7,309c0,28.2-27.5,48.4-54.3,39.7c-3.4-1.1-6.8-2.3-10.1-3.6c3.9,4.2,9.7,8.9,16.2,13.7
		c13.8,9,30.3,14.3,48.1,14.3c46,0,83.7-35.2,87.7-80.1h-71.7C127.9,293,120.7,300.2,120.7,309z"/>
	<g>
		<path class="st7" d="M322.4,477.3c-8.3-14.4-23.8-24-41.6-24h-24v8c0,4.4-3.6,8-8,8h-51.7c-2.2,2.5-4.3,5.1-5.9,8h65.6H322.4z"/>
		<path class="st7" d="M256.7,493.3c0,4.4-3.6,8-8,8h-72.1c0,4.4,3.6,8,8,8h144.2c4.4,0,8-3.6,8-8v-16h-72.1
			C260.3,485.3,256.7,488.9,256.7,493.3L256.7,493.3z"/>
	</g>
</g>
</svg>
