<svg id="Capa_1" enable-background="new 0 0 497 497" height="512" viewBox="0 0 497 497" width="512" xmlns="http://www.w3.org/2000/svg"><path d="m495.953 359.025h-494.906c-.578 0-1.047-.469-1.047-1.047v-278.362c0-.578.469-1.047 1.047-1.047h494.906c.578 0 1.047.469 1.047 1.047v278.361c0 .579-.469 1.048-1.047 1.048z" fill="#d3ced5"/><path d="m495.953 78.569h-38.953v178.811c0 45.091-36.553 81.644-81.644 81.644h-375.356v18.953c0 .578.469 1.047 1.047 1.047h494.906c.578 0 1.047-.469 1.047-1.047v-278.361c0-.578-.469-1.047-1.047-1.047z" fill="#c3bec6"/><path d="m30 327.978v-218.362c0-.578.469-1.047 1.047-1.047h434.906c.578 0 1.047.469 1.047 1.047v218.362c0 .578-.469 1.047-1.047 1.047h-434.906c-.578 0-1.047-.469-1.047-1.047z" fill="#8eaadf"/><path d="m465.953 108.569h-38.953v128.636c0 39.665-32.155 71.82-71.82 71.82h-325.18v18.953c0 .578.469 1.047 1.047 1.047h434.906c.578 0 1.047-.469 1.047-1.047v-218.362c0-.578-.469-1.047-1.047-1.047z" fill="#698ed5"/><path d="m30 418.431h-27.954c-.552 0-.999-.447-.999-.999v-58.407h28.953z" fill="#b4acb7"/><path d="m494.954 418.431h-27.954v-59.406h28.953v58.407c0 .552-.447.999-.999.999z" fill="#b4acb7"/><path d="m30 393.431h437v25h-437z" fill="#958b95"/><path d="m467 296.297h-79.9v-15h79.9v-15h-79.9v-15h79.9v-15h-79.9v-10h79.9v-15h-79.9v-10h79.9v-15h-79.9v-15h79.9v-15h-79.9v-15h79.9v-15h-79.9v-17.728h-15v17.728h-72.4v-17.728h-15v17.728h-72.4v-17.728h-15v17.728h-72.4v-17.728h-15v17.728h-79.9v15h79.9v15h-79.9v15h79.9v15h-79.9v15h79.9v10h-79.9v15h79.9v10h-79.9v15h79.9v15h-79.9v15h79.9v15h-79.9v15h79.9v17.728h15v-17.728h72.4v17.728h15v-17.728h72.4v17.728h15v-17.728h72.4v17.728h15v-17.728h79.9zm-269.7 0h-72.4v-15h72.4zm0-30h-72.4v-15h72.4zm0-30h-72.4v-10h72.4zm0-25h-72.4v-10h72.4zm0-25h-72.4v-15h72.4zm0-30h-72.4v-15h72.4zm87.4 140h-72.4v-15h72.4zm0-30h-72.4v-15h72.4zm0-30h-72.4v-10h72.4zm0-25h-72.4v-10h72.4zm0-25h-72.4v-15h72.4zm0-30h-72.4v-15h72.4zm87.4 140h-72.4v-15h72.4zm0-30h-72.4v-15h72.4zm0-30h-72.4v-10h72.4zm0-25h-72.4v-10h72.4zm0-25h-72.4v-15h72.4zm0-30h-72.4v-15h72.4z" fill="#c3d5ef"/><path d="m427 211.297h40v15h-40zm-15.124 70h55.124v-15h-46.137c-2.386 5.38-5.414 10.412-8.987 15zm-56.696 27.728h-325.18v2.272h79.9v17.728h15v-17.728h72.4v17.728h15v-17.728h72.4v17.728h15v-17.728h72.4v17.728h15v-17.728h79.9v-15h-70.989c-11.594 8.026-25.663 12.728-40.831 12.728zm71.82-71.82c0 4.823-.476 9.535-1.382 14.092h41.382v-15h-40zm0-95.908h40v-15h-40zm0 60h40v-15h-40zm0-30h40v-15h-40z" fill="#b7c8ea"/></svg>