<?xml version="1.0" encoding="utf-8"?>
<!-- Generator: Adobe Illustrator 21.0.2, SVG Export Plug-In . SVG Version: 6.00 Build 0)  -->
<svg version="1.1" id="Layer_1" xmlns="http://www.w3.org/2000/svg" xmlns:xlink="http://www.w3.org/1999/xlink" x="0px" y="0px"
	 viewBox="0 0 512 512" style="enable-background:new 0 0 512 512;" xml:space="preserve">
<style type="text/css">
	.st0{fill:#576D7E;}
	.st1{fill:#35495C;}
	.st2{fill:#113247;}
</style>
<g>
	<g>
		<path class="st0" d="M256.9,146.4c-39.1,0-71-31.9-71-71c0-39.2,31.9-71,71-71s71,31.9,71,71C327.9,114.5,296,146.4,256.9,146.4z
			 M256.9,35.9c-21.7,0-39.4,17.7-39.4,39.5c0,21.8,17.7,39.5,39.4,39.5c21.7,0,39.4-17.7,39.4-39.5
			C296.3,53.6,278.6,35.9,256.9,35.9z"/>
	</g>
	<path class="st1" d="M327.9,75.4c0-2.7-0.2-5.3-0.5-7.9c-2.2,20-12.8,37.5-28.1,49c-7.7,5.8-18.7,0-18.7-9.7v0
		c-2.4,1.8-5,3.5-7.9,4.7v17.3c-5.1,1.2-10.3,1.8-15.8,1.8c-5.4,0-10.7-0.7-15.8-1.8v-17.3c-2.8-1.2-5.4-2.9-7.9-4.7v0
		c0,9.6-11,15.4-18.7,9.7c-15.3-11.5-25.9-29-28.1-49c-0.3,2.6-0.5,5.2-0.5,7.9c0,33.7,23.6,62,55.2,69.2c0,0,0,0,0.1,0v0
		c5.1,1.2,10.3,1.8,15.8,1.8s10.7-0.7,15.8-1.8v0c0,0,0,0,0.1,0C304.3,137.3,327.9,109.1,327.9,75.4z"/>
	<path class="st0" d="M422.5,327.9c0-8.7-7.1-15.8-15.8-15.8c-8.7,0-15.8,7.1-15.8,15.8c0,50-40.4,83.5-88.6,96.5
		c-12.8,1.9-29.7-13.2-29.7-29.4l0-288c0-0.6-0.1-1-0.1-1.3c-0.7-8.1-7.4-14.5-15.6-14.5c-8.7,0-15.8,7.1-15.8,15.8l0,288
		c0,17.1-20.3,32.5-33.2,28.5c-46.6-13.6-85.1-46.8-85.1-95.6c0-8.7-7.1-15.8-15.8-15.8c-8.7,0-15.8,7.1-15.8,15.8
		c0,49.9,30.3,94.2,72.5,121.5c0.1,0.1,0.1,0.1,0.3,0.3l84.7,57.5c2.5,1.5,5.3,2.3,8.1,2.3h0h0c2.8,0,5.6-0.8,8.1-2.3l84.7-57.5
		c0.2-0.1,0.2-0.2,0.3-0.3C392.3,422.1,422.5,377.8,422.5,327.9z"/>
	<path class="st1" d="M406.8,312.1c-6.4,0-11.9,3.8-14.4,9.3c2-0.9,4.2-1.4,6.5-1.4c8.7,0,15.8,7.1,15.8,15.8
		c0,35.4-15.3,67.9-39.2,93.6c28.4-26.7,47-62.3,47-101.5C422.5,319.2,415.5,312.1,406.8,312.1z"/>
	<path class="st0" d="M335.8,162.2c-7,0-13.2,3.1-17.5,7.9H187.6c-4.3-4.8-10.5-7.9-17.5-7.9c-13.1,0-23.7,10.6-23.7,23.7
		c0,13.1,10.6,23.7,23.7,23.7c7,0,13.2-3.1,17.6-7.9h130.5c4.3,4.8,10.6,7.9,17.6,7.9c13.1,0,23.7-10.6,23.7-23.7
		C359.4,172.8,348.8,162.2,335.8,162.2z"/>
	<g>
		<path class="st1" d="M130.8,343.7c-0.1,0-0.1,0-0.2,0H83.3c-5.5,0-10.5-2.8-13.4-7.5c-2.9-4.6-3.1-10.5-0.7-15.4l23.7-47.4
			c2.7-5.3,8.1-8.7,14.1-8.7c6,0,11.4,3.4,14.1,8.7l22.8,45.5c1.7,2.5,2.7,5.6,2.7,8.9C146.6,336.6,139.5,343.7,130.8,343.7z"/>
	</g>
	<g>
		<path class="st1" d="M430.6,343.7c-0.1,0-0.1,0-0.2,0h-47.3c-5.5,0-10.5-2.8-13.4-7.5c-2.9-4.6-3.1-10.5-0.7-15.4l23.7-47.4
			c2.7-5.3,8.1-8.7,14.1-8.7c6,0,11.4,3.4,14.1,8.7l22.8,45.5c1.7,2.5,2.7,5.6,2.7,8.9C446.4,336.6,439.3,343.7,430.6,343.7z"/>
	</g>
	<path class="st1" d="M207.9,423.5c-38.6-11.3-71.6-36-81.8-71.9h0c-0.7-2.6-1.3-5.2-1.8-7.8c0,0,0,0,0,0h-8.9h-23
		c0.3,2.7,0.8,5.3,1.3,7.9h10.6c6.9,0,12.9,4.6,15,11.1c11.2,34.1,43.3,57.7,80.8,68.6c8.8,2.7,20.9-3.5,27.8-13.1
		C221.4,423,213.9,425.4,207.9,423.5z"/>
	<path class="st1" d="M389.5,343.7c-7.5,41.3-44.2,69.1-87.1,80.7c-12.8,1.9-29.7-13.2-29.7-29.4l0-185.5h0v-7.9h-31.6v7.9h7.9
		c4.4,0,7.9,3.5,7.9,7.9v259.8c0,9.3-8.1,16.5-17.4,15.7c-5-0.4-9.8-1-14.3-1.8l23.6,16c2.5,1.5,5.3,2.2,8.1,2.2c0,0,0,0,0,0h0h0
		c2.8,0,5.6-0.8,8.1-2.3l84.7-57.5c0.2-0.1,0.2-0.2,0.3-0.3c37.7-24.4,65.8-62.3,71.4-105.7H389.5z"/>
	<path class="st0" d="M387.7,351.6c-10.2,35.8-43,60.5-81.6,71.8c-6,1.9-13.7,0.6-20.1-4.2c6.9,9.6,19,14.9,27.8,12.2
		c37.7-11,72.4-34.9,84.8-69.4c1.8-5.1-2.2-10.4-7.5-10.4H387.7z"/>
	<g>
		<path class="st1" d="M272.6,114.6c-0.2-8.6-7.1-15.5-15.7-15.5c0,13.7,0,41.6,0,55.3c0,4.4-3.5,7.9-7.9,7.9h-7.9v7.9h15.7h15.8
			C272.7,170.1,272.6,132.2,272.6,114.6z"/>
	</g>
	<path class="st1" d="M348,165.7c2.2,3.6,3.5,7.8,3.5,12.3c0,13.1-10.6,23.7-23.7,23.7c-4.5,0-8.7-1.3-12.3-3.5
		c4.2,6.8,11.6,11.4,20.2,11.4c13.1,0,23.7-10.6,23.7-23.7C359.4,177.3,354.9,169.9,348,165.7z"/>
	<path class="st1" d="M182.3,165.7c2.2,3.6,3.5,7.8,3.5,12.3c0,13.1-10.6,23.7-23.7,23.7c-4.5,0-8.7-1.3-12.3-3.5
		c4.2,6.8,11.6,11.4,20.2,11.4c13.1,0,23.7-10.6,23.7-23.7C193.7,177.3,189.1,169.9,182.3,165.7z"/>
	<path class="st1" d="M313.5,193.8L313.5,193.8c-0.9-2.5-1.4-5.1-1.4-7.9c0-4.5,1.3-8.7,3.5-12.3c-3.4,2.1-6.1,5-8.1,8.4
		c-1.4,2.4-4,3.8-6.7,3.8H205c-2.8,0-5.4-1.4-6.7-3.8c-2-3.4-4.7-6.4-8.1-8.4c2.2,3.6,3.5,7.8,3.5,12.3l-7.9,15.8h132.4
		C316.2,199.4,314.6,196.7,313.5,193.8z"/>
	<path class="st2" d="M430.4,343.7h0.2c6.4,0,12.5-3.8,14.7-9.9c2-5.5,1.1-10.8-1.7-14.8c0,0-9.7-19.2-18.8-37.7
		c-3.5-7-18-5.7-18,5.3v25.5c0,8.7-7.1,15.8-15.8,15.8h-23.6c0,2.9,0.7,5.8,2.3,8.3c2.9,4.7,7.9,7.5,13.4,7.5h23.7H430.4z"/>
	<path class="st2" d="M130.4,343.7h0.2c6.4,0,12.5-3.8,14.7-9.9c2-5.5,1.1-10.8-1.7-14.8c0,0-9.7-19.2-18.8-37.7
		c-3.5-7-18-5.7-18,5.3v25.5c0,8.7-7.1,15.8-15.8,15.8H67.4c0,2.9,0.7,5.8,2.3,8.3c2.9,4.7,7.9,7.5,13.4,7.5h23.7H130.4z"/>
	<path class="st1" d="M256.9,35.9c20.4,0,37.1,15.6,39.1,35.5c0.1-1.3,0.4-2.6,0.4-3.9c0-21.8-17.7-39.5-39.5-39.5
		c-21.8,0-39.5,17.7-39.5,39.5c0,1.4,0.3,2.6,0.4,3.9C219.8,51.5,236.4,35.9,256.9,35.9z"/>
</g>
</svg>
