<?xml version="1.0" encoding="utf-8"?>
<!-- Generator: Adobe Illustrator 21.0.2, SVG Export Plug-In . SVG Version: 6.00 Build 0)  -->
<svg version="1.1" id="Layer_1" xmlns="http://www.w3.org/2000/svg" xmlns:xlink="http://www.w3.org/1999/xlink" x="0px" y="0px"
	 viewBox="0 0 512 512" style="enable-background:new 0 0 512 512;" xml:space="preserve">
<style type="text/css">
	.st0{fill:#D89C44;}
	.st1{fill:#F7C24F;}
	.st2{fill:#F6B74E;}
	.st3{fill:#FCCF63;}
	.st4{fill:#FFFFFF;}
	.st5{fill:#C9D1D7;}
</style>
<g>
	<path class="st0" d="M505,69.1H9L61,31.7c7.2-5.1,20.3-9.4,29.3-9.4h325.3c8.9,0,22.1,4.2,29.3,9.4L505,69.1z"/>
	<path class="st1" d="M505,474.2c0,8.6-7.3,15.6-16.3,15.6H25.2c-8.9,0-16.3-7-16.3-15.6L9,69.1h496L505,474.2z"/>
	<polygon class="st2" points="350.5,69.1 155.3,69.1 179.7,22.3 326.1,22.3 	"/>
	<path class="st2" d="M488.7,489.8c8.9,0,16.3-7,16.3-15.6l0-389.6H277.3c-13.5,0-24.4,10.5-24.4,23.4v342.8
		c0,12.9-10.9,23.4-24.4,23.4H9c0,8.6,7.3,15.6,16.3,15.6h227.7H488.7z"/>
	<path class="st3" d="M155.3,69.1v135.2c0,4.3,2.9,5.7,6.5,3.1l19.5-14c3.6-2.6,9.4-2.6,13,0l19.5,14c3.6,2.6,9.4,2.6,13,0l19.5-14
		c3.6-2.6,9.4-2.6,13,0l19.5,14c3.6,2.6,9.4,2.6,13,0l19.5-14c3.6-2.6,9.4-2.6,13,0l19.5,14c3.6,2.6,6.5,1.2,6.5-3.1V69.1H155.3z"/>
	<path class="st1" d="M277.3,84.7c-13.5,0-24.4,10.5-24.4,23.4v83.4c2.4,0,4.7,0.6,6.5,1.9l19.5,14c3.6,2.6,9.4,2.6,13,0l19.5-14
		c3.6-2.6,9.4-2.6,13,0l19.5,14c3.6,2.6,6.5,1.2,6.5-3.1V84.7H277.3z"/>
	<path class="st4" d="M456.2,427.5c0,8.6-7.3,15.6-16.3,15.6H326.1c-8.9,0-16.3-7-16.3-15.6v-62.3c0-8.6,7.3-15.6,16.3-15.6h113.8
		c8.9,0,16.3,7,16.3,15.6V427.5z"/>
	<g>
		<path class="st5" d="M431.8,388.5h-97.6c-4.5,0-8.1-3.5-8.1-7.8c0-4.3,3.6-7.8,8.1-7.8h97.6c4.5,0,8.1,3.5,8.1,7.8
			C439.9,385,436.3,388.5,431.8,388.5z"/>
	</g>
	<g>
		<path class="st5" d="M431.8,419.7h-97.6c-4.5,0-8.1-3.5-8.1-7.8c0-4.3,3.6-7.8,8.1-7.8h97.6c4.5,0,8.1,3.5,8.1,7.8
			C439.9,416.2,436.3,419.7,431.8,419.7z"/>
	</g>
</g>
</svg>
