<?xml version="1.0" encoding="utf-8"?>
<!-- Generator: Adobe Illustrator 21.0.2, SVG Export Plug-In . SVG Version: 6.00 Build 0)  -->
<svg version="1.1" id="Capa_1" xmlns="http://www.w3.org/2000/svg" xmlns:xlink="http://www.w3.org/1999/xlink" x="0px" y="0px"
	 viewBox="0 0 512 512" style="enable-background:new 0 0 512 512;" xml:space="preserve">
<style type="text/css">
	.st0{fill:#C74446;}
	.st1{fill:#DD4D4E;}
	.st2{fill:#DA7B87;}
	.st3{fill:#EAB1B7;}
	.st4{fill:#756E76;}
	.st5{fill:#5F5A61;}
</style>
<path class="st0" d="M406.1,349.9v122H105.9v-122L406.1,349.9z M406.1,197.1H105.9v122h300.1V197.1z M406.1,166.3v-122H105.9v122
	H406.1z"/>
<path class="st1" d="M301.3,451.1H105.9v20.9h300.1v-122h-41.8v38.2C364.3,422.9,336.1,451.1,301.3,451.1L301.3,451.1z"/>
<path class="st1" d="M301.3,298.2H105.9v20.9h300.1v-122h-41.8v38.2C364.3,270,336.1,298.2,301.3,298.2L301.3,298.2z"/>
<path class="st1" d="M364.3,44.3v38.2c0,34.8-28.2,63-63,63H105.9v20.9h300.1v-122H364.3z"/>
<path class="st2" d="M406.1,140.3H105.9c-4.3,0-7.8-3.5-7.8-7.8c0-4.3,3.5-7.8,7.8-7.8h300.1c4.3,0,7.8,3.5,7.8,7.8
	C413.9,136.8,410.4,140.3,406.1,140.3z M413.9,98.7c0-4.3-3.5-7.8-7.8-7.8H105.9c-4.3,0-7.8,3.5-7.8,7.8s3.5,7.8,7.8,7.8h300.1
	C410.4,106.6,413.9,103.1,413.9,98.7z M413.9,383.7c0-4.3-3.5-7.8-7.8-7.8H105.9c-4.3,0-7.8,3.5-7.8,7.8c0,4.3,3.5,7.8,7.8,7.8
	h300.1C410.4,391.5,413.9,388,413.9,383.7z M413.9,417.5c0-4.3-3.5-7.8-7.8-7.8H105.9c-4.3,0-7.8,3.5-7.8,7.8s3.5,7.8,7.8,7.8h300.1
	C410.4,425.3,413.9,421.8,413.9,417.5z"/>
<g>
	<path class="st3" d="M413.9,417.5c0-4.3-3.5-7.8-7.8-7.8h-45.5c-2.1,5.6-4.9,10.9-8.4,15.7h53.9
		C410.4,425.3,413.9,421.8,413.9,417.5z"/>
	<path class="st3" d="M406.1,140.3c4.3,0,7.8-3.5,7.8-7.8c0-4.3-3.5-7.8-7.8-7.8h-58c-6.1,6.7-13.5,12.1-21.9,15.7H406.1z"/>
	<path class="st3" d="M406.1,90.9h-42.3c-0.7,5.5-2.2,10.7-4.2,15.7h46.6c4.3,0,7.8-3.5,7.8-7.8S410.4,90.9,406.1,90.9z"/>
	<path class="st3" d="M406.1,375.9h-41.8v12.2c0,1.2,0,2.3-0.1,3.4h41.8c4.3,0,7.8-3.5,7.8-7.8C413.9,379.4,410.4,375.9,406.1,375.9
		L406.1,375.9z"/>
</g>
<path class="st4" d="M410.1,5.6H101.9c-9.4,0-17,7.6-17,17v12.5c0,9.4,7.6,17,17,17h308.2c9.4,0,17-7.6,17-17V22.6
	C427.1,13.2,419.4,5.6,410.1,5.6L410.1,5.6z"/>
<path class="st4" d="M410.1,158.4H101.9c-9.4,0-17,7.6-17,17v12.5c0,9.4,7.6,17,17,17h308.2c9.4,0,17-7.6,17-17v-12.5
	C427.1,166.1,419.4,158.4,410.1,158.4L410.1,158.4z"/>
<path class="st4" d="M410.1,311.3H101.9c-9.4,0-17,7.6-17,17v12.5c0,9.4,7.6,17,17,17h308.2c9.4,0,17-7.6,17-17v-12.5
	C427.1,318.9,419.4,311.3,410.1,311.3L410.1,311.3z"/>
<path class="st4" d="M410.1,464.1H101.9c-9.4,0-17,7.6-17,17v12.5c0,9.4,7.6,17,17,17h308.2c9.4,0,17-7.6,17-17v-12.5
	C427.1,471.7,419.4,464.1,410.1,464.1L410.1,464.1z"/>
<path class="st5" d="M411.1,476.9H102.9c-9.4,0-17-5.4-17,4v12.5c0,9.4,7.6,5,17,5h308.2c9.4,0,17,4.4,17-5v-12.5
	C428.1,471.5,420.4,476.9,411.1,476.9L411.1,476.9z"/>
</svg>
