<?xml version="1.0" encoding="utf-8"?>
<!-- Generator: Adobe Illustrator 21.0.2, SVG Export Plug-In . SVG Version: 6.00 Build 0)  -->
<svg version="1.1" id="Layer_1" xmlns="http://www.w3.org/2000/svg" xmlns:xlink="http://www.w3.org/1999/xlink" x="0px" y="0px"
	 viewBox="0 0 512 512" style="enable-background:new 0 0 512 512;" xml:space="preserve">
<style type="text/css">
	.st0{fill:#83BD5A;}
	.st1{fill:#576D7E;}
	.st2{fill:#B1C3D0;}
</style>
<g>
	<path class="st0" d="M507,220.5C491,110.5,400.2,20.4,290.3,5.8c-4.5-0.6-9,0.8-12.4,3.7c-3.4,3-5.3,7.3-5.3,11.8v78.3
		c0,7.4,5.2,13.9,12.5,15.3c55.2,11.2,101.7,57.7,113.1,113.1c1.5,7.3,7.9,12.5,15.3,12.5h78.3c0.1,0,0.1,0,0.2,0
		c8.6,0,15.7-7,15.7-15.7C507.6,223.4,507.4,221.9,507,220.5z"/>
	<path class="st1" d="M503.6,277.2c-3-3.4-7.3-5.3-11.8-5.3h-78.3c-7.5,0-13.9,5.3-15.4,12.6c-12.9,64.3-73.7,112.7-141.3,112.7
		c-77.7,0-141-63.2-141-141c0-67.4,48.5-128.1,112.8-141.3c7.3-1.5,12.5-7.9,12.5-15.3V21.3c0-4.5-1.9-8.8-5.3-11.8
		c-3.4-3-7.9-4.4-12.4-3.7C99.7,22.1,6.3,129.8,6.3,256.2c0,138.2,112.4,250.6,250.6,250.6c126.4,0,234.1-93.4,250.5-217.2
		C507.9,285.1,506.5,280.6,503.6,277.2z"/>
	<g>
		<path class="st2" d="M272.5,303.2c0,17.3,14,31.3,31.3,31.3c17.3,0,31.3-14,31.3-31.3c0-17.3-14-31.3-31.3-31.3
			S272.5,285.9,272.5,303.2z M311.7,303.2c0,4.3-3.5,7.8-7.8,7.8c-4.3,0-7.8-3.5-7.8-7.8c0-4.3,3.5-7.8,7.8-7.8
			C308.2,295.4,311.7,298.9,311.7,303.2z"/>
	</g>
	<g>
		<path class="st2" d="M209.9,177.9c-17.3,0-31.3,14-31.3,31.3c0,17.3,14,31.3,31.3,31.3c17.3,0,31.3-14,31.3-31.3
			C241.2,191.9,227.2,177.9,209.9,177.9z M209.9,217.1c-4.3,0-7.8-3.5-7.8-7.8c0-4.3,3.5-7.8,7.8-7.8c4.3,0,7.8,3.5,7.8,7.8
			C217.7,213.6,214.2,217.1,209.9,217.1z"/>
	</g>
	<g>
		<g>
			<path class="st2" d="M202,326.7c-4,0-8-1.5-11.1-4.6c-6.1-6.1-6.1-16,0-22.1l109.6-109.6c6.1-6.1,16-6.1,22.1,0
				c6.1,6.1,6.1,16,0,22.1L213.1,322.1C210.1,325.2,206.1,326.7,202,326.7z"/>
		</g>
	</g>
</g>
</svg>
