<?xml version="1.0" encoding="utf-8"?>
<!-- Generator: Adobe Illustrator 21.0.2, SVG Export Plug-In . SVG Version: 6.00 Build 0)  -->
<svg version="1.1" id="Layer_1" xmlns="http://www.w3.org/2000/svg" xmlns:xlink="http://www.w3.org/1999/xlink" x="0px" y="0px"
	 viewBox="0 0 447.8 447.8" style="enable-background:new 0 0 447.8 447.8;" xml:space="preserve">
<style type="text/css">
	.st0{fill:#50BEE7;}
	.st1{fill:#009FC4;}
	.st2{fill-rule:evenodd;clip-rule:evenodd;fill:#B6D677;}
	.st3{fill-rule:evenodd;clip-rule:evenodd;fill:#83BD5A;}
	.st4{fill:#83BD5A;}
</style>
<g>
	<circle class="st0" cx="224.4" cy="224.5" r="219.5"/>
	<path class="st1" d="M353.7,47.1c26.5,36.3,42.2,81,42.2,129.3c0,121.2-98.3,219.5-219.5,219.5C128,396,83.3,380.3,47,353.8
		C87,408.5,151.5,444,224.4,444c121.3,0,219.5-98.3,219.5-219.5C443.9,151.6,408.4,87,353.7,47.1z"/>
	<path class="st2" d="M313.9,60c0,0,3.4-12.6,4.6-21.5c4.1-1.9,20.7,9.6,34.8,24.3c-9.5,35.2-31.7,33.1-31.7,33.1
		s-18.3-0.4-16.2-14.1L313.9,60z"/>
	<path class="st2" d="M264.6,81.5c2.1-4.2,7.4-6.3,12.7-8.5c5.3-2.1,0,9.5-1,15.8c-1.1,6.3-2.1,9.5,5.3,16.9
		c7.4,7.4-13.7,2.1-19-2.1C257.2,99.4,264.6,81.5,264.6,81.5z"/>
	<path class="st2" d="M169,287.4c-1.1,5.3-11,17.9-15.2,26.4c-4.2,8.4-6.3,11.6-11.6,15.8c-5.3,4.2-8.4,11.6-8.4,11.6l1.4,17.9
		c0,0,5.3,11.6,8.5,16.9c3.2,5.3-6.3,33.8-6.3,33.8c-9.1-1.8-17.9-4.2-21.1-12.7c-3.2-8.4-7.7-8.4-6.7-18
		c1.1-9.5-14.8-21.1-17.9-26.4c-3.2-5.3-7.4-12.7-7.4-17.9c0-5.3-11.6-12.7-11.6-12.7s-21.1-9.5-24.3-13.7
		c-3.2-4.2-6.3-22.2-7.4-29.6c-1.1-7.4,3.2-26.4,3.2-26.4s8.4-6.3,3.2-11.6c-5.3-5.3-6.3-19-6.3-19l-9.5-10.6c0,0-7.4-10.6-8.5-15.8
		c-1-5.3,0-8.5,1.1-13.7c1.1-5.3-2.1-14.8-2.1-20.1C61.1,65,127.3,42.4,127.3,42.4l5.3,22.2c0,0-11.6,3.2-18,1.1
		c-6.3-2.1-9.5-2.1-9.5-2.1l-8.4,11.6c0,0-3.2,7.4-4.2,11.6c-1.1,4.2,2.1,10.6,2.1,10.6s14.8,1.1,14.8-3.2c0-4.2-2.1-6.3-2.1-6.3
		l-2.1-7.4c0,0,9.5-5.3,34.9-3.2c25.3,2.1,15.8,20.1,26.4,24.3c10.6,4.2-8.4,19-12.7,27.5c-4.2,8.4-10.6-10.6-10.6-10.6
		s6.3-7.4-4.2-9.5c-10.6-2.1-12.7,11.6-7.4,10.6c5.3-1.1,6.3,6.3,5.3,11.6c-1.1,5.3-1.1,11.6-6.3,23.2
		c-5.3,11.6-25.3,11.6-25.3,11.6s3.2,5.3,6.3,11.6c3.2,6.3-1.1,21.1-1.1,25.4c0,4.2-12.7-7.4-14.8-18c-2.1-10.6-8.5-6.7-12.7-5.6
		c-4.2,1.1-18,4.2-20.1-1.1c-2.1-5.3-21.1,9.8-26.4,13c-5.3,3.2-3.2,11.6,5.3,7.4c8.4-4.2,15.8-1.1,13.7,7.4
		c-2.1,8.4-10.6,3.2-9.5,8.4c1,5.3,9.5,10.6,11.6,18c2.1,7.4,22.2-3.2,28.5-6.3c6.3-3.2,24.3-6.4,26.4,2.1
		c2.1,8.4,25.8,15.8,33.2,17.9c7.4,2.1,22.2,3.2,30.6,11.6C184.8,266.3,170,282.1,169,287.4z"/>
	<path class="st3" d="M137.1,409.9c0,0,2.7-8.2,4.8-16.7c-11-1.7-21.7-4.4-32.2-7.7c1.2,3.9,4.1,5.7,6.3,11.7
		C119.2,405.7,128,408.1,137.1,409.9z"/>
	<path class="st2" d="M212.9,40.3c-1.1,10.6-19.4,26.4-17.2,30.6c2.1,4.2,1.4,37-13.4,21.1c-14.8-15.9-29.6-38-28.5-48.6
		c0.2-2.1,0.5-5.5,0.7-9.1c22.4-20.8,73-16.5,75.7-11.6C223.8,33.2,213.9,29.7,212.9,40.3z"/>
	<path class="st2" d="M237.2,102.6c-3.2-5.3,7.4-8.5,7.4-8.5c14.8,3.2,9.2,13.7,8.1,18C251.6,116.3,240.3,107.9,237.2,102.6z"/>
	<path class="st2" d="M404,228.6c0,0,8.1,12,19.7,11.3c-7.6,88.3-81.3,145-81.3,145c-11.3-11.2-5.6-21.1-5.6-21.1l6.8-16.9l1.8-28.5
		c0,0-3.6-29.6-31.8-15.5c-30.3,7.8-17.6,11.4-48.2,13.5c-30.6,2.1-19-59.6-19-59.6c-1.8-25.4,2.8-19,2.8-38.7
		c0-19.7,64.8-8.4,64.8-8.4c42.2,28.2,47.9-6.3,47.9-6.3l31-11.3l2.8-14.1l-16.9-19.7l-25.3-11.3c0,0-11.6,7.4,0,25.4
		c0,0-3.9,20.4-13.4,15.1l-26-32c0,0-8.8,15.1-22.9,23.6c-14.1,8.4-38-0.4-38-0.4s-7.7-23.9,7.1-31.3l21.8-0.3
		c0,0-4.6-12.3-1.8-23.6c2.8-11.3,9.2-1.4,20.4-9.8c11.3-8.5,19,16.5,35.9,13.7c16.9-2.8,8.4-5.6,19.7-11.3
		c11.3-5.6,19.7,11.3,19.7,11.3l22.5,2.8c0,0-14.4-38.5-19.6-43.7c-0.6-0.1-1.1-0.1-1.6,0.1c0.3-0.9,0.8-0.8,1.6-0.1
		c13.1,2.4,58.3,80,45,126.4c-4.7-2.1-8.5-3.8-8.5-3.8h-28.2L404,228.6z"/>
	<g>
		<path class="st4" d="M404,228.6l-11.6-13.5c-6.8,38.3-23.5,73.1-47.4,101.8c0.2,0.9,0.3,1.5,0.3,1.5l-1.8,28.5l-6.8,16.9
			c0,0-5.6,9.9,5.6,21.1c0,0,73.7-56.7,81.3-145C412.1,240.6,404,228.6,404,228.6z"/>
		<path class="st4" d="M377.3,86.4c0.4-0.2,1-0.2,1.6-0.1C378.1,85.6,377.5,85.5,377.3,86.4z"/>
		<path class="st4" d="M395.9,176.4c0,11-0.8,21.9-2.4,32.5h21.8c0,0,3.9,1.7,8.5,3.8c13.3-46.4-31.9-124-45-126.4
			c5.1,5.2,19.6,43.7,19.6,43.7l-7.8-1C394,144.3,395.9,160.2,395.9,176.4z"/>
	</g>
</g>
</svg>
