<?xml version="1.0" encoding="utf-8"?>
<!-- Generator: Adobe Illustrator 21.0.2, SVG Export Plug-In . SVG Version: 6.00 Build 0)  -->
<svg version="1.1" id="Capa_1" xmlns="http://www.w3.org/2000/svg" xmlns:xlink="http://www.w3.org/1999/xlink" x="0px" y="0px"
	 viewBox="0 0 512 512" style="enable-background:new 0 0 512 512;" xml:space="preserve">
<style type="text/css">
	.st0{fill:#B1C3D0;}
	.st1{fill:#D2453C;}
	.st2{fill:#35495C;}
	.st3{fill:#BB3D34;}
	.st4{fill:#A9362E;}
	.st5{fill:#E2E4E6;}
	.st6{fill:#8EADBE;}
	.st7{fill:#113247;}
</style>
<g>
	<g>
		<rect x="143.1" y="313.5" class="st0" width="32.5" height="194.7"/>
	</g>
	<path class="st1" d="M394.6,118.8H208v-14.9c0-7.5,2.1-15.1,6.7-21.1c6.3-8.1,15.7-12.7,25.8-12.7h128.4
		c16.9,0,32.1-12.4,33.7-29.2c1.9-19.3-13.3-35.7-32.3-35.7H224.2c-53.8,0-97.4,43.6-97.3,97.4l0,16.2h-5.7
		c-19,0-37.8,6.3-51.8,19.2c-15.2,14-23.6,33.3-23.6,53.8v64.9c0,17.9,14.5,32.5,32.5,32.5h357c17.9,0,32.5-14.5,32.5-32.5v-64.9
		C467.6,151.5,434.9,118.8,394.6,118.8z"/>
	<g>
		<path class="st2" d="M143.1,321.7c-17.9,0-16.2-14.6-16.2-32.5h64.9c0,17.9,1.7,32.5-16.2,32.5H143.1z"/>
	</g>
	<path class="st3" d="M45.8,208.1v48.7c0,17.9,14.5,32.5,32.5,32.5h357c17.9,0,32.5-14.5,32.5-32.5v-48.7H45.8z"/>
	<path class="st3" d="M175.6,102.6v16.2h2.1H208v-16.2c0-8.7,3.4-16.8,9.5-23c6.1-6.1,14.3-9.5,22.9-9.5h0h129.8
		c17.9,0,32.5-14.6,32.5-32.5H240.5C204.6,37.7,175.6,66.8,175.6,102.6z"/>
	<path class="st4" d="M102.6,216.2H45.8V200h56.8c4.5,0,8.1,3.6,8.1,8.1l0,0C110.7,212.6,107,216.2,102.6,216.2z"/>
	<path class="st4" d="M45.8,191.8h56.8c4.5,0,8.1-3.6,8.1-8.1l0,0c0-4.5-3.6-8.1-8.1-8.1H47.6C46.4,180.9,45.8,186.3,45.8,191.8z"/>
	<path class="st4" d="M102.6,240.5H45.8v-16.2h56.8c4.5,0,8.1,3.6,8.1,8.1l0,0C110.7,236.9,107,240.5,102.6,240.5z"/>
	<g>
		<path class="st0" d="M410.8,167.5c0,9-7.3,16.2-16.2,16.2c-9,0-16.2-7.3-16.2-16.2c0-9,7.3-16.2,16.2-16.2
			C403.6,151.3,410.8,158.5,410.8,167.5z"/>
	</g>
	<g>
		<path class="st0" d="M362.2,167.5c0,9-7.3,16.2-16.2,16.2c-9,0-16.2-7.3-16.2-16.2c0-9,7.3-16.2,16.2-16.2
			C354.9,151.3,362.2,158.5,362.2,167.5z"/>
	</g>
	<path class="st4" d="M345.9,183.7c-7.6,0-13.8-5.2-15.7-12.2c-0.3,1.3-0.6,2.6-0.6,4.1c0,9,7.3,16.2,16.2,16.2
		c9,0,16.2-7.3,16.2-16.2c0-1.4-0.2-2.8-0.6-4.1C359.8,178.5,353.5,183.7,345.9,183.7z"/>
	<path class="st4" d="M394.6,183.7c-7.6,0-13.8-5.2-15.7-12.2c-0.3,1.3-0.6,2.6-0.6,4.1c0,9,7.3,16.2,16.2,16.2
		c9,0,16.2-7.3,16.2-16.2c0-1.4-0.2-2.8-0.6-4.1C408.4,178.5,402.2,183.7,394.6,183.7z"/>
	<path class="st5" d="M357.4,156c-6.3-6.3-16.6-6.3-22.9,0c-6.3,6.3-6.3,16.6,0,22.9L357.4,156z"/>
	<path class="st5" d="M406.1,156c-6.3-6.3-16.6-6.3-22.9,0c-6.3,6.3-6.3,16.6,0,22.9L406.1,156z"/>
	<path class="st6" d="M143.1,410.9v8.1l0,0c9,0,16.2,7.3,16.2,16.2v32.5c0,9,7.3,16.2,16.2,16.2V419v-8.1H143.1z"/>
	<path class="st6" d="M143.1,321.7v8.1l0,0c9,0,16.2,7.3,16.2,16.2v16.2c0,9,7.3,16.2,16.2,16.2v-48.7v-8.1H143.1z"/>
	<path class="st7" d="M126.9,297.3h24.4c4.5,0,8.1,3.6,8.1,8.1v16.2h16.2c17.9,0,16.2-14.6,16.2-32.5h-32.5h-32.5
		C126.9,292,126.9,294.7,126.9,297.3z"/>
</g>
</svg>
