<?xml version="1.0" encoding="utf-8"?>
<!-- Generator: Adobe Illustrator 21.0.2, SVG Export Plug-In . SVG Version: 6.00 Build 0)  -->
<svg version="1.1" id="Layer_1" xmlns="http://www.w3.org/2000/svg" xmlns:xlink="http://www.w3.org/1999/xlink" x="0px" y="0px"
	 viewBox="0 0 454.2 454.2" style="enable-background:new 0 0 454.2 454.2;" xml:space="preserve">
<style type="text/css">
	.st0{fill:#F6B74E;}
	.st1{fill:#576D7E;}
	.st2{fill:#35495C;}
	.st3{fill:#D89C44;}
</style>
<g>
	<g>
		<g>
			<path class="st0" d="M297.6,256.2c-2.3-2.3-4.1-5.2-5.1-8.4L274,188.2l-59.7-18.6c-7.4-2.3-12.9-8.6-14.1-16.4
				c-1.2-7.7,2.1-15.4,8.4-19.9l50.9-36l-0.9-62.4c-0.1-7.8,4.2-15,11.2-18.5c7-3.6,15.3-2.8,21.5,1.8l50.1,37.4l59.1-20
				c7.4-2.5,15.5-0.6,21,4.9c5.5,5.5,7.4,13.6,4.9,21l-20,59.1l37.4,50.1c4.7,6.2,5.4,14.6,1.8,21.5c-3.5,7-10.7,11.3-18.5,11.2
				l-62.4-0.9l-36,50.9c-4.5,6.4-12.2,9.6-19.9,8.4C304.6,261.3,300.6,259.2,297.6,256.2z"/>
		</g>
	</g>
	<path class="st1" d="M274,188.2l-22.3-7L13,406.1c-8.1,8.1-8.1,21.2,0,29.2c4,4,9.3,6.1,14.6,6.1c5.3,0,10.6-2,14.6-6.1
		l238.7-224.9L274,188.2z"/>
	<path class="st2" d="M274,188.2l-22.3-7l-6.9,6.9l11.4,3.6c4.9,1.5,6.5,7.8,2.8,11.5L21.8,426.5c-5.3,5.3-1.9,14.8,5.6,14.9
		c0.1,0,0.1,0,0.2,0c5.3,0,10.6-2,14.6-6.1l238.7-224.9L274,188.2z"/>
	<path class="st3" d="M406.5,120.7l20-59.1c2.5-7.4,0.6-15.5-4.9-21c-3.5-3.5-8.1-5.6-12.9-5.9l-105,225.7c1.7,0.8,3.4,1.3,5.3,1.6
		c7.7,1.2,15.4-2.1,19.9-8.4l36-50.9l62.4,0.9c7.8,0.1,15-4.2,18.5-11.2c3.5-7,2.8-15.3-1.8-21.5L406.5,120.7z"/>
	<polygon class="st3" points="277.2,198.7 291.1,243 385.1,40.9 344.2,54.7 	"/>
</g>
</svg>
