<svg id="Capa_1" enable-background="new 0 0 512.126 512.126" height="512" viewBox="0 0 512.126 512.126" width="512" xmlns="http://www.w3.org/2000/svg"><path d="m201.93 279.542c-4.143 0-7.5-3.358-7.5-7.5v-245.287c0-4.142 3.357-7.5 7.5-7.5s7.5 3.358 7.5 7.5v245.287c0 4.142-3.357 7.5-7.5 7.5zm115.766-7.5v-245.287c0-4.142-3.357-7.5-7.5-7.5s-7.5 3.358-7.5 7.5v245.287c0 4.142 3.357 7.5 7.5 7.5s7.5-3.358 7.5-7.5z" fill="#f9ef63"/><path d="m119.559 25h32.079v377.121h-32.079z" fill="#d3ced5"/><path d="m360.488 25h32.079v377.121h-32.079z" fill="#d3ced5"/><path d="m403.462 472.126h-294.797c-4.734 0-8.587 3.852-8.587 8.586v22.827c0 4.734 3.853 8.586 8.587 8.586h294.797c4.734 0 8.587-3.852 8.587-8.586v-22.827c0-4.734-3.853-8.586-8.587-8.586z" fill="#8eaadf"/><path d="m119.559 445.265h273.007v26.861h-273.007z" fill="#698ed5"/><path d="m421.48 402.121h-38.913v7.748c0 8.503-6.893 15.395-15.395 15.395h-277.612v18.913c0 .6.486 1.087 1.087 1.087h330.833c.6 0 1.087-.487 1.087-1.087v-40.97c0-.599-.487-1.086-1.087-1.086z" fill="#f4dd45"/><path d="m151.639 262.042h208.849v140.079h-208.849z" fill="#8eaadf"/><path d="m320.487 262.042v97.427c0 12.51-10.142 22.652-22.652 22.652h-146.196v20h208.849v-140.079z" fill="#698ed5"/><path d="m242.934 29.755h26.257v232.287h-26.257z" fill="#b4acb7"/><path d="m211.449 36.755h-19.036c-1.532 0-2.774-1.242-2.774-2.774v-31.207c0-1.532 1.242-2.774 2.774-2.774h19.036c1.532 0 2.774 1.242 2.774 2.774v31.207c0 1.532-1.242 2.774-2.774 2.774z" fill="#958b95"/><path d="m300.678 36.755h19.036c1.532 0 2.774-1.242 2.774-2.774v-31.207c0-1.532-1.242-2.774-2.774-2.774h-19.036c-1.532 0-2.774 1.242-2.774 2.774v31.207c-.001 1.532 1.242 2.774 2.774 2.774z" fill="#958b95"/><path d="m214.223 7h83.681v22.755h-83.681z" fill="#d3ced5"/><g fill="#efecef"><path d="m105.576 25h46.063v-21.588c0-1.814-1.471-3.285-3.285-3.285h-42.777c-1.814 0-3.285 1.471-3.285 3.285v18.303c-.001 1.814 1.47 3.285 3.284 3.285z"/><path d="m360.488 25h46.063c1.814 0 3.285-1.471 3.285-3.285v-18.303c0-1.814-1.471-3.285-3.285-3.285h-42.777c-1.814 0-3.285 1.471-3.285 3.285v21.588z"/><path d="m401.038 298.027h-289.949c-13.801 0-25.029 11.228-25.029 25.029v79.065c0 4.142 3.357 7.5 7.5 7.5h325.008c4.143 0 7.5-3.358 7.5-7.5v-79.065c-.001-13.801-11.229-25.029-25.03-25.029zm10.029 25.03v23.268h-68.752v-33.297h58.723c5.53-.001 10.029 4.498 10.029 10.029zm-162.504 38.268v33.297h-63.752v-33.297zm-63.752-15v-33.297h63.752v33.297zm78.752 15h63.752v33.297h-63.752zm0-15v-33.297h63.752v33.297zm-152.474-33.298h58.723v33.297h-68.752v-23.268c-.001-5.53 4.498-10.029 10.029-10.029zm-10.03 48.298h68.752v33.297h-68.752zm241.256 33.296v-33.297h68.752v33.297z"/></g><path d="m421.48 394.621h-330.834c-4.734 0-8.587 3.852-8.587 8.586v40.97c0 4.735 3.853 8.587 8.587 8.587h330.834c4.734 0 8.587-3.852 8.587-8.587v-40.97c0-4.733-3.852-8.586-8.587-8.586z" fill="#f9ef63"/><path d="m421.48 394.621h-31.413v8.259c0 16.505-13.38 29.885-29.885 29.885h-278.123v11.413c0 4.735 3.853 8.587 8.587 8.587h330.834c4.734 0 8.587-3.852 8.587-8.587v-40.97c0-4.734-3.852-8.587-8.587-8.587z" fill="#f4dd45"/><path d="m140.553 452.765h-21.214l58.144-58.144h21.214zm106.539-58.144h-21.214l-58.144 58.144h21.214zm-118.005 0-47.028 47.028v2.529c0 4.735 3.853 8.587 8.587 8.587h1.511l58.144-58.144zm300.98 10.607v-2.021c0-4.734-3.853-8.586-8.587-8.586h-2.02l-58.144 58.144h21.214zm-37.788-10.607h-21.214l-58.144 58.144h21.214zm-48.396 0h-21.214l-58.144 58.144h21.214zm-48.396 0h-21.214l-58.144 58.144h21.214z" fill="#958b95"/><path d="m208.948 432.765-20 20h-21.214l20-20zm-118.004 0-8.884 8.884v2.529c0 4.735 3.853 8.587 8.587 8.587h1.511l20-20zm301.335-38.144h-2.211v2.211zm-252.94 38.144-20 20h21.214l20-20zm96.791 0-20 20h21.214l20-20zm96.791 0-20 20h21.214l20-20zm88.559-38.144h-2.02l-58.144 58.144h21.214l47.537-47.537v-2.021c0-4.733-3.852-8.586-8.587-8.586zm-136.954 38.144-20 20h21.214l20-20z" fill="#868086"/></svg>