<svg id="Capa_1" enable-background="new 0 0 512 512" height="512" viewBox="0 0 512 512" width="512" xmlns="http://www.w3.org/2000/svg"><path d="m336.55 309.053h-298.56l22.164-27.434h254.232z" fill="#958b95"/><path d="m314.386 281.619h-249.776c-29.726 0-53.823-24.097-53.823-53.823v-24.982c0-29.726 24.097-53.823 53.823-53.823h249.776c29.726 0 53.823 24.097 53.823 53.823v24.982c0 29.726-24.097 53.823-53.823 53.823z" fill="#e4989d"/><path d="m316.283 149.025c7.459 9.238 11.926 20.992 11.926 33.79 0 43.523-35.282 78.805-78.805 78.805h-224.794c-.635 0-1.267-.011-1.897-.033 9.867 12.218 24.969 20.033 41.897 20.033h249.776c29.725 0 53.823-24.097 53.823-53.823v-24.982c0-29.091-23.079-52.791-51.926-53.79z" fill="#dd636e"/><path d="m252.301 123.992h44.585v25h-44.585z" fill="#958b95"/><path d="m318.316 207.63h-94.749c-.706 0-1.279-.573-1.279-1.279v-26.081c0-.706.572-1.279 1.279-1.279h94.749c.706 0 1.279.572 1.279 1.279v26.081c-.001.707-.573 1.279-1.279 1.279z" fill="#f9ef63"/><path d="m511.424 235.542-18.957-53.197c-3.65-10.243-13.349-17.083-24.223-17.083h-94.062c-3.299 0-5.974 2.675-5.974 5.974v175.465h24.809c2.737-21.238 20.887-37.648 42.87-37.648s40.133 16.41 42.87 37.648h.357v-21.79c0-5.49 4.451-9.941 9.941-9.941h16.744c3.424 0 6.199-2.775 6.199-6.199v-69.898c.002-1.135-.193-2.262-.574-3.331z" fill="#f9ef63"/><path d="m511.424 235.542-18.957-53.197c-3.65-10.243-13.349-17.083-24.223-17.083h-15.73l17.702 49.676c.381 1.069.576 2.196.576 3.332v32.374c0 24.148-19.576 43.723-43.723 43.723h-58.861v52.335h24.809c2.737-21.238 20.887-37.648 42.87-37.648s40.133 16.41 42.87 37.648h.357v-21.79c0-5.49 4.451-9.941 9.941-9.941h16.744c3.424 0 6.199-2.775 6.199-6.199v-69.898c.002-1.136-.193-2.263-.574-3.332z" fill="#f4dd45"/><circle cx="68.33" cy="352.281" fill="#958b95" r="43.227"/><circle cx="154.784" cy="352.281" fill="#958b95" r="43.227"/><circle cx="435.888" cy="352.281" fill="#958b95" r="43.227"/><g fill="#d3ced5"><path d="m329.47 358.656h-96.042c-6.602 0-11.954-5.352-11.954-11.954v-37.648h119.95v37.648c0 6.602-5.352 11.954-11.954 11.954z"/><circle cx="68.33" cy="352.281" r="17.473"/><circle cx="154.784" cy="352.281" r="17.473"/><circle cx="435.888" cy="352.281" r="17.473"/></g><path d="m341.424 309.054h26.785v37.648h-26.785z" fill="#b4acb7"/><path d="m462.713 196.168h-60.946c-1.465 0-2.653 1.188-2.653 2.653v26.842c0 1.285.922 2.386 2.187 2.612l75.295 13.424c2.005.357 3.648-1.584 2.964-3.502l-14.349-40.266c-.376-1.057-1.376-1.763-2.498-1.763z" fill="#d5dff4"/><path d="m479.561 238.196-14.349-40.266c-.275-.773-.885-1.358-1.632-1.616l6.637 18.624c.381 1.069.576 2.196.576 3.332v22.393l5.804 1.035c2.004.357 3.647-1.584 2.964-3.502z" fill="#c3d5ef"/><path d="m505.801 346.702h-26.685v-21.79c0-5.49 4.451-9.941 9.941-9.941h16.744c3.424 0 6.199 2.775 6.199 6.199v19.334c0 3.422-2.775 6.198-6.199 6.198z" fill="#b4acb7"/><path d="m111.557 352.281c0-23.874-19.353-43.227-43.227-43.227s-43.227 19.353-43.227 43.227h-19.618c-3.029 0-5.485-2.456-5.485-5.485v-32.257c0-3.029 2.456-5.485 5.485-5.485h215.989v39.482h-23.624c-1.898-22.12-20.455-39.482-43.067-39.482-23.872 0-43.226 19.353-43.226 43.227z" fill="#b4acb7"/><path d="m248.555 367.412c-4.267 0-7.726-3.459-7.726-7.726v-50.632c0-4.267 3.459-7.726 7.726-7.726s7.726 3.459 7.726 7.726v50.632c0 4.267-3.459 7.726-7.726 7.726z" fill="#efecef"/><path d="m314.344 367.412c-4.267 0-7.726-3.459-7.726-7.726v-50.632c0-4.267 3.459-7.726 7.726-7.726s7.726 3.459 7.726 7.726v50.632c0 4.267-3.459 7.726-7.726 7.726z" fill="#efecef"/><path d="m108.802 136.492c-4.143 0-7.5 3.357-7.5 7.5v22.5h-29.191v-22.5c0-4.143-3.357-7.5-7.5-7.5s-7.5 3.357-7.5 7.5v137.628c0 4.143 3.357 7.5 7.5 7.5s7.5-3.357 7.5-7.5v-25.128h29.191v25.128c0 4.143 3.357 7.5 7.5 7.5s7.5-3.357 7.5-7.5v-137.628c0-4.143-3.357-7.5-7.5-7.5zm-36.691 70h29.191v10h-29.191zm29.191-25v10h-29.191v-10zm-29.191 60v-10h29.191v10z" fill="#efecef"/><path d="m297.223 131.492h-45.26c-4.143 0-7.5-3.357-7.5-7.5s3.357-7.5 7.5-7.5h45.26c4.143 0 7.5 3.357 7.5 7.5s-3.358 7.5-7.5 7.5z" fill="#a59da5"/><path d="m319.594 240.131h-48.653c-4.143 0-7.5-3.357-7.5-7.5s3.357-7.5 7.5-7.5h48.653c4.143 0 7.5 3.357 7.5 7.5s-3.357 7.5-7.5 7.5z" fill="#d3ced5"/><path d="m319.594 240.131c4.143 0 7.5-3.357 7.5-7.5s-3.357-7.5-7.5-7.5h-3.699c-3.509 5.502-7.682 10.54-12.407 15z" fill="#c3bec6"/></svg>