<?xml version="1.0" encoding="utf-8"?>
<!-- Generator: Adobe Illustrator 21.0.2, SVG Export Plug-In . SVG Version: 6.00 Build 0)  -->
<svg version="1.1" id="Capa_1" xmlns="http://www.w3.org/2000/svg" xmlns:xlink="http://www.w3.org/1999/xlink" x="0px" y="0px"
	 viewBox="0 0 512 512" style="enable-background:new 0 0 512 512;" xml:space="preserve">
<style type="text/css">
	.st0{fill:#E2E4E6;}
	.st1{fill:#C9D1D7;}
	.st2{fill:#B3BBC1;}
	.st3{fill:#F6B74E;}
	.st4{fill:#35495C;}
	.st5{fill:#113247;}
	.st6{fill:#9EA4AC;}
	.st7{fill:#D89C44;}
</style>
<g>
	<path class="st0" d="M509.2,493.2c0,8.7-7.1,15.8-15.8,15.8H20.6c-8.7,0-15.8-7.1-15.8-15.8V20.4c0-8.7,7.1-15.8,15.8-15.8h472.8
		c8.7,0,15.8,7.1,15.8,15.8V493.2z"/>
	<path class="st1" d="M20.6,508.9h472.8c8.7,0,15.8-7.1,15.8-15.8V20.4H272.8c-8.7,0-15.8,7.1-15.8,15.8v441.3
		c0,8.7-7.1,15.8-15.8,15.8H4.8C4.8,501.8,11.9,508.9,20.6,508.9z"/>
	<circle class="st2" cx="257" cy="256.8" r="181.2"/>
	<circle class="st1" cx="52.1" cy="51.9" r="15.8"/>
	<circle class="st1" cx="461.9" cy="51.9" r="15.8"/>
	<circle class="st1" cx="52.1" cy="461.6" r="15.8"/>
	<circle class="st1" cx="461.9" cy="461.6" r="15.8"/>
	<path class="st3" d="M264.9,406.5h-15.8c-4.3,0-7.9,3.5-7.9,7.9v22.9c5.2,0.4,10.5,0.7,15.8,0.7c5.3,0,10.6-0.3,15.8-0.7v-22.9
		C272.8,410,269.2,406.5,264.9,406.5z"/>
	<g>
		<path class="st4" d="M194,248.9c-8.7,0-15.8-7.1-15.8-15.8v-31.5c0-8.7,7.1-15.8,15.8-15.8c8.7,0,15.8,7.1,15.8,15.8v31.5
			C209.7,241.8,202.7,248.9,194,248.9z"/>
	</g>
	<g>
		<path class="st4" d="M320,248.9c-8.7,0-15.8-7.1-15.8-15.8v-31.5c0-8.7,7.1-15.8,15.8-15.8c8.7,0,15.8,7.1,15.8,15.8v31.5
			C335.8,241.8,328.7,248.9,320,248.9z"/>
	</g>
	<path class="st5" d="M194,185.8c-8.7,0-15.8,7.1-15.8,15.8v7.9c0-8.7,7.1-15.8,15.8-15.8c8.7,0,15.8,7.1,15.8,15.8v-7.9
		C209.7,192.9,202.7,185.8,194,185.8z"/>
	<path class="st5" d="M320,185.8c-8.7,0-15.8,7.1-15.8,15.8v7.9c0-8.7,7.1-15.8,15.8-15.8c8.7,0,15.8,7.1,15.8,15.8v-7.9
		C335.8,192.9,328.7,185.8,320,185.8z"/>
	<path class="st4" d="M296.4,311.9c0-8.7-7.1-15.8-15.8-15.8h-47.3c-8.7,0-15.8,7.1-15.8,15.8v23.6c0,4.3,3.5,7.9,7.9,7.9h63
		c4.3,0,7.9-3.5,7.9-7.9V311.9z"/>
	<path class="st5" d="M280.6,296.2h-47.3c-8.7,0-15.8,7.1-15.8,15.8v7.9c0-8.7,7.1-15.8,15.8-15.8h47.3c8.7,0,15.8,7.1,15.8,15.8
		v-7.9C296.4,303.3,289.3,296.2,280.6,296.2z"/>
	<path class="st6" d="M257,107c94.8,0,172.5,72.8,180.5,165.5c0.4-5.2,0.7-10.4,0.7-15.8c0-100.1-81.1-181.2-181.2-181.2
		c-100.1,0-181.2,81.1-181.2,181.2c0,5.3,0.3,10.6,0.7,15.8C84.5,179.8,162.2,107,257,107z"/>
	<path class="st2" d="M58.6,37.5c0.9,2,1.4,4.2,1.4,6.5c0,8.7-7.1,15.8-15.8,15.8c-2.3,0-4.5-0.5-6.5-1.4c2.5,5.5,7.9,9.3,14.3,9.3
		c8.7,0,15.8-7.1,15.8-15.8C67.9,45.5,64.1,40,58.6,37.5z"/>
	<path class="st7" d="M257,75.5c-5.3,0-10.6,0.3-15.8,0.7v22.9c0,4.3,3.5,7.9,7.9,7.9h15.8c4.3,0,7.9-3.5,7.9-7.9V76.2
		C267.6,75.8,262.3,75.5,257,75.5z"/>
	<path class="st2" d="M58.6,447.3c0.9,2,1.4,4.2,1.4,6.5c0,8.7-7.1,15.8-15.8,15.8c-2.3,0-4.5-0.5-6.5-1.4c2.5,5.5,7.9,9.3,14.3,9.3
		c8.7,0,15.8-7.1,15.8-15.8C67.9,455.2,64.1,449.8,58.6,447.3z"/>
	<path class="st2" d="M468.3,37.5c0.9,2,1.4,4.2,1.4,6.5c0,8.7-7.1,15.8-15.8,15.8c-2.3,0-4.5-0.5-6.5-1.4c2.5,5.5,7.9,9.3,14.3,9.3
		c8.7,0,15.8-7.1,15.8-15.8C477.6,45.5,473.8,40,468.3,37.5z"/>
	<path class="st2" d="M468.3,447.3c0.9,2,1.4,4.2,1.4,6.5c0,8.7-7.1,15.8-15.8,15.8c-2.3,0-4.5-0.5-6.5-1.4
		c2.5,5.5,7.9,9.3,14.3,9.3c8.7,0,15.8-7.1,15.8-15.8C477.6,455.2,473.8,449.8,468.3,447.3z"/>
</g>
</svg>
