<?xml version="1.0" encoding="utf-8"?>
<!-- Generator: Adobe Illustrator 21.0.2, SVG Export Plug-In . SVG Version: 6.00 Build 0)  -->
<svg version="1.1" id="Layer_1" xmlns="http://www.w3.org/2000/svg" xmlns:xlink="http://www.w3.org/1999/xlink" x="0px" y="0px"
	 viewBox="0 0 512 512" style="enable-background:new 0 0 512 512;" xml:space="preserve">
<style type="text/css">
	.st0{opacity:0.75;fill:#524E4D;}
	.st1{fill:#524E4D;}
	.st2{fill:#113247;}
	.st3{fill:#EE3840;}
	.st4{fill:#E2E4E6;}
	.st5{fill:#C9D1D7;}
	.st6{fill:#748A9D;}
</style>
<g>
	<path class="st0" d="M506,444.3c0.1,11.4-9.1,20.8-20.5,20.9L196.2,468c-11.4,0.1-20.8-9.1-20.9-20.5l-1.9-196.3
		c-0.1-11.4,9.1-20.8,20.5-20.9l289.3-2.8c11.4-0.1,20.8,9.1,20.9,20.5L506,444.3z"/>
	<polygon class="st1" points="304.7,466.9 263.4,467.3 374.7,228.6 416,228.2 	"/>
	<path class="st1" d="M506,444.3L504.1,248c-0.1-11.4-9.5-20.6-20.9-20.5l-41.3,0.4L330.5,466.7l155-1.5
		C496.9,465,506.1,455.7,506,444.3z"/>
	<g>
		<path class="st2" d="M355.8,404.4L355.8,404.4L355.8,404.4l-129.1,1.3l0,0c-5.7,0.1-10.3,4.7-10.2,10.4
			c0.1,5.7,4.7,10.3,10.4,10.2l0,0l129.1-1.3l0,0l0,0c5.7-0.1,10.3-4.7,10.2-10.4C366.1,408.9,361.5,404.4,355.8,404.4z"/>
		<path class="st2" d="M453.9,403.5L453.9,403.5L453.9,403.5l-56.8,0.6l0,0c-5.7,0.1-10.3,4.7-10.2,10.4c0.1,5.7,4.7,10.3,10.4,10.2
			l0,0l56.8-0.6l0,0l0,0c5.7-0.1,10.3-4.7,10.2-10.4C464.3,408,459.6,403.4,453.9,403.5z"/>
	</g>
</g>
<path class="st3" d="M288.5,341.9c0,13.1-10.7,23.7-23.7,23.7h-27c-13.1,0-23.7-10.7-23.7-23.7v-27c0-13.1,10.7-23.7,23.7-23.7h27
	c13.1,0,23.7,10.7,23.7,23.7V341.9z"/>
<g>
	<path class="st4" d="M377.2,241.6c3.1,10.9-3.2,22.4-14.2,25.6L84.9,346.9c-10.9,3.1-22.4-3.2-25.6-14.2L5.3,144.1
		c-3.1-10.9,3.2-22.4,14.2-25.6l278.1-79.7c10.9-3.1,22.4,3.2,25.6,14.2L377.2,241.6z"/>
	<polygon class="st5" points="189.2,317 149.5,328.4 193.2,68.7 233,57.3 	"/>
	<path class="st5" d="M377.2,241.6L323.1,52.9c-3.1-10.9-14.6-17.3-25.6-14.2l-39.7,11.4L214,309.9l149-42.7
		C373.9,264.1,380.3,252.6,377.2,241.6z"/>
	<g>
		<path class="st6" d="M221.8,243.2L221.8,243.2L221.8,243.2L97.6,278.8l0,0c-5.5,1.6-8.7,7.3-7.1,12.8c1.6,5.5,7.3,8.7,12.8,7.1
			l0,0l124.1-35.6l0,0l0,0c5.5-1.6,8.7-7.3,7.1-12.8C233,244.8,227.3,241.6,221.8,243.2z"/>
		<path class="st6" d="M316.1,216.2L316.1,216.2L316.1,216.2l-54.6,15.7l0,0c-5.5,1.6-8.7,7.3-7.1,12.8c1.6,5.5,7.3,8.7,12.8,7.1
			l0,0l54.6-15.7l0,0l0,0c5.5-1.6,8.7-7.3,7.1-12.8C327.3,217.8,321.6,214.6,316.1,216.2z"/>
	</g>
	
		<rect x="13.1" y="117.2" transform="matrix(0.9613 -0.2756 0.2756 0.9613 -33.9299 54.9148)" class="st2" width="330.6" height="62"/>
</g>
</svg>
