<?xml version="1.0" encoding="utf-8"?>
<!-- Generator: Adobe Illustrator 21.0.2, SVG Export Plug-In . SVG Version: 6.00 Build 0)  -->
<svg version="1.1" id="Layer_1" xmlns="http://www.w3.org/2000/svg" xmlns:xlink="http://www.w3.org/1999/xlink" x="0px" y="0px"
	 viewBox="0 0 512.1 512.1" style="enable-background:new 0 0 512.1 512.1;" xml:space="preserve">
<style type="text/css">
	.st0{fill:#576D7E;}
	.st1{fill:#35495C;}
	.st2{fill:#E2E4E6;}
	.st3{fill:#C9D1D7;}
	.st4{fill:#113247;}
	.st5{fill:#D89C44;}
	.st6{fill:#F6B74E;}
	.st7{fill:#FCCF63;}
	.st8{fill:#B1C3D0;}
	.st9{fill:#8EADBE;}
</style>
<g>
	<path class="st0" d="M138.9,48.7l-33.1-33.1c-3.2-3.2-8.5-3.2-11.7,0L19.8,90c-3.2,3.2-3.2,8.5,0,11.7l33.1,33.1
		c1.6,1.6,3.7,2.4,5.8,2.4c2.1,0,4.2-0.8,5.8-2.4l74.4-74.4C142.1,57.1,142.1,51.9,138.9,48.7z"/>
	<path class="st1" d="M138.9,48.7l-14.8-14.8L86.9,71.1c-3.2,3.2-8.5,3.2-11.7,0l-8.3-8.3c-3.2-3.2-8.5-3.2-11.7,0L18.3,99.7
		c0.4,0.7,0.8,1.4,1.4,2l33.1,33.1c1.6,1.6,3.7,2.4,5.8,2.4c2.1,0,4.2-0.8,5.8-2.4l37.2-37.2l37.2-37.2
		C142.1,57.1,142.1,51.9,138.9,48.7z"/>
	<path class="st2" d="M472.9,384.7l-24.4,16.2c-1.8-1.8-14.3,20.3-16.5,28.9c-8.6,2.3-34.9,18.9-33.1,20.7l-12,20.3
		c1.5,1.5,9.9,4.5,12,4.5l86.8,16.5c4.6,0,8.3-3.7,8.3-8.3l-16.5-86.8C477.4,394.5,474.5,386.2,472.9,384.7z"/>
	<path class="st3" d="M431.9,429.8c-8.6,2.3-22.5,10.6-20.7,12.4l-24.4,28.6c1.5,1.5,9.9,4.5,12,4.5l86.8,16.5
		c2.3,0,4.3-0.9,5.8-2.4L431.9,429.8z"/>
	<path class="st1" d="M458.9,486.7l26.8,5.1c4.6,0,8.3-3.7,8.3-8.3l-5.2-27.4L458.9,486.7z"/>
	<path class="st4" d="M472.9,472.3l-14,14.4l26.8,5.1c2.3,0,4.3-0.9,5.8-2.4L472.9,472.3z"/>
	<polygon class="st5" points="71.1,100 44.6,126.5 386.8,470.8 407.1,462.9 413.3,444.3 	"/>
	<polygon class="st6" points="104.1,66.9 71.1,100 413.3,444.3 436.1,433.9 446.4,411.2 	"/>
	<polygon class="st7" points="472.9,384.7 130.6,40.4 104.1,66.9 446.4,411.2 465,405 	"/>
	<path class="st5" d="M136.2,46c-0.4,0.7-0.8,1.4-1.4,2l-57.9,57.9l8.3,8.3l59.6-59.6L136.2,46z"/>
	<path class="st6" d="M136.2,46c-0.4,0.7-0.8,1.4-1.4,2L110,72.8l8.3,8.3l26.5-26.5L136.2,46z"/>
	<g>
		<path class="st8" d="M50.4,137.2c-2.1,0-4.2-0.8-5.8-2.4c-3.2-3.2-3.2-8.5,0-11.7l82.7-82.7c3.2-3.2,8.5-3.2,11.7,0
			c3.2,3.2,3.2,8.5,0,11.7l-82.7,82.7C54.6,136.4,52.5,137.2,50.4,137.2z"/>
	</g>
	<path class="st9" d="M50.4,137.2c2.1,0,4.2-0.8,5.8-2.4l41.3-41.3L85.9,81.7l-41.3,41.3c-3.2,3.2-3.2,8.5,0,11.7
		C46.2,136.4,48.3,137.2,50.4,137.2z"/>
</g>
</svg>
