<?xml version="1.0" encoding="utf-8"?>
<!-- Generator: Adobe Illustrator 21.0.2, SVG Export Plug-In . SVG Version: 6.00 Build 0)  -->
<svg version="1.1" id="Layer_1" xmlns="http://www.w3.org/2000/svg" xmlns:xlink="http://www.w3.org/1999/xlink" x="0px" y="0px"
	 viewBox="0 0 512 512" style="enable-background:new 0 0 512 512;" xml:space="preserve">
<style type="text/css">
	.st0{fill:#E2E4E6;}
	.st1{fill:#D0D8E0;}
	.st2{fill:#50BEE7;}
	.st3{fill:#FFFFFF;}
	.st4{fill:#009FC4;}
	.st5{fill:#C6CED6;}
</style>
<g>
	<path class="st0" d="M441,9.7h-46.2H40.3c-5.5,0-10.6,2.9-13.3,7.7c-2.8,4.8-2.8,10.6,0,15.4l59.6,104.3v319.5
		c0,25.5,20.7,46.2,46.2,46.2h231.1c25.5,0,46.2-20.7,46.2-46.2V55.9h30.8c8.5,0,15.4,6.9,15.4,15.4v146.4c0,8.5,6.9,15.4,15.4,15.4
		c8.5,0,15.4-6.9,15.4-15.4V55.9C487.2,30.5,466.4,9.7,441,9.7z"/>
	<path class="st1" d="M441,9.7h-46.2H256.1v477.6H98.4c8.5,9.4,20.7,15.4,34.4,15.4h123.3h107.9c25.5,0,46.2-20.7,46.2-46.2V55.9
		h30.8c8.5,0,15.4,6.9,15.4,15.4v146.4c0,8.5,6.9,15.4,15.4,15.4c8.5,0,15.4-6.9,15.4-15.4V55.9C487.2,30.5,466.4,9.7,441,9.7z"/>
	<path class="st2" d="M102,341v115.6c0,17,13.8,30.8,30.8,30.8h231.1c17,0,30.8-13.8,30.8-30.8V341H102z"/>
	<g>
		<path class="st3" d="M294.6,202.3h-77c-4.3,0-7.7-3.4-7.7-7.7c0-4.3,3.4-7.7,7.7-7.7h77c4.3,0,7.7,3.4,7.7,7.7
			C302.3,198.9,298.8,202.3,294.6,202.3z"/>
	</g>
	<g>
		<path class="st3" d="M294.6,263.9h-77c-4.3,0-7.7-3.4-7.7-7.7s3.4-7.7,7.7-7.7h77c4.3,0,7.7,3.4,7.7,7.7S298.8,263.9,294.6,263.9z
			"/>
	</g>
	<g>
		<path class="st3" d="M294.6,140.7h-77c-4.3,0-7.7-3.4-7.7-7.7s3.4-7.7,7.7-7.7h77c4.3,0,7.7,3.4,7.7,7.7S298.8,140.7,294.6,140.7z
			"/>
	</g>
	<g>
		<path class="st3" d="M294.6,325.6h-77c-4.3,0-7.7-3.4-7.7-7.7c0-4.3,3.4-7.7,7.7-7.7h77c4.3,0,7.7,3.4,7.7,7.7
			C302.3,322.1,298.8,325.6,294.6,325.6z"/>
	</g>
	<path class="st4" d="M256.1,487.4h107.9c17,0,30.8-13.8,30.8-30.8V341H256.1V487.4z"/>
	<g>
		<path class="st3" d="M294.6,387.2h-77c-4.3,0-7.7-3.4-7.7-7.7s3.4-7.7,7.7-7.7h77c4.3,0,7.7,3.4,7.7,7.7S298.8,387.2,294.6,387.2z
			"/>
	</g>
	<rect x="410.1" y="9.7" class="st5" width="15.4" height="46.2"/>
</g>
</svg>
