<svg id="Capa_1" enable-background="new 0 0 512 512" height="512" viewBox="0 0 512 512" width="512" xmlns="http://www.w3.org/2000/svg"><path d="m499.246 373.055-211.996-78.725-11.303 11.804 194.147 72.096z" fill="#d3ced5"/><path d="m204.894 266.571c-4.246 0-7.441 3.822-6.751 8.012 5.232 31.737 30.587 50.943 57.907 50.943 1.525 0 3.059-.06 4.593-.18 28.389-2.239 51.157-25.369 52.961-53.805 1.631-25.699-13.594-48.668-36.68-57.57-3.168-1.221-5.243-4.284-5.243-7.679v-14.448c-4.959 1.591-26.406 1.591-31.364 0v26.321c0 11.776 8.425 21.715 20.033 23.635 13.379 2.212 22.816 14.144 21.953 27.754-.822 12.961-11.194 23.505-24.125 24.524-9.651.772-19.037-3.729-24.402-12.086-6.264-9.76-17.284-15.421-28.882-15.421z" fill="#958b95"/><path d="m15.343 374.056 246.294-94.895c3.864-1.488 8.205.44 9.693 4.307 1.487 3.866-.441 8.206-4.307 9.693l-220.676 85.038z" fill="#d3ced5"/><path d="m502.072 421.725h-492.144c-1.341 0-2.428-1.087-2.428-2.428v-45.252c0-1.341 1.087-2.428 2.428-2.428h492.144c1.341 0 2.428 1.087 2.428 2.428v45.252c0 1.341-1.087 2.428-2.428 2.428z" fill="#e4989d"/><path d="m502.072 512h-492.144c-1.341 0-2.428-1.087-2.428-2.428v-45.252c0-1.341 1.087-2.428 2.428-2.428h492.144c1.341 0 2.428 1.087 2.428 2.428v45.252c0 1.341-1.087 2.428-2.428 2.428z" fill="#e4989d"/><path d="m502.072 371.616h-37.572v.257c0 16.486-13.365 29.851-29.851 29.851h-427.149v17.572c0 1.341 1.087 2.428 2.428 2.428h492.144c1.341 0 2.428-1.087 2.428-2.428v-45.252c0-1.34-1.087-2.428-2.428-2.428z" fill="#dd636e"/><path d="m502.072 461.891h-37.572v.258c0 16.487-13.365 29.851-29.851 29.851h-427.149v17.572c0 1.341 1.087 2.428 2.428 2.428h492.144c1.341 0 2.428-1.087 2.428-2.428v-45.252c0-1.342-1.087-2.429-2.428-2.429z" fill="#dd636e"/><path d="m21.465 421.725h469.069v40.166h-469.069z" fill="#dd636e"/><path d="m50.708 396.254c0 4.142-3.358 7.5-7.5 7.5s-7.5-3.358-7.5-7.5 3.358-7.5 7.5-7.5 7.5 3.358 7.5 7.5zm39.787 7.5c4.142 0 7.5-3.358 7.5-7.5s-3.358-7.5-7.5-7.5-7.5 3.358-7.5 7.5 3.358 7.5 7.5 7.5zm47.287 0c4.142 0 7.5-3.358 7.5-7.5s-3.358-7.5-7.5-7.5-7.5 3.358-7.5 7.5 3.358 7.5 7.5 7.5zm47.287 0c4.142 0 7.5-3.358 7.5-7.5s-3.358-7.5-7.5-7.5-7.5 3.358-7.5 7.5 3.358 7.5 7.5 7.5zm47.287 0c4.142 0 7.5-3.358 7.5-7.5s-3.358-7.5-7.5-7.5-7.5 3.358-7.5 7.5 3.358 7.5 7.5 7.5zm47.288 0c4.142 0 7.5-3.358 7.5-7.5s-3.358-7.5-7.5-7.5-7.5 3.358-7.5 7.5 3.357 7.5 7.5 7.5zm47.287 0c4.142 0 7.5-3.358 7.5-7.5s-3.358-7.5-7.5-7.5-7.5 3.358-7.5 7.5 3.358 7.5 7.5 7.5zm47.287 0c4.142 0 7.5-3.358 7.5-7.5s-3.358-7.5-7.5-7.5-7.5 3.358-7.5 7.5 3.358 7.5 7.5 7.5zm47.287 0c4.142 0 7.5-3.358 7.5-7.5s-3.358-7.5-7.5-7.5-7.5 3.358-7.5 7.5 3.358 7.5 7.5 7.5zm47.287 0c4.142 0 7.5-3.358 7.5-7.5s-3.358-7.5-7.5-7.5-7.5 3.358-7.5 7.5 3.358 7.5 7.5 7.5zm-425.584 75.274c-4.142 0-7.5 3.358-7.5 7.5s3.358 7.5 7.5 7.5 7.5-3.358 7.5-7.5-3.358-7.5-7.5-7.5zm47.287 0c-4.142 0-7.5 3.358-7.5 7.5s3.358 7.5 7.5 7.5 7.5-3.358 7.5-7.5-3.358-7.5-7.5-7.5zm47.287 0c-4.142 0-7.5 3.358-7.5 7.5s3.358 7.5 7.5 7.5 7.5-3.358 7.5-7.5-3.358-7.5-7.5-7.5zm47.287 0c-4.142 0-7.5 3.358-7.5 7.5s3.358 7.5 7.5 7.5 7.5-3.358 7.5-7.5-3.358-7.5-7.5-7.5zm47.287 0c-4.142 0-7.5 3.358-7.5 7.5s3.358 7.5 7.5 7.5 7.5-3.358 7.5-7.5-3.357-7.5-7.5-7.5zm47.288 0c-4.142 0-7.5 3.358-7.5 7.5s3.358 7.5 7.5 7.5 7.5-3.358 7.5-7.5-3.358-7.5-7.5-7.5zm47.287 0c-4.142 0-7.5 3.358-7.5 7.5s3.358 7.5 7.5 7.5 7.5-3.358 7.5-7.5-3.358-7.5-7.5-7.5zm47.287 0c-4.142 0-7.5 3.358-7.5 7.5s3.358 7.5 7.5 7.5 7.5-3.358 7.5-7.5-3.358-7.5-7.5-7.5zm47.287 0c-4.142 0-7.5 3.358-7.5 7.5s3.358 7.5 7.5 7.5 7.5-3.358 7.5-7.5-3.358-7.5-7.5-7.5zm47.287 0c-4.142 0-7.5 3.358-7.5 7.5s3.358 7.5 7.5 7.5 7.5-3.358 7.5-7.5-3.358-7.5-7.5-7.5z" fill="#f4c3c6"/><g fill="#eab1b7"><path d="m332.06 492h-10.258c1.341 1.258 3.145 2.029 5.129 2.029 1.984-.001 3.787-.771 5.129-2.029z"/><path d="m284.773 492h-10.258c1.341 1.258 3.145 2.029 5.129 2.029s3.787-.771 5.129-2.029z"/><path d="m426.634 492h-10.258c1.341 1.258 3.145 2.029 5.129 2.029s3.788-.771 5.129-2.029z"/><path d="m379.347 492h-10.258c1.341 1.258 3.145 2.029 5.129 2.029s3.788-.771 5.129-2.029z"/><path d="m95.624 492h-10.258c1.341 1.258 3.145 2.029 5.129 2.029s3.788-.771 5.129-2.029z"/><circle cx="468.792" cy="396.254" r="7.5"/><path d="m237.486 492h-10.258c1.341 1.258 3.145 2.029 5.129 2.029s3.787-.771 5.129-2.029z"/><path d="m374.218 403.754c1.984 0 3.788-.771 5.129-2.029h-10.258c1.341 1.258 3.145 2.029 5.129 2.029z"/><path d="m190.198 492h-10.258c1.341 1.258 3.145 2.029 5.129 2.029 1.984-.001 3.788-.771 5.129-2.029z"/><path d="m142.911 492h-10.258c1.341 1.258 3.145 2.029 5.129 2.029s3.788-.771 5.129-2.029z"/><path d="m43.208 403.754c1.984 0 3.788-.771 5.129-2.029h-10.258c1.341 1.258 3.145 2.029 5.129 2.029z"/><path d="m90.495 403.754c1.984 0 3.788-.771 5.129-2.029h-10.258c1.341 1.258 3.145 2.029 5.129 2.029z"/><path d="m137.782 403.754c1.984 0 3.788-.771 5.129-2.029h-10.258c1.342 1.258 3.145 2.029 5.129 2.029z"/><path d="m48.337 492h-10.258c1.341 1.258 3.145 2.029 5.129 2.029 1.984-.001 3.788-.771 5.129-2.029z"/><path d="m416.376 401.725c1.341 1.258 3.145 2.029 5.129 2.029s3.788-.771 5.129-2.029z"/><circle cx="468.792" cy="486.528" r="7.5"/><path d="m279.644 403.754c1.984 0 3.788-.771 5.129-2.029h-10.258c1.341 1.258 3.145 2.029 5.129 2.029z"/><path d="m326.931 403.754c1.984 0 3.788-.771 5.129-2.029h-10.258c1.341 1.258 3.145 2.029 5.129 2.029z"/><path d="m185.069 403.754c1.984 0 3.788-.771 5.129-2.029h-10.258c1.342 1.258 3.145 2.029 5.129 2.029z"/><path d="m232.356 403.754c1.984 0 3.788-.771 5.129-2.029h-10.258c1.342 1.258 3.145 2.029 5.129 2.029z"/></g><path d="m256 194.29c-25.555 0-47.216-18.801-50.81-44.102l-10.411-73.29c-.529-3.725 2.362-7.056 6.124-7.056h110.194c3.762 0 6.653 3.331 6.124 7.056l-10.411 73.29c-3.594 25.301-25.255 44.102-50.81 44.102z" fill="#f9ef63"/><path d="m311.097 69.843h-35.715l-8.573 60.345c-3.594 25.301-25.255 44.102-50.81 44.102-.221 0-.442-.002-.662-.005 9.446 12.25 24.251 20.005 40.662 20.005 25.555 0 47.216-18.801 50.81-44.102l10.411-73.29c.531-3.724-2.361-7.055-6.123-7.055z" fill="#f4dd45"/><path d="m231.211 0h-28.502c-.41 0-.742.332-.742.742v69.101h29.986v-69.101c0-.41-.332-.742-.742-.742z" fill="#d3ced5"/><path d="m309.291 0h-28.502c-.41 0-.742.332-.742.742v69.101h29.986v-69.101c0-.41-.332-.742-.742-.742z" fill="#d3ced5"/><circle cx="256" cy="153.122" fill="#958b95" r="16.29"/><path d="m245.11 165.237c2.886 2.595 6.703 4.175 10.89 4.175 8.997 0 16.29-7.293 16.29-16.29 0-5.818-3.05-10.923-7.637-13.804-3.584 10.689-10.544 19.715-19.543 25.919z" fill="#868086"/><circle cx="221.015" cy="94.426" fill="#958b95" r="7.5"/><circle cx="290.985" cy="94.426" fill="#868086" r="7.5"/></svg>