<svg id="Capa_1" enable-background="new 0 0 512 512" height="512" viewBox="0 0 512 512" width="512" xmlns="http://www.w3.org/2000/svg"><g fill="#f9ef63"><path d="m349.08 254.39 10.44-141.755c4.458-60.527-41.526-111.884-102.213-112.627-60.996-.747-109.376 50.856-104.91 111.505l10.523 142.877c2.527 34.312-24.63 63.543-59.036 63.543-34.427 0-62.335 27.908-62.335 62.335v130.232c0 .828.672 1.5 1.5 1.5h425.902c.828 0 1.5-.672 1.5-1.5v-130.232c0-34.427-27.908-62.335-62.335-62.335-34.406 0-61.563-29.231-59.036-63.543z"/><path d="m256 67.5c-4.142 0-7.5-3.357-7.5-7.5v-20.192c0-4.143 3.358-7.5 7.5-7.5s7.5 3.357 7.5 7.5v20.192c0 4.143-3.358 7.5-7.5 7.5z"/><path d="m213.084 81.133c-2.563 0-5.059-1.314-6.46-3.679l-10.29-17.374c-2.111-3.564-.933-8.165 2.631-10.275 3.563-2.109 8.164-.932 10.275 2.631l10.29 17.374c2.111 3.564.933 8.165-2.631 10.275-1.199.71-2.515 1.048-3.815 1.048z"/><path d="m186.532 115.88c-1.218 0-2.454-.297-3.598-.924l-11.249-6.165c-3.632-1.991-4.963-6.55-2.973-10.182 1.991-3.633 6.548-4.965 10.182-2.973l11.249 6.165c3.632 1.991 4.963 6.55 2.973 10.182-1.364 2.489-3.933 3.897-6.584 3.897z"/><path d="m298.916 81.133c-1.3 0-2.616-.338-3.815-1.048-3.564-2.11-4.742-6.711-2.631-10.275l10.29-17.374c2.111-3.563 6.711-4.74 10.275-2.631 3.564 2.11 4.742 6.711 2.631 10.275l-10.29 17.374c-1.4 2.364-3.897 3.679-6.46 3.679z"/><path d="m325.468 115.88c-2.651 0-5.22-1.407-6.584-3.896-1.991-3.632-.66-8.19 2.973-10.182l11.249-6.165c3.632-1.991 8.191-.658 10.182 2.973 1.991 3.632.66 8.19-2.973 10.182l-11.249 6.165c-1.144.626-2.379.923-3.598.923z"/><path d="m191.683 284.406c-1.919 0-3.839-.732-5.303-2.196-2.929-2.929-2.929-7.678 0-10.606l12.291-12.291c2.929-2.93 7.678-2.929 10.606-.001 2.929 2.929 2.929 7.678 0 10.606l-12.291 12.291c-1.464 1.465-3.383 2.197-5.303 2.197z"/><path d="m320.317 284.406c-1.919 0-3.839-.732-5.303-2.197l-12.291-12.291c-2.929-2.929-2.929-7.678 0-10.606s7.678-2.929 10.606.001l12.291 12.291c2.929 2.929 2.929 7.678 0 10.606-1.464 1.464-3.384 2.196-5.303 2.196z"/></g><path d="m414.134 318.22c10.135 11.085 16.317 25.845 16.317 42.048v50.383c0 40.786-33.063 81.349-73.849 81.349h-315.053v18.5c0 .828.672 1.5 1.5 1.5h425.902c.828 0 1.5-.672 1.5-1.5v-130.232c0-32.397-24.714-59.021-56.317-62.048z" fill="#f4dd45"/><path d="m310.128 83.594c-14.136-15.214-33.359-23.594-54.128-23.594s-39.992 8.38-54.128 23.595c-14.136 15.216-21.081 35.002-19.556 55.715l7.063 95.912c1.129 15.325 12.263 28.007 21.328 35.902-1.359-4.3-2.092-8.867-2.092-13.601 0-25.49 21.214-46.154 47.383-46.154s47.383 20.664 47.383 46.154c0 4.734-.732 9.302-2.092 13.601 9.065-7.895 20.2-20.576 21.328-35.902l7.063-95.912c1.529-20.714-5.416-40.5-19.552-55.716z" fill="#d3ced5"/><ellipse cx="207.284" cy="152.819" fill="#d5dff4" rx="23.844" ry="34.549"/><ellipse cx="304.716" cy="152.819" fill="#d5dff4" rx="23.844" ry="34.549"/><ellipse cx="256" cy="257.522" fill="#b4acb7" rx="47.383" ry="46.154"/><path d="m269.735 248.733 15.775-27.323c-3.924-3.047-8.356-5.5-13.153-7.218l-15.612 27.041c-.272.471-.487.96-.647 1.457l-16.454-28.499c-4.797 1.719-9.229 4.171-13.153 7.218l16.525 28.621c-.122-.006-.244-.009-.367-.009h-33.409c-.409 2.441-.623 4.946-.623 7.5s.214 5.059.623 7.5h33.409c.125 0 .25-.003.373-.009-.053.084-.105.17-.156.257l-16.376 28.364c3.924 3.047 8.356 5.5 13.153 7.218l16.213-28.082c.106-.183.202-.368.291-.556.166.653.423 1.295.777 1.908l15.433 26.729c4.797-1.718 9.228-4.171 13.153-7.218l-15.596-27.011c-.347-.601-.765-1.135-1.237-1.6h34.083c.41-2.441.623-4.947.623-7.5 0-2.554-.213-5.059-.623-7.5h-33.965c.351-.386.667-.816.94-1.288z" fill="#a59da5"/><ellipse cx="256" cy="257.522" fill="#958b95" rx="22.383" ry="21.803"/><path d="m256 303.676c-4.636 0-9.117-.649-13.352-1.858v210.182h26.703v-210.183c-4.234 1.209-8.715 1.859-13.351 1.859z" fill="#8eaadf"/><path d="m242.648 492h26.703v20h-26.703z" fill="#698ed5"/><circle cx="333.835" cy="413.301" fill="#958b95" r="27.65"/><path d="m256 60c-2.525 0-5.027.124-7.5.369v150.999c0 .193.007.384.022.573 2.436-.376 4.934-.573 7.478-.573s5.042.196 7.478.573c.014-.189.022-.38.022-.573v-150.999c-2.473-.245-4.975-.369-7.5-.369z" fill="#c3bec6"/><path d="m109.028 512v-78.004c0-4.143 3.358 0 7.5 0s7.5 3.357 7.5 7.5v70.504zm293.944 0v-70.504c0-4.143-3.358-7.5-7.5-7.5s-7.5 3.357-7.5 7.5v70.504z" fill="#f4dd45"/><path d="m109.028 492h15v20h-15z" fill="#f9ef63"/><path d="m387.972 485.025v26.975h15v-36.37c-4.58 3.7-9.612 6.863-15 9.395z" fill="#f9ef63"/></svg>