<?xml version="1.0" encoding="utf-8"?>
<!-- Generator: Adobe Illustrator 21.0.2, SVG Export Plug-In . SVG Version: 6.00 Build 0)  -->
<svg version="1.1" id="Layer_1" xmlns="http://www.w3.org/2000/svg" xmlns:xlink="http://www.w3.org/1999/xlink" x="0px" y="0px"
	 viewBox="0 0 438.8 438.8" style="enable-background:new 0 0 438.8 438.8;" xml:space="preserve">
<style type="text/css">
	.st0{fill:#676868;}
	.st1{fill:#FFFFFF;}
	.st2{fill:#FC7A51;}
	.st3{fill:#ADD147;}
	.st4{fill:#F26537;}
	.st5{fill:#2BE0C6;}
	.st6{fill:#4D4D4D;}
	.st7{fill:#F9DE58;}
	.st8{fill:#808080;}
	.st9{fill:#E0BF20;}
	.st10{fill:#7A7B7C;}
	.st11{fill:#6FEAD8;}
	.st12{fill:#FDA589;}
	.st13{fill:#868686;}
	.st14{fill:#FBE98E;}
	.st15{fill:#EAD468;}
	.st16{fill:#E59F88;}
	.st17{fill:#828384;}
	.st18{fill:#595B5C;}
</style>
<g>
	<path class="st0" d="M123.6,0h191.5c13.5,0,24.4,10.9,24.4,24.4v390c0,13.5-10.9,24.4-24.4,24.4H123.6c-13.5,0-24.4-10.9-24.4-24.4
		v-390C99.2,10.9,110.2,0,123.6,0"/>
	<polyline class="st1" points="328.2,23.6 328.2,373.1 110.6,373.1 110.6,22.6 328.2,23.6 	"/>
	<rect x="125.6" y="272" class="st2" width="86.3" height="86.1"/>
	<polyline class="st3" points="125.6,174 211.9,174 211.9,257 125.6,257 125.6,174 	"/>
	<polyline class="st4" points="125.6,72.9 211.9,72.9 211.9,159 125.6,159 125.6,72.9 	"/>
	<polyline class="st5" points="313.2,72.9 313.2,159 226.9,159 226.9,72.9 313.2,72.9 	"/>
	<polyline class="st2" points="226.9,257 226.9,174 313.2,174 313.2,257 226.9,257 	"/>
	<polyline class="st5" points="226.9,272 313.2,272 313.2,358.1 226.9,358.1 226.9,272 	"/>
	<circle class="st6" cx="219.4" cy="407.6" r="18.8"/>
	<polyline class="st6" points="302.6,237.5 300,243 278.6,227.9 283.7,224.1 302.6,237.5 	"/>
	<polyline class="st6" points="248.1,183 261.5,201.9 257.7,207 242.6,185.6 248.1,183 	"/>
	<path class="st6" d="M300,243l-12.3,5.1c-11.9-3.9-22.5-10.5-31.1-19.1c-8.6-8.6-15.2-19.2-19.1-31.1l5.1-12.3l15.1,21.4l-5,1.6
		c2.9,5.1,6.4,9.7,10.5,13.8c4.1,4.1,8.7,7.6,13.8,10.5l1.6-5L300,243"/>
	<path class="st7" d="M200.6,286.5l-10.4-1.8l-13.6-2.3l-41.4,41.4l28.2,28.2l41.4-41.4L200.6,286.5z M185.2,302
		c-2.7-2.7-2.7-7,0-9.7s7-2.7,9.7,0c2.7,2.7,2.7,7,0,9.7C192.2,304.6,187.8,304.6,185.2,302z"/>
	<path class="st1" d="M152.5,135.6h9.2h27.5h9.2l9.6-39.1h-65.1L152.5,135.6 M173,107.9h-10.1l-0.9-6.5h11L173,107.9 M177.9,101.4
		h11l-0.9,6.5h-10.1V101.4 M158,107.9h-7.2l-1.6-6.5h7.9L158,107.9 M152,112.8h6.6l0.9,6.8h-5.9L152,112.8 M163.6,112.8h9.5v6.8
		h-8.5L163.6,112.8 M177.9,112.8h9.5l-0.9,6.8h-8.5V112.8 M192.3,112.8h6.6l-1.7,6.8h-5.9L192.3,112.8 M193,107.9l0.9-6.5h7.9
		l-1.6,6.5H193 M156.4,130.7l-1.5-6.2h5.4l0.8,6.2H156.4 M165.2,124.5h7.9v6.2h-7L165.2,124.5 M177.9,130.7v-6.2h7.9l-0.8,6.2H177.9
		 M189.9,130.7l0.8-6.2h5.4l-1.5,6.2H189.9"/>
	<polygon class="st1" points="142.9,96.5 148,96.5 144.5,82.5 129.5,82.5 129.5,87.3 140.7,87.3 	"/>
	<circle class="st1" cx="165.2" cy="144.2" r="5.3"/>
	<circle class="st1" cx="191.8" cy="144.2" r="5.3"/>
	<circle class="st7" cx="168.8" cy="215.5" r="33.1"/>
	<circle class="st1" cx="168.8" cy="215.5" r="23.8"/>
	<polygon class="st8" points="172.1,197.6 167.3,197.6 167.3,219.1 184,219.1 184,214.4 172.1,214.4 	"/>
	<path class="st1" d="M286.3,325.9c0-8.9-7.3-16.2-16.2-16.2c-3,0-5.4-2.4-5.4-5.4c0-3,2.4-5.4,5.4-5.4h10.8v-10.8h-5.4v-9.3h-10.8
		V289c-6.3,2.2-10.8,8.2-10.8,15.3c0,8.9,7.3,16.2,16.2,16.2c3,0,5.4,2.4,5.4,5.4s-2.4,5.4-5.4,5.4h-10.8v10.8h5.4v9.3h10.8v-10.2
		C281.8,338.9,286.3,332.9,286.3,325.9"/>
	<polyline class="st7" points="292,113.3 292,150 248.2,150 248.2,113.3 292,113.3 	"/>
	<polyline class="st7" points="295,113.3 245.1,113.3 245.1,102.7 295,102.7 295,113.3 	"/>
	<polyline class="st9" points="292,113.3 292,118.6 248.2,118.6 248.2,113.3 292,113.3 	"/>
	<path class="st2" d="M287.7,85c-1.9-1.9-4.5-3-7.3-3s-5.4,1.2-7.3,3c-1.9,1.9-3,4.5-3,7.3c0-2.9-1.2-5.4-3-7.3
		c-1.9-1.9-4.5-3-7.3-3c-2.9,0-5.4,1.2-7.3,3c-1.9,1.9-3,4.5-3,7.3c0,5.7,4.6,10.3,10.3,10.3h5.6V150h10.1v-47.3h5
		c5.7,0,10.3-4.6,10.3-10.3C290.8,89.5,289.6,86.9,287.7,85 M264.4,97h-4.7c-2.6,0-4.7-2.1-4.7-4.7c0-1.3,0.5-2.5,1.4-3.3
		c0.9-0.9,2-1.4,3.3-1.4s2.5,0.5,3.3,1.4c0.9,0.9,1.4,2,1.4,3.3V97 M280.4,97h-4.7v-4.7c0-1.3,0.5-2.5,1.4-3.3
		c0.9-0.9,2-1.4,3.3-1.4s2.5,0.5,3.3,1.4c0.9,0.9,1.4,2,1.4,3.3C285.1,94.9,283,97,280.4,97"/>
	<path class="st1" d="M314.8,438.8h-25.2l0,0h24.7C314.5,438.8,314.6,438.8,314.8,438.8"/>
	<path class="st10" d="M314.3,0H155.8l17.7,57.9h154.7v315.2h-58.7l20,65.7l25.2,0c13.7-0.2,24.8-11.5,24.8-25.2V25.2
		C339.6,11.3,328.3,0,314.3,0"/>
	<path class="st1" d="M226.9,159V72.9h86.3V159H226.9 M328.2,22.6H162.8l15.3,50.3h33.8V159h-7.6l4.6,15h3v9.9l15,49.2V174h86.3v83
		h-79.1l4.6,15h74.5v86.1H265l4.6,15h58.7L328.2,22.6"/>
	<polyline class="st11" points="211.9,174 208.9,174 211.9,184 211.9,174 	"/>
	<path class="st12" d="M196.1,124.5h-2.3l1.3,4.2L196.1,124.5 M198.9,112.8h-6.6l-0.6,4.8l0.6,2.1h5L198.9,112.8 M188.9,101.4h-2.2
		l1.5,4.9L188.9,101.4 M201.7,101.4h-7.9l-0.9,6.5h7.2L201.7,101.4 M211.9,72.9h-33.8l7.2,23.6H208l-9.6,39.1h-1.2l7.1,23.4h7.6
		V72.9"/>
	<path class="st11" d="M270.1,92.3c0-2.9,1.2-5.4,3-7.3s4.5-3,7.3-3s5.4,1.2,7.3,3c1.9,1.9,3,4.5,3,7.3c0,5.7-4.6,10.3-10.3,10.3h-5
		H295v10.6h-3.1v5.3V150h-43.8v-36.7h-3.1v-10.6h20.2h-5.6c-5.7,0-10.3-4.6-10.3-10.3c0-2.9,1.2-5.4,3-7.3c1.9-1.9,4.5-3,7.3-3
		c2.9,0,5.4,1.2,7.3,3C268.9,86.9,270.1,89.5,270.1,92.3 M313.2,72.9h-86.3V159h86.3V72.9"/>
	<path class="st12" d="M242.6,185.6l5.5-2.6l13.4,18.9l-3.8,5.1l-5,1.6c2.9,5.1,6.4,9.7,10.5,13.8c4.1,4.1,8.7,7.6,13.8,10.5l1.6-5
		l5.1-3.8l18.9,13.4L300,243l-12.3,5.1c-11.9-3.9-22.5-10.5-31.1-19.1c-8.6-8.6-15.2-19.2-19.1-31.1L242.6,185.6 M313.2,174h-86.3
		v59.1l7.3,23.9h79.1V174"/>
	<path class="st11" d="M313.2,272h-74.5l20.5,67.3v-8.1h10.8c3,0,5.4-2.4,5.4-5.4s-2.4-5.4-5.4-5.4c-8.9,0-16.2-7.3-16.2-16.2
		c0-7,4.5-13,10.8-15.3v-10.2h10.8v9.3h5.4v10.8h-10.8c-3,0-5.4,2.4-5.4,5.4c0,3,2.4,5.4,5.4,5.4c8.9,0,16.2,7.3,16.2,16.2
		c0,7-4.5,13-10.8,15.3v10.2h-10.8v-9.3h-4.5l4.9,16h48.2L313.2,272"/>
	<polyline class="st13" points="283.7,224.1 278.6,227.9 300,243 302.6,237.5 283.7,224.1 	"/>
	<polyline class="st13" points="248.1,183 242.6,185.6 257.7,207 261.5,201.9 248.1,183 	"/>
	<path class="st13" d="M242.6,185.6l-5.1,12.3c3.9,11.9,10.5,22.5,19.1,31.1c8.6,8.6,19.2,15.2,31.1,19.1L300,243l-21.4-15.1l-1.6,5
		c-5.1-2.9-9.7-6.4-13.8-10.5c-4.1-4.1-7.6-8.7-10.5-13.8l5-1.6L242.6,185.6"/>
	<path class="st1" d="M193,107.9l0.9-6.5h7.9l-1.6,6.5H193 M208,96.5h-22.8l1.5,4.9h2.2l-0.7,4.9l3.4,11.2l0.6-4.8h6.6l-1.7,6.8h-5
		l1.5,4.9h2.3l-1,4.2l2.1,6.9h1.2L208,96.5"/>
	<path class="st11" d="M259.7,87.6c-1.3,0-2.5,0.5-3.3,1.4c-0.9,0.9-1.4,2-1.4,3.3c0,2.6,2.1,4.7,4.7,4.7h4.7v-4.7
		c0-1.3-0.5-2.5-1.4-3.3C262.2,88.1,261,87.6,259.7,87.6 M280.4,87.6c-1.3,0-2.5,0.5-3.3,1.4c-0.9,0.9-1.4,2-1.4,3.3V97h4.7
		c2.6,0,4.7-2.1,4.7-4.7c0-1.3-0.5-2.5-1.4-3.3C282.9,88.1,281.7,87.6,280.4,87.6"/>
	<path class="st1" d="M275.5,278.8h-10.8V289c-6.3,2.2-10.8,8.2-10.8,15.3c0,8.9,7.3,16.2,16.2,16.2c3,0,5.4,2.4,5.4,5.4
		s-2.4,5.4-5.4,5.4h-10.8v8.1l0.8,2.7h4.5v9.3h10.8v-10.2c6.3-2.2,10.8-8.2,10.8-15.3c0-8.9-7.3-16.2-16.2-16.2
		c-3,0-5.4-2.4-5.4-5.4c0-3,2.4-5.4,5.4-5.4h10.8v-10.8h-5.4L275.5,278.8"/>
	<polyline class="st14" points="248.2,113.3 248.2,113.3 248.2,150 292,150 292,118.6 275.4,118.6 275.4,150 265.3,150 265.3,118.6 
		248.2,118.6 248.2,113.3 	"/>
	<path class="st14" d="M265.3,102.7h-20.2v10.6h3.1h17.1V102.7 M295,102.7h-19.6v10.6H292h3.1V102.7"/>
	<path class="st15" d="M265.3,113.3h-17.1v5.3h17.1V113.3 M292,113.3h-16.6v5.3H292V113.3"/>
	<path class="st12" d="M265.3,118.6v-5.3h10.1v5.3H265.3 M259.7,97c-2.6,0-4.7-2.1-4.7-4.7c0-1.3,0.5-2.5,1.4-3.3
		c0.9-0.9,2-1.4,3.3-1.4s2.5,0.5,3.3,1.4c0.9,0.9,1.4,2,1.4,3.3V97H259.7 M275.7,97v-4.7c0-1.3,0.5-2.5,1.4-3.3
		c0.9-0.9,2-1.4,3.3-1.4s2.5,0.5,3.3,1.4c0.9,0.9,1.4,2,1.4,3.3c0,2.6-2.1,4.7-4.7,4.7H275.7 M280.4,82c-2.9,0-5.4,1.2-7.3,3
		c-1.9,1.9-3,4.5-3,7.3c0-2.9-1.2-5.4-3-7.3c-1.9-1.9-4.5-3-7.3-3c-2.9,0-5.4,1.2-7.3,3c-1.9,1.9-3,4.5-3,7.3
		c0,5.7,4.6,10.3,10.3,10.3h5.6v10.6v5.3V150h10.1v-31.3v-5.3v-10.6h5c5.7,0,10.3-4.6,10.3-10.3c0-2.9-1.2-5.4-3-7.3
		C285.9,83.1,283.3,82,280.4,82"/>
	<polyline class="st16" points="275.4,113.3 265.3,113.3 265.3,118.6 275.4,118.6 275.4,113.3 	"/>
</g>
<circle class="st17" cx="219.4" cy="20.6" r="18.8"/>
<circle class="st18" cx="219.4" cy="21.6" r="4.5"/>
</svg>
