<?xml version="1.0" encoding="utf-8"?>
<!-- Generator: Adobe Illustrator 21.0.2, SVG Export Plug-In . SVG Version: 6.00 Build 0)  -->
<svg version="1.1" id="Layer_1" xmlns="http://www.w3.org/2000/svg" xmlns:xlink="http://www.w3.org/1999/xlink" x="0px" y="0px"
	 viewBox="0 0 426.9 426.9" style="enable-background:new 0 0 426.9 426.9;" xml:space="preserve">
<style type="text/css">
	.st0{fill:#B1C3D0;}
	.st1{fill:#83BD5A;}
	.st2{fill:#E2E4E6;}
	.st3{fill:#6FA04E;}
	.st4{fill:#35495C;}
	.st5{fill:#8EADBE;}
	.st6{fill:#C9D1D7;}
</style>
<g>
	<path class="st0" d="M260,138H54.9V91.7c0-3.6-3-6.6-6.6-6.6H35.1c-3.6,0-6.6,3-6.6,6.6v274.6c0,3.6,3,6.6,6.6,6.6h13.2
		c3.6,0,6.6-3,6.6-6.6V164.4H260c7.3,0,13.2-5.9,13.2-13.2C273.3,143.9,267.3,138,260,138z"/>
	<g>
		<path class="st1" d="M260,85c-3.6,0-6.6,3-6.6,6.6v274.6c0,3.6,3,6.6,6.6,6.6h132.3c3.6,0,6.6-3,6.6-6.6V91.7c0-3.6-3-6.6-6.6-6.6
			H260z"/>
	</g>
	<g>
		<circle class="st2" cx="326.2" cy="144.6" r="13.2"/>
	</g>
	<path class="st3" d="M326.2,326.6c-6.2,0-11.3-4.2-12.8-9.9c-0.3,1.1-0.5,2.2-0.5,3.3c0,7.3,5.9,13.2,13.2,13.2s13.2-5.9,13.2-13.2
		c0-1.2-0.2-2.2-0.5-3.3C337.5,322.3,332.4,326.6,326.2,326.6z"/>
	<path class="st3" d="M326.2,157.8c-6.2,0-11.3-4.2-12.8-9.9c-0.3,1.1-0.5,2.2-0.5,3.3c0,7.3,5.9,13.2,13.2,13.2s13.2-5.9,13.2-13.2
		c0-1.1-0.2-2.2-0.5-3.3C337.5,153.6,332.4,157.8,326.2,157.8z"/>
	<g>
		<circle class="st2" cx="326.2" cy="313.3" r="13.2"/>
	</g>
	<g>
		<rect x="253.4" y="181.5" class="st3" width="145.6" height="13.2"/>
	</g>
	<g>
		<rect x="253.4" y="270.7" class="st3" width="145.6" height="13.2"/>
	</g>
	<g>
		<path class="st4" d="M425.5,91.7c0,3.6-3,6.6-6.6,6.6H8.6c-3.6,0-6.6-3-6.6-6.6V61.9c0-3.6,3-6.6,6.6-6.6h410.2
			c3.6,0,6.6,3,6.6,6.6V91.7z"/>
	</g>
	<path class="st5" d="M68.2,144.6V138H54.9v-26.5V98.3H28.5v13.2h6.6c3.7,0,6.6,3,6.6,6.6v254.7h6.6c3.6,0,6.6-3,6.6-6.6V164.4h13.2
		h185.3v-13.2H74.8C71.1,151.2,68.2,148.3,68.2,144.6z"/>
	<path class="st6" d="M335.6,322.7c5.2-5.2,5.2-13.5,0-18.7l-18.7,18.7C322,327.9,330.4,327.9,335.6,322.7z"/>
	<path class="st6" d="M335.6,154c5.2-5.2,5.2-13.5,0-18.7L316.9,154C322,159.1,330.4,159.1,335.6,154z"/>
	<circle class="st2" cx="326.2" cy="226.2" r="13.2"/>
	<path class="st3" d="M326.2,239.5c-6.2,0-11.3-4.2-12.8-9.9c-0.3,1.1-0.5,2.2-0.5,3.3c0,7.3,5.9,13.2,13.2,13.2s13.2-5.9,13.2-13.2
		c0-1.1-0.2-2.2-0.5-3.3C337.5,235.3,332.4,239.5,326.2,239.5z"/>
	<path class="st6" d="M335.6,235.6c5.2-5.2,5.2-13.5,0-18.7l-18.7,18.7C322,240.8,330.4,240.8,335.6,235.6z"/>
</g>
</svg>
