<svg id="Capa_1" enable-background="new 0 0 511.407 511.407" height="512" viewBox="0 0 511.407 511.407" width="512" xmlns="http://www.w3.org/2000/svg"><path d="m68.337 251.563c4.143 0 7.5-3.357 7.5-7.5s-3.357-7.5-7.5-7.5h-38.597c9.169-9.219 21.855-14.936 35.853-14.936h1.483c4.143 0 7.5-3.357 7.5-7.5s-3.357-7.5-7.5-7.5h-1.483c-36.168 0-65.593 29.425-65.593 65.594v228.232c0 4.143 3.357 7.5 7.5 7.5s7.5-3.357 7.5-7.5v-23.623h47.403c4.143 0 7.5-3.357 7.5-7.5s-3.357-7.5-7.5-7.5h-47.403v-13.158h47.403c4.143 0 7.5-3.357 7.5-7.5s-3.357-7.5-7.5-7.5h-47.403v-13.158h47.403c4.143 0 7.5-3.357 7.5-7.5s-3.357-7.5-7.5-7.5h-47.403v-13.158h47.403c4.143 0 7.5-3.357 7.5-7.5s-3.357-7.5-7.5-7.5h-47.403v-13.159h47.403c4.143 0 7.5-3.357 7.5-7.5s-3.357-7.5-7.5-7.5h-47.403v-13.158h47.403c4.143 0 7.5-3.357 7.5-7.5s-3.357-7.5-7.5-7.5h-47.403v-13.158h47.403c4.143 0 7.5-3.357 7.5-7.5s-3.357-7.5-7.5-7.5h-47.403v-13.158h47.403c4.143 0 7.5-3.357 7.5-7.5s-3.357-7.5-7.5-7.5h-46.844c.689-4.62 2.015-9.032 3.868-13.158h48.91z" fill="#b4acb7"/><path d="m457.35 262.723c0-13.02 10.555-23.575 23.575-23.575 6.853 0 13.022 2.924 17.33 7.592 1.087-8.793 1.648-17.748 1.648-26.835 0-119.543-96.909-216.451-216.451-216.451s-216.452 96.908-216.452 216.451c0 9.087.561 18.043 1.648 26.835 4.307-4.668 10.477-7.592 17.33-7.592 13.02 0 23.575 10.555 23.575 23.575v86.085c21.795 29.354 50.845 52.999 84.499 68.281v-44.703h47.15v59.849c13.665 2.704 27.791 4.121 42.25 4.121s28.585-1.418 42.25-4.121v-59.849h47.15v44.703c33.654-15.282 62.704-38.927 84.499-68.281v-86.085z" fill="#f9ef63"/><g fill="#f4dd45"><path d="m167.29 402.577c8.533 5.437 17.472 10.294 26.762 14.512v-6.396c-9.158-2.137-18.092-4.857-26.762-8.116z"/><path d="m243.452 416.356c-.751 0-1.501-.004-2.25-.011v15.89c13.665 2.704 27.791 4.121 42.25 4.121 14.458 0 28.585-1.418 42.25-4.121v-32.053c-25.359 10.425-53.133 16.174-82.25 16.174z"/><path d="m359.617 17.235c60.294 38.423 100.286 105.876 100.286 182.67 0 71.026-34.21 134.063-87.052 173.53v43.654c33.654-15.282 62.704-38.927 84.499-68.281v-86.085c0-13.02 10.555-23.575 23.575-23.575 6.853 0 13.022 2.924 17.33 7.592 1.087-8.793 1.648-17.748 1.648-26.835 0-92.737-58.32-171.852-140.286-202.67z"/></g><path d="m204.904 484.583c-2.294 0-4.559-1.048-6.03-3.032l-108.871-147.183c-2.467-3.327-1.771-8.024 1.557-10.492 3.326-2.465 8.024-1.771 10.492 1.557l108.87 147.183c2.467 3.327 1.771 8.024-1.557 10.492-1.342.995-2.908 1.475-4.461 1.475zm136.426-1.476c3.327-2.468 4.023-7.165 1.557-10.492l-108.87-147.183c-2.467-3.327-7.166-4.024-10.492-1.557-3.327 2.468-4.023 7.165-1.557 10.492l108.869 147.183c1.472 1.984 3.736 3.032 6.03 3.032 1.554.001 3.12-.478 4.463-1.475zm131.964 0c3.327-2.468 4.023-7.165 1.557-10.492l-108.87-147.183c-2.468-3.327-7.165-4.024-10.492-1.557s-4.023 7.165-1.557 10.492l108.869 147.183c1.472 1.984 3.736 3.032 6.03 3.032 1.553.001 3.12-.478 4.463-1.475z" fill="#a59da5"/><path d="m91.387 493.22c-1.553 0-3.118-.479-4.462-1.476-3.327-2.468-4.023-7.165-1.557-10.492l115.554-155.821c2.468-3.325 7.164-4.023 10.492-1.557 3.327 2.468 4.023 7.165 1.557 10.492l-115.554 155.822c-1.471 1.984-3.736 3.032-6.03 3.032zm137.995-3.032 115.553-155.821c2.467-3.327 1.771-8.024-1.557-10.492-3.328-2.467-8.023-1.769-10.492 1.557l-115.553 155.821c-2.467 3.327-1.771 8.024 1.557 10.492 1.344.996 2.909 1.476 4.462 1.476 2.294-.001 4.559-1.049 6.03-3.033zm131.964 0 115.553-155.821c2.467-3.327 1.771-8.024-1.557-10.492-3.329-2.467-8.023-1.769-10.492 1.557l-115.553 155.821c-2.467 3.327-1.771 8.024 1.557 10.492 1.344.996 2.909 1.476 4.462 1.476 2.294-.001 4.558-1.049 6.03-3.033z" fill="#b4acb7"/><path d="m109.553 262.723c0-13.02-10.555-23.575-23.575-23.575-13.02 0-23.575 10.555-23.575 23.575v109.663h47.15z" fill="#d3ced5"/><path d="m62.403 372.386v123.898c0 2.303 1.867 4.169 4.169 4.169h38.811c2.303 0 4.169-1.867 4.169-4.169v-123.898z" fill="#958b95"/><path d="m241.202 262.723c0-13.02-10.555-23.575-23.575-23.575s-23.575 10.555-23.575 23.575v109.663h47.15z" fill="#d3ced5"/><path d="m194.052 372.386v123.898c0 2.303 1.867 4.169 4.169 4.169h38.812c2.303 0 4.169-1.867 4.169-4.169v-123.898z" fill="#958b95"/><path d="m372.851 262.723c0-13.02-10.555-23.575-23.575-23.575s-23.575 10.555-23.575 23.575v109.663h47.15z" fill="#d3ced5"/><path d="m325.701 372.386v123.898c0 2.303 1.867 4.169 4.169 4.169h38.812c2.302 0 4.169-1.867 4.169-4.169v-123.898z" fill="#958b95"/><path d="m504.5 262.723c0-13.02-10.555-23.575-23.575-23.575-13.02 0-23.575 10.555-23.575 23.575v109.663h47.15z" fill="#d3ced5"/><path d="m457.35 372.386v123.898c0 2.303 1.867 4.169 4.169 4.169h38.811c2.303 0 4.169-1.867 4.169-4.169v-123.898z" fill="#958b95"/><path d="m503.907 187.047h-440.911c-4.143 0-7.5-3.357-7.5-7.5s3.357-7.5 7.5-7.5h440.911c4.143 0 7.5 3.357 7.5 7.5s-3.357 7.5-7.5 7.5z" fill="#fff9c1"/><path d="m511.407 179.547c0-4.143-3.357-7.5-7.5-7.5h-45.781c.636 4.95 1.105 9.952 1.401 15h44.38c4.143 0 7.5-3.357 7.5-7.5z" fill="#f9ef63"/></svg>