<?xml version="1.0" encoding="utf-8"?>
<!-- Generator: Adobe Illustrator 21.0.2, SVG Export Plug-In . SVG Version: 6.00 Build 0)  -->
<svg version="1.1" id="Layer_1" xmlns="http://www.w3.org/2000/svg" xmlns:xlink="http://www.w3.org/1999/xlink" x="0px" y="0px"
	 viewBox="0 0 512 512" style="enable-background:new 0 0 512 512;" xml:space="preserve">
<style type="text/css">
	.st0{fill:#D89C44;}
	.st1{fill:#35495C;}
	.st2{fill:#FCCF63;}
	.st3{fill:#F6B74E;}
	.st4{fill:#113247;}
	.st5{fill:#FFFFFF;}
	.st6{fill:#E2E4E6;}
</style>
<g>
	<polygon class="st0" points="113,312.5 311.9,117.8 446.5,252.4 247.4,446.9 	"/>
	
		<rect x="354.2" y="53.3" transform="matrix(0.7071 -0.7071 0.7071 0.7071 2.412295e-02 330.5364)" class="st1" width="89.6" height="224"/>
	<path class="st2" d="M396.5,316.9L201,117.8L66.4,252.4l195.6,198.9c0,0,0,0,0,0c9.3,9.3,24.3,9.3,33.6,0c9.3-9.3,9.3-24.3,0-33.6
		l0,0v0c0,0,0,0,0,0c9.3,9.3,24.3,9.3,33.6,0c9.3-9.3,9.3-24.3,0-33.6l0,0l0,0l0,0c9.3,9.3,24.3,9.3,33.6,0c9.3-9.3,9.3-24.3,0-33.6
		c0,0,0,0,0,0l0,0l0,0c9.3,9.3,24.3,9.3,33.6,0C405.8,341.2,405.8,326.2,396.5,316.9z"/>
	<polygon class="st1" points="66.4,276.1 3.1,212.7 161.5,54.4 224.8,117.7 	"/>
	<path class="st0" d="M289.4,173c-9.3-9.3-24.3-9.3-33.6,0c-6.8,6.8-40.1,40.2-47,47c-9.3,9.3-9.3,24.3,0,33.6
		c9.3,9.3,24.3,9.3,33.6,0c6.8-6.8,40.1-40.2,47-47C298.7,197.3,298.7,182.3,289.4,173z"/>
	<path class="st0" d="M277.9,382.7c-9.3-9.3-24.3-9.3-33.6,0c9.3-9.3,9.3-24.3,0-33.6c-9.3-9.3-24.3-9.3-33.6,0
		c9.3-9.3,9.3-24.3,0-33.6c-9.3-9.3-24.3-9.3-33.6,0c9.3-9.3,9.3-24.3,0-33.6c-9.3-9.3-24.3-9.3-33.6,0
		c-6.8,6.8-23.8,23.8-30.6,30.6c-9.3,9.3-9.3,24.3,0,33.6c9.3,9.3,24.3,9.3,33.6,0c-9.3,9.3-9.3,24.3,0,33.6
		c9.3,9.3,24.3,9.3,33.6,0c-9.3,9.3-9.3,24.3,0,33.6c9.3,9.3,24.3,9.3,33.6,0c-9.3,9.3-9.3,24.3,0,33.6c9.3,9.3,24.3,9.3,33.6,0
		c6.8-6.8,23.8-23.8,30.6-30.6C287.2,407,287.2,392,277.9,382.7z"/>
	<path class="st3" d="M313.7,232.2l-13.9-13.9l-11-11.2c-7.8,7.8-39.7,39.7-46.4,46.4c-1.4,1.4-3,2.5-4.6,3.5
		c8.9,4.5,20,3.2,27.5-4.3c2.1-2.1,6.9-6.9,12.6-12.6c6.8-6.9,16.5-10.2,26.1-9.1L313.7,232.2z"/>
	<path class="st3" d="M244.3,349.1c9.3,9.3,9.3,24.3,0,33.6c4.6-4.6,10.5-6.8,16.5-6.9c3.4-8.5,1.6-18.6-5.3-25.5
		c-5.5-5.5-12.9-7.6-20-6.6C238.7,344.8,241.7,346.6,244.3,349.1z"/>
	<path class="st3" d="M177.1,281.9c9.3,9.3,9.3,24.3,0,33.6c4.6-4.6,10.5-6.8,16.5-6.9c3.4-8.5,1.6-18.6-5.3-25.5
		c-5.5-5.5-12.9-7.6-20-6.6C171.5,277.6,174.6,279.4,177.1,281.9z"/>
	<path class="st3" d="M269.1,377.2c3.2,1.1,6.3,2.9,8.8,5.5c9.3,9.3,9.3,24.3,0,33.6c-5.4,5.4-17.3,17.3-25.3,25.3l6.1,6.2
		c6.9-6.9,23.6-23.6,30.4-30.4c9.3-9.3,9.3-24.3,0-33.6C283.6,378.4,276.2,376.2,269.1,377.2z"/>
	<path class="st3" d="M210.7,315.5c9.3,9.3,9.3,24.3,0,33.6c4.6-4.6,10.5-6.8,16.5-6.9c3.4-8.5,1.6-18.6-5.3-25.5
		c-5.5-5.5-12.9-7.6-20-6.6C205.1,311.2,208.2,313,210.7,315.5z"/>
	<polygon class="st4" points="446.5,276.1 509.9,212.7 446.5,149.4 341,170.5 	"/>
	<polygon class="st4" points="66.4,276.1 3.1,212.7 66.4,149.4 172,170.5 	"/>
	<circle class="st5" cx="454.4" cy="220.7" r="15.8"/>
	<path class="st6" d="M460.9,206.2c0.9,2,1.4,4.2,1.4,6.5c0,8.8-7.1,15.8-15.8,15.8c-2.3,0-4.5-0.5-6.5-1.4c2.5,5.5,8,9.3,14.4,9.3
		c8.7,0,15.8-7.1,15.8-15.8C470.3,214.2,466.4,208.7,460.9,206.2z"/>
	<circle class="st5" cx="58.5" cy="220.7" r="15.8"/>
	<path class="st6" d="M65,206.2c0.9,2,1.4,4.2,1.4,6.5c0,8.8-7.1,15.8-15.8,15.8c-2.3,0-4.5-0.5-6.5-1.4c2.5,5.5,8,9.3,14.4,9.3
		c8.7,0,15.8-7.1,15.8-15.8C74.4,214.2,70.5,208.7,65,206.2z"/>
</g>
</svg>
