<?xml version="1.0" encoding="utf-8"?>
<!-- Generator: Adobe Illustrator 21.0.2, SVG Export Plug-In . SVG Version: 6.00 Build 0)  -->
<svg version="1.1" id="Layer_1" xmlns="http://www.w3.org/2000/svg" xmlns:xlink="http://www.w3.org/1999/xlink" x="0px" y="0px"
	 viewBox="0 0 512 512" style="enable-background:new 0 0 512 512;" xml:space="preserve">
<style type="text/css">
	.st0{fill:#B1C3D0;}
	.st1{fill:#576D7E;}
	.st2{fill:#8EADBE;}
	.st3{fill:#35495C;}
	.st4{fill:#C9D1D7;}
</style>
<g>
	<path class="st0" d="M401.5,257.7L287.4,13.3c-2.7-5.7-8.4-9.4-14.8-9.4h-8.1v229.3c14,3.6,24.4,16.3,24.4,31.4
		c0,18-14.6,32.6-32.6,32.6s-32.6-14.6-32.6-32.6c0-15.2,10.4-27.8,24.4-31.4V3.9H240c-6.3,0-12.1,3.7-14.8,9.4L111.2,257.7
		c-3.1,6.6-1.4,14.4,4,19.2c0.6,0.5,59.6,37,59.6,134.4c0,9,7.3,16.3,16.3,16.3h130.4c9,0,16.3-7.3,16.3-16.3
		c0-96.7,59.1-133.9,59.6-134.4C402.9,272.1,404.5,264.3,401.5,257.7z"/>
	<path class="st1" d="M354.1,427.6c0,4.5-3.7,8.1-8.1,8.1H166.7c-4.5,0-8.1-3.7-8.1-8.1v-8.1c0-4.5,3.7-8.1,8.1-8.1H346
		c4.5,0,8.1,3.7,8.1,8.1V427.6z"/>
	<path class="st1" d="M338,411.3H174.5l-15.6,77.8c-1,4.8,0.3,9.8,3.4,13.5c3.1,3.8,7.7,6,12.6,6h162.8c0,0,0.1,0,0.2,0
		c9,0,16.3-7.3,16.3-16.3c0-1.9-0.3-3.7-0.9-5.4L338,411.3z"/>
	<path class="st2" d="M401.5,257.7L287.4,13.3c-2.7-5.7-8.4-9.4-14.8-9.4h-8.1v229.3c14,3.6,24.4,16.3,24.4,31.4
		c0,18-14.6,32.6-32.6,32.6v73.3c0,13.5-10.9,24.4-24.4,24.4h-57.6c0.4,5.3,0.6,10.7,0.6,16.3h163c0-2.8,0.2-5.4,0.3-8.1h0
		c3.3-90.5,58.8-125.8,59.3-126.3C402.9,272.1,404.5,264.3,401.5,257.7z"/>
	<path class="st3" d="M342,435.7h-85.7h-85.9l-1.3,8.1H240c9,0,16.3,7.3,16.3,16.3v23.9c0,9-7.3,16.3-16.3,16.3h-79.2
		c0.4,0.7,0.9,1.5,1.4,2.2c3.1,3.8,7.7,6,12.6,6h162.8c0,0,0.1,0,0.2,0c9,0,16.3-7.3,16.3-16.3c0-1.9-0.3-3.7-0.9-5.4L342,435.7z"/>
	<path class="st3" d="M346,411.3h-89.6v24.4H346c4.5,0,8.1-3.7,8.1-8.1v-8.1C354.1,414.9,350.4,411.3,346,411.3z"/>
	<path class="st4" d="M174.2,411.3c0.4,5.3,0.6-5.6,0.6,0h163c0-5.6,0.2,5.3,0.6,0H174.2z"/>
</g>
</svg>
