<?xml version="1.0" encoding="utf-8"?>
<!-- Generator: Adobe Illustrator 21.0.2, SVG Export Plug-In . SVG Version: 6.00 Build 0)  -->
<svg version="1.1" id="Layer_1" xmlns="http://www.w3.org/2000/svg" xmlns:xlink="http://www.w3.org/1999/xlink" x="0px" y="0px"
	 viewBox="0 0 512 512" style="enable-background:new 0 0 512 512;" xml:space="preserve">
<style type="text/css">
	.st0{fill:#FFC953;}
	.st1{fill:#FAA41A;}
	.st2{fill:#868491;}
	.st3{fill:#B4B6BC;}
	.st4{fill:#996459;}
	.st5{fill:#7E5C62;}
	.st6{fill:#5C546A;}
</style>
<g>
	<g>
		<path class="st0" d="M367.7,356c3.6-8.8,2.9-19.1-2.8-27.4L156.1,29.2C135.3-0.6,93.7-6.7,65.2,15.9s-31.9,64.6-7.6,91.6
			l244.5,271c6.8,7.5,16.7,10.5,26.1,9L367.7,356z"/>
	</g>
	<g>
		<path class="st1" d="M65,16.1c-28.3,22.7-31.7,64.5-7.4,91.4l244.5,271c6.8,7.5,16.7,10.5,26.1,9l19.6-15.5L65,16.1z"/>
	</g>
	<g>
		<path class="st2" d="M364.9,328.6L299,234.1l-74,58.8l77.2,85.6c6.8,7.5,16.7,10.5,26.1,9l39.5-31.4
			C371.4,347.2,370.7,336.9,364.9,328.6z"/>
	</g>
	<g>
		<path class="st3" d="M347.8,371.9l20-15.9c3.6-8.8,2.9-19.1-2.8-27.4L299,234.1l-37.2,29.6L347.8,371.9z"/>
	</g>
	<g>
		<path class="st4" d="M419.2,368.9c23.3,29.3,39.6,107.2,38.2,130.3c-0.3,5.7-5.5,9.8-11.2,8.9c-22.7-3.8-93.6-38-117.1-67.6
			c-19.8-24.9-15.6-61,9.2-80.8C363.2,339.9,399.4,344,419.2,368.9z"/>
	</g>
	<g>
		<path class="st5" d="M338.2,359.8c-24.7,19.8-28.8,55.8-9,80.6c23.5,29.6,94.4,63.8,117.1,67.6c2.7,0.5,5.3-0.3,7.3-1.8
			L338.2,359.8L338.2,359.8z"/>
	</g>
	<g>
		<polygon class="st2" points="320.9,265.6 310,249.8 237.8,307.2 250.7,321.4 		"/>
	</g>
	<g>
		<g>
			<polygon class="st6" points="273.7,278.7 237.8,307.2 250.7,321.4 285.6,293.7 			"/>
		</g>
		<g>
			<polygon class="st6" points="320.9,265.6 310,249.8 310,249.8 			"/>
		</g>
	</g>
</g>
</svg>
