<?xml version="1.0" encoding="utf-8"?>
<!-- Generator: Adobe Illustrator 21.0.2, SVG Export Plug-In . SVG Version: 6.00 Build 0)  -->
<svg version="1.1" id="Capa_1" xmlns="http://www.w3.org/2000/svg" xmlns:xlink="http://www.w3.org/1999/xlink" x="0px" y="0px"
	 viewBox="0 0 512 512" style="enable-background:new 0 0 512 512;" xml:space="preserve">
<style type="text/css">
	.st0{fill:#F05642;}
	.st1{fill:#D2453C;}
	.st2{fill:#FFFFFF;}
	.st3{fill:#E2E4E6;}
</style>
<g>
	<g>
		<path class="st0" d="M256.7,490.3c-4.2,0-8.2-1.7-11.2-4.7L45.3,273c-55.8-57-55.8-149.8,0-206.9c27.1-27.7,63.1-42.9,101.3-42.9
			c38.3,0,74.3,15.2,101.3,42.9c3,3.1,5.9,6.4,8.7,9.8c2.8-3.4,5.7-6.7,8.7-9.8c27.1-27.7,63.1-42.9,101.3-42.9
			c38.3,0,74.3,15.2,101.3,42.9c55.8,57,55.8,149.8,0,206.9L267.9,485.5C265,488.5,260.9,490.3,256.7,490.3z"/>
	</g>
	<g>
		<path class="st1" d="M468.1,66.2c-4.4-4.5-9-8.5-13.8-12.3c-19-9.4-40.4-14.8-63-14.8c-37.5,0-71.6,14.5-97,38.2
			c-24.7,23.1-37.6,56.2-37.6,90.1v210.9c0,24.8-14.5,47.4-37.1,57.6l-10.3,4.7l36.2,44.9c3,3,7,4.7,11.2,4.7
			c4.2,0,8.3-1.7,11.2-4.7L468.1,273C524,216,524,123.2,468.1,66.2z"/>
	</g>
	<path class="st2" d="M500.7,221.1h-170L303.1,152c-2.4-6-8.2-10-14.7-10c-6.5,0-12.3,3.9-14.7,10l-48.6,121.6l-17-42.4
		c-2.4-6-8.2-10-14.7-10H12.7c4.1,11.1,9.5,21.7,16.2,31.7h153.7l27.7,69.2c2.4,6,8.2,10,14.7,10c6.5,0,12.3-3.9,14.7-10l48.6-121.6
		l17,42.4c2.4,6,8.2,10,14.7,10h164.5C491.3,242.8,496.7,232.2,500.7,221.1z"/>
	<g>
		<path class="st1" d="M493.8,237c-1.1,2.2-2.4,4.4-3.6,6.6c1.3-2.2,2.6-4.4,3.7-6.6H493.8z"/>
		<path class="st1" d="M488.9,245.8c-1.4,2.4-2.9,4.7-4.4,7H320c-6.5,0-12.3-3.9-14.7-10l-17-42.4L239.8,322c-2.4,6-8.2,10-14.7,10
			c-6.5,0-12.3-3.9-14.7-10l-27.7-69.2H28.9c-1.6-2.3-3-4.6-4.4-7c4.8,8,10.4,15.7,16.9,22.8h141.3l27.7,69.2c2.4,6,8.2,10,14.7,10
			c6.5,0,12.3-3.9,14.7-10l48.6-121.6l17,42.4c2.4,6,8.2,10,14.7,10h152C478.5,261.5,484.1,253.9,488.9,245.8z"/>
		<path class="st1" d="M23.2,243.6c-1.2-2.2-2.5-4.4-3.6-6.6h-0.1C20.6,239.2,22,241.4,23.2,243.6z"/>
	</g>
	<path class="st3" d="M303.1,152c-2.4-6-8.2-10-14.7-10c-6.5,0-12.3,3.9-14.7,10l-17,42.4v85.2l31.7-79.2l17,42.4
		c2.4,6,8.2,10,14.7,10h164.5c6.8-10,12.2-20.6,16.2-31.7h-170L303.1,152z"/>
</g>
</svg>
