<?xml version="1.0" encoding="utf-8"?>
<!-- Generator: Adobe Illustrator 21.0.2, SVG Export Plug-In . SVG Version: 6.00 Build 0)  -->
<svg version="1.1" id="Layer_1" xmlns="http://www.w3.org/2000/svg" xmlns:xlink="http://www.w3.org/1999/xlink" x="0px" y="0px"
	 viewBox="0 0 512 512" style="enable-background:new 0 0 512 512;" xml:space="preserve">
<style type="text/css">
	.st0{fill:#11A1CC;}
	.st1{fill:#FFFFFF;}
	.st2{fill:#50BEE7;}
</style>
<g>
	<g>
		<path class="st0" d="M201.1,27.1h-166c-17.4,0-31.6,14.2-31.6,31.6v94.9h506v-47.4c0-17.4-14.2-31.6-31.6-31.6H240.7L201.1,27.1z"
			/>
	</g>
	<g>
		<path class="st1" d="M470,153.6c0,8.7-7.1,15.8-15.8,15.8H66.7c-8.7,0-15.8-7.1-15.8-15.8V122c0-8.7,7.1-15.8,15.8-15.8h387.4
			c8.7,0,15.8,7.1,15.8,15.8V153.6z"/>
	</g>
	<g>
		<path class="st2" d="M509.5,454.1c0,17.4-14.2,31.6-31.6,31.6H35.1c-17.4,0-31.6-14.2-31.6-31.6V161.5c0-17.4,14.2-31.6,31.6-31.6
			h442.8c17.4,0,31.6,14.2,31.6,31.6V454.1z"/>
	</g>
</g>
</svg>
