<svg id="Capa_1" enable-background="new 0 0 512 512" height="512" viewBox="0 0 512 512" width="512" xmlns="http://www.w3.org/2000/svg"><path d="m327.011 230.156c-4.143 0-7.5-3.357-7.5-7.5v-80.044c0-4.143 3.357-7.5 7.5-7.5s7.5 3.357 7.5 7.5v80.044c0 4.143-3.358 7.5-7.5 7.5z" fill="#d3ced5"/><path d="m214.196 410.662c-9.321 0-16.878-7.556-16.878-16.878s7.556-16.878 16.878-16.878h135.171c-2.248-30.753-27.988-55.087-59.305-55.087h-223.098c-32.789 0-59.464 26.675-59.464 59.465 0 32.789 26.676 59.466 59.464 59.466h223.099c22.111 0 41.442-12.131 51.688-30.088z" fill="#958b95"/><path d="m197.319 393.785c0-9.321 7.556-16.878 16.878-16.878h104.92c-2.114-14.149-14.316-25-29.053-25h-223.1c-16.225 0-29.378 13.153-29.378 29.378s13.153 29.377 29.378 29.377h147.222c-9.316-.005-16.867-7.559-16.867-16.877z" fill="#e4989d"/><path d="m265.03 388.784h-178.228c-4.142 0-7.5-3.357-7.5-7.5s3.358-7.5 7.5-7.5h178.228c4.142 0 7.5 3.357 7.5 7.5s-3.358 7.5-7.5 7.5z" fill="#dd636e"/><path d="m214.852 96.569h-177.265v124.088h65.319c1.83 0 3.313 1.483 3.313 3.313v43.956c0 1.83 1.483 3.313 3.313 3.313h122.006c1.83 0 3.313-1.483 3.313-3.313v-47.269z" fill="#958b95"/><path d="m214.852 96.569h-36.776l15.179 94.174c1.064 6.599 1.598 13.272 1.598 19.957 0 22.389-18.15 40.54-40.539 40.54h-48.093v16.687c0 1.83 1.483 3.313 3.313 3.313h122.006c1.83 0 3.313-1.483 3.313-3.313v-47.269z" fill="#868086"/><circle cx="66.965" cy="381.285" fill="#d3ced5" r="29.378"/><path d="m409.467 410.662h-195.271c-9.321 0-16.878-7.556-16.878-16.878 0-9.321 7.556-16.878 16.878-16.878h195.271z" fill="#d3ced5"/><path d="m290.063 321.82c22.111 0 41.442 12.131 51.688 30.087h67.716v-30.087z" fill="#b4acb7"/><path d="m193.787 122.987c-.132-.817-.837-1.418-1.665-1.418h-54.215c-.932 0-1.687.755-1.687 1.687v121.878c0 .932.755 1.687 1.687 1.687h65.907c.932 0 1.687-.755 1.687-1.687v-49.342c0-.09-.007-.18-.021-.268z" fill="#d5dff4"/><path d="m172.735 246.82h31.078c.932 0 1.687-.755 1.687-1.687v-49.342c0-.09-.007-.18-.021-.268l-11.691-72.536c-.132-.818-.837-1.418-1.665-1.418h-10.017l11.149 69.174c1.064 6.599 1.598 13.272 1.598 19.957-.001 15.754-8.989 29.411-22.118 36.12z" fill="#c3d5ef"/><path d="m62.587 123.255v70.714c0 .932.755 1.687 1.687 1.687h45.259c.932 0 1.687-.755 1.687-1.687v-70.714c0-.932-.755-1.687-1.687-1.687h-45.259c-.932 0-1.687.756-1.687 1.687z" fill="#d5dff4"/><path d="m448.497 369.512-3.844-41.51c-.067-.729-.529-1.362-1.202-1.65l-31.207-13.345c-1.316-.563-2.778.403-2.778 1.833v107.38c0 10.234 8.296 18.53 18.53 18.53h80.074c2.17 0 3.929-1.759 3.929-3.929v-18.023c0-1.794-1.215-3.36-2.952-3.805l-27.869-7.149c-17.896-4.591-30.977-19.934-32.681-38.332z" fill="#e4989d"/><path d="m372.692 232.459c0-6.518-5.284-11.802-11.802-11.802h-126.038v47.269c0 1.83-1.483 3.313-3.313 3.313h-122.007c-1.83 0-3.313-1.483-3.313-3.313v-43.956c0-1.83-1.483-3.313-3.313-3.313h-89.635c-3.187 0-5.771 2.584-5.771 5.771v89.621c0 3.187 2.584 5.771 5.771 5.771h359.421z" fill="#e4989d"/><path d="m372.692 232.459c0-6.518-5.284-11.802-11.802-11.802h-28.198v44.918c0 20.018-16.227 36.245-36.245 36.245h-288.947v14.229c0 3.187 2.584 5.771 5.771 5.771h359.421z" fill="#dd636e"/><path d="m319.151 376.907c-2.114-14.149-14.316-25-29.053-25s-26.939 10.851-29.053 25z" fill="#c3bec6"/><path d="m268.78 195.656h25v25h-25z" fill="#958b95"/><path d="m298.013 195.656h-33.465c-2.208 0-3.998-1.79-3.998-3.998v-8.423c0-7.044 5.71-12.754 12.754-12.754h15.953c7.044 0 12.754 5.71 12.754 12.754v8.423c0 2.208-1.79 3.998-3.998 3.998z" fill="#d3ced5"/><path d="m27.587 71.25h197.265v25.319h-197.265z" fill="#e4989d"/><g fill="#dd636e"><path d="m266.78 291.717c-4.143 0-7.5-3.357-7.5-7.5v-29.67c0-4.143 3.357-7.5 7.5-7.5s7.5 3.357 7.5 7.5v29.67c0 4.142-3.357 7.5-7.5 7.5z"/><path d="m291.78 291.717c-4.143 0-7.5-3.357-7.5-7.5v-29.67c0-4.143 3.357-7.5 7.5-7.5s7.5 3.357 7.5 7.5v29.67c0 4.142-3.357 7.5-7.5 7.5z"/><path d="m316.78 291.717c-4.143 0-7.5-3.357-7.5-7.5v-29.67c0-4.143 3.357-7.5 7.5-7.5s7.5 3.357 7.5 7.5v29.67c0 4.142-3.357 7.5-7.5 7.5z"/><path d="m341.781 291.717c-4.143 0-7.5-3.357-7.5-7.5v-29.67c0-4.143 3.357-7.5 7.5-7.5s7.5 3.357 7.5 7.5v29.67c0 4.142-3.357 7.5-7.5 7.5z"/><path d="m106.219 265.476h-98.719c-4.142 0-7.5-3.357-7.5-7.5s3.358-7.5 7.5-7.5h98.719z"/></g></svg>