<?xml version="1.0" encoding="utf-8"?>
<!-- Generator: Adobe Illustrator 21.0.2, SVG Export Plug-In . SVG Version: 6.00 Build 0)  -->
<svg version="1.1" id="Layer_1" xmlns="http://www.w3.org/2000/svg" xmlns:xlink="http://www.w3.org/1999/xlink" x="0px" y="0px"
	 viewBox="0 0 468.5 468.5" style="enable-background:new 0 0 468.5 468.5;" xml:space="preserve">
<style type="text/css">
	.st0{fill:#E2E4E6;}
	.st1{fill:#35495C;}
</style>
<g>
	<g>
		<path class="st0" d="M212.8,39.5h-116c-8,0-14.5,6.5-14.5,14.5s6.5,14.5,14.5,14.5h116V39.5z"/>
		<path class="st0" d="M372.3,39.5h-116v29h116c8,0,14.5-6.5,14.5-14.5S380.3,39.5,372.3,39.5z"/>
	</g>
	<g>
		<path class="st0" d="M372.3,402h-116v29h116c8,0,14.5-6.5,14.5-14.5C386.8,408.5,380.3,402,372.3,402z"/>
		<path class="st0" d="M212.8,402h-116c-8,0-14.5,6.5-14.5,14.5c0,8,6.5,14.5,14.5,14.5h116V402z"/>
	</g>
	<g>
		<path class="st0" d="M67.8,213.5v-116c0-8-6.5-14.5-14.5-14.5c-8,0-14.5,6.5-14.5,14.5v116H67.8z"/>
		<path class="st0" d="M38.8,257v116c0,8,6.5,14.5,14.5,14.5c8,0,14.5-6.5,14.5-14.5V257H38.8z"/>
	</g>
	<g>
		<path class="st0" d="M430.3,213.5v-116c0-8-6.5-14.5-14.5-14.5c-8,0-14.5,6.5-14.5,14.5v116H430.3z"/>
		<path class="st0" d="M401.3,257v116c0,8,6.5,14.5,14.5,14.5c8,0,14.5-6.5,14.5-14.5V257H401.3z"/>
	</g>
	<g>
		<path class="st1" d="M452,3.3h-72.5c-8,0-14.5,6.5-14.5,14.5v72.5c0,8,6.5,14.5,14.5,14.5H452c8,0,14.5-6.5,14.5-14.5V17.8
			C466.5,9.8,460,3.3,452,3.3z M437.5,75.8H394V32.3h43.5V75.8z"/>
		<path class="st1" d="M270.8,3.3h-72.5c-8,0-14.5,6.5-14.5,14.5v72.5c0,8,6.5,14.5,14.5,14.5h72.5c8,0,14.5-6.5,14.5-14.5V17.8
			C285.3,9.8,278.8,3.3,270.8,3.3z M256.3,75.8h-43.5V32.3h43.5V75.8z"/>
		<path class="st1" d="M89.6,3.3H17.1c-8,0-14.5,6.5-14.5,14.5v72.5c0,8,6.5,14.5,14.5,14.5h72.5c8,0,14.5-6.5,14.5-14.5V17.8
			C104.1,9.8,97.6,3.3,89.6,3.3z M75.1,75.8H31.6V32.3h43.5V75.8z"/>
		<path class="st1" d="M452,184.5h-72.5c-8,0-14.5,6.5-14.5,14.5v72.5c0,8,6.5,14.5,14.5,14.5H452c8,0,14.5-6.5,14.5-14.5V199
			C466.5,191,460,184.5,452,184.5z M437.5,257H394v-43.5h43.5V257z"/>
		<path class="st1" d="M89.6,184.5H17.1c-8,0-14.5,6.5-14.5,14.5v72.5c0,8,6.5,14.5,14.5,14.5h72.5c8,0,14.5-6.5,14.5-14.5V199
			C104.1,191,97.6,184.5,89.6,184.5z M75.1,257H31.6v-43.5h43.5V257z"/>
		<path class="st1" d="M452,365.8h-72.5c-8,0-14.5,6.5-14.5,14.5v72.5c0,8,6.5,14.5,14.5,14.5H452c8,0,14.5-6.5,14.5-14.5v-72.5
			C466.5,372.3,460,365.8,452,365.8z M437.5,438.3H394v-43.5h43.5V438.3z"/>
		<path class="st1" d="M270.8,365.8h-72.5c-8,0-14.5,6.5-14.5,14.5v72.5c0,8,6.5,14.5,14.5,14.5h72.5c8,0,14.5-6.5,14.5-14.5v-72.5
			C285.3,372.3,278.8,365.8,270.8,365.8z M256.3,438.3h-43.5v-43.5h43.5V438.3z"/>
		<path class="st1" d="M89.6,365.8H17.1c-8,0-14.5,6.5-14.5,14.5v72.5c0,8,6.5,14.5,14.5,14.5h72.5c8,0,14.5-6.5,14.5-14.5v-72.5
			C104.1,372.3,97.6,365.8,89.6,365.8z M75.1,438.3H31.6v-43.5h43.5V438.3z"/>
	</g>
</g>
</svg>
