<svg id="Layer_1" data-name="Layer 1" xmlns="http://www.w3.org/2000/svg" viewBox="0 0 532.79 357.61"><defs><style>.cls-1{fill:#f58220;}.cls-2{fill:#fff1e2;}.cls-3{fill:#ffe6cb;}</style></defs><path class="cls-1" d="M20.42,167.28V87.81A38.42,38.42,0,0,1,31.66,60.65L53.4,38.91A7.68,7.68,0,0,1,64.26,49.78L42.53,71.51a23.09,23.09,0,0,0-6.75,16.31v56.41a7.68,7.68,0,0,0,7.69,7.68H81.88A7.68,7.68,0,0,1,88,164.21L65,194.94A7.67,7.67,0,0,1,58.83,198H51.15a30.73,30.73,0,0,1-30.73-30.73Z"/><path class="cls-2" d="M381.54,128.86a92.21,92.21,0,1,0,92.2,92.2,92.3,92.3,0,0,0-92.2-92.2Z"/><path class="cls-3" d="M400.65,171.23A30.74,30.74,0,1,0,431.38,202a30.77,30.77,0,0,0-30.73-30.73Z"/><path class="cls-2" d="M151.25,128.86a92.21,92.21,0,1,0,92.2,92.2,92.31,92.31,0,0,0-92.2-92.2Z"/><path class="cls-1" d="M293.39,201.86a7.68,7.68,0,0,1-7.68-7.69,19.21,19.21,0,1,0-38.42,0,7.69,7.69,0,1,1-15.37,0,34.58,34.58,0,0,1,69.15,0,7.68,7.68,0,0,1-7.68,7.69Z"/><path class="cls-1" d="M481.64,198H474a7.66,7.66,0,0,1-6.14-3.07l-23.05-30.73a7.68,7.68,0,0,1,6.14-12.3h38.42a7.68,7.68,0,0,0,7.68-7.68V87.82a23,23,0,0,0-6.75-16.31L468.52,49.78a7.69,7.69,0,0,1,10.87-10.87l21.74,21.74a38.42,38.42,0,0,1,11.24,27.16v79.47A30.73,30.73,0,0,1,481.64,198Z"/><path class="cls-1" d="M151.25,136.55a84.52,84.52,0,1,0,84.51,84.51,84.61,84.61,0,0,0-84.51-84.51Zm0,184.4a99.89,99.89,0,1,1,99.88-99.89A100,100,0,0,1,151.25,321Z"/><path class="cls-1" d="M381.75,136.55a84.52,84.52,0,1,0,84.52,84.51,84.61,84.61,0,0,0-84.52-84.51Zm0,184.4a99.89,99.89,0,1,1,99.89-99.89A100,100,0,0,1,381.75,321Z"/><path class="cls-3" d="M170.35,171.23A30.74,30.74,0,1,0,201.08,202a30.77,30.77,0,0,0-30.73-30.73Z"/></svg>