<svg xmlns="http://www.w3.org/2000/svg" viewBox="0 0 49.8 58.2"><defs><style>.cls-1{fill:#d48f07;}.cls-1,.cls-2,.cls-4{fill-rule:evenodd;}.cls-2{fill:#ad7513;}.cls-3{fill:#fff;}.cls-4{fill:#edac2a;}</style></defs><g id="katman_2" data-name="katman 2"><g id="katman_1-2" data-name="katman 1"><path class="cls-1" d="M6.53,0H32.92L49.8,16.71v35a6.55,6.55,0,0,1-6.53,6.52H6.53A6.55,6.55,0,0,1,0,51.68V6.53A6.55,6.55,0,0,1,6.53,0Z"/><polygon class="cls-2" points="35.32 15.18 49.8 28.55 49.8 16.71 45.89 12.84 35.32 15.18 35.32 15.18"/><path class="cls-3" d="M11,36.74l3.28,9.47h0l3.3-9.47h3.36V49.53H18.35V45.72L18.61,40h0l-3.46,9.56H13.39L10,40h0l.26,5.71v3.81H7.61V36.74Zm19.55,8H32v2H30.51v2.77H28V46.76H22.74l-.12-1.54,5.31-8.48h2.58v8Zm-5.5,0H28V40.11h0l-.23.41L25,44.77Zm13,1.36.17.77h0l.17-.75,2.78-9.41h2.71L39.53,49.53H36.89L32.54,36.74h2.72L38,46.13Z"/><path class="cls-4" d="M49.78,16.69H39.49A6.55,6.55,0,0,1,33,10.16V0L49.78,16.69Z"/><polygon class="cls-4" points="18.09 8.97 31.71 17.85 18.09 26.73 18.09 8.97 18.09 8.97"/></g></g></svg>