<svg id="Layer_1" data-name="Layer 1" xmlns="http://www.w3.org/2000/svg" viewBox="0 0 479.49 479.49"><defs><style>.cls-1{fill:#faa61a;}.cls-2{fill:#fff;}</style></defs><path class="cls-1" d="M282.51,338H197V319a94.87,94.87,0,0,1,42.76-179.55h0A94.87,94.87,0,0,1,282.51,319Zm-83.19-2.34h80.85V317.55l.65-.32a92.53,92.53,0,1,0-82.15,0l.65.32Z"/><path class="cls-1" d="M281.34,341.54H198.15a4.67,4.67,0,0,1-4.67-4.67V321.12a98.37,98.37,0,0,1,46.26-185.18h0A98.37,98.37,0,0,1,286,321.13v15.74A4.67,4.67,0,0,1,281.34,341.54Zm-78.52-9.34h73.85V318.28a4.68,4.68,0,0,1,2.6-4.19,89,89,0,1,0-79,0,4.66,4.66,0,0,1,2.6,4.19Z"/><path class="cls-1" d="M281.34,341.54H198.15a4.67,4.67,0,0,1-4.67-4.67V321.12a98.37,98.37,0,0,1,46.26-185.18h0A98.37,98.37,0,0,1,286,321.13v15.74A4.67,4.67,0,0,1,281.34,341.54Z"/><path class="cls-1" d="M271,391.4H208.5a15,15,0,0,1-15-15v-39.5a4.67,4.67,0,0,1,4.67-4.67h83.19a4.67,4.67,0,0,1,4.67,4.67v39.5A15,15,0,0,1,271,391.4Zm-68.17-49.86v34.83a5.68,5.68,0,0,0,5.68,5.68H271a5.68,5.68,0,0,0,5.68-5.68V341.54Z"/><path class="cls-1" d="M239.74,412.32a25.5,25.5,0,0,1-25.47-25.47,4.68,4.68,0,0,1,4.68-4.67h41.59a4.68,4.68,0,0,1,4.68,4.67A25.51,25.51,0,0,1,239.74,412.32Zm-15.43-20.8a16.12,16.12,0,0,0,30.87,0Z"/><path class="cls-1" d="M239.74,109.05a4.68,4.68,0,0,1-4.67-4.68V71.84a4.68,4.68,0,0,1,9.35,0v32.53A4.68,4.68,0,0,1,239.74,109.05Z"/><path class="cls-1" d="M303.34,126.07a4.61,4.61,0,0,1-2.33-.63,4.67,4.67,0,0,1-1.71-6.38l16.26-28.15a4.67,4.67,0,0,1,8.09,4.67L307.4,123.73A4.69,4.69,0,0,1,303.34,126.07Z"/><path class="cls-1" d="M349.92,172.63a4.67,4.67,0,0,1-2.35-8.72l28.16-16.25a4.67,4.67,0,0,1,4.67,8.09L352.25,172A4.61,4.61,0,0,1,349.92,172.63Z"/><path class="cls-1" d="M176.15,126.07a4.69,4.69,0,0,1-4.06-2.34L155.84,95.58a4.67,4.67,0,1,1,8.09-4.67l16.26,28.15a4.67,4.67,0,0,1-1.71,6.38A4.61,4.61,0,0,1,176.15,126.07Z"/><path class="cls-1" d="M129.58,172.63a4.68,4.68,0,0,1-2.33-.62L99.09,155.75a4.67,4.67,0,0,1,4.67-8.09l28.16,16.25a4.67,4.67,0,0,1-2.34,8.72Z"/><path class="cls-2" d="M220.85,257.71a4.68,4.68,0,0,1,4.67,4.68v88.86H254V262.39a4.67,4.67,0,1,1,9.34,0v93.53a4.68,4.68,0,0,1-4.67,4.68H220.85a4.68,4.68,0,0,1-4.67-4.68V262.39A4.68,4.68,0,0,1,220.85,257.71Z"/><path class="cls-2" d="M272.44,200.6a4.76,4.76,0,0,0-4.54,4.07s-3.34,25-7.23,44.47c-5-15.37-10-32-10.07-32.16a3.56,3.56,0,0,0-3.21-2.61H231.23A3.58,3.58,0,0,0,228,217c-.09.2-5.08,16.79-10.07,32.16-3.89-19.51-7.22-44.47-7.22-44.47a4.77,4.77,0,0,0-4.55-4.07H192.35s6.31,50.51,12.5,66.69a3.69,3.69,0,0,0,3.35,2.62h17.57a3.81,3.81,0,0,0,3.33-2.62c3.86-9.17,7-21.71,10.21-32.73h0c3.21,11,6.34,23.56,10.21,32.73a3.8,3.8,0,0,0,3.33,2.62h17.56a3.71,3.71,0,0,0,3.36-2.62c6.19-16.18,12.49-66.69,12.49-66.69Z"/><path class="cls-2" d="M290.94,196.54a1.46,1.46,0,0,0,1.15,1.44s7,1.06,12.49,2.29c-4.32,1.58-9,3.16-9,3.19a1.1,1.1,0,0,0-.74,1v5.12a1.12,1.12,0,0,0,.74,1c.05,0,4.71,1.61,9,3.19-5.48,1.23-12.49,2.29-12.49,2.29a1.46,1.46,0,0,0-1.15,1.44v4.37s14.2-2,18.75-4a1.16,1.16,0,0,0,.73-1.07v-5.56a1.17,1.17,0,0,0-.74-1,85.3,85.3,0,0,0-9.19-3.24h0a85.34,85.34,0,0,0,9.19-3.23,1.18,1.18,0,0,0,.74-1.05v-5.57a1.15,1.15,0,0,0-.73-1.06c-4.55-2-18.75-4-18.75-4Z"/></svg>