<svg xmlns="http://www.w3.org/2000/svg" viewBox="0 0 49.8 58.2"><defs><style>.cls-1{fill:#f4a81c;}.cls-1,.cls-2,.cls-3{fill-rule:evenodd;}.cls-2{fill:#c38010;}.cls-3{fill:#fed383;}.cls-4{fill:#fff;}</style></defs><g id="katman_2" data-name="katman 2"><g id="katman_1-2" data-name="katman 1"><path class="cls-1" d="M6.53,0H32.92L49.8,16.71v35a6.55,6.55,0,0,1-6.53,6.53H6.53A6.55,6.55,0,0,1,0,51.67V6.53A6.55,6.55,0,0,1,6.53,0Z"/><polygon class="cls-2" points="35.32 15.18 49.8 28.55 49.8 16.71 45.89 12.84 35.32 15.18 35.32 15.18"/><path class="cls-3" d="M49.78,16.69H39.49A6.55,6.55,0,0,1,33,10.16V0L49.78,16.69Z"/><path class="cls-4" d="M11.44,44.94v4.64H8.87V36.78H14a5.06,5.06,0,0,1,3.49,1.11,4.19,4.19,0,0,1,0,6A5.11,5.11,0,0,1,14,44.94Zm0-2H14a2.16,2.16,0,0,0,1.64-.57,2.12,2.12,0,0,0,.54-1.5,2.21,2.21,0,0,0-.54-1.54A2.13,2.13,0,0,0,14,38.76H11.44V43Zm16,3.28a1.49,1.49,0,0,0-.51-1.19,5.4,5.4,0,0,0-1.84-.84,10.45,10.45,0,0,1-3.48-1.56,3,3,0,0,1-1.14-2.49,3.08,3.08,0,0,1,1.32-2.58,5.59,5.59,0,0,1,3.44-1,5.17,5.17,0,0,1,3.46,1.11A3.51,3.51,0,0,1,30,40.53H27.42a1.86,1.86,0,0,0-.58-1.44,2.35,2.35,0,0,0-1.67-.54,2.51,2.51,0,0,0-1.61.45A1.46,1.46,0,0,0,23,40.17a1.26,1.26,0,0,0,.59,1.08,8.7,8.7,0,0,0,2.09.88,8.24,8.24,0,0,1,3.23,1.54A3.24,3.24,0,0,1,30,46.22a3,3,0,0,1-1.28,2.61,5.78,5.78,0,0,1-3.44.94,6.38,6.38,0,0,1-3.68-1.07,3.52,3.52,0,0,1-1.53-3.08h2.56a2,2,0,0,0,.69,1.68,3.18,3.18,0,0,0,2,.52,2.53,2.53,0,0,0,1.61-.43,1.37,1.37,0,0,0,.54-1.15Zm4.42,3.34V36.78H36a5.78,5.78,0,0,1,4.23,1.53,5.39,5.39,0,0,1,1.56,4V44a5.36,5.36,0,0,1-1.57,4,5.85,5.85,0,0,1-4.26,1.51Zm2.57-10.82v8.85H35.8a3.21,3.21,0,0,0,2.57-1A4,4,0,0,0,39.18,44V42.34a4,4,0,0,0-.8-2.64,3.16,3.16,0,0,0-2.54-.94Z"/><path class="cls-3" d="M16.43,8.34a3.08,3.08,0,1,1-3.08,3.07,3.07,3.07,0,0,1,3.08-3.07Zm-2.89,16.9,5.19-6.86L22,20.83l5.47-7.69,9,12.12-22.91,0Z"/></g></g></svg>