<svg id="Layer_1" data-name="Layer 1" xmlns="http://www.w3.org/2000/svg" viewBox="0 0 474.41 460.73"><defs><style>.cls-1{fill:#a6ce39;}.cls-2{fill:#fff;}</style></defs><path class="cls-1" d="M394.54,218.87l-52.82-26.4,52.82-26.41a12.86,12.86,0,0,0,0-23L243,67.28a12.9,12.9,0,0,0-11.49,0L79.87,143.08a12.85,12.85,0,0,0,0,23l52.81,26.41-52.81,26.4a12.85,12.85,0,0,0,0,23l52.81,26.41L79.87,294.67a12.85,12.85,0,0,0,0,23l151.59,75.79a12.84,12.84,0,0,0,11.49,0l151.59-75.79a12.86,12.86,0,0,0,0-23l-52.82-26.41,52.82-26.41A12.86,12.86,0,0,0,394.54,218.87ZM237.2,93.14l122.87,61.43L237.2,216,114.34,154.57Zm122.87,213L237.2,367.59,114.34,306.16l47.07-23.54,70.05,35a12.87,12.87,0,0,0,11.49,0l70.05-35ZM237.2,291.79,114.34,230.36l47.07-23.53,70.05,35a12.84,12.84,0,0,0,11.49,0l70.05-35,47.07,23.53Z"/><polygon class="cls-1" points="78.23 157.16 230.04 233.31 393.83 149.88 242.01 73.72 78.23 157.16"/><path class="cls-2" d="M230.37,124c-2.27,1.15-2.6,3-.8,4.32,0,0,20.33,13.66,34.91,25-19.75-4.73-40.67-10-41-10.09a9.3,9.3,0,0,0-5.79.44l-16.6,8.45c-1.31.74-1.85,1.84-.81,2.94.1.14,10.75,10.67,20.27,20.62-22.57-7.28-49.75-17.46-49.75-17.46a12.21,12.21,0,0,0-8.54.44l-14.2,7.23s54.56,20.82,76.32,25.3a9.51,9.51,0,0,0,5.94-.5l18-9.19c1.38-.73,1.79-1.82.92-3-4.76-6.4-13.48-14-20.67-21h0c13.78,3.58,28.94,7.93,41.64,10.28a9.88,9.88,0,0,0,5.92-.49l18-9.19c1.41-.74,1.9-1.84.95-3-9-11-50.65-38.38-50.65-38.38Z"/><path class="cls-2" d="M241.69,110.65a4.49,4.49,0,0,0,3.14.11S255,106.85,263.35,104c-3.62,3.72-7.67,7.66-7.71,7.71-.39.41-.21.81.27,1.07l6,3a3.32,3.32,0,0,0,2.13.12c.1,0,7.86-2.09,15.19-3.95-5.5,4.26-13.15,9.41-13.15,9.41-.68.51-.57,1.18.25,1.59l5.14,2.58s15.64-10.34,19.09-14.43c.37-.43.2-.84-.31-1.1l-6.53-3.28a3.58,3.58,0,0,0-2.18-.14c-4.7.94-10.33,2.63-15.45,4h0c2.73-2.6,6-5.46,7.86-7.84.33-.44.2-.84-.3-1.1l-6.54-3.28a3.49,3.49,0,0,0-2.18-.15c-8.06,1.78-28.39,9.77-28.39,9.77Z"/></svg>