<svg xmlns="http://www.w3.org/2000/svg" viewBox="0 0 49.8 58.2"><defs><style>.cls-1{fill:#9b3467;}.cls-1,.cls-2,.cls-3{fill-rule:evenodd;}.cls-2{fill:#74224c;}.cls-3{fill:#cf5a95;}.cls-4{fill:#fff;}</style></defs><g id="katman_2" data-name="katman 2"><g id="katman_1-2" data-name="katman 1"><path class="cls-1" d="M6.53,0H32.92L49.8,16.71v35a6.55,6.55,0,0,1-6.53,6.53H6.53A6.55,6.55,0,0,1,0,51.67V6.53A6.55,6.55,0,0,1,6.53,0Z"/><polygon class="cls-2" points="35.32 15.18 49.8 28.55 49.8 16.71 45.89 12.84 35.32 15.18 35.32 15.18"/><path class="cls-3" d="M49.78,16.69H39.49A6.55,6.55,0,0,1,33,10.16V0L49.78,16.69Z"/><path class="cls-4" d="M9.38,44.46v5.12H6.81V36.78h5a5.07,5.07,0,0,1,3.33.95,3.43,3.43,0,0,1,1.12,2.79,2.68,2.68,0,0,1-.55,1.75,3.93,3.93,0,0,1-1.65,1.11v0a2.73,2.73,0,0,1,1.61,1.11,3.7,3.7,0,0,1,.47,1.95v.94a4.66,4.66,0,0,0,.14,1.09,1.45,1.45,0,0,0,.5.83v.25H14.18a1.45,1.45,0,0,1-.46-.95,7.81,7.81,0,0,1-.11-1.24v-.9A2.16,2.16,0,0,0,13.13,45a1.89,1.89,0,0,0-1.44-.52Zm0-2h2.21A2.45,2.45,0,0,0,13.21,42a1.7,1.7,0,0,0,.52-1.36,2,2,0,0,0-.49-1.42,2.08,2.08,0,0,0-1.54-.5H9.38v3.73Zm16,4.29H20.94l-.87,2.8H17.48l4.4-12.8h2.63l4.39,12.8H26.3l-.87-2.8Zm-3.87-2h3.26L23.2,39.62h0l-1.61,5.19ZM40,45.56h0l1.64-8.78h2.48L41.4,49.58H39l-2.18-8.43h0l-2.18,8.43H32.28l-2.74-12.8H32l1.63,8.77h0l2.22-8.77h1.85L40,45.56Z"/><path class="cls-3" d="M16.43,8.34a3.08,3.08,0,1,1-3.08,3.07,3.07,3.07,0,0,1,3.08-3.07Zm-2.89,16.9,5.19-6.86L22,20.83l5.47-7.69,9,12.12-22.91,0Z"/></g></g></svg>