<svg xmlns="http://www.w3.org/2000/svg" viewBox="0 0 49.8 58.2"><defs><style>.cls-1{fill:#ac3d87;}.cls-1,.cls-2,.cls-4{fill-rule:evenodd;}.cls-2{fill:#882d69;}.cls-3{fill:#fff;}.cls-4{fill:#c266a4;}</style></defs><g id="katman_2" data-name="katman 2"><g id="katman_1-2" data-name="katman 1"><path class="cls-1" d="M6.53,0H32.92L49.8,16.71v35a6.55,6.55,0,0,1-6.53,6.52H6.53A6.55,6.55,0,0,1,0,51.68V6.53A6.55,6.55,0,0,1,6.53,0Z"/><polygon class="cls-2" points="35.32 15.18 49.8 28.55 49.8 16.71 45.89 12.84 35.32 15.18 35.32 15.18"/><path class="cls-3" d="M12.2,44.42v5.11H9.63V36.74h5a5,5,0,0,1,3.33.95,3.43,3.43,0,0,1,1.13,2.78,2.71,2.71,0,0,1-.56,1.76,3.83,3.83,0,0,1-1.64,1.11v0a2.76,2.76,0,0,1,1.6,1.12A3.64,3.64,0,0,1,19,46.42v.94a4.59,4.59,0,0,0,.14,1.09,1.53,1.53,0,0,0,.5.84v.24H17a1.42,1.42,0,0,1-.46-.94,7.91,7.91,0,0,1-.11-1.24v-.91a2.11,2.11,0,0,0-.48-1.5,1.84,1.84,0,0,0-1.44-.52Zm0-2h2.21A2.5,2.5,0,0,0,16,42a1.72,1.72,0,0,0,.52-1.36,1.94,1.94,0,0,0-.5-1.41,2,2,0,0,0-1.53-.51H12.2v3.73Zm19-3.73h-4V49.53H24.63V38.71h-4v-2H31.24v2Zm9.45,5.51h-5.3v5.31H32.83V36.74h8.75v2H35.39v3.53h5.3v2Z"/><path class="cls-4" d="M14.47,10.33H35.33V13H14.47V10.33Zm0,12.42H28.73v2.62H14.47V22.75Zm0-6.21H35.33v2.62H14.47V16.54Z"/><path class="cls-4" d="M49.78,16.69H39.49A6.55,6.55,0,0,1,33,10.16V0L49.78,16.69Z"/></g></g></svg>