<svg id="Layer_1" data-name="Layer 1" xmlns="http://www.w3.org/2000/svg" viewBox="0 0 595.28 595.28"><defs><style>.cls-1{fill:#fff;}.cls-2{fill:#72bf44;}.cls-3{fill:#a6ce39;}.cls-4{fill:#faa61a;}.cls-5{fill:#ffcb05;}.cls-6{fill:#0072bc;}.cls-7{fill:#0095da;}</style></defs><polygon class="cls-1" points="256.77 92.76 314.97 103.57 153.04 202.63 103.22 173.52 256.77 92.76"/><polygon class="cls-2" points="158.69 186.19 316.75 101.82 316.22 375.56 158.69 456.72 158.69 186.19"/><polygon class="cls-3" points="107.65 174.19 258.93 92.53 258.93 86.02 100.02 172.4 107.65 174.19"/><polygon class="cls-3" points="100.02 172.4 158.69 186.19 158.69 456.72 100.02 443.45 100.02 172.4"/><polygon class="cls-1" points="343.35 111.35 401.55 122.16 239.62 221.23 189.8 192.11 343.35 111.35"/><polygon class="cls-4" points="245.27 204.78 403.33 120.41 402.8 394.15 245.27 475.32 245.27 204.78"/><polygon class="cls-5" points="194.23 192.78 345.51 111.13 345.51 104.61 186.6 190.99 194.23 192.78"/><polygon class="cls-5" points="186.6 190.99 245.27 204.78 245.27 475.32 186.6 462.04 186.6 190.99"/><polygon class="cls-1" points="431.08 131.11 489.29 141.92 327.36 240.98 277.54 211.87 431.08 131.11"/><polygon class="cls-6" points="333.01 224.54 491.07 140.17 490.54 413.91 333.01 495.07 333.01 224.54"/><polygon class="cls-7" points="281.97 212.54 433.25 130.88 433.25 124.37 274.34 210.75 281.97 212.54"/><polygon class="cls-7" points="274.34 210.75 333.01 224.54 333.01 495.07 274.34 481.8 274.34 210.75"/><path class="cls-1" d="M437.94,273.43c-2.08,1.08-4,4.54-4.64,8.27,0,0-5.28,38.69-10.62,69.57-3.39-20.38-6.69-42.54-6.76-42.79-.38-2.24-1.55-2.86-2.81-2.31l-15.27,7.95c-1.28.77-2.59,2.68-3.26,5.46-.1.35-6.24,27.42-12.26,52.69-2-27.06-3-62.46-3-62.46-.22-3.3-1.87-4.89-3.95-3.81l-13.06,6.8s1.65,71.88,6.11,92.85c.48,2.21,1.64,2.89,3,2.24l16.59-8.63c1.3-.73,2.56-2.7,3.37-5.54,4.43-15.51,8.47-35.67,12.44-53.6h0c2.09,14.78,4,31.85,6.85,43.56.52,2.15,1.62,2.9,2.92,2.26l16.59-8.63c1.32-.72,2.63-2.68,3.39-5.54,7.23-27.06,17.5-105.14,17.5-105.14Z"/><path class="cls-1" d="M459.38,251.77c-.06,1.18.39,1.92,1.09,1.79,0,0,7.42-2.14,13.18-3.12-4.78,5.07-9.94,10.34-10,10.42a3.72,3.72,0,0,0-.89,2.12l-.49,8.63c0,.71.2,1.28.69,1.31.06,0,4.9.08,9.38.33-6,5.13-13.62,10.83-13.62,10.83a4.65,4.65,0,0,0-1.37,3.06l-.42,7.38s15.42-11.29,20.48-17.13a3.85,3.85,0,0,0,.89-2.2l.54-9.38c0-.73-.2-1.25-.69-1.36-2.64-.63-6.32-.33-9.55-.32h0c3.42-3.44,7.3-7.08,10.18-10.58a4,4,0,0,0,.89-2.19l.54-9.38c0-.74-.19-1.3-.68-1.38-4.69-.77-19.72,3.79-19.72,3.79Z"/></svg>