<svg id="Layer_1" data-name="Layer 1" xmlns="http://www.w3.org/2000/svg" viewBox="0 0 489.46 398.12"><defs><style>.cls-1{fill:#faa61a;}</style></defs><path class="cls-1" d="M242.84,68.91,47.23,169.73l30.25,14.09,3.13,1.46,4.28-13.17,16.16-2,2.3,3.49-13.86,4.79-2,8.71s-31.32,95.36-26.72,142c0,0,19.54,17,39.08,0L105,201.57V191l29.08-9.56-2.05,7.37L110.37,199l1.65.88,134.6,62.71L442.23,161.8Zm88.79,97.4-22.45,11.57a13,13,0,0,1-7.68.6c-16.89-3-37.23-8.56-55.68-13.14h0c10.26,8.8,22.59,18.48,29.59,26.59,1.28,1.49.89,2.86-.84,3.79l-22.45,11.57a12.62,12.62,0,0,1-7.7.62c-29-5.74-102.85-32.25-102.85-32.25l17.66-9.1c2.82-1.45,7.46-1.67,11.12-.53,0,0,36.77,12.95,67.16,22.24-13.66-12.62-28.88-26-29-26.15-1.48-1.4-.92-2.78.7-3.71l20.67-10.65a12.19,12.19,0,0,1,7.51-.53c.38.06,28.37,6.84,54.77,12.89-20.45-14.41-48.7-31.75-48.7-31.75-2.52-1.73-2.31-4,.51-5.47l17.66-9.1s57.75,34.81,70.91,48.71C333.89,164,333.38,165.38,331.63,166.31Z"/><path class="cls-1" d="M264.61,69a8.94,8.94,0,0,0,6.07.22S289.46,62,305.11,56.8c-6.3,6.91-13.37,14.23-13.44,14.33-.68.76-.26,1.51.7,2l12.12,5.65a6.91,6.91,0,0,0,4.12.24c.19,0,14.76-3.87,28.53-7.3-9.82,7.92-23.61,17.48-23.61,17.48-1.21,1-.9,2.19.76,3L324.65,97s28.24-19.19,34.15-26.79c.63-.81.23-1.56-.8-2.06L344.83,62a7.27,7.27,0,0,0-4.21-.28c-8.88,1.73-19.41,4.86-29,7.44h0c4.79-4.82,10.62-10.14,13.71-14.57.56-.81.23-1.56-.79-2.05l-13.16-6.13a7,7,0,0,0-4.23-.29c-15.2,3.28-52.89,18.07-52.89,18.07Z"/><path class="cls-1" d="M371.49,246.91V225.42L248.37,284.81,125.25,225.42v22.49c0,60.39,55.14,104.27,123.16,104.27s123.16-42.12,123.16-104.27C371.57,247.57,371.49,247.24,371.49,246.91Z"/></svg>