<?xml version="1.0" encoding="utf-8"?>
<!-- Generator: Adobe Illustrator 21.0.2, SVG Export Plug-In . SVG Version: 6.00 Build 0)  -->
<svg version="1.1" id="Layer_1" xmlns="http://www.w3.org/2000/svg" xmlns:xlink="http://www.w3.org/1999/xlink" x="0px" y="0px"
	 viewBox="0 0 511.8 511.8" style="enable-background:new 0 0 511.8 511.8;" xml:space="preserve">
<style type="text/css">
	.st0{fill:#DE4C20;}
	.st1{fill:#15A8DB;}
	.st2{fill:#4BB9EC;}
	.st3{fill:#FF4F19;}
	.st4{fill:#E3001E;}
</style>
<g>
	<path class="st0" d="M25.2,324.4c-21,21-21,55.3,0,76.3l60.9,60.9c1.4,1.4,3.4,2.3,5.4,2.3h161.7c2,0,4-0.8,5.4-2.3l90.1-90.1
		L163.4,186.2L25.2,324.4z"/>
</g>
<g>
	<path class="st1" d="M163.4,186.2l187.2,185.2l138-138c21-21,21-55.3,0-76.3l-109-109c-21-21-55.3-21-76.3,0L163.4,186.2z"/>
</g>
<g>
	<g>
		<path class="st2" d="M171.3,193.9l185.3,185.3l138-138c21-21,21-55.3,0-76.3l-109-109c-21-21-55.3-21-76.3,0L171.3,193.9z"/>
	</g>
	<g>
		<path class="st3" d="M33.1,332.1c-21,21-21,55.3,0,76.3L94,469.3c1.4,1.4,3.4,2.3,5.4,2.3h161.7c2,0,4-0.8,5.4-2.3l90.1-90.1
			L171.3,193.9L33.1,332.1z"/>
	</g>
	<g>
		<g>
			<path class="st4" d="M464.4,471.6h-23.1c-4.3,0-7.7-3.4-7.7-7.7s3.4-7.7,7.7-7.7h23.1c4.3,0,7.7,3.4,7.7,7.7
				S468.6,471.6,464.4,471.6z"/>
		</g>
	</g>
	<g>
		<g>
			<path class="st3" d="M341.1,440.8c-2.8,0-5.5-1.6-6.9-4.3c-1.9-3.8-0.4-8.4,3.4-10.3l15.4-7.7c3.8-1.9,8.4-0.4,10.3,3.4
				c1.9,3.8,0.4,8.4-3.4,10.3l-15.4,7.7C343.4,440.5,342.2,440.8,341.1,440.8z"/>
		</g>
	</g>
	<g>
		<g>
			<path class="st3" d="M395,440.8h-7.7c-4.3,0-7.7-3.4-7.7-7.7c0-4.3,3.4-7.7,7.7-7.7h7.7c4.3,0,7.7,3.4,7.7,7.7
				C402.7,437.3,399.3,440.8,395,440.8z"/>
		</g>
	</g>
	<g>
		<g>
			<path class="st3" d="M371.9,409.9c-2,0-3.9-0.8-5.4-2.3c-3-3-3-7.9,0-10.9l7.7-7.7c3-3,7.9-3,10.9,0c3,3,3,7.9,0,10.9l-7.7,7.7
				C375.8,409.2,373.9,409.9,371.9,409.9z"/>
		</g>
	</g>
	<g>
		<g>
			<path class="st3" d="M410.4,417.6c-2.1,0-4.1-0.9-5.5-2.2c-1.5-1.5-2.2-3.5-2.2-5.5s0.8-4,2.2-5.4c3-2.9,8.1-2.9,10.9-0.1
				c1.5,1.5,2.3,3.5,2.3,5.5s-0.9,4-2.3,5.5C414.5,416.8,412.4,417.6,410.4,417.6z"/>
		</g>
	</g>
	<g>
		<g>
			<path class="st3" d="M410.4,379.1c-2.1,0-4.1-0.9-5.5-2.2c-1.5-1.5-2.2-3.5-2.2-5.5c0-2,0.8-4,2.2-5.4c3-2.9,8.1-2.9,10.9-0.1
				c1.5,1.5,2.3,3.5,2.3,5.5c0,2-0.9,4-2.3,5.5C414.5,378.3,412.4,379.1,410.4,379.1z"/>
		</g>
	</g>
	<g>
		<path class="st4" d="M410.4,456.2H80.8L94,469.3c1.4,1.4,3.4,2.3,5.4,2.3h311c4.3,0,7.7-3.4,7.7-7.7S414.7,456.2,410.4,456.2z"/>
	</g>
</g>
</svg>
