<?xml version="1.0" encoding="utf-8"?>
<!-- Generator: Adobe Illustrator 21.0.2, SVG Export Plug-In . SVG Version: 6.00 Build 0)  -->
<svg version="1.1" id="Layer_1" xmlns="http://www.w3.org/2000/svg" xmlns:xlink="http://www.w3.org/1999/xlink" x="0px" y="0px"
	 viewBox="0 0 512 512" style="enable-background:new 0 0 512 512;" xml:space="preserve">
<style type="text/css">
	.st0{fill:#748A9D;}
	.st1{fill:#FCCF63;}
	.st2{fill:#F6B74E;}
	.st3{fill:#D89C44;}
</style>
<g>
	<g>
		<g>
			<path class="st0" d="M287.9,98.8c-8.7,0-15.7-7-15.7-15.7V51.6c0-8.7-7.1-15.7-15.7-15.7s-15.7,7.1-15.7,15.7V83
				c0,8.7-7,15.7-15.7,15.7c-8.7,0-15.7-7-15.7-15.7V51.6c0-26,21.2-47.2,47.2-47.2s47.2,21.2,47.2,47.2V83
				C303.7,91.7,296.6,98.8,287.9,98.8z"/>
		</g>
	</g>
	<g>
		<path class="st1" d="M437.5,382.1c-15.7,0-23.6-14.1-23.6-31.5c0,0-7.9-283.4-102.3-283.4H201.3C106.9,67.3,99,350.7,99,350.7
			c0,17.4-7.9,31.5-23.6,31.5c-23.6,0-31.5,15.2-31.5,31.5c0,17.4,7.9,31.5,31.5,31.5h362.1c23.6,0,31.5-14.1,31.5-31.5
			C468.9,397.3,461.1,382.1,437.5,382.1z"/>
	</g>
	<g>
		<path class="st2" d="M437.5,382.1c-15.7,0-23.6-14.1-23.6-31.5c0,0-7.9-283.4-102.3-283.4h-63c94.5,0,86.6,283.4,86.6,283.4
			c0,31.5,15.7,94.5,55.1,94.5h47.2c23.6,0,31.5-14.1,31.5-31.5C468.9,397.3,461.1,382.1,437.5,382.1z"/>
	</g>
	<g>
		<path class="st2" d="M319.4,445.1c0,34.8-28.2,63-63,63c-34.8,0-63-28.2-63-63H319.4z"/>
	</g>
	<g>
		<path class="st3" d="M317.3,460.8c1.3-5,2.1-10.3,2.1-15.7H193.5c0,5.4,0.8,10.7,2.1,15.7H317.3z"/>
	</g>
</g>
</svg>
