<?xml version="1.0" encoding="utf-8"?>
<!-- Generator: Adobe Illustrator 21.0.2, SVG Export Plug-In . SVG Version: 6.00 Build 0)  -->
<svg version="1.1" id="Layer_1" xmlns="http://www.w3.org/2000/svg" xmlns:xlink="http://www.w3.org/1999/xlink" x="0px" y="0px"
	 viewBox="0 0 512 512" style="enable-background:new 0 0 512 512;" xml:space="preserve">
<style type="text/css">
	.st0{fill:#576D7E;}
	.st1{fill:#E2E4E6;}
	.st2{fill:#35495C;}
	.st3{fill:#C9D1D7;}
	.st4{fill:#F05642;}
	.st5{fill:#113247;}
</style>
<g>
	<path class="st0" d="M331.5,474.3l-58.6-58.6v-25.1c0-8.7-7.1-15.8-15.8-15.8s-15.8,7.1-15.8,15.8v25.1l-58.6,58.6
		c-6.2,6.2-6.2,16.2,0,22.4c3.1,3.1,7.1,4.6,11.2,4.6s8.1-1.5,11.2-4.6l36.3-36.3v17.2c0,8.7,7.1,15.8,15.8,15.8s15.8-7.1,15.8-15.8
		v-17.2l36.3,36.3c3.1,3.1,7.1,4.6,11.2,4.6c4,0,8.1-1.5,11.2-4.6C337.6,490.5,337.6,480.5,331.5,474.3z"/>
	<path class="st1" d="M494.3,90v284.7c0,8.7-7.1,15.8-15.8,15.8H35.5c-8.7,0-15.8-7.1-15.8-15.8V90H494.3z"/>
	<g>
		<path class="st0" d="M257,58.4c-8.7,0-15.8-7.1-15.8-15.8V26.7c0-8.7,7.1-15.8,15.8-15.8s15.8,7.1,15.8,15.8v15.8
			C272.8,51.3,265.7,58.4,257,58.4z"/>
	</g>
	<path class="st2" d="M510.1,82.1c0,4.3-3.6,7.9-7.9,7.9H11.8c-4.3,0-7.9-3.6-7.9-7.9V50.5c0-4.3,3.6-7.9,7.9-7.9h490.4
		c4.3,0,7.9,3.6,7.9,7.9V82.1z"/>
	<rect x="19.7" y="90" class="st3" width="474.6" height="15.8"/>
	<path class="st4" d="M301.4,214.4c15,11.3,14.5,28.9-1.3,39.1l-54.1,37.7c-15.7,10.2-28.6,2.3-28.6-17.4v-83.9
		c0-19.8,12.3-26.7,27.4-15.3L301.4,214.4z"/>
	<path class="st2" d="M194.6,484.5c-3.8,3.8-10.3,2.8-12.7-2c-0.8-1.6-1.5-3.3-1.9-4.9c-3.5,6-2.7,13.8,2.5,19l0,0l0,0
		c3.1,3.1,7.1,4.6,11.2,4.6s8.1-1.5,11.2-4.6l52.1-50.7v-23.7L194.6,484.5z"/>
	<path class="st2" d="M319.3,484.5c3.8,3.8,10.3,2.8,12.7-2c0.8-1.6,1.5-3.3,1.9-4.9c3.5,6,2.7,13.8-2.5,19l0,0l0,0
		c-3.1,3.1-7.1,4.6-11.2,4.6c-4,0-8.1-1.5-11.2-4.6L257,445.9v-23.7L319.3,484.5z"/>
	<path class="st2" d="M257,438v38.3c0,5.5-5.5,9.2-10.7,7.5c-1.6-0.6-3.2-1.2-4.5-2c1.9,7.1,8.7,12.3,16.6,11.6
		c8.3-0.7,14.4-8.3,14.4-16.7v-16.2V438H257z"/>
	<path class="st2" d="M241.2,390.6v7.9h7.2c4.7,0,8.6,3.8,8.6,8.6l0,0c0,4.7,3.8,8.6,8.6,8.6h7.2v-17.2v-7.9H241.2z"/>
	<path class="st5" d="M11.8,90h490.4c4.4,0,7.9-3.6,7.9-7.9V50.5c0-4.4-3.6-7.9-7.9-7.9H257v15.8c0,4.4-3.5,7.9-7.9,7.9H3.9v15.8
		C3.9,86.4,7.5,90,11.8,90z"/>
	<path class="st2" d="M257,26v16.6h15.8V26.7c0-0.9-0.1-1.8-0.2-2.7C271,14.9,257,16.6,257,26z"/>
</g>
</svg>
