<?xml version="1.0" encoding="utf-8"?>
<!-- Generator: Adobe Illustrator 21.0.2, SVG Export Plug-In . SVG Version: 6.00 Build 0)  -->
<svg version="1.1" id="Layer_1" xmlns="http://www.w3.org/2000/svg" xmlns:xlink="http://www.w3.org/1999/xlink" x="0px" y="0px"
	 viewBox="0 0 449.4 449.4" style="enable-background:new 0 0 449.4 449.4;" xml:space="preserve">
<style type="text/css">
	.st0{fill:#F05642;}
	.st1{fill:#C9D1D7;}
	.st2{fill:#576D7E;}
	.st3{fill:#C44138;}
	.st4{fill:#35495C;}
</style>
<g>
	<path class="st0" d="M225.7,4.6c-35.3,0-64.1,27.5-64.1,61.2c0,59.6,51.3,116.8,53.5,119.2c2.7,3,6.5,4.7,10.5,4.7
		c4,0,7.8-1.7,10.5-4.7c2.2-2.4,53.5-59.6,53.5-119.2C289.8,32,261,4.6,225.7,4.6z M225.7,90c-11.8,0-21.4-9.6-21.4-21.4
		c0-11.8,9.6-21.4,21.4-21.4c11.8,0,21.4,9.6,21.4,21.4C247.1,80.4,237.5,90,225.7,90z"/>
	<path class="st1" d="M289.8,303.5H161.7c-19.6,0-35.6-16-35.6-35.6c0-19.6,16-35.6,35.6-35.6h64.1c7.9,0,14.2-6.4,14.2-14.2
		s-6.4-14.2-14.2-14.2h-64.1c-35.3,0-64.1,28.7-64.1,64.1s28.7,64.1,64.1,64.1h128.1c19.6,0,35.6,16,35.6,35.6
		c0,19.6-16,35.6-35.6,35.6H126.1c-7.9,0-14.2,6.4-14.2,14.2c0,7.9,6.4,14.2,14.2,14.2h163.7c35.3,0,64.1-28.7,64.1-64.1
		S325.1,303.5,289.8,303.5z"/>
	<g>
		<circle class="st2" cx="126.1" cy="417.4" r="28.5"/>
	</g>
	<g>
		<circle class="st2" cx="225.7" cy="218.1" r="28.5"/>
	</g>
	<path class="st3" d="M257.3,12.6c-14.2-7.7-31.6,2.6-31.6,18.8v15.9c11.8,0,21.4,9.6,21.4,21.4c0,11.8-9.6,21.4-21.4,21.4v79
		c0,7.9-8.3,13.6-15.4,10.1c-0.1,0-0.1-0.1-0.2-0.1c2.8,3.4,4.7,5.6,5.1,6c2.7,3,6.5,4.7,10.5,4.7c4,0,7.8-1.7,10.5-4.7
		c2.2-2.4,53.5-59.6,53.5-119.2C289.8,43,276.7,23.1,257.3,12.6z"/>
	<path class="st3" d="M225.7,90c-11.8,0-21.4-9.6-21.4-21.4s9.6-21.4,21.4-21.4v-7.1c-15.7,0-28.5,12.7-28.5,28.5
		c0,15.7,12.7,28.5,28.5,28.5V90z"/>
	<path class="st0" d="M225.7,47.3c11.8,0,21.4,9.6,21.4,21.4S237.5,90,225.7,90v7.1c15.7,0,28.5-12.7,28.5-28.5
		c0-15.7-12.7-28.5-28.5-28.5V47.3z"/>
	<path class="st4" d="M254.2,218.1c0-15.7-12.7-28.5-28.5-28.5v56.9C241.4,246.6,254.2,233.8,254.2,218.1z"/>
	<path class="st4" d="M154.5,417.4c0-15.7-12.7-28.5-28.5-28.5v56.9C141.8,445.8,154.5,433.1,154.5,417.4z"/>
</g>
</svg>
