<?xml version="1.0" encoding="utf-8"?>
<!-- Generator: Adobe Illustrator 21.0.2, SVG Export Plug-In . SVG Version: 6.00 Build 0)  -->
<svg version="1.1" id="Capa_1" xmlns="http://www.w3.org/2000/svg" xmlns:xlink="http://www.w3.org/1999/xlink" x="0px" y="0px"
	 viewBox="0 0 512 512" style="enable-background:new 0 0 512 512;" xml:space="preserve">
<style type="text/css">
	.st0{fill:#C3BEC6;}
	.st1{fill:#958B95;}
	.st2{fill:#868086;}
	.st3{fill:#D3CED5;}
	.st4{fill:#F7B737;}
	.st5{fill:#F4DD45;}
	.st6{fill:#B4ACB7;}
	.st7{fill:#CE9875;}
	.st8{fill:#ECD5C6;}
	.st9{fill:#C6865C;}
	.st10{fill:#787078;}
	.st11{fill:#53535B;}
</style>
<path class="st0" d="M268.6,337.3c-1.9,0-3.8-0.7-5.3-2.2l-63.8-63.8c-2.9-2.9-2.9-7.7,0-10.6c2.9-2.9,7.7-2.9,10.6,0l63.8,63.8
	c2.9,2.9,2.9,7.7,0,10.6C272.4,336.6,270.5,337.3,268.6,337.3z"/>
<path class="st1" d="M97.8,277H2.5c-1.4,0-2.5,1.1-2.5,2.5v75.9h97.8L97.8,277L97.8,277z"/>
<path class="st2" d="M57.8,277v25.1c0,18.4-14.9,33.3-33.3,33.3H0v20h97.8V277H57.8z"/>
<path class="st1" d="M230.3,191.4l30.4,163.9h27L256.5,187c-3.3-18-19-31-37.3-31h-83.5c-20.9,0-37.9,17-37.9,37.9v161.4h26.4V193.2
	c0-5.4,4.4-9.7,9.7-9.7h86.9C225.5,183.5,229.5,186.8,230.3,191.4L230.3,191.4z"/>
<path class="st3" d="M203.1,355.3h-79V302h74.9c2.2,0,4.1,1.8,4.1,4.1L203.1,355.3z"/>
<path class="st0" d="M199.1,302h-25.9v10.6c0,12.5-10.2,22.7-22.7,22.7h-26.3v20h79V306C203.1,303.8,201.3,302,199.1,302z"/>
<path class="st2" d="M152.2,302h-28v-41.8c0-5.7,4.6-10.3,10.3-10.3h7.5c5.7,0,10.3,4.6,10.3,10.3L152.2,302L152.2,302z"/>
<circle class="st1" cx="69.9" cy="446.9" r="39.9"/>
<path class="st3" d="M69.9,461.9c-8.2,0-14.9-6.7-14.9-14.9S61.7,432,69.9,432s14.9,6.7,14.9,14.9S78.2,461.9,69.9,461.9z"/>
<path class="st4" d="M210.2,399.6v60.4h30.6c-3.5-6.9-5.6-14.6-5.6-22.9c0-27.5,22.3-49.8,49.8-49.8h-62.5
	C215.7,387.3,210.2,392.8,210.2,399.6L210.2,399.6z"/>
<path class="st4" d="M300.9,379.7v-16.9c0-4.2-3.4-7.5-7.5-7.5H0v102.2c0,1.4,1.1,2.5,2.5,2.5h29.7c-1.7-4.9-2.4-10.2-2.1-15.8
	c1.3-19.7,17.2-35.7,37-37.1c23.4-1.6,42.8,16.8,42.8,39.8c0,4.6-0.8,8.9-2.2,13h102.5v-60.4c0-6.8,5.5-12.3,12.3-12.3h70.9
	C297.5,387.3,300.9,383.9,300.9,379.7z"/>
<path class="st5" d="M300.9,362.9v16.9c0,4.2-3.4,7.5-7.5,7.5h-70.9c-6.8,0-12.3,5.5-12.3,12.3v60.4H107.7c1.4-4.1,2.2-8.4,2.2-13
	c0-2.4-0.2-4.7-0.6-7h17c24.2,0,43.9-19.6,43.9-43.9v-16.5c0-6.8,5.5-12.3,12.3-12.3h70.9c4.2,0,7.5-3.4,7.5-7.5v-4.4h32.5
	C297.5,355.3,300.9,358.7,300.9,362.9L300.9,362.9z M30.1,444.2c0.1-1.4,0.3-2.9,0.5-4.2H0v17.5c0,1.4,1.1,2.5,2.5,2.5h29.7
	C30.5,455.1,29.7,449.7,30.1,444.2z"/>
<path class="st6" d="M333.5,124.4h-65.3c-0.7,0-1.3,0.6-1.3,1.3v21.7c0,0.6,0.4,1.1,0.9,1.2l32.1,9.5c0.5,0.2,0.9,0.7,0.9,1.2v230.6
	c19.7,6.6,33.9,25.3,33.9,47.2V125.7C334.8,125,334.2,124.4,333.5,124.4L333.5,124.4z"/>
<path class="st7" d="M479.4,363.6H363.8c-1.1,0-2-0.9-2-2V246.1c0-1.1,0.9-2,2-2h115.6c1.1,0,2,0.9,2,2v115.6
	C481.4,362.7,480.5,363.6,479.4,363.6z"/>
<path class="st8" d="M434.8,296h-26.4c-1.5,0-2.8-1.2-2.8-2.8V244h31.9v49.2C437.6,294.7,436.3,296,434.8,296L434.8,296z"/>
<path class="st7" d="M479.4,244H363.8c-1.1,0-2-0.9-2-2V126.5c0-1.1,0.9-2,2-2h115.6c1.1,0,2,0.9,2,2V242
	C481.4,243.1,480.5,244,479.4,244z"/>
<path class="st9" d="M479.4,244h-38v51.5c0,26.5-21.5,48.1-48.1,48.1h-31.5v18c0,1.1,0.9,2,2,2h115.6c1.1,0,2-0.9,2-2V246.1
	C481.4,244.9,480.5,244,479.4,244L479.4,244z"/>
<path class="st9" d="M479.4,124.4h-38V176c0,26.5-21.5,48.1-48.1,48.1h-31.5v18c0,1.1,0.9,2,2,2h115.6c1.1,0,2-0.9,2-2V126.5
	C481.4,125.3,480.5,124.4,479.4,124.4L479.4,124.4z"/>
<path class="st8" d="M434.8,176.4h-26.4c-1.5,0-2.8-1.2-2.8-2.8v-49.2h31.9v49.2C437.6,175.1,436.3,176.4,434.8,176.4L434.8,176.4z"
	/>
<path class="st1" d="M510.5,363.6l-146.6,0c-1.1,0-2-0.9-2-2v-86.1c0-0.9-0.7-1.5-1.5-1.5h-23.9c-0.9,0-1.5,0.7-1.5,1.5v113.1h175.6
	c0.9,0,1.5-0.7,1.5-1.5v-21.9C512,364.3,511.3,363.6,510.5,363.6L510.5,363.6z"/>
<path class="st2" d="M67.8,310.8H30c-4.1,0-7.5-3.4-7.5-7.5s3.4-7.5,7.5-7.5h37.8c4.1,0,7.5,3.4,7.5,7.5S71.9,310.8,67.8,310.8z
	 M75.3,329c0-4.1-3.4-7.5-7.5-7.5H30c-4.1,0-7.5,3.4-7.5,7.5s3.4,7.5,7.5,7.5h37.8C71.9,336.5,75.3,333.2,75.3,329z"/>
<path class="st10" d="M30,336.5h37.8c4.1,0,7.5-3.4,7.5-7.5s-3.4-7.5-7.5-7.5H51.5c-5.8,8-15.1,13.3-25.6,13.8
	C27.1,336.1,28.5,336.5,30,336.5z"/>
<path class="st10" d="M67.8,295.8h-10v6.3c0,3-0.4,5.9-1.2,8.7h11.2c4.1,0,7.5-3.4,7.5-7.5S71.9,295.8,67.8,295.8L67.8,295.8z"/>
<path class="st0" d="M174,336.2h-20.7c-4.1,0-7.5-3.4-7.5-7.5s3.4-7.5,7.5-7.5H174c4.1,0,7.5,3.4,7.5,7.5S178.1,336.2,174,336.2z"/>
<path class="st6" d="M149.9,335.3c1,0.5,2.2,0.8,3.4,0.8H174c4.1,0,7.5-3.4,7.5-7.5s-3.4-7.5-7.5-7.5h-2.5
	c-3.4,8.3-11.5,14.2-21,14.2H149.9z"/>
<path class="st3" d="M193.1,285.2c-1.9,0-3.8-0.7-5.3-2.2c-2.9-2.9-2.9-7.7,0-10.6l23.4-23.4c2.9-2.9,7.7-2.9,10.6,0
	c2.9,2.9,2.9,7.7,0,10.6L198.4,283C196.9,284.4,195,285.2,193.1,285.2L193.1,285.2z"/>
<path class="st7" d="M363.6,124.4V8.9c0-1.1,0.9-2,2-2h115.6c1.1,0,2,0.9,2,2v115.6"/>
<path class="st9" d="M483.2,124.4V8.9c0-1.1-0.9-2-2-2h0h-38v51.5c0,26.5-21.5,48.1-48.1,48.1h-31.5v18"/>
<path class="st8" d="M436.6,58.8h-26.4c-1.5,0-2.8-1.2-2.8-2.8V6.9h31.9V56C439.4,57.5,438.1,58.8,436.6,58.8L436.6,58.8z"/>
<rect x="320" y="124.4" class="st11" width="13.5" height="307.6"/>
<circle class="st1" cx="286.7" cy="437.1" r="49.8"/>
<path class="st3" d="M286.7,456.9c-10.9,0-19.8-8.9-19.8-19.8c0-10.9,8.9-19.8,19.8-19.8c10.9,0,19.8,8.9,19.8,19.8
	C306.6,448,297.7,456.9,286.7,456.9z"/>
</svg>
