<?xml version="1.0" encoding="utf-8"?>
<!-- Generator: Adobe Illustrator 21.0.2, SVG Export Plug-In . SVG Version: 6.00 Build 0)  -->
<svg version="1.1" id="Layer_1" xmlns="http://www.w3.org/2000/svg" xmlns:xlink="http://www.w3.org/1999/xlink" x="0px" y="0px"
	 viewBox="0 0 512 512" style="enable-background:new 0 0 512 512;" xml:space="preserve">
<style type="text/css">
	.st0{fill:#969290;}
	.st1{fill:#ADA7A4;}
	.st2{fill:#EBEDEC;}
	.st3{fill:#FFFFFF;}
	.st4{fill:#EE3840;}
	.st5{fill:#827570;}
	.st6{fill:#847F7E;}
	.st7{fill:#B7353E;}
</style>
<polygon class="st0" points="503.1,324.1 487.7,0 414.9,0 401.8,270.8 "/>
<polygon class="st1" points="452.5,324.1 437.1,0 414.9,0 401.8,270.8 "/>
<polygon class="st1" points="256,157.7 256,225.1 128,157.7 128,225.1 0,157.7 0,512 357.5,512 410.5,487.7 463.5,512 512,512 
	512,292.4 "/>
<g>
	<polygon class="st2" points="48.5,340.9 48.5,431.9 90.4,431.9 181.4,386.4 181.4,340.9 	"/>
	<polygon class="st2" points="309,340.9 267.1,340.9 176.2,386.4 176.2,431.9 309,431.9 	"/>
</g>
<polygon class="st3" points="181.4,340.9 90.4,431.9 176.2,431.9 267.1,340.9 "/>
<rect x="357.5" y="340.9" class="st4" width="106" height="171.1"/>
<polygon class="st5" points="256,157.7 256,225.1 128,157.7 128,225.1 0,157.7 0,174.5 138.8,247.5 138.8,172.8 266.9,242.2 
	265.8,172.8 512,302.5 512,292.4 "/>
<polygon class="st6" points="256,162.1 256,229.4 128,162.1 128,229.4 0,162.1 0,178.8 138.8,251.8 138.8,177.1 266.9,246.5 
	265.8,177.1 512,306.8 512,296.7 "/>
<rect x="357.5" y="340.9" class="st7" width="12.6" height="171.1"/>
</svg>
