<?xml version="1.0" encoding="utf-8"?>
<!-- Generator: Adobe Illustrator 21.0.2, SVG Export Plug-In . SVG Version: 6.00 Build 0)  -->
<svg version="1.1" id="Layer_1" xmlns="http://www.w3.org/2000/svg" xmlns:xlink="http://www.w3.org/1999/xlink" x="0px" y="0px"
	 viewBox="0 0 512 512" style="enable-background:new 0 0 512 512;" xml:space="preserve">
<style type="text/css">
	.st0{fill:#576D7E;}
	.st1{fill:#35495C;}
	.st2{fill:#113247;}
	.st3{fill:#83BD5A;}
	.st4{fill:#6FA04E;}
</style>
<g>
	<path class="st0" d="M153.1,50.6L112,9.5c-5.4-5.4-14-5.4-19.4,0L10.4,91.7c-5.4,5.4-5.4,14,0,19.4l41.1,41.1c2.7,2.7,6.2,4,9.7,4
		c3.5,0,7-1.3,9.7-4L153.1,70C158.5,64.6,158.5,55.9,153.1,50.6z"/>
	<path class="st1" d="M153.1,50.6L136.6,34L95.5,75.2c-5.4,5.4-14,5.4-19.4,0L51.6,50.6L10.4,91.7c-5.4,5.4-5.4,14,0,19.4l41.1,41.1
		c0.7,0.7,1.4,1.3,2.2,1.8c0.6,0.4,1.2,0.7,1.9,1c0.2,0.1,0.3,0.2,0.5,0.3c1.6,0.7,3.4,1,5.2,1c3.5,0,7-1.3,9.7-4l41.1-41.1
		L153.1,70C158.5,64.6,158.5,55.9,153.1,50.6z"/>
	<path class="st1" d="M500.9,468.5L480.3,448c-5.4-5.4-14-5.4-19.4,0c-5.4,5.4-5.4,14,0,19.4l20.6,20.6c2.7,2.7,6.2,4,9.7,4
		c3.5,0,7-1.3,9.7-4C506.2,482.6,506.2,473.9,500.9,468.5z"/>
	<path class="st2" d="M461,448c-5.4,5.4-5.4,14,0,19.4l20.6,20.6c2.7,2.7,6.2,4,9.7,4c3.5,0,7-1.3,9.7-4L461,448z"/>
	<path class="st3" d="M484.4,450.8v-48c0-3.6-1.4-7.1-4-9.7l-20.6-20.6c-5.4-5.4-14-5.4-19.4,0l-54.8,54.8c-5.4,5.4-5.4,14,0,19.4
		l20.6,20.6c2.6,2.6,6.1,4,9.7,4h48L484.4,450.8z"/>
	<path class="st4" d="M474.1,461.1L413,400l-27.4,27.4c-5.4,5.4-5.4,14,0,19.4l20.6,20.6c2.6,2.6,6.1,4,9.7,4h48L474.1,461.1z"/>
	<path class="st0" d="M459.8,372.6l-197-185c-5.4-5.4-14-5.4-19.4,0l-54.8,54.8c-5.4,5.4-5.4,14,0,19.4l197,185L459.8,372.6z"/>
	<path class="st1" d="M422.7,409.7L257.6,256.6c-5.4-5.4-5.4-14,0-19.4l27.4-27.4l-22.2-22.2c-5.4-5.4-14-5.4-19.4,0l-54.8,54.8
		c-1.3,1.3-2.3,2.9-3,4.5c-2,4.9-1,10.8,3,14.8l22.2,22.2l0,0l174.8,162.8L422.7,409.7z"/>
	<path class="st1" d="M166.8,283.5l-95.9-95.9c-0.1-0.1-0.3-0.2-0.5-0.4c-0.2-0.2-0.3-0.3-0.5-0.5c-5.6-4.7-8.7-10.7-8.7-16.9
		c0-6.2,3.1-12.2,8.7-16.8c5.8-4.8,6.6-13.5,1.8-19.3c-4.8-5.8-13.5-6.7-19.3-1.8c-12,10-18.7,23.4-18.7,37.9
		c0,14.1,6.3,27.2,17.7,37.1c0,0,0,0,0,0l95.9,95.9c2.7,2.7,6.2,4,9.7,4c3.5,0,7-1.3,9.7-4C172.2,297.6,172.2,288.9,166.8,283.5z"/>
	<path class="st3" d="M276.5,173.9l-133-133L41.9,142.5l133,133c2.7,2.7,6.2,4,9.7,4c3.5,0,7-1.3,9.7-4l82.2-82.2
		C281.8,187.9,281.8,179.3,276.5,173.9z"/>
	<path class="st4" d="M184.6,279.5c3.5,0,7-1.3,9.7-4l41.1-41.1L92.7,91.7l-50.8,50.8l133,133C177.5,278.2,181.1,279.5,184.6,279.5z
		"/>
</g>
</svg>
