<svg id="Capa_1" enable-background="new 0 0 512 512" height="512" viewBox="0 0 512 512" width="512" xmlns="http://www.w3.org/2000/svg"><path d="m443.228 164.818h-374.456c-37.921 0-68.772 30.851-68.772 68.772s30.851 68.772 68.772 68.772h374.456c37.921 0 68.772-30.852 68.772-68.772s-30.852-68.772-68.772-68.772z" fill="#958b95"/><path d="m452.255 165.408c12.205 12.418 19.745 29.436 19.745 48.182 0 37.921-30.852 68.772-68.772 68.772h-374.456c-3.059 0-6.072-.201-9.026-.59 12.485 12.702 29.852 20.59 49.026 20.59h374.456c37.921 0 68.772-30.852 68.772-68.772 0-34.862-26.074-63.748-59.745-68.182z" fill="#868086"/><path d="m443.228 200.582h-374.456c-18.23 0-33.008 14.778-33.008 33.008s14.778 33.008 33.008 33.008h374.456c18.23 0 33.008-14.778 33.008-33.008s-14.779-33.008-33.008-33.008z" fill="#b4acb7"/><g fill="#d3ced5"><circle cx="256" cy="233.59" r="33.008"/><circle cx="349.614" cy="233.59" r="33.008"/><circle cx="443.267" cy="233.59" r="33.008"/><circle cx="162.386" cy="233.59" r="33.008"/><circle cx="68.733" cy="233.59" r="33.008"/></g><path d="m264.33 201.643c2.97 4.954 4.678 10.751 4.678 16.947 0 18.23-14.778 33.008-33.008 33.008-2.878 0-5.669-.369-8.33-1.061 5.768 9.621 16.297 16.061 28.33 16.061 18.23 0 33.008-14.778 33.008-33.008 0-15.352-10.481-28.256-24.678-31.947z" fill="#c3bec6"/><path d="m170.716 201.643c2.97 4.954 4.678 10.751 4.678 16.947 0 18.23-14.778 33.008-33.008 33.008-2.878 0-5.669-.369-8.33-1.061 5.768 9.621 16.297 16.061 28.33 16.061 18.23 0 33.008-14.778 33.008-33.008 0-15.352-10.481-28.256-24.678-31.947z" fill="#c3bec6"/><path d="m77.063 201.643c2.97 4.954 4.678 10.751 4.678 16.947 0 18.23-14.778 33.008-33.008 33.008-2.878 0-5.669-.369-8.33-1.061 5.768 9.621 16.297 16.061 28.33 16.061 18.23 0 33.008-14.778 33.008-33.008 0-15.352-10.481-28.256-24.678-31.947z" fill="#c3bec6"/><path d="m357.944 201.643c2.97 4.954 4.678 10.751 4.678 16.947 0 18.23-14.778 33.008-33.008 33.008-2.878 0-5.669-.369-8.33-1.061 5.768 9.621 16.297 16.061 28.33 16.061 18.23 0 33.008-14.778 33.008-33.008 0-15.352-10.481-28.256-24.678-31.947z" fill="#c3bec6"/><path d="m451.597 201.643c2.97 4.954 4.678 10.751 4.678 16.947 0 18.23-14.778 33.008-33.008 33.008-2.878 0-5.669-.369-8.33-1.061 5.768 9.621 16.297 16.061 28.33 16.061 18.23 0 33.008-14.778 33.008-33.008 0-15.352-10.481-28.256-24.678-31.947z" fill="#c3bec6"/><path d="m437.215 335.694h-362.43c-3.321 0-6.012-2.692-6.012-6.012v-27.32h374.456v27.32c-.001 3.321-2.693 6.012-6.014 6.012z" fill="#d3ced5"/><path d="m403.228 302.362v12.32c0 3.321-2.692 6.012-6.012 6.012h-328.444v8.988c0 3.321 2.692 6.012 6.012 6.012h362.431c3.321 0 6.012-2.692 6.012-6.012v-27.32z" fill="#c3bec6"/><path d="m84.822 335.694h26.919v105.426h-26.919z" fill="#b4acb7"/><path d="m121.45 441.12h-46.337c-6.149 0-11.135 4.985-11.135 11.135v11.677c0 1.575 1.277 2.852 2.851 2.852h62.903c1.575 0 2.851-1.277 2.851-2.852v-11.677c.001-6.15-4.984-11.135-11.133-11.135z" fill="#d3ced5"/><path d="m400.259 335.694h26.919v105.426h-26.919z" fill="#b4acb7" transform="matrix(-1 0 0 -1 827.437 776.815)"/><path d="m390.55 441.12h46.337c6.149 0 11.135 4.985 11.135 11.135v11.677c0 1.575-1.277 2.852-2.852 2.852h-62.903c-1.575 0-2.852-1.277-2.852-2.852v-11.677c.001-6.15 4.986-11.135 11.135-11.135z" fill="#d3ced5"/><path d="m242.521 335.694h26.919v105.426h-26.919z" fill="#b4acb7" transform="matrix(-1 0 0 -1 511.961 776.815)"/><path d="m232.812 441.12h46.337c6.149 0 11.135 4.985 11.135 11.135v11.677c0 1.575-1.277 2.852-2.851 2.852h-62.903c-1.575 0-2.851-1.277-2.851-2.852v-11.677c-.002-6.15 4.984-11.135 11.133-11.135z" fill="#d3ced5"/><path d="m207.16 164.818h-115.564c-1.115 0-2.019-.904-2.019-2.019v-115.564c0-1.115.904-2.019 2.019-2.019h115.564c1.115 0 2.019.904 2.019 2.019v115.565c0 1.114-.904 2.018-2.019 2.018z" fill="#ce9875"/><path d="m162.578 97.138h-26.399c-1.525 0-2.761-1.236-2.761-2.761v-49.16h31.921v49.16c0 1.524-1.236 2.761-2.761 2.761z" fill="#ecd5c6"/><path d="m304.8 164.818h115.564c1.115 0 2.019-.904 2.019-2.019v-115.564c0-1.115-.904-2.019-2.019-2.019h-115.564c-1.115 0-2.019.904-2.019 2.019v115.565c0 1.114.904 2.018 2.019 2.018z" fill="#ce9875"/><path d="m207.16 45.217h-37.981v65.086c0 19.062-15.453 34.516-34.516 34.516h-45.086v17.981c0 1.115.904 2.019 2.019 2.019h115.564c1.115 0 2.019-.904 2.019-2.019v-115.565c0-1.115-.904-2.018-2.019-2.018z" fill="#c6865c"/><path d="m420.365 45.217h-37.981v65.086c0 19.062-15.453 34.516-34.516 34.516h-45.086v17.981c0 1.115.904 2.019 2.019 2.019h115.564c1.115 0 2.019-.904 2.019-2.019v-115.565c-.001-1.115-.905-2.018-2.019-2.018z" fill="#c6865c"/><path d="m349.383 97.138h26.399c1.525 0 2.761-1.236 2.761-2.761v-49.16h-31.921v49.16c0 1.524 1.236 2.761 2.761 2.761z" fill="#ecd5c6"/><path d="m443.228 241.09h-374.495c-4.142 0-7.5-3.357-7.5-7.5s3.358-7.5 7.5-7.5h374.495c4.143 0 7.5 3.357 7.5 7.5s-3.358 7.5-7.5 7.5z" fill="#e2dfe2"/></svg>