<?xml version="1.0" encoding="utf-8"?>
<!-- Generator: Adobe Illustrator 21.0.2, SVG Export Plug-In . SVG Version: 6.00 Build 0)  -->
<svg version="1.1" id="Layer_1" xmlns="http://www.w3.org/2000/svg" xmlns:xlink="http://www.w3.org/1999/xlink" x="0px" y="0px"
	 viewBox="0 0 512 512" style="enable-background:new 0 0 512 512;" xml:space="preserve">
<style type="text/css">
	.st0{fill:#576D7E;}
	.st1{fill:#35495C;}
	.st2{fill:#50BEE7;}
</style>
<g>
	<path class="st0" d="M7,206.5c0,31.2,15,57.1,38.2,80.3l90.3,90.3l90.3,90.3c23.2,23.2,49.2,38.2,80.3,38.2
		c31.6,0,51.6-2.1,74.2-24.6l16.7-16.7c0,0-2.4-35.1-5.4-38.2c-10.7-10.8-64-48.6-64-48.6c-6.1-4.4-14.5-3.7-19.9,1.7l-25.2,25.2
		c-6.7,4.9-15.1,4.9-21.8,0l-76.3-76.3l-76.3-76.3c-4.9-6.7-5-15.1,0-21.8l25.2-25.2c5.3-5.3,6-13.7,1.6-19.9c0,0-37.8-53.2-48.6-64
		c-3-3-38.1-5.4-38.1-5.4l-16.7,16.7C9.1,154.9,7,174.9,7,206.5z"/>
	<g>
		<path class="st1" d="M108.3,228.4l0.8,0.8l24.3-24.4c5.3-5.3,6-13.7,1.6-19.9c0,0-0.8-1.2-2.2-3l-24.6,24.6
			C103.3,213.3,103.4,221.7,108.3,228.4z"/>
		<path class="st1" d="M380.3,457.6c-22.5,22.5-42.6,24.6-74.2,24.6c-31.1,0-57.1-15-80.3-38.2l-90.3-90.3l-90.3-90.3
			c-21.6-21.6-35.9-45.7-37.8-74.1c-0.3,5.3-0.4,11-0.4,17.1c0,31.2,15,57.1,38.2,80.3l90.3,90.3l90.3,90.3
			c23.2,23.2,49.2,38.2,80.3,38.2c31.6,0,51.6-2.1,74.2-24.6l16.7-16.7c0,0-0.8-11.1-2-21.4L380.3,457.6z"/>
	</g>
	<path class="st1" d="M327.7,377.6c-6.1-4.4-14.5-3.7-19.9,1.7l-13.3,13.3l102.6,71.8c0,0-2.4-35.1-5.4-38.2
		C380.9,415.4,327.7,377.6,327.7,377.6z"/>
	<path class="st1" d="M135.1,185c4.4,6.1,3.7,14.5-1.6,19.9l-13.3,13.3L48.4,115.6c0,0,35.1,2.4,38.1,5.4
		C97.3,131.8,135.1,185,135.1,185z"/>
	<g>
		<path class="st1" d="M268.8,242.3h-16c-1.5,0-3,0.1-4.6,0.1c4.6-3.3,9.2-6.9,14.8-11.7c13.7-13.4,18.6-30.6,12.8-45
			c-5.4-13.3-18.5-21.2-35.1-21.2c-15.3,0-27.6,7-33.9,19.4c-2.2,5.1-2.1,10,0.4,13.8c2.3,3.5,6.2,5.6,10.5,5.6
			c4.4,0,8.3-2.2,10.8-6c2.8-4.4,7.7-7.4,12.3-7.4c3.8,0,8.7,1,10.3,5.7c1.8,5.2-1.1,12.4-7,17c-4.6,4.2-9,7.9-13.3,11.6
			c-8.3,7.1-16.2,13.8-24.4,22.5c-3.9,4.1-5.1,9.5-3.2,14c1.9,4.5,6.6,7.3,12.2,7.3h53.6c4.9,0,7.9-2.2,9.5-4c2-2.3,3.1-5.3,3.1-8.6
			C281.3,249.2,276.9,242.3,268.8,242.3z"/>
		<path class="st1" d="M370.8,227.9c-2.2-2.6-5.4-4.1-9.1-4.1h-2v-45.5c0-8.2-5-13.7-12.3-13.7c-6.6,0-9.9,2.9-12.9,6.2l-46.2,55.7
			c-4.1,5.2-5.2,11.1-2.9,15.8c2.2,4.5,7,7,13.3,7h34.9v7.5c0,7.9,6.6,12,13.1,12c6.5,0,13.2-4.1,13.2-12v-7.5h2c7.8,0,12-6.7,12-13
			C373.7,233.1,372.7,230.1,370.8,227.9z M334.6,207.6l-0.1,16.1h-13.3L334.6,207.6z"/>
	</g>
	<path class="st2" d="M459.5,404.2h-4.6c32.8-42.6,51.4-93.5,51.4-148.2c0-137.6-112-249.6-249.6-249.6c-66.7,0-129.4,26-176.5,73.1
		c-6.1,6.1-6.1,16,0,22.1c6.1,6.1,16,6.1,22.1,0c41.2-41.3,96.1-64,154.5-64c120.4,0,218.4,98,218.4,218.4
		c0,44.5-14.3,86.1-39.3,121.6c-1.5-7.1-7.8-12.4-15.3-12.4c-8.6,0-15.6,7-15.6,15.6v39c0,4,1.5,8,4.6,11c3,3,7,4.6,11,4.6h39
		c8.6,0,15.6-7,15.6-15.6C475.1,411.2,468.1,404.2,459.5,404.2z"/>
</g>
</svg>
