<?xml version="1.0" encoding="utf-8"?>
<!-- Generator: Adobe Illustrator 21.0.2, SVG Export Plug-In . SVG Version: 6.00 Build 0)  -->
<svg version="1.1" id="Layer_1" xmlns="http://www.w3.org/2000/svg" xmlns:xlink="http://www.w3.org/1999/xlink" x="0px" y="0px"
	 viewBox="0 0 512 512" style="enable-background:new 0 0 512 512;" xml:space="preserve">
<style type="text/css">
	.st0{fill:#E2E4E6;}
	.st1{fill:#C9D1D7;}
	.st2{fill:#35495C;}
</style>
<g>
	<path class="st0" d="M120,464c-18.8,4.7-37.9-6.8-42.6-25.6L12.7,179.2c-4.7-18.8,6.8-37.9,25.6-42.6L393,48.1
		c18.8-4.7,37.9,6.8,42.6,25.6l64.6,259.2c4.7,18.8-6.8,37.9-25.6,42.6L120,464z"/>
	<path class="st1" d="M391.3,41.3L36.6,129.7c-22.5,5.6-36.3,28.6-30.7,51.1l64.6,259.2c5.6,22.5,28.6,36.3,51.1,30.7l354.7-88.4
		c22.5-5.6,36.3-28.6,30.7-51.1L442.4,72C436.8,49.5,413.8,35.7,391.3,41.3z M84.2,436.7L19.5,177.5c-3.8-15.1,5.4-30.3,20.5-34.1
		l163.7-40.8c7.5-1.9,15.2,2.7,17,10.2l71.4,286.5c1.9,7.5-2.7,15.2-10.2,17l-163.7,40.8C103.2,460.9,87.9,451.7,84.2,436.7z"/>
	<path class="st2" d="M176.3,370.2C176.3,370.2,176.3,370.2,176.3,370.2l-44.2-177.3c0,0,0,0,0,0c-1.9-7.5-9.5-12.1-17-10.2
		c-7.5,1.9-12.1,9.5-10.2,17l0,0L149,377l0,0l0,0c1.9,7.5,9.5,12.1,17,10.2C173.6,385.4,178.2,377.8,176.3,370.2z"/>
	<path class="st2" d="M326.3,332.8C326.3,332.8,326.3,332.8,326.3,332.8l-44.2-177.3c0,0,0,0,0,0c-1.9-7.5-9.5-12.1-17-10.2
		c-7.5,1.9-12.1,9.5-10.2,17l0,0l44.2,177.3l0,0l0,0c1.9,7.5,9.5,12.1,17,10.2C323.6,348,328.2,340.3,326.3,332.8z"/>
	<path class="st2" d="M230.8,356.6C230.8,356.6,230.8,356.6,230.8,356.6l-44.2-177.3c0,0,0,0,0,0c-1.9-7.5-9.5-12.1-17-10.2
		c-7.5,1.9-12.1,9.5-10.2,17l0,0l44.2,177.3l0,0l0,0c1.9,7.5,9.5,12.1,17,10.2C228.1,371.8,232.7,364.2,230.8,356.6z"/>
	<path class="st2" d="M455.9,300.5C455.9,300.5,455.9,300.5,455.9,300.5l-44.2-177.3c0,0,0,0,0,0c-1.9-7.5-9.5-12.1-17-10.2
		c-7.5,1.9-12.1,9.5-10.2,17l0,0l44.2,177.3l0,0l0,0c1.9,7.5,9.5,12.1,17,10.2C453.2,315.7,457.8,308,455.9,300.5z"/>
	<path class="st2" d="M367.3,322.6C367.3,322.6,367.3,322.6,367.3,322.6l-44.2-177.3c0,0,0,0,0,0c-1.9-7.5-9.5-12.1-17-10.2
		c-7.5,1.9-12.1,9.5-10.2,17l0,0L340,329.4l0,0l0,0c1.9,7.5,9.5,12.1,17,10.2C364.6,337.8,369.1,330.1,367.3,322.6z"/>
	<g>
		<path class="st2" d="M268.4,361.8c-3.8,0.9-7.6-1.4-8.5-5.1l-47.6-191c-0.9-3.8,1.4-7.6,5.1-8.5c3.8-0.9,7.6,1.4,8.5,5.1l47.6,191
			C274.4,357,272.1,360.8,268.4,361.8z"/>
	</g>
	<g>
		<path class="st2" d="M118.3,399.2c-3.8,0.9-7.6-1.4-8.5-5.1l-47.6-191c-0.9-3.8,1.4-7.6,5.1-8.5c3.8-0.9,7.6,1.4,8.5,5.1l47.6,191
			C124.4,394.4,122.1,398.2,118.3,399.2z"/>
	</g>
	<g>
		<path class="st2" d="M398,329.4c-3.8,0.9-7.6-1.4-8.5-5.1l-47.6-191c-0.9-3.8,1.4-7.6,5.1-8.5c3.8-0.9,7.6,1.4,8.5,5.1l47.6,191
			C404,324.7,401.7,328.5,398,329.4z"/>
	</g>
</g>
</svg>
