<?xml version="1.0" encoding="utf-8"?>
<!-- Generator: Adobe Illustrator 21.0.2, SVG Export Plug-In . SVG Version: 6.00 Build 0)  -->
<svg version="1.1" id="Layer_1" xmlns="http://www.w3.org/2000/svg" xmlns:xlink="http://www.w3.org/1999/xlink" x="0px" y="0px"
	 viewBox="0 0 512 512" style="enable-background:new 0 0 512 512;" xml:space="preserve">
<style type="text/css">
	.st0{fill:#465B65;}
	.st1{fill-rule:evenodd;clip-rule:evenodd;fill:#465B65;}
	.st2{fill-rule:evenodd;clip-rule:evenodd;fill:#ACD480;}
	.st3{fill-rule:evenodd;clip-rule:evenodd;fill:#93B26E;}
	.st4{fill-rule:evenodd;clip-rule:evenodd;fill:#ECEEEF;}
	.st5{fill-rule:evenodd;clip-rule:evenodd;fill:#4A533C;}
</style>
<g>
	<g>
		<g>
			<path class="st0" d="M67.5,5h377.3c6.3,0,11.4,5.1,11.4,11.4v119.9H56.1V16.5C56.1,10.1,61.2,5,67.5,5z"/>
		</g>
		<g>
			<path class="st1" d="M67.5,508.1h377.3c6.3,0,11.4-5.1,11.4-11.4v-366H56.1v366C56.1,502.9,61.2,508.1,67.5,508.1z"/>
		</g>
		<g>
			<rect x="103.8" y="52.7" class="st2" width="304.8" height="78"/>
		</g>
		<g>
			<rect x="103.8" y="52.7" class="st3" width="304.8" height="5.4"/>
		</g>
		<g>
			<path class="st4" d="M182,245.1v-55.3c0-6.3-5.1-11.4-11.4-11.4h-55.3c-6.3,0-11.4,5.1-11.4,11.4v55.3c0,6.3,5.1,11.4,11.4,11.4
				h55.3C176.9,256.5,182,251.4,182,245.1z"/>
		</g>
		<g>
			<path class="st0" d="M150.9,199.8v35.4h-9.8v-23.2c-1.6,1.2-3.1,2.2-4.6,2.9c-1.5,0.7-3.3,1.5-5.6,2.1v-7.9
				c3.3-1.1,5.8-2.3,7.7-3.8c1.8-1.5,3.2-3.3,4.3-5.5H150.9z"/>
		</g>
		<g>
			<path class="st4" d="M295.3,245.1v-55.3c0-6.3-5.1-11.4-11.4-11.4h-55.3c-6.3,0-11.4,5.1-11.4,11.4v55.3
				c0,6.3,5.1,11.4,11.4,11.4h55.3C290.2,256.5,295.3,251.4,295.3,245.1z"/>
		</g>
		<g>
			<path class="st0" d="M270.7,235.1h-29c0.3-2.9,1.3-5.6,3-8.1c1.7-2.5,4.8-5.5,9.5-8.9c2.8-2.1,4.6-3.7,5.4-4.8
				c0.8-1.1,1.2-2.1,1.2-3.1c0-1.1-0.4-2-1.2-2.7c-0.8-0.7-1.8-1.1-3-1.1c-1.2,0-2.2,0.4-3,1.2c-0.8,0.8-1.3,2.1-1.6,4.1l-9.7-0.8
				c0.4-2.7,1.1-4.8,2.1-6.4c1-1.5,2.4-2.7,4.3-3.5c1.8-0.8,4.4-1.2,7.7-1.2c3.4,0,6,0.4,7.9,1.2c1.9,0.8,3.4,2,4.5,3.6
				c1.1,1.6,1.6,3.4,1.6,5.4c0,2.1-0.6,4.1-1.9,6.1c-1.2,1.9-3.5,4-6.8,6.4c-2,1.3-3.2,2.3-3.9,2.8c-0.7,0.5-1.4,1.2-2.3,2.1h15.1
				V235.1z"/>
		</g>
		<g>
			<path class="st4" d="M408.6,245.1v-55.3c0-6.3-5.1-11.4-11.4-11.4h-55.3c-6.3,0-11.4,5.1-11.4,11.4v55.3
				c0,6.3,5.1,11.4,11.4,11.4h55.3C403.4,256.5,408.6,251.4,408.6,245.1z"/>
		</g>
		<g>
			<path class="st0" d="M364.8,210.1l-9.1-1.6c0.8-2.9,2.2-5.1,4.4-6.7c2.2-1.5,5.2-2.3,9.2-2.3c4.5,0,7.8,0.8,9.9,2.5
				c2,1.7,3,3.8,3,6.4c0,1.5-0.4,2.9-1.2,4.1c-0.8,1.2-2.1,2.3-3.7,3.2c1.3,0.3,2.4,0.7,3.1,1.2c1.1,0.7,2,1.7,2.7,2.8
				c0.6,1.2,1,2.5,1,4.2c0,2-0.5,4-1.6,5.8c-1.1,1.9-2.6,3.3-4.6,4.3c-2,1-4.6,1.5-7.9,1.5c-3.2,0-5.7-0.4-7.5-1.1
				c-1.8-0.7-3.3-1.8-4.5-3.3c-1.2-1.4-2.1-3.2-2.7-5.4l9.7-1.3c0.4,1.9,1,3.3,1.8,4.1c0.8,0.7,1.8,1.1,3,1.1c1.3,0,2.4-0.5,3.2-1.4
				c0.9-0.9,1.3-2.2,1.3-3.8c0-1.6-0.4-2.9-1.2-3.7c-0.8-0.9-2-1.3-3.4-1.3c-0.8,0-1.8,0.2-3.1,0.6l0.5-6.9c0.5,0.1,1,0.1,1.3,0.1
				c1.3,0,2.3-0.4,3.2-1.2c0.8-0.8,1.3-1.8,1.3-2.9c0-1.1-0.3-1.9-0.9-2.5c-0.6-0.6-1.5-0.9-2.6-0.9c-1.1,0-2.1,0.3-2.8,1
				C365.5,207.2,365,208.4,364.8,210.1z"/>
		</g>
		<g>
			<path class="st4" d="M182,347v-55.3c0-6.3-5.1-11.4-11.4-11.4h-55.3c-6.3,0-11.4,5.1-11.4,11.4V347c0,6.3,5.1,11.4,11.4,11.4
				h55.3C176.9,358.5,182,353.3,182,347z"/>
		</g>
		<g>
			<path class="st0" d="M145.3,330.5h-17.6v-7.9l17.6-20.9h8.4V323h4.4v7.5h-4.4v6.5h-8.4V330.5L145.3,330.5z M145.3,323v-10.9
				L136,323H145.3z"/>
		</g>
		<g>
			<path class="st4" d="M295.3,347v-55.3c0-6.3-5.1-11.4-11.4-11.4h-55.3c-6.3,0-11.4,5.1-11.4,11.4V347c0,6.3,5.1,11.4,11.4,11.4
				h55.3C290.2,358.5,295.3,353.3,295.3,347z"/>
		</g>
		<g>
			<path class="st0" d="M246,301.7H269v7.7h-15.5l-0.8,5.2c1.1-0.5,2.1-0.9,3.2-1.1c1.1-0.3,2.1-0.4,3.1-0.4c3.5,0,6.3,1.1,8.5,3.2
				c2.2,2.1,3.3,4.8,3.3,7.9c0,2.3-0.6,4.4-1.7,6.5c-1.1,2.1-2.7,3.7-4.7,4.7c-2,1.1-4.7,1.6-7.9,1.6c-2.3,0-4.3-0.2-5.9-0.6
				c-1.6-0.4-3-1.1-4.2-2c-1.1-0.9-2.1-1.8-2.8-2.9c-0.7-1.1-1.3-2.5-1.8-4.1l9.8-1.1c0.2,1.6,0.8,2.8,1.7,3.6
				c0.9,0.8,1.9,1.2,3.1,1.2c1.3,0,2.5-0.5,3.3-1.5c0.9-1,1.3-2.5,1.3-4.6c0-2.1-0.4-3.6-1.3-4.6c-0.9-1-2.1-1.4-3.5-1.4
				c-0.9,0-1.8,0.2-2.7,0.7c-0.6,0.3-1.4,0.9-2.1,1.8l-8.2-1.2L246,301.7z"/>
		</g>
		<g>
			<path class="st4" d="M408.6,291.7c0-6.3-5.1-11.4-11.4-11.4h-55.3c-6.3,0-11.4,5.1-11.4,11.4V347c0,6.3,5.1,11.4,11.4,11.4h55.3
				c6.3,0,11.4-5.1,11.4-11.4V291.7z"/>
		</g>
		<g>
			<path class="st0" d="M383.1,309.8l-9.6,1.2c-0.3-1.3-0.7-2.3-1.3-2.8c-0.6-0.6-1.3-0.8-2.2-0.8c-1.6,0-2.8,0.8-3.7,2.4
				c-0.6,1.1-1.1,3.6-1.4,7.3c1.1-1.2,2.3-2,3.6-2.6c1.2-0.6,2.6-0.8,4.2-0.8c3.1,0,5.7,1.1,7.9,3.3c2.1,2.2,3.2,5,3.2,8.4
				c0,2.3-0.5,4.4-1.6,6.3c-1.1,1.9-2.6,3.3-4.5,4.3c-1.9,1-4.3,1.5-7.2,1.5c-3.5,0-6.3-0.6-8.4-1.8c-2.1-1.2-3.8-3.1-5-5.7
				c-1.3-2.6-1.9-6.1-1.9-10.3c0-6.3,1.3-10.9,4-13.8c2.6-2.9,6.3-4.4,11-4.4c2.8,0,5,0.3,6.6,1c1.6,0.7,2.9,1.6,4,2.8
				C381.7,306.4,382.5,307.9,383.1,309.8L383.1,309.8z M365.3,325.3c0,1.9,0.5,3.4,1.4,4.4c0.9,1.1,2.1,1.6,3.5,1.6
				c1.3,0,2.3-0.5,3.2-1.5c0.9-1,1.3-2.4,1.3-4.3c0-2-0.4-3.5-1.3-4.5c-0.9-1-2-1.5-3.3-1.5c-1.3,0-2.5,0.5-3.4,1.5
				C365.7,322,365.3,323.4,365.3,325.3z"/>
		</g>
		<g>
			<path class="st4" d="M182,448.9v-55.3c0-6.3-5.1-11.4-11.4-11.4h-55.3c-6.3,0-11.4,5.1-11.4,11.4v55.3c0,6.3,5.1,11.4,11.4,11.4
				h55.3C176.9,460.4,182,455.3,182,448.9z"/>
		</g>
		<g>
			<path class="st0" d="M128.8,403.9H157v6.5c-2.5,2.2-4.5,4.6-6.1,7.2c-2,3.1-3.6,6.6-4.7,10.5c-0.9,3-1.5,6.5-1.8,10.6h-9.6
				c0.8-5.7,2-10.4,3.6-14.3c1.6-3.8,4.2-8,7.7-12.3h-17.2V403.9z"/>
		</g>
		<g>
			<path class="st4" d="M295.3,393.6c0-6.3-5.1-11.4-11.4-11.4h-55.3c-6.3,0-11.4,5.1-11.4,11.4v55.3c0,6.3,5.1,11.4,11.4,11.4h55.3
				c6.3,0,11.4-5.1,11.4-11.4V393.6z"/>
		</g>
		<g>
			<path class="st0" d="M247.8,420c-1.5-0.8-2.6-1.7-3.3-2.7c-0.9-1.4-1.4-2.9-1.4-4.7c0-2.9,1.4-5.3,4.1-7.1c2.1-1.4,5-2.1,8.5-2.1
				c4.6,0,8.1,0.9,10.3,2.7c2.2,1.8,3.3,4,3.3,6.7c0,1.6-0.4,3-1.3,4.4c-0.7,1-1.7,2-3.1,2.9c1.9,0.9,3.3,2.1,4.2,3.6
				c0.9,1.5,1.4,3.1,1.4,4.9c0,1.7-0.4,3.4-1.2,4.9c-0.8,1.5-1.8,2.7-2.9,3.5c-1.2,0.8-2.6,1.4-4.3,1.8c-1.7,0.4-3.6,0.6-5.5,0.6
				c-3.7,0-6.5-0.4-8.4-1.3c-1.9-0.9-3.4-2.2-4.4-3.8c-1-1.7-1.5-3.6-1.5-5.7c0-2,0.5-3.8,1.4-5.2
				C244.3,421.8,245.8,420.8,247.8,420L247.8,420z M252.1,413.1c0,1.2,0.4,2.2,1.1,2.9c0.8,0.7,1.8,1.1,3,1.1c1.1,0,2-0.4,2.7-1.1
				s1.1-1.7,1.1-2.8c0-1.2-0.4-2.2-1.1-2.9c-0.7-0.8-1.7-1.1-2.9-1.1c-1.2,0-2.1,0.4-2.9,1.1C252.5,411,252.1,412,252.1,413.1
				L252.1,413.1z M251.6,428.1c0,1.5,0.5,2.8,1.4,3.8c0.9,1,2,1.5,3.2,1.5c1.1,0,2.2-0.5,3.1-1.5c0.9-1,1.4-2.2,1.4-3.8
				c0-1.5-0.5-2.8-1.4-3.8c-0.9-1-2-1.5-3.2-1.5c-1.2,0-2.3,0.5-3.1,1.4C252.1,425.2,251.6,426.5,251.6,428.1z"/>
		</g>
		<g>
			<path class="st4" d="M408.6,448.9v-55.3c0-6.3-5.1-11.4-11.4-11.4h-55.3c-6.3,0-11.4,5.1-11.4,11.4v55.3
				c0,6.3,5.1,11.4,11.4,11.4h55.3C403.4,460.4,408.6,455.3,408.6,448.9z"/>
		</g>
		<g>
			<path class="st0" d="M355.9,430.9l9.6-1.2c0.3,1.3,0.7,2.3,1.3,2.8c0.6,0.6,1.3,0.8,2.2,0.8c1.5,0,2.8-0.8,3.6-2.4
				c0.6-1.2,1.1-3.6,1.4-7.3c-1.2,1.2-2.3,2.1-3.6,2.6c-1.2,0.6-2.6,0.8-4.2,0.8c-3.1,0-5.7-1.1-7.9-3.3c-2.1-2.2-3.2-5-3.2-8.4
				c0-2.3,0.5-4.4,1.6-6.3c1.1-1.9,2.6-3.3,4.5-4.3c1.9-1,4.3-1.5,7.2-1.5c3.5,0,6.3,0.6,8.4,1.8c2.1,1.2,3.8,3.1,5,5.7
				c1.3,2.6,1.9,6,1.9,10.3c0,6.3-1.3,10.9-4,13.8c-2.6,2.9-6.3,4.4-11,4.4c-2.8,0-5-0.3-6.5-1c-1.6-0.6-2.9-1.6-4-2.8
				C357.3,434.3,356.4,432.7,355.9,430.9L355.9,430.9z M373.7,415.4c0-1.9-0.5-3.4-1.4-4.4c-0.9-1.1-2.1-1.6-3.5-1.6
				c-1.3,0-2.3,0.5-3.2,1.5c-0.9,1-1.3,2.4-1.3,4.3c0,1.9,0.4,3.4,1.3,4.5c0.9,1,2,1.5,3.3,1.5c1.4,0,2.5-0.5,3.4-1.5
				C373.2,418.6,373.7,417.2,373.7,415.4z"/>
		</g>
		<g>
			<polygon class="st5" points="394.2,81.6 394.2,89.7 391.2,92.7 388.1,89.7 388.1,81.6 388.1,73.5 391.2,70.4 394.2,73.5 			"/>
		</g>
		<g>
			<polygon class="st5" points="394.2,103.9 394.2,95.8 391.2,92.7 388.1,95.8 388.1,103.9 388.1,112 391.2,115.1 394.2,112 			"/>
		</g>
		<g>
			<polygon class="st5" points="371.9,103.9 371.9,95.8 368.8,92.7 365.8,95.8 365.8,103.9 365.8,112 368.8,115.1 371.9,112 			"/>
		</g>
		<g>
			<polygon class="st5" points="371.9,81.6 371.9,89.7 368.8,92.8 365.8,89.7 365.8,81.6 365.8,73.5 368.8,70.4 371.9,73.5 			"/>
		</g>
		<g>
			<polygon class="st5" points="380,64.4 388.1,64.4 391.2,67.4 388.1,70.5 380,70.5 371.9,70.5 368.8,67.4 371.9,64.4 			"/>
		</g>
		<g>
			<polygon class="st5" points="380,115 388.1,115 391.2,118.1 388.1,121.1 380,121.1 371.9,121.1 368.8,118.1 371.9,115 			"/>
		</g>
	</g>
</g>
</svg>
