<?xml version="1.0" encoding="utf-8"?>
<!-- Generator: Adobe Illustrator 21.0.2, SVG Export Plug-In . SVG Version: 6.00 Build 0)  -->
<svg version="1.1" id="Layer_1" xmlns="http://www.w3.org/2000/svg" xmlns:xlink="http://www.w3.org/1999/xlink" x="0px" y="0px"
	 viewBox="0 0 512 512" style="enable-background:new 0 0 512 512;" xml:space="preserve">
<style type="text/css">
	.st0{fill:#113247;}
	.st1{fill:#576D7E;}
	.st2{fill:#C9D1D7;}
	.st3{fill:#E2E4E6;}
</style>
<g>
	<g>
		<path class="st0" d="M79.8,167L45.5,299.9h110.4c7.7,0,14.7,7,14.7,15.6c0,47.4,15.6,46.9,86,46.9s86,0.5,86-46.9
			c0-8.6,7-15.6,15.6-15.6h110.4L433.4,167H79.8z"/>
	</g>
	<g>
		<path class="st1" d="M506.8,315.5c0-1.8-0.3-3.7-0.9-5.5l-46.9-164.2c-2.3-6.1-8.1-10.1-14.6-10.1H69c-6.5,0-12.4,4-14.6,10.1
			L7.4,310c-0.7,1.8-0.9,3.7-0.9,5.5h0v140.7c0,17.2,14.1,31.3,31.3,31.3h437.8c17.2,0,31.3-14.1,31.3-31.3L506.8,315.5L506.8,315.5
			z M79.8,167h353.6l35.2,132.9H358.3c-8.6,0-15.6,7-15.6,15.6c0,47.4-15.6,46.9-86,46.9s-86,0.5-86-46.9c0-8.6-7-15.6-14.7-15.6
			H45.5L79.8,167z"/>
	</g>
	<g>
		<path class="st2" d="M413,299.9V57.5c0-17.2-14.1-31.3-31.3-31.3H131.5c-17.2,0-31.3,14.1-31.3,31.3v242.4H413z"/>
	</g>
	<g>
		<path class="st3" d="M413,253V65.3c0-17.2-14.1-31.3-31.3-31.3H131.5c-17.2,0-31.3,14.1-31.3,31.3V253H413z"/>
	</g>
	<g>
		<path class="st2" d="M413,260.8V73.1c0-17.2-14.1-31.3-31.3-31.3H131.5c-17.2,0-31.3,14.1-31.3,31.3v187.6H413z"/>
	</g>
	<g>
		<path class="st3" d="M413,292.1V81c0-17.2-14.1-31.3-31.3-31.3H131.5c-17.2,0-31.3,14.1-31.3,31.3v211.1H413z"/>
	</g>
	<g>
		<path class="st2" d="M413,299.9V135.7c0-17.2,0-78.2-31.3-78.2H131.5c-31.3,0-31.3,61-31.3,78.2v164.2H413z"/>
	</g>
	<g>
		<path class="st3" d="M381.7,65.3H131.5c-25-3-31.3,61-31.3,78.2V167v78.2v54.7H155c8.6,0,15.6,7,15.6,15.6
			c0,47.4,15.6,46.9,86,46.9s86,0.5,86-46.9c0-8.6,7-15.6,15.6-15.6H413v-54.7V167v-23.5C413,126.3,408.4,66.3,381.7,65.3z"/>
	</g>
	<g>
		<path class="st2" d="M350.4,198.2H162.8c-8.6,0-15.6-7-15.6-15.6c0-8.6,7-15.6,15.6-15.6h187.6c8.6,0,15.6,7,15.6,15.6
			C366.1,191.2,359.1,198.2,350.4,198.2z"/>
	</g>
	<g>
		<path class="st2" d="M353.4,129.9H165.7c-8.6,0-15.6-7-15.6-15.6s7-15.6,15.6-15.6h187.6c8.6,0,15.6,7,15.6,15.6
			S362,129.9,353.4,129.9z"/>
	</g>
	<g>
		<path class="st2" d="M303.5,268.6H162.8c-8.6,0-15.6-7-15.6-15.6s7-15.6,15.6-15.6h140.7c8.6,0,15.6,7,15.6,15.6
			S312.2,268.6,303.5,268.6z"/>
	</g>
</g>
</svg>
