<?xml version="1.0" encoding="utf-8"?>
<!-- Generator: Adobe Illustrator 21.0.2, SVG Export Plug-In . SVG Version: 6.00 Build 0)  -->
<svg version="1.1" id="Layer_1" xmlns="http://www.w3.org/2000/svg" xmlns:xlink="http://www.w3.org/1999/xlink" x="0px" y="0px"
	 viewBox="0 0 512 512" style="enable-background:new 0 0 512 512;" xml:space="preserve">
<style type="text/css">
	.st0{fill:#576D7E;}
	.st1{fill:#EE312B;}
	.st2{fill:#FCCF63;}
	.st3{fill:#F6B74E;}
	.st4{fill:#F05642;}
	.st5{fill:#D2453C;}
	.st6{fill:#C9D1D7;}
	.st7{fill:#35495C;}
	.st8{fill:#FFCC4E;}
</style>
<g>
	<path class="st0" d="M312.2,406.5c0,4.3-3.6,7.9-7.9,7.9h-94.9c-4.3,0-7.9-3.6-7.9-7.9v-47.5c0-4.3,3.6-7.9,7.9-7.9h94.9
		c4.3,0,7.9,3.6,7.9,7.9V406.5z"/>
	<path class="st0" d="M298.3,501.7c-1.1,4.2-5.5,7.7-9.8,7.7h-63.3c-4.3,0-8.8-3.5-9.8-7.7l-12-47.9c-1.1-4.2,1.6-7.7,6-7.7h94.9
		c4.3,0,7,3.5,6,7.7L298.3,501.7z"/>
	<path class="st1" d="M132.3,151.6c0,90.8,42.8,165.3,79.6,231.1h-10.4C152.4,316.9,90.7,242.4,90.7,151.6
		C90.7,75.8,165.2,3,256.9,3C188.1,3,132.3,75.8,132.3,151.6z"/>
	<path class="st1" d="M423,151.6c0,90.8-62.2,165.3-111.3,231.1h-10.4c36.8-65.9,80.1-140.3,80.1-231.1C381.5,75.8,325.6,3,256.9,3
		C348.6,3,423,75.8,423,151.6z"/>
	<path class="st2" d="M173.8,151.6c0,90.8,31.8,165.3,56.4,231.1h-18.3c-36.8-65.9-79.6-140.3-79.6-231.1
		C132.3,75.8,188.1,3,256.9,3C211,3,173.8,75.8,173.8,151.6z"/>
	<path class="st3" d="M381.5,151.6c0,90.8-43.3,165.3-80.1,231.1h-18.3c24.6-65.9,56.9-140.3,56.9-231.1C339.9,75.8,302.7,3,256.9,3
		C325.6,3,381.5,75.8,381.5,151.6z"/>
	<path class="st4" d="M215.3,151.6c0,90.8,12.9,165.3,25.2,231.1h-10.4c-24.6-65.9-56.4-140.3-56.4-231.1C173.8,75.8,211,3,256.9,3
		C233.9,3,215.3,75.8,215.3,151.6z"/>
	<path class="st5" d="M339.9,151.6c0,90.8-32.3,165.3-56.9,231.1h-10.4c12.3-65.9,25.7-140.3,25.7-231.1C298.4,75.8,279.8,3,256.9,3
		C302.7,3,339.9,75.8,339.9,151.6z"/>
	<path class="st2" d="M298.4,151.6c0,90.8-13.4,165.3-25.7,231.1h-32.1c-12.3-65.9-25.2-140.3-25.2-231.1
		C215.3,75.8,233.9,3,256.9,3S298.4,75.8,298.4,151.6z"/>
	<g>
		<rect x="209.4" y="414.4" class="st6" width="7.9" height="31.6"/>
	</g>
	<g>
		<rect x="233.1" y="414.4" class="st6" width="7.9" height="31.6"/>
	</g>
	<g>
		<rect x="272.7" y="414.4" class="st6" width="7.9" height="31.6"/>
	</g>
	<g>
		<rect x="296.4" y="414.4" class="st6" width="7.9" height="31.6"/>
	</g>
	<path class="st7" d="M288.5,509.4c4.4,0,8.8-3.5,9.8-7.7l11.9-47.7h-37.6c-8.7,0-15.8,7.1-15.8,15.8v15.8c0,8.7-7.1,15.8-15.8,15.8
		h-25.7l0.1,0.2c1.1,4.2,5.5,7.7,9.8,7.7h31.6H288.5z"/>
	<path class="st7" d="M201.5,382.8v7.9H241c8.7,0,15.8,7.1,15.8,15.8v7.9h47.5c4.4,0,7.9-3.6,7.9-7.9v-23.7h-55.4H201.5z"/>
</g>
<path class="st8" d="M289.1,212.6c0,66.6-10.4,121.2-20,169.6h-25c-9.6-48.3-19.6-103-19.6-169.6c0-55.7,14.5-109,32.3-109
	S289.1,157,289.1,212.6z"/>
</svg>
