<?xml version="1.0" encoding="utf-8"?>
<!-- Generator: Adobe Illustrator 21.0.2, SVG Export Plug-In . SVG Version: 6.00 Build 0)  -->
<svg version="1.1" id="Capa_1" xmlns="http://www.w3.org/2000/svg" xmlns:xlink="http://www.w3.org/1999/xlink" x="0px" y="0px"
	 viewBox="0 0 512 512" style="enable-background:new 0 0 512 512;" xml:space="preserve">
<style type="text/css">
	.st0{fill:#F69120;}
	.st1{fill:#E58225;}
	.st2{fill:#FCCF63;}
	.st3{fill:#F48121;}
</style>
<g>
	<path class="st0" d="M256.2,7.1c137.6,0,249.2,111.6,249.2,249.2c0,137.7-111.6,249.2-249.2,249.2V7.1z"/>
	<path class="st0" d="M256.2,7.1c137.6,0,249.2,111.6,249.2,249.2c0,137.7-111.6,249.2-249.2,249.2V7.1z"/>
	<path class="st1" d="M455.3,106.5c12.2,29.4,18.9,61.5,18.9,95.3c0,127.1-95.1,231.9-218.1,247.2v56.5
		c137.6,0,249.2-111.6,249.2-249.2C505.4,200.1,486.8,148.2,455.3,106.5z"/>
	<path class="st0" d="M256.2,505.6C118.5,505.6,7,394,7,256.3C7,118.7,118.5,7.1,256.2,7.1V505.6z"/>
	<path class="st2" d="M256.2,280L256.2,280l0-47.4l0,0V38.3c-120.4,0-218.1,97.6-218.1,218.1c0,120.4,97.6,218.1,218.1,218.1V280z
		 M222.6,74.9v124.2l-84.4-84.4C162,94.8,190.9,80.7,222.6,74.9z M72.4,239.6c3.5-38.3,18.7-73.2,42-101.2l101.2,101.2H72.4z
		 M72.4,273.1h143.3L114.5,374.3C91.1,346.4,75.9,311.4,72.4,273.1z M138.2,398l84.4-84.4v124.2C190.9,431.9,162,417.9,138.2,398z"
		/>
	<path class="st3" d="M222.6,74.9v124.2l-84.4-84.4C162,94.8,190.9,80.7,222.6,74.9z"/>
	<path class="st3" d="M72.4,239.6c3.5-38.3,18.7-73.2,42-101.2l101.2,101.2H72.4z"/>
	<path class="st3" d="M72.4,273.1h143.3L114.5,374.3C91.1,346.4,75.9,311.4,72.4,273.1z"/>
	<path class="st3" d="M138.2,398l84.4-84.4v124.2C190.9,431.9,162,417.9,138.2,398z"/>
	<circle class="st1" cx="326.3" cy="186.2" r="15.6"/>
	<circle class="st1" cx="302.9" cy="92.8" r="15.6"/>
	<circle class="st1" cx="365.2" cy="116.1" r="15.6"/>
</g>
</svg>
