<?xml version="1.0" encoding="utf-8"?>
<!-- Generator: Adobe Illustrator 21.0.2, SVG Export Plug-In . SVG Version: 6.00 Build 0)  -->
<svg version="1.1" id="Layer_1" xmlns="http://www.w3.org/2000/svg" xmlns:xlink="http://www.w3.org/1999/xlink" x="0px" y="0px"
	 viewBox="0 0 512 512" style="enable-background:new 0 0 512 512;" xml:space="preserve">
<style type="text/css">
	.st0{fill:#FCCF63;}
	.st1{fill:#F6B74E;}
	.st2{fill:#576D7E;}
	.st3{fill:#35495C;}
	.st4{fill:#B1C3D0;}
	.st5{fill:#8EADBE;}
	.st6{fill:#D89C44;}
</style>
<g>
	<path class="st0" d="M200,375.1c0-32-10.5-70.6-40.7-91.6l0.1-0.1c-34.9-28.4-57.1-71.6-57.1-120C102.3,77.9,171.5,8.6,257,8.6
		c85.4,0,154.7,69.3,154.7,154.7c0,48.4-22.2,91.7-57.1,120l0.1,0.1c-30.2,21-40.7,59.6-40.7,91.6H200z"/>
	<path class="st1" d="M314,375.1c0-32,10.5-70.6,40.7-91.6l-0.1-0.1c34.8-28.4,57.1-71.6,57.1-120c0-41.1-16.1-78.5-42.2-106.2
		C329,14.3,257,43.1,257,102v273.1H314z"/>
	<path class="st2" d="M219.3,464.6c-4.5,0-7.7,3.6-7.1,8.1l3.1,24.6c0.6,4.4,4.7,8.1,9.2,8.1h65.1c4.5,0,8.6-3.6,9.2-8.1l3.1-24.6
		c0.6-4.4-2.7-8.1-7.1-8.1H219.3z"/>
	<path class="st3" d="M294.6,464.6H257v40.7h32.6c4.5,0,8.6-3.6,9.2-8.1l3.1-24.6C302.3,468.3,299.1,464.6,294.6,464.6z"/>
	<path class="st4" d="M305.8,375.1h-16.3h-65.1h-16.3H200c-4.5,0-8.1,3.6-8.1,8.1v73.3c0,9,7.3,16.3,16.3,16.3h97.7
		c9,0,16.3-7.3,16.3-16.3v-73.3c0-4.5-3.6-8.1-8.1-8.1H305.8z"/>
	<path class="st5" d="M257,440.2c0,9-7.3,16.3-16.3,16.3h-48.9c0,9,7.3,16.3,16.3,16.3H257h48.9c9,0,16.3-7.3,16.3-16.3v-73.3h-48.9
		c-9,0-16.3,7.3-16.3,16.3V440.2z"/>
	<g>
		<path class="st6" d="M281.4,261.1c0,13.5-10.9,24.4-24.4,24.4c-13.5,0-24.4-10.9-24.4-24.4c0-13.5,10.9-24.4,24.4-24.4
			C270.5,236.6,281.4,247.6,281.4,261.1z"/>
	</g>
	<g>
		<path class="st6" d="M226.3,98.1c-1-8.9,5.4-16.2,14.4-16.2h32.6c9,0,15.4,7.3,14.4,16.2l-12.5,106.1c-1,8.9-9.2,16.2-18.2,16.2
			l0,0c-9,0-17.1-7.3-18.2-16.2L226.3,98.1z"/>
	</g>
	<g>
		<g>
			<path class="st0" d="M493.1,179.6h-48.9c-9,0-16.3-7.3-16.3-16.3c0-9,7.3-16.3,16.3-16.3h48.9c9,0,16.3,7.3,16.3,16.3
				C509.4,172.3,502.1,179.6,493.1,179.6z"/>
		</g>
	</g>
	<g>
		<g>
			<path class="st0" d="M69.7,179.6H20.8c-9,0-16.3-7.3-16.3-16.3c0-9,7.3-16.3,16.3-16.3h48.9c9,0,16.3,7.3,16.3,16.3
				C86,172.3,78.7,179.6,69.7,179.6z"/>
		</g>
	</g>
	<g>
		<g>
			<path class="st0" d="M493.1,179.6h-48.9c-9,0-16.3-7.3-16.3-16.3c0-9,7.3-16.3,16.3-16.3h48.9c9,0,16.3,7.3,16.3,16.3
				C509.4,172.3,502.1,179.6,493.1,179.6z"/>
		</g>
	</g>
	<g>
		<g>
			<path class="st0" d="M69.7,179.6H20.8c-9,0-16.3-7.3-16.3-16.3c0-9,7.3-16.3,16.3-16.3h48.9c9,0,16.3,7.3,16.3,16.3
				C86,172.3,78.7,179.6,69.7,179.6z"/>
		</g>
	</g>
	<g>
		<g>
			<path class="st0" d="M419.2,86c-5.6,0-11.1-2.9-14.1-8.1c-4.5-7.8-1.8-17.7,6-22.2l42.3-24.4c7.8-4.5,17.8-1.8,22.2,6
				c4.5,7.8,1.8,17.7-6,22.2l-42.3,24.4C424.7,85.3,421.9,86,419.2,86z"/>
		</g>
	</g>
	<g>
		<g>
			<path class="st0" d="M52.5,297.7c-5.6,0-11.1-2.9-14.1-8.1c-4.5-7.8-1.8-17.7,6-22.2l42.3-24.4c7.8-4.5,17.8-1.8,22.2,6
				c4.5,7.8,1.8,17.7-6,22.2l-42.3,24.4C58,297,55.2,297.7,52.5,297.7z"/>
		</g>
	</g>
	<g>
		<g>
			<path class="st0" d="M461.4,297.7c-2.8,0-5.6-0.7-8.1-2.2L411,271.1c-7.8-4.5-10.5-14.5-6-22.2c4.5-7.8,14.5-10.4,22.3-6
				l42.3,24.4c7.8,4.5,10.5,14.5,6,22.2C472.6,294.8,467.1,297.7,461.4,297.7z"/>
		</g>
	</g>
	<g>
		<g>
			<path class="st0" d="M94.8,86c-2.8,0-5.6-0.7-8.1-2.2L44.3,59.4c-7.8-4.5-10.5-14.5-6-22.2c4.5-7.8,14.5-10.5,22.3-6l42.3,24.4
				c7.8,4.5,10.5,14.5,6,22.2C105.9,83.1,100.4,86,94.8,86z"/>
		</g>
	</g>
</g>
</svg>
