<?xml version="1.0" encoding="utf-8"?>
<!-- Generator: Adobe Illustrator 21.0.2, SVG Export Plug-In . SVG Version: 6.00 Build 0)  -->
<svg version="1.1" id="Layer_1" xmlns="http://www.w3.org/2000/svg" xmlns:xlink="http://www.w3.org/1999/xlink" x="0px" y="0px"
	 viewBox="0 0 512.2 512.2" style="enable-background:new 0 0 512.2 512.2;" xml:space="preserve">
<style type="text/css">
	.st0{fill:#675C5A;}
	.st1{fill:#7A6D6B;}
	.st2{fill:#FFCD00;}
	.st3{fill:#FF9100;}
	.st4{fill:#E6BE94;}
	.st5{fill:#996459;}
	.st6{fill:#5C546A;}
	.st7{fill:#FFFFFF;}
</style>
<g>
	<g>
		<ellipse class="st0" cx="256" cy="269.7" rx="247.2" ry="224.2"/>
	</g>
	<g>
		<ellipse class="st1" cx="256" cy="249.1" rx="247.2" ry="224.2"/>
	</g>
	<g>
		<path class="st2" d="M301.2,329.7l-38.9-54.1c-1.5-2-3.8-3.2-6.3-3.2c0,0,0,0,0,0c-2.5,0-4.8,1.2-6.3,3.3l-38.4,54.1
			c-1.7,2.4-1.9,5.6-0.5,8.2l38.7,69.6c1.4,2.5,3.9,4,6.8,4c2.8,0,5.4-1.5,6.8-4l38.7-69.6C303.1,335.3,302.9,332.1,301.2,329.7z"/>
	</g>
	<g>
		<path class="st3" d="M249.7,275.6l-38.4,54.1c-1.7,2.4-1.9,5.6-0.5,8.2l38.7,69.6c1.3,2.4,3.8,3.9,6.5,4V272.3c0,0,0,0,0,0
			C253.5,272.3,251.1,273.6,249.7,275.6z"/>
	</g>
	<g>
		<path class="st4" d="M372,142c-52-7.2-98.1,22.6-115.9,66.9c-17.8-44.2-63.8-74.1-115.9-66.9c-48.2,6.7-86.7,46.4-92.1,94.8
			c-7.2,65.3,43.7,120.6,107.5,120.6c40.2,0,75.1-21.9,93.8-54.4c2.9-5,10.3-5,13.2,0c18.7,32.5,53.7,54.4,93.8,54.4
			c63.8,0,114.8-55.3,107.5-120.6C458.7,188.4,420.2,148.7,372,142z"/>
	</g>
	<g>
		<circle class="st5" cx="356.5" cy="249.1" r="69.6"/>
	</g>
	<g>
		<circle class="st5" cx="155.5" cy="249.1" r="69.6"/>
	</g>
	<g>
		<path class="st1" d="M395.2,63.6h38.7c29.8,0,54.1-24.3,54.1-54.1c0-4.3,3.5-7.7,7.7-7.7s7.7,3.5,7.7,7.7v92.8
			c0,38.4-31.2,69.6-69.6,69.6H341c-42.6,0-77.3,34.7-77.3,77.3c0,4.3-3.5,7.7-7.7,7.7s-7.7-3.5-7.7-7.7v-38.7
			C248.3,129.5,314.2,63.6,395.2,63.6z"/>
	</g>
	<g>
		<path class="st1" d="M117.1,63.6H78.4c-29.8,0-54.1-24.3-54.1-54.1c0-4.3-3.5-7.7-7.7-7.7S8.8,5.2,8.8,9.5v92.8
			c0,38.4,31.2,69.6,69.6,69.6h92.8c42.6,0,77.3,34.7,77.3,77.3c0,4.3,3.5,7.7,7.7,7.7c4.3,0,7.7-3.5,7.7-7.7v-38.7
			C263.9,129.5,198.1,63.6,117.1,63.6z"/>
	</g>
	<g>
		<g>
			<circle class="st2" cx="155.7" cy="249.1" r="46.4"/>
		</g>
		<g>
			<circle class="st6" cx="155.7" cy="249.1" r="23.2"/>
		</g>
		<g>
			<circle class="st7" cx="171.1" cy="233.8" r="15.5"/>
		</g>
	</g>
	<g>
		<g>
			<circle class="st2" cx="356.5" cy="249.1" r="46.4"/>
		</g>
		<g>
			<circle class="st6" cx="356.5" cy="249.1" r="23.2"/>
		</g>
		<g>
			<circle class="st7" cx="371.9" cy="233.8" r="15.5"/>
		</g>
	</g>
	<g>
		<path class="st4" d="M495.9,1.8c-4.3,0-7.7,3.5-7.7,7.7c0,29.8-24.3,54.1-54.1,54.1h-38.7c-64.8,0-119.8,42.2-139.3,100.5
			c-19.5-58.3-74.5-100.5-139.3-100.5H78.2c-29.8,0-54.1-24.3-54.1-54.1c0-4.3-3.5-7.7-7.7-7.7S8.6,5.2,8.6,9.5v46.4
			c0,29.9,24.2,54.1,54.1,54.1h54.1c52.5,0,98.4,27.7,124.3,69.3c3.2,5.1,8.9,8,14.9,8h0c6,0,11.7-2.9,14.9-8
			c25.9-41.5,71.9-69.3,124.3-69.3h54.1c29.9,0,54.1-24.2,54.1-54.1V9.5C503.6,5.2,500.1,1.8,495.9,1.8z"/>
	</g>
</g>
</svg>
