<?xml version="1.0" encoding="utf-8"?>
<!-- Generator: Adobe Illustrator 21.0.2, SVG Export Plug-In . SVG Version: 6.00 Build 0)  -->
<svg version="1.1" id="Layer_1" xmlns="http://www.w3.org/2000/svg" xmlns:xlink="http://www.w3.org/1999/xlink" x="0px" y="0px"
	 viewBox="0 0 454 454" style="enable-background:new 0 0 454 454;" xml:space="preserve">
<style type="text/css">
	.st0{fill:#3D92B2;}
	.st1{fill:#50BEE7;}
	.st2{fill:#35495C;}
</style>
<g>
	<path class="st0" d="M407.5,49l-28.1-28.6c-5.5-5.6-14.4-5.6-19.8,0L331.5,49c-5.5,5.6-5.5,14.7,0,20.2l23.7,24.1
		c-2.7,63.8-51.1,115.8-112.7,122.4l14.8,15.1L244,244.4c76.2-7.4,136.4-71.6,139.4-150.6l24.1-24.6C413,63.7,413,54.6,407.5,49z
		 M369.5,67.5l-8.2-8.4l8.2-8.4l8.2,8.4L369.5,67.5z"/>
	<path class="st0" d="M215.9,245.9l-14.8-15.1l13.3-13.6C138.2,224.7,78,288.9,75.1,367.8L51,392.4c-5.5,5.6-5.5,14.6,0,20.2
		L79,441.3c2.7,2.8,6.3,4.2,9.9,4.2c3.6,0,7.2-1.4,9.9-4.2l28.1-28.6c5.5-5.6,5.5-14.6,0-20.2l-23.7-24.1
		C106,304.4,154.4,252.5,215.9,245.9z M89,410.9l-8.2-8.4l8.2-8.4l8.2,8.4L89,410.9z"/>
</g>
<g>
	<g>
		<path class="st1" d="M405.5,46l-28.1-28.6c-5.5-5.6-14.4-5.6-19.8,0L329.5,46c-5.5,5.6-5.5,14.7,0,20.2l23.7,24.1
			c-2.7,63.8-51.1,115.8-112.7,122.4l14.8,15.1L242,241.4c76.2-7.4,136.4-71.6,139.4-150.6l24.1-24.6C411,60.7,411,51.6,405.5,46z
			 M367.5,64.5l-8.2-8.4l8.2-8.4l8.2,8.4L367.5,64.5z"/>
		<path class="st1" d="M213.9,242.9l-14.8-15.1l13.3-13.6C136.2,221.7,76,285.9,73.1,364.8L49,389.4c-5.5,5.6-5.5,14.6,0,20.2
			L77,438.3c2.7,2.8,6.3,4.2,9.9,4.2c3.6,0,7.2-1.4,9.9-4.2l28.1-28.6c5.5-5.6,5.5-14.6,0-20.2l-23.7-24.1
			C104,301.4,152.4,249.5,213.9,242.9z M87,407.9l-8.2-8.4l8.2-8.4l8.2,8.4L87,407.9z"/>
	</g>
	<path class="st2" d="M409.6,184.9c-18.3,0-33.8,12-39.6,28.6H261.1l-23.9-24.4c-5.5-5.6-14.4-5.6-19.8,0l-23.9,24.4H84.5
		c-5.8-16.6-21.3-28.6-39.6-28.6c-23.2,0-42.1,19.3-42.1,42.9s18.9,42.9,42.1,42.9c18.3,0,33.8-12,39.6-28.6h108.9l23.9,24.4
		c2.7,2.8,6.3,4.2,9.9,4.2c3.6,0,7.2-1.4,9.9-4.2l23.9-24.4H370c5.8,16.6,21.4,28.6,39.6,28.6c23.2,0,42.1-19.3,42.1-42.9
		S432.8,184.9,409.6,184.9z M44.9,242.1c-7.7,0-14-6.4-14-14.3s6.3-14.3,14-14.3s14,6.4,14,14.3S52.6,242.1,44.9,242.1z
		 M227.2,236.2l-8.2-8.4l8.2-8.4l8.2,8.4L227.2,236.2z M409.6,242.1c-7.7,0-14-6.4-14-14.3s6.3-14.3,14-14.3c7.7,0,14,6.4,14,14.3
		S417.3,242.1,409.6,242.1z"/>
</g>
</svg>
