<?xml version="1.0" encoding="utf-8"?>
<!-- Generator: Adobe Illustrator 21.0.2, SVG Export Plug-In . SVG Version: 6.00 Build 0)  -->
<svg version="1.1" id="Layer_1" xmlns="http://www.w3.org/2000/svg" xmlns:xlink="http://www.w3.org/1999/xlink" x="0px" y="0px"
	 viewBox="0 0 512 512" style="enable-background:new 0 0 512 512;" xml:space="preserve">
<style type="text/css">
	.st0{fill:#5E6BB1;}
	.st1{fill:#71B1E1;}
	.st2{fill-rule:evenodd;clip-rule:evenodd;fill:#FFD44F;}
	.st3{fill:#FBB116;}
	.st4{fill-rule:evenodd;clip-rule:evenodd;fill:#3374B9;}
	.st5{fill:#ABCAE3;}
	.st6{fill:#BDDCF3;}
</style>
<g>
	<g>
		<g>
			<path class="st0" d="M97,52.7c-10.3,0-19.6,4.2-26.4,11L70.3,64l0,0L70,64.3l-0.3,0.3l0,0L69.3,65L69,65.3v0l-0.3,0.3l0,0
				L68.5,66v0l-0.3,0.3l0,0l-0.3,0.3L67.6,67l-0.3,0.4l-0.3,0.4l0,0l-0.3,0.4l-0.3,0.4l0,0l-0.3,0.4l0,0L66,69.2l0,0l-0.3,0.4v0
				L65.5,70l0,0l-0.2,0.4v0L65,70.7l0,0l-0.2,0.4l0,0l-0.2,0.4l0,0l-0.2,0.4l0,0l-0.2,0.4l0,0l-0.2,0.4l0,0l-0.2,0.4l0,0l-0.2,0.4v0
				l-0.2,0.4l0,0l-0.2,0.4l0,0l-0.2,0.4l0,0l-0.2,0.4v0l-0.2,0.4l0,0L62.4,76v0l-0.2,0.4v0l-0.2,0.4l0,0l-0.2,0.4l0,0l-0.2,0.4l0,0
				l-0.1,0.4l0,0l-0.1,0.4l0,0L61.3,79l0,0l-0.1,0.4l0,0L61,79.9l0,0l-0.1,0.4l0,0l-0.1,0.4l0,0l-0.1,0.4v0l-0.1,0.4v0l-0.1,0.4l0,0
				l-0.1,0.5l0,0L60.3,83v0l-0.1,0.5v0c0,0.2-0.1,0.3-0.1,0.5l0,0c0,0.2-0.1,0.3-0.1,0.5v0c0,0.2,0,0.3-0.1,0.5l0,0
				c0,0.2,0,0.3-0.1,0.5l0,0c0,0.2,0,0.3-0.1,0.5l0,0c0,0.2,0,0.3-0.1,0.5l0,0c0,0.2,0,0.3,0,0.5l0,0c0,0.2,0,0.3,0,0.5l0,0l0,0.5v0
				l0,0.5l0,0l0,0.5l0,0l0,0.5v0c0,0.2,0,0.3,0,0.5l0,0l0,0.5l0,0v380l0,0l0,0.5v0c0,0.2,0,0.3,0,0.5l0,0c0,0.2,0,0.3,0,0.5l0,0
				l0,0.5l0,0l0,0.5v0l0,0.5v0l0,0.5l0,0c0,0.2,0,0.3,0,0.5l0,0c0,0.2,0,0.3,0.1,0.5l0,0c0,0.2,0,0.3,0.1,0.5l0,0l0.1,0.5v0l0.1,0.5
				v0l0.1,0.5l0,0c0,0.2,0.1,0.3,0.1,0.5l0,0l0.1,0.5l0,0l0.1,0.5l0,0l0.1,0.5l0,0c0,0.1,0.1,0.3,0.1,0.5l0,0l0.1,0.4l0,0l0.1,0.4
				l0,0c0,0.1,0.1,0.3,0.1,0.4l0,0l0.1,0.4l0,0l0.1,0.4l0,0l0.1,0.4l0,0l0.1,0.4l0,0l0.1,0.4l0,0l0.1,0.4l0,0l0.2,0.4l0,0l0.2,0.4v0
				l0.2,0.4l0,0l0.2,0.4l0,0l0.2,0.4l0,0l0.2,0.4l0,0l0.2,0.4l0,0l0.2,0.4l0,0l0.2,0.4l0,0l0.2,0.4v0l0.2,0.4l0,0l0.2,0.4l0,0
				l0.2,0.4l0,0l0.2,0.4l0,0l0.2,0.4l0,0l0.2,0.4l0,0l0.2,0.4l0,0l0.2,0.4l0,0l0.2,0.4l0,0l0.2,0.4l0,0L66,491l0,0l0.3,0.4l0,0
				l0.3,0.4l0,0l0.3,0.4l0.3,0.4l0,0l0.3,0.4l0.3,0.4l0.3,0.4l0.3,0.3v0l0.3,0.3l0,0l0.3,0.3l0,0l0.3,0.3v0l0.3,0.3l0.3,0.3l0,0
				l0.3,0.3c0.1,0.1,0.2,0.2,0.3,0.3l0,0l0.3,0.3c6.8,6.8,16.1,11,26.4,11h49.8h219.4h49.3c10.3,0,19.6-4.2,26.4-11l0.3-0.3l0,0
				l0.3-0.3l0.3-0.3l0,0c0.1-0.1,0.2-0.2,0.3-0.3l0.3-0.3v0l0.3-0.3l0,0l0.3-0.3l0,0l0.3-0.3v0l0.3-0.3l0.3-0.4l0.3-0.4l0.3-0.4l0,0
				l0.3-0.4l0.3-0.4l0,0l0.3-0.4l0,0l0.3-0.4l0,0l0.2-0.4l0,0l0.2-0.4l0,0l0.2-0.4l0,0l0.2-0.4l0,0l0.2-0.4l0,0l0.2-0.4l0,0l0.2-0.4
				l0,0l0.2-0.4l0,0l0.2-0.4l0,0l0.2-0.4l0,0l0.2-0.4v0l0.2-0.4l0,0l0.2-0.4l0,0l0.2-0.4l0,0l0.2-0.4l0,0l0.2-0.4l0,0l0.2-0.4l0,0
				l0.2-0.4l0,0l0.2-0.4v0l0.2-0.4l0,0l0.2-0.4l0,0l0.2-0.4l0,0l0.1-0.4l0,0l0.1-0.4l0,0l0.1-0.4l0,0l0.1-0.4l0,0l0.1-0.4l0,0
				l0.1-0.4l0,0l0.1-0.4l0,0l0.1-0.4l0,0l0.1-0.5l0,0l0.1-0.5l0,0l0.1-0.5l0,0l0.1-0.5l0,0c0-0.2,0.1-0.3,0.1-0.5l0,0
				c0-0.2,0.1-0.3,0.1-0.5v0c0-0.2,0-0.3,0.1-0.5v0c0-0.2,0-0.3,0.1-0.5l0,0c0-0.2,0-0.3,0.1-0.5l0,0c0-0.2,0-0.3,0.1-0.5l0,0
				c0-0.2,0-0.3,0-0.5l0,0c0-0.2,0-0.3,0-0.5v0l0-0.5v0l0-0.5l0,0l0-0.5l0,0l0-0.5l0,0c0-0.2,0-0.3,0-0.5v0l0-0.5l0,0v-380l0,0
				l0-0.5l0,0l0-0.5v0c0-0.2,0-0.3,0-0.5l0,0l0-0.5l0,0l0-0.5v0l0-0.5l0,0l0-0.5l0,0l0-0.5l0,0c0-0.2,0-0.3-0.1-0.5l0,0
				c0-0.2,0-0.3-0.1-0.5l0,0l-0.1-0.5l0,0l-0.1-0.5v0l-0.1-0.5l0,0c0-0.2-0.1-0.3-0.1-0.5v0l-0.1-0.5v0l-0.1-0.5l0,0l-0.1-0.5l0,0
				l-0.1-0.4v0l-0.1-0.4v0l-0.1-0.4l0,0c0-0.1-0.1-0.3-0.1-0.4l0,0l-0.1-0.4l0,0l-0.1-0.4l0,0l-0.1-0.4l0,0l-0.1-0.4l0,0l-0.1-0.4
				l0,0l-0.2-0.4l0,0l-0.2-0.4l0,0l-0.2-0.4l0,0l-0.2-0.4v0l-0.2-0.4v0l-0.2-0.4l0,0l-0.2-0.4v0c-0.1-0.1-0.1-0.3-0.2-0.4l0,0
				l-0.2-0.4l0,0l-0.2-0.4l0,0l-0.2-0.4v0l-0.2-0.4l0,0l-0.2-0.4l0,0l-0.2-0.4l0,0l-0.2-0.4l0,0l-0.2-0.4l0,0l-0.2-0.4l0,0l-0.2-0.4
				l0,0c-0.1-0.1-0.2-0.3-0.2-0.4v0l-0.2-0.4l0,0l-0.2-0.4v0l-0.2-0.4l0,0l-0.3-0.4l0,0l-0.3-0.4l0,0l-0.3-0.4l-0.3-0.4l0,0
				l-0.3-0.4l-0.3-0.4l-0.3-0.4l-0.3-0.3l0,0L444,66v0l-0.3-0.3l0,0l-0.3-0.3v0l-0.3-0.3l-0.3-0.3l0,0l-0.3-0.3l-0.3-0.3l0,0
				l-0.3-0.3c-6.8-6.8-16.1-11-26.4-11C264.7,52.7,247.8,52.7,97,52.7z"/>
		</g>
		<g>
			<g>
				<path class="st1" d="M84.6,54.9c-5.3,1.9-10.1,4.9-14,8.8L70.3,64l0,0L70,64.3l-0.3,0.3l0,0L69.3,65L69,65.3v0l-0.3,0.3l0,0
					L68.5,66v0l-0.3,0.3l0,0l-0.3,0.3L67.6,67l-0.3,0.4l-0.3,0.4l0,0l-0.3,0.4l-0.3,0.4l0,0l-0.3,0.4l0,0L66,69.2l0,0l-0.3,0.4v0
					L65.5,70l0,0l-0.2,0.4v0L65,70.7l0,0l-0.2,0.4l0,0l-0.2,0.4l0,0l-0.2,0.4l0,0l-0.2,0.4l0,0l-0.2,0.4l0,0l-0.2,0.4l0,0l-0.2,0.4
					v0l-0.2,0.4l0,0l-0.2,0.4l0,0l-0.2,0.4l0,0l-0.2,0.4v0l-0.2,0.4l0,0L62.4,76v0l-0.2,0.4v0l-0.2,0.4l0,0l-0.2,0.4l0,0l-0.2,0.4
					L84.6,54.9z"/>
			</g>
			<g>
				<polygon class="st1" points="59.6,94.6 59.6,109.4 116.2,52.7 101.5,52.7 				"/>
			</g>
			<g>
				<polygon class="st1" points="59.6,124.1 59.6,138.9 145.8,52.7 131,52.7 				"/>
			</g>
			<g>
				<polygon class="st1" points="59.6,153.7 59.6,168.5 175.4,52.7 160.6,52.7 				"/>
			</g>
			<g>
				<polygon class="st1" points="59.6,183.3 59.6,198 204.9,52.7 190.1,52.7 				"/>
			</g>
			<g>
				<polygon class="st1" points="59.6,212.8 59.6,227.6 234.5,52.7 219.7,52.7 				"/>
			</g>
			<g>
				<polygon class="st1" points="59.6,242.4 59.6,257.2 264,52.7 249.3,52.7 				"/>
			</g>
			<g>
				<polygon class="st1" points="59.6,271.9 59.6,286.7 293.6,52.7 278.8,52.7 				"/>
			</g>
			<g>
				<polygon class="st1" points="59.6,301.5 59.6,316.3 323.2,52.7 308.4,52.7 				"/>
			</g>
			<g>
				<polygon class="st1" points="59.6,331.1 59.6,345.8 352.7,52.7 337.9,52.7 				"/>
			</g>
			<g>
				<polygon class="st1" points="59.6,360.6 59.6,375.4 382.3,52.7 367.5,52.7 				"/>
			</g>
			<g>
				<polygon class="st1" points="59.6,390.2 59.6,405 411.8,52.7 397.1,52.7 				"/>
			</g>
			<g>
				<path class="st1" d="M59.6,419.7v14.8L435.5,58.6c-3.1-2-6.6-3.5-10.2-4.6L59.6,419.7z"/>
			</g>
			<g>
				<path class="st1" d="M59.6,449.3v14.8L449.3,74.4l0,0l0,0l-0.2-0.4l0,0l-0.2-0.4v0l-0.2-0.4l0,0l-0.2-0.4l0,0l-0.2-0.4l0,0
					l-0.2-0.4l0,0l-0.2-0.4l0,0l-0.2-0.4l0,0l-0.2-0.4l0,0c-0.1-0.1-0.2-0.3-0.2-0.4v0l-0.2-0.4l0,0l-0.2-0.4v0l-0.2-0.4l0,0
					l-0.3-0.4l0,0l-0.3-0.4l0,0l-0.3-0.4l-0.3-0.4l0,0l-0.3-0.4l-0.3-0.4l-0.3-0.4l-0.3-0.3l0,0L444,66v0l-0.3-0.3l0,0l-0.2-0.2
					L59.6,449.3z"/>
			</g>
			<g>
				<path class="st1" d="M60.5,478L60.5,478L60.5,478c0,0.2,0.1,0.4,0.1,0.5l0,0l0.1,0.4l0,0l0.1,0.4l0,0c0,0.1,0.1,0.3,0.1,0.4l0,0
					l0.1,0.4l0,0l0.1,0.4l0,0l0.1,0.4l0,0l0.1,0.4l0,0l0.1,0.4l0,0l0.1,0.4l0,0l0.2,0.4l0,0l0.2,0.4v0l0.2,0.4l0,0l0.2,0.4l0,0
					l0.2,0.4l0,0l0.2,0.4l0,0l0.2,0.4l0,0l0.2,0.4l0,0l0.2,0.4l0,0l0.2,0.4v0l0.2,0.4l0,0l0.2,0.4l0,0l0.2,0.4l0,0l0.2,0.4l0,0
					l0.2,0.4l388.2-388.2V90.1l0,0l0-0.5l0,0l0-0.5v0c0-0.2,0-0.3,0-0.5l0,0l0-0.5l0,0l0-0.5v0l0-0.5l0,0l0-0.5l0,0l0-0.5l0,0l0-0.4
					L60.5,478z"/>
			</g>
			<g>
				<path class="st1" d="M71.1,497c2.5,2.5,5.4,4.5,8.6,6.2L452.8,130v-14.8L71.1,497z"/>
			</g>
			<g>
				<path class="st1" d="M90.7,506.9c2,0.3,4.1,0.5,6.3,0.5h8l347.9-347.9v-14.8L90.7,506.9z"/>
			</g>
			<g>
				<polygon class="st1" points="119.7,507.5 134.5,507.5 452.8,189.1 452.8,174.3 				"/>
			</g>
			<g>
				<polygon class="st1" points="149.3,507.5 164,507.5 452.8,218.7 452.8,203.9 				"/>
			</g>
			<g>
				<polygon class="st1" points="178.8,507.5 193.6,507.5 452.8,248.2 452.8,233.5 				"/>
			</g>
			<g>
				<polygon class="st1" points="208.6,507.5 223.3,507.5 452.8,278 452.8,263.2 				"/>
			</g>
			<g>
				<polygon class="st1" points="238.3,507.5 253.1,507.5 452.8,307.7 452.8,292.9 				"/>
			</g>
			<g>
				<polygon class="st1" points="268,507.5 282.8,507.5 452.8,337.4 452.8,322.7 				"/>
			</g>
			<g>
				<polygon class="st1" points="297.8,507.5 312.5,507.5 452.8,367.2 452.8,352.4 				"/>
			</g>
			<g>
				<polygon class="st1" points="327.5,507.5 342.3,507.5 452.8,396.9 452.8,382.1 				"/>
			</g>
			<g>
				<polygon class="st1" points="357.2,507.5 366.2,507.5 372,507.5 452.8,426.6 452.8,411.9 				"/>
			</g>
			<g>
				<polygon class="st1" points="387,507.5 401.7,507.5 452.8,456.4 452.8,441.6 				"/>
			</g>
			<g>
				<path class="st1" d="M416.7,507.4c9.8-0.3,18.7-4.4,25.2-10.9l0.3-0.3l0,0l0.3-0.3l0.3-0.3l0,0c0.1-0.1,0.2-0.2,0.3-0.3l0.3-0.3
					v0l0.3-0.3l0,0l0.3-0.3l0,0l0.3-0.3v0l0.3-0.3l0.3-0.4l0.3-0.4l0.3-0.4l0,0l0.3-0.4l0.3-0.4l0,0l0.3-0.4l0,0l0.3-0.4l0,0
					l0.2-0.4l0,0l0.2-0.4l0,0l0.2-0.4l0,0l0.2-0.4l0,0l0.2-0.4l0,0l0.2-0.4l0,0l0.2-0.4l0,0l0.2-0.4l0,0l0.2-0.4l0,0l0.2-0.4l0,0
					l0.2-0.4v0l0.2-0.4l0,0l0.2-0.4l0,0l0.2-0.4l0,0l0.2-0.4l0,0l0.2-0.4l0,0l0.2-0.4l0,0l0.2-0.4l0,0l0.2-0.4v0l0.2-0.4l0,0
					l0.2-0.4l0,0l0.2-0.4l0,0l0.1-0.4l0,0l0.1-0.4l0,0l0.1-0.4l0,0l0.1-0.4l0,0l0.1-0.4l0,0l0.1-0.4l0,0l0.1-0.4l0,0l0.1-0.4l0,0
					l0.1-0.5l0,0l0.1-0.5l0,0l0.1-0.5l0,0l0.1-0.5l0,0c0-0.2,0.1-0.3,0.1-0.5l0,0c0-0.2,0.1-0.3,0.1-0.5v0c0-0.2,0-0.3,0.1-0.5v0
					c0-0.2,0-0.3,0.1-0.5l0,0c0-0.2,0-0.3,0.1-0.5l0,0c0-0.2,0-0.3,0.1-0.5l0,0c0-0.2,0-0.3,0-0.5l0,0c0-0.2,0-0.3,0-0.5v0l0-0.5v0
					l0-0.5l0,0l0-0.5l0,0l0-0.2L416.7,507.4z"/>
			</g>
		</g>
		<g>
			<path class="st2" d="M256.2,483.3c3.5,0,7-1.6,9.4-4.5l0,0l44-54.6c2.4-2.6,3.7-6.2,3.1-9.9l0,0l-35.9-181.1
				c-10,7.8-31,7.8-41.1,0.1l-35.9,181l0,0c-0.5,3.8,0.7,7.4,3.1,9.9l44,54.6l0,0C249.2,481.8,252.7,483.3,256.2,483.3z"/>
		</g>
		<g>
			<path class="st3" d="M211.8,199.7l17.4,33.5l0,0c2.2,4.2,6.5,6.6,10.9,6.5h32.3c5,0,9.3-3,11.1-7.3l17-32.8l-44.3-26.7l0,0
				l-0.1,0l-0.1,0l0,0L211.8,199.7z"/>
		</g>
		<g>
			<polygon class="st4" points="256.2,148.2 298,68.6 214.4,68.6 			"/>
		</g>
		<g>
			<path class="st5" d="M175.1,5.8h162.3c-0.1,0.2-0.3,0.5-0.4,0.7l-3,5.7l0,0l-32.2,61.4h-91.2l-32.2-61.4l0,0l-3-5.7
				C175.3,6.3,175.2,6.1,175.1,5.8z"/>
		</g>
		<g>
			<path class="st6" d="M136,43.4l34.3-34.3C171,8.3,172,7.6,173,7c5.1-2.7,11.4-0.7,14.1,4.4l0,0l76.1,145c0.1,0.1,0.1,0.2,0.2,0.3
				c3,4.9,1.4,11.4-3.6,14.3l0,0l-69.5,41.8c-0.9,0.6-2,1.1-3.1,1.4c-5.6,1.5-11.3-1.8-12.8-7.4l0,0L133.4,54
				C132.2,50.4,133.1,46.3,136,43.4L136,43.4z"/>
		</g>
		<g>
			<path class="st6" d="M342.2,9.1l34.3,34.3v0c2.9,2.9,3.7,7,2.5,10.6l-41,152.9l0,0c-1.5,5.6-7.2,8.9-12.8,7.4
				c-1.2-0.3-2.2-0.8-3.1-1.4l-69.5-41.8l0,0c-4.9-3-6.5-9.4-3.6-14.3c0.1-0.1,0.1-0.2,0.2-0.3l76.1-145l0,0c2.7-5.1,9-7.1,14.1-4.4
				C340.5,7.6,341.4,8.3,342.2,9.1z"/>
		</g>
	</g>
</g>
</svg>
