<?xml version="1.0" encoding="utf-8"?>
<!-- Generator: Adobe Illustrator 21.0.2, SVG Export Plug-In . SVG Version: 6.00 Build 0)  -->
<svg version="1.1" id="Layer_1" xmlns="http://www.w3.org/2000/svg" xmlns:xlink="http://www.w3.org/1999/xlink" x="0px" y="0px"
	 viewBox="0 0 512 512" style="enable-background:new 0 0 512 512;" xml:space="preserve">
<style type="text/css">
	.st0{fill:#35495C;}
	.st1{fill:#113247;}
	.st2{fill:#E2E4E6;}
	.st3{fill:#FFFFFF;}
	.st4{fill:#576D7E;}
	.st5{fill:#B1C3D0;}
	.st6{fill:#83BD5A;}
	.st7{fill:#AEB9C1;}
	.st8{fill:#8EADBE;}
</style>
<g>
	<g>
		<path class="st0" d="M85.5,508.3c-18.8,0-34.1-15.4-34.1-34.1v-384C51.4,71.3,66.8,56,85.5,56h341.4c18.8,0,34.1,15.4,34.1,34.1
			v384c0,18.8-15.4,34.1-34.1,34.1H85.5z"/>
		<path class="st1" d="M426.9,56H256.2v452.3h170.7c18.8,0,34.1-15.4,34.1-34.1v-384C461,71.3,445.7,56,426.9,56z"/>
	</g>
	<g>
		<path class="st2" d="M94.1,482.7c-9.4,0-17.1-7.7-17.1-17.1v-367c0-9.4,7.7-17.1,17.1-17.1h324.3c9.4,0,17.1,7.7,17.1,17.1v367
			c0,9.4-7.7,17.1-17.1,17.1H94.1z"/>
	</g>
	<path class="st3" d="M256.2,81.6H94.1c-9.4,0-17.1,7.7-17.1,17.1v367c0,9.4,7.7,17.1,17.1,17.1h162.1V81.6z"/>
	<path class="st4" d="M333,98.7H179.4c-4.7,0-8.5-3.8-8.5-8.5v8.5c0,4.7,3.8,8.5,8.5,8.5H333c4.7,0,8.5-3.8,8.5-8.5v-8.5
		C341.6,94.8,337.7,98.7,333,98.7z"/>
	<path class="st5" d="M333,38.9h-42.7c0-18.9-15.3-34.1-34.1-34.1s-34.1,15.3-34.1,34.1h-42.7c-4.7,0-8.5,3.8-8.5,8.5v42.7
		c0,4.7,3.8,8.5,8.5,8.5H333c4.7,0,8.5-3.8,8.5-8.5V47.5C341.6,42.8,337.7,38.9,333,38.9z M256.2,21.9c9.4,0,17.1,7.7,17.1,17.1
		h-34.1C239.2,29.5,246.8,21.9,256.2,21.9z"/>
	<rect x="162.4" y="56" class="st1" width="8.5" height="25.6"/>
	<g>
		<path class="st6" d="M145.3,218.1c0,9.4,7.6,17.1,17.1,17.1c9.4,0,17.1-7.6,17.1-17.1c0-9.4-7.6-17.1-17.1-17.1
			C152.9,201.1,145.3,208.7,145.3,218.1z"/>
	</g>
	<g>
		<circle class="st6" cx="162.4" cy="303.5" r="17.1"/>
	</g>
	<g>
		<circle class="st6" cx="162.4" cy="388.8" r="17.1"/>
	</g>
	<g>
		<path class="st7" d="M350.1,235.2H213.6c-9.4,0-17.1-7.6-17.1-17.1s7.6-17.1,17.1-17.1h136.5c9.4,0,17.1,7.6,17.1,17.1
			S359.5,235.2,350.1,235.2z"/>
	</g>
	<g>
		<path class="st7" d="M350.1,320.5H213.6c-9.4,0-17.1-7.6-17.1-17.1s7.6-17.1,17.1-17.1h136.5c9.4,0,17.1,7.6,17.1,17.1
			S359.5,320.5,350.1,320.5z"/>
	</g>
	<g>
		<path class="st7" d="M350.1,405.9H213.6c-9.4,0-17.1-7.6-17.1-17.1c0-9.4,7.6-17.1,17.1-17.1h136.5c9.4,0,17.1,7.6,17.1,17.1
			C367.2,398.2,359.5,405.9,350.1,405.9z"/>
	</g>
	<path class="st8" d="M341.6,90.1V47.5c0-4.7-3.8-8.5-8.5-8.5h-34.1l-25.6,59.7H333C337.7,98.7,341.6,94.8,341.6,90.1z"/>
	<path class="st8" d="M262.1,5.4L254.9,22c0.4,0,0.8-0.1,1.3-0.1c9.4,0,17.1,7.7,17.1,17.1h-25.6l-25.6,59.7h34.1l31.4-73.2
		C283.1,15,273.6,7.4,262.1,5.4z"/>
</g>
</svg>
