<?xml version="1.0" encoding="utf-8"?>
<!-- Generator: Adobe Illustrator 21.0.2, SVG Export Plug-In . SVG Version: 6.00 Build 0)  -->
<svg version="1.1" id="Capa_1" xmlns="http://www.w3.org/2000/svg" xmlns:xlink="http://www.w3.org/1999/xlink" x="0px" y="0px"
	 viewBox="0 0 512 512" style="enable-background:new 0 0 512 512;" xml:space="preserve">
<style type="text/css">
	.st0{fill:#8EADBE;}
	.st1{fill:#D2453C;}
	.st2{fill:#BB3D34;}
	.st3{fill:#A9362E;}
	.st4{fill:#113247;}
	.st5{fill:#B1C3D0;}
</style>
<g>
	<g>
		<path class="st0" d="M418.9,225l-31.7-23.8V66.6c0-17.5-14.2-31.7-31.7-31.7H213c-17.5,0-31.7,14.2-31.7,31.7v134.6L149.7,225
			V66.6c0-35,28.4-63.3,63.3-63.3h142.5c35,0,63.3,28.4,63.3,63.3V225z"/>
	</g>
	<path class="st1" d="M284.3,169.6c-55,0-106.7,21.4-145.6,60.3c-6.1,6.1-11.7,12.6-17,19.3l-40.5-15.7c-2.9-1.1-6.3-0.4-8.5,1.8
		l-47.5,48.1c-1.7,1.7-2.5,4.2-2.2,6.6c0.3,2.4,1.8,4.6,3.9,5.8l56.8,32.8c-3.5,15.2-5.4,30.9-5.4,46.8v71.3h411.7v-71.3
		C490.1,261.9,397.8,169.6,284.3,169.6z"/>
	<path class="st0" d="M78.4,446.7v31.7c0,17.5,14.2,31.7,31.7,31.7h348.4c17.5,0,31.7-14.2,31.7-31.7v-31.7H78.4z"/>
	<path class="st2" d="M284.3,224.3v222.3h205.8v-71.3c0-92.5-61.3-170.9-145.3-196.8C314.6,169.4,284.3,192.8,284.3,224.3z"/>
	<path class="st2" d="M284.3,217.1H152.8c-4.8,4-9.5,8.3-14,12.8c-1,1-1.9,2-2.9,3h148.4V217.1z"/>
	<path class="st3" d="M284.3,217.1h131.5c4.8,4,9.5,8.3,14,12.8c1,1,1.9,2,2.9,3H284.3V217.1z"/>
	<path class="st4" d="M284.3,169.6c10.8,0,21.3,0.8,31.7,2.4v-18.3c0-17.5-14.2-31.7-31.7-31.7c-17.5,0-31.7,14.2-31.7,31.7V172
		C263,170.4,273.6,169.6,284.3,169.6z"/>
	<g>
		<path class="st2" d="M83.8,328.6c-0.1,0.3-0.1,0.6-0.2,0.8c6.9-30,20.3-57.6,38.7-81c-0.2,0.2-0.4,0.5-0.6,0.7l-7.1-2.7
			c-21.6,19.5-39,43.6-50.8,70.7L83.8,328.6z"/>
	</g>
	<path class="st5" d="M268.4,478.3h-190v-31.7h205.8v15.8C284.3,471.3,277.2,478.3,268.4,478.3z"/>
</g>
</svg>
