<?xml version="1.0" encoding="utf-8"?>
<!-- Generator: Adobe Illustrator 21.0.2, SVG Export Plug-In . SVG Version: 6.00 Build 0)  -->
<svg version="1.1" id="Layer_1" xmlns="http://www.w3.org/2000/svg" xmlns:xlink="http://www.w3.org/1999/xlink" x="0px" y="0px"
	 viewBox="0 0 512 512" style="enable-background:new 0 0 512 512;" xml:space="preserve">
<style type="text/css">
	.st0{fill:#F05642;}
	.st1{fill:#8FC560;}
	.st2{fill:#73AE43;}
	.st3{fill:#D04A39;}
	.st4{fill:#35495C;}
	.st5{fill:#FCCF63;}
	.st6{fill:#F6B74E;}
	.st7{fill:#253647;}
</style>
<g>
	<path class="st0" d="M342.7,9.5c-23.8-13.7-59.7,4.1-80.3,39.7c-2.2,3.8-4.1,7.7-5.8,11.6c-1.7-3.9-3.6-7.7-5.8-11.6
		c-20.6-35.6-56.6-53.4-80.3-39.7c-23.8,13.7-26.4,53.7-5.8,89.4c20.6,35.6,56.6,53.4,80.3,39.7c4.7-2.7,8.5-6.5,11.5-11
		c3,4.5,6.9,8.3,11.5,11c23.8,13.7,59.7-4.1,80.3-39.7C369.1,63.2,366.5,23.2,342.7,9.5z"/>
	<g>
		<path class="st1" d="M256.6,379.1c-9,0-16.3-4.6-16.3-10.2V267.3c0-5.6,7.3-10.2,16.3-10.2c9,0,16.3,4.6,16.3,10.2V369
			C272.9,374.6,265.6,379.1,256.6,379.1z"/>
	</g>
	<path class="st2" d="M240.3,257.1v32.5h8.1c4.5,0,8.1,3.6,8.1,8.1v65.1h16.3v-73.2v-32.5H240.3z"/>
	<path class="st3" d="M348.5,98.9c20.6-35.6,18-75.6-5.8-89.4l-74.6,129.1C291.9,152.3,327.9,134.5,348.5,98.9z"/>
	<ellipse transform="matrix(0.866 -0.5 0.5 0.866 -81.5077 185.5021)" class="st0" cx="305.4" cy="244.9" rx="49.7" ry="74.5"/>
	<ellipse class="st0" cx="354.2" cy="159.5" rx="73.2" ry="48.8"/>
	<path class="st3" d="M354.2,208.3c40.4,0,73.2-21.9,73.2-48.8H281C281,186.4,313.8,208.3,354.2,208.3z"/>
	<path class="st3" d="M164.7,98.9c-20.6-35.6-18-75.6,5.8-89.4l74.6,129.1C221.3,152.3,185.3,134.5,164.7,98.9z"/>
	<ellipse transform="matrix(0.5 -0.866 0.866 0.5 -108.1586 302.3812)" class="st0" cx="207.8" cy="244.9" rx="74.5" ry="49.7"/>
	<path class="st3" d="M268.2,180.3c-4.7,2.7-8.5,6.5-11.6,11c-3-4.5-6.9-8.3-11.6-11l-74.5,129.1c23.8,13.7,59.8-4,80.3-39.7
		c2.2-3.8,4.1-7.7,5.8-11.5c1.7,3.9,3.6,7.7,5.7,11.5c20.6,35.7,56.5,53.4,80.3,39.7L268.2,180.3z"/>
	<ellipse class="st0" cx="159" cy="159.5" rx="73.2" ry="48.8"/>
	<path class="st3" d="M159,208.3c-40.4,0-73.2-21.9-73.2-48.8h146.5C232.2,186.4,199.4,208.3,159,208.3z"/>
	<path class="st4" d="M350.5,368.7c-3.1-3.7-7.7-5.9-12.5-5.9H175.2c-4.8,0-9.4,2.2-12.5,5.9c-3.1,3.7-4.4,8.6-3.5,13.4L183.7,496
		c1.4,7.7,8.2,13.3,16,13.3h113.9c7.8,0,14.6-5.6,16-13.3L354,382.1C354.9,377.4,353.6,372.5,350.5,368.7z"/>
	<path class="st5" d="M298.9,135.1c-8.7-15.1-24.9-24.4-42.3-24.4c-8.5,0-17,2.3-24.4,6.5c-23.3,13.5-31.3,43.4-17.9,66.7
		c8.7,15.1,24.9,24.4,42.3,24.4l0,0c8.5,0,17-2.3,24.4-6.5C304.3,188.3,312.3,158.4,298.9,135.1z"/>
	<path class="st6" d="M298.9,135.1c-1.1-1.9-2.3-3.6-3.6-5.3c6,21-2.7,44.3-22.5,55.7c-7.4,4.3-15.8,6.5-24.4,6.5
		c-15.3,0-29.6-7.2-38.7-19.1c1.1,3.7,2.6,7.4,4.6,11c8.7,15.1,24.9,24.4,42.3,24.4c8.5,0,17-2.3,24.4-6.5
		C304.3,188.3,312.3,158.4,298.9,135.1z"/>
	<path class="st7" d="M350.5,368.7c-3.1-3.7-7.7-5.9-12.5-5.9h-81.4v113.9c0,9-7.3,16.3-16.3,16.3h-57.2l0.6,3
		c1.4,7.7,8.2,13.3,16,13.3h56.9h57c7.8,0,14.6-5.6,16-13.3L354,382.1C354.9,377.4,353.6,372.5,350.5,368.7z"/>
</g>
</svg>
