<?xml version="1.0" encoding="utf-8"?>
<!-- Generator: Adobe Illustrator 21.0.2, SVG Export Plug-In . SVG Version: 6.00 Build 0)  -->
<svg version="1.1" id="Layer_1" xmlns="http://www.w3.org/2000/svg" xmlns:xlink="http://www.w3.org/1999/xlink" x="0px" y="0px"
	 viewBox="0 0 512 512" style="enable-background:new 0 0 512 512;" xml:space="preserve">
<style type="text/css">
	.st0{fill:#FFD440;}
	.st1{fill:#50BEE7;}
	.st2{fill:#46A6CB;}
	.st3{fill:#C6E9FA;}
	.st4{fill:#0080A9;}
</style>
<path class="st0" d="M344.3,194.6c-2.7,1.6-6,2.2-9.3,1.3c-6.6-1.7-10.5-8.4-8.9-14.9l45.1-165.7c1.7-6.6,8.4-10.5,14.9-8.9
	c6.6,1.7,10.5,8.4,8.9,14.9L349.9,187C349.1,190.3,347,193,344.3,194.6z"/>
<g>
	<path class="st1" d="M394.2,108.5h-138c-3.3,0-6.5,1.3-8.9,3.7L8,351.6c-2.4,2.4-3.7,5.6-3.7,8.9c0,3.3,1.3,6.5,3.7,8.9l138,138
		c2.4,2.4,5.6,3.7,8.9,3.7c3.3,0,6.5-1.3,8.9-3.7l239.4-239.4c2.4-2.4,3.7-5.6,3.7-8.9V121C406.8,114.1,401.2,108.5,394.2,108.5z
		 M342.9,208c-4.8,4.8-11.1,7.4-17.8,7.4c-6.7,0-13-2.6-17.8-7.4c-4.7-4.8-7.4-11.1-7.4-17.8c0-6.7,2.6-13,7.4-17.8
		c4.8-4.8,11.1-7.4,17.8-7.4c6.7,0,13,2.6,17.8,7.4c4.8,4.8,7.4,11.1,7.4,17.8C350.2,196.9,347.6,203.3,342.9,208z"/>
	<path class="st2" d="M350.2,190.2c0,6.7-2.6,13-7.4,17.8c-4.8,4.8-11.1,7.4-17.8,7.4c-6.7,0-13-2.6-17.8-7.4L77,438.3l69,69
		c2.4,2.4,5.6,3.7,8.9,3.7c3.3,0,6.5-1.3,8.9-3.7l239.4-239.4c2.4-2.4,3.7-5.6,3.7-8.9V121c0-3.5-1.4-6.6-3.7-8.9l-60.3,60.3
		C347.6,177.2,350.2,183.5,350.2,190.2z"/>
	<g>
		<path class="st3" d="M186.7,353.8c-13.9,0-25.2,11.3-25.2,25.2c0,13.9,11.3,25.2,25.2,25.2c13.9,0,25.2-11.3,25.2-25.2
			C211.9,365,200.6,353.8,186.7,353.8z M186.7,385.2c-3.5,0-6.3-2.8-6.3-6.3s2.8-6.3,6.3-6.3c3.5,0,6.3,2.8,6.3,6.3
			S190.2,385.2,186.7,385.2z"/>
		<path class="st3" d="M186.7,253.1c-13.9,0-25.2,11.3-25.2,25.2c0,13.9,11.3,25.2,25.2,25.2c13.9,0,25.2-11.3,25.2-25.2
			C211.9,264.4,200.6,253.1,186.7,253.1z M186.7,284.6c-3.5,0-6.3-2.8-6.3-6.3s2.8-6.3,6.3-6.3c3.5,0,6.3,2.8,6.3,6.3
			S190.2,284.6,186.7,284.6z"/>
	</g>
	<g>
		<path class="st3" d="M237,341.2H136.4c-6.9,0-12.6-5.6-12.6-12.6s5.6-12.6,12.6-12.6H237c6.9,0,12.6,5.6,12.6,12.6
			S244,341.2,237,341.2z"/>
	</g>
	<g>
		<path class="st4" d="M325.1,165.1c13.9,0,25.2,11.3,25.2,25.2c0,13.9-11.3,25.2-25.2,25.2c-13.9,0-25.2-11.3-25.2-25.2
			C299.9,176.3,311.2,165.1,325.1,165.1z M325.1,152.5c-10.1,0-19.6,3.9-26.7,11.1c-7.1,7.1-11.1,16.6-11,26.7
			c0,10.1,3.9,19.6,11,26.7c7.1,7.1,16.6,11.1,26.7,11.1c10.1,0,19.6-3.9,26.7-11c7.1-7.1,11.1-16.6,11.1-26.7
			c0-10.1-3.9-19.6-11.1-26.7C344.6,156.4,335.1,152.5,325.1,152.5L325.1,152.5z"/>
	</g>
</g>
<path class="st0" d="M337.4,195.6c-3.1,0-6.3-1.2-8.7-3.6c-4.8-4.8-4.8-12.6,0-17.4l160.2-139c4.8-4.8,12.6-4.8,17.4,0
	c4.8,4.8,4.8,12.6,0,17.4L346,192C343.6,194.4,340.5,195.6,337.4,195.6z"/>
</svg>
