<svg id="Capa_1" enable-background="new 0 0 511.995 511.995" height="512" viewBox="0 0 511.995 511.995" width="512" xmlns="http://www.w3.org/2000/svg"><path d="m97.509 380.66 29.738 5.222c.451.079.799.438.868.89 1.437 9.322 3.863 18.317 7.178 26.87.165.427.043.909-.308 1.203l-3.606 3.021h249.235l-3.606-3.021c-.351-.294-.473-.776-.308-1.203 3.315-8.553 5.741-17.549 7.178-26.87.07-.453.417-.811.868-.89l29.738-5.222c.514-.09.888-.536.888-1.058v-25.412c0-.521-.375-.968-.888-1.058l-29.738-5.222c-.451-.079-.799-.438-.868-.89-1.437-9.322-3.863-18.317-7.178-26.87-.165-.427-.043-.909.308-1.203l23.125-19.376c.4-.335.501-.908.24-1.36l-12.706-22.007c-.261-.452-.808-.651-1.298-.472l-28.379 10.352c-.43.157-.909.022-1.196-.335-4.74-5.881-9.984-11.338-15.667-16.306l-43.281-25.035c-7.069-2.413-14.415-4.23-21.975-5.395-.453-.07-.811-.417-.89-.868l-5.222-29.738c-.09-.514-.536-.888-1.058-.888h-25.412c-.521 0-.968.375-1.058.888l-5.222 29.738c-.079.451-.438.799-.89.868-9.322 1.437-18.317 3.863-26.87 7.178-.427.165-.909.043-1.203-.308l-19.376-23.124c-.335-.4-.909-.501-1.36-.24l-22.007 12.706c-.452.261-.651.808-.472 1.298l10.352 28.379c.157.43.022.908-.335 1.195-7.232 5.829-13.823 12.42-19.652 19.652-.287.356-.766.491-1.196.335l-28.379-10.352c-.49-.179-1.037.02-1.298.472l-12.706 22.007c-.261.452-.159 1.025.24 1.36l23.125 19.376c.351.294.473.776.308 1.203-3.315 8.554-5.741 17.549-7.178 26.87-.07.453-.417.811-.868.89l-29.738 5.222c-.514.09-.888.536-.888 1.058v25.412c.003.522.378.968.891 1.058z" fill="#e4989d"/><path d="m414.485 353.133-29.738-5.222c-.451-.079-.799-.438-.868-.89-1.437-9.322-3.863-18.317-7.178-26.87-.165-.427-.043-.909.308-1.203l23.125-19.376c.4-.335.501-.908.24-1.36l-12.706-22.007c-.261-.452-.808-.651-1.298-.472l-28.379 10.352c-.43.157-.909.022-1.196-.335-4.74-5.881-9.984-11.338-15.667-16.306l-10.378 17.975c9.246 17.803 14.471 38.029 14.471 59.476 0 26.212-7.804 50.601-21.216 70.97h56.609l-3.606-3.021c-.351-.294-.473-.776-.308-1.203 3.315-8.553 5.741-17.549 7.178-26.87.07-.453.417-.811.868-.89l29.738-5.222c.514-.09.888-.536.888-1.058v-25.412c.002-.519-.373-.966-.887-1.056z" fill="#dd636e"/><path d="m486.896 498.333-8.506-29.692c-1.309-4.571-5.543-7.763-10.298-7.763h-424.189c-4.755 0-8.989 3.192-10.298 7.762l-8.505 29.693c-.935 3.262-.299 6.688 1.743 9.397 2.043 2.71 5.161 4.264 8.555 4.264h441.2c3.394 0 6.512-1.554 8.555-4.264 2.041-2.709 2.677-6.134 1.743-9.397z" fill="#d3ced5"/><path d="m423.096 417.867h-334.198c-2.107 0-3.944 1.433-4.457 3.476l-9.92 39.53h362.951l-9.92-39.53c-.512-2.043-2.349-3.476-4.456-3.476z" fill="#b4acb7"/><path d="m349.288 137.449h28.851v85.757h-28.851z" fill="#d3ced5" transform="matrix(.866 .5 -.5 .866 138.892 -157.697)"/><path d="m413.531 130.496-31.571-18.228-11.128 19.274c-.809 1.401-.329 3.192 1.072 4.001l26.498 15.299c1.401.809 3.192.329 4.001-1.072z" fill="#b4acb7"/><path d="m415.794 131.803-36.099-20.842c-1.25-.722-1.679-2.32-.957-3.571l61.249-106.083c.722-1.25 2.32-1.679 3.571-.957l36.099 20.842c1.25.722 1.679 2.32.957 3.571l-61.248 106.084c-.723 1.25-2.321 1.678-3.572.956z" fill="#958b95"/><path d="m326.095 417.867c10.419-14.304 16.566-31.919 16.566-50.97 0-22.97-8.937-43.853-23.523-59.362l-41.49 71.862c-6.904 11.957-22.193 16.054-34.151 9.151s-16.054-22.193-9.151-34.151l41.499-71.879c-6.374-1.494-13.019-2.284-19.849-2.284-47.863 0-86.663 38.801-86.663 86.663 0 19.051 6.147 36.666 16.566 50.97z" fill="#dd636e"/><path d="m319.138 307.535-17.032 29.501c.366 3.236.555 6.527.555 9.861 0 .191-.001.381-.002.571-.18 27.946-23.141 50.399-51.088 50.399h-76.539c2.746 7.173 6.417 13.889 10.868 20h140.194c10.419-14.304 16.566-31.919 16.566-50.97.001-22.971-8.936-43.854-23.522-59.362z" fill="#da4a54"/><path d="m360.889 228.209-37.231-21.495c-1.676-.968-3.82-.393-4.788 1.283l-84.319 146.044c4.371-7.276 46.445-.951 46.445 12.856 0 4.391-1.132 8.518-3.121 12.104l84.296-146.004c.969-1.677.395-3.82-1.282-4.788z" fill="#958b95"/><g fill="#868086"><path d="m414.243 79.718-14.645-8.455-7.5 12.99 14.645 8.455c1.182.682 2.471 1.006 3.743 1.006 2.592 0 5.113-1.346 6.502-3.751 2.072-3.587.842-8.174-2.745-10.245z"/><path d="m419.128 37.436 14.645 8.455c1.182.682 2.471 1.006 3.743 1.006 2.592 0 5.113-1.346 6.502-3.751 2.071-3.587.842-8.174-2.745-10.245l-14.645-8.455z"/><path d="m424.001 70.306c2.592 0 5.113-1.346 6.502-3.751 2.071-3.587.842-8.174-2.745-10.245l-14.645-8.455-7.5 12.99 14.645 8.455c1.181.682 2.471 1.006 3.743 1.006z"/></g><circle cx="255.997" cy="366.897" fill="#d3ced5" r="25"/></svg>