<?xml version="1.0" encoding="utf-8"?>
<!-- Generator: Adobe Illustrator 21.0.2, SVG Export Plug-In . SVG Version: 6.00 Build 0)  -->
<svg version="1.1" id="Layer_1" xmlns="http://www.w3.org/2000/svg" xmlns:xlink="http://www.w3.org/1999/xlink" x="0px" y="0px"
	 viewBox="0 0 512 512" style="enable-background:new 0 0 512 512;" xml:space="preserve">
<style type="text/css">
	.st0{fill:#35495C;}
	.st1{fill:#113247;}
	.st2{fill:#576D7E;}
	.st3{fill:#F05642;}
	.st4{fill:#AEB9C1;}
	.st5{fill:#83BD5A;}
	.st6{fill:#E2E4E6;}
	.st7{fill:#6FA04E;}
	.st8{fill:#5C8F43;}
</style>
<g>
	<path class="st0" d="M484.2,464.3V48c0-26.4-19.2-48-42.7-48H71C47.5,0,28.3,21.6,28.3,48v416.3c0,26.4,19.2,48,42.7,48h370.4
		C465,512.4,484.2,490.8,484.2,464.3z"/>
	<path class="st1" d="M441.4,512.4c23.5,0,42.7-21.6,42.7-48V48c0-12.3-4.2-23.5-11-32H270.5c-7.9,0-14.2,7.2-14.2,16v448.3
		c0,8.8-6.4,16-14.2,16H39.3c7.8,9.8,19.2,16,31.7,16h185.2H441.4z"/>
	<path class="st2" d="M185,312.2c0,4.4-3.2,8-7.1,8H78.1c-3.9,0-7.1-3.6-7.1-8V200.1c0-4.4,3.2-8,7.1-8h99.7c3.9,0,7.1,3.6,7.1,8
		V312.2z"/>
	<path class="st2" d="M313.2,312.2c0,4.4-3.2,8-7.1,8h-99.7c-3.9,0-7.1-3.6-7.1-8V200.1c0-4.4,3.2-8,7.1-8h99.7c3.9,0,7.1,3.6,7.1,8
		V312.2z"/>
	<path class="st3" d="M441.4,312.2c0,4.4-3.2,8-7.1,8h-99.7c-3.9,0-7.1-3.6-7.1-8V200.1c0-4.4,3.2-8,7.1-8h99.7c3.9,0,7.1,3.6,7.1,8
		V312.2z"/>
	<path class="st4" d="M441.4,456.3c0,4.4-3.2,8-7.1,8h-99.7c-3.9,0-7.1-3.6-7.1-8V344.2c0-4.4,3.2-8,7.1-8h99.7c3.9,0,7.1,3.6,7.1,8
		V456.3z"/>
	<path class="st5" d="M441.4,168.1c0,4.4-3.2,8-7.1,8H78.1c-3.9,0-7.1-3.6-7.1-8V56c0-4.4,3.2-8,7.1-8h356.2c3.9,0,7.1,3.6,7.1,8
		V168.1z"/>
	<path class="st2" d="M185,456.3c0,4.4-3.2,8-7.1,8H78.1c-3.9,0-7.1-3.6-7.1-8V344.2c0-4.4,3.2-8,7.1-8h99.7c3.9,0,7.1,3.6,7.1,8
		V456.3z"/>
	<path class="st2" d="M313.2,456.3c0,4.4-3.2,8-7.1,8h-99.7c-3.9,0-7.1-3.6-7.1-8V344.2c0-4.4,3.2-8,7.1-8h99.7c3.9,0,7.1,3.6,7.1,8
		V456.3z"/>
	<path class="st1" d="M306.1,464.3h-99.7c-3.9,0-7.1-3.6-7.1-8v8c0,4.4,3.2,8,7.1,8h99.7c3.9,0,7.1-3.6,7.1-8v-8
		C313.2,460.7,310,464.3,306.1,464.3z"/>
	<path class="st1" d="M306.1,320.2h-99.7c-3.9,0-7.1-3.6-7.1-8v8c0,4.4,3.2,8,7.1,8h99.7c3.9,0,7.1-3.6,7.1-8v-8
		C313.2,316.6,310,320.2,306.1,320.2z"/>
	<path class="st1" d="M177.9,464.3H78.1c-3.9,0-7.1-3.6-7.1-8v8c0,4.4,3.2,8,7.1,8h99.7c3.9,0,7.1-3.6,7.1-8v-8
		C185,460.7,181.8,464.3,177.9,464.3z"/>
	<path class="st1" d="M177.9,320.2H78.1c-3.9,0-7.1-3.6-7.1-8v8c0,4.4,3.2,8,7.1,8h99.7c3.9,0,7.1-3.6,7.1-8v-8
		C185,316.6,181.8,320.2,177.9,320.2z"/>
	<g>
		<path class="st0" d="M356,392.3h57c3.9,0,7.1-3.6,7.1-8c0-4.4-3.2-8-7.1-8h-57c-3.9,0-7.1,3.6-7.1,8
			C348.8,388.7,352,392.3,356,392.3z"/>
		<path class="st0" d="M413,408.3h-57c-3.9,0-7.1,3.6-7.1,8c0,4.4,3.2,8,7.1,8h57c3.9,0,7.1-3.6,7.1-8
			C420.1,411.9,416.9,408.3,413,408.3z"/>
	</g>
	<g>
		<path class="st6" d="M385.1,296.2c-9.3,0-18.6-3.9-25.7-11.7c-14.2-15.6-14.2-41,0-56.6c14.2-15.6,37.2-15.6,51.4,0
			c2.8,3.1,2.8,8.2,0,11.3c-2.8,3.1-7.4,3.1-10.3,0c-8.5-9.4-22.3-9.4-30.8,0c-8.5,9.4-8.5,24.6,0,34c8.5,9.4,22.3,9.4,30.8,0
			c2.8-3.1,7.4-3.1,10.3,0c2.8,3.1,2.8,8.2,0,11.3C403.7,292.3,394.4,296.2,385.1,296.2z"/>
	</g>
	<path class="st7" d="M434.3,48H256.2H78.1c-3.9,0-7.1,3.6-7.1,8v16c0-4.4,3.2-8,7.1-8H242c7.9,0,14.2,7.2,14.2,16v96.1h178.1
		c3.9,0,7.1-3.6,7.1-8V72.1V56C441.4,51.6,438.2,48,434.3,48z"/>
	<g>
		<g>
			<path class="st8" d="M391.6,152.1h-14.2c-11.8,0-21.4-10.8-21.4-24v-32c0-13.2,9.6-24,21.4-24h14.2c11.8,0,21.4,10.8,21.4,24v32
				C413,141.3,403.4,152.1,391.6,152.1z M377.3,88.1c-3.9,0-7.1,3.6-7.1,8v32c0,4.4,3.2,8,7.1,8h14.2c3.9,0,7.1-3.6,7.1-8v-32
				c0-4.4-3.2-8-7.1-8H377.3z"/>
		</g>
	</g>
	<g>
		<path class="st6" d="M284.7,392.3h-57c-3.9,0-7.1,3.6-7.1,8c0,4.4,3.2,8,7.1,8h57c3.9,0,7.1-3.6,7.1-8
			C291.8,395.9,288.7,392.3,284.7,392.3z"/>
		<ellipse class="st6" cx="256.2" cy="376.3" rx="7.1" ry="8"/>
		<ellipse class="st6" cx="256.2" cy="424.3" rx="7.1" ry="8"/>
	</g>
	<path class="st6" d="M156.5,248.2h-21.4v-24c0-4.4-3.2-8-7.1-8c-3.9,0-7.1,3.6-7.1,8v24H99.5c-3.9,0-7.1,3.6-7.1,8
		c0,4.4,3.2,8,7.1,8h21.4v24c0,4.4,3.2,8,7.1,8c3.9,0,7.1-3.6,7.1-8v-24h21.4c3.9,0,7.1-3.6,7.1-8
		C163.6,251.8,160.4,248.2,156.5,248.2z"/>
	<g>
		<path class="st6" d="M284.7,264.2h-57c-3.9,0-7.1-3.6-7.1-8c0-4.4,3.2-8,7.1-8h57c3.9,0,7.1,3.6,7.1,8
			C291.8,260.6,288.7,264.2,284.7,264.2z"/>
	</g>
	<path class="st6" d="M138.1,400.3l16.3-18.4c2.8-3.1,2.8-8.2,0-11.3c-2.8-3.1-7.3-3.1-10.1,0L128,389l-16.3-18.4
		c-2.8-3.1-7.3-3.1-10.1,0c-2.8,3.1-2.8,8.2,0,11.3l16.3,18.4l-16.3,18.4c-2.8,3.1-2.8,8.2,0,11.3c1.4,1.6,3.2,2.3,5,2.3
		c1.8,0,3.6-0.8,5-2.3l16.3-18.4l16.3,18.4c1.4,1.6,3.2,2.3,5,2.3s3.6-0.8,5-2.3c2.8-3.1,2.8-8.2,0-11.3L138.1,400.3z"/>
</g>
</svg>
