<?xml version="1.0" encoding="utf-8"?>
<!-- Generator: Adobe Illustrator 21.0.2, SVG Export Plug-In . SVG Version: 6.00 Build 0)  -->
<svg version="1.1" id="Capa_1" xmlns="http://www.w3.org/2000/svg" xmlns:xlink="http://www.w3.org/1999/xlink" x="0px" y="0px"
	 viewBox="0 0 512 512" style="enable-background:new 0 0 512 512;" xml:space="preserve">
<style type="text/css">
	.st0{fill:#F7C24F;}
	.st1{fill:#FCCF63;}
	.st2{fill:#576D7E;}
	.st3{fill:#35495C;}
	.st4{fill:#F6B74E;}
</style>
<g>
	<rect x="28.5" y="16.7" class="st0" width="219.8" height="329.8"/>
	<rect x="264.1" y="16.7" class="st0" width="219.8" height="329.8"/>
	<polygon class="st1" points="405.4,173.7 389.7,165.9 374,173.7 358.3,165.9 342.6,173.7 342.6,16.7 405.4,16.7 	"/>
	<polygon class="st1" points="342.6,283.6 358.3,291.5 374,283.6 389.7,291.5 405.4,283.6 405.4,346.4 342.6,346.4 	"/>
	<path class="st2" d="M507.5,464.2v-86.4v-15.7c0-8.6-7.1-15.7-15.7-15.7H20.7C12,346.4,5,353.5,5,362.2v15.7v86.4h0v15.7
		c0,8.6,7.1,15.7,15.7,15.7h471.1c8.6,0,15.7-7.1,15.7-15.7L507.5,464.2L507.5,464.2z M67.8,464.2v-86.4h157v86.4H67.8z
		 M287.6,464.2v-86.4h157v86.4H287.6z"/>
	<path class="st3" d="M224.8,377.9v39.3h23.6c4.3,0,7.9,3.5,7.9,7.9v15.7c0,4.3-3.5,7.9-7.9,7.9h-23.6v15.7h31.4h31.4v-15.7v-31.4
		v-39.3H224.8z"/>
	<path class="st3" d="M5,377.9v39.3h23.6c4.3,0,7.9,3.5,7.9,7.9v15.7c0,4.3-3.5,7.9-7.9,7.9H5v15.7h31.4h31.4v-15.7v-31.4v-39.3H5z"
		/>
	<path class="st3" d="M444.7,377.9v39.3h23.6c4.3,0,7.9,3.5,7.9,7.9v15.7c0,4.3-3.5,7.9-7.9,7.9h-23.6v15.7h31.4h31.4v-15.7v-31.4
		v-39.3H444.7z"/>
	<polygon class="st1" points="169.9,173.7 154.2,165.9 138.5,173.7 122.8,165.9 107.1,173.7 107.1,16.7 169.9,16.7 	"/>
	<polygon class="st1" points="107,283.6 122.7,291.5 138.5,283.6 154.2,291.5 169.9,283.6 169.9,346.4 107,346.4 	"/>
	<path class="st4" d="M154.2,24.5c-8.7,0-15.7,7-15.7,15.7v282.7c0,8.7-7,15.7-15.7,15.7H28.5v7.9h109.9h7.9h102.1V24.5H154.2z"/>
	<path class="st0" d="M122.7,338.6H107v7.8h62.8v-62.8l-15.7,7.9l-15.7-7.9v39.3C138.5,331.6,131.4,338.6,122.7,338.6z"/>
	<path class="st0" d="M154.2,24.5c-8.7,0-15.7,7-15.7,15.7v133.5l0,0l15.7-7.9l15.7,7.9V24.5H154.2z"/>
	<path class="st4" d="M389.7,24.5c-8.7,0-15.7,7-15.7,15.7v282.7c0,8.7-7,15.7-15.7,15.7h-94.2v7.9H374h7.9h102.1V24.5H389.7z"/>
	<path class="st0" d="M358.3,338.6h-15.7v7.8h62.8v-62.8l-15.7,7.9l-15.7-7.9v39.3C374,331.6,367,338.6,358.3,338.6z"/>
	<path class="st0" d="M389.7,24.5c-8.7,0-15.7,7-15.7,15.7v133.5l0,0l15.7-7.9l15.7,7.9V24.5H389.7z"/>
</g>
</svg>
