<?xml version="1.0" encoding="utf-8"?>
<!-- Generator: Adobe Illustrator 21.0.2, SVG Export Plug-In . SVG Version: 6.00 Build 0)  -->
<svg version="1.1" id="Layer_1" xmlns="http://www.w3.org/2000/svg" xmlns:xlink="http://www.w3.org/1999/xlink" x="0px" y="0px"
	 viewBox="0 0 512 512" style="enable-background:new 0 0 512 512;" xml:space="preserve">
<style type="text/css">
	.st0{fill:#35495C;}
	.st1{fill:#113247;}
	.st2{fill:#B1C3D0;}
	.st3{fill:#F05642;}
	.st4{fill:#E2E4E6;}
	.st5{fill:#D2453C;}
	.st6{fill:#8EADBE;}
</style>
<g>
	<path class="st0" d="M22.3,104.4v367.1c0,8.6,7,15.6,15.6,15.6h437.4c8.6,0,15.6-7,15.6-15.6V104.4H22.3z"/>
	<path class="st1" d="M22.3,104.4V120H241c8.6,0,15.6,7,15.6,15.6v320.2c0,8.6-7,15.6-15.6,15.6H22.3c0,8.6,7,15.6,15.6,15.6h218.7
		h7.8h210.9c8.6,0,15.6-7,15.6-15.6V120v-15.6H22.3z"/>
	<path class="st2" d="M123.9,57.6V34.1c0-4.3-3.5-7.8-7.8-7.8H84.8c-4.3,0-7.8,3.5-7.8,7.8v23.4H123.9z"/>
	<path class="st2" d="M436.3,57.6V34.1c0-4.3-3.5-7.8-7.8-7.8h-31.2c-4.3,0-7.8,3.5-7.8,7.8v23.4H436.3z"/>
	<path class="st3" d="M498.8,57.6H326.9c-4.3,0-7.8,3.5-7.8,7.8v7.8h-125v-7.8c0-4.3-3.5-7.8-7.8-7.8H14.5c-4.3,0-7.8,3.5-7.8,7.8
		v31.2c0,4.3,3.5,7.8,7.8,7.8h171.8h140.6h171.8c4.3,0,7.8-3.5,7.8-7.8V65.4C506.6,61.1,503,57.6,498.8,57.6z"/>
	<path class="st4" d="M319.1,276.2C319.1,276.2,319.1,276.2,319.1,276.2h23.4v-23.4l0,0l0,0c0-8.6,7-15.6,15.6-15.6
		c8.6,0,15.6,7,15.6,15.6l0,0l0,0v23.4h23.4c0,0,0,0,0,0c8.6,0,15.6,7,15.6,15.6c0,8.6-7,15.6-15.6,15.6l0,0h-23.4v23.4l0,0
		c0,8.6-7,15.6-15.6,15.6c-8.6,0-15.6-7-15.6-15.6l0,0v-23.4h-23.4l0,0c-8.6,0-15.6-7-15.6-15.6
		C303.5,283.2,310.5,276.2,319.1,276.2z"/>
	<path class="st1" d="M194.2,307.5h-78.1c-7.3,0-13.3-5-15.1-11.7c-0.3,1.3-0.5,2.5-0.5,3.9c0,8.6,7,15.6,15.6,15.6h78.1
		c8.6,0,15.6-7,15.6-15.6c0-1.4-0.2-2.7-0.5-3.9C207.5,302.5,201.4,307.5,194.2,307.5z"/>
	<path class="st4" d="M116.1,276.2C116.1,276.2,116.1,276.2,116.1,276.2h78.1c0,0,0,0,0,0c8.6,0,15.6,7,15.6,15.6
		c0,8.6-7,15.6-15.6,15.6l0,0h-78.1l0,0c-8.6,0-15.6-7-15.6-15.6C100.4,283.2,107.4,276.2,116.1,276.2z"/>
	<path class="st5" d="M506.6,96.6V65.4h-78.1c-8.6,0-15.6,7-15.6,15.6l0,0c0,8.6-7,15.6-15.6,15.6H194.2V73.2v-7.8h-78.1
		c-8.6,0-15.6,7-15.6,15.6l0,0c0,8.6-7,15.6-15.6,15.6H6.7c0,4.3,3.5,7.8,7.8,7.8h85.9h85.9h7.8h132.8h85.9h85.9
		C503,104.4,506.6,100.9,506.6,96.6z"/>
	<path class="st6" d="M108.3,34.1c-4.3,0-7.8,3.5-7.8,7.8l0,0c0,4.3-3.5,7.8-7.8,7.8H77v7.8h23.4h23.4V34.1H108.3z"/>
	<path class="st6" d="M420.7,34.1c-4.3,0-7.8,3.5-7.8,7.8l0,0c0,4.3-3.5,7.8-7.8,7.8h-15.6v7.8h23.4h23.4V34.1H420.7z"/>
</g>
</svg>
