<?xml version="1.0" encoding="utf-8"?>
<!-- Generator: Adobe Illustrator 21.0.2, SVG Export Plug-In . SVG Version: 6.00 Build 0)  -->
<svg version="1.1" id="Layer_1" xmlns="http://www.w3.org/2000/svg" xmlns:xlink="http://www.w3.org/1999/xlink" x="0px" y="0px"
	 viewBox="0 0 512 512" style="enable-background:new 0 0 512 512;" xml:space="preserve">
<style type="text/css">
	.st0{fill:#B4E1FA;}
	.st1{fill:#707487;}
	.st2{fill:#5B5D6E;}
	.st3{fill:#FCBD30;}
	.st4{fill:#464655;}
	.st5{fill:#C7CFE2;}
	.st6{fill:#AFB9D2;}
	.st7{fill:#F96C1E;}
	.st8{fill:#959CB3;}
</style>
<polygon class="st0" points="441.4,220.7 344.3,220.7 344.3,132.4 423.7,132.4 "/>
<path class="st1" d="M17.7,370.8h476.7c4.9,0,8.8-4,8.8-8.8v-61.8H8.8v61.8C8.8,366.8,12.8,370.8,17.7,370.8z"/>
<polygon class="st2" points="344.3,300.1 344.3,158.9 309,158.9 309,300.1 8.8,300.1 8.8,335.4 503.2,335.4 503.2,300.1 "/>
<g>
	<path class="st3" d="M8.8,79.4H309c4.9,0,8.8,4,8.8,8.8v211.9c0,4.9-4,8.8-8.8,8.8H8.8C4,309,0,305,0,300.1V88.3
		C0,83.4,4,79.4,8.8,79.4z"/>
	<path class="st3" d="M490.4,225.9l-41.2-11.8l-12.8-70.3c-3.1-16.8-17.7-29-34.7-29h-57.3c-4.9,0-8.8,3.9-8.8,8.8v158.9h167.7
		v-39.6C503.2,235,497.9,228,490.4,225.9z M370.8,211.9c-9.8,0-17.7-7.9-17.7-17.7v-44.1c0-4.9,4-8.8,8.8-8.8h48.8
		c4.3,0,7.9,3.1,8.7,7.3l10.3,57.3c0.6,3.2-1.9,6.1-5.1,6.1L370.8,211.9L370.8,211.9z"/>
</g>
<circle class="st4" cx="414.9" cy="379.6" r="53"/>
<circle class="st5" cx="414.9" cy="379.6" r="35.3"/>
<circle class="st6" cx="414.9" cy="379.6" r="13.2"/>
<circle class="st4" cx="88.3" cy="379.6" r="53"/>
<circle class="st5" cx="88.3" cy="379.6" r="35.3"/>
<circle class="st6" cx="88.3" cy="379.6" r="13.2"/>
<path class="st7" d="M344.3,361.9h3.4c3.3,0,6.4-1.9,7.9-4.9l19.2-38.3c3-6,9.1-9.8,15.8-9.8h48.8c6.7,0,12.8,3.8,15.8,9.8
	l19.2,38.3c1.5,3,4.6,4.9,7.9,4.9h21c4.9,0,8.8-4,8.8-8.8v-61.8c0-9.8-7.9-17.7-17.7-17.7H335.4v79.4
	C335.4,358,339.4,361.9,344.3,361.9z"/>
<path class="st6" d="M309,388.4h-88.3c-4.9,0-8.8-4-8.8-8.8v-35.3c0-4.9,4-8.8,8.8-8.8H309c4.9,0,8.8,4,8.8,8.8v35.3
	C317.8,384.5,313.8,388.4,309,388.4z"/>
<g>
	<path class="st8" d="M247.2,353.1L247.2,353.1c-4.9,0-8.8,4-8.8,8.8v26.5H256v-26.5C256,357.1,252,353.1,247.2,353.1z"/>
	<path class="st8" d="M282.5,353.1L282.5,353.1c-4.9,0-8.8,4-8.8,8.8v26.5h17.7v-26.5C291.3,357.1,287.4,353.1,282.5,353.1z"/>
</g>
<path class="st7" d="M291.3,291.3H26.5c-4.9,0-8.8-4-8.8-8.8l0,0c0-4.9,4-8.8,8.8-8.8h264.8c4.9,0,8.8,4,8.8,8.8l0,0
	C300.1,287.4,296.2,291.3,291.3,291.3z"/>
</svg>
