<?xml version="1.0" encoding="utf-8"?>
<!-- Generator: Adobe Illustrator 21.0.2, SVG Export Plug-In . SVG Version: 6.00 Build 0)  -->
<svg version="1.1" id="Layer_1" xmlns="http://www.w3.org/2000/svg" xmlns:xlink="http://www.w3.org/1999/xlink" x="0px" y="0px"
	 viewBox="0 0 512 512" style="enable-background:new 0 0 512 512;" xml:space="preserve">
<style type="text/css">
	.st0{fill:#FFD443;}
	.st1{fill:#EFF2FA;}
	.st2{fill:#D7DEED;}
	.st3{fill:#9DA4B3;}
	.st4{fill:#464655;}
	.st5{fill:#C7DA47;}
	.st6{fill:#F04B53;}
	.st7{fill:#AE353A;}
	.st8{fill:#F9A51B;}
	.st9{fill:#A0B23A;}
</style>
<path class="st0" d="M322.2,512H189.8c-7.3,0-13.2-5.9-13.2-13.2V13.2c0-7.3,5.9-13.2,13.2-13.2h132.4c7.3,0,13.2,5.9,13.2,13.2
	v485.5C335.4,506.1,329.5,512,322.2,512z"/>
<path class="st1" d="M300.1,309h-88.3c-4.9,0-8.8-4-8.8-8.8V79.4c0-4.9,4-8.8,8.8-8.8h88.3c4.9,0,8.8,4,8.8,8.8v220.7
	C309,305,305,309,300.1,309z"/>
<g>
	<path class="st2" d="M282.5,150.1h-53c-4.9,0-8.8-4-8.8-8.8s4-8.8,8.8-8.8h53c4.9,0,8.8,4,8.8,8.8S287.4,150.1,282.5,150.1z"/>
	<path class="st2" d="M282.5,185.4h-53c-4.9,0-8.8-4-8.8-8.8s4-8.8,8.8-8.8h53c4.9,0,8.8,4,8.8,8.8S287.4,185.4,282.5,185.4z"/>
	<path class="st2" d="M282.5,220.7h-53c-4.9,0-8.8-4-8.8-8.8s4-8.8,8.8-8.8h53c4.9,0,8.8,4,8.8,8.8
		C291.3,216.7,287.4,220.7,282.5,220.7z"/>
	<path class="st2" d="M282.5,291.3h-53c-4.9,0-8.8-4-8.8-8.8s4-8.8,8.8-8.8h53c4.9,0,8.8,4,8.8,8.8S287.4,291.3,282.5,291.3z"/>
</g>
<g>
	<rect x="203" y="238.3" class="st3" width="105.9" height="17.7"/>
	<path class="st3" d="M309,105.9H203V70.6c0-4.9,4-8.8,8.8-8.8h88.3c4.9,0,8.8,4,8.8,8.8V105.9z"/>
</g>
<circle class="st4" cx="256" cy="388.4" r="22.1"/>
<path class="st1" d="M256,428.1c-21.9,0-39.7-17.8-39.7-39.7s17.8-39.7,39.7-39.7s39.7,17.8,39.7,39.7S277.9,428.1,256,428.1z
	 M256,366.3c-12.2,0-22.1,9.9-22.1,22.1s9.9,22.1,22.1,22.1s22.1-9.9,22.1-22.1S268.2,366.3,256,366.3z"/>
<path class="st5" d="M481.1,512H348.7c-7.3,0-13.2-5.9-13.2-13.2V13.2c0-7.3,5.9-13.2,13.2-13.2h132.4c7.3,0,13.2,5.9,13.2,13.2
	v485.5C494.3,506.1,488.4,512,481.1,512z"/>
<path class="st1" d="M459,309h-88.3c-4.9,0-8.8-4-8.8-8.8V79.4c0-4.9,4-8.8,8.8-8.8H459c4.9,0,8.8,4,8.8,8.8v220.7
	C467.9,305,463.9,309,459,309z"/>
<g>
	<path class="st2" d="M441.4,150.1h-53c-4.9,0-8.8-4-8.8-8.8s4-8.8,8.8-8.8h53c4.9,0,8.8,4,8.8,8.8S446.3,150.1,441.4,150.1z"/>
	<path class="st2" d="M441.4,185.4h-53c-4.9,0-8.8-4-8.8-8.8s4-8.8,8.8-8.8h53c4.9,0,8.8,4,8.8,8.8S446.3,185.4,441.4,185.4z"/>
	<path class="st2" d="M441.4,220.7h-53c-4.9,0-8.8-4-8.8-8.8s4-8.8,8.8-8.8h53c4.9,0,8.8,4,8.8,8.8S446.3,220.7,441.4,220.7z"/>
	<path class="st2" d="M441.4,291.3h-53c-4.9,0-8.8-4-8.8-8.8s4-8.8,8.8-8.8h53c4.9,0,8.8,4,8.8,8.8S446.3,291.3,441.4,291.3z"/>
</g>
<g>
	<rect x="361.9" y="238.3" class="st3" width="105.9" height="17.7"/>
	<path class="st3" d="M467.9,105.9H361.9V70.6c0-4.9,4-8.8,8.8-8.8H459c4.9,0,8.8,4,8.8,8.8L467.9,105.9L467.9,105.9z"/>
</g>
<circle class="st4" cx="414.9" cy="388.4" r="22.1"/>
<path class="st1" d="M414.9,428.1c-21.9,0-39.7-17.8-39.7-39.7s17.8-39.7,39.7-39.7s39.7,17.8,39.7,39.7S436.8,428.1,414.9,428.1z
	 M414.9,366.3c-12.2,0-22.1,9.9-22.1,22.1s9.9,22.1,22.1,22.1s22.1-9.9,22.1-22.1S427.1,366.3,414.9,366.3z"/>
<path class="st6" d="M163.3,512H30.9c-7.3,0-13.2-5.9-13.2-13.2V13.2C17.7,5.9,23.6,0,30.9,0h132.4c7.3,0,13.2,5.9,13.2,13.2v485.5
	C176.6,506.1,170.6,512,163.3,512z"/>
<path class="st1" d="M141.2,309H53c-4.9,0-8.8-4-8.8-8.8V79.4c0-4.9,4-8.8,8.8-8.8h88.3c4.9,0,8.8,4,8.8,8.8v220.7
	C150.1,305,146.1,309,141.2,309z"/>
<g>
	<path class="st2" d="M123.6,150.1h-53c-4.9,0-8.8-4-8.8-8.8s4-8.8,8.8-8.8h53c4.9,0,8.8,4,8.8,8.8S128.5,150.1,123.6,150.1z"/>
	<path class="st2" d="M123.6,185.4h-53c-4.9,0-8.8-4-8.8-8.8s4-8.8,8.8-8.8h53c4.9,0,8.8,4,8.8,8.8S128.5,185.4,123.6,185.4z"/>
	<path class="st2" d="M123.6,220.7h-53c-4.9,0-8.8-4-8.8-8.8s4-8.8,8.8-8.8h53c4.9,0,8.8,4,8.8,8.8
		C132.4,216.7,128.5,220.7,123.6,220.7z"/>
	<path class="st2" d="M123.6,291.3h-53c-4.9,0-8.8-4-8.8-8.8s4-8.8,8.8-8.8h53c4.9,0,8.8,4,8.8,8.8S128.5,291.3,123.6,291.3z"/>
</g>
<g>
	<rect x="44.1" y="238.3" class="st3" width="105.9" height="17.7"/>
	<path class="st3" d="M150.1,105.9H44.1V70.6c0-4.9,4-8.8,8.8-8.8h88.3c4.9,0,8.8,4,8.8,8.8L150.1,105.9L150.1,105.9z"/>
</g>
<circle class="st4" cx="97.1" cy="388.4" r="22.1"/>
<path class="st1" d="M97.1,428.1c-21.9,0-39.7-17.8-39.7-39.7s17.8-39.7,39.7-39.7s39.7,17.8,39.7,39.7S119,428.1,97.1,428.1z
	 M97.1,366.3c-12.2,0-22.1,9.9-22.1,22.1s9.9,22.1,22.1,22.1s22.1-9.9,22.1-22.1S109.3,366.3,97.1,366.3z"/>
<path class="st7" d="M176.6,483.3v15.4c0,7.3-5.9,13.2-13.2,13.2H30.9c-7.3,0-13.2-5.9-13.2-13.2v-15.4"/>
<path class="st8" d="M336.6,483.3v15.4c0,7.3-5.9,13.2-13.2,13.2H190.9c-7.3,0-13.2-5.9-13.2-13.2v-15.4"/>
<path class="st9" d="M494.6,483.3v15.4c0,7.3-5.9,13.2-13.2,13.2H348.9c-7.3,0-13.2-5.9-13.2-13.2v-15.4"/>
</svg>
