<?xml version="1.0" encoding="utf-8"?>
<!-- Generator: Adobe Illustrator 21.0.2, SVG Export Plug-In . SVG Version: 6.00 Build 0)  -->
<svg version="1.1" id="Layer_1" xmlns="http://www.w3.org/2000/svg" xmlns:xlink="http://www.w3.org/1999/xlink" x="0px" y="0px"
	 viewBox="0 0 512 512" style="enable-background:new 0 0 512 512;" xml:space="preserve">
<style type="text/css">
	.st0{fill:#3DA99C;}
	.st1{fill:#F05642;}
	.st2{fill:#C6C5C4;}
	.st3{fill:#535C6C;}
	.st4{fill:#7A8D9A;}
	.st5{fill:#EFBA6A;}
	.st6{fill:#89D6F7;}
	.st7{fill:#E49A61;}
	.st8{fill:#FCBC67;}
	.st9{fill:#FCDB84;}
	.st10{fill:#F27570;}
	.st11{fill:#DA5742;}
	.st12{fill:#4DBEED;}
</style>
<g>
	<g>
		<path class="st0" d="M281.8,442.1V316.9H4.9v98.8c0,14.5,11.9,26.4,26.4,26.4H281.8z"/>
		<path class="st1" d="M339.2,77.5h-57.8l0.4,239.4v125.2h199.7h1.7c14.5,0,26.3-11.8,26.3-26.3V285.2c0-14.5-11.8-26.3-26.3-26.3
			H365.9c-14.5,0-26.3-11.8-26.3-26.3L339.2,77.5z"/>
		<g>
			<path class="st2" d="M123.3,393.7c-26.8,0-48.4,21.7-48.4,48.4s21.7,48.4,48.4,48.4c26.7,0,48.4-21.7,48.4-48.4
				S150,393.7,123.3,393.7z"/>
			<path class="st2" d="M390.9,393.7c-26.7,0-48.4,21.7-48.4,48.4s21.7,48.4,48.4,48.4c26.8,0,48.4-21.7,48.4-48.4
				S417.7,393.7,390.9,393.7z"/>
		</g>
		<g>
			<path class="st3" d="M123.3,385.8C92.2,385.8,67,411,67,442.1s25.3,56.3,56.3,56.3s56.3-25.3,56.3-56.3S154.3,385.8,123.3,385.8z
				 M123.3,482.7c-22.4,0-40.6-18.2-40.6-40.6c0-22.4,18.2-40.6,40.6-40.6c22.4,0,40.6,18.2,40.6,40.6
				C163.8,464.5,145.6,482.7,123.3,482.7z"/>
			<path class="st3" d="M390.9,385.8c-31.1,0-56.3,25.3-56.3,56.3s25.3,56.3,56.3,56.3c31,0,56.3-25.3,56.3-56.3
				S422,385.8,390.9,385.8z M390.9,482.7c-22.4,0-40.6-18.2-40.6-40.6c0-22.4,18.2-40.6,40.6-40.6c22.4,0,40.6,18.2,40.6,40.6
				C431.5,464.5,413.3,482.7,390.9,482.7z"/>
		</g>
		<g>
			<circle class="st4" cx="123.3" cy="442.1" r="15.8"/>
			<path class="st4" d="M390.9,426.3c-8.7,0-15.8,7.1-15.8,15.8c0,8.7,7.1,15.8,15.8,15.8c8.7,0,15.8-7.1,15.8-15.8
				C406.7,433.4,399.6,426.3,390.9,426.3z"/>
		</g>
		<polygon class="st5" points="12.7,309 135.4,309 135,22.4 12.3,22.4 		"/>
		<polygon class="st5" points="150.8,22.4 151.2,309 273.9,309 273.5,22.4 		"/>
		<path class="st6" d="M467.3,258.9L420.6,96.5c-3.2-11.2-13.5-19-25.2-19h-56.2l0.4,155.1c0,14.5,11.8,26.3,26.3,26.3H467.3z"/>
		<path class="st7" d="M142.9,14.5H4.4l0.4,302.4h138.5h138.5l-0.4-302.4H142.9z M125.9,30.2L20.6,269L20.2,30.2H125.9z M21.8,301.1
			L127.1,62.3l0.4,238.8H21.8z M264.4,30.2L159.1,269l-0.4-238.8H264.4z M160.3,301.1L265.6,62.3l0.4,238.8H160.3z"/>
		<polygon class="st8" points="509.4,313.3 417.6,313.3 435.2,339.6 509.4,339.6 		"/>
		<polygon class="st9" points="435.2,339.6 466.8,386.9 509.4,386.9 509.4,339.6 		"/>
		<polygon class="st10" points="63.9,355.1 4.9,355.1 4.9,376.3 51.7,376.3 		"/>
		<polygon class="st11" points="4.9,376.3 4.9,397.6 39.5,397.6 51.7,376.3 		"/>
	</g>
	<path class="st12" d="M379.5,77.5h-40.3l0.4,155.1c0,14.5,11.8,26.3,26.3,26.3h13.9"/>
</g>
</svg>
