<?xml version="1.0" encoding="utf-8"?>
<!-- Generator: Adobe Illustrator 21.0.2, SVG Export Plug-In . SVG Version: 6.00 Build 0)  -->
<svg version="1.1" id="Layer_1" xmlns="http://www.w3.org/2000/svg" xmlns:xlink="http://www.w3.org/1999/xlink" x="0px" y="0px"
	 viewBox="0 0 512 512" style="enable-background:new 0 0 512 512;" xml:space="preserve">
<style type="text/css">
	.st0{fill:#E2E4E6;}
	.st1{fill:#C9D1D7;}
	.st2{fill:#DDE1E3;}
	.st3{fill:#ABE0F9;}
	.st4{fill:#89D6F7;}
</style>
<g>
	<path class="st0" d="M237.9,506.6c1.9,1.6,4.4,2.3,6.8,1.9c2.4-0.4,4.6-1.9,5.8-4.1l8.4-14.5c1.1-1.9,1.4-4.2,0.8-6.3l-42.2-75.4
		l-29.2,50.7L237.9,506.6z"/>
	<path class="st1" d="M204.7,441.1l17.5-24.6l4.5,8l-9.2,12.9c-4.4,6.1-4.1,14.4,0.6,20.2l34.7,42.9l-2.2,3.9
		c-1.2,2.1-3.4,3.6-5.8,4.1c-2.4,0.4-4.9-0.3-6.8-1.9l-48.5-46.7l12.7-22L204.7,441.1z"/>
	<path class="st0" d="M207.5,161.2c-2.3,4-7.4,5.4-11.4,3.1l-14.5-8.4c-4-2.3-5.4-7.4-3.1-11.4l25.1-43.4c2.3-4,7.4-5.4,11.4-3.1
		l14.5,8.4c4,2.3,5.4,7.4,3.1,11.4L207.5,161.2z"/>
	<path class="st1" d="M213.9,116.6L212,120c-1.4,2.4-3.9,4-6.7,4.2l-15.6,1l-7,12.1l14.5,8.4l14.5,8.4l20.9-36.2l-7.2-4.2
		C221.3,111.3,216.2,112.6,213.9,116.6z"/>
	<path class="st0" d="M381.1,261.4c-2.3,4-0.9,9.1,3.1,11.4l14.5,8.4c4,2.3,9.1,0.9,11.4-3.1l25.1-43.4c2.3-4,0.9-9.1-3.1-11.4
		l-14.5-8.4c-4-2.3-9.1-0.9-11.4,3.1L381.1,261.4z"/>
	<path class="st1" d="M417.5,231.9L417.5,231.9c-2.4,4.2-8.2,4.3-10.8,0.4l-4.6-7l-8.4,14.5l20.6,31.2l20.9-36.2l-9-5.2
		C423.1,227.8,419.3,228.8,417.5,231.9z"/>
	<path class="st0" d="M66.8,407.8c-2.3-0.8-4.2-2.7-5-5c-0.9-2.3-0.6-4.9,0.6-7.1l8.4-14.5c1.1-1.9,2.9-3.3,5.1-3.9l86.4-1.2
		L133,426.9L66.8,407.8z"/>
	<path class="st1" d="M140.1,403.8l12.5-27.4l-9.2,0.1l-6.6,14.4c-3.1,6.8-10.4,10.7-17.8,9.6l-54.5-8.6l-2.2,3.9
		c-1.2,2.1-1.5,4.7-0.6,7.1c0.9,2.3,2.7,4.2,5,5l64.7,18.6l12.7-22L140.1,403.8z"/>
	<path class="st0" d="M473.9,373.3c0,0-101.4-194.1-102.7-194.8l41.8-72.4c13.8-23.9,22.3-83.6-1.6-97.4
		C387.3-5.1,339.9,32,326.1,56l-41.8,72.4c0,0,0,0,0,0c-1.3-0.7-220.1,8.5-220.1,8.5c-3.6-0.8-7.2,0.8-9,4l-16.7,29
		c-1.2,2-1.4,4.4-0.7,6.6c0.7,2.2,2.3,4.1,4.4,5.1L221.6,237l-25.3,43.8l-73,159.8l57.9,33.4l102.2-143.6l25-43.3l137.8,127.6
		c1.9,1.3,4.3,1.8,6.6,1.3c2.3-0.5,4.2-1.9,5.4-4l16.7-29C476.7,379.9,476.3,376,473.9,373.3z"/>
	<path class="st1" d="M221.6,237L221.6,237l25.1-43.5l37.6-65.1c-0.2-0.1-3.7,0-9.7,0.1l-30.8,53.4c-3.5,6.1-10.4,9.3-17.3,8.1
		L44.7,159l-6.2,10.7c-1.2,2-1.4,4.4-0.7,6.6c0.7,2.2,2.3,4.1,4.4,5.1l172.6,53.4L221.6,237L221.6,237z"/>
	<path class="st1" d="M308.4,287.1L308.4,287.1l25.1-43.5l37.6-65.1c0.2,0.1,1.9,3.2,4.7,8.5l-30.8,53.4c-3.5,6.1-2.9,13.6,1.6,19
		l117.7,141.9l-6.2,10.7c-1.2,2-3.1,3.4-5.4,4c-2.3,0.5-4.7,0.1-6.6-1.3L313.7,292L308.4,287.1L308.4,287.1z"/>
	<path class="st2" d="M412.9,106.1c13.8-23.9,22.3-83.6-1.6-97.4l-259,448.6l28.9,16.7l102.2-143.6l25-43.3l62.7-108.7L412.9,106.1z
		"/>
	<path class="st1" d="M380.3,10.1l45.3,26.1c-1.6-12.4-6-22.7-14.3-27.5C403,3.9,391.9,5.3,380.3,10.1z"/>
	<path class="st3" d="M402.3,91l5.3-25.8c-5.7-9.9-6.6-14.2-17.2-20.3c-10.6-6.1-14.8-4.7-26.2-4.7l-19.7,17.5
		c11.4,0,22.9,2.9,33.4,9S396.7,81.2,402.3,91z"/>
	<path class="st4" d="M402.3,91l5.3-25.8c-5.7-9.9-6.6-14.2-17.2-20.3l-12.5,21.7C388.4,72.7,396.7,81.2,402.3,91z"/>
	<g>
		<path class="st1" d="M201.3,389.1l-46,79.6c-2.3,4-7.4,5.4-11.4,3.1c-4-2.3-5.4-7.4-3.1-11.4l46-79.6c2.3-4,7.4-5.4,11.4-3.1
			C202.2,380,203.6,385.1,201.3,389.1z"/>
	</g>
</g>
</svg>
