<?xml version="1.0" encoding="utf-8"?>
<!-- Generator: Adobe Illustrator 21.0.2, SVG Export Plug-In . SVG Version: 6.00 Build 0)  -->
<svg version="1.1" id="Layer_1" xmlns="http://www.w3.org/2000/svg" xmlns:xlink="http://www.w3.org/1999/xlink" x="0px" y="0px"
	 viewBox="0 0 512 512" style="enable-background:new 0 0 512 512;" xml:space="preserve">
<style type="text/css">
	.st0{fill:#009FC4;}
	.st1{fill:#83BD5A;}
	.st2{fill:#6FA04E;}
	.st3{fill:#50BEE7;}
	.st4{fill:#FCCF63;}
	.st5{fill:#F6B74E;}
	.st6{fill:#E2E4E6;}
	.st7{fill:#C9D1D7;}
	.st8{fill:#F05642;}
	.st9{fill:#C44138;}
	.st10{fill:#FFFFFF;}
</style>
<g>
	<polygon class="st0" points="255.3,382.1 289,446.7 334.5,428.5 334.5,352 	"/>
	<polygon class="st1" points="22,22.3 22,303.5 22,428.5 178.3,491 178.3,268 178.3,84.8 	"/>
	<polygon class="st1" points="334.5,352 436.3,313.4 404.5,50.2 334.5,22.3 	"/>
	<polygon class="st2" points="334.5,22.3 234.3,62.4 178.3,84.8 178.3,268 178.3,491 289,446.7 255.3,382.1 334.5,352 	"/>
	<polygon class="st3" points="436.3,313.4 334.5,352 334.5,428.5 490.8,491 490.8,292.8 	"/>
	<polygon class="st3" points="490.8,84.8 490.8,292.8 436.3,313.4 404.5,50.2 	"/>
	<g>
		<path class="st4" d="M497.6,290.2c-3.1-8.1-12.1-12.1-20.2-9.1l-28,10.6L420.4,51.6c-1-8.6-8.9-14.7-17.4-13.6
			c-8.6,1-14.7,8.8-13.6,17.4l30,247.7l-84.8,32.2v33.4l154-58.4C496.6,307.3,500.6,298.2,497.6,290.2z"/>
		<path class="st4" d="M178.3,252L18.6,288.3c-8.4,1.9-13.7,10.3-11.8,18.7c1.6,7.2,8.1,12.2,15.2,12.2c1.1,0,2.3-0.1,3.5-0.4
			L178.3,284V252z"/>
	</g>
	<path class="st5" d="M334.5,335.3l-71.8,27.2l-52.4-100.4l38-189.9c1.7-8.5-3.8-16.7-12.3-18.4c-8.5-1.7-16.7,3.8-18.4,12.3
		l-37.1,185.4l-2.3,0.5V284l7.3-1.7l88.2,169c2.8,5.3,8.2,8.4,13.9,8.4c2.4,0,4.9-0.6,7.2-1.8c7.6-4,10.6-13.4,6.6-21.1l-24.2-46.5
		l57.3-21.7V335.3z"/>
	<g>
		<path class="st6" d="M490.8,506.7c-2,0-3.9-0.4-5.8-1.1l-150.5-60.2l-150.4,60.2c-3.7,1.5-7.9,1.5-11.6,0L16.2,443
			c-5.9-2.4-9.8-8.1-9.8-14.5V22.3c0-5.2,2.6-10,6.9-12.9c4.3-2.9,9.7-3.5,14.6-1.6l150.4,60.2L328.7,7.8c3.7-1.5,7.9-1.5,11.6,0
			l156.3,62.5c5.9,2.4,9.8,8.1,9.8,14.5V491c0,5.2-2.6,10-6.9,12.9C496.9,505.8,493.9,506.7,490.8,506.7z M37.6,418l140.6,56.3
			L328.7,414c3.7-1.5,7.9-1.5,11.6,0L475.2,468V95.4L334.5,39.1L184.1,99.3c-3.7,1.5-7.9,1.5-11.6,0L37.6,45.4V418z"/>
	</g>
	<g>
		<path class="st7" d="M184.1,99.3l150.4-60.2V6.6c-2,0-3.9,0.4-5.8,1.1L178.3,67.9v32.5C180.2,100.4,182.2,100,184.1,99.3z"/>
		<path class="st7" d="M328.7,414l-150.5,60.2v32.5c2,0,3.9-0.4,5.8-1.1l150.4-60.2v-32.5C332.6,412.9,330.6,413.3,328.7,414z"/>
	</g>
	<path class="st8" d="M256.4,6.6c-51.7,0-93.8,41.4-93.8,92.2c0,72.2,86.4,200,87.3,201.3c1.5,2.2,3.9,3.4,6.5,3.4s5-1.3,6.5-3.4
		c0.9-1.3,87.3-129.1,87.3-201.3C350.2,48,308.1,6.6,256.4,6.6z"/>
	<path class="st9" d="M286.7,11.6c-14.9-5-30.3,6.7-30.3,22.4v105.5c-20.2,0-36.7-15.5-38.7-35.2c-0.1,1.3-0.4,2.6-0.4,3.9
		c0,17.5,11.6,32.4,27.5,37.3c6.7,2.1,11.6,7.9,11.6,15v119.2c0,4.6-3.9,8.2-8.5,7.8c-2.3-0.2-4.6-0.5-6.7-0.9
		c5.2,8.3,8.6,13.2,8.7,13.4c1.5,2.2,3.9,3.4,6.5,3.4s5-1.3,6.5-3.4c0.9-1.3,87.3-129.1,87.3-201.3C350.2,58.4,323.6,24,286.7,11.6z
		"/>
	<g>
		<path class="st10" d="M256.4,139.5c-21.5,0-39.1-17.5-39.1-39.1s17.5-39.1,39.1-39.1c21.5,0,39.1,17.5,39.1,39.1
			S278,139.5,256.4,139.5z"/>
	</g>
	<path class="st6" d="M295.5,100.4c0-21.5-17.5-39.1-39.1-39.1v78.1C278,139.5,295.5,121.9,295.5,100.4z"/>
</g>
</svg>
