<?xml version="1.0" encoding="utf-8"?>
<!-- Generator: Adobe Illustrator 21.0.2, SVG Export Plug-In . SVG Version: 6.00 Build 0)  -->
<svg version="1.1" id="Layer_1" xmlns="http://www.w3.org/2000/svg" xmlns:xlink="http://www.w3.org/1999/xlink" x="0px" y="0px"
	 viewBox="0 0 512 512" style="enable-background:new 0 0 512 512;" xml:space="preserve">
<style type="text/css">
	.st0{fill:#E2E4E6;}
	.st1{fill:#F05642;}
	.st2{fill:#FFFFFF;}
	.st3{fill:#F27464;}
	.st4{fill:#D2453C;}
	.st5{fill:#C9D1D7;}
</style>
<g>
	<path class="st0" d="M472,213.4L342.9,342.6L170.6,170.3L299.8,41.1c47.6-47.5,124.6-47.5,172.2,0
		C519.6,88.7,519.6,165.8,472,213.4z"/>
	<path class="st1" d="M342.9,342.6L213.7,471.8c-47.6,47.5-124.7,47.5-172.3,0c-47.6-47.6-47.6-124.8,0-172.3l129.2-129.3
		L342.9,342.6z"/>
	<path class="st2" d="M220.8,220.5l78.4-78.4c6.1-6.1,6.1-16.1,0-22.2c-6.1-6.1-16.1-6.1-22.2,0l-78.4,78.4L220.8,220.5z"/>
	<path class="st3" d="M220.8,220.5l-22.2-22.2l-78.5,78.5c-6.1,6.1-6.1,16.1,0,22.2c3.1,3.1,7.1,4.6,11.1,4.6c4,0,8-1.5,11.1-4.6
		L220.8,220.5z"/>
	<path class="st4" d="M256.7,256.5L81.1,432c-11,11-28.6,12.4-41,3c-13.5-10.2-24.9-23-33.3-37.7c3.5,28.5,16.6,54,35.9,73.3
		l-1.2,1.2c0,0,0,0,0,0c47.5,47.5,124.7,47.5,172.3,0l129.2-129.2L256.7,256.5z"/>
	<g>
		<path class="st5" d="M433,80.2c-47.2,47.2-176.3,176.3-176.3,176.3l86.1,86.2L472,213.4c18.1-18.1,29.3-40.4,33.6-63.8
			c4.3-23.2-3.7-47.1-20.9-63.2c-3.5-3.2-7.1-6.3-10.9-9.1C461.4,67.9,444,69.2,433,80.2z"/>
	</g>
</g>
</svg>
