<?xml version="1.0" encoding="utf-8"?>
<!-- Generator: Adobe Illustrator 21.0.2, SVG Export Plug-In . SVG Version: 6.00 Build 0)  -->
<svg version="1.1" id="Capa_1" xmlns="http://www.w3.org/2000/svg" xmlns:xlink="http://www.w3.org/1999/xlink" x="0px" y="0px"
	 viewBox="0 0 512 512" style="enable-background:new 0 0 512 512;" xml:space="preserve">
<style type="text/css">
	.st0{fill:#DAA90D;}
	.st1{fill:#8D8B91;}
	.st2{fill:#F3C736;}
	.st3{fill:#F68B24;}
	.st4{fill:#8B828B;}
	.st5{fill:#7D787D;}
	.st6{fill:#8A818A;}
	.st7{fill:#746F74;}
	.st8{fill:#B4ACB7;}
	.st9{fill:#C3D5EF;}
	.st10{fill:#D5DFF4;}
	.st11{fill:#B7C8EA;}
	.st12{fill:#F4DD45;}
	.st13{fill:#D3CED5;}
</style>
<g>
	<path class="st0" d="M425.9,51.7c-0.4-2.1-1.5-4-3.1-5.5l-32-28.8c-2.2-2-5.7-0.6-5.9,2.4l-3.2,43.9c8.1-4.7,11.3,34,11.3,34
		l31.5,94.7c0.7-7.2,6.7-12.8,14-12.9c5.5-0.1,10.4,3.1,13,7.9L425.9,51.7z"/>
	<path class="st0" d="M478.7,196.1l-13.4-3.3c-2.8-0.7-5-2.8-6-5.7c0,0,0-0.1,0-0.1c0,0,0-0.1,0-0.1c-3.2-9-11.7-14.9-21-14.7
		c-11.8,0.2-21.4,10-21.4,21.8c0,7.7,3.9,14.6,10.4,18.6c2.4,1.5,3.9,4.2,3.9,7.1v65.5l-14.8,7.5c-3.7,1.9-5.2,6.4-3.3,10.1
		c1.3,2.6,4,4.1,6.7,4.1c1.1,0,2.3-0.3,3.4-0.8l18.9-9.6c0,0,0,0,0,0l45.5-23.1c14-7.1,22.7-21.3,22.7-37
		C510.3,217.2,497.3,200.7,478.7,196.1L478.7,196.1z"/>
	<path class="st0" d="M404.9,70c-4.7-8.1-15-10.9-23.1-6.2l-115.6,66.8c-18.6,10.8-30.1,30.6-30.1,52.2v45.4h57.8v-22
		c0-19.4,8.9-37.7,24.2-49.7l82.6-64.6C407.3,86.6,409.1,77.3,404.9,70L404.9,70z"/>
	<path class="st0" d="M268.9,236.6c-4.1,0-7.5-3.4-7.5-7.5v-56.8c0-4.1,3.4-7.5,7.5-7.5c4.1,0,7.5,3.4,7.5,7.5v56.8
		C276.4,233.3,273,236.6,268.9,236.6z"/>
</g>
<path class="st1" d="M273.9,139.1c-2,0-4-0.8-5.5-2.4c-2.8-3-2.7-7.8,0.4-10.6L387.5,15.5c3-2.8,7.8-2.7,10.6,0.4
	c2.8,3,2.7,7.8-0.4,10.6L279,137.1C277.5,138.4,275.7,139.1,273.9,139.1L273.9,139.1z"/>
<path class="st1" d="M487.4,212.7c-2.9,0-5.7-1.7-6.9-4.6L411.6,45.7c-1.6-3.8,0.2-8.2,4-9.8c3.8-1.6,8.2,0.2,9.8,4l68.8,162.4
	c1.6,3.8-0.2,8.2-4,9.8C489.3,212.5,488.3,212.7,487.4,212.7L487.4,212.7z"/>
<g>
	<path class="st2" d="M427.6,42.7c-0.4-2.1-1.5-4-3.1-5.5l-32-28.8c-2.2-2-5.7-0.6-5.9,2.4l-3.2,43.9c8.1-4.7,11.3,34,11.3,34
		l31.5,94.7c0.7-7.2,6.7-12.8,14-12.9c5.5-0.1,10.4,3.1,13,7.9L427.6,42.7z"/>
	<path class="st2" d="M480.5,187l-13.4-3.3c-2.8-0.7-5-2.8-6-5.7c0,0,0-0.1,0-0.1c0,0,0-0.1,0-0.1c-3.2-9-11.7-14.9-21-14.7
		c-11.8,0.2-21.4,10-21.4,21.8c0,7.7,3.9,14.6,10.4,18.6c2.4,1.5,3.9,4.2,3.9,7.1v65.5l-14.8,7.5c-3.7,1.9-5.2,6.4-3.3,10.1
		c1.3,2.6,4,4.1,6.7,4.1c1.1,0,2.3-0.3,3.4-0.8l18.9-9.6c0,0,0,0,0,0l45.5-23.1c14-7.1,22.7-21.3,22.7-37
		C512,208.2,499,191.6,480.5,187L480.5,187z"/>
	<path class="st2" d="M406.6,60.9c-4.7-8.1-15-10.9-23.1-6.2l-115.6,66.8c-18.6,10.8-30.1,30.6-30.1,52.2V219h57.8v-22
		c0-19.4,8.9-37.7,24.2-49.7l82.6-64.6C409.1,77.5,410.9,68.2,406.6,60.9L406.6,60.9z"/>
	<path class="st3" d="M270.6,227.6c-4.1,0-7.5-3.4-7.5-7.5v-56.8c0-4.1,3.4-7.5,7.5-7.5s7.5,3.4,7.5,7.5v56.8
		C278.1,224.2,274.7,227.6,270.6,227.6z"/>
</g>
<path class="st1" d="M152.3,238.5H7.5c-4.1,0-7.5,3.4-7.5,7.5c0,4.1,3.4,7.5,7.5,7.5H21v14.4H7.5c-4.1,0-7.5,3.4-7.5,7.5
	s3.4,7.5,7.5,7.5H21v31.9c0,4.1,3.4,7.5,7.5,7.5h123.8c4.1,0,7.5-3.4,7.5-7.5V246C159.8,241.9,156.4,238.5,152.3,238.5L152.3,238.5z
	 M36,253.5h108.8v14.4H36V253.5z M36,307.3v-24.4h108.8v24.4H36z"/>
<path class="st4" d="M73.4,504.5c-28.7,0-52-23.3-52-52c0-28.7,23.3-52,52-52H286c28.7,0,52,23.3,52,52c0,28.7-23.3,52-52,52H73.4z"
	/>
<path class="st5" d="M287,400.5c6.9,8.8,11,19.9,11,32c0,28.7-23.3,52-52,52H33.4c-0.3,0-0.6,0-1,0c9.5,12.2,24.3,20,41,20H286
	c28.7,0,52-23.3,52-52C338,424.1,315.2,401,287,400.5L287,400.5z"/>
<path class="st2" d="M286,426.8H73.4c-14.2,0-25.7,11.5-25.7,25.7c0,14.2,11.5,25.7,25.7,25.7H286c14.2,0,25.7-11.5,25.7-25.7
	C311.7,438.3,300.2,426.8,286,426.8z"/>
<path class="st2" d="M178.5,374.2H5c-1.6,0-2.9-1.3-2.9-2.9v-63.5c0-1.6,1.3-2.9,2.9-2.9h173.6L178.5,374.2L178.5,374.2z"/>
<path class="st3" d="M138.6,304.8v16.4c0,18.2-14.7,32.9-32.9,32.9H2.1v17.1c0,1.6,1.3,2.9,2.9,2.9h173.6v-69.3H138.6z"/>
<path class="st6" d="M307.5,374.2H178.5V222c0-1.6,1.3-2.9,2.9-2.9h114.1c12.6,0,23.1,9.5,24.4,22l11,107.1
	C332.4,362,321.5,374.2,307.5,374.2z"/>
<path class="st7" d="M331,348.1l-11-107.1c-1.3-12.5-11.8-22-24.4-22h-15.9c0.1,0.7,0.2,1.3,0.3,2l11,107.1
	c1.4,14-9.5,26.1-23.5,26.1h-88.9v20h128.9C321.5,374.2,332.4,362,331,348.1z"/>
<path class="st8" d="M266.3,374.2h-115l11.7,26.3h91.7L266.3,374.2z"/>
<path class="st9" d="M237,250.6h-25.4c-0.9,0-1.6,0.6-1.6,1.5l-6.2,61.6c-0.1,1,0.7,1.8,1.6,1.8H237V250.6z"/>
<path class="st10" d="M289.3,251.9c-0.1-0.7-0.7-1.3-1.4-1.3H237v64.9h58.9L289.3,251.9z"/>
<path class="st9" d="M287.9,250.6H283l6.7,64.9h6.2l-6.6-63.7C289.2,251.2,288.6,250.6,287.9,250.6L287.9,250.6z"/>
<path class="st9" d="M237,315.5l11.6,26.1c0.3,0.6,0.9,1,1.5,1h47.3c0.7,0,1.2-0.6,1.1-1.2l-2.7-25.8L237,315.5z"/>
<path class="st11" d="M295.9,315.5h-6.2l1.3,12.5c0.5,5.3-0.7,10.3-3.2,14.5h9.6c0.7,0,1.2-0.6,1.1-1.2L295.9,315.5z"/>
<path class="st3" d="M260.3,459.8H99.1c-4.1,0-7.5-3.4-7.5-7.5s3.4-7.5,7.5-7.5h161.2c4.1,0,7.5,3.4,7.5,7.5
	C267.8,456.5,264.5,459.8,260.3,459.8L260.3,459.8z"/>
<path class="st12" d="M33.8,350c-0.8,0-1.6-0.1-2.4-0.4c-3.9-1.3-6-5.6-4.7-9.5l2.1-6.2c1.3-3.9,5.6-6,9.5-4.7
	c3.9,1.3,6,5.6,4.7,9.5l-2.1,6.2C39.8,348.1,36.9,350,33.8,350z"/>
<path class="st12" d="M60.8,350c-0.8,0-1.6-0.1-2.4-0.4c-3.9-1.3-6-5.6-4.7-9.5l2.1-6.2c1.3-3.9,5.6-6,9.5-4.7
	c3.9,1.3,6,5.6,4.7,9.5l-2.1,6.2C66.8,348.1,63.9,350,60.8,350L60.8,350z"/>
<path class="st12" d="M87.8,350c-0.8,0-1.6-0.1-2.4-0.4c-3.9-1.3-6-5.6-4.7-9.5l2.1-6.2c1.3-3.9,5.6-6,9.5-4.7
	c3.9,1.3,6,5.6,4.7,9.5l-2.1,6.2C93.8,348.1,90.9,350,87.8,350z"/>
<circle class="st13" cx="73.4" cy="452.5" r="25.7"/>
<circle class="st13" cx="286" cy="452.5" r="25.7"/>
<circle class="st0" cx="441.3" cy="188.7" r="11.9"/>
</svg>
