<?xml version="1.0" encoding="utf-8"?>
<!-- Generator: Adobe Illustrator 21.0.2, SVG Export Plug-In . SVG Version: 6.00 Build 0)  -->
<svg version="1.1" id="Layer_1" xmlns="http://www.w3.org/2000/svg" xmlns:xlink="http://www.w3.org/1999/xlink" x="0px" y="0px"
	 viewBox="0 0 512 512" style="enable-background:new 0 0 512 512;" xml:space="preserve">
<style type="text/css">
	.st0{fill:#747885;}
	.st1{fill:#5C546A;}
	.st2{fill:#787783;}
	.st3{fill:#8E92A2;}
	.st4{fill:#4B4458;}
	.st5{fill:#868491;}
	.st6{fill:#B4B6BC;}
	.st7{fill:#FFFFFF;}
</style>
<g>
	<g>
		<path class="st0" d="M263,80h-56.2v432c0.1,0,0.1,0,0.2,0c79.4,0,144-64.6,144-144V168C351,119.5,311.5,80,263,80z"/>
	</g>
	<g>
		<g>
			<path class="st1" d="M448,112h-16c-30.9,0-56-25.1-56-56c0-22.1-17.9-40-40-40h-56c-39.7,0-72,32.3-72,72c0,4.4-3.6,8-8,8
				s-8-3.6-8-8c0-48.5,39.5-88,88-88h56c30.9,0,56,25.1,56,56c0,22.1,17.9,40,40,40h16c4.4,0,8,3.6,8,8S452.4,112,448,112z"/>
		</g>
	</g>
	<g>
		<path class="st2" d="M256,80H144c-48.5,0-88,39.5-88,88v200c0,79.4,64.6,144,144,144s144-64.6,144-144V168
			C344,119.5,304.5,80,256,80z"/>
	</g>
	<g>
		<path class="st3" d="M256,80h-56.2v432c0.1,0,0.1,0,0.2,0c79.4,0,144-64.6,144-144V168C344,119.5,304.5,80,256,80z"/>
	</g>
	<g>
		<path class="st4" d="M304,94.3c-13.8-9-30.3-14.3-48-14.3H144c-17.7,0-34.2,5.3-48,14.3V232c0,30.9,25.1,56,56,56h96
			c30.9,0,56-25.1,56-56V94.3z"/>
	</g>
	<g>
		<path class="st5" d="M199.8,80v208H248c30.9,0,56-25.1,56-56V94.3c-13.8-9-30.3-14.3-48-14.3H199.8z"/>
	</g>
	<g>
		<path class="st6" d="M200,224L200,224c-8.8,0-16-7.2-16-16v-48c0-8.8,7.2-16,16-16l0,0c8.8,0,16,7.2,16,16v48
			C216,216.8,208.8,224,200,224z"/>
	</g>
	<g>
		<path class="st7" d="M200,144c-0.1,0-0.1,0-0.2,0v80c0.1,0,0.1,0,0.2,0c8.8,0,16-7.2,16-16v-48C216,151.2,208.8,144,200,144z"/>
	</g>
</g>
</svg>
