<svg id="Capa_1" enable-background="new 0 0 512 512" height="512" viewBox="0 0 512 512" width="512" xmlns="http://www.w3.org/2000/svg"><path d="m505.303 371.424-21.022-4.892c-1.965-6.829-4.694-13.408-8.144-19.639l11.411-18.332c2.14-3.437 1.635-7.837-1.228-10.7l-18.417-18.417c-2.864-2.864-7.265-3.369-10.7-1.229l-18.333 11.411c-6.232-3.451-12.812-6.179-19.639-8.144l-4.892-21.02c-.917-3.945-4.385-6.7-8.435-6.7h-26.045c-4.05 0-7.519 2.755-8.435 6.697l-4.892 21.022c-6.828 1.965-13.408 4.693-19.639 8.144l-18.332-11.411c-3.438-2.141-7.837-1.635-10.7 1.228l-18.417 18.417c-2.861 2.861-3.367 7.259-1.229 10.7l11.411 18.333c-3.451 6.232-6.179 12.812-8.144 19.639l-21.02 4.892c-3.945.917-6.7 4.385-6.7 8.435v26.046c0 4.046 2.752 7.515 6.698 8.435l21.022 4.892c1.964 6.826 4.692 13.404 8.144 19.639l-11.414 18.337c-2.136 3.437-1.63 7.834 1.231 10.695l18.417 18.417c2.863 2.864 7.263 3.369 10.7 1.229l18.333-11.411c6.231 3.45 12.81 6.178 19.639 8.144l4.891 21.02c.917 3.945 4.385 6.7 8.436 6.7h26.045c4.05 0 7.519-2.755 8.435-6.697l4.892-21.022c6.829-1.965 13.407-4.693 19.639-8.144l18.329 11.408c3.439 2.143 7.839 1.639 10.704-1.226l18.417-18.417c2.863-2.863 3.368-7.263 1.229-10.7l-11.411-18.333c3.45-6.23 6.178-12.809 8.144-19.639l21.026-4.893c3.941-.919 6.693-4.387 6.693-8.434v-26.046c-.001-4.05-2.756-7.518-6.698-8.434z" fill="#e4989d"/><path d="m352.169 157.411-27.714-4.867c-1.38-7.411-3.331-14.713-5.822-21.799l21.55-18.056c3.231-2.705 4.048-7.318 1.94-10.97l-13.726-23.774c-2.107-3.647-6.509-5.249-10.467-3.805l-26.458 9.652c-4.894-5.701-10.23-11.037-15.933-15.933l9.651-26.459c1.443-3.958-.157-8.359-3.806-10.467l-23.772-13.725c-3.647-2.106-8.261-1.292-10.969 1.938l-18.059 21.552c-7.087-2.492-14.388-4.442-21.799-5.822l-4.866-27.711c-.725-4.151-4.313-7.165-8.528-7.165h-27.451c-4.212 0-7.799 3.011-8.529 7.163l-4.867 27.713c-7.411 1.38-14.711 3.33-21.798 5.822l-18.06-21.553c-2.707-3.229-7.32-4.044-10.967-1.937l-23.774 13.726c-3.648 2.107-5.248 6.509-3.805 10.467l9.652 26.458c-5.702 4.895-11.038 10.231-15.933 15.933l-26.459-9.651c-3.958-1.443-8.363.157-10.467 3.806l-13.727 23.775c-2.106 3.65-1.29 8.263 1.939 10.966l21.552 18.059c-2.492 7.087-4.442 14.388-5.822 21.798l-27.717 4.867c-4.147.73-7.158 4.317-7.158 8.528v27.451c0 4.212 3.011 7.799 7.163 8.529l27.713 4.867c1.38 7.412 3.331 14.712 5.822 21.798l-21.553 18.06c-3.229 2.707-4.044 7.319-1.937 10.967l13.723 23.769c2.107 3.655 6.511 5.256 10.47 3.81l26.458-9.651c4.896 5.703 10.231 11.039 15.933 15.933l-9.652 26.46c-1.442 3.958.159 8.358 3.807 10.465l23.775 13.726c3.649 2.107 8.263 1.291 10.966-1.938l18.059-21.553c7.086 2.492 14.386 4.441 21.798 5.822l4.867 27.716c.73 4.149 4.317 7.16 8.529 7.16h27.451c4.216 0 7.803-3.014 8.529-7.162l4.867-27.714c7.411-1.38 14.712-3.33 21.799-5.822l18.06 21.554c2.706 3.229 7.318 4.043 10.967 1.937l23.774-13.726c3.647-2.106 5.248-6.507 3.805-10.467l-9.651-26.458c5.703-4.895 11.039-10.231 15.933-15.933l26.46 9.652c3.959 1.443 8.359-.159 10.465-3.807l13.725-23.772c2.107-3.648 1.293-8.261-1.937-10.969l-21.553-18.058c2.492-7.086 4.441-14.386 5.822-21.799l27.711-4.866c4.152-.728 7.165-4.315 7.165-8.53v-27.451c-.001-4.211-3.012-7.798-7.164-8.529z" fill="#8eaadf"/><path d="m352.169 157.411-27.714-4.867c-1.38-7.411-3.331-14.713-5.822-21.799l21.55-18.056c3.231-2.705 4.048-7.318 1.94-10.97l-13.726-23.774c-2.107-3.647-6.509-5.249-10.467-3.805l-26.458 9.652c-4.894-5.701-10.23-11.037-15.933-15.933l9.651-26.459c1.443-3.958-.157-8.359-3.806-10.467l-23.772-13.725c-3.647-2.106-8.261-1.292-10.969 1.938l-18.059 21.552c-7.087-2.492-14.388-4.442-21.799-5.822l-4.866-27.711c-.725-4.151-4.313-7.165-8.528-7.165h-27.451c-4.212 0-7.799 3.011-8.529 7.163l-2.665 15.174c69.2 7.513 123.064 66.131 123.064 137.329 0 76.295-61.849 138.144-138.144 138.144-16.589 0-32.494-2.925-47.23-8.285-.092 1.418-2.705 2.878-13.488-2.4 1.583 1.485 3.198 2.934 4.844 4.347l-9.652 26.46c-1.442 3.958.159 8.358 3.807 10.465l23.775 13.726c3.649 2.107 8.263 1.291 10.966-1.938l18.059-21.553c7.086 2.492 14.386 4.441 21.798 5.822l4.867 27.716c.73 4.149 4.317 7.16 8.529 7.16h27.451c4.216 0 7.803-3.014 8.529-7.162l4.867-27.714c7.411-1.38 14.712-3.33 21.799-5.822l18.06 21.554c2.706 3.229 7.318 4.043 10.967 1.937l23.774-13.726c3.647-2.106 5.248-6.507 3.805-10.467l-9.651-26.458c5.703-4.895 11.039-10.231 15.933-15.933l26.46 9.652c3.959 1.443 8.359-.159 10.465-3.807l13.725-23.772c2.107-3.648 1.293-8.261-1.937-10.969l-21.553-18.058c2.492-7.086 4.441-14.386 5.822-21.799l27.711-4.866c4.152-.728 7.165-4.315 7.165-8.53v-27.45c-.001-4.211-3.012-7.798-7.164-8.529z" fill="#698ed5"/><circle cx="179.666" cy="179.666" fill="#698ed5" r="105.13"/><path d="m277.81 159.666c0 53.091-29.949 99.186-73.874 122.314 46.361-10.956 80.86-52.606 80.86-102.314 0-14.936-3.115-29.144-8.73-42.01 1.148 7.167 1.744 14.519 1.744 22.01z" fill="#4073c8"/><circle cx="179.666" cy="179.666" fill="#8eaadf" r="50.975"/><path d="m198.103 189.345v-19.359c0-.597-.319-1.149-.836-1.448l-16.765-9.68c-.517-.299-1.155-.299-1.672 0l-16.765 9.68c-.517.299-.836.851-.836 1.448v19.359c0 .597.319 1.149.836 1.448l16.765 9.679c.517.299 1.155.299 1.672 0l16.765-9.679c.518-.298.836-.85.836-1.448z" fill="#efecef"/><circle cx="392.881" cy="392.881" fill="#dd636e" r="61.468"/><circle cx="392.881" cy="392.881" fill="#e4989d" r="26.194"/><path d="m266.514 432.661c0-4.142-3.358-7.5-7.5-7.5 0 0-9.063.006-12.637.018-.827.003-1.522-.587-1.69-1.396-.332-1.596-.751-3.161-1.252-4.688-.258-.785.05-1.642.766-2.052 3.099-1.776 10.949-6.302 10.949-6.302 3.587-2.071 4.816-6.658 2.745-10.245-2.071-3.588-6.658-4.817-10.245-2.745 0 0-7.852 4.541-10.941 6.339-.714.415-1.61.254-2.16-.362-1.079-1.206-2.225-2.352-3.431-3.431-.616-.551-.777-1.447-.362-2.16 1.798-3.089 6.339-10.941 6.339-10.941 2.071-3.587.842-8.174-2.745-10.245-3.587-2.072-8.174-.842-10.245 2.745 0 0-4.525 7.85-6.301 10.95-.411.717-1.267 1.024-2.052.767-1.527-.502-3.092-.921-4.689-1.253-.81-.168-1.399-.863-1.396-1.69.012-3.574.018-12.637.018-12.637 0-4.142-3.358-7.5-7.5-7.5s-7.5 3.358-7.5 7.5c0 0 .006 9.063.018 12.637.003.827-.587 1.522-1.396 1.69-1.597.332-3.161.751-4.688 1.253-.785.258-1.642-.05-2.052-.767-1.776-3.1-6.301-10.95-6.301-10.95-2.071-3.588-6.658-4.817-10.245-2.745-3.587 2.071-4.816 6.658-2.745 10.245 0 0 4.541 7.852 6.339 10.941.415.714.254 1.61-.362 2.16-1.206 1.079-2.352 2.225-3.431 3.431-.551.616-1.446.777-2.16.362-3.089-1.798-10.942-6.339-10.942-6.339-3.587-2.072-8.174-.842-10.245 2.745s-.842 8.174 2.745 10.245c0 0 7.85 4.525 10.95 6.302.717.411 1.024 1.267.767 2.052-.502 1.527-.921 3.091-1.252 4.688-.168.81-.863 1.399-1.69 1.396-3.574-.012-12.637-.018-12.637-.018-4.142 0-7.5 3.358-7.5 7.5s3.358 7.5 7.5 7.5c0 0 9.063-.006 12.637-.018.827-.003 1.522.587 1.69 1.396.332 1.597.751 3.161 1.253 4.688.258.785-.05 1.642-.767 2.052-3.1 1.776-10.95 6.301-10.95 6.301-3.587 2.071-4.816 6.658-2.745 10.245 1.389 2.406 3.91 3.751 6.502 3.751 1.272 0 2.562-.324 3.743-1.006 0 0 7.853-4.541 10.942-6.338.714-.415 1.61-.254 2.16.362 1.079 1.206 2.225 2.352 3.431 3.431.616.551.777 1.447.362 2.16-1.798 3.089-6.339 10.942-6.339 10.942-2.071 3.587-.842 8.174 2.745 10.245 1.181.682 2.471 1.006 3.743 1.006 2.592 0 5.113-1.345 6.502-3.751 0 0 4.525-7.85 6.301-10.95.411-.717 1.267-1.025 2.052-.767 1.527.502 3.091.921 4.688 1.253.81.168 1.399.863 1.396 1.69-.012 3.574-.018 12.637-.018 12.637 0 4.142 3.358 7.5 7.5 7.5s7.5-3.358 7.5-7.5c0 0-.006-9.063-.018-12.637-.003-.827.587-1.522 1.396-1.69 1.597-.332 3.161-.751 4.688-1.253.785-.258 1.642.05 2.052.767 1.776 3.1 6.301 10.95 6.301 10.95 1.389 2.406 3.91 3.751 6.502 3.751 1.272 0 2.562-.324 3.743-1.006 3.587-2.071 4.816-6.658 2.745-10.245 0 0-4.541-7.853-6.339-10.942-.415-.714-.254-1.61.362-2.16 1.206-1.079 2.352-2.225 3.431-3.431.551-.616 1.447-.777 2.16-.362 3.089 1.798 10.941 6.339 10.941 6.339 1.181.682 2.471 1.006 3.743 1.006 2.592 0 5.113-1.345 6.502-3.751 2.071-3.587.842-8.174-2.745-10.245 0 0-7.85-4.525-10.949-6.301-.717-.411-1.024-1.267-.767-2.052.502-1.527.921-3.091 1.253-4.688.168-.81.863-1.399 1.69-1.396 3.574.012 12.637.018 12.637.018 4.142-.001 7.5-3.359 7.5-7.501z" fill="#93c8a5"/><circle cx="202.185" cy="432.661" fill="#80bc93" r="15.176"/></svg>