<?xml version="1.0" encoding="utf-8"?>
<!-- Generator: Adobe Illustrator 21.0.2, SVG Export Plug-In . SVG Version: 6.00 Build 0)  -->
<svg version="1.1" id="Layer_1" xmlns="http://www.w3.org/2000/svg" xmlns:xlink="http://www.w3.org/1999/xlink" x="0px" y="0px"
	 viewBox="0 0 512 512" style="enable-background:new 0 0 512 512;" xml:space="preserve">
<style type="text/css">
	.st0{fill:#E2E4E6;}
	.st1{fill:#AEB9C1;}
	.st2{fill:#576D7E;}
	.st3{fill:#C9D1D7;}
	.st4{fill:#50BEE7;}
</style>
<g>
	<g>
		<path class="st0" d="M89.2,507.2c-18.4,0-33.5-15.1-33.5-33.5V71.9c0-18.4,15.1-33.5,33.5-33.5H424c18.4,0,33.5,15.1,33.5,33.5
			v401.8c0,18.4-15.1,33.5-33.5,33.5H89.2z"/>
	</g>
	<g>
		<circle class="st1" cx="298.5" cy="71.9" r="25.1"/>
	</g>
	<g>
		<circle class="st1" cx="214.8" cy="71.9" r="25.1"/>
	</g>
	<g>
		<circle class="st1" cx="131.1" cy="71.9" r="25.1"/>
	</g>
	<g>
		<circle class="st1" cx="382.2" cy="71.9" r="25.1"/>
	</g>
	<g>
		<path class="st2" d="M131.1,88.7c-9.2,0-16.7-7.5-16.7-16.7V21.7c0-9.2,7.5-16.7,16.7-16.7s16.7,7.5,16.7,16.7v50.2
			C147.8,81.2,140.3,88.7,131.1,88.7z"/>
	</g>
	<g>
		<path class="st2" d="M214.8,88.7c-9.2,0-16.7-7.5-16.7-16.7V21.7c0-9.2,7.5-16.7,16.7-16.7s16.7,7.5,16.7,16.7v50.2
			C231.5,81.2,224,88.7,214.8,88.7z"/>
	</g>
	<g>
		<path class="st2" d="M298.5,88.7c-9.2,0-16.7-7.5-16.7-16.7V21.7c0-9.2,7.5-16.7,16.7-16.7c9.2,0,16.7,7.5,16.7,16.7v50.2
			C315.2,81.2,307.7,88.7,298.5,88.7z"/>
	</g>
	<g>
		<path class="st2" d="M382.2,88.7c-9.2,0-16.7-7.5-16.7-16.7V21.7c0-9.2,7.5-16.7,16.7-16.7c9.2,0,16.7,7.5,16.7,16.7v50.2
			C398.9,81.2,391.4,88.7,382.2,88.7z"/>
	</g>
	<g>
		<rect x="55.7" y="164" class="st3" width="401.8" height="16.7"/>
	</g>
	<g>
		<rect x="55.7" y="230.9" class="st3" width="401.8" height="16.7"/>
	</g>
	<g>
		<rect x="55.7" y="297.9" class="st3" width="401.8" height="16.7"/>
	</g>
	<g>
		<rect x="55.7" y="364.9" class="st3" width="401.8" height="16.7"/>
	</g>
	<g>
		<rect x="55.7" y="431.8" class="st3" width="401.8" height="16.7"/>
	</g>
	<g>
		<rect x="156.2" y="38.4" class="st4" width="16.7" height="468.7"/>
	</g>
</g>
</svg>
