<?xml version="1.0" encoding="utf-8"?>
<!-- Generator: Adobe Illustrator 21.0.2, SVG Export Plug-In . SVG Version: 6.00 Build 0)  -->
<svg version="1.1" id="Layer_1" xmlns="http://www.w3.org/2000/svg" xmlns:xlink="http://www.w3.org/1999/xlink" x="0px" y="0px"
	 viewBox="0 0 512 512" style="enable-background:new 0 0 512 512;" xml:space="preserve">
<style type="text/css">
	.st0{fill:#50BEE7;}
	.st1{fill:#FFFFFF;}
	.st2{fill:#231F20;}
	.st3{fill:#009FC4;}
	.st4{fill:#0091B3;}
</style>
<g>
	<path class="st0" d="M262.9,86.8C209.9,33.5,138.7,6,51.2,5.1C42.8,5,35.5,11.1,34.1,19.4c-15.8,95.5,3.8,176.7,58.1,241.5
		c10.6,12.7,20.8,24,30.8,34.2c4.8,4.9,7.4,11.6,7.2,18.5c-1.1,39.2,5,66.2,18.2,82c3.9,4.7,10,6.9,16,6c6-0.9,11.1-4.9,13.4-10.5
		c4.1-9.9,14.7-20.8,30.1-31.3c19.5,9.8,39.4,16.4,60.1,20.1c8.9,1.6,15,9.7,14.2,18.8c-3,33.9,2,65,7.7,94.4
		c1.3,6.7,6.4,12,13.1,13.6c6.7,1.6,13.7-0.9,17.8-6.4c13.3-17.3,51-65,66.2-77.7c15.2-12.8,68.7-41.6,88.1-51.7
		c1.1-0.6,2.2-1.3,3.2-2.1c4.1-3.5,6.5-8.8,6.2-14.3c-0.4-6.8-4.7-12.8-11.1-15.3c-28-10.8-57.8-21.1-91.7-24c-9-0.8-16-8.2-16-17.2
		c-0.1-29.2-6-58-18.1-87.2c12.6-17.2,30-34.1,46.5-36.3c6.3-0.8,11.6-5,13.9-11c2.3-5.9,1.2-12.6-2.9-17.5
		c-24.3-28.9-80-44-127.6-51.7C271.9,93.5,266.8,90.8,262.9,86.8z"/>
	<ellipse transform="matrix(0.766 -0.6428 0.6428 0.766 -24.116 87.5845)" class="st1" cx="108.3" cy="76.9" rx="26.1" ry="26.1"/>
	<ellipse transform="matrix(0.766 -0.6428 0.6428 0.766 -24.116 87.5845)" class="st2" cx="108.3" cy="76.9" rx="17.4" ry="17.4"/>
	<path class="st3" d="M49.9,191.5c10.3,24.9,24.4,48,42.3,69.4c10.6,12.7,20.8,24,30.8,34.2c4.8,4.9,7.4,11.6,7.2,18.5
		c-1.1,39.2,5,66.2,18.2,82c3.9,4.7,10,6.9,16,6c6-0.9,11.1-4.9,13.4-10.5c4.1-9.9,14.7-20.8,30.1-31.3
		c19.5,9.8,39.4,16.4,60.1,20.1c8.9,1.6,15,9.7,14.2,18.8c-3,33.9,2,65,7.7,94.4c1.3,6.7,6.4,12,13.1,13.6
		c6.7,1.6,13.7-0.9,17.8-6.4c13.3-17.3,51-65,66.2-77.7L168.2,161.9c-5.8-6.9-15.9-8.2-23.3-3C116.1,179.1,83.1,189.7,49.9,191.5z"
		/>
	<g>
		<path class="st4" d="M194.8,369.8c2.8-2.4,9.8-7.6,13.1-10c-29.1-16.6-58.8-36.8-82.9-62.2C128.4,302.2,171.4,356.5,194.8,369.8z"
			/>
	</g>
	<g>
		<path class="st3" d="M361.6,194.2c-16.7-34.1-91.9-102.1-95.1-104.4c2.3,2.5,4.6,5,6.8,7.7c29.1,34.7,55.4,73.9,74.1,113.3
			C351.1,206.1,357.3,198.5,361.6,194.2z"/>
	</g>
</g>
</svg>
