<svg id="Capa_1" enable-background="new 0 0 512 512" height="512" viewBox="0 0 512 512" width="512" xmlns="http://www.w3.org/2000/svg"><path d="m437.02 74.98c-48.352-48.351-112.64-74.98-181.02-74.98s-132.668 26.629-181.02 74.98-74.98 112.64-74.98 181.02 26.629 132.668 74.98 181.02 112.64 74.98 181.02 74.98 132.668-26.629 181.02-74.98 74.98-112.64 74.98-181.02-26.629-132.668-74.98-181.02z" fill="#d3ced5"/><path d="m437.02 74.98c-25.256-25.256-54.861-44.585-87.125-57.288 16.913 10.417 32.726 22.889 47.125 37.288 48.351 48.352 74.98 112.64 74.98 181.02s-26.629 132.668-74.98 181.02-112.64 74.98-181.02 74.98c-32.662 0-64.391-6.076-93.895-17.692 39.88 24.562 85.879 37.692 133.895 37.692 68.38 0 132.668-26.629 181.02-74.98s74.98-112.64 74.98-181.02-26.629-132.668-74.98-181.02z" fill="#c3bec6"/><circle cx="256" cy="256" fill="#f9ef63" r="171.813"/><path d="m312.097 93.553c45.683 30.879 75.717 83.156 75.717 142.447 0 94.89-76.924 171.813-171.813 171.813-19.643 0-38.516-3.296-56.097-9.366 27.428 18.54 60.498 29.366 96.097 29.366 94.89 0 171.813-76.924 171.813-171.813-.001-75.247-48.373-139.196-115.717-162.447z" fill="#f4dd45"/><g fill="#958b95"><path d="m256 291.132c19.372 0 35.132-15.76 35.132-35.132s-15.76-35.132-35.132-35.132-35.132 15.76-35.132 35.132 15.76 35.132 35.132 35.132z"/><path d="m205.568 252.215c1.142-15.377 9.146-29.223 21.962-37.988 3.235-2.213 4.221-6.545 2.261-9.94l-41.741-72.298c-2.069-3.586-6.653-4.813-10.239-2.749-21.419 12.34-39.308 30.235-51.729 51.752-12.423 21.517-18.978 45.956-18.954 70.675.004 4.14 3.36 7.493 7.5 7.493h83.462c3.926-.001 7.187-3.029 7.478-6.945z"/><path d="m385.919 180.991c-12.422-21.517-30.311-39.412-51.729-51.752-3.587-2.066-8.17-.837-10.239 2.749l-41.741 72.298c-1.96 3.396-.975 7.728 2.261 9.94 12.815 8.766 20.82 22.611 21.962 37.988.291 3.916 3.553 6.944 7.479 6.944h83.462c4.14 0 7.496-3.354 7.5-7.493.022-24.718-6.532-49.157-18.955-70.674z"/><path d="m287.688 304.567c-1.965-3.403-6.221-4.714-9.76-3.002-6.872 3.322-14.25 5.007-21.929 5.007s-15.057-1.685-21.929-5.007c-3.536-1.711-7.795-.401-9.76 3.002l-41.734 72.285c-2.069 3.585-.844 8.169 2.739 10.241 21.396 12.38 45.838 18.924 70.684 18.924s49.287-6.544 70.684-18.924c3.583-2.072 4.809-6.656 2.739-10.241z"/></g><path d="m312.097 93.553c45.683 30.879 75.717 83.156 75.717 142.447 0 94.89-76.924 171.813-171.813 171.813-19.643 0-38.516-3.296-56.097-9.366 27.428 18.54 60.498 29.366 96.097 29.366 94.89 0 171.813-76.924 171.813-171.813-.001-75.247-48.373-139.196-115.717-162.447z" fill="#f4dd45"/><path d="m220.868 256c0-19.372 15.76-35.132 35.132-35.132s35.132 15.76 35.132 35.132-15.76 35.132-35.132 35.132-35.132-15.76-35.132-35.132zm-15.3-3.785c1.142-15.377 9.146-29.223 21.962-37.988 3.235-2.213 4.221-6.545 2.261-9.94l-41.741-72.298c-2.069-3.586-6.653-4.813-10.239-2.749-21.419 12.34-39.308 30.235-51.729 51.752-12.423 21.517-18.978 45.956-18.954 70.675.004 4.14 3.36 7.493 7.5 7.493h83.462c3.926-.001 7.187-3.029 7.478-6.945zm180.351-71.224c-12.422-21.517-30.311-39.412-51.729-51.752-3.587-2.066-8.17-.837-10.239 2.749l-41.741 72.298c-1.96 3.396-.975 7.728 2.261 9.94 12.815 8.766 20.82 22.611 21.962 37.988.291 3.916 3.553 6.944 7.479 6.944h83.462c4.14 0 7.496-3.354 7.5-7.493.022-24.718-6.532-49.157-18.955-70.674zm-98.231 123.576c-1.965-3.403-6.221-4.714-9.76-3.002-6.872 3.322-14.25 5.007-21.929 5.007s-15.057-1.685-21.929-5.007c-3.536-1.711-7.795-.401-9.76 3.002l-41.734 72.285c-2.069 3.585-.844 8.169 2.739 10.241 21.396 12.38 45.838 18.924 70.684 18.924s49.287-6.544 70.684-18.924c3.583-2.072 4.809-6.656 2.739-10.241z" fill="#958b95"/><path d="m326.684 387.094c3.583-2.072 4.809-6.656 2.739-10.241l-4.57-7.915c-22.76 18.659-50.399 31.588-80.712 36.582 3.936.331 7.892.498 11.859.498 24.846 0 49.287-6.544 70.684-18.924z" fill="#868086"/><path d="m397.373 259.159c4.14 0 7.496-3.354 7.5-7.493.023-24.719-6.531-49.158-18.954-70.675-4.898-8.484-10.646-16.404-17.125-23.644 12.156 23.567 19.02 50.308 19.02 78.652 0 7.854-.527 15.585-1.548 23.159h11.107z" fill="#868086"/><path d="m269.116 45.724c0 7.244-5.872 13.116-13.116 13.116s-13.116-5.872-13.116-13.116 5.872-13.116 13.116-13.116 13.116 5.872 13.116 13.116zm-206.579 98.58c-3.622 6.273-1.472 14.295 4.801 17.917s14.295 1.472 17.917-4.801 1.472-14.295-4.801-17.917-14.295-1.472-17.917 4.801zm0 223.392c3.622 6.273 11.643 8.423 17.917 4.801 6.273-3.622 8.423-11.643 4.801-17.917-3.622-6.273-11.643-8.423-17.917-4.801s-8.423 11.644-4.801 17.917zm193.463 111.696c7.244 0 13.116-5.872 13.116-13.116s-5.872-13.116-13.116-13.116-13.116 5.872-13.116 13.116 5.872 13.116 13.116 13.116zm193.463-111.696c3.622-6.273 1.472-14.295-4.801-17.917s-14.295-1.473-17.917 4.801c-3.622 6.273-1.473 14.295 4.801 17.917s14.295 1.472 17.917-4.801zm0-223.392c-3.622-6.273-11.643-8.423-17.917-4.801-6.273 3.622-8.423 11.643-4.801 17.917 3.622 6.273 11.643 8.423 17.917 4.801s8.423-11.644 4.801-17.917z" fill="#958b95"/><path d="m449.463 367.696c3.5-6.062 1.61-13.756-4.181-17.536-3.89 7.795-8.189 15.4-12.885 22.788 6.131 2.97 13.606.741 17.066-5.252z" fill="#868086"/></svg>