<?xml version="1.0" encoding="utf-8"?>
<!-- Generator: Adobe Illustrator 21.0.2, SVG Export Plug-In . SVG Version: 6.00 Build 0)  -->
<svg version="1.1" id="Layer_1" xmlns="http://www.w3.org/2000/svg" xmlns:xlink="http://www.w3.org/1999/xlink" x="0px" y="0px"
	 viewBox="0 0 512 512" style="enable-background:new 0 0 512 512;" xml:space="preserve">
<style type="text/css">
	.st0{fill:#FFB14D;}
	.st1{fill:#FF9E24;}
	.st2{fill:#B9BDC1;}
	.st3{fill:#DB811F;}
</style>
<g>
	<path class="st0" d="M405.1,134.9H108.2c-8.6,0-15.6,7-15.6,15.6v78.1c0,48.9,21.5,131.7,55.4,161.8c4.3,3.8,8.9,8.5,12,13.7
		c2,3.4,2.9,7.3,2.9,11.3v24.2h187.5v-24.2c0-3.9,0.8-7.9,2.9-11.3c3.1-5.2,7.7-9.8,12-13.7c33.9-30,55.4-112.9,55.4-161.8v-78.1
		C420.8,141.9,413.8,134.9,405.1,134.9z"/>
	<path class="st1" d="M420.8,174v-23.4H272.3c-8.6,0-15.6,7-15.6,15.6v226.6c0,8.6-7,15.6-15.6,15.6h-79.2c0.7,2.3,1.1,4.7,1.1,7
		v8.6h93.8v15.6h93.8l0-24.2c0-3.9,0.8-7.9,2.9-11.3c3.1-5.2,7.7-9.8,12-13.7c16.5-14.6,29.9-71.4,39.5-91.5h13.8
		c33.3,0,62.4-25.1,64.5-58.3C485.5,204.3,456.7,174,420.8,174z M420.8,267.8H416c3.1-12.5,4.8-25.6,4.8-39.1v-23.4
		c21.6,0,31.3,9.7,31.3,31.3S442.3,267.8,420.8,267.8z"/>
	<g>
		<path class="st2" d="M233.2,119.3c-4.3,0-7.8-3.5-7.8-7.8V33.4c0-4.3,3.5-7.8,7.8-7.8c4.3,0,7.8,3.5,7.8,7.8v78.1
			C241.1,115.8,237.6,119.3,233.2,119.3z"/>
	</g>
	<g>
		<path class="st2" d="M280.1,119.3c-4.3,0-7.8-3.5-7.8-7.8V33.4c0-4.3,3.5-7.8,7.8-7.8c4.3,0,7.8,3.5,7.8,7.8v78.1
			C287.9,115.8,284.4,119.3,280.1,119.3z"/>
	</g>
	<g>
		<path class="st2" d="M327,119.3c-4.3,0-7.8-3.5-7.8-7.8V64.6c0-4.3,3.5-7.8,7.8-7.8c4.3,0,7.8,3.5,7.8,7.8v46.9
			C334.8,115.8,331.3,119.3,327,119.3z"/>
	</g>
	<g>
		<path class="st2" d="M186.4,119.3c-4.3,0-7.8-3.5-7.8-7.8V64.6c0-4.3,3.5-7.8,7.8-7.8c4.3,0,7.8,3.5,7.8,7.8v46.9
			C194.2,115.8,190.7,119.3,186.4,119.3z"/>
	</g>
	<path class="st0" d="M491.1,424H23.1c-7.8,0-15,5.3-16.3,13c-1.6,9.8,5.9,18.3,15.4,18.3h103.4l11.3,22.6c2.6,5.3,8.1,8.6,14,8.6
		h211.4c5.9,0,11.3-3.3,14-8.6l11.3-22.6h102.6c7.8,0,15-5.3,16.3-13C508.1,432.5,500.6,424,491.1,424z"/>
	<path class="st3" d="M491.1,424H256.7v31.3h-131l11.3,22.6c2.6,5.3,8.1,8.6,14,8.6h211.4c5.9,0,11.3-3.3,14-8.6l11.3-22.6h102.6
		c7.8,0,15-5.3,16.3-13C508.1,432.5,500.6,424,491.1,424z"/>
</g>
</svg>
