<?xml version="1.0" encoding="utf-8"?>
<!-- Generator: Adobe Illustrator 21.0.2, SVG Export Plug-In . SVG Version: 6.00 Build 0)  -->
<svg version="1.1" id="Layer_1" xmlns="http://www.w3.org/2000/svg" xmlns:xlink="http://www.w3.org/1999/xlink" x="0px" y="0px"
	 viewBox="0 0 410.7 410.7" style="enable-background:new 0 0 410.7 410.7;" xml:space="preserve">
<style type="text/css">
	.st0{fill:#0080A9;}
	.st1{fill:#007395;}
	.st2{fill:#009AC0;}
	.st3{fill:#0080A3;}
	.st4{fill:#50BEE7;}
</style>
<g>
	<path class="st0" d="M402.5,293.4c6.7-3.4,6.7-8.9,0-12.3l-184.8-92.7c-6.7-3.4-17.8-3.4-24.5,0L8.5,281.1c-6.7,3.4-6.7,8.9,0,12.3
		l184.8,92.7c6.7,3.4,17.8,3.4,24.5,0L402.5,293.4z"/>
	<path class="st1" d="M217.8,188.4l129.7,65l-129.7,65c-6.7,3.4-17.8,3.4-24.5,0l-129.7-65l129.7-65
		C200,185.1,211,185.1,217.8,188.4z"/>
	<path class="st2" d="M402.5,212.3c6.7-3.4,6.7-8.9,0-12.3l-184.8-92.7c-6.7-3.4-17.8-3.4-24.5,0L8.5,200c-6.7,3.4-6.7,8.9,0,12.3
		L193.3,305c6.7,3.4,17.8,3.4,24.5,0L402.5,212.3z"/>
	<path class="st3" d="M217.8,107.4l129.7,65l-129.7,65c-6.7,3.4-17.8,3.4-24.5,0l-129.7-65l129.7-65C200,104,211,104,217.8,107.4z"
		/>
	<path class="st4" d="M402.5,131.2c6.7-3.4,6.7-8.9,0-12.3L217.8,26.3c-6.7-3.4-17.8-3.4-24.5,0L8.5,119c-6.7,3.4-6.7,8.9,0,12.3
		l184.8,92.7c6.7,3.4,17.8,3.4,24.5,0L402.5,131.2z"/>
</g>
</svg>
