<svg id="Capa_1" enable-background="new 0 0 512 512" height="512" viewBox="0 0 512 512" width="512" xmlns="http://www.w3.org/2000/svg"><g fill="#c3bec6"><path d="m183.508 223.974c-2.084 0-4.157-.863-5.64-2.553l-66.958-76.299c-2.732-3.113-2.424-7.852.689-10.584 3.112-2.731 7.852-2.424 10.584.69l66.958 76.298c2.732 3.114 2.424 7.852-.689 10.584-1.424 1.25-3.187 1.864-4.944 1.864z"/><path d="m183.508 452.868c-2.084 0-4.157-.863-5.64-2.553l-66.958-76.298c-2.732-3.113-2.424-7.852.689-10.584 3.112-2.731 7.852-2.423 10.584.69l66.958 76.298c2.732 3.113 2.424 7.852-.689 10.584-1.424 1.25-3.187 1.863-4.944 1.863z"/><path d="m183.508 376.57c-2.084 0-4.157-.863-5.64-2.553l-66.958-76.299c-2.732-3.113-2.424-7.852.689-10.584 3.112-2.732 7.852-2.424 10.584.69l66.958 76.298c2.732 3.114 2.424 7.852-.689 10.584-1.424 1.251-3.187 1.864-4.944 1.864z"/><path d="m183.508 300.272c-2.084 0-4.157-.863-5.64-2.553l-66.958-76.298c-2.732-3.114-2.424-7.852.689-10.584 3.112-2.732 7.852-2.424 10.584.69l66.958 76.299c2.732 3.113 2.424 7.852-.689 10.584-1.424 1.249-3.187 1.862-4.944 1.862z"/></g><path d="m116.544 223.974c-1.757 0-3.521-.613-4.944-1.863-3.113-2.732-3.422-7.471-.689-10.584l66.958-76.298c2.732-3.114 7.471-3.422 10.584-.69s3.422 7.471.689 10.584l-66.958 76.299c-1.483 1.688-3.556 2.552-5.64 2.552z" fill="#d3ced5"/><path d="m116.544 452.868c-1.757 0-3.521-.613-4.944-1.863-3.113-2.732-3.422-7.471-.689-10.584l66.958-76.298c2.732-3.113 7.471-3.421 10.584-.69 3.113 2.732 3.422 7.471.689 10.584l-66.958 76.298c-1.483 1.689-3.556 2.553-5.64 2.553z" fill="#d3ced5"/><path d="m116.544 376.57c-1.757 0-3.521-.613-4.944-1.863-3.113-2.732-3.422-7.471-.689-10.584l66.958-76.298c2.732-3.114 7.471-3.422 10.584-.69s3.422 7.471.689 10.584l-66.958 76.299c-1.483 1.689-3.556 2.552-5.64 2.552z" fill="#d3ced5"/><path d="m116.544 300.272c-1.757 0-3.521-.613-4.944-1.863-3.113-2.732-3.422-7.471-.689-10.584l66.958-76.299c2.732-3.113 7.471-3.422 10.584-.69s3.422 7.471.689 10.584l-66.958 76.298c-1.483 1.69-3.556 2.554-5.64 2.554z" fill="#d3ced5"/><path d="m191.005 132.675h-81.958v320.193h81.958zm-15 152.597h-51.958v-61.298h51.958zm-51.958 15h51.958v61.298h-51.958zm0-152.597h51.958v61.298h-51.958zm51.958 290.193h-51.958v-61.298h51.958z" fill="#efecef"/><path d="m199.073 512h-98.093l7.4-58.828c.026-.207.202-.362.411-.362h82.471c.209 0 .384.155.411.362z" fill="#d3ced5"/><path d="m191.262 452.81h-27.119l1.565 12.443c1.786 14.198-9.283 26.747-23.593 26.747h-38.619l-2.516 20h98.093l-7.4-58.828c-.027-.207-.203-.362-.411-.362z" fill="#c3bec6"/><path d="m217.56 200.925h17.491v-25.247c0-3.039-2.464-5.503-5.503-5.503h-20.27v22.468c0 4.574 3.708 8.282 8.282 8.282z" fill="#d5dff4"/><path d="m217.56 200.925c-4.574 0-8.282-3.708-8.282-8.282v-22.468h-23.844c-1.065 0-1.928.863-1.928 1.928v57.643c0 1.065.863 1.928 1.928 1.928h44.114c3.039 0 5.503-2.464 5.503-5.503v-25.247h-17.491z" fill="#f9ef63"/><path d="m17.485 110.723c-4.143 0-7.5-3.358-7.5-7.5v-25.762c0-4.142 3.357-7.5 7.5-7.5s7.5 3.358 7.5 7.5v25.762c0 4.142-3.357 7.5-7.5 7.5z" fill="#e2dfe2"/><path d="m42.516 110.723c-4.143 0-7.5-3.358-7.5-7.5v-25.762c0-4.142 3.357-7.5 7.5-7.5s7.5 3.358 7.5 7.5v25.762c0 4.142-3.358 7.5-7.5 7.5z" fill="#e2dfe2"/><path d="m67.516 110.723c-4.143 0-7.5-3.358-7.5-7.5v-25.762c0-4.142 3.357-7.5 7.5-7.5s7.5 3.358 7.5 7.5v25.762c0 4.142-3.358 7.5-7.5 7.5z" fill="#e2dfe2"/><path d="m92.547 110.723c-4.143 0-7.5-3.358-7.5-7.5v-25.762c0-4.142 3.357-7.5 7.5-7.5s7.5 3.358 7.5 7.5v25.762c0 4.142-3.358 7.5-7.5 7.5z" fill="#e2dfe2"/><path d="m97.547 84.961h-85.062c-4.143 0-7.5-3.358-7.5-7.5s3.357-7.5 7.5-7.5h85.062c4.143 0 7.5 3.358 7.5 7.5s-3.358 7.5-7.5 7.5z" fill="#efecef"/><path d="m497.439 107.129s-348.193-106.879-348.804-106.998c-1.111-.218-2.231-.16-3.276.137-.006.002-.013.003-.019.005-2.228.64-4.059 2.341-4.794 4.677l-37.386 115.27 14.678.518 29.447-90.788 29.365 90.539 14.049-2.458-30.283-93.371 132.09 90.821 16.614-5.715-119.922-82.456 270.37 82.97z" fill="#c3bec6"/><path d="m341.856 283.463c-4.143 0-7.5-3.358-7.5-7.5v-138.995c0-4.142 3.357-7.5 7.5-7.5s7.5 3.358 7.5 7.5v138.995c0 4.142-3.357 7.5-7.5 7.5z" fill="#c3bec6"/><path d="m380.879 283.463c-4.143 0-7.5-3.358-7.5-7.5v-138.995c0-4.142 3.357-7.5 7.5-7.5s7.5 3.358 7.5 7.5v138.995c0 4.142-3.358 7.5-7.5 7.5z" fill="#c3bec6"/><path d="m362.26 392.073c-6.985 0-13.688-2.75-18.654-7.715-2.93-2.929-2.93-7.678-.001-10.606 2.93-2.93 7.679-2.93 10.606-.001 2.387 2.387 5.571 3.559 8.965 3.287 5.565-.439 10.029-4.977 10.383-10.556.372-5.86-3.69-10.998-9.449-11.95-5.432-.898-9.374-5.549-9.374-11.059v-18.304c0-4.142 3.357-7.5 7.5-7.5s7.5 3.358 7.5 7.5v15.291c11.674 3.431 19.585 14.497 18.794 26.972-.823 12.979-11.216 23.538-24.175 24.56-.701.054-1.4.081-2.095.081z" fill="#c3bec6"/><path d="m380.879 268.463h-39.022c-5.216 0-9.459 4.243-9.459 9.459v30.045c0 13.62 11.081 24.701 24.701 24.701h8.538c13.62 0 24.701-11.081 24.701-24.701v-30.045c0-5.216-4.243-9.459-9.459-9.459z" fill="#f4dd45"/><path d="m40.35 180.951h-21.994c-.915 0-1.657-.742-1.657-1.657v-46.474h25.307v46.473c0 .916-.741 1.658-1.656 1.658z" fill="#d3ced5"/><path d="m65.657 165.951h-23.65v-33.13h25.307v31.473c-.001.915-.742 1.657-1.657 1.657z" fill="#c3bec6"/><path d="m391.205 136.968h-59.675c-.955 0-1.73-.774-1.73-1.73v-35.285c0-.955.774-1.73 1.73-1.73h59.675c.955 0 1.73.774 1.73 1.73v35.286c0 .955-.775 1.729-1.73 1.729z" fill="#f9ef63"/><path d="m391.205 98.223h-18.271v11.369c0 6.835-5.541 12.376-12.376 12.376h-30.757v13.27c0 .955.774 1.73 1.73 1.73h59.675c.955 0 1.729-.774 1.729-1.73v-35.285c0-.956-.775-1.73-1.73-1.73z" fill="#f4dd45"/><path d="m329.801 103.223h-318.102c-.93 0-1.685.754-1.685 1.685v26.228c0 .931.754 1.685 1.685 1.685h318.101v-29.598z" fill="#958b95"/><path d="m505.335 103.223h-112.4v29.597h112.4c.928 0 1.68-.752 1.68-1.68v-26.237c0-.928-.753-1.68-1.68-1.68z" fill="#958b95"/><path d="m104.546 483.65-3.566 28.35h-45.679c-.761 0-1.377-.617-1.377-1.377v-25.596c0-.761.617-1.377 1.377-1.377zm140.205 0h-49.245l3.566 28.35h45.679c.76 0 1.377-.617 1.377-1.377v-25.596c.001-.76-.616-1.377-1.377-1.377z" fill="#958b95"/><path d="m163.68 512h-27.307v-26.825c0-.842.683-1.525 1.524-1.525h24.258c.842 0 1.524.683 1.524 1.525v26.825z" fill="#958b95"/></svg>