<?xml version="1.0" encoding="utf-8"?>
<!-- Generator: Adobe Illustrator 21.0.2, SVG Export Plug-In . SVG Version: 6.00 Build 0)  -->
<svg version="1.1" id="Layer_1" xmlns="http://www.w3.org/2000/svg" xmlns:xlink="http://www.w3.org/1999/xlink" x="0px" y="0px"
	 viewBox="0 0 512 512" style="enable-background:new 0 0 512 512;" xml:space="preserve">
<style type="text/css">
	.st0{fill:#C9D1D7;}
	.st1{fill:#83BD5A;}
	.st2{fill:#FFFFFF;}
	.st3{fill:#6FA04E;}
	.st4{fill:#576D7E;}
	.st5{fill:#35495C;}
	.st6{fill:#113247;}
	.st7{fill:#EEC8AD;}
	.st8{fill:#DBB69E;}
	.st9{fill:#C07E55;}
</style>
<g>
	<path class="st0" d="M7.4,485.5c0,8.5,7,15.5,15.5,15.5h466.2c8.5,0,15.5-7,15.5-15.5V151.4H7.4V485.5z"/>
	<path class="st1" d="M504.6,104.8c0-8.5-7-15.5-15.5-15.5H22.9c-8.5,0-15.5,7-15.5,15.5v46.6h497.2V104.8z"/>
	<rect x="54" y="174.7" class="st2" width="155.4" height="217.5"/>
	<g>
		<path class="st3" d="M302.6,120.3h-93.2c-8.6,0-7.8-3.5-7.8-7.8c0-4.3-0.8-7.8,7.8-7.8h93.2c8.6,0,7.8,3.5,7.8,7.8
			C310.4,116.8,311.2,120.3,302.6,120.3z"/>
	</g>
	<g>
		<path class="st2" d="M349.2,420.5H256c-6.7,0-7.8-3.5-7.8-7.8c0-4.3,1.1-7.8,7.8-7.8h93.2c6.7,0,7.8,3.5,7.8,7.8
			C357,417.1,355.9,420.5,349.2,420.5z"/>
	</g>
	<g>
		<path class="st4" d="M395.8,198h-93.2c-6.7,0-7.8-3.5-7.8-7.8c0-4.3,1.1-7.8,7.8-7.8h93.2c6.7,0,7.8,3.5,7.8,7.8
			C403.6,194.5,402.5,198,395.8,198z"/>
	</g>
	<g>
		<path class="st2" d="M450.2,322.3H256c-6.7,0-7.8-3.5-7.8-7.8s1.1-7.8,7.8-7.8h194.2c6.7,0,7.8,3.5,7.8,7.8
			S456.9,322.3,450.2,322.3z"/>
	</g>
	<g>
		<path class="st2" d="M450.2,291.2H256c-6.7,0-7.8-3.5-7.8-7.8c0-4.3,1.1-7.8,7.8-7.8h194.2c6.7,0,7.8,3.5,7.8,7.8
			C458,287.8,456.9,291.2,450.2,291.2z"/>
	</g>
	<g>
		<path class="st2" d="M450.2,260.2H256c-6.7,0-7.8-3.5-7.8-7.8c0-4.3,1.1-7.8,7.8-7.8h194.2c6.7,0,7.8,3.5,7.8,7.8
			C458,256.7,456.9,260.2,450.2,260.2z"/>
	</g>
	<path class="st5" d="M256,11.5c-17.2,0-31.1,13.9-31.1,31.1v77.7h62.2V42.6C287.1,25.5,273.2,11.5,256,11.5z M256,58.2
		c-8.6,0-15.5-7-15.5-15.5s7-15.5,15.5-15.5c8.6,0,15.5,7,15.5,15.5S264.6,58.2,256,58.2z"/>
	<path class="st6" d="M271.5,42.6c0,8.6-7,15.5-15.5,15.5v62.2h31.1V42.6c0-17.2-13.9-31.1-31.1-31.1v15.5
		C264.6,27.1,271.5,34,271.5,42.6z"/>
	<g>
		<path class="st5" d="M54,392.2c0-51.1,10.4-66.8,54.4-75.1c8.4-1.6,39.7-1.6,46.6,0c41.1,9.4,54.4,25.6,54.4,75.1H54z"/>
	</g>
	<polygon class="st7" points="155,317.1 131.7,330.1 108.4,317.1 108.4,290.3 155,290.3 	"/>
	<path class="st8" d="M155,299c0.1,0,0-7.8,0-7.8h-46.6v7.8c0,0,3.9,7.8,23.3,7.8C151.1,306.8,155,299,155,299z"/>
	<path class="st7" d="M178.3,266.1c0,22.5-4.1,32.9-23.3,32.9h-46.7c-19.2,0-23.2-10.5-23.2-32.9v-33c0-22.5,15.4-27.2,34.6-27.2
		h24.1c19.2,0,34.6,4.8,34.6,27.2V266.1z"/>
	<path class="st9" d="M143.8,198.1h-24.2c-20.1,0-42.3-2.3-42.3,23.3v23.3c34.1,0,60.2-2.3,77.7-23.3c10.6,16.2,8.5,19.4,31.1,19.4
		v-19.4C186.1,195.7,163.9,198.1,143.8,198.1z"/>
	<circle class="st6" cx="116.2" cy="252.4" r="7.8"/>
	<circle class="st6" cx="147.2" cy="252.4" r="7.8"/>
	<path class="st2" d="M154.3,269c-0.7-0.7-1.9-1.1-3.2-1.1h-38.8c-1.3,0-2.4,0.4-3.2,1.1c-0.7,0.7-0.9,1.6-0.5,2.4
		c3.9,7.3,13,12.1,23.1,12.1c10.1,0,19.1-4.7,23.1-12.1C155.2,270.6,155,269.7,154.3,269z"/>
</g>
<g>
	<path class="st2" d="M450.2,354.1H256c-6.7,0-7.8-3.5-7.8-7.8c0-4.3,1.1-7.8,7.8-7.8h194.2c6.7,0,7.8,3.5,7.8,7.8
		C458,350.6,456.9,354.1,450.2,354.1z"/>
</g>
<g>
	<path class="st2" d="M450.2,387.3H256c-6.7,0-7.8-3.5-7.8-7.8s1.1-7.8,7.8-7.8h194.2c6.7,0,7.8,3.5,7.8,7.8
		S456.9,387.3,450.2,387.3z"/>
</g>
</svg>
