<?xml version="1.0" encoding="utf-8"?>
<!-- Generator: Adobe Illustrator 21.0.2, SVG Export Plug-In . SVG Version: 6.00 Build 0)  -->
<svg version="1.1" id="Layer_1" xmlns="http://www.w3.org/2000/svg" xmlns:xlink="http://www.w3.org/1999/xlink" x="0px" y="0px"
	 viewBox="0 0 512 512" style="enable-background:new 0 0 512 512;" xml:space="preserve">
<style type="text/css">
	.st0{fill:#6FA04E;}
	.st1{fill:#83BD5A;}
	.st2{fill:#A0CE6A;}
</style>
<g>
	<path class="st0" d="M507,323.3l-4-13.2L81.8,438.9l4,13.2c4.4,14.5,19.9,22.7,34.4,18.3l368.5-112.7
		C503.2,353.2,511.4,337.8,507,323.3z"/>
	<path class="st1" d="M503,310.1l-4-13.2L77.8,425.7l4,13.2c4.4,14.5,19.9,22.7,34.4,18.3l368.5-112.7
		C499.2,340.1,507.4,324.6,503,310.1z"/>
	<path class="st0" d="M499,297l-4-13.2L73.8,412.6l4,13.2c4.4,14.5,19.9,22.7,34.4,18.3l368.5-112.7
		C495.2,326.9,503.4,311.4,499,297z"/>
	<path class="st1" d="M494.9,283.8l-4-13.2L69.8,399.4l4,13.2c4.4,14.5,19.9,22.7,34.4,18.3l368.5-112.7
		C491.1,313.8,499.4,298.3,494.9,283.8z"/>
	<g>
		<g>
			<path class="st1" d="M108.4,387.6c-6.8,2.1-13.9-1.5-15.9-7.9L35.3,192.5c-2-6.5,1.9-13.4,8.7-15.5L387.9,71.9
				c6.8-2.1,13.9,1.5,15.9,7.9L461,267c2,6.5-1.9,13.4-8.7,15.5L108.4,387.6z"/>
		</g>
		<path class="st0" d="M182.9,251.6c11.1,36.3,49.6,56.8,85.9,45.7c36.3-11.1,56.8-49.6,45.7-85.9c-11.1-36.3-49.6-56.8-85.9-45.7
			C192.2,176.8,171.8,215.3,182.9,251.6z M288.2,219.4c6.7,21.8-5.6,44.9-27.4,51.6c-21.8,6.7-44.9-5.6-51.6-27.4
			c-6.7-21.8,5.6-44.9,27.4-51.6C258.4,185.4,281.5,197.6,288.2,219.4z"/>
		<path class="st0" d="M156.6,259.7c3.3,10.9-2.8,22.4-13.7,25.8c-10.9,3.3-22.4-2.8-25.8-13.7c-3.3-10.9,2.8-22.4,13.7-25.8
			C141.7,242.6,153.2,248.8,156.6,259.7z"/>
		<path class="st0" d="M380.3,191.3c3.3,10.9-2.8,22.4-13.7,25.8c-10.9,3.3-22.4-2.8-25.8-13.7c-3.3-10.9,2.8-22.4,13.7-25.8
			C365.4,174.2,377,180.4,380.3,191.3z"/>
		<path class="st2" d="M288.2,219.4c6.7,21.8-5.6,44.9-27.4,51.6c-21.8,6.7-44.9-5.6-51.6-27.4c-6.7-21.8,5.6-44.9,27.4-51.6
			C258.4,185.4,281.5,197.6,288.2,219.4z"/>
		<path class="st0" d="M392.2,41.8L23.7,154.5C9.2,158.9,1,174.4,5.4,188.8l64.4,210.6c4.4,14.5,19.9,22.7,34.4,18.3L472.6,305
			c14.5-4.4,22.7-19.9,18.3-34.4L426.5,60.1C422.1,45.6,406.6,37.4,392.2,41.8z M420,292.3l-279.4,85.4
			c-11.8-20.6-34.5-32.7-58.2-30.9L45.3,225.3c20.6-11.8,32.7-34.5,30.9-58.2l279.4-85.4c11.8,20.6,34.5,32.7,58.2,30.9L451,234.2
			C430.4,245.9,418.3,268.7,420,292.3z"/>
	</g>
</g>
</svg>
