<?xml version="1.0" encoding="utf-8"?>
<!-- Generator: Adobe Illustrator 21.0.2, SVG Export Plug-In . SVG Version: 6.00 Build 0)  -->
<svg version="1.1" id="Layer_1" xmlns="http://www.w3.org/2000/svg" xmlns:xlink="http://www.w3.org/1999/xlink" x="0px" y="0px"
	 viewBox="0 0 512 512" style="enable-background:new 0 0 512 512;" xml:space="preserve">
<style type="text/css">
	.st0{fill:#D89C44;}
	.st1{fill:#F6B74E;}
	.st2{fill:#FFFFFF;}
</style>
<path class="st0" d="M216.5,383.6h272.6c8.6,0,15.5-7.4,15.5-16.6V51.9c0-9.2-6.9-16.6-15.5-16.6h-465c-8.6,0-15.5,7.4-15.5,16.6
	V367c0,9.2,6.9,16.6,15.5,16.6h62"/>
<g>
	<path class="st1" d="M487.2,23.8h-465c-8.6,0-15.5,7.4-15.5,16.6v315.1c0,9.2,6.9,16.6,15.5,16.6h62v99.5c0,6.7,3.8,12.8,9.6,15.3
		c1.9,0.9,3.9,1.3,5.9,1.3c4,0,8-1.7,11-4.9l104-111.2h272.6c8.6,0,15.5-7.4,15.5-16.6V40.4C502.7,31.2,495.7,23.8,487.2,23.8z"/>
	<g>
		<g>
			<path class="st2" d="M363.2,181.4h-217c-8.6,0-15.5,7.4-15.5,16.6c0,9.2,6.9,16.6,15.5,16.6h217c8.6,0,15.5-7.4,15.5-16.6
				C378.7,188.8,371.7,181.4,363.2,181.4z"/>
		</g>
		<g>
			<path class="st2" d="M363.2,115h-217c-8.6,0-15.5,7.4-15.5,16.6s6.9,16.6,15.5,16.6h217c8.6,0,15.5-7.4,15.5-16.6
				S371.7,115,363.2,115z"/>
		</g>
		<g>
			<path class="st2" d="M285.7,247.7H146.2c-8.6,0-15.5,7.4-15.5,16.6c0,9.2,6.9,16.6,15.5,16.6h139.5c8.6,0,15.5-7.4,15.5-16.6
				C301.2,255.2,294.2,247.7,285.7,247.7z"/>
		</g>
	</g>
</g>
</svg>
