<?xml version="1.0" encoding="utf-8"?>
<!-- Generator: Adobe Illustrator 21.0.2, SVG Export Plug-In . SVG Version: 6.00 Build 0)  -->
<svg version="1.1" id="Layer_1" xmlns="http://www.w3.org/2000/svg" xmlns:xlink="http://www.w3.org/1999/xlink" x="0px" y="0px"
	 viewBox="0 0 512 512" style="enable-background:new 0 0 512 512;" xml:space="preserve">
<style type="text/css">
	.st0{fill:#FCCF63;}
	.st1{fill:#AF5E2C;}
	.st2{fill:#87451F;}
	.st3{fill:#F6B74E;}
	.st4{fill:#F05642;}
	.st5{fill:#D89C44;}
</style>
<g>
	<path class="st0" d="M59.2,415l94.8,94.8h284.4c8.7,0,15.8-7.1,15.8-15.8V83.1h-395V415z"/>
	<path class="st1" d="M454.2,19.9c0-8.7-7.1-15.8-15.8-15.8H75c-8.7,0-15.8,7.1-15.8,15.8v63.2h395V19.9z"/>
	<rect x="59.2" y="83.1" class="st2" width="395" height="15.8"/>
	<rect x="59.2" y="154.2" class="st3" width="395" height="15.8"/>
	<rect x="59.2" y="217.5" class="st3" width="395" height="15.8"/>
	<rect x="59.2" y="280.7" class="st3" width="395" height="15.8"/>
	<rect x="59.2" y="343.9" class="st3" width="395" height="15.8"/>
	<polygon class="st3" points="454.2,422.9 67.1,422.9 59.2,415 59.2,407.1 454.2,407.1 	"/>
	<rect x="130.3" y="98.9" class="st4" width="15.8" height="331.8"/>
	<path class="st5" d="M154,446.6v63.2L59.2,415h63.2C139.8,415,154,429.2,154,446.6z"/>
	<polygon class="st3" points="217.2,509.8 154,446.6 154,509.8 	"/>
</g>
</svg>
