<?xml version="1.0" encoding="utf-8"?>
<!-- Generator: Adobe Illustrator 21.0.2, SVG Export Plug-In . SVG Version: 6.00 Build 0)  -->
<svg version="1.1" id="Layer_1" xmlns="http://www.w3.org/2000/svg" xmlns:xlink="http://www.w3.org/1999/xlink" x="0px" y="0px"
	 viewBox="0 0 512 512" style="enable-background:new 0 0 512 512;" xml:space="preserve">
<style type="text/css">
	.st0{fill:#FCCF63;}
	.st1{fill:#F6B74E;}
	.st2{fill:#D89C44;}
</style>
<g>
	<path class="st0" d="M491.4,225.3H20.7c-8.7,0-15.7,7-15.7,15.7v156.9c0,8.7,7,15.7,15.7,15.7h62.8V492c0,6.1,3.6,11.7,9.1,14.3
		c2.1,1,4.3,1.4,6.6,1.4c3.7,0,7.3-1.3,10.2-3.8l105.4-90.4h276.6c8.7,0,15.7-7,15.7-15.7V240.9
		C507.1,232.3,500.1,225.3,491.4,225.3z"/>
	<path class="st1" d="M491.4,5.6H20.7C12,5.6,5,12.6,5,21.3v156.9c0,8.7,7,15.7,15.7,15.7h276.6l105.4,90.4
		c2.9,2.5,6.5,3.8,10.2,3.8c2.2,0,4.5-0.5,6.6-1.4c5.6-2.6,9.1-8.1,9.1-14.3v-78.5h62.8c8.7,0,15.7-7,15.7-15.7V21.3
		C507.1,12.6,500.1,5.6,491.4,5.6z"/>
	<g>
		<path class="st1" d="M279.6,319.4c0,13-10.5,23.5-23.5,23.5c-13,0-23.5-10.5-23.5-23.5c0-13,10.5-23.5,23.5-23.5
			C269,295.9,279.6,306.4,279.6,319.4z"/>
	</g>
	<g>
		<path class="st1" d="M358,319.4c0,13-10.5,23.5-23.5,23.5c-13,0-23.5-10.5-23.5-23.5c0-13,10.5-23.5,23.5-23.5
			C347.5,295.9,358,306.4,358,319.4z"/>
	</g>
	<g>
		<path class="st1" d="M201.1,319.4c0,13-10.5,23.5-23.5,23.5c-13,0-23.5-10.5-23.5-23.5c0-13,10.5-23.5,23.5-23.5
			C190.6,295.9,201.1,306.4,201.1,319.4z"/>
	</g>
	<g>
		<path class="st2" d="M279.6,99.7c0,13-10.5,23.5-23.5,23.5c-13,0-23.5-10.5-23.5-23.5c0-13,10.5-23.5,23.5-23.5
			C269,76.2,279.6,86.7,279.6,99.7z"/>
	</g>
	<g>
		<path class="st2" d="M358,99.7c0,13-10.5,23.5-23.5,23.5c-13,0-23.5-10.5-23.5-23.5c0-13,10.5-23.5,23.5-23.5
			C347.5,76.2,358,86.7,358,99.7z"/>
	</g>
	<g>
		<path class="st2" d="M201.1,99.7c0,13-10.5,23.5-23.5,23.5c-13,0-23.5-10.5-23.5-23.5c0-13,10.5-23.5,23.5-23.5
			C190.6,76.2,201.1,86.7,201.1,99.7z"/>
	</g>
</g>
</svg>
