<svg id="Capa_1" enable-background="new 0 0 512 512" height="512" viewBox="0 0 512 512" width="512" xmlns="http://www.w3.org/2000/svg"><path d="m20.456 458.94h195.841c11.297 0 20.456 9.158 20.456 20.456v8.088c0 2.286-1.854 4.14-4.14 4.14h-228.473c-2.286 0-4.14-1.854-4.14-4.14v-8.088c0-11.297 9.158-20.456 20.456-20.456z" fill="#b4acb7"/><path d="m60.056 363.03h116.639l-5.65-21.055c-1.119-4.171-4.9-7.071-9.219-7.071h-86.9c-4.319 0-8.1 2.9-9.219 7.071z" fill="#b4acb7"/><g fill="#d3ced5"><circle cx="118.376" cy="190.141" r="43.434"/><circle cx="244.707" cy="63.81" r="43.434"/><circle cx="447.405" cy="63.81" r="43.434"/></g><path d="m124.706 147.166c3.934 6.534 6.198 14.188 6.198 22.371 0 23.988-19.446 43.434-43.434 43.434-2.15 0-4.264-.157-6.33-.459 7.599 12.62 21.431 21.063 37.236 21.063 23.988 0 43.434-19.446 43.434-43.434 0-21.838-16.117-39.91-37.104-42.975z" fill="#c3bec6"/><path d="m453.736 20.835c3.934 6.534 6.198 14.188 6.198 22.371 0 23.988-19.446 43.434-43.434 43.434-2.15 0-4.264-.157-6.33-.459 7.599 12.62 21.431 21.063 37.236 21.063 23.988 0 43.434-19.446 43.434-43.434-.001-21.838-16.117-39.91-37.104-42.975z" fill="#c3bec6"/><path d="m251.038 20.835c3.934 6.534 6.198 14.188 6.198 22.371 0 23.988-19.446 43.434-43.434 43.434-2.15 0-4.264-.157-6.33-.459 7.599 12.62 21.431 21.063 37.236 21.063 23.988 0 43.434-19.446 43.434-43.434-.001-21.838-16.117-39.91-37.104-42.975z" fill="#c3bec6"/><path d="m288.141 63.81c0-23.988-19.446-43.434-43.434-43.434h202.698c-23.988 0-43.434 19.446-43.434 43.434s19.446 43.434 43.434 43.434h-202.698c23.988-.001 43.434-19.447 43.434-43.434z" fill="#b4acb7"/><path d="m447.405 107.243c-6.355 0-12.391-1.365-17.831-3.818v68.775h40.043v-71.059c-6.499 3.875-14.095 6.102-22.212 6.102z" fill="#958b95"/><path d="m413.035 223.862h73.12c1.665 0 3.015-1.35 3.015-3.015v-45.631c0-1.665-1.35-3.015-3.015-3.015h-73.12c-1.665 0-3.015 1.35-3.015 3.015v45.631c0 1.665 1.35 3.015 3.015 3.015z" fill="#d3ced5"/><path d="m483.4 245.695-21.834-21.833h24.589c1.665 0 3.015-1.35 3.015-3.015v-7.915l21.477 21.477c.866.866 1.353 2.041 1.353 3.266v49.666c0 1.225-.487 2.4-1.353 3.266l-13.41 13.41c-.851.851-2.231.851-3.083 0l-16.184-16.185c-.851-.851-.851-2.231 0-3.083l5.43-5.429c.866-.866 1.353-2.041 1.353-3.266v-27.093c0-1.225-.487-2.4-1.353-3.266z" fill="#b4acb7"/><path d="m410.02 212.932v7.915c0 1.665 1.35 3.015 3.015 3.015h24.589l-21.834 21.833c-.866.866-1.353 2.041-1.353 3.266v27.093c0 1.225.487 2.4 1.353 3.266l5.43 5.429c.851.851.851 2.231 0 3.083l-16.184 16.185c-.851.851-2.231.851-3.083 0l-13.41-13.41c-.866-.866-1.353-2.041-1.353-3.266v-49.666c0-1.225.487-2.4 1.353-3.266z" fill="#b4acb7"/><path d="m118.376 233.574c11.989 0 22.842-4.857 30.701-12.711v114.04h-61.402v-114.04c7.859 7.854 18.713 12.711 30.701 12.711z" fill="#958b95"/><path d="m118.376 233.574c-.068 0-.136-.001-.204-.001v58.363c0 12.351-10.013 22.364-22.364 22.364h-8.133v20.604h61.402v-114.04c-7.859 7.853-18.713 12.71-30.701 12.71z" fill="#868086"/><path d="m213.99 33.103c-7.857 7.86-12.716 18.716-12.716 30.707 0 23.988 19.446 43.434 43.434 43.434h17.991l-113.61 113.61c7.86-7.86 12.721-18.718 12.721-30.712 0-23.988-19.446-43.434-43.434-43.434-11.988 0-22.842 4.857-30.701 12.711z" fill="#b4acb7"/><path d="m403.972 63.81c0-23.988 19.446-43.434 43.434-43.434h-41.207v17.793c0 26.77-21.701 48.471-48.471 48.471h-76.063c-7.655 12.366-21.344 20.604-36.956 20.604h202.698c-23.99-.001-43.435-19.447-43.435-43.434z" fill="#a59da5"/><path d="m149.088 220.853 113.61-113.61h-17.991c-12.092 0-23.03-4.942-30.904-12.916l-64.909 64.909c7.974 7.875 12.916 18.812 12.916 30.904 0 11.995-4.862 22.853-12.722 30.713z" fill="#a59da5"/><path d="m55.936 412.54h124.88v46.4h-124.88z" fill="#958b95"/><path d="m49.925 400.757-8.037-5.829c-1.695-1.229-2.699-3.196-2.699-5.29v-20.073c0-3.609 2.926-6.535 6.535-6.535h145.302c3.609 0 6.535 2.926 6.535 6.535v20.073c0 2.094-1.003 4.061-2.699 5.29l-8.037 5.829c-3.776 2.738-6.01 7.12-6.01 11.784h-124.879c0-4.665-2.235-9.046-6.011-11.784z" fill="#d3ced5"/><path d="m486.155 172.201h-38.192v7.115c0 13.223-10.72 23.943-23.943 23.943h-14v17.589c0 1.665 1.35 3.015 3.015 3.015h73.12c1.665 0 3.015-1.35 3.015-3.015v-45.631c0-1.667-1.35-3.016-3.015-3.016z" fill="#c3bec6"/><path d="m139.609 412.54v7.721c0 9.982-8.092 18.075-18.075 18.075h-65.598v20.604h124.88v-46.4z" fill="#868086"/><path d="m191.027 363.03h-34.672v6.004c0 2.094-1.004 4.061-2.699 5.29l-8.037 5.829c-3.776 2.738-6.01 7.12-6.01 11.784v20.604h41.207c0-4.664 2.235-9.046 6.01-11.784l8.037-5.829c1.695-1.229 2.698-3.196 2.698-5.29v-20.073c.001-3.609-2.925-6.535-6.534-6.535z" fill="#c3bec6"/><path d="m159.731 309.326h-82.71c-4.268 0-7.726-3.459-7.726-7.726s3.459-7.726 7.726-7.726h82.71c4.268 0 7.726 3.459 7.726 7.726.001 4.267-3.458 7.726-7.726 7.726z" fill="#c3bec6"/><path d="m159.731 276.022h-82.71c-4.268 0-7.726-3.459-7.726-7.726s3.459-7.726 7.726-7.726h82.71c4.268 0 7.726 3.459 7.726 7.726.001 4.267-3.458 7.726-7.726 7.726z" fill="#c3bec6"/><path d="m167.458 301.6c0-4.267-3.459-7.726-7.726-7.726h-41.643c-.535 6.232-3.625 11.734-8.218 15.453h49.861c4.267-.001 7.726-3.46 7.726-7.727z" fill="#b4acb7"/><path d="m159.731 260.569h-41.56v15.453h41.56c4.268 0 7.726-3.459 7.726-7.726.001-4.267-3.458-7.727-7.726-7.727z" fill="#b4acb7"/><path d="m480.27 145.818h-61.349c-4.268 0-7.726-3.459-7.726-7.726s3.459-7.726 7.726-7.726h61.349c4.268 0 7.726 3.459 7.726 7.726s-3.459 7.726-7.726 7.726z" fill="#c3bec6"/><path d="m126.489 205.979c-1.977 0-3.955-.754-5.463-2.263l-16.225-16.225c-3.018-3.017-3.018-7.909-.001-10.927 3.018-3.017 7.91-3.018 10.927 0l16.225 16.225c3.018 3.017 3.018 7.909.001 10.927-1.509 1.509-3.487 2.263-5.464 2.263z" fill="#c3bec6"/><path d="m126.912 187.75c-2.225 4.811-5.304 9.145-9.043 12.809l3.157 3.157c1.508 1.509 3.486 2.263 5.463 2.263s3.955-.755 5.464-2.263c3.017-3.018 3.017-7.909-.001-10.927z" fill="#b4acb7"/><path d="m252.82 79.648c-1.977 0-3.955-.754-5.463-2.263l-16.225-16.225c-3.018-3.017-3.018-7.909-.001-10.927 3.018-3.017 7.91-3.018 10.927 0l16.225 16.225c3.018 3.017 3.018 7.909.001 10.927-1.509 1.509-3.487 2.263-5.464 2.263z" fill="#c3bec6"/><path d="m253.243 61.419c-2.225 4.81-5.304 9.145-9.043 12.809l3.157 3.157c1.508 1.509 3.486 2.263 5.463 2.263s3.955-.755 5.464-2.263c3.017-3.018 3.017-7.909-.001-10.927z" fill="#b4acb7"/><path d="m455.517 79.648c-1.978 0-3.955-.754-5.464-2.263l-16.224-16.225c-3.017-3.018-3.017-7.909 0-10.927 3.019-3.018 7.91-3.018 10.928 0l16.224 16.225c3.017 3.018 3.017 7.909-.001 10.927-1.508 1.509-3.486 2.263-5.463 2.263z" fill="#c3bec6"/><path d="m455.941 61.419c-2.225 4.811-5.304 9.146-9.044 12.81l3.156 3.156c1.509 1.509 3.486 2.263 5.464 2.263 1.977 0 3.955-.755 5.463-2.263 3.018-3.017 3.018-7.909.001-10.927z" fill="#b4acb7"/><path d="m167.898 148.345c-1.977 0-3.955-.755-5.464-2.263-3.017-3.017-3.017-7.909 0-10.927l27.287-27.287c3.018-3.017 7.909-3.017 10.928 0 3.017 3.017 3.017 7.909 0 10.927l-27.287 27.287c-1.509 1.508-3.487 2.263-5.464 2.263z" fill="#a59da5"/><path d="m162.435 146.082c1.509 1.509 3.487 2.263 5.464 2.263s3.955-.755 5.464-2.263l27.287-27.287c3.017-3.017 3.017-7.909 0-10.927-.065-.065-.131-.128-.197-.19l-38.206 38.206c.06.067.123.133.188.198z" fill="#958b95"/><path d="m377.337 71.536h-59.087c-4.268 0-7.726-3.459-7.726-7.726s3.459-7.726 7.726-7.726h59.088c4.268 0 7.726 3.459 7.726 7.726s-3.459 7.726-7.727 7.726z" fill="#a59da5"/></svg>