<?xml version="1.0" encoding="utf-8"?>
<!-- Generator: Adobe Illustrator 21.0.2, SVG Export Plug-In . SVG Version: 6.00 Build 0)  -->
<svg version="1.1" id="Layer_1" xmlns="http://www.w3.org/2000/svg" xmlns:xlink="http://www.w3.org/1999/xlink" x="0px" y="0px"
	 viewBox="0 0 512 512" style="enable-background:new 0 0 512 512;" xml:space="preserve">
<style type="text/css">
	.st0{fill:#F05642;}
	.st1{fill:#D2453C;}
	.st2{fill:#35495C;}
	.st3{fill:#113247;}
</style>
<g>
	<path class="st0" d="M6.5,146.8c0-17.2,14.1-31.3,31.3-31.3h438.1c17.2,0,31.3,14.1,31.3,31.3v313c0,17.2-14.1,31.3-31.3,31.3H37.8
		c-17.2,0-31.3-14.1-31.3-31.3V146.8z"/>
	<path class="st1" d="M507.2,459.7v-313c0-17.2-14.1-31.3-31.3-31.3H319.4L194.2,491h281.7C493.1,491,507.2,476.9,507.2,459.7z"/>
	<path class="st1" d="M272.5,240.7c0-0.1,0-0.1,0-0.2v0.3C272.5,240.8,272.5,240.7,272.5,240.7z"/>
	<path class="st1" d="M319.4,303.3c-0.1,0-0.1,0-0.2,0h-46.8v46.9h46.8c0.1,0,0.1,0,0.2,0c8.6,0,15.6-38.3,15.6-46.9
		c0-2.9-0.8-5.5-2.2-7.8C330.2,300.1,325.2,303.3,319.4,303.3z"/>
	<path class="st1" d="M272.5,381.6c-0.1,8.6-7.1,15.5-15.6,15.5c-8.6,0-15.6-7-15.6-15.7v15.6c0,8.6,7,15.7,15.6,15.7
		c8.6,0,15.6-7,15.7-15.7c0-0.1,0-0.1,0-0.1V381.6z"/>
	<g>
		<path class="st2" d="M366.4,115.5h-31.3V68.5c0-8.6-7-15.6-15.6-15.6H194.2c-8.6,0-15.6,7-15.6,15.6v46.9h-31.3V68.5
			c0-25.9,21.1-46.9,46.9-46.9h125.2c25.9,0,46.9,21.1,46.9,46.9V115.5z"/>
	</g>
	<rect x="147.3" y="99.8" class="st3" width="31.3" height="15.6"/>
	<path class="st3" d="M435.8,153.7l33.2,33.2c4.4,4.4,10.4,6.9,16.6,6.9h21.6v-46.9c0-17.2-14.1-31.3-31.3-31.3H429v21.6
		C429,143.3,431.4,149.3,435.8,153.7z"/>
	<path class="st3" d="M469,419.7l-33.2,33.2c-4.4,4.4-6.9,10.4-6.9,16.6V491h46.9c17.2,0,31.3-14.1,31.3-31.3v-46.9h-21.6
		C479.4,412.8,473.4,415.3,469,419.7z"/>
	<path class="st2" d="M77.8,452.9l-33.2-33.2c-4.4-4.4-10.4-6.9-16.6-6.9H6.5v46.9c0,17.2,14.1,31.3,31.3,31.3h46.9v-21.6
		C84.7,463.2,82.2,457.3,77.8,452.9z"/>
	<path class="st2" d="M44.6,186.9l33.2-33.2c4.4-4.4,6.9-10.4,6.9-16.6v-21.6H37.8c-17.2,0-31.3,14.1-31.3,31.3v46.9H28
		C34.3,193.7,40.2,191.3,44.6,186.9z"/>
	<path class="st3" d="M350.7,92V68.5c0-17.3-14-31.3-31.3-31.3h-62.6c-8.6,0-15.6,7-15.6,15.6h78.2c8.6,0,15.6,7,15.6,15.6v31.3
		v15.6h15.6h15.6V99.8h-7.8C354.2,99.8,350.7,96.3,350.7,92z"/>
</g>
</svg>
