<?xml version="1.0" encoding="utf-8"?>
<!-- Generator: Adobe Illustrator 21.0.2, SVG Export Plug-In . SVG Version: 6.00 Build 0)  -->
<svg version="1.1" id="Layer_1" xmlns="http://www.w3.org/2000/svg" xmlns:xlink="http://www.w3.org/1999/xlink" x="0px" y="0px"
	 viewBox="0 0 512 512" style="enable-background:new 0 0 512 512;" xml:space="preserve">
<style type="text/css">
	.st0{fill:#E2E4E6;}
	.st1{fill:#C9D1D7;}
	.st2{fill:#A0CE6A;}
	.st3{fill:#83BD5A;}
	.st4{fill:#35495C;}
	.st5{fill:#113247;}
</style>
<g>
	<g>
		<path class="st0" d="M257,378.3c-111.9,0-178.4-42.3-248-115.9c-4.6-4.8-4.6-11.3,0-16.1C78.6,172.6,89,94.1,248,92.9
			c179-1.4,187.4,79.7,257,153.4c4.6,4.8,4.6,11.3,0,16.1C435.4,336.1,368.9,378.3,257,378.3z"/>
	</g>
	<g>
		<path class="st1" d="M454.5,179.1c-4.5-2.4-9-4.8-13.6-7C445.5,174.4,450,176.7,454.5,179.1z"/>
		<path class="st1" d="M505,246.3c-7.5-8-17.1-14.4-23.8-22.8c-12.7-15.7-17.4-32.4-22.7-34.8c-21.7-9.9-46.2-15.4-70.7-20.9
			C321.7,153,257,195.7,257,254.3l0,0c0,58.6-64.7,101.3-130.8,86.5c-36.9-8.2-75-53.7-107.4-68.6C84,318.7,40.5,420.8,257,420.8
			c197.5,0,178.3-84.8,248-158.4C509.4,257.7,509.4,250.9,505,246.3z"/>
	</g>
	<path class="st2" d="M257,161.3c-59.8,0-108.4,41.7-108.4,93s48.6,93,108.4,93c59.8,0,108.4-41.7,108.4-93S316.8,161.3,257,161.3z"
		/>
	<path class="st3" d="M342,196.8c-18.5-12.5-41.7-20-67-20c-0.1,0-0.1,0-0.2,0c-10,0-17.9,7.3-17.9,15.9V316
		c0,8.6-7.9,15.8-17.9,15.9c-0.1,0-0.1,0-0.2,0c-25.3,0-48.5-7.5-67-20c22.9,24.9,60.3,39.6,101.3,34.5c46.8-5.9,84.4-38.4,91-78.5
		C368.7,240.9,359.6,215.9,342,196.8z"/>
	<ellipse class="st4" cx="257" cy="254.3" rx="45.2" ry="38.7"/>
	<path class="st5" d="M278.4,220.4c3.5,5.5,5.6,11.7,5.6,18.4c0,21.4-20.2,38.7-45.2,38.7c-7.8,0-15-1.9-21.4-4.8
		c7.7,12.1,22.4,20.3,39.5,20.3c24.9,0,45.2-17.3,45.2-38.7C302.2,239.6,292.5,227,278.4,220.4z"/>
	<path class="st0" d="M248,223.3c0,8.6-8.1,15.5-18.1,15.5c-10,0-18.1-6.9-18.1-15.5c0-8.6,8.1-15.5,18.1-15.5
		C239.9,207.8,248,214.8,248,223.3z"/>
</g>
</svg>
