<?xml version="1.0" encoding="utf-8"?>
<!-- Generator: Adobe Illustrator 21.0.2, SVG Export Plug-In . SVG Version: 6.00 Build 0)  -->
<svg version="1.1" id="Layer_1" xmlns="http://www.w3.org/2000/svg" xmlns:xlink="http://www.w3.org/1999/xlink" x="0px" y="0px"
	 viewBox="0 0 512 512" style="enable-background:new 0 0 512 512;" xml:space="preserve">
<style type="text/css">
	.st0{fill:#8FC560;}
	.st1{fill:#73AE43;}
	.st2{fill:#D2453C;}
	.st3{fill:#BB3D34;}
	.st4{fill:#9E3925;}
</style>
<g>
	<g>
		<path class="st0" d="M256,106.3c-4.4,0-7.9-3.5-7.9-7.9V11.6c0-4.4,3.5-7.9,7.9-7.9c4.4,0,7.9,3.5,7.9,7.9v86.8
			C263.9,102.8,260.3,106.3,256,106.3z"/>
	</g>
	<path class="st1" d="M256.1,74.8c-0.2,1.8-0.1,1.7-0.3,0c-1.3-9.5-4-14.9-7.7-22.9v26.8v14.7v13h15.8v-13v-5.5v-36
		C260.1,59.8,257.4,65.3,256.1,74.8z"/>
	<path class="st0" d="M350.6,52.8c0.9-5.5-2.2-10.9-7.4-12.8c-19.1-7.3-39.4-6-56,3.5l0,0c-16.5,9.5-27.8,26.6-31.1,46.7
		c-0.9,5.5,2.2,10.9,7.4,12.8c2.3,0.9,4.7,1.7,7.1,2.3c16.9,4.5,34.4,2.5,48.9-5.8C336,89.9,347.3,72.9,350.6,52.8z"/>
	<path class="st1" d="M270.6,105.3c-2.4-0.6-4.7-1.4-7.1-2.3c-2.6-1-4.7-2.8-6-5.1l91.6-52.9c1.3,2.3,1.9,5,1.4,7.7
		C347.3,72.9,336,90,319.5,99.5C305,107.9,287.5,109.9,270.6,105.3z"/>
	<path class="st0" d="M161.4,52.8c-0.9-5.5,2.2-10.9,7.4-12.8c19.1-7.3,39.4-6,56,3.5c0,0,0,0,0,0c16.5,9.5,27.8,26.6,31.1,46.7
		c0.9,5.5-2.2,10.9-7.4,12.8c-2.3,0.9-4.7,1.7-7.1,2.3c-16.9,4.5-34.4,2.5-48.9-5.8C175.9,89.9,164.6,72.9,161.4,52.8z"/>
	<path class="st1" d="M241.4,105.3c2.4-0.6,4.7-1.4,7.1-2.3c2.6-1,4.7-2.8,6-5.1l-91.6-52.9c-1.3,2.3-1.9,5-1.4,7.7
		c3.2,20.1,14.5,37.1,31.1,46.7C207,107.9,224.4,109.9,241.4,105.3z"/>
	<path class="st2" d="M256.4,98.9c-70.9,0-189.5,0-189.5,93.3c0,54.1,55.2,199,105.5,276.9c16.3,25.2,47.4,40.3,83.3,40.3
		c0,0,0,0,0,0c35.9,0,67-15.1,83.3-40.3c46.6-72.2,106.7-219.4,106.7-276.9C445.9,98.9,327.3,98.9,256.4,98.9z"/>
	<path class="st3" d="M256.2,176.7c-0.2,78.5-0.5,211.4-0.6,275.4c0,19.1-16.9,33.9-35.8,31.2c-16.6-2.4-32-6.4-45.6-11.9
		c16.7,23.8,46.9,38,81.6,38c0,0,0,0,0,0c0.2,0,0.4,0,0.6,0v0c35.6-0.2,66.5-15.2,82.7-40.2c46.6-72.2,106.7-219.4,106.7-276.9
		c0-68.5-64-78.2-126.1-78.5C284.8,113.5,256.3,141.7,256.2,176.7z"/>
	<circle class="st4" cx="216.5" cy="169.5" r="15.8"/>
	<circle class="st4" cx="121.8" cy="169.5" r="15.8"/>
	<circle class="st4" cx="177" cy="224.8" r="15.8"/>
	<circle class="st4" cx="256" cy="224.8" r="15.8"/>
	<circle class="st4" cx="295.5" cy="169.5" r="15.8"/>
	<circle class="st4" cx="398.1" cy="169.5" r="15.8"/>
	<circle class="st4" cx="216.5" cy="280" r="15.8"/>
	<circle class="st4" cx="295.5" cy="280" r="15.8"/>
	<circle class="st4" cx="216.5" cy="406.3" r="15.8"/>
	<circle class="st4" cx="295.5" cy="406.3" r="15.8"/>
	<circle class="st4" cx="342.8" cy="224.8" r="15.8"/>
	<circle class="st4" cx="177" cy="335.3" r="15.8"/>
	<circle class="st4" cx="256" cy="335.3" r="15.8"/>
	<circle class="st4" cx="342.8" cy="335.3" r="15.8"/>
</g>
</svg>
