<?xml version="1.0" encoding="utf-8"?>
<!-- Generator: Adobe Illustrator 21.0.2, SVG Export Plug-In . SVG Version: 6.00 Build 0)  -->
<svg version="1.1" id="Layer_1" xmlns="http://www.w3.org/2000/svg" xmlns:xlink="http://www.w3.org/1999/xlink" x="0px" y="0px"
	 viewBox="0 0 512 512" style="enable-background:new 0 0 512 512;" xml:space="preserve">
<style type="text/css">
	.st0{fill:#D4B07F;}
	.st1{fill:#C9A07C;}
	.st2{fill:#E6BE8A;}
	.st3{fill:#239F49;}
	.st4{fill:#FFFFFF;}
	.st5{fill:#17843B;}
</style>
<g>
	<path class="st0" d="M368,7.1c-0.5-4-3.9-7.1-8-7.1h-32.2c-2.3,0-4.4,1-6,2.7c-1.5,1.7-2.2,4-2,6.2l4.5,40c0.5,4,3.9,7.1,8,7.1
		h32.2c2.3,0,4.4-1,6-2.7c1.5-1.7,2.2-4,2-6.2L368,7.1z"/>
</g>
<g>
	<path class="st0" d="M382.4,303.1c4.5-4,1.1-7.1-3-7.1h-32.2c-2.3,0-4.4,1-6,2.7c-1.5,1.7-2.2,4-2,6.2l22.6,200
		c0.5,4,3.9,7.1,8,7.1H402c2.3,0,4.4-1,6-2.7c1.5-1.7,2.2-4-3-6.2L382.4,303.1z"/>
</g>
<g>
	<path class="st0" d="M206.1,2.7c-1.5-1.7-3.7-2.7-6-2.7h-32.2c-4.1,0-7.5,3.1-8,7.1l-4.5,40c-0.3,2.3,0.5,4.5,2,6.2
		c1.5,1.7,3.7,2.7,6,2.7h32.2c4.1,0,7.5-3.1,8-7.1l4.5-40C208.3,6.6,207.6,4.4,206.1,2.7z"/>
</g>
<g>
	<path class="st0" d="M172.6,298.7c-1.5-1.7-3.7-2.7-6-2.7h-32.2c-4.1,0-7.5,3.1-8,7.1l-22.6,200c-0.3,2.3,0.5,4.5,2,6.2
		c1.5,1.7,3.7,2.7,6,2.7h32.2c4.1,0,7.5-3.1,8-7.1l22.6-200C174.9,302.6,174.2,300.4,172.6,298.7z"/>
</g>
<g>
	<g>
		<g>
			<path class="st1" d="M360,408H152c-4.4,0-8-3.6-8-8s3.6-8,8-8h208c4.4,0,8,3.6,8,8S364.4,408,360,408z"/>
		</g>
	</g>
	<g>
		<path class="st2" d="M360,7.1c-0.5-4-3.9-7.1-8-7.1h-32.2c-2.3,0-4.4,1-6,2.7c-1.5,1.7-2.2,4-2,6.2l4.5,40c0.5,4,3.9,7.1,8,7.1
			h32.2c2.3,0,4.4-1,6-2.7c1.5-1.7,2.2-4,2-6.2L360,7.1z"/>
	</g>
	<g>
		<path class="st2" d="M393.4,303.1c-0.5-4-3.9-7.1-8-7.1h-32.2c-2.3,0-4.4,1-6,2.7c-1.5,1.7-2.2,4-2,6.2l22.6,200
			c0.5,4,3.9,7.1,8,7.1H408c2.3,0,4.4-1,6-2.7c1.5-1.7,2.2-4,2-6.2L393.4,303.1z"/>
	</g>
	<g>
		<path class="st2" d="M198.1,2.7c-1.5-1.7-3.7-2.7-6-2.7h-32.2c-4.1,0-7.5,3.1-8,7.1l-4.5,40c-0.3,2.3,0.5,4.5,2,6.2
			c1.5,1.7,3.7,2.7,6,2.7h32.2c4.1,0,7.5-3.1,8-7.1l4.5-40C200.3,6.6,199.6,4.4,198.1,2.7z"/>
	</g>
	<g>
		<path class="st2" d="M164.6,298.7c-1.5-1.7-3.7-2.7-6-2.7h-32.2c-4.1,0-7.5,3.1-8,7.1l-22.6,200c-0.3,2.3,0.5,4.5,2,6.2
			c1.5,1.7,3.7,2.7,6,2.7h32.2c4.1,0,7.5-3.1,8-7.1l22.6-200C166.9,302.6,166.2,300.4,164.6,298.7z"/>
	</g>
	<g>
		<path class="st3" d="M440,40H72c-8.8,0-16,7.2-16,16v240c0,8.8,7.2,16,16,16h368c8.8,0,16-7.2,16-16V56C456,47.2,448.8,40,440,40z
			"/>
	</g>
	<g>
		<g>
			<path class="st1" d="M456,344H56c-4.4,0-8-3.6-8-8s3.6-8,8-8h400c4.4,0,8,3.6,8,8S460.4,344,456,344z"/>
		</g>
	</g>
	<g>
		<g>
			<path class="st1" d="M144,512H88c-4.4,0-8-3.6-8-8s3.6-8,8-8h56c4.4,0,8,3.6,8,8S148.4,512,144,512z"/>
		</g>
	</g>
	<g>
		<g>
			<path class="st1" d="M424,512h-56c-4.4,0-8-3.6-8-8s3.6-8,8-8h56c4.4,0,8,3.6,8,8S428.4,512,424,512z"/>
		</g>
	</g>
	<g>
		<g>
			<path class="st4" d="M344,104H240c-3.5,0-6.6,2.3-7.6,5.6l-33.3,106.5L175.4,157c-1.2-3-4.2-5-7.4-5h-32c-4.4,0-8,3.6-8,8
				s3.6,8,8,8h26.6l30,75c1.2,3,4.2,5,7.4,5c0.1,0,0.2,0,0.3,0c3.4-0.1,6.3-2.4,7.3-5.6L245.9,120H344c4.4,0,8-3.6,8-8
				S348.4,104,344,104z"/>
		</g>
		<g>
			<path class="st4" d="M332.7,145.5c-3.6-2.6-8.6-1.8-11.2,1.8L296,182.4l-25.5-35.1c-2.6-3.6-7.6-4.4-11.2-1.8
				c-3.6,2.6-4.4,7.6-1.8,11.2l28.6,39.3l-28.6,39.3c-2.6,3.6-1.8,8.6,1.8,11.2c1.4,1,3.1,1.5,4.7,1.5c2.5,0,4.9-1.1,6.5-3.3
				l25.5-35.1l25.5,35.1c1.6,2.2,4,3.3,6.5,3.3c1.6,0,3.3-0.5,4.7-1.5c3.6-2.6,4.4-7.6,1.8-11.2L305.9,196l28.6-39.3
				C337.1,153.1,336.3,148.1,332.7,145.5z"/>
		</g>
	</g>
</g>
<g>
	<path class="st5" d="M456.2,296H55.8c-5,0-9,3.5-9,7.7v-0.1c0,4.3,4,7.7,9,7.7h400.4c5,0,9-3.5,9-7.7v0.1
		C465.2,299.5,461.2,296,456.2,296z"/>
</g>
</svg>
