<?xml version="1.0" encoding="utf-8"?>
<!-- Generator: Adobe Illustrator 21.0.2, SVG Export Plug-In . SVG Version: 6.00 Build 0)  -->
<svg version="1.1" id="Layer_1" xmlns="http://www.w3.org/2000/svg" xmlns:xlink="http://www.w3.org/1999/xlink" x="0px" y="0px"
	 viewBox="0 0 512 512" style="enable-background:new 0 0 512 512;" xml:space="preserve">
<style type="text/css">
	.st0{fill:#8A5428;}
	.st1{fill:#7D4B22;}
	.st2{fill:#8FC560;}
	.st3{fill:#73AE43;}
	.st4{fill:#69A03D;}
</style>
<g>
	<path class="st0" d="M322.8,476.7c-8.2,0-33.2,0-33.2-49.8V294.3h-82.9V427c0,49.8-25,49.8-33.2,49.8c-9.2,0-16.6,7.4-16.6,16.6
		s7.4,16.6,16.6,16.6h149.3c9.2,0,16.6-7.4,16.6-16.6S332,476.7,322.8,476.7z"/>
	<path class="st1" d="M322.8,476.7c-8.2,0-33.2,0-33.2-49.8V294.3h-41.5h-41.5V344l18.7-7.5c10.9-4.4,22.7,3.7,22.7,15.4v124.8
		c0,9.2-7.4,16.6-16.6,16.6h-74.6c0,9.2,7.4,16.6,16.6,16.6h74.6h73.8c8.3,0,15.9-5.6,17.2-13.8
		C340.9,485.7,332.9,476.7,322.8,476.7z"/>
	<path class="st2" d="M356,70.4c-5.4,0-10.8,0.4-16.2,1.2C323.7,31.1,284.6,4,239.9,4c-57.6,0-104.8,45.4-107.7,102.3
		c-52.3,11.5-91.4,58.5-91.4,113.4c0,64,52.1,116.1,116.1,116.1c32.8,0,63.6-13.8,85.5-37.6c18.4,13.6,40.5,21,63.8,21
		c20.7,0,40.6-5.9,58-17c60.9-4.2,107.9-54.1,107.9-115.7C472.1,122.4,420,70.4,356,70.4z"/>
	<path class="st3" d="M429.4,96.5c16.3,20,26.2,45.5,26.2,73.4c0,64.1-52,116.1-116.1,116.1c-27.7,0-54.3-8.5-74.2-24.6
		c5-13,7.9-27,7.9-41.8c0-1.7-0.1-3.5-0.2-5.2c43.4-13.9,74.9-54.6,74.9-102.6c0-34-15.8-64.3-40.4-84
		c14.8,18.5,23.8,41.9,23.8,67.5c0,59.5-48.3,107.8-107.8,107.8c-25.5,0-49-8.9-67.5-23.8c19.8,24.6,50,40.4,84,40.4
		c5.3,0,10.4-0.5,15.5-1.2c-7.5,56.9-56.1,100.8-115,100.8c-27.8,0-53.4-9.8-73.4-26.2c21.3,26.1,53.7,42.7,90,42.7
		c49.3,0,91.4-30.8,108.2-74.2c21.3,25.8,54.8,41.1,90.8,41.1c64.1,0,116.1-52,116.1-116.1C472.1,150.2,455.4,117.8,429.4,96.5z"/>
	<g>
		<path class="st4" d="M265.1,261.5c-5.7,14.7-14.3,27.9-25.1,39c0.8-0.8,1.6-1.5,2.4-2.3c18.4,13.6,40.5,21,63.8,21
			c20.7,0,40.6-5.9,58-17c0.1,0,0.2,0,0.4,0c-2.8,0.2-5.7,0.4-8.6,0.4C319.9,302.6,286.5,287.3,265.1,261.5z"/>
	</g>
</g>
</svg>
