<?xml version="1.0" encoding="utf-8"?>
<!-- Generator: Adobe Illustrator 21.0.2, SVG Export Plug-In . SVG Version: 6.00 Build 0)  -->
<svg version="1.1" id="Capa_1" xmlns="http://www.w3.org/2000/svg" xmlns:xlink="http://www.w3.org/1999/xlink" x="0px" y="0px"
	 viewBox="0 0 512 512" style="enable-background:new 0 0 512 512;" xml:space="preserve">
<style type="text/css">
	.st0{fill:#E2E4E6;}
	.st1{fill:#576D7E;}
	.st2{fill:#35495C;}
	.st3{fill:#83BD5A;}
	.st4{fill:#113247;}
	.st5{fill:#6FA04E;}
</style>
<g>
	<g>
		<path class="st0" d="M492.1,244.8c-1.4,0-2.8-0.4-4-1.1L256.6,119.2L25.1,243.7c-3.7,2.2-8.5,1-10.8-2.7c-2.2-3.7-1-8.5,2.7-10.8
			l235.5-125.6c2.5-1.5,5.6-1.5,8.1,0l235.5,125.6c3.7,2.2,4.9,7.1,2.7,10.8C497.4,243.5,494.8,244.8,492.1,244.8z"/>
	</g>
	<g>
		<path class="st1" d="M256.6,119.2c-8.6,0-15.7-7-15.7-15.7c0-4.3-3.5-7.9-7.9-7.9c-4.3,0-7.9,3.5-7.9,7.9
			c0,17.3,14.1,31.4,31.4,31.4c6.4,0,12.3-1.9,17.3-5.2L256.6,119.2z"/>
		<path class="st1" d="M256.6,87.8c8.7,0,15.7,7,15.7,15.7c0,2.6-0.7,4.9-1.7,7.1l0,0l13.4,8.1l0,0c2.5-4.5,4-9.6,4-15.1
			c0-14.6-10-26.8-23.6-30.3V56.4c0-4.3-3.5-7.9-7.9-7.9c-4.3,0-7.9,3.5-7.9,7.9V80C248.7,84.3,252.2,87.8,256.6,87.8z"/>
	</g>
	<path class="st2" d="M256.6,119.2c-7.3,0-13.4-5-15.1-11.8c-0.3,1.3-0.6,2.6-0.6,3.9c0,8.7,7,15.7,15.7,15.7c3.2,0,6.2-1,8.7-2.6
		L256.6,119.2z"/>
	<path class="st1" d="M476.4,221.3V237H36.7v-15.7H5.3v31.4v227.7c0,8.6,7.1,15.7,15.7,15.7h471.1c8.6,0,15.7-7.1,15.7-15.7V252.7
		v-31.4H476.4z"/>
	<g>
		<path class="st2" d="M52.4,464.7c-4.3,0-7.9-3.5-7.9-7.9V284.1c0-4.3,3.5-7.9,7.9-7.9c4.3,0,7.9,3.5,7.9,7.9v172.7
			C60.3,461.2,56.8,464.7,52.4,464.7z"/>
	</g>
	<g>
		<path class="st2" d="M83.8,464.7c-4.3,0-7.9-3.5-7.9-7.9V284.1c0-4.3,3.5-7.9,7.9-7.9c4.3,0,7.9,3.5,7.9,7.9v172.7
			C91.7,461.2,88.2,464.7,83.8,464.7z"/>
	</g>
	<g>
		<path class="st2" d="M115.2,464.7c-4.3,0-7.9-3.5-7.9-7.9V284.1c0-4.3,3.5-7.9,7.9-7.9c4.3,0,7.9,3.5,7.9,7.9v172.7
			C123.1,461.2,119.6,464.7,115.2,464.7z"/>
	</g>
	<g>
		<path class="st2" d="M146.7,464.7c-4.3,0-7.9-3.5-7.9-7.9V284.1c0-4.3,3.5-7.9,7.9-7.9c4.3,0,7.9,3.5,7.9,7.9v172.7
			C154.5,461.2,151,464.7,146.7,464.7z"/>
	</g>
	<g>
		<path class="st2" d="M178.1,464.7c-4.3,0-7.9-3.5-7.9-7.9V284.1c0-4.3,3.5-7.9,7.9-7.9c4.3,0,7.9,3.5,7.9,7.9v172.7
			C185.9,461.2,182.4,464.7,178.1,464.7z"/>
	</g>
	<g>
		<path class="st2" d="M209.5,464.7c-4.3,0-7.9-3.5-7.9-7.9V284.1c0-4.3,3.5-7.9,7.9-7.9c4.3,0,7.9,3.5,7.9,7.9v172.7
			C217.3,461.2,213.8,464.7,209.5,464.7z"/>
	</g>
	<g>
		<path class="st2" d="M240.9,464.7c-4.3,0-7.9-3.5-7.9-7.9V284.1c0-4.3,3.5-7.9,7.9-7.9c4.3,0,7.9,3.5,7.9,7.9v172.7
			C248.7,461.2,245.2,464.7,240.9,464.7z"/>
	</g>
	<g>
		<path class="st2" d="M272.3,464.7c-4.3,0-7.9-3.5-7.9-7.9V284.1c0-4.3,3.5-7.9,7.9-7.9c4.3,0,7.9,3.5,7.9,7.9v172.7
			C280.1,461.2,276.6,464.7,272.3,464.7z"/>
	</g>
	<g>
		<path class="st2" d="M303.7,464.7c-4.3,0-7.9-3.5-7.9-7.9V284.1c0-4.3,3.5-7.9,7.9-7.9c4.3,0,7.9,3.5,7.9,7.9v172.7
			C311.5,461.2,308,464.7,303.7,464.7z"/>
	</g>
	<g>
		<path class="st2" d="M335.1,464.7c-4.3,0-7.9-3.5-7.9-7.9V284.1c0-4.3,3.5-7.9,7.9-7.9c4.3,0,7.9,3.5,7.9,7.9v172.7
			C342.9,461.2,339.4,464.7,335.1,464.7z"/>
	</g>
	<g>
		<path class="st2" d="M429.3,464.7c-4.3,0-7.9-3.5-7.9-7.9V284.1c0-4.3,3.5-7.9,7.9-7.9c4.3,0,7.9,3.5,7.9,7.9v172.7
			C437.1,461.2,433.6,464.7,429.3,464.7z"/>
	</g>
	<g>
		<path class="st2" d="M460.7,464.7c-4.3,0-7.9-3.5-7.9-7.9V284.1c0-4.3,3.5-7.9,7.9-7.9c4.3,0,7.9,3.5,7.9,7.9v172.7
			C468.5,461.2,465,464.7,460.7,464.7z"/>
	</g>
	<g>
		<path class="st2" d="M366.5,464.7c-4.3,0-7.9-3.5-7.9-7.9V284.1c0-4.3,3.5-7.9,7.9-7.9c4.3,0,7.9,3.5,7.9,7.9v172.7
			C374.3,461.2,370.8,464.7,366.5,464.7z"/>
	</g>
	<g>
		<path class="st2" d="M397.9,464.7c-4.3,0-7.9-3.5-7.9-7.9V284.1c0-4.3,3.5-7.9,7.9-7.9c4.3,0,7.9,3.5,7.9,7.9v172.7
			C405.7,461.2,402.2,464.7,397.9,464.7z"/>
	</g>
	<path class="st3" d="M295.8,48.6c0,4.3-3.5,7.9-7.9,7.9h-62.8c-4.3,0-7.9-3.5-7.9-7.9V25c0-4.3,3.5-7.9,7.9-7.9H288
		c4.3,0,7.9,3.5,7.9,7.9V48.6z"/>
	<path class="st4" d="M52.4,276.2c-4.3,0-7.9,3.5-7.9,7.9v172.7c0,4.3,3.5,7.9,7.9,7.9V291.9c0-4.3,3.5-7.9,7.9-7.9
		C60.3,279.8,56.8,276.2,52.4,276.2z"/>
	<path class="st4" d="M83.8,276.2c-4.3,0-7.9,3.5-7.9,7.9v172.7c0,4.3,3.5,7.9,7.9,7.9V291.9c0-4.3,3.5-7.9,7.9-7.9
		C91.7,279.8,88.2,276.2,83.8,276.2z"/>
	<path class="st4" d="M115.2,276.2c-4.3,0-7.9,3.5-7.9,7.9v172.7c0,4.3,3.5,7.9,7.9,7.9V291.9c0-4.3,3.5-7.9,7.9-7.9
		C123.1,279.8,119.6,276.2,115.2,276.2z"/>
	<path class="st4" d="M146.7,276.2c-4.3,0-7.9,3.5-7.9,7.9v172.7c0,4.3,3.5,7.9,7.9,7.9V291.9c0-4.3,3.5-7.9,7.9-7.9
		C154.5,279.8,151,276.2,146.7,276.2z"/>
	<path class="st4" d="M178.1,276.2c-4.3,0-7.9,3.5-7.9,7.9v172.7c0,4.3,3.5,7.9,7.9,7.9V291.9c0-4.3,3.5-7.9,7.9-7.9
		C185.9,279.8,182.4,276.2,178.1,276.2z"/>
	<path class="st4" d="M209.5,276.2c-4.3,0-7.9,3.5-7.9,7.9v172.7c0,4.3,3.5,7.9,7.9,7.9V291.9c0-4.3,3.5-7.9,7.9-7.9
		C217.3,279.8,213.8,276.2,209.5,276.2z"/>
	<path class="st4" d="M240.9,276.2c-4.3,0-7.9,3.5-7.9,7.9v172.7c0,4.3,3.5,7.9,7.9,7.9V291.9c0-4.3,3.5-7.9,7.9-7.9
		C248.7,279.8,245.2,276.2,240.9,276.2z"/>
	<path class="st4" d="M272.3,276.2c-4.3,0-7.9,3.5-7.9,7.9v172.7c0,4.3,3.5,7.9,7.9,7.9V291.9c0-4.3,3.5-7.9,7.9-7.9
		C280.1,279.8,276.6,276.2,272.3,276.2z"/>
	<path class="st4" d="M303.7,276.2c-4.3,0-7.9,3.5-7.9,7.9v172.7c0,4.3,3.5,7.9,7.9,7.9V291.9c0-4.3,3.5-7.9,7.9-7.9
		C311.5,279.8,308,276.2,303.7,276.2z"/>
	<path class="st4" d="M335.1,276.2c-4.3,0-7.9,3.5-7.9,7.9v172.7c0,4.3,3.5,7.9,7.9,7.9V291.9c0-4.3,3.5-7.9,7.9-7.9
		C342.9,279.8,339.4,276.2,335.1,276.2z"/>
	<path class="st4" d="M366.5,276.2c-4.3,0-7.9,3.5-7.9,7.9v172.7c0,4.3,3.5,7.9,7.9,7.9V291.9c0-4.3,3.5-7.9,7.9-7.9
		C374.3,279.8,370.8,276.2,366.5,276.2z"/>
	<path class="st4" d="M397.9,276.2c-4.3,0-7.9,3.5-7.9,7.9v172.7c0,4.3,3.5,7.9,7.9,7.9V291.9c0-4.3,3.5-7.9,7.9-7.9
		C405.7,279.8,402.2,276.2,397.9,276.2z"/>
	<path class="st4" d="M429.3,276.2c-4.3,0-7.9,3.5-7.9,7.9v172.7c0,4.3,3.5,7.9,7.9,7.9V291.9c0-4.3,3.5-7.9,7.9-7.9
		C437.1,279.8,433.6,276.2,429.3,276.2z"/>
	<path class="st4" d="M460.7,276.2c-4.3,0-7.9,3.5-7.9,7.9v172.7c0,4.3,3.5,7.9,7.9,7.9V291.9c0-4.3,3.5-7.9,7.9-7.9
		C468.5,279.8,465,276.2,460.7,276.2z"/>
	<path class="st5" d="M225.2,56.4H288c4.3,0,7.9-3.5,7.9-7.9V25c0-4.3-3.5-7.9-7.9-7.9h-31.4v23.6c0,4.3-3.5,7.9-7.9,7.9h-31.4
		C217.3,52.9,220.9,56.4,225.2,56.4z"/>
	<path class="st2" d="M256.6,56.4h-7.9v7.9c4.3,0,7.9,3.5,7.9,7.9v1.1h7.9V56.4H256.6z"/>
</g>
</svg>
