<svg id="Capa_1" enable-background="new 0 0 512 512" height="512" viewBox="0 0 512 512" width="512" xmlns="http://www.w3.org/2000/svg"><path d="m467.538 108.803v34.697h-423.076v-34.697c0-.927-.752-1.679-1.679-1.679h-33.604c-.927 0-1.679.752-1.679 1.679v124.998c0 .927.752 1.679 1.679 1.679h33.604c.927 0 1.679-.752 1.679-1.679v-34.697h423.076v34.697c0 .927.752 1.679 1.679 1.679h33.604c.927 0 1.679-.752 1.679-1.679v-124.998c0-.927-.752-1.679-1.679-1.679h-33.604c-.927 0-1.679.751-1.679 1.679z" fill="#8eaadf"/><path d="m467.538 345.016v34.697h-423.076v-34.697c0-.927-.752-1.679-1.679-1.679h-33.604c-.927 0-1.679.752-1.679 1.679v124.998c0 .927.752 1.679 1.679 1.679h33.604c.927 0 1.679-.752 1.679-1.679v-34.697h423.076v34.697c0 .927.752 1.679 1.679 1.679h33.604c.927 0 1.679-.752 1.679-1.679v-124.998c0-.927-.752-1.679-1.679-1.679h-33.604c-.927 0-1.679.751-1.679 1.679z" fill="#8eaadf"/><path d="m502.821 107.124h-33.604c-.927 0-1.679.752-1.679 1.679v34.697h-3.038c0 19.663-15.94 35.604-35.604 35.604h-421.396v54.697c0 .927.752 1.679 1.679 1.679h33.604c.927 0 1.679-.752 1.679-1.679v-34.697h423.076v34.697c0 .927.752 1.679 1.679 1.679h33.604c.927 0 1.679-.752 1.679-1.679v-124.998c0-.928-.752-1.679-1.679-1.679z" fill="#698ed5"/><path d="m502.821 343.337h-33.604c-.927 0-1.679.752-1.679 1.679v34.697h-3.038c0 19.663-15.94 35.604-35.604 35.604h-421.396v54.697c0 .927.752 1.679 1.679 1.679h33.604c.927 0 1.679-.752 1.679-1.679v-34.697h423.076v34.697c0 .927.752 1.679 1.679 1.679h33.604c.927 0 1.679-.752 1.679-1.679v-124.998c0-.928-.752-1.679-1.679-1.679z" fill="#698ed5"/><g fill="#d3ced5"><path d="m38.628 512h-25.294c-.927 0-1.679-.752-1.679-1.679v-38.628h28.652v38.628c0 .927-.752 1.679-1.679 1.679z"/><path d="m473.372 512h25.294c.927 0 1.679-.752 1.679-1.679v-38.628h-28.652v38.628c0 .927.752 1.679 1.679 1.679z"/><path d="m40.307 107.124h-28.652v-105.445c0-.927.752-1.679 1.679-1.679h25.294c.927 0 1.679.752 1.679 1.679z"/><path d="m471.693 107.124h28.652v-105.445c0-.927-.752-1.679-1.679-1.679h-25.294c-.927 0-1.679.752-1.679 1.679z"/><path d="m11.655 235.48h28.652v107.856h-28.652z"/><path d="m471.693 235.48h28.652v107.856h-28.652z" transform="matrix(-1 0 0 -1 972.038 578.817)"/></g><path d="m210.064 379.713h-128.881c-.828 0-1.5-.672-1.5-1.5v-128.881c0-.828.672-1.5 1.5-1.5h128.881c.828 0 1.5.672 1.5 1.5v128.881c0 .828-.671 1.5-1.5 1.5z" fill="#e4989d"/><path d="m145.624 273.386c-4.142 0-7.5 3.358-7.5 7.5v98.827h15v-98.827c0-4.142-3.358-7.5-7.5-7.5z" fill="#dd636e"/><path d="m341.946 379.713h-128.882c-.828 0-1.5-.672-1.5-1.5v-128.881c0-.828.672-1.5 1.5-1.5h128.881c.828 0 1.5.672 1.5 1.5v128.881c.001.828-.671 1.5-1.499 1.5z" fill="#ce9875"/><path d="m430.817 379.713h-85.871c-.828 0-1.5-.672-1.5-1.5v-85.871c0-.828.672-1.5 1.5-1.5h85.871c.828 0 1.5.672 1.5 1.5v85.871c0 .828-.672 1.5-1.5 1.5z" fill="#958b95"/><path d="m210.064 143.5h-128.881c-.828 0-1.5-.672-1.5-1.5v-128.881c0-.828.672-1.5 1.5-1.5h128.881c.828 0 1.5.672 1.5 1.5v128.881c0 .828-.671 1.5-1.5 1.5z" fill="#ce9875"/><path d="m210.064 247.832h-38.5v71.888c0 22.088-17.906 39.994-39.994 39.994h-51.887v18.5c0 .828.672 1.5 1.5 1.5h128.881c.828 0 1.5-.672 1.5-1.5v-128.882c0-.829-.671-1.5-1.5-1.5z" fill="#dd636e"/><path d="m138.124 359.178v20.534h15v-26.299c-4.471 2.867-9.55 4.867-15 5.765z" fill="#dd636e"/><path d="m341.946 247.832h-38.5v71.888c0 22.088-17.906 39.994-39.994 39.994h-51.887v18.5c0 .828.672 1.5 1.5 1.5h128.881c.828 0 1.5-.672 1.5-1.5v-128.882c0-.829-.672-1.5-1.5-1.5z" fill="#c6865c"/><path d="m210.064 11.619h-38.5v71.887c0 22.088-17.906 39.994-39.994 39.994h-51.887v18.5c0 .828.672 1.5 1.5 1.5h128.881c.828 0 1.5-.672 1.5-1.5v-128.881c0-.829-.671-1.5-1.5-1.5z" fill="#c6865c"/><path d="m430.817 143.5h-128.881c-.828 0-1.5-.672-1.5-1.5v-48.791h131.881v48.791c0 .828-.672 1.5-1.5 1.5z" fill="#f9ef63"/><path d="m430.817 67.327h-128.881c-.828 0-1.5.672-1.5 1.5v24.382h131.881v-24.382c-.586-.586-.914-.914-1.5-1.5z" fill="#f9ef63"/><path d="m294.743 293.455h-34.477c-1.133 0-2.052-.919-2.052-2.052v-43.572h38.58v43.572c.001 1.134-.917 2.052-2.051 2.052z" fill="#ecd5c6"/><path d="m405.12 329.422h-34.477c-1.133 0-2.052-.919-2.052-2.052v-36.529h38.58v36.529c0 1.133-.918 2.052-2.051 2.052z" fill="#ecd5c6"/><path d="m298.936 143.5h-85.871c-.828 0-1.5-.672-1.5-1.5v-85.871c0-.828.672-1.5 1.5-1.5h85.871c.828 0 1.5.672 1.5 1.5v85.871c0 .828-.672 1.5-1.5 1.5z" fill="#e4989d"/><path d="m273.239 93.209h-34.477c-1.133 0-2.052-.919-2.052-2.052v-36.528h38.58v36.529c0 1.133-.918 2.051-2.051 2.051z" fill="#ecd5c6"/><path d="m296.795 379.713h-38.58v-43.572c0-1.133.919-2.052 2.052-2.052h34.477c1.133 0 2.052.919 2.052 2.052v43.572z" fill="#ecd5c6"/><path d="m263.452 359.713h-5.237v20h38.58v-37.903c-7.163 10.79-19.422 17.903-33.343 17.903z" fill="#dfb9a2"/><path d="m165.941 94.798v-34.477c0-1.133.919-2.052 2.052-2.052h43.572v38.58h-43.572c-1.134.001-2.052-.918-2.052-2.051z" fill="#ecd5c6"/><path d="m171.564 83.506c0 4.679-.804 9.17-2.28 13.343h42.28v-38.58h-40z" fill="#dfb9a2"/><path d="m79.683 96.85v-38.58h43.572c1.133 0 2.052.919 2.052 2.052v34.477c0 1.133-.919 2.052-2.052 2.052h-43.572z" fill="#ecd5c6"/><path d="m112.137 280.285c.385.385.907.601 1.451.601h64.073c.544 0 1.066-.216 1.451-.601l32.014-32.014c-.271-.271-.646-.439-1.061-.439h-128.684c-.469 0-.893.19-1.201.497z" fill="#eab1b7"/><path d="m154.383 178.802h-109.921c-4.142 0-7.5-3.358-7.5-7.5s3.358-7.5 7.5-7.5h109.921c4.142 0 7.5 3.358 7.5 7.5s-3.358 7.5-7.5 7.5zm164.077-7.5c0-4.142-3.358-7.5-7.5-7.5h-109.92c-4.142 0-7.5 3.358-7.5 7.5s3.358 7.5 7.5 7.5h109.92c4.143 0 7.5-3.358 7.5-7.5zm156.578 0c0-4.142-3.358-7.5-7.5-7.5h-109.921c-4.142 0-7.5 3.358-7.5 7.5s3.358 7.5 7.5 7.5h109.921c4.142 0 7.5-3.358 7.5-7.5z" fill="#4073c8"/><path d="m154.383 415.015h-109.921c-4.142 0-7.5-3.358-7.5-7.5s3.358-7.5 7.5-7.5h109.921c4.142 0 7.5 3.358 7.5 7.5s-3.358 7.5-7.5 7.5zm164.077-7.5c0-4.142-3.358-7.5-7.5-7.5h-109.92c-4.142 0-7.5 3.358-7.5 7.5s3.358 7.5 7.5 7.5h109.92c4.143 0 7.5-3.358 7.5-7.5zm156.578 0c0-4.142-3.358-7.5-7.5-7.5h-109.921c-4.142 0-7.5 3.358-7.5 7.5s3.358 7.5 7.5 7.5h109.921c4.142 0 7.5-3.358 7.5-7.5z" fill="#4073c8"/><path d="m406.884 125.854h-25.832c-4.142 0-7.5-3.358-7.5-7.5s3.358-7.5 7.5-7.5h25.832c4.142 0 7.5 3.358 7.5 7.5s-3.358 7.5-7.5 7.5z" fill="#f9ef63"/></svg>