<svg id="Capa_1" enable-background="new 0 0 512 512" height="512" viewBox="0 0 512 512" width="512" xmlns="http://www.w3.org/2000/svg"><path d="m169.618 511.987h-167.667c-1.078 0-1.951-.874-1.951-1.951v-167.667c0-1.078.874-1.951 1.951-1.951h167.667c1.078 0 1.951.874 1.951 1.951v167.667c0 1.077-.873 1.951-1.951 1.951z" fill="#e4989d"/><g fill="#dd636e"><path d="m85.785 375.693c-4.267 0-7.726 3.459-7.726 7.726v128.568h15.453v-128.568c-.001-4.267-3.46-7.726-7.727-7.726z"/><path d="m169.618 340.417h-39.256v100.848c0 27.679-22.439 50.118-50.118 50.118h-80.244v18.652c0 1.078.874 1.951 1.951 1.951h167.666c1.078 0 1.951-.874 1.951-1.951v-167.666c.001-1.078-.872-1.952-1.95-1.952z"/><path d="m93.511 489.608c-4.226 1.157-8.674 1.776-13.267 1.776h-2.186v20.604h15.453c0-.001 0-22.38 0-22.38z"/></g><path d="m341.187 511.987h-167.666c-1.078 0-1.951-.874-1.951-1.951v-167.667c0-1.078.874-1.951 1.951-1.951h167.666c1.078 0 1.951.874 1.951 1.951v167.667c.001 1.077-.873 1.951-1.951 1.951z" fill="#ce9875"/><path d="m341.187 340.417h-39.256v109.613c0 22.838-18.514 41.352-41.352 41.352h-89.01v18.652c0 1.078.874 1.951 1.951 1.951h167.667c1.078 0 1.951-.874 1.951-1.951v-167.665c.001-1.078-.873-1.952-1.951-1.952z" fill="#c6865c"/><path d="m169.49 340.417h-119.052c-1.149 0-2.08-.931-2.08-2.08v-119.051c0-1.149.931-2.08 2.08-2.08h119.052c1.149 0 2.08.931 2.08 2.08v119.052c-.001 1.148-.932 2.079-2.08 2.079z" fill="#ce9875"/><path d="m279.78 399.771h-44.853c-1.474 0-2.669-1.195-2.669-2.669v-56.685h50.191v56.685c0 1.474-1.195 2.669-2.669 2.669z" fill="#ecd5c6"/><path d="m123.561 270.694h-27.195c-1.571 0-2.844-1.274-2.844-2.844v-50.644h32.884v50.644c0 1.57-1.274 2.844-2.845 2.844z" fill="#ecd5c6"/><path d="m464.27 145.092h-119.052c-1.149 0-2.08-.931-2.08-2.08v-140.919c0-1.149.931-2.08 2.08-2.08h119.052c1.149 0 2.08.931 2.08 2.08v140.92c0 1.148-.931 2.079-2.08 2.079z" fill="#ce9875"/><path d="m169.49 217.206h-39.128v60.026c0 23.517-19.064 42.582-42.582 42.582h-39.422v18.524c0 1.148.931 2.08 2.08 2.08h119.052c1.149 0 2.08-.931 2.08-2.08v-119.052c-.001-1.149-.932-2.08-2.08-2.08z" fill="#c6865c"/><path d="m464.27.013h-39.128v81.894c0 23.517-19.064 42.582-42.582 42.582h-39.422v18.524c0 1.149.931 2.08 2.08 2.08h119.052c1.148 0 2.08-.931 2.08-2.08v-140.92c0-1.149-.931-2.08-2.08-2.08z" fill="#c6865c"/><path d="m418.342 53.501h-27.195c-1.571 0-2.844-1.274-2.844-2.844v-50.644h32.884v50.644c-.001 1.571-1.274 2.844-2.845 2.844z" fill="#ecd5c6"/><path d="m418.342 91.604h-27.195c-1.571 0-2.844 1.274-2.844 2.844v50.644h32.884v-50.643c-.001-1.571-1.274-2.845-2.845-2.845z" fill="#ecd5c6"/><path d="m388.302 124.104v20.988h32.884v-45.237c-6 12.892-18.266 22.279-32.884 24.249z" fill="#dfb9a2"/><path d="m282.449 511.987h-50.191v-56.685c0-1.474 1.195-2.669 2.669-2.669h44.853c1.474 0 2.669 1.195 2.669 2.669z" fill="#ecd5c6"/><path d="m260.579 491.383h-28.32v20.604h50.191v-26.854c-6.345 3.961-13.841 6.25-21.871 6.25z" fill="#dfb9a2"/><path d="m42.22 382.637c.501.501 1.179.782 1.887.782h83.355c.708 0 1.387-.281 1.887-.782l41.649-41.648c-.353-.353-.841-.572-1.38-.572h-167.409c-.61 0-1.162.247-1.562.647z" fill="#eab1b7"/><path d="m341.187 340.417h-167.666c-1.078 0-1.951-.874-1.951-1.951v-167.667c0-1.078.874-1.951 1.951-1.951h167.666c1.078 0 1.951.874 1.951 1.951v167.667c.001 1.078-.873 1.951-1.951 1.951z" fill="#8eaadf"/><path d="m257.354 204.124c-4.267 0-7.726 3.459-7.726 7.726v128.567h15.453v-128.567c-.001-4.267-3.46-7.726-7.727-7.726z" fill="#698ed5"/><path d="m341.187 168.848h-39.256v100.848c0 27.679-22.439 50.118-50.118 50.118h-80.244v18.652c0 1.078.874 1.951 1.951 1.951h167.667c1.078 0 1.951-.874 1.951-1.951v-167.667c.001-1.077-.873-1.951-1.951-1.951z" fill="#698ed5"/><path d="m251.813 319.814h-2.186v20.604h15.453v-22.379c-4.225 1.156-8.674 1.775-13.267 1.775z" fill="#4073c8"/><path d="m213.789 211.068c.501.501 1.179.782 1.887.782h83.355c.708 0 1.387-.281 1.887-.782l41.649-41.649c-.353-.353-.841-.572-1.38-.572h-167.409c-.61 0-1.162.247-1.562.647z" fill="#b7c8ea"/><path d="m508.675 145.092h-162.211c-1.836 0-3.325 1.489-3.325 3.325v360.244c0 1.836 1.489 3.325 3.325 3.325h162.209c1.838 0 3.327-1.49 3.327-3.327v-360.241c0-1.837-1.489-3.326-3.325-3.326z" fill="#d3ced5"/><path d="m508.675 145.092h-37.882v314.209c0 17.718-14.363 32.082-32.082 32.082h-95.572v17.278c0 1.836 1.489 3.325 3.325 3.325h162.209c1.838 0 3.328-1.49 3.328-3.327v-360.241c-.001-1.837-1.49-3.326-3.326-3.326z" fill="#c3bec6"/><path d="m341.593 168.848h-132.771c-.853 0-1.545-.692-1.545-1.545v-50.263h135.862v50.263c0 .853-.692 1.545-1.546 1.545z" fill="#f9ef63"/><path d="m301.931 117.039v7.846c0 12.901-10.458 23.359-23.359 23.359h-71.295v19.058c0 .853.692 1.545 1.545 1.545h132.771c.853 0 1.545-.692 1.545-1.545v-50.263z" fill="#f6e738"/><path d="m341.593 90.376h-132.771c-.853 0-1.545.692-1.545 1.545v25.118h135.862v-25.118c-.604-.603-.942-.942-1.546-1.545z" fill="#f9ef63"/><path d="m341.593 90.376h-41.207c.603.603.942.942 1.545 1.545v25.118h41.207v-25.118c-.603-.603-.941-.942-1.545-1.545z" fill="#fff9c1"/><path d="m414.124 145.092h26.89v366.894h-26.89z" fill="#958b95"/><path d="m438.711 491.383h-24.587v20.604h26.89v-20.686c-.76.054-1.528.082-2.303.082z" fill="#868086"/><path d="m316.938 150.67h-26.611c-4.267 0-7.726-3.459-7.726-7.726s3.459-7.726 7.726-7.726h26.611c4.267 0 7.726 3.459 7.726 7.726s-3.459 7.726-7.726 7.726z" fill="#f9ef63"/><path d="m316.938 135.217h-17.41c-3.016 6.106-8.623 10.704-15.385 12.359 1.409 1.879 3.655 3.094 6.184 3.094h26.611c4.267 0 7.726-3.459 7.726-7.726s-3.459-7.727-7.726-7.727z" fill="#fff9c1"/></svg>