<?xml version="1.0" encoding="utf-8"?>
<!-- Generator: Adobe Illustrator 21.0.2, SVG Export Plug-In . SVG Version: 6.00 Build 0)  -->
<svg version="1.1" id="Layer_1" xmlns="http://www.w3.org/2000/svg" xmlns:xlink="http://www.w3.org/1999/xlink" x="0px" y="0px"
	 viewBox="0 0 512 512" style="enable-background:new 0 0 512 512;" xml:space="preserve">
<style type="text/css">
	.st0{fill:#6FA04E;}
	.st1{fill:#83BD5A;}
	.st2{fill:#A0CE6A;}
</style>
<g>
	<path class="st0" d="M512.6,329l-4.1-14.3L82,454.6l4.1,14.3c4.5,15.7,20.1,24.7,34.8,19.8l373.2-122.4
		C508.8,361.5,517.1,344.7,512.6,329z"/>
	<path class="st1" d="M508.5,314.7l-4.1-14.3L77.9,440.3l4.1,14.3c4.5,15.7,20.1,24.7,34.8,19.8L490,352.1
		C504.7,347.2,513,330.4,508.5,314.7z"/>
	<path class="st0" d="M504.5,300.4l-4.1-14.3L73.9,426l4.1,14.3c4.5,15.7,20.1,24.7,34.8,19.8l373.2-122.4
		C500.6,332.9,508.9,316.2,504.5,300.4z"/>
	<path class="st1" d="M500.4,286.1l-4.1-14.3L69.8,411.7l4.1,14.3c4.5,15.7,20.1,24.7,34.8,19.8l373.2-122.4
		C496.5,318.7,504.9,301.9,500.4,286.1z"/>
	<g>
		<g>
			<path class="st1" d="M108.9,398.9c-6.9,2.3-14.1-1.6-16.1-8.6l-58-203.3c-2-7,2-14.5,8.8-16.8L392,56c6.9-2.2,14.1,1.6,16.1,8.6
				l58,203.3c2,7-2,14.5-8.8,16.8L108.9,398.9z"/>
		</g>
		<path class="st0" d="M184.3,251.2c11.2,39.5,50.2,61.7,87,49.6c36.8-12.1,57.5-53.8,46.3-93.3c-11.2-39.5-50.2-61.7-87-49.6
			C193.8,169.9,173.1,211.7,184.3,251.2z M291,216.2c6.7,23.6-5.7,48.7-27.8,56c-22.1,7.2-45.4-6.1-52.2-29.8
			c-6.7-23.7,5.7-48.7,27.8-56C260.9,179.2,284.2,192.5,291,216.2z"/>
		<path class="st0" d="M157.7,259.9c3.4,11.8-2.8,24.4-13.9,28c-11.1,3.6-22.7-3.1-26.1-14.9c-3.4-11.9,2.8-24.4,13.9-28
			C142.6,241.4,154.3,248.1,157.7,259.9z"/>
		<path class="st0" d="M384.3,185.6c3.4,11.8-2.8,24.4-13.9,28c-11.1,3.6-22.7-3.1-26.1-14.9c-3.4-11.9,2.8-24.4,13.9-28
			C369.2,167.1,380.9,173.8,384.3,185.6z"/>
		<path class="st2" d="M291,216.2c6.7,23.6-5.7,48.7-27.8,56c-22.1,7.2-45.4-6.1-52.2-29.8c-6.7-23.7,5.7-48.7,27.8-56
			C260.9,179.2,284.2,192.5,291,216.2z"/>
		<path class="st0" d="M396.3,23.3L23.1,145.7c-14.7,4.8-23,21.6-18.5,37.3l65.2,228.7c4.5,15.7,20.1,24.7,34.8,19.8l373.2-122.4
			c14.7-4.8,23-21.6,18.5-37.3L431.1,43.1C426.6,27.4,411,18.5,396.3,23.3z M424.5,295.4l-283,92.8c-11.9-22.4-34.9-35.5-58.9-33.6
			L45,222.6c20.9-12.8,33.1-37.5,31.3-63.2l283-92.8c11.9,22.4,34.9,35.5,58.9,33.6l37.6,131.9C435,245,422.8,269.7,424.5,295.4z"/>
	</g>
</g>
</svg>
