<?xml version="1.0" encoding="utf-8"?>
<!-- Generator: Adobe Illustrator 25.1.0, SVG Export Plug-In . SVG Version: 6.00 Build 0)  -->
<svg version="1.1" id="Layer_1" xmlns="http://www.w3.org/2000/svg" xmlns:xlink="http://www.w3.org/1999/xlink" x="0px" y="0px"
	 viewBox="0 0 841.9 365.6" style="enable-background:new 0 0 841.9 365.6;" xml:space="preserve">
<style type="text/css">
	.st0{fill:#F99D3E;}
	.st1{fill:#6DC8BF;}
	.st2{fill:#FEC340;}
	.st3{fill:#F58120;}
	.st4{fill:#75AA42;}
	.st5{fill:#FFFFFF;}
</style>
<g>
	<circle class="st0" cx="181" cy="182.8" r="172.2"/>
	<circle class="st1" cx="660.3" cy="182.8" r="172.2"/>
	<circle class="st2" cx="420.7" cy="182.8" r="172.2"/>
	<ellipse class="st3" cx="300.9" cy="182.8" rx="52.4" ry="123.6"/>
	<ellipse class="st4" cx="540.5" cy="182.8" rx="52.4" ry="123.6"/>
	<g>
		<path class="st5" d="M186.7,68.2c31.7,0,58.1,11,79.4,32.9c21.3,21.9,31.9,49.2,31.9,81.7c0,32.5-10.6,59.8-31.9,81.7
			c-21.3,21.9-47.8,32.9-79.4,32.9H95V68.2H186.7z M186.7,246.9c18.1,0,32.8-5.8,44-17.5c11.2-11.7,16.9-27.2,16.9-46.7
			c0-19.4-5.6-35-16.9-46.7c-11.2-11.7-25.9-17.5-44-17.5h-39.3v128.4H186.7z"/>
		<path class="st5" d="M420.4,68.2c31.7,0,58.1,11,79.4,32.9c21.3,21.9,31.9,49.2,31.9,81.7c0,32.5-10.6,59.8-31.9,81.7
			c-21.3,21.9-47.8,32.9-79.4,32.9h-91.7V68.2H420.4z M420.4,246.9c18.1,0,32.8-5.8,44-17.5c11.2-11.7,16.9-27.2,16.9-46.7
			c0-19.4-5.6-35-16.9-46.7c-11.2-11.7-25.9-17.5-44-17.5h-39.3v128.4H420.4z"/>
		<path class="st5" d="M744.8,267.6c-23.1,22.9-51.3,34.4-84.5,34.4c-33.2,0-61.3-11.5-84.5-34.4c-23.1-22.9-34.7-51.2-34.7-84.8
			c0-33.6,11.6-61.9,34.7-84.8C599,75,627.1,63.6,660.3,63.6c33.2,0,61.3,11.5,84.5,34.4c23.1,22.9,34.7,51.2,34.7,84.8
			C779.5,216.4,767.9,244.7,744.8,267.6z M612.7,231.9c12.8,12.7,28.7,19,47.6,19c19,0,34.9-6.3,47.6-19
			c12.8-12.7,19.2-29,19.2-49.1c0-20.1-6.4-36.5-19.2-49.1c-12.8-12.7-28.7-19-47.6-19c-19,0-34.9,6.3-47.6,19
			c-12.8,12.7-19.2,29-19.2,49.1C593.5,202.9,599.9,219.2,612.7,231.9z"/>
	</g>
	<rect x="168.3" y="158.5" class="st0" width="171.6" height="55"/>
	<rect x="577.4" y="158.5" class="st1" width="128.9" height="55"/>
	<rect x="339.8" y="158.5" class="st2" width="237.5" height="55"/>
	<g>
		<path class="st5" d="M193.1,173.6c8.6,0,14.3,5.5,14.3,13.8c0,8.3-5.7,13.8-14.3,13.8h-11.4v-27.6H193.1z M187.3,178.7V196h5.8
			c5.8,0,8.6-3.6,8.6-8.7c0-5.1-2.8-8.7-8.6-8.7H187.3z"/>
		<path class="st5" d="M218.2,175.8c0,1.9-1.4,3.3-3.3,3.3s-3.3-1.4-3.3-3.3c0-1.9,1.4-3.3,3.3-3.3S218.2,173.9,218.2,175.8z
			 M217.5,201.2h-5.1V182h5.1V201.2z"/>
		<path class="st5" d="M239.9,191.1c0,6.9-4.1,10.5-9.9,10.5c-4.6,0-7.3-2-8.8-3.8l3.2-4c1.1,1.4,2.8,2.6,5.4,2.6
			c2.9,0,4.7-1.8,4.7-5.8v-17h5.5V191.1z"/>
		<path class="st5" d="M251.8,175.8c0,1.9-1.4,3.3-3.3,3.3c-1.9,0-3.3-1.4-3.3-3.3c0-1.9,1.4-3.3,3.3-3.3
			C250.4,172.5,251.8,173.9,251.8,175.8z M251.1,201.2H246V182h5.1V201.2z"/>
		<path class="st5" d="M277.4,178.7h-8.6v22.5h-5.5v-22.5h-8.6v-5.1h22.6V178.7z"/>
		<path class="st5" d="M304.6,201.2h-5.9l-2.4-6.4h-11.8l-2.4,6.4h-5.7l10.7-27.6h6.7L304.6,201.2z M286.5,189.7h8l-4-10.7
			L286.5,189.7z"/>
		<path class="st5" d="M328.7,201.2h-20.1v-27.6h5.5V196h14.6V201.2z"/>
		<path class="st5" d="M363.8,173.6c8.6,0,14.3,5.5,14.3,13.8c0,8.3-5.7,13.8-14.3,13.8h-11.4v-27.6H363.8z M357.9,178.7V196h5.8
			c5.8,0,8.6-3.6,8.6-8.7c0-5.1-2.8-8.7-8.6-8.7H357.9z"/>
		<path class="st5" d="M411.2,187.4c0,8.2-6,14.3-14.5,14.3c-8.5,0-14.5-6.1-14.5-14.3c0-8.2,6-14.3,14.5-14.3
			C405.1,173,411.2,179.1,411.2,187.4z M387.9,187.4c0,5.4,3.7,9,8.8,9c5.1,0,8.8-3.7,8.8-9s-3.7-9-8.8-9
			C391.6,178.3,387.9,182,387.9,187.4z M395.7,168.3c0,1.9-1.5,3.3-3.3,3.3s-3.3-1.4-3.3-3.3s1.4-3.3,3.3-3.3
			S395.7,166.5,395.7,168.3z M404.2,168.3c0,1.9-1.5,3.3-3.3,3.3c-1.9,0-3.3-1.4-3.3-3.3s1.4-3.3,3.3-3.3
			C402.7,165,404.2,166.5,404.2,168.3z"/>
		<path class="st5" d="M441.2,201.2H436l-14-18.4l0,18.4h-5.5v-27.6h5.1l14,18.4v-18.4h5.5V201.2z"/>
		<path class="st5" d="M471.3,190.1c0,7.6-4.9,11.5-11.9,11.5s-11.9-3.9-11.9-11.5v-16.6h5.5v16.3c0,4.5,2.6,6.5,6.4,6.5
			s6.4-2,6.4-6.5v-16.3h5.5V190.1z M458.5,168.3c0,1.9-1.5,3.3-3.3,3.3c-1.9,0-3.3-1.4-3.3-3.3s1.4-3.3,3.3-3.3
			C457,165,458.5,166.5,458.5,168.3z M467,168.3c0,1.9-1.5,3.3-3.3,3.3c-1.9,0-3.3-1.4-3.3-3.3s1.4-3.3,3.3-3.3
			C465.5,165,467,166.5,467,168.3z"/>
		<path class="st5" d="M496.4,180.5c-2.2-1.3-4.8-2.3-7.8-2.3c-3.1,0-5.3,1.2-5.3,3.3c0,2,2.4,2.6,5.7,3.2l1.6,0.3
			c4.9,0.8,8.8,2.9,8.8,7.7c0,5.1-3.8,8-8.5,8.8l-1.9,6.1h-5.3l2-6c-3.5-0.4-6.9-1.5-9.3-3.5l2.9-4.4c2,1.6,5.2,3,8.8,3
			c3.1,0,5.4-1.2,5.4-3.3c0-1.9-2-2.6-5.9-3.2l-1.8-0.3c-4.9-0.8-8.4-2.9-8.4-7.9c0-5.8,5.1-8.8,11-8.8c3.9,0,7.1,0.9,10.5,2.9
			L496.4,180.5z"/>
		<path class="st5" d="M528,190.1c0,7.6-4.9,11.5-11.9,11.5s-11.9-3.9-11.9-11.5v-16.6h5.5v16.3c0,4.5,2.6,6.5,6.4,6.5
			s6.4-2,6.4-6.5v-16.3h5.5V190.1z M515.2,168.3c0,1.9-1.5,3.3-3.3,3.3c-1.9,0-3.3-1.4-3.3-3.3s1.4-3.3,3.3-3.3
			C513.7,165,515.2,166.5,515.2,168.3z M523.7,168.3c0,1.9-1.5,3.3-3.3,3.3c-1.9,0-3.3-1.4-3.3-3.3s1.4-3.3,3.3-3.3
			C522.2,165,523.7,166.5,523.7,168.3z"/>
		<path class="st5" d="M564.8,201.2h-5.5v-20.8l-6.8,18.2h-5.8l-6.8-18v20.7h-5.5v-27.6h8.1l7.2,18.6l7.2-18.6h8.1V201.2z"/>
		<path class="st5" d="M619.5,187.4c0,8.2-6,14.3-14.5,14.3s-14.5-6.1-14.5-14.3c0-8.2,6-14.3,14.5-14.3S619.5,179.1,619.5,187.4z
			 M596.2,187.4c0,5.4,3.7,9,8.8,9c5.1,0,8.8-3.7,8.8-9s-3.7-9-8.8-9C599.9,178.3,596.2,182,596.2,187.4z"/>
		<path class="st5" d="M644.2,190h-13.8v11.2h-5.5v-27.6h20.3v5.1h-14.8v6.3h13.8V190z"/>
		<path class="st5" d="M655.9,175.8c0,1.9-1.4,3.3-3.3,3.3s-3.3-1.4-3.3-3.3c0-1.9,1.4-3.3,3.3-3.3S655.9,173.9,655.9,175.8z
			 M655.2,201.2h-5.1V182h5.1V201.2z"/>
		<path class="st5" d="M680.2,180.5c-2.2-1.3-4.8-2.3-7.8-2.3c-3.1,0-5.3,1.2-5.3,3.3c0,2,2.4,2.6,5.7,3.2l1.6,0.3
			c4.9,0.8,8.8,2.9,8.8,7.7c0,6.1-5.4,9-11.3,9c-4.2,0-8.7-1.2-11.6-3.6l2.9-4.4c2,1.6,5.2,3,8.8,3c3.1,0,5.4-1.2,5.4-3.3
			c0-1.9-2-2.6-5.9-3.2l-1.8-0.3c-4.9-0.8-8.4-2.9-8.4-7.9c0-5.8,5.1-8.8,11-8.8c3.9,0,7.1,0.9,10.5,2.9L680.2,180.5z"/>
		<path class="st5" d="M693.9,175.8c0,1.9-1.4,3.3-3.3,3.3s-3.3-1.4-3.3-3.3c0-1.9,1.4-3.3,3.3-3.3S693.9,173.9,693.9,175.8z
			 M693.2,201.2h-5.1V182h5.1V201.2z"/>
	</g>
</g>
</svg>
