<svg xmlns="http://www.w3.org/2000/svg" viewBox="0 0 49.8 58.2"><defs><style>.cls-1{fill:#5ea5d6;}.cls-1,.cls-2,.cls-4{fill-rule:evenodd;}.cls-2{fill:#498cbb;}.cls-3{fill:#fff;}.cls-4{fill:#95cdf1;}</style></defs><g id="katman_2" data-name="katman 2"><g id="katman_1-2" data-name="katman 1"><path class="cls-1" d="M6.53,0H32.92L49.8,16.71v35a6.55,6.55,0,0,1-6.53,6.52H6.53A6.55,6.55,0,0,1,0,51.68V6.53A6.55,6.55,0,0,1,6.53,0Z"/><polygon class="cls-2" points="35.32 15.18 49.8 28.55 49.8 16.71 45.89 12.84 35.32 15.18 35.32 15.18"/><path class="cls-3" d="M8.35,49.58V36.78h4.13a5.78,5.78,0,0,1,4.23,1.53,5.4,5.4,0,0,1,1.56,4V44a5.39,5.39,0,0,1-1.56,4,5.89,5.89,0,0,1-4.27,1.51Zm2.57-10.82v8.85h1.39a3.21,3.21,0,0,0,2.57-1A4,4,0,0,0,15.69,44V42.34a4,4,0,0,0-.8-2.64,3.16,3.16,0,0,0-2.54-.94Zm19.79,5.57a5.45,5.45,0,0,1-1.47,3.91,5.2,5.2,0,0,1-3.9,1.53,5.12,5.12,0,0,1-3.86-1.53A5.44,5.44,0,0,1,20,44.33V42a5.43,5.43,0,0,1,1.45-3.9,5.05,5.05,0,0,1,3.86-1.53,5.15,5.15,0,0,1,3.89,1.53A5.41,5.41,0,0,1,30.71,42v2.3ZM28.14,42a3.88,3.88,0,0,0-.74-2.45,2.45,2.45,0,0,0-2.06-1,2.39,2.39,0,0,0-2,.95A4,4,0,0,0,22.59,42v2.32a4,4,0,0,0,.71,2.49,2.42,2.42,0,0,0,2,1,2.47,2.47,0,0,0,2.07-1,4,4,0,0,0,.73-2.49V42Zm14.43,3.34a4.65,4.65,0,0,1-1.44,3.27,5.35,5.35,0,0,1-3.63,1.15,4.83,4.83,0,0,1-3.69-1.46,5.41,5.41,0,0,1-1.35-3.85V41.91a5.37,5.37,0,0,1,1.38-3.84A4.75,4.75,0,0,1,37.5,36.6a5.14,5.14,0,0,1,3.62,1.15,5,5,0,0,1,1.46,3.32H40a3.12,3.12,0,0,0-.67-1.87,2.38,2.38,0,0,0-1.85-.63,2.13,2.13,0,0,0-1.83.92A4.14,4.14,0,0,0,35,41.9v2.56a4.21,4.21,0,0,0,.63,2.43,2.12,2.12,0,0,0,1.85.9,2.44,2.44,0,0,0,1.81-.59,3,3,0,0,0,.7-1.85Z"/><path class="cls-4" d="M14.47,10.33H35.33V13H14.47V10.33Zm0,12.42H28.73v2.62H14.47V22.75Zm0-6.21H35.33v2.62H14.47V16.54Z"/><path class="cls-4" d="M49.78,16.69H39.49A6.55,6.55,0,0,1,33,10.16V0L49.78,16.69Z"/></g></g></svg>