<svg xmlns="http://www.w3.org/2000/svg" viewBox="0 0 49.8 58.2"><defs><style>.cls-1{fill:#ee834c;}.cls-1,.cls-2,.cls-4{fill-rule:evenodd;}.cls-2{fill:#c4612e;}.cls-3{fill:#fff;}.cls-4{fill:#f8b796;}</style></defs><g id="katman_2" data-name="katman 2"><g id="katman_1-2" data-name="katman 1"><path class="cls-1" d="M6.53,0H32.92L49.8,16.71v35a6.55,6.55,0,0,1-6.53,6.52H6.53A6.55,6.55,0,0,1,0,51.68V6.53A6.55,6.55,0,0,1,6.53,0Z"/><polygon class="cls-2" points="35.32 15.18 49.8 28.55 49.8 16.71 45.89 12.84 35.32 15.18 35.32 15.18"/><path class="cls-3" d="M8.86,49.58V36.78H13a5.78,5.78,0,0,1,4.23,1.53,5.4,5.4,0,0,1,1.56,4V44a5.39,5.39,0,0,1-1.56,4A5.89,5.89,0,0,1,13,49.58Zm2.57-10.82v8.85h1.39a3.21,3.21,0,0,0,2.57-1A4,4,0,0,0,16.2,44V42.34a4,4,0,0,0-.8-2.64,3.16,3.16,0,0,0-2.54-.94Zm13.8,7.42.18.76h0l.17-.74,2.78-9.42h2.71l-4.35,12.8H24.1l-4.35-12.8h2.72l2.76,9.4Zm11.6-4.86,2.39-4.54h3l-3.79,6.35,4,6.45H39.34L36.87,45,34.4,49.58h-3l3.88-6.45L31.5,36.78h3l2.36,4.54Z"/><path class="cls-4" d="M49.78,16.69H39.49A6.55,6.55,0,0,1,33,10.16V0L49.78,16.69Z"/><polygon class="cls-4" points="18.09 8.97 31.71 17.85 18.09 26.73 18.09 8.97 18.09 8.97"/></g></g></svg>