<svg xmlns="http://www.w3.org/2000/svg" viewBox="0 0 49.8 58.2"><defs><style>.cls-1{fill:#ec6146;}.cls-1,.cls-2,.cls-3{fill-rule:evenodd;}.cls-2{fill:#d04326;}.cls-3{fill:#f39786;}.cls-4{fill:#fff;}</style></defs><g id="katman_2" data-name="katman 2"><g id="katman_1-2" data-name="katman 1"><path class="cls-1" d="M6.53,0H32.92L49.8,16.71v35a6.55,6.55,0,0,1-6.53,6.52H6.53A6.55,6.55,0,0,1,0,51.68V6.53A6.55,6.55,0,0,1,6.53,0Z"/><polygon class="cls-2" points="35.32 15.18 49.8 28.55 49.8 16.71 45.89 12.84 35.32 15.18 35.32 15.18"/><path class="cls-3" d="M49.78,16.69H39.49A6.55,6.55,0,0,1,33,10.16V0L49.78,16.69Z"/><path class="cls-4" d="M16.68,44.26H11.39v5.32H8.82V36.78h8.75v2H11.39v3.52h5.29v2Zm12.81,5.32H26.93V44.26H21.71v5.32H19.15V36.78h2.56v5.5h5.22v-5.5h2.56v12.8Zm2.4,0V36.78H36a5.8,5.8,0,0,1,4.23,1.53,5.4,5.4,0,0,1,1.56,4V44a5.39,5.39,0,0,1-1.57,4A5.85,5.85,0,0,1,36,49.58Zm2.57-10.82v8.85h1.39a3.21,3.21,0,0,0,2.57-1A4,4,0,0,0,39.23,44V42.34a4,4,0,0,0-.8-2.64,3.17,3.17,0,0,0-2.54-.94Z"/><path class="cls-3" d="M26.89,9H19.28c-2.79,0-4.61,1.26-5.43,2.87a4.53,4.53,0,0,0,0,4.1c.82,1.61,2.63,2.87,5.43,2.87H31.2a3.13,3.13,0,0,1,3.08,1.64,2.59,2.59,0,0,1,.25,1.13,2.8,2.8,0,0,1-.26,1.16,3.16,3.16,0,0,1-3.07,1.7H22.41a2.29,2.29,0,1,0,0,1.92H31.2A5,5,0,0,0,36,23.52a4.66,4.66,0,0,0,0-3.89,5,5,0,0,0-4.82-2.75H19.28c-2,0-3.2-.79-3.72-1.81a2.67,2.67,0,0,1,0-2.38c.52-1,1.75-1.82,3.72-1.82h7.49a2.15,2.15,0,0,0,2.13,1.46,2.39,2.39,0,0,0,2.29-2.29A2.44,2.44,0,0,0,28.9,7.76a2.08,2.08,0,0,0-2,1.2Z"/></g></g></svg>