<svg xmlns="http://www.w3.org/2000/svg" viewBox="0 0 49.8 58.2"><defs><style>.cls-1{fill:#ad502b;}.cls-1,.cls-2,.cls-4{fill-rule:evenodd;}.cls-2{fill:#8b3816;}.cls-3{fill:#fff;}.cls-4{fill:#cc714b;}</style></defs><g id="katman_2" data-name="katman 2"><g id="katman_1-2" data-name="katman 1"><path class="cls-1" d="M6.53,0H32.92L49.8,16.71v35a6.55,6.55,0,0,1-6.53,6.52H6.53A6.55,6.55,0,0,1,0,51.68V6.53A6.55,6.55,0,0,1,6.53,0Z"/><polygon class="cls-2" points="35.32 15.18 49.8 28.55 49.8 16.71 45.89 12.84 35.32 15.18 35.32 15.18"/><path class="cls-3" d="M18.35,44.26H13.06v5.32H10.49V36.78h8.76v2H13.06v3.52h5.29v2Zm5,3.35h5.69v2H20.82V36.78h2.57V47.61Zm11.66-1.43.18.76h0l.17-.74,2.79-9.42h2.7l-4.35,12.8H33.92l-4.35-12.8h2.72l2.76,9.4Z"/><path class="cls-4" d="M49.78,16.69H39.49A6.55,6.55,0,0,1,33,10.16V0L49.78,16.69Z"/><polygon class="cls-4" points="18.09 8.97 31.71 17.85 18.09 26.73 18.09 8.97 18.09 8.97"/></g></g></svg>