<svg xmlns="http://www.w3.org/2000/svg" viewBox="0 0 49.8 58.2"><defs><style>.cls-1{fill:#c23c8e;}.cls-1,.cls-2,.cls-3{fill-rule:evenodd;}.cls-2{fill:#a9247c;}.cls-3{fill:#dd88b8;}.cls-4{fill:#fff;}</style></defs><g id="katman_2" data-name="katman 2"><g id="katman_1-2" data-name="katman 1"><path class="cls-1" d="M6.53,0H32.92L49.8,16.71v35a6.55,6.55,0,0,1-6.53,6.53H6.53A6.55,6.55,0,0,1,0,51.67V6.53A6.55,6.55,0,0,1,6.53,0Z"/><polygon class="cls-2" points="35.32 15.18 49.8 28.55 49.8 16.71 45.89 12.84 35.32 15.18 35.32 15.18"/><path class="cls-3" d="M49.78,16.69H39.49A6.55,6.55,0,0,1,33,10.16V0L49.78,16.69Z"/><path class="cls-4" d="M14.43,49.58H11.86V36.78h2.57v12.8Zm12.35-4.23a4.62,4.62,0,0,1-1.45,3.27,5.31,5.31,0,0,1-3.62,1.15A4.83,4.83,0,0,1,18,48.31a5.41,5.41,0,0,1-1.35-3.85V41.91a5.37,5.37,0,0,1,1.38-3.84,4.75,4.75,0,0,1,3.66-1.47,5.14,5.14,0,0,1,3.62,1.15,5,5,0,0,1,1.46,3.32H24.23a3.12,3.12,0,0,0-.67-1.87,2.38,2.38,0,0,0-1.85-.63,2.13,2.13,0,0,0-1.83.92,4.14,4.14,0,0,0-.65,2.41v2.56a4.16,4.16,0,0,0,.63,2.42,2.09,2.09,0,0,0,1.85.91,2.44,2.44,0,0,0,1.81-.59,3,3,0,0,0,.7-1.85Zm12.14-1a5.41,5.41,0,0,1-1.47,3.91,5.19,5.19,0,0,1-3.89,1.53,5.13,5.13,0,0,1-3.87-1.53,5.44,5.44,0,0,1-1.45-3.91V42a5.43,5.43,0,0,1,1.45-3.9,5.07,5.07,0,0,1,3.86-1.53,5.17,5.17,0,0,1,3.9,1.53A5.4,5.4,0,0,1,38.92,42v2.3ZM36.35,42a3.88,3.88,0,0,0-.74-2.45,2.45,2.45,0,0,0-2.06-1,2.39,2.39,0,0,0-2,.95A4,4,0,0,0,30.8,42v2.32a4.1,4.1,0,0,0,.71,2.49,2.7,2.7,0,0,0,4.11,0,4,4,0,0,0,.73-2.49V42Z"/><path class="cls-3" d="M16.43,8.34a3.08,3.08,0,1,1-3.08,3.07,3.07,3.07,0,0,1,3.08-3.07Zm-2.89,16.9,5.19-6.86L22,20.83l5.47-7.69,9,12.12-22.91,0Z"/></g></g></svg>