<svg xmlns="http://www.w3.org/2000/svg" viewBox="0 0 49.8 58.2"><defs><style>.cls-1{fill:#6eb52c;}.cls-1,.cls-2,.cls-3{fill-rule:evenodd;}.cls-2{fill:#558d31;}.cls-3{fill:#a2c963;}.cls-4{fill:#fff;}</style></defs><g id="katman_2" data-name="katman 2"><g id="katman_1-2" data-name="katman 1"><path class="cls-1" d="M6.53,0H32.92L49.8,16.71v35a6.55,6.55,0,0,1-6.53,6.52H6.53A6.55,6.55,0,0,1,0,51.68V6.53A6.55,6.55,0,0,1,6.53,0Z"/><polygon class="cls-2" points="35.32 15.18 49.8 28.55 49.8 16.71 45.89 12.84 35.32 15.18 35.32 15.18"/><path class="cls-3" d="M49.78,16.69H39.49A6.55,6.55,0,0,1,33,10.16V0L49.78,16.69Z"/><path class="cls-4" d="M12.6,49.53H10V36.74H12.6V49.53Zm5.91-12.79,3.28,9.47h0l3.3-9.47h3.36V49.53H25.9V45.72L26.16,40h0l-3.47,9.56H20.94L17.5,40h0l.26,5.71v3.81H15.16V36.74ZM40.7,47.9a4.88,4.88,0,0,1-1.76,1.27,7.48,7.48,0,0,1-3.08.55A5.26,5.26,0,0,1,32,48.28a5.12,5.12,0,0,1-1.46-3.81V41.8A5.23,5.23,0,0,1,32,38a4.9,4.9,0,0,1,3.69-1.44,5.2,5.2,0,0,1,3.61,1.1,4.79,4.79,0,0,1,1.44,3.08H38.2a2.88,2.88,0,0,0-.73-1.63,2.37,2.37,0,0,0-1.74-.57,2.32,2.32,0,0,0-1.92.9,3.67,3.67,0,0,0-.7,2.35v2.69a3.64,3.64,0,0,0,.73,2.38,2.46,2.46,0,0,0,2,.9,4.62,4.62,0,0,0,1.45-.18,2.05,2.05,0,0,0,.82-.46V44.79H35.86V43H40.7V47.9Z"/><path class="cls-3" d="M16.43,8.34a3.08,3.08,0,1,1-3.08,3.07,3.07,3.07,0,0,1,3.08-3.07Zm-2.89,16.9,5.19-6.86L22,20.83l5.47-7.69,9,12.12-22.91,0Z"/></g></g></svg>