<?xml version="1.0" encoding="utf-8"?>
<!-- Generator: Adobe Illustrator 25.0.1, SVG Export Plug-In . SVG Version: 6.00 Build 0)  -->
<svg version="1.1" id="Layer_1" xmlns="http://www.w3.org/2000/svg" xmlns:xlink="http://www.w3.org/1999/xlink" x="0px" y="0px"
	 viewBox="0 0 304.1 249.3" style="enable-background:new 0 0 304.1 249.3;" xml:space="preserve">
<style type="text/css">
	.st0{fill:#FAA61A;}
	.st1{fill:#F37021;}
</style>
<g>
	<circle class="st0" cx="104.4" cy="44.7" r="32.9"/>
	<path class="st0" d="M41.1,89.1c4.4-1.6,9.3,0.7,11.1,5c10,24.8,25.2,52.1,48.5,73.2v0l0,0c19.6-17.9,33.5-40.1,43.4-61.5
		c3.2-6.9,12.9-6.9,16,0c4.3,9.4,9.4,18.9,15.4,28.1c1.6,2.5,1.9,5.6,0.8,8.4c-4.3,10-15.2,34.2-22.7,44.5
		c-19.2,26.5-38.6,42.3-47.7,48.9c-3.1,2.3-7.3,2.2-10.4-0.1c-57.3-42-76.2-104.9-81.3-127.2c-0.9-4,1-8,4.7-9.8
		C25.9,95,33.4,91.8,41.1,89.1z"/>
	<circle class="st1" cx="199.7" cy="44.7" r="32.9"/>
	<path class="st1" d="M263,89.1c-4.4-1.6-9.3,0.7-11.1,5c-10,24.8-25.2,52.1-48.5,73.2v0l0,0c-19.6-17.9-33.5-40.1-43.4-61.5
		c-3.2-6.9-12.8-6.9-16,0c-4.3,9.4-9.4,18.9-15.4,28.2c-1.6,2.5-1.9,5.6-0.8,8.3c4.3,10,15.2,34.2,22.7,44.5
		c19.2,26.5,38.6,42.3,47.7,48.9c3.1,2.3,7.3,2.2,10.4-0.1c57.4-42,76.3-104.9,81.4-127.2c0.9-4-1-8-4.6-9.8
		C278.1,95,270.7,91.8,263,89.1z"/>
</g>
</svg>
