<svg id="Layer_1" data-name="Layer 1" xmlns="http://www.w3.org/2000/svg" viewBox="0 0 235.51 168.82"><defs><style>.cls-1{fill:#231f20;}.cls-2{fill:#faa61a;}.cls-3{fill:#f15a22;}.cls-4{fill:#f37021;}.cls-5{fill:#f7941d;}.cls-6{fill:#f58220;}</style></defs><path class="cls-1" d="M85.84,86.64a3.22,3.22,0,0,0-2.64-1q-3.57.09-3.57,3.79v15l7.13,6.21V89.42A4.11,4.11,0,0,0,85.84,86.64Z"/><path class="cls-1" d="M124.26,91.62a13.12,13.12,0,0,1-2.73,8.4A12.53,12.53,0,0,1,114,104.5v9q0,3.7-3.56,3.79a3.2,3.2,0,0,1-2.64-1,4.06,4.06,0,0,1-.93-2.78v-9a12.55,12.55,0,0,1-7.22-4.61,13.43,13.43,0,0,1-2.55-8.27V89.2q0-3.7,3.57-3.79a3.2,3.2,0,0,1,2.64,1,4.09,4.09,0,0,1,.92,2.78v2.43a6.46,6.46,0,1,0,12.9,0V89.21q0-3.7,3.56-3.8a3.2,3.2,0,0,1,2.64,1,4.08,4.08,0,0,1,.93,2.78Z"/><path class="cls-1" d="M151.92,113.8a3.3,3.3,0,0,1-1,2.64,4,4,0,0,1-2.71,1.06,3.7,3.7,0,0,1-2.46-1.06l-1.94-1.93-9.9-10,0,9.15c0,2.47-1.18,3.73-3.56,3.79a3.2,3.2,0,0,1-2.64-1,4.06,4.06,0,0,1-.93-2.78V89.42q0-3.7,3.57-3.79a3.22,3.22,0,0,1,2.64,1,4.11,4.11,0,0,1,.92,2.78v7.83l9.86-9.81A5,5,0,0,1,147,85.63a3.34,3.34,0,0,1,2.4,1.06,3.4,3.4,0,0,1,1.12,2.37,3.07,3.07,0,0,1-.4,1.46,6.36,6.36,0,0,1-1,1.4l-8.85,9,9.64,9.64a12.11,12.11,0,0,1,1.32,1.46A3.37,3.37,0,0,1,151.92,113.8Z"/><path class="cls-1" d="M176.88,96.55a10.57,10.57,0,0,1-2.81,7.74,10.32,10.32,0,0,1-7.71,2.86,4.75,4.75,0,0,1-2.77-.88,2.81,2.81,0,0,1-1.32-2.33q-.09-3.07,2.46-3.12a5.27,5.27,0,0,0,3.39-1.15,4.43,4.43,0,0,0,.14-6.27,5,5,0,0,0-3.48-1.17H161v21.48q0,3.71-3.57,3.79a3.22,3.22,0,0,1-2.64-1,4.11,4.11,0,0,1-.92-2.78V89.46a3.41,3.41,0,0,1,3.56-3.57h8.76a10.6,10.6,0,0,1,7.77,2.93A10.37,10.37,0,0,1,176.88,96.55Z"/><rect class="cls-1" x="81.72" y="68.94" width="2.46" height="31.82"/><path class="cls-2" d="M83,38.93l35.51,35.32a11.32,11.32,0,0,1,5.17,3A40.76,40.76,0,0,0,83,38.93Z"/><path class="cls-1" d="M83,34a1.23,1.23,0,0,0-1.23,1.23v4.92h2.46V35.24A1.23,1.23,0,0,0,83,34Z"/><path class="cls-2" d="M83,38.93l24.41,38.3a11.49,11.49,0,0,1,11.1-3C116.12,54.31,101.12,38.93,83,38.93Z"/><path class="cls-3" d="M42.27,77.23a11.51,11.51,0,0,1,16.27,0L83,38.93A40.76,40.76,0,0,0,42.27,77.23Z"/><path class="cls-4" d="M58.54,77.23a11.52,11.52,0,0,1,16.28,0L83,38.93C69.94,38.93,59.31,55.87,58.54,77.23Z"/><path class="cls-5" d="M83,38.93l8.14,38.3a11.51,11.51,0,0,1,16.27,0C106.6,55.87,96,38.93,83,38.93Z"/><path class="cls-6" d="M83,38.93c-4.33,0-7.88,16.94-8.13,38.3a11.51,11.51,0,0,1,16.27,0C90.83,55.87,87.29,38.93,83,38.93Z"/><path class="cls-1" d="M86.76,106.63a3.57,3.57,0,0,0,7.13,0,3.57,3.57,0,0,1,7.14,0,10.7,10.7,0,0,1-21.4,0V92.36h7.13v14.27Z"/></svg>