<svg xmlns="http://www.w3.org/2000/svg" viewBox="0 0 49.8 58.2"><defs><style>.cls-1{fill:#9d4f4f;}.cls-1,.cls-2,.cls-4{fill-rule:evenodd;}.cls-2{fill:#7b3a3a;}.cls-3{fill:#fff;}.cls-4{fill:#b8797a;}</style></defs><g id="katman_2" data-name="katman 2"><g id="katman_1-2" data-name="katman 1"><path class="cls-1" d="M6.53,0H32.92L49.8,16.71v35a6.55,6.55,0,0,1-6.53,6.52H6.53A6.55,6.55,0,0,1,0,51.68V6.53A6.55,6.55,0,0,1,6.53,0Z"/><polygon class="cls-2" points="35.32 15.18 49.8 28.55 49.8 16.71 45.89 12.84 35.32 15.18 35.32 15.18"/><path class="cls-3" d="M9.45,36.78l3.28,9.48h0l3.3-9.48h3.36v12.8H16.84V45.76L17.1,40h0l-3.46,9.56H11.88L8.44,40.05h0l.26,5.7v3.82H6.1V36.78Zm22.72,7.55a5.41,5.41,0,0,1-1.47,3.91,5.19,5.19,0,0,1-3.89,1.53,5.13,5.13,0,0,1-3.87-1.53,5.48,5.48,0,0,1-1.45-3.91V42a5.43,5.43,0,0,1,1.45-3.9A5.07,5.07,0,0,1,26.8,36.6a5.16,5.16,0,0,1,3.9,1.53A5.4,5.4,0,0,1,32.17,42v2.3ZM29.6,42a3.82,3.82,0,0,0-.74-2.45,2.45,2.45,0,0,0-2.06-1,2.39,2.39,0,0,0-2,.95A4,4,0,0,0,24.05,42v2.32a4.1,4.1,0,0,0,.71,2.49,2.7,2.7,0,0,0,4.11,0,4,4,0,0,0,.73-2.49V42Zm9,4.17.18.76h0L39,46.2l2.79-9.42h2.7l-4.35,12.8H37.49l-4.35-12.8h2.72l2.76,9.4Z"/><path class="cls-4" d="M49.78,16.69H39.49A6.55,6.55,0,0,1,33,10.16V0L49.78,16.69Z"/><polygon class="cls-4" points="18.09 8.97 31.71 17.85 18.09 26.73 18.09 8.97 18.09 8.97"/></g></g></svg>