<svg xmlns="http://www.w3.org/2000/svg" viewBox="0 0 49.8 58.2"><defs><style>.cls-1{fill:#06b2de;}.cls-1,.cls-2,.cls-4{fill-rule:evenodd;}.cls-2{fill:#0a90b4;}.cls-3{fill:#fff;}.cls-4{fill:#5cc5ed;}</style></defs><g id="katman_2" data-name="katman 2"><g id="katman_1-2" data-name="katman 1"><path class="cls-1" d="M6.53,0H32.92L49.8,16.71v35a6.55,6.55,0,0,1-6.53,6.52H6.53A6.55,6.55,0,0,1,0,51.68V6.53A6.55,6.55,0,0,1,6.53,0Z"/><polygon class="cls-2" points="35.32 15.18 49.8 28.55 49.8 16.71 45.89 12.84 35.32 15.18 35.32 15.18"/><path class="cls-3" d="M10.82,36.78l3.28,9.48h0l3.29-9.48h3.36v12.8H18.21V45.76L18.47,40h0L15,49.58H13.26L9.81,40.05h0l.26,5.7v3.82H7.47V36.78Zm14.92,8.16v4.64H23.18V36.78h5.1a5.06,5.06,0,0,1,3.49,1.11,4.19,4.19,0,0,1,0,6,5.11,5.11,0,0,1-3.49,1.1Zm0-2h2.54a1.93,1.93,0,0,0,2.17-2.07,2.21,2.21,0,0,0-.54-1.54,2.11,2.11,0,0,0-1.63-.59H25.74V43Zm11.43-.87h1.44A1.73,1.73,0,0,0,40,41.62a1.89,1.89,0,0,0,.43-1.34A1.74,1.74,0,0,0,40,39a1.68,1.68,0,0,0-1.28-.46,1.81,1.81,0,0,0-1.22.42A1.41,1.41,0,0,0,37,40.11H34.42a3.15,3.15,0,0,1,1.19-2.55,4.64,4.64,0,0,1,3-1,5,5,0,0,1,3.19.93A3.3,3.3,0,0,1,43,40.26a2.72,2.72,0,0,1-.52,1.59A3.42,3.42,0,0,1,41,43a3.3,3.3,0,0,1,1.63,1.16A3,3,0,0,1,43.17,46a3.36,3.36,0,0,1-1.26,2.79,5.24,5.24,0,0,1-3.29,1,5.17,5.17,0,0,1-3.09-.94,3.19,3.19,0,0,1-1.27-2.73h2.57a1.55,1.55,0,0,0,.52,1.22,1.88,1.88,0,0,0,1.34.47,1.93,1.93,0,0,0,1.41-.48A1.76,1.76,0,0,0,40.61,46a2,2,0,0,0-.5-1.49,2.12,2.12,0,0,0-1.5-.46H37.17V42.09Z"/><path class="cls-4" d="M20.83,11.66l12.69-3.4V21.7h0A3.51,3.51,0,1,1,31,18.22V11.41l-7.71,2.07V24h0A3.52,3.52,0,1,1,19.8,20.4a3.47,3.47,0,0,1,1,.15V11.66Z"/><path class="cls-4" d="M49.78,16.69H39.49A6.55,6.55,0,0,1,33,10.16V0L49.78,16.69Z"/></g></g></svg>