<svg xmlns="http://www.w3.org/2000/svg" viewBox="0 0 49.8 58.2"><defs><style>.cls-1{fill:#bd9b9b;}.cls-1,.cls-2,.cls-4{fill-rule:evenodd;}.cls-2{fill:#a18484;}.cls-3{fill:#fff;}.cls-4{fill:#d6b6b6;}</style></defs><g id="katman_2" data-name="katman 2"><g id="katman_1-2" data-name="katman 1"><path class="cls-1" d="M6.53,0H32.92L49.8,16.71v35a6.55,6.55,0,0,1-6.53,6.52H6.53A6.55,6.55,0,0,1,0,51.68V6.53A6.55,6.55,0,0,1,6.53,0Z"/><polygon class="cls-2" points="35.32 15.18 49.8 28.55 49.8 16.71 45.89 12.84 35.32 15.18 35.32 15.18"/><path class="cls-3" d="M10.82,36.78l3.28,9.48h0l3.29-9.48h3.36v12.8H18.21V45.76L18.47,40h0L15,49.58H13.26L9.81,40.05h0l.26,5.7v3.82H7.47V36.78Zm14.92,8.16v4.64H23.18V36.78h5.1a5.06,5.06,0,0,1,3.49,1.11,4.19,4.19,0,0,1,0,6,5.11,5.11,0,0,1-3.49,1.1Zm0-2h2.54a1.93,1.93,0,0,0,2.17-2.07,2.21,2.21,0,0,0-.54-1.54,2.11,2.11,0,0,0-1.63-.59H25.74V43ZM42.1,44.82h1.45v2H42.1v2.78H39.54V46.8H34.32l-.11-1.54,5.31-8.48H42.1v8Zm-5.5,0h2.94V40.16h0l-.23.4L36.6,44.82Z"/><path class="cls-4" d="M49.78,16.69H39.49A6.55,6.55,0,0,1,33,10.16V0L49.78,16.69Z"/><polygon class="cls-4" points="18.09 8.97 31.71 17.85 18.09 26.73 18.09 8.97 18.09 8.97"/></g></g></svg>