<svg xmlns="http://www.w3.org/2000/svg" viewBox="0 0 49.8 58.2"><defs><style>.cls-1{fill:#2f75a4;}.cls-1,.cls-2,.cls-4{fill-rule:evenodd;}.cls-2{fill:#24597e;}.cls-3{fill:#fff;}.cls-4{fill:#5599c7;}</style></defs><g id="katman_2" data-name="katman 2"><g id="katman_1-2" data-name="katman 1"><path class="cls-1" d="M6.53,0H32.92L49.8,16.71v35a6.55,6.55,0,0,1-6.53,6.52H6.53A6.55,6.55,0,0,1,0,51.68V6.53A6.55,6.55,0,0,1,6.53,0Z"/><polygon class="cls-2" points="35.32 15.18 49.8 28.55 49.8 16.71 45.89 12.84 35.32 15.18 35.32 15.18"/><path class="cls-3" d="M18.38,44.33a5.45,5.45,0,0,1-1.47,3.91A5.2,5.2,0,0,1,13,49.77a5.12,5.12,0,0,1-3.86-1.53A5.44,5.44,0,0,1,7.7,44.33V42a5.46,5.46,0,0,1,1.44-3.9A5.09,5.09,0,0,1,13,36.6a5.15,5.15,0,0,1,3.89,1.53A5.41,5.41,0,0,1,18.38,42v2.3ZM15.81,42a3.88,3.88,0,0,0-.74-2.45,2.45,2.45,0,0,0-2.06-1,2.39,2.39,0,0,0-2,.95A4,4,0,0,0,10.25,42v2.32A4,4,0,0,0,11,46.82a2.42,2.42,0,0,0,2,1,2.47,2.47,0,0,0,2.07-1,4,4,0,0,0,.73-2.49V42Zm4.64,7.57V36.78h4.13a5.76,5.76,0,0,1,4.22,1.53,5.4,5.4,0,0,1,1.56,4V44a5.39,5.39,0,0,1-1.56,4,5.87,5.87,0,0,1-4.26,1.51ZM23,38.76v8.85h1.39a3.23,3.23,0,0,0,2.57-1A4,4,0,0,0,27.79,44V42.34A4,4,0,0,0,27,39.7a3.17,3.17,0,0,0-2.54-.94Zm19.25,0h-4V49.58H35.66V38.76h-4v-2H42.27v2Z"/><path class="cls-4" d="M14.47,10.33H35.33V13H14.47V10.33Zm0,12.42H28.73v2.62H14.47V22.75Zm0-6.21H35.33v2.62H14.47V16.54Z"/><path class="cls-4" d="M49.78,16.69H39.49A6.55,6.55,0,0,1,33,10.16V0L49.78,16.69Z"/></g></g></svg>