<svg xmlns="http://www.w3.org/2000/svg" viewBox="0 0 49.8 58.2"><defs><style>.cls-1{fill:#ca4b24;}.cls-1,.cls-2,.cls-4{fill-rule:evenodd;}.cls-2{fill:#a73a18;}.cls-3{fill:#fff;}.cls-4{fill:#e17c5d;}</style></defs><g id="katman_2" data-name="katman 2"><g id="katman_1-2" data-name="katman 1"><path class="cls-1" d="M6.53,0H32.92L49.8,16.71v35a6.55,6.55,0,0,1-6.53,6.52H6.53A6.55,6.55,0,0,1,0,51.68V6.53A6.55,6.55,0,0,1,6.53,0Z"/><polygon class="cls-2" points="35.32 15.18 49.8 28.55 49.8 16.71 45.89 12.84 35.32 15.18 35.32 15.18"/><path class="cls-3" d="M11.9,44.94v4.64H9.33V36.78h5.1a5.06,5.06,0,0,1,3.49,1.11,4.17,4.17,0,0,1,0,6,5.11,5.11,0,0,1-3.49,1.1Zm0-2h2.53a2.16,2.16,0,0,0,1.64-.57,2.12,2.12,0,0,0,.54-1.5,2.21,2.21,0,0,0-.54-1.54,2.13,2.13,0,0,0-1.64-.59H11.9V43Zm9.15,6.62V36.78h4.13a5.78,5.78,0,0,1,4.23,1.53,5.4,5.4,0,0,1,1.56,4V44a5.39,5.39,0,0,1-1.56,4,5.89,5.89,0,0,1-4.27,1.51Zm2.57-10.82v8.85H25a3.21,3.21,0,0,0,2.57-1A4,4,0,0,0,28.4,44V42.34a3.93,3.93,0,0,0-.81-2.64,3.16,3.16,0,0,0-2.54-.94Zm17.28,5.5H35.61v5.32H33V36.78H41.8v2H35.61v3.52H40.9v2Z"/><path class="cls-4" d="M14.47,10.33H35.33V13H14.47V10.33Zm0,12.42H28.73v2.62H14.47V22.75Zm0-6.21H35.33v2.62H14.47V16.54Z"/><path class="cls-4" d="M49.78,16.69H39.49A6.55,6.55,0,0,1,33,10.16V0L49.78,16.69Z"/></g></g></svg>