<svg xmlns="http://www.w3.org/2000/svg" viewBox="0 0 49.8 58.2"><defs><style>.cls-1{fill:#754695;}.cls-1,.cls-2,.cls-3{fill-rule:evenodd;}.cls-2{fill:#67348b;}.cls-3{fill:#9f76b2;}.cls-4{fill:#fff;}</style></defs><g id="katman_2" data-name="katman 2"><g id="katman_1-2" data-name="katman 1"><path class="cls-1" d="M6.53,0H32.92L49.8,16.71v35a6.55,6.55,0,0,1-6.53,6.53H6.53A6.55,6.55,0,0,1,0,51.67V6.53A6.55,6.55,0,0,1,6.53,0Z"/><polygon class="cls-2" points="35.32 15.18 49.8 28.55 49.8 16.71 45.89 12.84 35.32 15.18 35.32 15.18"/><path class="cls-3" d="M49.78,16.69H39.49A6.55,6.55,0,0,1,33,10.16V0L49.78,16.69Z"/><path class="cls-4" d="M14.63,44.94v4.64H12.06V36.78h5.1a5.09,5.09,0,0,1,3.5,1.11,4.19,4.19,0,0,1,0,6,5.13,5.13,0,0,1-3.5,1.1Zm0-2h2.53a2.15,2.15,0,0,0,1.64-.57,2.12,2.12,0,0,0,.54-1.5,2.21,2.21,0,0,0-.54-1.54,2.12,2.12,0,0,0-1.64-.59H14.63V43Zm11.88,6.62H24V36.78h2.56v12.8Zm12.35-4.23a4.65,4.65,0,0,1-1.44,3.27,5.35,5.35,0,0,1-3.63,1.15,4.8,4.8,0,0,1-3.68-1.46,5.41,5.41,0,0,1-1.35-3.85V41.91a5.36,5.36,0,0,1,1.37-3.84,4.75,4.75,0,0,1,3.66-1.47,5.14,5.14,0,0,1,3.62,1.15,5,5,0,0,1,1.46,3.32H36.32a3.19,3.19,0,0,0-.68-1.87,2.38,2.38,0,0,0-1.85-.63,2.13,2.13,0,0,0-1.83.92,4.14,4.14,0,0,0-.65,2.41v2.56a4.16,4.16,0,0,0,.63,2.42,2.1,2.1,0,0,0,1.85.91,2.42,2.42,0,0,0,1.81-.59,2.94,2.94,0,0,0,.7-1.85Z"/><path class="cls-3" d="M16.43,8.34a3.08,3.08,0,1,1-3.08,3.07,3.07,3.07,0,0,1,3.08-3.07Zm-2.89,16.9,5.19-6.86L22,20.83l5.47-7.69,9,12.12-22.91,0Z"/></g></g></svg>