<svg xmlns="http://www.w3.org/2000/svg" viewBox="0 0 49.8 58.2"><defs><style>.cls-1{fill:#06b2de;}.cls-1,.cls-2,.cls-4{fill-rule:evenodd;}.cls-2{fill:#0a90b4;}.cls-3{fill:#fff;}.cls-4{fill:#5cc5ed;}</style></defs><g id="katman_2" data-name="katman 2"><g id="katman_1-2" data-name="katman 1"><path class="cls-1" d="M6.53,0H32.92L49.8,16.71v35a6.55,6.55,0,0,1-6.53,6.52H6.53A6.55,6.55,0,0,1,0,51.68V6.53A6.55,6.55,0,0,1,6.53,0Z"/><polygon class="cls-2" points="35.32 15.18 49.8 28.55 49.8 16.71 45.89 12.84 35.32 15.18 35.32 15.18"/><path class="cls-3" d="M11.34,44.46v5.12H8.78V36.78h5a5.08,5.08,0,0,1,3.34.95,3.43,3.43,0,0,1,1.12,2.79,2.63,2.63,0,0,1-.56,1.75,3.83,3.83,0,0,1-1.64,1.11v0a2.73,2.73,0,0,1,1.61,1.11,3.7,3.7,0,0,1,.47,1.95v.94a4.18,4.18,0,0,0,.14,1.09,1.45,1.45,0,0,0,.5.83v.25H16.15a1.5,1.5,0,0,1-.47-.95,9.12,9.12,0,0,1-.1-1.24v-.9A2.16,2.16,0,0,0,15.1,45a1.9,1.9,0,0,0-1.45-.52Zm0-2h2.22A2.45,2.45,0,0,0,15.18,42a1.7,1.7,0,0,0,.52-1.36,2,2,0,0,0-.49-1.42,2.1,2.1,0,0,0-1.54-.5H11.34v3.73ZM27.4,46.78H22.91L22,49.58H19.45l4.4-12.8h2.63l4.38,12.8H28.27l-.87-2.8Zm-3.87-2h3.26l-1.62-5.19h0l-1.61,5.19Zm11.19-.35v5.12H32.15V36.78h5a5.08,5.08,0,0,1,3.34.95,3.43,3.43,0,0,1,1.12,2.79,2.68,2.68,0,0,1-.56,1.75,3.83,3.83,0,0,1-1.64,1.11v0a2.73,2.73,0,0,1,1.61,1.11,3.7,3.7,0,0,1,.47,1.95v.94a4.18,4.18,0,0,0,.14,1.09,1.45,1.45,0,0,0,.5.83v.25H39.53a1.5,1.5,0,0,1-.47-.95,7.76,7.76,0,0,1-.1-1.24v-.9A2.16,2.16,0,0,0,38.48,45,1.9,1.9,0,0,0,37,44.46Zm0-2h2.22A2.45,2.45,0,0,0,38.56,42a1.7,1.7,0,0,0,.52-1.36,2,2,0,0,0-.49-1.42,2.1,2.1,0,0,0-1.54-.5H34.72v3.73Z"/><path class="cls-4" d="M15.09,10.33H35.67V17H14.13V10.33Zm0,8.4H35.67v6.64H14.13V18.73Zm18.66,1.92H16.05v2.8h17.7v-2.8Zm0-8.4H16.05v2.8h17.7v-2.8Z"/><path class="cls-4" d="M49.78,16.69H39.49A6.55,6.55,0,0,1,33,10.16V0L49.78,16.69Z"/></g></g></svg>