<svg xmlns="http://www.w3.org/2000/svg" viewBox="0 0 49.8 58.2"><defs><style>.cls-1{fill:#696;}.cls-1,.cls-2,.cls-3{fill-rule:evenodd;}.cls-2{fill:#4a6f49;}.cls-3{fill:#98b998;}.cls-4{fill:#fff;}</style></defs><g id="katman_2" data-name="katman 2"><g id="katman_1-2" data-name="katman 1"><path class="cls-1" d="M6.53,0H32.92L49.8,16.71v35a6.55,6.55,0,0,1-6.53,6.52H6.53A6.55,6.55,0,0,1,0,51.68V6.53A6.55,6.55,0,0,1,6.53,0Z"/><polygon class="cls-2" points="35.32 15.18 49.8 28.55 49.8 16.71 45.89 12.84 35.32 15.18 35.32 15.18"/><path class="cls-3" d="M49.78,16.69H39.49A6.55,6.55,0,0,1,33,10.16V0L49.78,16.69Z"/><path class="cls-4" d="M14.54,46.24A1.49,1.49,0,0,0,14,45.05a5.37,5.37,0,0,0-1.85-.84,10.38,10.38,0,0,1-3.47-1.56,3,3,0,0,1-1.15-2.49,3.08,3.08,0,0,1,1.32-2.58,5.62,5.62,0,0,1,3.45-1,5.19,5.19,0,0,1,3.46,1.11,3.5,3.5,0,0,1,1.31,2.82H14.54A1.9,1.9,0,0,0,14,39.09a2.36,2.36,0,0,0-1.67-.54,2.49,2.49,0,0,0-1.61.45,1.43,1.43,0,0,0-.55,1.17,1.25,1.25,0,0,0,.58,1.08,9,9,0,0,0,2.1.88A8.19,8.19,0,0,1,16,43.67a3.21,3.21,0,0,1,1.07,2.55,3,3,0,0,1-1.27,2.61,5.8,5.8,0,0,1-3.44.94A6.38,6.38,0,0,1,8.71,48.7a3.53,3.53,0,0,1-1.54-3.08H9.74a2,2,0,0,0,.69,1.68,3.16,3.16,0,0,0,2,.52A2.53,2.53,0,0,0,14,47.39a1.37,1.37,0,0,0,.54-1.15Zm14.24-.68h0l1.64-8.78h2.48l-2.74,12.8H27.81l-2.18-8.43h0l-2.17,8.43H21.05l-2.74-12.8H20.8l1.63,8.77h0l2.22-8.77h1.86l2.24,8.78Zm13.74-1.3H37.23v5.32H34.66V36.78h8.76v2H37.23v3.52h5.29v2Z"/><path class="cls-3" d="M26.89,9H19.28c-2.79,0-4.61,1.26-5.43,2.87a4.53,4.53,0,0,0,0,4.1c.82,1.61,2.63,2.87,5.43,2.87H31.2a3.13,3.13,0,0,1,3.08,1.64,2.59,2.59,0,0,1,.25,1.13,2.8,2.8,0,0,1-.26,1.16,3.16,3.16,0,0,1-3.07,1.7H22.41a2.29,2.29,0,1,0,0,1.92H31.2A5,5,0,0,0,36,23.52a4.66,4.66,0,0,0,0-3.89,5,5,0,0,0-4.82-2.75H19.28c-2,0-3.2-.79-3.72-1.81a2.67,2.67,0,0,1,0-2.38c.52-1,1.75-1.82,3.72-1.82h7.49a2.15,2.15,0,0,0,2.13,1.46,2.39,2.39,0,0,0,2.29-2.29A2.44,2.44,0,0,0,28.9,7.76a2.08,2.08,0,0,0-2,1.2Z"/></g></g></svg>