<svg id="Layer_1" data-name="Layer 1" xmlns="http://www.w3.org/2000/svg" xmlns:xlink="http://www.w3.org/1999/xlink" viewBox="0 0 207.52 143.73"><defs><style>.cls-1{fill:url(#linear-gradient);}</style><linearGradient id="linear-gradient" x1="17.22" y1="71.86" x2="190.31" y2="71.86" gradientUnits="userSpaceOnUse"><stop offset="0" stop-color="#faa61a"/><stop offset="1" stop-color="#f15a22"/></linearGradient></defs><path class="cls-1" d="M41.59,90.16a6.45,6.45,0,1,1-6.45-6.45A6.45,6.45,0,0,1,41.59,90.16Zm96.79-70.23a51.67,51.67,0,0,0-24.79,6.29H60.94a6.5,6.5,0,0,0-.13,13H98.1a3.71,3.71,0,0,1,0,7.41H23.72a6.51,6.51,0,0,0,0,13h73.7c6.44.5,17.7-11,17.7-11v.08a33.41,33.41,0,0,1,6-4.86,32.84,32.84,0,0,1,45,10.2H136.1a5.62,5.62,0,0,0-5.62,5.62V83.75a5.63,5.63,0,0,0,5.62,5.63h30.07a32.83,32.83,0,0,1-51,5.45l-.09,0C103.67,82.7,94.81,83.65,94.81,83.65H52.34a6.51,6.51,0,1,0,0,13h40.4a51.16,51.16,0,0,0,4.91,7.41H80.16a6.5,6.5,0,0,0-6.51,6.5h0a6.5,6.5,0,0,0,6.51,6.5h32.67a51.93,51.93,0,1,0,25.55-97.14Z"/></svg>