<svg xmlns="http://www.w3.org/2000/svg" viewBox="0 0 49.8 58.2"><defs><style>.cls-1{fill:#106fab;}.cls-1,.cls-2,.cls-3{fill-rule:evenodd;}.cls-2{fill:#035281;}.cls-3{fill:#3d98d1;}.cls-4{fill:#fff;}</style></defs><g id="katman_2" data-name="katman 2"><g id="katman_1-2" data-name="katman 1"><path class="cls-1" d="M6.53,0H32.92L49.8,16.71v35a6.55,6.55,0,0,1-6.53,6.53H6.53A6.55,6.55,0,0,1,0,51.67V6.53A6.55,6.55,0,0,1,6.53,0Z"/><polygon class="cls-2" points="35.32 15.18 49.8 28.55 49.8 16.71 45.89 12.84 35.32 15.18 35.32 15.18"/><path class="cls-3" d="M49.78,16.69H39.49A6.55,6.55,0,0,1,33,10.16V0L49.78,16.69Z"/><path class="cls-4" d="M17.51,38.76H13.46V49.58H10.9V38.76h-4v-2H17.51v2Zm4.31,10.82H19.25V36.78h2.57v12.8Zm10.42-5.32H27v5.32H24.38V36.78h8.75v2H27v3.52h5.29v2Zm10.32,0H37.27v5.32H34.7V36.78h8.76v2H37.27v3.52h5.29v2Z"/><path class="cls-3" d="M16.43,8.34a3.08,3.08,0,1,1-3.08,3.07,3.07,3.07,0,0,1,3.08-3.07Zm-2.89,16.9,5.19-6.86L22,20.83l5.47-7.69,9,12.12-22.91,0Z"/></g></g></svg>