<?xml version="1.0" encoding="utf-8"?>
<!-- Generator: Adobe Illustrator 25.0.0, SVG Export Plug-In . SVG Version: 6.00 Build 0)  -->
<svg version="1.1" id="Layer_1" xmlns="http://www.w3.org/2000/svg" xmlns:xlink="http://www.w3.org/1999/xlink" x="0px" y="0px"
	 viewBox="0 0 595.3 595.3" style="enable-background:new 0 0 595.3 595.3;" xml:space="preserve">
<style type="text/css">
	.st0{fill:#FAA61A;}
	.st1{fill:#F37021;}
</style>
<g>
	<g>
		<path class="st0" d="M318,366.6l-11.5-7.2c-19.4,36.4-54,60.6-93.3,60.6c-60.6,0-109.9-57.7-109.9-128.6
			c0-41.8,17.1-79,43.6-102.5l-2.5-62.7c-55.9,29-94.7,92.1-94.7,165.3c0,100.6,73.2,182.2,163.5,182.2
			c55.8,0,105.1-31.2,134.6-78.7L318,366.6z"/>
		<circle class="st0" cx="165.6" cy="170.7" r="49.3"/>
	</g>
	<g>
		<path class="st1" d="M277.3,366.6l11.5-7.2c19.4,36.4,54,60.6,93.3,60.6c60.6,0,109.9-57.7,109.9-128.6c0-41.8-17.1-79-43.6-102.5
			l2.5-62.7c55.9,29,94.7,92.1,94.7,165.3c0,100.6-73.2,182.2-163.5,182.2c-55.8,0-105.1-31.2-134.6-78.7L277.3,366.6z"/>
		<circle class="st1" cx="429.7" cy="170.7" r="49.3"/>
	</g>
	<path class="st1" d="M450.2,443.2L450.2,443.2C450.2,443.2,450.2,443.2,450.2,443.2L450.2,443.2z M288.8,359.4
		c-8.4-16.1-13.2-34.7-13.2-54.4c0-32.2,10.8-62.7,22.3-62.9c45.9,0,67.1,43.7,73,89.6c1.3-8.8,2-17.7,2-26.7v-0.7l0-0.1
		c-0.2-53.9-19.8-116.5-74.7-116.5c-55.5,0-75.7,70.1-75.7,117.2c0,33.1,9.2,64.1,25,90.1l33.1-20.5L288.8,359.4z"/>
	<path class="st0" d="M297.8,242.1c0.3,0,0.7,0,1.1,0.1l0,0c9.4,2,20.8,30.4,20.8,62.8c0,19.1-4.6,37.8-13.3,54.4
		c10.1,16,24.5,28.5,41.4,35.7c11.8-19.4,19.5-40.9,23-63.4C365,285.8,343.7,242.1,297.8,242.1z"/>
</g>
</svg>
