<svg id="Layer_1" data-name="Layer 1" xmlns="http://www.w3.org/2000/svg" viewBox="0 0 380.78 207.78"><defs><style>.cls-1{fill:#c4161c;}</style></defs><path class="cls-1" d="M70.4,83.34c-.09-.28-.18-.37-.46-.37s-.46.09-.46.37l-6.16,25.11q-2.07,8.82-9.93,8.83c-5.25,0-8.56-2.86-10-8.65l-8.46-33c-1.2-4.69,1.29-8.74,5.79-8.74C44,66.87,46,68.62,46.76,72l6.72,30.17a.48.48,0,0,0,.92,0L60.84,74.6c1.1-4.69,4.41-7.73,9.1-7.73,4.42,0,8,3,9.11,7.73l6.53,27.59c0,.28.18.37.46.37s.37-.09.46-.37L93,72c.83-3.4,2.85-5.15,6.07-5.15,4.51,0,7,4,5.8,8.74l-8.37,33c-1.48,5.79-4.88,8.65-10.12,8.65-4.88,0-8.74-3-9.94-8.74Z"/><path class="cls-1" d="M150.05,112q-6.08,5.25-15.18,5.25A22.72,22.72,0,0,1,119.69,112,19,19,0,0,1,112.8,98.6a103,103,0,0,1,0-13.15,19,19,0,0,1,6.8-13.52,23,23,0,0,1,15.27-5.24q9.1,0,15.18,5.24a19.36,19.36,0,0,1,6.8,13.52,101.63,101.63,0,0,1,0,13.06A19.34,19.34,0,0,1,150.05,112Zm-5.43-24.65c-.28-5.24-4-8.92-9.75-8.92-5.61,0-9.38,3.5-9.84,8.92a50.48,50.48,0,0,0,0,9.2c.46,5.43,4.23,8.92,9.84,8.92s9.38-3.49,9.75-8.92A50.48,50.48,0,0,0,144.62,87.38Z"/><path class="cls-1" d="M197.45,73.77a5.76,5.76,0,0,1-5.8,5.79c-1.19,0-5-.92-6.9-.82-3.22.09-4.78,2.11-4.78,6v26a6.13,6.13,0,0,1-6.16,6.25,6.24,6.24,0,0,1-6.17-6.25V82.42c0-9.66,5.8-15.73,16.19-15.73a35.51,35.51,0,0,1,7.91.73C195.51,68.43,197.45,70.55,197.45,73.77Z"/><path class="cls-1" d="M218.38,85.82h-1.87a6.33,6.33,0,0,0,4.6-2.12L235.37,69a6.33,6.33,0,0,1,4.78-2.21c5.52,0,7.72,6.81,4.41,10.12L229.94,91.34l14.16,14.72a6.38,6.38,0,0,1,.19,9,5.79,5.79,0,0,1-4.42,1.84,6,6,0,0,1-4.69-2.12L221.11,99.62a6,6,0,0,0-4.42-2.12h1.69v13.15a6.09,6.09,0,0,1-6.16,6.35,6.38,6.38,0,0,1-6.16-6.35V56.94a6.16,6.16,0,1,1,12.32,0Z"/><path class="cls-1" d="M273.24,57A10.32,10.32,0,0,1,263,46.48a10,10,0,0,1,10.22-10.22,10.17,10.17,0,0,1,10.22,10.22A10.51,10.51,0,0,1,273.24,57Z"/><path class="cls-1" d="M279.4,67.54v43.11a6.21,6.21,0,0,1-6.16,6.35,6.38,6.38,0,0,1-6.16-6.35V67.54a6.09,6.09,0,0,1,6.16-6.35A6.21,6.21,0,0,1,279.4,67.54Z"/><path class="cls-1" d="M276.84,72.39l-17.67,13.5a6.22,6.22,0,0,1-8.79-1,6.38,6.38,0,0,1,1.31-8.75l17.68-13.5a6.1,6.1,0,0,1,8.78,1A6.2,6.2,0,0,1,276.84,72.39Z"/><path class="cls-1" d="M269.64,72.39l17.68,13.5a6.21,6.21,0,0,0,8.78-1,6.39,6.39,0,0,0-1.3-8.75l-17.68-13.5a6.11,6.11,0,0,0-8.79,1A6.21,6.21,0,0,0,269.64,72.39Z"/><path class="cls-1" d="M345.35,110.65a6.09,6.09,0,0,1-6.16,6.35,6.38,6.38,0,0,1-6.16-6.35V87.38c0-5.61-3.77-8.64-8.92-8.64a16.6,16.6,0,0,0-9,2.2v29.71a6.09,6.09,0,0,1-6.16,6.35,6.38,6.38,0,0,1-6.16-6.35V76.25a5.17,5.17,0,0,1,2.2-4.5c3.68-2.58,10.67-5.06,19.5-5.06,13.71,0,20.88,7.17,20.88,20.14Z"/><path class="cls-1" d="M60.27,143.16a.29.29,0,0,0-.55,0L53.35,166.8c-.5,1.81-1.54,2.69-3.19,2.69a3.13,3.13,0,0,1-3.24-2.64l-7-24.62a1.65,1.65,0,0,1,1.43-2.2,1.57,1.57,0,0,1,1.59,1.26l7,25c.16.38.38.38.55,0l6.1-23.31A3.48,3.48,0,0,1,60,140c1.76,0,2.91,1,3.41,3l6.15,23.25c.17.38.39.38.55,0l6.93-25A1.43,1.43,0,0,1,78.58,140a1.62,1.62,0,0,1,1.48,2.2l-7,24.62a3.17,3.17,0,0,1-3.24,2.64,3.32,3.32,0,0,1-3.3-2.64Z"/><path class="cls-1" d="M114.85,142.78a10.79,10.79,0,0,1,3.57,7.8c.11,2.59.11,5.11,0,7.64a11.21,11.21,0,0,1-3.63,7.92,11.5,11.5,0,0,1-8.24,3.13,11.71,11.71,0,0,1-8.3-3.13,11.13,11.13,0,0,1-3.63-7.92c-.11-2.53-.11-5.05,0-7.64a10.75,10.75,0,0,1,3.57-7.8,13,13,0,0,1,16.66,0Zm-17,15.5a8.7,8.7,0,0,0,17.32,0,61.11,61.11,0,0,0,0-7.7c-.28-4.56-3.63-7.75-8.63-7.75s-8.41,3.19-8.69,7.75A61.11,61.11,0,0,0,97.86,158.28Z"/><path class="cls-1" d="M150.62,141.9a1.53,1.53,0,0,1-1.7,1.43c-.66,0-2.64-.5-4.12-.5-3.74,0-5.5,1.71-5.5,5.5v18.91a1.62,1.62,0,0,1-1.59,1.7,1.66,1.66,0,0,1-1.6-1.7V148.16c0-5.27,3.13-8.4,8.63-8.4a15.5,15.5,0,0,1,4.56.55A1.57,1.57,0,0,1,150.62,141.9Z"/><path class="cls-1" d="M183.71,168.5,172.38,157a4.44,4.44,0,0,0-3.24-1.32H168v11.6a1.6,1.6,0,1,1-3.19,0V131.51a1.66,1.66,0,0,1,1.6-1.7,1.62,1.62,0,0,1,1.59,1.7v20.94h1.16a4.34,4.34,0,0,0,3.18-1.37l10.94-10.67a1.6,1.6,0,0,1,2.69,1.1,1.86,1.86,0,0,1-.6,1.27l-11.65,11.16,12.14,12.25a1.56,1.56,0,0,1-1,2.75A2,2,0,0,1,183.71,168.5Z"/><path class="cls-1" d="M220.31,161a1.85,1.85,0,0,1,1.81-1.49,1.45,1.45,0,0,1,1.43,1.65c0,1.26-.93,3.08-2.64,4.89a12.69,12.69,0,0,1-16.76.06,11.31,11.31,0,0,1-3.57-7.92,58,58,0,0,1,0-7.69,10.53,10.53,0,0,1,3.57-7.81,12.37,12.37,0,0,1,8.52-3,11.44,11.44,0,0,1,8.19,3.13c1.7,1.76,2.58,3.57,2.58,4.84s-.49,1.7-1.54,1.7c-.82,0-1.37-.5-1.7-1.49a7.85,7.85,0,0,0-7.59-5.11c-5.05,0-8.57,3.14-8.79,7.7a58.29,58.29,0,0,0,0,7.75c.38,4.67,3.74,7.91,8.79,7.91A8.05,8.05,0,0,0,220.31,161Z"/><path class="cls-1" d="M239.87,141.79a1.62,1.62,0,0,1,1.65-1.65,1.6,1.6,0,0,1,1.54,1.65V158.5c0,4.78,3.08,7.69,8.3,7.69a15.36,15.36,0,0,0,8.46-2.36v-22a1.57,1.57,0,0,1,1.6-1.65,1.6,1.6,0,0,1,1.59,1.65v22.7a1.53,1.53,0,0,1-.71,1.48,18.66,18.66,0,0,1-10.94,3.3,12.05,12.05,0,0,1-8.3-2.91,10.23,10.23,0,0,1-3.19-8Z"/><path class="cls-1" d="M305.44,158.22c-.61,7-4.73,11.05-11.82,11.05a17.11,17.11,0,0,1-6.1-1.15,18.39,18.39,0,0,1-4.45-2.2,1.68,1.68,0,0,1-.77-1.49V131.51a1.62,1.62,0,0,1,1.65-1.65,1.6,1.6,0,0,1,1.53,1.65v10.11a21.82,21.82,0,0,1,8.52-1.86c6.87,0,10.83,3.79,11.44,10.77A44.88,44.88,0,0,1,305.44,158.22Zm-3.19-7.69c-.39-5.11-3.08-7.7-8.08-7.7a18.94,18.94,0,0,0-8.69,2.15v18.74a11.59,11.59,0,0,0,3.58,1.7,15.62,15.62,0,0,0,4.5.77c5.23,0,8.14-2.64,8.69-7.86A63.18,63.18,0,0,0,302.25,150.53Z"/><path class="cls-1" d="M345.5,153.06c0,1.92-1,2.91-3.19,2.91H325.22v1.1c0,5.71,3.52,9.12,9,9.12a20.7,20.7,0,0,0,7-1.48c1.48-.5,2.47.27,2.47,1.32a1.74,1.74,0,0,1-.93,1.48c-1.93,1.16-4.79,1.76-8.52,1.76-7.48,0-11.82-4.67-12.2-12a50.66,50.66,0,0,1,.05-6.38c.5-6.87,5.22-11.15,11.87-11.15a11,11,0,0,1,8.36,3.24,11.3,11.3,0,0,1,3.13,8.24Zm-4-.17a.76.76,0,0,0,.82-.77c.44-5.55-3-9.29-8.35-9.29-5.88,0-8.91,3.69-8.74,10.06Z"/></svg>