<svg id="Layer_1" data-name="Layer 1" xmlns="http://www.w3.org/2000/svg" viewBox="0 0 239.66 108.26"><defs><style>.cls-1{fill:#faa61a;}.cls-2{fill:#ffcb05;}.cls-3{fill:#fff;}</style></defs><polygon class="cls-1" points="63.26 82.7 56.69 95.47 43.92 82.7 50.49 69.93 63.26 82.7"/><polygon class="cls-2" points="195.74 32.74 189.17 19.97 176.4 32.74 182.97 45.51 195.74 32.74"/><rect class="cls-1" x="22.63" y="30.9" width="97.19" height="53.63" rx="11.34"/><rect class="cls-2" x="119.84" y="30.9" width="97.19" height="53.63" rx="11.34" transform="translate(336.87 115.44) rotate(180)"/><path class="cls-3" d="M46,53.19c0-.11-.07-.15-.19-.15s-.19,0-.19.15L42.33,65.86c-.5,2-1.65,3-3.41,3a3.44,3.44,0,0,1-3.44-2.91l-4-15.12a2,2,0,0,1,1.87-2.76,2,2,0,0,1,2,1.69l3.52,14.39a.2.2,0,0,0,.39,0l3.29-13.21a3.28,3.28,0,0,1,6.51,0l3.29,13.21a.2.2,0,0,0,.38,0l3.52-14.36a2.11,2.11,0,0,1,2-1.72,2,2,0,0,1,1.91,2.76L56.11,65.9c-.5,1.95-1.64,2.95-3.44,2.95s-3-1-3.45-2.95Z"/><path class="cls-3" d="M76.13,50a7.84,7.84,0,0,1,2.72,5.56,45.37,45.37,0,0,1,0,5.47,8.15,8.15,0,0,1-2.72,5.63A8.84,8.84,0,0,1,70,68.85a8.7,8.7,0,0,1-6.08-2.22A8.27,8.27,0,0,1,61.16,61a41.6,41.6,0,0,1,0-5.47A7.91,7.91,0,0,1,63.88,50a9.84,9.84,0,0,1,12.25,0ZM65.22,56.06a27.1,27.1,0,0,0,0,4.44,4.82,4.82,0,0,0,9.61,0c.07-1,.07-2.45,0-4.44a4.83,4.83,0,0,0-9.61,0Z"/><path class="cls-3" d="M93.31,50.17a1.87,1.87,0,0,1-1.91,1.91c-.15,0-.54-.08-1.19-.19a6.49,6.49,0,0,0-1.68-.15c-1.76,0-2.64,1-2.64,3.06V66.59a2,2,0,1,1-4.06,0V54.15c0-3.95,2.3-6.32,6.43-6.32a13.21,13.21,0,0,1,3.48.42A1.91,1.91,0,0,1,93.31,50.17Z"/><path class="cls-3" d="M98.75,43.24v13h.53a2.78,2.78,0,0,0,2-.88l6.59-6.62a2,2,0,0,1,2.95-.08,2,2,0,0,1,0,2.76L104,58.05l6.86,7a2.06,2.06,0,0,1,.07,2.91,2,2,0,0,1-2.94,0l-6.63-7a2.69,2.69,0,0,0-2-.92h-.57v6.47a2,2,0,0,1-2.07,2.07,2.07,2.07,0,0,1-2-2.07V43.24a2,2,0,1,1,4.06,0Z"/><path class="cls-3" d="M140.46,47.83a12.16,12.16,0,0,1,5,1.11V43.2a2.08,2.08,0,0,1,2-2.07,2,2,0,0,1,2,2.07V64.94a1.7,1.7,0,0,1-.73,1.53A14.15,14.15,0,0,1,141,68.85c-5.05,0-8.31-3.1-8.73-7.89a32.82,32.82,0,0,1,0-5.43C132.68,50.66,135.59,47.83,140.46,47.83Zm.61,17.11a8.81,8.81,0,0,0,4.4-1.37V52.92a8.62,8.62,0,0,0-4.71-1.18c-2.79,0-4.29,1.41-4.44,4.25a30.19,30.19,0,0,0,0,4.47C136.55,63.45,138.12,64.94,141.07,64.94Z"/><path class="cls-3" d="M170.16,57.48a2.22,2.22,0,0,1-2.45,2.45H156.88v.46c0,3,2,4.74,5.05,4.74a13.52,13.52,0,0,0,4.4-.91,1.85,1.85,0,0,1,2.76,1.57,1.94,1.94,0,0,1-1,1.72,12,12,0,0,1-6.2,1.34,8.34,8.34,0,0,1-8.92-8.23,34.15,34.15,0,0,1,0-4.75A8.48,8.48,0,0,1,155.61,50a8.73,8.73,0,0,1,6-2.18,8.07,8.07,0,0,1,8.5,8.58Zm-4.4-.77c.27,0,.42-.15.46-.46a4.25,4.25,0,0,0-4.56-4.82c-3.21,0-4.9,2-4.78,5.28Z"/><path class="cls-3" d="M181.64,56.75c3.6.88,5.4,2.83,5.4,5.78a5.57,5.57,0,0,1-2.18,4.6,8.54,8.54,0,0,1-5.51,1.72,10.73,10.73,0,0,1-7-2.18,2,2,0,0,1-.38-2.61,1.76,1.76,0,0,1,2.68-.38,8.17,8.17,0,0,0,4.94,1.49c2.26,0,3.52-1,3.52-2.52,0-1.11-.77-1.8-2.64-2.26s-2.72-.61-2.76-.65c-3.71-.92-5.55-2.84-5.55-5.75a5.4,5.4,0,0,1,2.11-4.48,8.64,8.64,0,0,1,5.43-1.68,8.82,8.82,0,0,1,5.78,1.8,1.89,1.89,0,0,1,.19,2.6c-.65.77-1.53.85-2.64.27a6.78,6.78,0,0,0-3.52-1c-2.3,0-3.45.81-3.45,2.38,0,1.07.69,1.64,2.65,2.14Z"/><path class="cls-3" d="M193.47,43.24v13H194a2.78,2.78,0,0,0,2-.88l6.59-6.62a2,2,0,0,1,2.95-.08,2,2,0,0,1,0,2.76l-6.85,6.66,6.85,7a2.07,2.07,0,0,1,.08,2.91,2,2,0,0,1-3,0L196,61a2.69,2.69,0,0,0-2-.92h-.57v6.47a2,2,0,0,1-2.07,2.07,2.07,2.07,0,0,1-2-2.07V43.24a2,2,0,1,1,4.06,0Z"/></svg>