<svg xmlns="http://www.w3.org/2000/svg" viewBox="0 0 49.8 58.2"><defs><style>.cls-1{fill:#089939;}.cls-1,.cls-2,.cls-3{fill-rule:evenodd;}.cls-2{fill:#0a7634;}.cls-3{fill:#40ac44;}.cls-4{fill:#fff;}</style></defs><g id="katman_2" data-name="katman 2"><g id="katman_1-2" data-name="katman 1"><path class="cls-1" d="M6.53,0H32.92L49.8,16.71v35a6.55,6.55,0,0,1-6.53,6.52H6.53A6.55,6.55,0,0,1,0,51.68V6.53A6.55,6.55,0,0,1,6.53,0Z"/><polygon class="cls-2" points="35.32 15.18 49.8 28.55 49.8 16.71 45.89 12.84 35.32 15.18 35.32 15.18"/><path class="cls-3" d="M49.78,16.69H39.49A6.55,6.55,0,0,1,33,10.16V0L49.78,16.69Z"/><path class="cls-4" d="M13.42,41.27l2.4-4.53h3L15,43.08l4,6.45H15.93l-2.47-4.61L11,49.53H8l3.89-6.45L8.09,36.74h3l2.36,4.53Zm13.86,5.47H22.79l-.87,2.79H19.33l4.4-12.79h2.63l4.39,12.79h-2.6l-.87-2.79Zm-3.87-2h3.26l-1.62-5.18h0l-1.62,5.18Zm11.2-.34v5.11H32V36.74h5a5,5,0,0,1,3.33.95,3.43,3.43,0,0,1,1.12,2.78A2.65,2.65,0,0,1,41,42.23a3.83,3.83,0,0,1-1.64,1.11v0a2.78,2.78,0,0,1,1.61,1.12,3.64,3.64,0,0,1,.47,1.94v.94a4.59,4.59,0,0,0,.14,1.09,1.48,1.48,0,0,0,.5.84v.24H39.41a1.42,1.42,0,0,1-.46-.94,7.91,7.91,0,0,1-.11-1.24v-.91a2.11,2.11,0,0,0-.48-1.5,1.85,1.85,0,0,0-1.44-.52Zm0-2h2.21A2.45,2.45,0,0,0,38.44,42,1.69,1.69,0,0,0,39,40.63a1.94,1.94,0,0,0-.49-1.41,2,2,0,0,0-1.54-.51H34.61v3.73Z"/><path class="cls-3" d="M26.89,9H19.28c-2.79,0-4.61,1.26-5.43,2.87a4.53,4.53,0,0,0,0,4.1c.82,1.61,2.63,2.87,5.43,2.87H31.2a3.13,3.13,0,0,1,3.08,1.64,2.59,2.59,0,0,1,.25,1.13,2.8,2.8,0,0,1-.26,1.16,3.16,3.16,0,0,1-3.07,1.7H22.41a2.29,2.29,0,1,0,0,1.92H31.2A5,5,0,0,0,36,23.52a4.66,4.66,0,0,0,0-3.89,5,5,0,0,0-4.82-2.75H19.28c-2,0-3.2-.79-3.72-1.81a2.67,2.67,0,0,1,0-2.38c.52-1,1.75-1.82,3.72-1.82h7.49a2.15,2.15,0,0,0,2.13,1.46,2.39,2.39,0,0,0,2.29-2.29A2.44,2.44,0,0,0,28.9,7.76a2.08,2.08,0,0,0-2,1.2Z"/></g></g></svg>