<?xml version="1.0" encoding="iso-8859-1"?>
<!-- Generator: Adobe Illustrator 19.0.0, SVG Export Plug-In . SVG Version: 6.00 Build 0)  -->
<svg version="1.1" id="Capa_1" xmlns="http://www.w3.org/2000/svg" xmlns:xlink="http://www.w3.org/1999/xlink" x="0px" y="0px"
	 viewBox="0 0 512 512" style="enable-background:new 0 0 512 512;" xml:space="preserve">
<path style="fill:#83C9FF;" d="M511.995,256.005c0,68.377-26.621,132.666-74.975,181.01C388.666,485.369,324.377,512,256,512h-0.11
	c-68.337-0.03-132.586-26.661-180.91-74.985C26.636,388.671,0.005,324.382,0.005,256.005c0-68.387,26.631-132.666,74.975-181.02
	C123.304,26.661,187.553,0.03,255.89,0H256c68.377,0,132.666,26.631,181.02,74.985S511.995,187.618,511.995,256.005z"/>
<path style="fill:#00A5FF;" d="M511.995,256.005c0,68.377-26.621,132.666-74.975,181.01C388.666,485.369,324.377,512,256,512h-0.11
	V0H256c68.377,0,132.666,26.631,181.02,74.985S511.995,187.618,511.995,256.005z"/>
<g>
	<path style="fill:#74FFF4;" d="M298.796,388.781c0,8.277-6.718,14.995-14.995,14.995h-55.592c-8.287,0-14.995-6.718-14.995-14.995
		c0-8.287,6.708-14.995,14.995-14.995h55.592C292.078,373.786,298.796,380.494,298.796,388.781z"/>
	<path style="fill:#74FFF4;" d="M314.241,433.806c0,8.277-6.718,14.995-14.995,14.995h-86.481c-8.287,0-14.995-6.718-14.995-14.995
		c0-8.287,6.708-14.995,14.995-14.995h86.481C307.523,418.811,314.241,425.519,314.241,433.806z"/>
</g>
<g>
	<path style="fill:#00F7FF;" d="M283.801,403.776H256v-29.99h27.801c8.277,0,14.995,6.708,14.995,14.995
		C298.796,397.058,292.078,403.776,283.801,403.776z"/>
	<path style="fill:#00F7FF;" d="M314.241,433.806c0,8.277-6.718,14.995-14.995,14.995H256v-29.99h43.246
		C307.523,418.811,314.241,425.519,314.241,433.806z"/>
</g>
<path style="fill:#FF4F19;" d="M167.205,308.289c-5.811,0-11.342-3.399-13.783-9.077c-3.27-7.608,0.247-16.428,7.854-19.698
	l68.697-29.529c7.605-3.272,16.427,0.245,19.698,7.854c3.27,7.608-0.247,16.428-7.854,19.698l-68.697,29.529
	C171.189,307.896,169.181,308.289,167.205,308.289z"/>
<path style="fill:#FFA81F;" d="M291.098,253.746c0,19.354-15.745,35.108-35.098,35.108s-35.098-15.755-35.098-35.108
	s15.745-35.098,35.098-35.098C275.354,218.647,291.098,234.392,291.098,253.746z"/>
<path style="fill:#FF8700;" d="M256,288.854v-70.207c19.354,0,35.098,15.745,35.098,35.098S275.354,288.854,256,288.854z"/>
<path style="fill:#6B77E8;" d="M438.12,254.266c0,46.625-17.604,90.99-49.584,124.899c-2.949,3.139-6.928,4.718-10.906,4.718
	c-0.02,0-0.04-0.01-0.05-0.01c-0.02,0-0.04,0.01-0.05,0.01c-3.839,0-7.677-1.47-10.606-4.399l-24.582-24.582
	c-5.858-5.858-5.858-15.345,0-21.203c5.858-5.858,15.355-5.858,21.213,0l13.156,13.166c17.374-22.603,27.981-49.474,30.71-77.864
	h-19.913c-8.277,0-14.995-6.718-14.995-14.995s6.718-14.995,14.995-14.995h19.863c-3.049-30.45-15.115-58.291-33.479-80.793
	l-13.466,13.466c-2.929,2.929-6.768,4.399-10.606,4.399s-7.667-1.47-10.596-4.399c-5.858-5.848-5.858-15.345,0-21.203l13.536-13.536
	c-22.692-18.744-50.883-31.04-81.763-34.079V121.9c0,8.287-6.708,14.995-14.995,14.995h-0.11
	c-8.227-0.06-14.885-6.748-14.885-14.995v-19.034c-30.68,3.019-58.721,15.195-81.333,33.739l13.865,13.875
	c5.858,5.858,5.858,15.355,0,21.203c-2.929,2.929-6.768,4.399-10.606,4.399c-3.829,0-7.667-1.47-10.596-4.399l-13.885-13.885
	c-18.504,22.513-30.69,50.413-33.799,80.953h18.994c8.277,0,14.995,6.718,14.995,14.995c0,8.287-6.718,14.995-14.995,14.995H104.56
	c2.599,27.321,12.506,53.332,28.72,75.435l12.866-12.866c5.858-5.858,15.355-5.858,21.203,0c5.858,5.858,5.858,15.345,0,21.203
	l-23.512,23.522c-0.47,0.57-0.97,1.12-1.529,1.629c-5.928,5.378-14.965,5.118-20.593-0.44c-0.05-0.04-0.1-0.08-0.15-0.13
	c-0.04-0.04-0.08-0.09-0.12-0.14c-0.11-0.1-0.22-0.2-0.32-0.31c-30.47-33.559-47.244-77.024-47.244-122.379v-0.52
	c0-0.06,0.01-0.11,0.01-0.17c0.37-100.067,81.863-181.37,182-181.43H256C356.427,72.146,438.12,153.839,438.12,254.266z"/>
<path style="fill:#4B5BE4;" d="M438.12,254.266c0,46.625-17.604,90.99-49.584,124.899c-2.949,3.139-6.928,4.718-10.906,4.718
	c-0.02,0-0.04-0.01-0.05-0.01c-0.02,0-0.04,0.01-0.05,0.01c-3.839,0-7.677-1.47-10.606-4.399l-24.582-24.582
	c-5.858-5.858-5.858-15.345,0-21.203c5.858-5.858,15.355-5.858,21.213,0l13.156,13.166c17.374-22.603,27.981-49.474,30.71-77.864
	h-19.913c-8.277,0-14.995-6.718-14.995-14.995s6.718-14.995,14.995-14.995h19.863c-3.049-30.45-15.115-58.291-33.479-80.793
	l-13.466,13.466c-2.929,2.929-6.768,4.399-10.606,4.399s-7.667-1.47-10.596-4.399c-5.858-5.848-5.858-15.345,0-21.203l13.536-13.536
	c-22.692-18.744-50.883-31.04-81.763-34.079V121.9c0,8.287-6.708,14.995-14.995,14.995h-0.11V72.146H256
	C356.427,72.146,438.12,153.839,438.12,254.266z"/>
<g>
</g>
<g>
</g>
<g>
</g>
<g>
</g>
<g>
</g>
<g>
</g>
<g>
</g>
<g>
</g>
<g>
</g>
<g>
</g>
<g>
</g>
<g>
</g>
<g>
</g>
<g>
</g>
<g>
</g>
</svg>
