<svg version="1.2" baseProfile="tiny-ps" xmlns="http://www.w3.org/2000/svg" viewBox="0 0 512 528" width="512" height="528">
	<title>power_bi_logo-svg</title>
	<defs>
		<clipPath clipPathUnits="userSpaceOnUse" id="cp1">
			<path d="M0 -2.18L499.59 -2.18L499.59 524.27L0 524.27L0 -2.18Z" />
		</clipPath>
		<clipPath clipPathUnits="userSpaceOnUse" id="cp2">
			<path d="M0 -2.18L499.59 -2.18L499.59 524.27L0 524.27L0 -2.18Z" />
		</clipPath>
	</defs>
	<style>
		tspan { white-space:pre }
		.shp0 { fill: #edbc11 } 
	</style>
	<g id="Layer">
		<g id="Clip-Path" clip-path="url(#cp1)">
			<path id="Layer" class="shp0" d="M158.25 421.77C158.25 438.85 144.29 454.38 125.67 454.38C107.05 454.38 93.09 440.41 93.09 421.77L93.09 282.01C93.09 264.92 107.05 249.39 125.67 249.39C144.29 249.39 158.25 263.37 158.25 282.01L158.25 421.77ZM251.35 459.04C251.35 476.12 237.38 491.65 218.76 491.65C200.15 491.65 187.73 477.68 187.73 459.04L187.73 246.29C187.73 229.21 201.7 213.68 220.32 213.68C238.93 213.68 252.9 227.65 252.9 246.29L252.9 459.04L251.35 459.04ZM63.61 390.71C63.61 407.79 49.65 423.32 31.03 423.32C12.41 423.32 -1.55 409.35 -1.55 390.71L-1.55 314.62C-1.55 297.54 12.41 282.01 31.03 282.01C49.65 282.01 63.61 297.54 63.61 314.62L63.61 390.71ZM344.44 493.21C344.44 510.29 330.47 525.82 311.85 525.82C294.79 525.82 280.82 510.29 280.82 493.21L280.82 210.57C280.82 193.49 294.79 177.96 313.41 177.96C330.47 177.96 345.99 191.94 345.99 210.57L345.99 493.21L344.44 493.21Z" />
		</g>
		<g id="Clip-Path" clip-path="url(#cp2)">
			<path id="Layer" class="shp0" d="M446.84 479.23C440.63 479.23 435.98 477.68 429.77 476.12L390.98 463.7C384.78 462.15 380.12 454.38 383.22 448.17C384.78 441.96 392.53 437.3 398.74 440.41L439.08 452.83C446.84 455.94 456.15 454.38 463.9 448.17C471.66 443.51 474.76 434.19 474.76 426.43L474.76 167.09C474.76 154.67 467.01 143.79 456.15 140.69L76.02 25.77C68.27 22.67 58.96 24.22 51.2 28.88C44.99 35.09 40.34 42.85 40.34 52.17L40.34 230.76C40.34 238.52 34.13 243.18 27.93 243.18C20.17 243.18 15.52 236.97 15.52 230.76L15.52 52.17C15.52 35.09 23.27 19.56 37.24 10.24C51.2 -0.63 68.27 -2.18 83.78 2.48L462.35 117.39C484.07 123.61 499.59 145.35 499.59 168.64L499.59 427.98C499.59 445.07 491.83 460.59 477.87 471.47C468.56 474.57 457.7 479.23 446.84 479.23" />
		</g>
	</g>
</svg>