<?xml version="1.0" encoding="utf-8"?>
<!-- Generator: Adobe Illustrator 21.0.2, SVG Export Plug-In . SVG Version: 6.00 Build 0)  -->
<svg version="1.1" id="Layer_1" xmlns="http://www.w3.org/2000/svg" xmlns:xlink="http://www.w3.org/1999/xlink" x="10px" y="10px"
	 viewBox="0 0 250 184" style="enable-background:new 0 0 232 147;" xml:space="preserve">
<style type="text/css">
	.st0{fill:#EAE4E3;}
	.st1{fill:none;stroke:#E1051D;stroke-width:2;stroke-miterlimit:10;}
	.st2{fill:none;stroke:#000000;stroke-miterlimit:10;}
	.st3{fill:#E1051D;}
	.st4{fill:none;stroke:#E1051D;stroke-miterlimit:10;}
	.st5{font-family:'CaviarDreams-Bold';}
	.st6{font-size:14.3995px;}
	.st7{font-size:14.184px;}
</style>
<g>
	<rect x="113" y="44.9" class="st0" width="100" height="56.3"/>
	<rect x="15.3" y="44.9" class="st0" width="82" height="56.3"/>
	<path class="st1" d="M48.5,44.9c0,0,17.7-10.8,40-11.3c0,0,53.7-3.3,73.2,11.3c0,0-11,39-48.7,59.2c0,0-6.8,5.5-15.8,0
		C97.3,104.2,66.8,89.2,48.5,44.9z"/>
	<line class="st2" x1="97.3" y1="44.9" x2="97.3" y2="125.2"/>
	<line class="st2" x1="113" y1="44.9" x2="113" y2="125.2"/>
	<line class="st2" x1="178.8" y1="49.9" x2="178.8" y2="95.2"/>
	<polygon class="st3" points="200.9,53.6 204.7,46.3 208.4,53.6 204.7,51.6 	"/>
	<polygon points="182.5,92.9 178.8,100.1 175,92.9 178.8,94.9 	"/>
	<polygon points="175,54.2 178.8,46.9 182.5,54.2 178.8,52.2 	"/>
	<line class="st4" x1="204.7" y1="58.3" x2="204.7" y2="50.6"/>
	<polygon class="st3" points="208.4,24.4 204.7,31.7 200.9,24.4 204.7,26.4 	"/>
	<line class="st4" x1="204.7" y1="19.7" x2="204.7" y2="27.4"/>
	<polygon class="st3" points="105.5,18.9 98.3,15.2 105.5,11.4 103.5,15.2 	"/>
	<line class="st4" x1="110.3" y1="15.2" x2="102.5" y2="15.2"/>
	<polygon points="121.3,122.3 114,118.5 121.3,114.8 119.3,118.5 	"/>
	<line class="st2" x1="126" y1="118.5" x2="118.3" y2="118.5"/>
	<polygon points="89.1,114.8 96.3,118.5 89.1,122.3 91.1,118.5 	"/>
	<line class="st2" x1="84.3" y1="118.5" x2="92.1" y2="118.5"/>
	<polygon class="st3" points="40.4,11.4 47.7,15.2 40.4,18.9 42.4,15.2 	"/>
	<line class="st4" x1="35.7" y1="15.2" x2="43.4" y2="15.2"/>
	<polygon class="st3" points="23.9,110.2 27.7,102.9 31.4,110.2 27.7,108.2 	"/>
	<polygon class="st3" points="31.4,119.1 27.7,126.4 23.9,119.1 27.7,121.1 	"/>
	<line class="st4" x1="27.7" y1="121.3" x2="27.7" y2="107.2"/>
	<line class="st4" x1="48.5" y1="12.4" x2="48.5" y2="41.3"/>
	<line class="st4" x1="97.3" y1="12.4" x2="97.3" y2="41.3"/>
	<line class="st4" x1="210.5" y1="32.3" x2="150.6" y2="32.3"/>
	<line class="st4" x1="210.4" y1="45.9" x2="198.9" y2="45.9"/>
	<polyline class="st4" points="19.5,127.9 40.9,127.9 63.4,107.5 84.6,107.5 	"/>
	<g>
		<text transform="matrix(1 0 0 1 7.9856 119.7515)" class="st3 st5 st6">p</text>
	</g>
	<g>
		<text transform="matrix(1 0 0 1 183.282 76.3643)" class="st5 st6">Th</text>
	</g>
	<g>
		<text transform="matrix(1 0 0 1 69.1155 18.0303)" class="st3 st5 st6">o</text>
	</g>
	<g>
		<text transform="matrix(1 0 0 1 99.4392 138.8428)" class="st5 st7">G</text>
	</g>
	<g>
		<text transform="matrix(1 0 0 1 217.949 41.3223)" class="st3 st5 st6">c</text>
	</g>
</g>
</svg>
