<?xml version="1.0" encoding="utf-8"?>
<!-- Generator: Adobe Illustrator 21.0.2, SVG Export Plug-In . SVG Version: 6.00 Build 0)  -->
<svg version="1.1" id="Layer_1" xmlns="http://www.w3.org/2000/svg" xmlns:xlink="http://www.w3.org/1999/xlink" x="0px" y="0px"
	 viewBox="0 0 250 184" style="enable-background:new 0 0 250 184;" xml:space="preserve">
<style type="text/css">
	.st0{fill:#EBE6E3;}
	.st1{fill:#E1051D;}
	.st2{fill:none;stroke:#E1051D;stroke-miterlimit:10;}
	.st3{fill:none;stroke:#000000;stroke-miterlimit:10;}
	.st4{font-family:'CaviarDreams-Bold';}
	.st5{font-size:13.2658px;}
	.st6{font-size:14.3995px;}
	.st7{font-size:13.5155px;}
	.st8{fill:none;stroke:#000000;stroke-miterlimit:10;stroke-dasharray:1,1,1,1,1,1;}
	.st9{fill:none;stroke:#E1051D;stroke-width:2;stroke-miterlimit:10;}
	.st10{font-family:'LucidaCalligraphy-Italic';}
</style>
<g>
	<polygon class="st0" points="11.6,52.6 78.3,52.6 103.6,91.9 103.6,103.2 90.4,121.2 11.6,121.2 	"/>
	<polygon class="st0" points="213.3,52.6 146.7,52.6 119.3,92.6 119.4,102.6 133.3,121.2 213.3,121.2 	"/>
	<polygon class="st1" points="201.5,139.8 205.2,132.5 209,139.8 205.2,137.8 	"/>
	<line class="st2" x1="205.2" y1="141.6" x2="205.2" y2="136.8"/>
	<polygon class="st1" points="209.1,113.1 205.3,120.3 201.6,113.1 205.3,115.1 	"/>
	<line class="st2" x1="205.3" y1="111.3" x2="205.3" y2="116.1"/>
	<polygon points="171.1,110.2 167.3,102.9 163.6,110.2 167.3,108.2 	"/>
	<line class="st3" x1="167.3" y1="112.9" x2="167.3" y2="107.2"/>
	<line class="st3" x1="170.8" y1="93.2" x2="143.3" y2="93.2"/>
	<line class="st3" x1="170.8" y1="102.1" x2="143.3" y2="102.1"/>
	<line class="st3" x1="193.8" y1="57.3" x2="193.8" y2="114.2"/>
	<line class="st3" x1="104.3" y1="111.5" x2="104.3" y2="164.2"/>
	<line class="st3" x1="116.4" y1="111.5" x2="116.4" y2="164.2"/>
	<polygon points="197.6,112.2 193.8,119.5 190.1,112.2 193.8,114.2 	"/>
	<polygon points="190.1,61.6 193.8,54.3 197.6,61.6 193.8,59.6 	"/>
	<line class="st3" x1="167.3" y1="57.3" x2="167.3" y2="87.9"/>
	<polygon points="171.1,85.2 167.3,92.5 163.6,85.2 167.3,87.2 	"/>
	<polygon points="163.6,61.6 167.3,54.3 171.1,61.6 167.3,59.6 	"/>
	<g>
		<text transform="matrix(1 0 0 1 198.7485 79.4212)" class="st4 st5">Th</text>
	</g>
	<g>
		<text transform="matrix(1 0 0 1 43.4075 35.4016)" class="st1 st4 st6">o</text>
	</g>
	<g>
		<text transform="matrix(1 0 0 1 106.5747 76.5451)" class="st4 st5">G</text>
	</g>
	<polygon points="95.7,56.8 103,60.6 95.7,64.3 97.7,60.6 	"/>
	<line class="st3" x1="90.3" y1="60.6" x2="98.7" y2="60.6"/>
	<polygon points="125.5,64.3 118.2,60.6 125.5,56.8 123.5,60.6 	"/>
	<line class="st3" x1="130.9" y1="60.6" x2="122.5" y2="60.6"/>
	<g>
		<text transform="matrix(1 0 0 1 173.149 99.8076)" class="st4 st7">r</text>
	</g>
	<polygon points="76,35 67.9,34 73.4,28 72.9,32.2 	"/>
	<polygon points="95.1,24 102.7,27.2 95.7,31.5 97.4,27.6 	"/>
	<polygon points="149.4,35.8 157.6,34.8 152.1,28.8 152.6,33 	"/>
	<polygon points="125.3,23.7 117.8,26.8 124.7,31.2 123,27.3 	"/>
	<path class="st3" d="M97.5,27.5c0,0-18.1,1.2-28.1,6"/>
	<path class="st3" d="M122.9,27.3c0,0,19.6,0.8,30.6,5.8"/>
	<polygon points="141.1,143.5 148.3,144.1 143.7,149.6 144,145.9 	"/>
	<polygon points="124.6,153.9 117.9,151.3 123.9,147.3 122.5,150.8 	"/>
	<polygon points="82.3,143.3 75.2,144.1 80,149.5 79.5,145.8 	"/>
	<polygon points="96.3,153.9 102.9,151.1 96.8,147.3 98.3,150.7 	"/>
	<path class="st3" d="M122.4,150.9c0,0,15.9-1.6,24.6-6.2"/>
	<path class="st3" d="M98.8,150.6c0,0-9.8,0.5-20.1-4.8"/>
	<polyline class="st8" points="168.6,20.6 119.3,92.6 119.4,102.6 155.3,150.6 	"/>
	<polyline class="st8" points="57.6,20.6 103.6,91.9 103.6,103.2 68.8,150.6 	"/>
	<path class="st9" d="M58.8,53.7c0,0,7.5-7.5,51.3-7.5c0,0,43.8-0.5,53.5,7.5c0,0-6,25.5-41.6,45.3c0,0-10.4,1.7-20.9,0
		C101.1,99.1,75.6,90.4,58.8,53.7z"/>
	<path class="st9" d="M94.1,95.6c0,0-16.6,12.3-24,30.7c0,0,7.1,6.5,41,6.5c0,0,30.8,0.7,41.3-6.5c0,0-5.9-16.1-24.6-30.7
		c0,0-5.4,3.4-5.9,3.5c0,0-10.3,1.7-20.9,0C101.1,99.1,96.7,97.2,94.1,95.6z"/>
	<line class="st3" x1="104.3" y1="21.4" x2="104.3" y2="65.4"/>
	<line class="st3" x1="116.3" y1="21.4" x2="116.3" y2="65.4"/>
	<line class="st2" x1="210.7" y1="42.4" x2="153.7" y2="42.4"/>
	<line class="st2" x1="210.7" y1="131.7" x2="154.5" y2="131.7"/>
	<line class="st2" x1="210.7" y1="121.2" x2="199.9" y2="121.2"/>
	<polygon class="st1" points="201.6,61.4 205.3,54.2 209.1,61.4 205.3,59.4 	"/>
	<line class="st2" x1="205.3" y1="63.3" x2="205.3" y2="58.4"/>
	<polygon class="st1" points="209.1,34.1 205.3,41.4 201.6,34.1 205.3,36.1 	"/>
	<line class="st2" x1="205.3" y1="32.3" x2="205.3" y2="37.1"/>
	<polygon class="st1" points="49.9,35.9 57.2,39.6 49.9,43.4 51.9,39.6 	"/>
	<line class="st2" x1="45.1" y1="39.6" x2="52.9" y2="39.6"/>
	<polygon class="st1" points="87.1,43.4 79.9,39.6 87.1,35.9 85.1,39.6 	"/>
	<line class="st2" x1="91.9" y1="39.6" x2="84.1" y2="39.6"/>
	<line class="st2" x1="199.9" y1="53.3" x2="210.7" y2="53.3"/>
	<line class="st2" x1="58.8" y1="37.5" x2="58.8" y2="48.6"/>
	<line class="st2" x1="78.1" y1="37.5" x2="78.1" y2="48.6"/>
	<g>
		<text transform="matrix(1 0 0 1 174.6485 77.0059)" class="st4 st7">d1</text>
	</g>
	<g>
		<text transform="matrix(1 0 0 1 216.2403 48.566)" class="st1 st4 st6">c1</text>
	</g>
	<g>
		<text transform="matrix(1 0 0 1 216.2403 130.5244)" class="st1 st4 st6">c2</text>
	</g>
	<text transform="matrix(1 0 0 1 75.165 20.5659)" class="st10 st6">a2</text>
	<text transform="matrix(1 0 0 1 133.4594 20.5662)" class="st10 st6">a1</text>
	<text transform="matrix(1 0 0 1 75.165 164.1621)" class="st10 st6">a3</text>
	<text transform="matrix(1 0 0 1 129.0428 164.1624)" class="st10 st6">a4</text>
</g>
</svg>
