<?xml version="1.0" encoding="utf-8"?>
<!-- Generator: Adobe Illustrator 21.0.2, SVG Export Plug-In . SVG Version: 6.00 Build 0)  -->
<svg version="1.1" id="Layer_1" xmlns="http://www.w3.org/2000/svg" xmlns:xlink="http://www.w3.org/1999/xlink" x="0px" y="0px"
	 viewBox="0 0 250 184" style="enable-background:new 0 0 250 184;" xml:space="preserve">
<style type="text/css">
	.st0{fill:#E1051D;}
	.st1{fill:none;stroke:#E1051D;stroke-miterlimit:10;}
	.st2{fill:#EBE6E3;}
	.st3{fill:none;stroke:#E1051D;stroke-width:2;stroke-linecap:round;stroke-linejoin:round;stroke-miterlimit:10;}
	.st4{fill:none;stroke:#000000;stroke-miterlimit:10;}
	.st5{fill:none;stroke:#000000;stroke-miterlimit:10;stroke-dasharray:1,1,1,1,1,1;}
	.st6{font-family:'CaviarDreams-Bold';}
	.st7{font-size:14.3995px;}
</style>
<g>
	<polygon points="98.5,103.9 90.7,106.4 93.2,98.6 94.4,102.7 	"/>
	<polygon points="111.2,81.9 119,79.4 116.5,87.2 115.3,83.1 	"/>
	<polygon class="st0" points="99.4,70.3 107.2,67.8 104.7,75.6 103.5,71.5 	"/>
	<line class="st1" x1="99" y1="76" x2="104.2" y2="70.8"/>
	<polygon class="st0" points="126.8,54 119,56.5 121.5,48.7 122.7,52.8 	"/>
	<line class="st1" x1="127.2" y1="48.3" x2="122" y2="53.5"/>
	<rect x="17.3" y="109.2" class="st2" width="204" height="56.4"/>
	<rect x="36.6" y="22.5" class="st2" width="50" height="82.4"/>
	<path class="st3" d="M86.6,45.3c0,0,18.1,0.8,41.7,23.6c0,0,24.2,23.7,28.5,41.6c0,0-28.6,19.8-69.6,17.4L74,115
		C74,115,64.8,85.1,86.6,45.3z"/>
	<line class="st4" x1="93.8" y1="103" x2="115.5" y2="82.8"/>
	<line class="st5" x1="86.6" y1="44.9" x2="157.2" y2="110.9"/>
	<g>
		<text transform="matrix(1 0 0 1 92.3101 88.468)" class="st0 st6 st7">a</text>
	</g>
	<g>
		<text transform="matrix(1 0 0 1 131.4767 46.1346)" class="st0 st6 st7">c</text>
	</g>
</g>
</svg>
