<?xml version="1.0" encoding="utf-8"?>
<!-- Generator: Adobe Illustrator 21.0.2, SVG Export Plug-In . SVG Version: 6.00 Build 0)  -->
<svg version="1.1" id="Layer_1" xmlns="http://www.w3.org/2000/svg" xmlns:xlink="http://www.w3.org/1999/xlink" x="0px" y="0px"
	 viewBox="0 0 250 184" style="enable-background:new 0 0 250 184;" xml:space="preserve">
<style type="text/css">
	.st0{fill:#EBE6E3;}
	.st1{fill:#E1051D;}
	.st2{fill:none;stroke:#E1051D;stroke-miterlimit:10;}
	.st3{fill:none;stroke:#000000;stroke-miterlimit:10;}
	.st4{font-family:'CaviarDreams-Bold';}
	.st5{font-size:14.3995px;}
	.st6{font-size:13.2658px;}
	.st7{fill:none;stroke:#E1051D;stroke-width:2;stroke-linecap:round;stroke-linejoin:round;stroke-miterlimit:10;}
	.st8{font-size:13.5155px;}
	.st9{font-family:'LucidaCalligraphy-Italic';}
	.st10{fill:none;stroke:#000000;stroke-miterlimit:10;stroke-dasharray:1.0103,1.0103,1.0103,1.0103;}
	.st11{fill:none;stroke:#000000;stroke-miterlimit:10;stroke-dasharray:1.0103,1.0103,1.0103,1.0103,1.0103,1.0103;}
	.st12{fill:none;stroke:#000000;stroke-miterlimit:10;stroke-dasharray:1,1,1,1,1,1;}
</style>
<g>
	<polygon class="st0" points="163.7,64.7 229.4,64.7 229.4,132.3 130.1,132.3 130.1,123.3 	"/>
	<polygon class="st0" points="27.7,64.7 27.7,132.3 113.7,132.3 113.7,123.2 81,64.7 	"/>
	<polygon class="st1" points="48.2,46.2 44.4,53.4 40.7,46.2 44.4,48.2 	"/>
	<polygon points="82.1,48 74,47 79.5,41 78.9,45.2 	"/>
	<polygon points="104.6,35.7 112.1,38.9 105.2,43.2 106.9,39.3 	"/>
	<polygon points="162.2,47.5 170.3,46.5 164.9,40.5 165.4,44.7 	"/>
	<polygon points="137.4,35.4 129.9,38.5 136.8,42.8 135.1,38.9 	"/>
	<line class="st2" x1="44.4" y1="44.4" x2="44.4" y2="49.2"/>
	<polygon points="105.7,154.5 112.9,158.3 105.7,162 107.7,158.3 	"/>
	<line class="st3" x1="98.8" y1="158.3" x2="108.7" y2="158.3"/>
	<polygon points="139.1,154.5 131.9,158.3 139.1,162 137.1,158.3 	"/>
	<line class="st3" x1="145.9" y1="158.3" x2="136.1" y2="158.3"/>
	<polygon points="184.8,141.4 181,134.2 177.3,141.4 181,139.4 	"/>
	<line class="st3" x1="181" y1="144.1" x2="181" y2="138.4"/>
	<polygon points="177.2,116.2 181,123.4 184.7,116.2 181,118.2 	"/>
	<line class="st3" x1="181" y1="105.2" x2="181" y2="119.2"/>
	<polygon class="st1" points="40.7,73.2 44.4,65.9 48.2,73.2 44.4,71.2 	"/>
	<line class="st2" x1="44.4" y1="75" x2="44.4" y2="70.2"/>
	<polygon class="st1" points="41.3,141 45,133.7 48.8,141 45,139 	"/>
	<polygon class="st1" points="48.8,144.9 45,152.2 41.3,144.9 45,146.9 	"/>
	<line class="st2" x1="45" y1="147.1" x2="45" y2="138"/>
	<line class="st2" x1="64.6" y1="54.1" x2="27.5" y2="54.1"/>
	<line class="st2" x1="63.3" y1="65.2" x2="28.2" y2="65.2"/>
	<line class="st3" x1="185" y1="133.6" x2="155.8" y2="133.6"/>
	<line class="st3" x1="185" y1="124.2" x2="155.8" y2="124.2"/>
	<g>
		<text transform="matrix(1 0 0 1 16.8507 146.3435)" class="st1 st4 st5">p</text>
	</g>
	<line class="st3" x1="204.1" y1="69.2" x2="204.1" y2="126.2"/>
	<polygon points="207.8,124.2 204.1,131.4 200.3,124.2 204.1,126.2 	"/>
	<polygon points="200.3,73.5 204.1,66.2 207.8,73.5 204.1,71.5 	"/>
	<g>
		<text transform="matrix(1 0 0 1 209.0173 91.3542)" class="st4 st6">Th</text>
	</g>
	<g>
		<text transform="matrix(1 0 0 1 196.8498 54.1457)" class="st1 st4 st5">o</text>
	</g>
	<g>
		<text transform="matrix(1 0 0 1 118.3502 176.527)" class="st4 st6">G</text>
	</g>
	<path class="st7" d="M65.8,64.7c0,0,15.5-9.3,53.8-9.3c0,0,39,0.3,52.3,9.3c0,0-1.3,49-38.8,78h-21.5
		C111.6,142.7,75.8,120.7,65.8,64.7z"/>
	<polyline class="st2" points="29.1,152.8 60.2,152.8 72.4,143.8 93.7,143.8 	"/>
	<line class="st3" x1="115.1" y1="150.5" x2="115.1" y2="166"/>
	<line class="st3" x1="130.6" y1="150.5" x2="130.6" y2="166"/>
	<polygon class="st1" points="152.8,47.6 160,51.4 152.8,55.1 154.8,51.4 	"/>
	<line class="st2" x1="145.9" y1="51.4" x2="155.8" y2="51.4"/>
	<polygon class="st1" points="187,47.6 179.7,51.4 187,55.1 185,51.4 	"/>
	<line class="st2" x1="193.8" y1="51.4" x2="184" y2="51.4"/>
	<line class="st2" x1="162.7" y1="49.2" x2="162.7" y2="60.8"/>
	<line class="st2" x1="176.9" y1="49.2" x2="176.9" y2="60.8"/>
	<g>
		<text transform="matrix(1 0 0 1 187.2487 131.4265)" class="st4 st8">r</text>
	</g>
	<line class="st3" x1="113.7" y1="33.5" x2="113.7" y2="77.7"/>
	<line class="st3" x1="126.7" y1="33.5" x2="126.7" y2="77.7"/>
	<path class="st3" d="M107,39.2c0,0-18.1,1.2-28.1,6"/>
	<path class="st3" d="M135,39c0,0,19.6,0.8,30.6,5.8"/>
	<g>
		<text transform="matrix(1 0 0 1 16.8507 62.489)" class="st1 st4 st5">c</text>
	</g>
	<text transform="matrix(1 0 0 1 82.1257 30.4389)" class="st9 st5">a2</text>
	<text transform="matrix(1 0 0 1 145.9147 30.4389)" class="st9 st5">a1</text>
	<g>
		<g>
			<line class="st3" x1="181.9" y1="32.8" x2="181.7" y2="33.3"/>
			<line class="st10" x1="181.2" y1="34.2" x2="179.4" y2="37.2"/>
			<polyline class="st11" points="179.2,37.7 130.1,123.3 130.1,145.3 			"/>
			<line class="st3" x1="130.1" y1="145.8" x2="130.1" y2="146.3"/>
		</g>
	</g>
	<polyline class="st12" points="63.7,32.8 113.7,123.2 113.7,146.3 	"/>
</g>
</svg>
