<svg version="1.0" xmlns="http://www.w3.org/2000/svg"
 width="172.000000pt" height="172.000000pt" viewBox="0 0 172.000000 172.000000"
 preserveAspectRatio="xMidYMid meet">
<g transform="translate(0.000000,172.000000) scale(0.100000,-0.100000)"
fill="#000000" stroke="none">
<path d="M128 1273 c-25 -29 -30 -60 -14 -90 8 -15 172 -184 364 -375 318
-318 352 -348 382 -348 30 0 64 30 382 348 192 191 356 360 364 375 27 51 -7
107 -65 107 -34 0 -55 -19 -358 -322 l-323 -323 -323 323 c-303 303 -324 322
-358 322 -22 0 -42 -7 -51 -17z"/>
</g>
</svg>
