<svg version="1.0" xmlns="http://www.w3.org/2000/svg"
 width="172.000000pt" height="172.000000pt" viewBox="0 0 172.000000 172.000000"
 preserveAspectRatio="xMidYMid meet">
<g transform="translate(0.000000,172.000000) scale(0.100000,-0.100000)"
fill="#000000" stroke="none">
<path d="M775 1565 c-52 -18 -130 -102 -142 -152 l-9 -38 -205 -5 c-223 -5
-239 -9 -239 -60 0 -36 29 -60 73 -60 20 0 37 -5 37 -10 0 -36 123 -941 131
-968 15 -46 57 -92 104 -113 33 -15 66 -19 182 -19 l141 0 -37 58 c-73 109
-101 226 -82 341 45 280 348 460 604 360 26 -11 49 -19 51 -19 2 0 6 27 9 60
4 33 14 116 23 185 l17 125 37 0 c43 0 70 24 70 62 0 48 -17 53 -239 58 l-205
5 -10 39 c-12 54 -97 140 -151 155 -53 15 -111 13 -160 -4z m144 -118 c14 -6
33 -27 44 -45 l19 -32 -122 0 -122 0 19 32 c23 39 56 58 103 58 19 0 46 -6 59
-13z"/>
<path d="M1053 841 c-179 -61 -292 -246 -263 -428 14 -90 47 -158 102 -215 94
-96 185 -133 313 -126 108 6 188 43 267 125 113 119 139 304 63 453 -24 46
-107 132 -158 164 -77 48 -228 60 -324 27z m57 -255 l75 -76 81 81 c55 55 87
80 100 77 40 -7 26 -38 -55 -121 l-81 -83 80 -79 c53 -53 80 -87 80 -102 0
-46 -41 -27 -125 57 l-80 80 -80 -80 c-80 -81 -116 -98 -129 -63 -5 12 16 40
79 103 l85 85 -85 85 c-47 47 -85 90 -85 97 0 18 32 33 50 23 8 -5 49 -43 90
-84z"/>
</g>
</svg>
