<svg version="1.0" xmlns="http://www.w3.org/2000/svg"
 width="172.000000pt" height="172.000000pt" viewBox="0 0 172.000000 172.000000"
 preserveAspectRatio="xMidYMid meet">
<g transform="translate(0.000000,172.000000) scale(0.100000,-0.100000)"
fill="#000000" stroke="none">
<path d="M826 1529 l-26 -20 0 -295 0 -294 -290 0 -291 0 -24 -25 c-30 -29
-31 -35 -4 -69 l20 -26 295 0 294 0 0 -290 0 -291 25 -24 c29 -30 35 -31 69
-4 l26 20 0 295 0 294 294 0 295 0 20 26 c27 34 26 40 -4 69 l-24 25 -291 0
-290 0 0 294 0 295 -26 20 c-15 12 -30 21 -34 21 -4 0 -19 -9 -34 -21z"/>
</g>
</svg>
