
<svg version="1.0" xmlns="http://www.w3.org/2000/svg"
 width="172.000000pt" height="172.000000pt" viewBox="0 0 172.000000 172.000000"
 preserveAspectRatio="xMidYMid meet">
<g transform="translate(0.000000,172.000000) scale(0.100000,-0.100000)"
fill="#FFF" stroke="none">
<path d="M753 1511 c-395 -109 -495 -145 -544 -198 l-23 -24 49 23 c50 23 53
23 563 26 l512 3 0 92 c0 139 -32 187 -125 186 -22 0 -217 -49 -432 -108z"/>
<path d="M287 1267 c-57 -18 -107 -64 -134 -123 l-24 -53 3 -408 c3 -361 5
-412 20 -439 22 -40 81 -92 116 -101 35 -10 1149 -10 1184 0 35 9 94 61 116
101 15 27 17 77 20 429 4 462 2 477 -71 544 -32 30 -58 44 -96 52 -74 16
-1082 14 -1134 -2z m1108 -530 c18 -42 2 -85 -38 -102 -42 -17 -78 -5 -101 35
-19 33 -19 33 0 69 32 60 113 59 139 -2z"/>
</g>
</svg>
