<svg xmlns="http://www.w3.org/2000/svg" width="1920" height="1080"><path d="M314,1374L-351,1425L766,1401Z" fill="#9a8a49" stroke="#9a8a49" stroke-width="1.51"/><path d="M766,1401L-351,1425L1065,1438Z" fill="#979f57" stroke="#979f57" stroke-width="1.51"/><path d="M386,-416L803,-401L1699,-419Z" fill="#dc916d" stroke="#dc916d" stroke-width="1.51"/><path d="M803,-401L1216,-327L1699,-419Z" fill="#cd8d55" stroke="#cd8d55" stroke-width="1.51"/><path d="M1065,1438L-351,1425L1787,1494Z" fill="#90b270" stroke="#90b270" stroke-width="1.51"/><path d="M2189,1121L2200,1476L2206,918Z" fill="#379950" stroke="#379950" stroke-width="1.51"/><path d="M2206,398L1882,759L2254,419Z" fill="#96c581" stroke="#96c581" stroke-width="1.51"/><path d="M1882,759L2206,918L2254,419Z" fill="#87c06e" stroke="#87c06e" stroke-width="1.51"/><path d="M2206,918L2200,1476L2254,419Z" fill="#61a955" stroke="#61a955" stroke-width="1.51"/><path d="M2252,69L2206,398L2254,419Z" fill="#94a75e" stroke="#94a75e" stroke-width="1.51"/><path d="M1998,-148L2252,69L2311,-365Z" fill="#95733b" stroke="#95733b" stroke-width="1.51"/><path d="M1699,-419L1998,-148L2311,-365Z" fill="#94723c" stroke="#94723c" stroke-width="1.51"/><path d="M2252,69L2254,419L2311,-365Z" fill="#958346" stroke="#958346" stroke-width="1.51"/><path d="M2189,1121L1754,1314L2200,1476Z" fill="#1f9951" stroke="#1f9951" stroke-width="1.51"/><path d="M1799,532L1882,759L2206,398Z" fill="#a1d187" stroke="#a1d187" stroke-width="1.51"/><path d="M1794,264L2206,398L2252,69Z" fill="#9daf60" stroke="#9daf60" stroke-width="1.51"/><path d="M1998,-148L1794,264L2252,69Z" fill="#a69c52" stroke="#a69c52" stroke-width="1.51"/><path d="M1699,-419L1820,-183L1998,-148Z" fill="#aa8141" stroke="#aa8141" stroke-width="1.51"/><path d="M1945,1006L1754,1314L2189,1121Z" fill="#4dae5b" stroke="#4dae5b" stroke-width="1.51"/><path d="M1754,1314L1787,1494L2200,1476Z" fill="#2e934d" stroke="#2e934d" stroke-width="1.51"/><path d="M1945,1006L2189,1121L2206,918Z" fill="#58ad59" stroke="#58ad59" stroke-width="1.51"/><path d="M1882,759L1945,1006L2206,918Z" fill="#74be61" stroke="#74be61" stroke-width="1.51"/><path d="M1794,264L1799,532L2206,398Z" fill="#a8c978" stroke="#a8c978" stroke-width="1.51"/><path d="M1794,264L1722,445L1799,532Z" fill="#b7d580" stroke="#b7d580" stroke-width="1.51"/><path d="M1748,1033L1754,1314L1945,1006Z" fill="#63bb62" stroke="#63bb62" stroke-width="1.51"/><path d="M1820,-183L1709,-86L1998,-148Z" fill="#b18d48" stroke="#b18d48" stroke-width="1.51"/><path d="M1709,-86L1794,264L1998,-148Z" fill="#b7a054" stroke="#b7a054" stroke-width="1.51"/><path d="M1300,1343L1065,1438L1787,1494Z" fill="#70ae5c" stroke="#70ae5c" stroke-width="1.51"/><path d="M1882,759L1699,943L1945,1006Z" fill="#84c866" stroke="#84c866" stroke-width="1.51"/><path d="M1699,943L1748,1033L1945,1006Z" fill="#7ac565" stroke="#7ac565" stroke-width="1.51"/><path d="M1709,-86L1674,257L1794,264Z" fill="#c1ba62" stroke="#c1ba62" stroke-width="1.51"/><path d="M1799,532L1699,943L1882,759Z" fill="#9fd575" stroke="#9fd575" stroke-width="1.51"/><path d="M1674,257L1722,445L1794,264Z" fill="#bdcf74" stroke="#bdcf74" stroke-width="1.51"/><path d="M1722,445L1485,893L1799,532Z" fill="#b9e187" stroke="#b9e187" stroke-width="1.51"/><path d="M1485,893L1699,943L1799,532Z" fill="#a8da73" stroke="#a8da73" stroke-width="1.51"/><path d="M1699,-419L1709,-86L1820,-183Z" fill="#b58743" stroke="#b58743" stroke-width="1.51"/><path d="M1748,1033L1367,1206L1754,1314Z" fill="#70bf61" stroke="#70bf61" stroke-width="1.51"/><path d="M1268,566L1485,893L1722,445Z" fill="#cbe988" stroke="#cbe988" stroke-width="1.51"/><path d="M1754,1314L1300,1343L1787,1494Z" fill="#59a956" stroke="#59a956" stroke-width="1.51"/><path d="M1300,-72L1674,257L1709,-86Z" fill="#d1b15b" stroke="#d1b15b" stroke-width="1.51"/><path d="M1699,-419L1353,-163L1709,-86Z" fill="#c48f46" stroke="#c48f46" stroke-width="1.51"/><path d="M1485,893L1367,1206L1748,1033Z" fill="#91d068" stroke="#91d068" stroke-width="1.51"/><path d="M1367,1206L1300,1343L1754,1314Z" fill="#72bc60" stroke="#72bc60" stroke-width="1.51"/><path d="M1300,-72L1332,259L1674,257Z" fill="#ddc769" stroke="#ddc769" stroke-width="1.51"/><path d="M1699,943L1485,893L1748,1033Z" fill="#92d068" stroke="#92d068" stroke-width="1.51"/><path d="M1674,257L1332,259L1722,445Z" fill="#cdd676" stroke="#cdd676" stroke-width="1.51"/><path d="M1332,259L1268,566L1722,445Z" fill="#dae689" stroke="#dae689" stroke-width="1.51"/><path d="M1353,-163L1300,-72L1709,-86Z" fill="#d7a254" stroke="#d7a254" stroke-width="1.51"/><path d="M1216,-327L1353,-163L1699,-419Z" fill="#c88e4b" stroke="#c88e4b" stroke-width="1.51"/><path d="M1268,566L1014,769L1485,893Z" fill="#d5ed89" stroke="#d5ed89" stroke-width="1.51"/><path d="M1014,769L1130,1127L1485,893Z" fill="#c1e47d" stroke="#c1e47d" stroke-width="1.51"/><path d="M1130,1127L1367,1206L1485,893Z" fill="#9fd672" stroke="#9fd672" stroke-width="1.51"/><path d="M1173,-47L1183,232L1300,-72Z" fill="#efbe6d" stroke="#efbe6d" stroke-width="1.51"/><path d="M1300,-72L1183,232L1332,259Z" fill="#ebcc73" stroke="#ebcc73" stroke-width="1.51"/><path d="M1183,232L1268,566L1332,259Z" fill="#eae78a" stroke="#eae78a" stroke-width="1.51"/><path d="M1130,1127L1300,1343L1367,1206Z" fill="#8fcb6f" stroke="#8fcb6f" stroke-width="1.51"/><path d="M1173,-47L1300,-72L1353,-163Z" fill="#e7aa5f" stroke="#e7aa5f" stroke-width="1.51"/><path d="M1216,-327L1173,-47L1353,-163Z" fill="#e4a05a" stroke="#e4a05a" stroke-width="1.51"/><path d="M1183,232L1001,486L1268,566Z" fill="#f2f19e" stroke="#f2f19e" stroke-width="1.51"/><path d="M1130,1127L1065,1438L1300,1343Z" fill="#8cc673" stroke="#8cc673" stroke-width="1.51"/><path d="M1001,486L1014,769L1268,566Z" fill="#f0f8aa" stroke="#f0f8aa" stroke-width="1.51"/><path d="M1173,-47L893,110L1183,232Z" fill="#f8cb7f" stroke="#f8cb7f" stroke-width="1.51"/><path d="M803,-401L1173,-47L1216,-327Z" fill="#ea9b65" stroke="#ea9b65" stroke-width="1.51"/><path d="M1014,769L775,951L1130,1127Z" fill="#ceea93" stroke="#ceea93" stroke-width="1.51"/><path d="M803,-401L893,110L1173,-47Z" fill="#fcaf78" stroke="#fcaf78" stroke-width="1.51"/><path d="M893,110L1001,486L1183,232Z" fill="#fbe597" stroke="#fbe597" stroke-width="1.51"/><path d="M803,-401L638,-112L893,110Z" fill="#f8a167" stroke="#f8a167" stroke-width="1.51"/><path d="M893,110L763,235L1001,486Z" fill="#ffe296" stroke="#ffe296" stroke-width="1.51"/><path d="M1001,486L869,591L1014,769Z" fill="#f8fcb5" stroke="#f8fcb5" stroke-width="1.51"/><path d="M775,951L755,1043L1130,1127Z" fill="#c1e08b" stroke="#c1e08b" stroke-width="1.51"/><path d="M766,1401L1065,1438L1130,1127Z" fill="#96c982" stroke="#96c982" stroke-width="1.51"/><path d="M755,1043L766,1401L1130,1127Z" fill="#abd386" stroke="#abd386" stroke-width="1.51"/><path d="M505,1337L314,1374L766,1401Z" fill="#9aa95d" stroke="#9aa95d" stroke-width="1.51"/><path d="M763,235L869,591L1001,486Z" fill="#fff2a9" stroke="#fff2a9" stroke-width="1.51"/><path d="M869,591L775,951L1014,769Z" fill="#e7f19b" stroke="#e7f19b" stroke-width="1.51"/><path d="M583,-228L638,-112L803,-401Z" fill="#ee8e55" stroke="#ee8e55" stroke-width="1.51"/><path d="M763,235L469,535L869,591Z" fill="#ffe99b" stroke="#ffe99b" stroke-width="1.51"/><path d="M594,827L775,951L869,591Z" fill="#e5e88c" stroke="#e5e88c" stroke-width="1.51"/><path d="M638,-112L763,235L893,110Z" fill="#ffc077" stroke="#ffc077" stroke-width="1.51"/><path d="M504,275L469,535L763,235Z" fill="#fed783" stroke="#fed783" stroke-width="1.51"/><path d="M755,1043L505,1337L766,1401Z" fill="#a3c16e" stroke="#a3c16e" stroke-width="1.51"/><path d="M469,535L594,827L869,591Z" fill="#f4e893" stroke="#f4e893" stroke-width="1.51"/><path d="M55,1327L-351,1425L314,1374Z" fill="#98783e" stroke="#98783e" stroke-width="1.51"/><path d="M462,1172L505,1337L755,1043Z" fill="#afc06b" stroke="#afc06b" stroke-width="1.51"/><path d="M638,-112L504,275L763,235Z" fill="#febf70" stroke="#febf70" stroke-width="1.51"/><path d="M386,-416L583,-228L803,-401Z" fill="#df7e4f" stroke="#df7e4f" stroke-width="1.51"/><path d="M594,827L755,1043L775,951Z" fill="#d1de7c" stroke="#d1de7c" stroke-width="1.51"/><path d="M594,827L462,1172L755,1043Z" fill="#c7d072" stroke="#c7d072" stroke-width="1.51"/><path d="M130,-145L164,84L583,-228Z" fill="#f37947" stroke="#f37947" stroke-width="1.51"/><path d="M469,535L363,766L594,827Z" fill="#f0d67e" stroke="#f0d67e" stroke-width="1.51"/><path d="M363,766L462,1172L594,827Z" fill="#d6cb6a" stroke="#d6cb6a" stroke-width="1.51"/><path d="M583,-228L164,84L638,-112Z" fill="#f78e52" stroke="#f78e52" stroke-width="1.51"/><path d="M164,84L504,275L638,-112Z" fill="#fca55d" stroke="#fca55d" stroke-width="1.51"/><path d="M386,-416L130,-145L583,-228Z" fill="#e76d40" stroke="#e76d40" stroke-width="1.51"/><path d="M69,961L389,1217L462,1172Z" fill="#bbae5c" stroke="#bbae5c" stroke-width="1.51"/><path d="M363,766L69,961L462,1172Z" fill="#d0b75e" stroke="#d0b75e" stroke-width="1.51"/><path d="M338,531L363,766L469,535Z" fill="#fad285" stroke="#fad285" stroke-width="1.51"/><path d="M338,531L469,535L504,275Z" fill="#ffd285" stroke="#ffd285" stroke-width="1.51"/><path d="M194,273L338,531L504,275Z" fill="#fec174" stroke="#fec174" stroke-width="1.51"/><path d="M164,84L194,273L504,275Z" fill="#fca860" stroke="#fca860" stroke-width="1.51"/><path d="M462,1172L389,1217L505,1337Z" fill="#a9b05f" stroke="#a9b05f" stroke-width="1.51"/><path d="M389,1217L314,1374L505,1337Z" fill="#a1a658" stroke="#a1a658" stroke-width="1.51"/><path d="M-381,-365L-39,-207L386,-416Z" fill="#d1382d" stroke="#d1382d" stroke-width="1.51"/><path d="M55,1327L314,1374L389,1217Z" fill="#a39850" stroke="#a39850" stroke-width="1.51"/><path d="M69,961L55,1327L389,1217Z" fill="#b59b52" stroke="#b59b52" stroke-width="1.51"/><path d="M338,531L-4,573L363,766Z" fill="#f9c07a" stroke="#f9c07a" stroke-width="1.51"/><path d="M-39,-207L130,-145L386,-416Z" fill="#e35236" stroke="#e35236" stroke-width="1.51"/><path d="M4,897L69,961L363,766Z" fill="#dcac5a" stroke="#dcac5a" stroke-width="1.51"/><path d="M-4,573L4,897L363,766Z" fill="#ecb064" stroke="#ecb064" stroke-width="1.51"/><path d="M194,273L-4,573L338,531Z" fill="#ffb677" stroke="#ffb677" stroke-width="1.51"/><path d="M-144,1077L55,1327L69,961Z" fill="#b6904a" stroke="#b6904a" stroke-width="1.51"/><path d="M164,84L-139,336L194,273Z" fill="#f89456" stroke="#f89456" stroke-width="1.51"/><path d="M-139,336L-4,573L194,273Z" fill="#f8a266" stroke="#f8a266" stroke-width="1.51"/><path d="M-39,-207L-179,-105L130,-145Z" fill="#e34b32" stroke="#e34b32" stroke-width="1.51"/><path d="M-270,199L-139,336L164,84Z" fill="#f0824b" stroke="#f0824b" stroke-width="1.51"/><path d="M-179,-105L-270,199L164,84Z" fill="#eb693e" stroke="#eb693e" stroke-width="1.51"/><path d="M130,-145L-179,-105L164,84Z" fill="#ee613c" stroke="#ee613c" stroke-width="1.51"/><path d="M-4,573L-329,745L4,897Z" fill="#e29c57" stroke="#e29c57" stroke-width="1.51"/><path d="M4,897L-144,1077L69,961Z" fill="#c8984c" stroke="#c8984c" stroke-width="1.51"/><path d="M-139,336L-196,507L-4,573Z" fill="#f49d68" stroke="#f49d68" stroke-width="1.51"/><path d="M-144,1077L-351,1425L55,1327Z" fill="#9c783b" stroke="#9c783b" stroke-width="1.51"/><path d="M-196,507L-329,745L-4,573Z" fill="#ea9b66" stroke="#ea9b66" stroke-width="1.51"/><path d="M-329,745L-144,1077L4,897Z" fill="#cc9148" stroke="#cc9148" stroke-width="1.51"/><path d="M-381,-365L-179,-105L-39,-207Z" fill="#d22d28" stroke="#d22d28" stroke-width="1.51"/><path d="M-270,199L-196,507L-139,336Z" fill="#ea8d56" stroke="#ea8d56" stroke-width="1.51"/><path d="M-329,745L-351,1425L-144,1077Z" fill="#aa8043" stroke="#aa8043" stroke-width="1.51"/><path d="M-381,-365L-270,199L-179,-105Z" fill="#d54131" stroke="#d54131" stroke-width="1.51"/><path d="M-270,199L-329,745L-196,507Z" fill="#e79467" stroke="#e79467" stroke-width="1.51"/><path d="M-381,-365L-329,745L-270,199Z" fill="#dc7046" stroke="#dc7046" stroke-width="1.51"/><path d="M-381,-365L-351,1425L-329,745Z" fill="#da9265" stroke="#da9265" stroke-width="1.51"/></svg>