<?xml version="1.0" standalone="no"?>
<!DOCTYPE svg PUBLIC "-//W3C//DTD SVG 1.1//EN" "http://www.w3.org/Graphics/SVG/1.1/DTD/svg11.dtd">
<svg xmlns="http://www.w3.org/2000/svg">
<metadata>Copyright (C) 2014 by original authors @ fontello.com</metadata>
<defs>
<font id="fontello" horiz-adv-x="1000" >
<font-face font-family="fontello" font-weight="400" font-stretch="normal" units-per-em="1000" ascent="850" descent="-150" />
<missing-glyph horiz-adv-x="1000" />
<glyph glyph-name="uF0001" unicode="&#xe800;" d="m399 649q-2-8 1-14 4-7 14-8h412q9 0 18 8 9 7 11 14l14 43q3 9-2 15-5 6-13 7h-413q-8 0-17-7-8-7-10-15z m-56-174q-4-8 2-15 4-5 12-7h413q8 0 17 7 8 7 12 15l13 44q4 8 0 16-5 7-14 5h-412q-10 0-17-5-8-7-13-16z m-327-417q0 3 2 18 0 16 3 25 0 5-3 14-2 9-2 14 2 7 6 15l22 30q16 27 31 63 14 36 20 62 2 7 0 20-2 14 0 20 2 7 11 18l12 16q14 24 28 62 13 38 17 62 2 6-1 21-3 14 0 19 3 9 15 21l15 16q12 16 28 56 16 41 20 66 0 5-3 17-3 12-1 18t6 13q5 7 12 16l13 13 10 21q6 12 11 24 3 12 10 24l13 22q6 9 19 16 12 6 24 7t32-3v-2q25 7 34 7h517q50 0 77-39 26-40 11-88l-185-615q-24-81-48-105-25-24-88-23h-590q-18 0-25-10-7-11-2-29 18-48 99-48h626q20 0 38 10 19 10 23 30l205 669q4 15 4 39 25-11 39-30 27-39 13-88l-188-613q-12-44-50-74-40-28-84-30h-627q-53 0-101 36-48 37-66 91-18 45-2 85v1z" horiz-adv-x="1147.9" />
<glyph glyph-name="uF0002" unicode="&#xe801;" d="m220 183q7 0 11 4l374 372q3 5 3 12 0 15-15 15-6 0-11-5l-372-372q-5-4-5-12 0-14 15-14z m-133-162h89v-87h74l62 63-162 161-63-63v-74z m528 727l115 113q24 26 61 26 36 0 64-26l161-161q24-28 24-63 0-36-24-62l-115-115z m-615-903v287l571 571 285-286-571-572h-285z" horiz-adv-x="1040" />
<glyph glyph-name="uF0003" unicode="&#xe802;" d="m780 496h174v-629q0-10-7-16-5-6-15-6h-130q-10 0-15 6-7 6-7 16v629z m-780-22q0 28 20 46t46 20h216q27 0 46-20 19-20 19-46v-42q0-29-19-47-19-18-46-19h-216q-28 0-46 19-18 20-20 47v42z m86-152h174v-455q0-10-7-16-5-6-15-6h-130q-8 0-16 6-7 6-6 16v455z m0 261v281q0 10 6 16 6 7 16 7h130q10 0 15-7 7-6 7-16v-281h-174z m261-456q0 27 18 47t47 18h216q27 0 46-18 20-18 18-47v-43q0-26-18-46t-46-19h-216q-27 0-47 19t-18 46v43z m86 109v628q0 10 6 16 7 7 16 7h130q9 0 16-7 5-6 5-16v-628h-173z m0-260h173v-109q0-10-5-16-7-6-16-6h-130q-9 0-16 6-6 6-6 16v109z m259 671q0 27 20 46 19 20 46 20h218q26 0 46-20 20-19 18-46v-44q0-26-18-46-18-19-46-17h-218q-27 0-46 17-20 18-20 46v44z m88 108v109q0 10 7 16 5 7 15 7h130q10 0 15-7 7-6 7-16v-109h-174z" horiz-adv-x="1041.5" />
<glyph glyph-name="uF0004" unicode="&#xe803;" d="m961 598l61 60q23 23 23 55t-23 56l-98 98q-23 23-56 23t-55-23l-61-60z m-146-234v-377h-698v649h376l141 141h-447q-78 0-132-54t-55-132v-559q0-78 55-132t132-55h559q77 0 131 55t55 132v449z m-135 371l-327-327q-56-56-86-129l-89-213q-12-30 0-43 13-12 43 0l213 89q73 31 129 87l326 327z" horiz-adv-x="1044.9" />
<glyph glyph-name="uF0005" unicode="&#xe804;" d="m1141 488q0 167-118 284-118 118-284 118-146 0-258-93-109-91-137-232-140-12-241-114-103-105-103-244 0-143 108-252 103-104 228-109v-1h242v322h-121q-40 0-15 31l272 339q25 32 50 0l272-339q25-31-15-31h-122v-322h81v1q124 2 220 96 99 96 99 225 0 188-162 279 4 39 4 42z" horiz-adv-x="1298.8" />
<glyph glyph-name="uF0006" unicode="&#xe805;" d="m1053 149q-23 23-53 23h-2q-34 0-58-24-23-23-22-55 1-32 22-55 22-24 56-24 34 0 57 23t24 56-24 56z m124-24q-14-13-13-33 1-18 13-31l38-36q7-7 9-20 1-12-3-21l-17-30q-5-9-17-14-7-3-14-3-4 0-7 2l-52 14q-6 2-11 2-12 0-22-6-16-9-20-27l-14-52q-3-10-13-17t-20-8h-33q-11 0-21 7-9 9-13 19l-12 51q-4 17-21 27-10 6-22 6-6 0-12-2l-51-14q-4-2-9-2-6 0-13 3-12 5-16 14l-18 30q-5 9-2 21 2 12 9 20l37 36q13 14 13 32t-13 31l-37 37q-8 8-9 19-2 12 3 23l17 30q5 9 16 14 7 2 12 2 5 0 10-1l51-14q6-2 12-2 12 0 22 6 17 10 21 27l12 50q4 12 13 19 10 8 21 8h33q10 0 20-8 10-7 13-19l14-50q4-18 20-27 10-6 22-6 5 0 11 2l51 14q5 1 9 1 7 0 13-2 11-4 17-14l17-31q5-9 3-21-3-13-10-20z m-928 262q-20 0-35-14-14-14-14-34v-166q0-21 14-35 15-14 35-14h97q20 0 34 14t14 35v166q0 20-14 34t-34 14h-97z m466-435l-1 1q-15 29-9 64 2 13 8 27h-587v695h926v-339q13-6 23-13 28-22 36-54l8-29 29 8q13 3 26 3h2 1v375q0 83-59 141-58 59-140 59h-778q-83 0-141-59t-59-141v-598q0-82 59-141t141-59h558q-15 13-25 29z m262 658q0 20-14 34-14 15-34 15h-680q-20 0-35-15-14-14-14-34v-97q0-20 14-35 15-14 35-14h680q20 0 34 14 14 15 14 35v97z m-340-223q20 0 34-14t15-34v-166q0-21-15-35t-34-14h-97q-20 0-35 14-14 14-14 35v166q0 20 14 34 15 14 35 14h97z" horiz-adv-x="1225.6" />
<glyph glyph-name="HR-Diğer" unicode="&#xe806;" d="m495 472q43 44 105 44 38-1 71-19 0 1 1 1l1 2q-6 19-8 36-1 8-1 14-1 62 44 106 6 5 13 11h0q-8 86-71 151-70 73-171 72t-173-72q-71-70-71-171-3-104 71-173 66-61 151-70 10 39 38 68z m416-383q-55 2-99 30-44-28-99-30-11-14-27-25-38-27-86-27-60 1-103 42-46 44-45 106 1 52 32 91-5 6-10 14-141 6-247 105-1 1-14 15-28-3-53-13-35-13-59-36-23-23-42-55t-30-66-17-74q-7-41-10-75-2-33-2-70 1-81 50-129 49-47 132-47h594q82 0 132 47 50 48 50 129l-1 32q-10 5-19 11-16 11-27 25z m68 159q-21-14-29-37h-33q-34-1-56 23-23 23-23 55v80q37-28 79-28h33q8-23 29-37t45-15q32 1 55 23 24 23 23 56 0 32-23 55-22 23-55 23-25 0-45-15t-29-37h-33q-34 0-56 22t-23 56v5q-3-2 3 0 21 9 35 28 12 17 14 37 1 6 1 8 0 33-23 56-4 3-8 6-21 17-48 17v0q-27 0-48-17-4-3-7-6-24-23-24-56 0-2 1-8 2-20 14-37 14-19 35-28 1 0 2 0 0 0 1 0v-5q0-33-23-56t-55-22h-34q-8 22-28 37-21 14-46 15-33 0-55-23-22-23-23-55 0-33 23-56 23-22 55-23 25 0 46 15t28 37h34q42 0 78 28v-80q0-32-23-55-22-24-55-23h-34q-8 23-28 37-21 15-46 15-33 0-55-23t-23-55 23-56 55-23q25 0 46 15t28 38h34q53 0 92 38 6 6 12 14 6-8 12-14 39-38 93-38h33q8-23 29-38t45-15q32 1 55 23t23 56-23 55-55 23q-25 0-45-15z" horiz-adv-x="1102.5" />
<glyph glyph-name="HR-Planlama" unicode="&#xe807;" d="m2 56q2 29 8 64 7 35 15 64 8 28 25 56 17 27 37 47 19 20 50 31 31 12 65 12 6 0 25-12 20-13 43-28 24-14 61-28 38-14 80-13 41 1 78 13 36 11 63 28l42 28q17 10 24 12 37 0 66-12 30-11 49-31 20-20 37-47 16-28 25-56t16-64q7-35 8-64l2-60q0-70-43-110-42-41-112-41h-510q-71 0-113 41-42 40-43 110 0 31 2 60z m670 461q0 17-3 38 39-13 77-13 35 0 70 13 36 12 57 24 21 13 25 12 72 0 72-206 0-45-33-69t-81-23h-78q-59 71-153 75 47 68 47 149z m-31 329q43 44 105 44 62 0 106-44 43-44 43-106 0-61-43-105-44-44-106-44-62 0-105 44-44 44-44 105 0 62 44 106z m-389-171q65 64 159 65 93 2 157-65 65-68 66-158 1-91-66-159-66-68-157-66-91 2-159 66-68 64-66 159 0 93 66 158z" horiz-adv-x="969.7" />
<glyph glyph-name="HR-Ücret-Özlük" unicode="&#xe808;" d="m556 504h-334v118h334v-118z m60-212q1 14 4 31 3 16 7 30 5 13 13 28 7 13 16 22 10 9 25 15 14 7 31 6 2 0 12-7 10-5 21-12 11-9 30-14 19-6 38-6 19 0 37 6 19 5 31 14 13 7 20 12 9 7 13 7 17 0 31-6 15-5 24-15 10-9 17-22 7-13 13-28 4-14 7-30t4-31q1-15 1-29 0-34-21-54-21-20-54-20h-246q-34 0-55 20-21 20-21 54 0 15 2 29z m120 298q31 32 77 32 45 0 76-32 30-31 32-76 0-45-32-76-33-32-76-32-43-1-77 32-33 32-31 76 0 45 31 76z m-180-477h-334v118h334v-118z m0 196h-334v117h334v-117z m468 441q28 0 48-20 21-21 21-49v-627q0-28-21-49-20-21-48-21h-815q-29 0-49 21-21 21-21 49v627q0 28 21 49 20 20 49 20h815z m-815 140q-86 0-147-61-62-62-62-148v-627q0-86 62-147 61-62 147-62h815q86 0 147 62 61 61 61 147v627q0 86-61 148-61 61-147 61h-815z" horiz-adv-x="1232.4" />
<glyph glyph-name="uF0010" unicode="&#xe809;" d="m587 455h487v35q0 28-20 49-20 20-49 20h-174q0 29-21 49t-49 21h-104q-29 0-50-21t-20-49v-104z m35-57q-29 0-47-20-18-20-15-48l19-154q4-29 26-49 23-21 52-21h348q29 0 51 21 23 20 26 49l20 154q3 28-16 48-18 20-46 20h-418z m35-361q-56 0-98 38t-49 93l-13 121q-17 0-18 0-138 2-241 99-9 9-21 22-30-2-57-13-35-13-59-36-23-23-42-55t-30-66q-9-34-17-74-7-40-10-75-2-34-2-70 2-81 50-129 49-47 132-47h594q82 0 132 47 50 48 50 129l0 16h-301z m-162 358q7 24 22 44v120q0 58 41 99t99 41h63q-15 66-66 118-71 74-174 73-103-1-176-73t-73-174q-2-105 73-176 75-70 176-73 3 0 15 1z" horiz-adv-x="1105" />
<glyph glyph-name="uF0011" unicode="&#xe80a;" d="m313 437q-14 0-24-10-11-10-11-25v-69q0-15 11-25 10-10 24-10h70q14 0 25 10 10 10 10 25v69q0 15-10 25-11 10-25 10h-70z m418-206q-15 0-24-10-11-11-11-25v-70q0-14 11-24 9-10 24-10h70q14 0 24 10 10 10 10 24v70q0 14-10 25t-24 10h-70z m-208 0q-15 0-25-10-10-11-10-25v-70q0-14 10-24 10-10 25-10h69q14 0 25 10 10 10 10 24v70q0 14-10 25-11 10-25 10h-69z m-210 0q-14 0-24-10-11-11-11-25v-70q0-14 11-24 10-10 24-10h70q14 0 25 10 10 10 10 24v70q0 14-10 25-11 10-25 10h-70z m418 413q-15 0-24-10-11-11-11-25v-69q0-15 11-25 9-11 24-11h70q14 0 24 11t10 25v69q0 14-10 25-10 10-24 10h-70z m-208 0q-15 0-25-10-10-11-10-25v-69q0-15 10-25 10-11 25-11h69q14 0 25 11 10 10 10 25v69q0 14-10 25-11 10-25 10h-69z m-210 0q-14 0-24-10-11-11-11-25v-69q0-15 11-25 10-11 24-11h70q14 0 25 11 10 10 10 25v69q0 14-10 25-11 10-25 10h-70z m418-207q-15 0-24-10-11-10-11-25v-69q0-15 11-25 9-10 24-10h70q14 0 24 10 10 10 10 25v69q0 15-10 25-10 10-24 10h-70z m-208 0q-15 0-25-10-10-10-10-25v-69q0-15 10-25 10-10 25-10h69q14 0 25 10 10 10 10 25v69q0 15-10 25-11 10-25 10h-69z m382 313q28 0 49-20 21-21 21-49v-627q0-28-21-49-21-21-49-21h-696q-29 0-49 21-21 21-21 49v627q0 28 21 49 20 20 49 20h696z m-696 140q-86 0-147-61-62-62-62-148v-627q0-86 62-147 61-62 147-62h696q86 0 148 62 61 61 61 147v627q0 86-61 148t-148 61h-696z" horiz-adv-x="1114.3" />
<glyph glyph-name="HR" unicode="&#xe80b;" d="m1110 129q-41-29-57-74h-165q-67-1-112 45-45 46-45 111v158q73-54 157-54h165q16-46 57-75 41-29 91-29 63 1 111 46 46 45 45 110t-45 111q-46 46-111 46-50-1-91-29-41-30-57-75h-165q-66-1-112 45-45 46-45 112v8q1 1 3 1 1 1 2 2 42 16 70 55 25 33 29 73 0 12 0 17 1 65-45 111-7 6-15 13-42 33-96 33h-1q-54 0-95-34-9-6-15-12-47-46-46-111 0-5 1-17 4-40 28-73 28-39 70-55 1-1 3-1 1-1 2-2v-8q0-66-45-112-45-46-111-45h-165q-16 45-57 75-41 28-92 29-65 0-110-46-45-46-46-111t46-110q47-45 110-46 51 0 92 29 41 29 57 75h165q84 0 156 54v-158q0-66-45-111-45-46-111-45h-165q-16 45-57 74-41 29-92 30-65 0-110-46-45-47-46-112t46-110q47-45 110-46 50 0 92 29 41 29 57 76h165q107 0 184 76 12 13 25 29 12-16 25-29 76-76 184-76h165q16-47 57-76 41-29 91-29 63 1 111 46 46 45 45 110t-45 112q-46 46-111 46-50-1-91-30z" horiz-adv-x="1358.4" />
<glyph glyph-name="uF0013" unicode="&#xe80c;" d="m669 366q25-13 28-43 4-30-18-50l-435-412q-15-16-39-16-31 0-48 27t-7 54l126 301-245 143q-25 13-28 42-3 29 18 50l435 412q12 16 39 16 24 0 41-18 18-18 16-40 0-14-5-26l-124-297z" horiz-adv-x="701.2" />
<glyph glyph-name="uF0014" unicode="&#xe80d;" d="m685 582q-1 5-3 20-1 12-3 19-6 21-24 27-23 10-26 39-4 56-47 103-44 47-98 55-28-117-31-129-4 42-4 136 0 24-7 31-7 7-30 7-27 0-34-6-7-7-7-32v-136h-2q-1-1-1-1-8 30-33 131-59-15-100-60-41-46-46-103-2-25-13-28-24-9-32-29-5-11-9-44h550z m133-526q-1 29-8 64-7 34-16 64-8 28-25 56-17 27-37 47-19 20-48 31-22 9-47 11-11-12-12-13-91-92-215-89-123 2-216 89-1 1-12 13-24-3-45-11-31-11-51-31-19-20-36-47-17-28-25-56-8-30-15-64t-8-64q-2-29-2-61 1-68 43-109 42-41 112-41h510q70 0 112 41 43 41 43 109z m-200 476q1-85-61-148-62-64-147-62t-148 62q-63 59-61 148h417z" horiz-adv-x="820.3" />
<glyph glyph-name="uF0015" unicode="&#xe80e;" d="m279 48q21-22 37-33 155-111 241-143 90-31 118-26 50 10 65 56 8 22 5 42 22-10 49-12 54-5 77 34 32 55-7 108 18-11 42-14 49-7 75 30 25 36 5 81-9 23-24 38 61-4 89 51 23 44-5 89-28 45-244 157 80 112 93 127 56 67 58 72 34 53 34 103 1 53-42 77-29 15-71-16-30-24-44-48-32-55-166-127-117-63-144-103-32-45-67-31-14 5-90 64-61 49-90 41-95-24-195-186-45-72-61-133-17-68 9-103 6-8 206-153 27-19 47-42z" horiz-adv-x="1073.7" />
<glyph glyph-name="uF0016" unicode="&#xe80f;" d="m895 400q31 10 31 40 0 38-37 38-37 0-37-36 0-28 43-42z m-11-53q-37-11-37-45-1-18 11-31 13-13 33-13 19 0 30 11 12 11 12 28 0 37-49 50z m-330 338h-62v-258q-15-8-25-21h-184v-78h184q21-29 56-29 28 0 47 20 21 20 21 48 0 41-37 60v258z m247-554q-110-129-278-129-152 0-259 107-107 107-107 259 0 151 107 257 107 108 259 108 168 0 278-129h187q-66 129-189 206-127 80-276 80-217 0-370-153-153-154-153-369 0-217 153-370t370-153q149 0 276 80 123 77 189 206h-187z m27 240v2q-44 22-44 67 0 38 31 62 31 24 77 24 50 0 78-25 24-23 24-54 0-45-45-67v-2q57-21 57-76 0-42-33-68t-85-25q-55 0-87 27-27 24-27 58 0 53 54 77z" horiz-adv-x="1005.9" />
<glyph glyph-name="uF0017" unicode="&#xe810;" d="m653 628h-261v131h261v-131z m86-456q-17-66-119-66h-195q-102 0-120 66h-240v-262q0-26 20-45 19-20 45-20h784q27 0 46 20 20 19 20 45v262h-241z m44 456v131q0 54-38 93-38 38-92 38h-261q-54 0-93-38-38-39-38-93v-131h-196q-26 0-46-18-19-20-19-47v-261q0-26 19-46 20-19 46-19h262v33q0 51 23 75 23 23 75 23h195q52 0 75-23 23-24 23-75v-33h262q26 0 45 19 20 20 20 46v261q0 27-20 47-19 18-45 18h-197z m-163-326q14 0 24-9 9-10 9-23v-65q0-14-9-23-10-10-24-10h-195q-14 0-24 10-9 9-9 23v65q0 13 9 23 10 9 24 9h195z" horiz-adv-x="1044.9" />
<glyph glyph-name="uF0018" unicode="&#xe811;" d="m746 368h174l-174 174v-174z m-597 391q0-7 5-13 6-7 14-6h411q7 0 12 6 5 5 5 13v38q0 7-5 13-5 5-12 5h-411q-7 0-14-5-6-6-5-13v-38z m299-840h522v374h-243q-23 0-39 16-17 16-16 40v242h-224v-672z m-448 914q0 24 17 40 16 16 40 17h633q24 0 41-17 16-17 15-40v-191q13-7 21-16l238-237q17-18 28-44 12-27 12-53v-390q0-24-17-40t-40-17h-558q-25 0-40 17t-17 40v92h-316q-24 0-40 16t-17 40v783z" horiz-adv-x="1044.9" />
<glyph glyph-name="uF0019" unicode="&#xe812;" d="m433 58q24 0 24 19v116q0 19-24 19h-88q-24 0-24-19v-116q0-19 24-19h88z m610 0q24 0 24 19v581q0 19-24 19h-88q-24 0-24-19v-581q0-19 24-19h88z m-203 0q23 0 23 19v426q0 20-23 20h-88q-24 0-24-20v-426q0-19 24-19h88z m-204 0q24 0 24 19v271q0 20-24 20h-88q-24 0-24-20v-271q0-19 24-19h88z m709 273q0-26-26-26h-35q-26 0-26 26v73q0 25 26 25h35q26 0 26-25v-73z m-1246-66q0-23-21-23-22 0-22 23v206q0 21 22 21 21 0 21-21v-206z m1116-276h-1043v757h1043v-757z m-1126 901q-37 0-63-31-26-31-26-75v-833q0-44 26-75 26-31 63-31h1209q37 0 64 31 26 31 26 75v833q0 44-26 75-27 31-64 31h-1209z" horiz-adv-x="1387.7" />
<glyph glyph-name="uF0020" unicode="&#xe813;" d="m613 795q128-27 220-118 88-87 117-207l-337-1v326z m-83 95v-505l515 2q-7 205-153 349-149 147-362 154z m363-891l-394 355q-7 6-7 14v522q-201-12-343-157-149-152-149-365 0-216 154-369 153-154 369-154 217 0 370 154z m5 84l71 71q-23-46-53-86z m-241 216l-24 22h46z m29-25l-15 13 34 34h27z m27-25l-13 13 59 59h27z m29-25l-14 12 85 85h27z m29-26l-15 12 111 111h27z m28-25l-14 12 135 136h28z m28-27l-14 14 161 161h27z m29-25l-15 13 173 173q-3-17-6-33z m28-25l-15 13 132 130q-6-19-14-39z m35-69q120 138 126 322l-485 1z" horiz-adv-x="1045.4" />
<glyph glyph-name="uF0021" unicode="&#xe814;" d="m102-53v892q0 21-16 36-14 15-35 15t-36-15q-15-15-15-36v-943q0-21 15-36 15-15 36-15h943q21 0 36 15 15 15 15 36t-15 35q-15 16-36 16h-892z m427 748q-9 9-23 9-12-1-21-10l-295-335q-8-9-7-23 0-12 10-20 9-8 20-8 14 0 23 10l273 311 94-90q9-9 22-9 12 0 21 9l211 211v-41q0-12 9-21 9-9 21-9 13 0 22 9t9 21v120l-1 1v1q-1 2-2 4v1q-2 5-6 9-10 9-23 9h-111q-12 0-22-9-8-9-8-22 0-12 8-21 10-9 22-9h39l-190-190z m452-28l-354-352-105 105-339-393h798v640z" horiz-adv-x="1044.9" />
<glyph glyph-name="uF0022" unicode="&#xe815;" d="m270 716q29 30 29 72t-29 72q-30 30-73 30-42 0-71-30-31-30-31-72t31-72q29-30 71-30 43 0 73 30z m323-487q0-13 10-23t22-10h54q13 0 23 10 10 10 10 23v215q0 14-10 23-10 10-23 10h-54q-13 0-22-10t-10-23v-215z m310-33q14 0 23 10t10 23v316q0 14-10 23-9 10-23 10h-53q-15 0-24-10-9-9-9-23v-316q0-13 9-23t24-10h53z m226 0q13 0 22 10t10 23v420q0 14-10 23t-22 10h-54q-13 0-23-10-10-9-10-23v-420q0-13 10-23 10-10 23-10h54z m-544 359q22 0 40 17 17 17 17 40 0 24-17 41-18 17-40 17h-528q-24 0-40-17-17-17-17-41v-279q0-23 17-40 16-17 40-17h2v-358q0-26 19-45 18-19 45-19 25 0 45 19 18 19 18 45v358h23v-358q0-27 19-46 18-18 45-18 26 0 44 18 19 19 19 46v637h249z m742-435q0-35-22-59-22-23-52-23h-173l94-163q10-17-7-27-17-9-26 8l-106 182h-314l-106-182q-9-17-26-8-17 10-7 27l94 163h-174q-30 0-52 23-21 24-21 59v405h58v-405q0-23 15-23h751q15 0 15 23v639q0 23-15 23h-751q-15 0-15-23v-60h-58v60q0 33 21 57 22 24 52 24h266v18q0 8 8 8h203q9 0 9-8v-18h265q30 0 52-24 22-24 22-57v-639z" horiz-adv-x="1326.7" />
<glyph glyph-name="uF0023" unicode="&#xe816;" d="m992 189q32-30 74-30t73 30q32 31 30 74 0 43-30 73-29 31-73 31-45 0-74-31-29-30-32-73 0-43 32-74z m-856 0q32-30 74-30t73 30q32 31 31 74-1 43-31 73-30 31-73 31-45 0-74-31-30-30-31-73 0-43 31-74z m201 282h621l-57 235q-3 3-10 9t-14 8h-459q-6 0-14-8-8-7-8-9z m-337-146q0 61 44 104 43 43 103 42h18l67 274q16 62 69 102 53 42 117 43h459q65 0 117-43 53-42 69-102l68-274h17q62 0 105-42 43-42 42-104v-251q0-9-6-15t-15-6h-84v-82q0-54-36-90t-88-36q-53 0-89 36-37 36-37 90v82h-605v-82q0-54-38-90-38-36-87-36-51 0-90 36-38 36-36 90v82h-63q-9 0-15 6t-6 15v251z" horiz-adv-x="1296.4" />
<glyph glyph-name="uF0024" unicode="&#xe817;" d="m244-15q-14 0-25 10t-10 24q0 15 10 25t25 10h626q15 0 25-10t10-25q0-14-10-24t-25-10h-626z m-35 714q0 21 15 36 16 15 37 15h592q22 0 37-15 15-15 15-36v-384q0-21-15-37-15-15-37-15h-592q-21 0-37 15-15 16-15 37v384z m735-544q101 61 101 177v349q0 87-62 148-61 61-147 61h-558q-86 0-147-61-62-61-62-148v-349q0-116 101-177l-145-146q-25-24-25-59v-70q0-14 10-25t25-10h1044q15 0 25 10t10 25v70q0 35-25 59z" horiz-adv-x="1114.3" />
<glyph glyph-name="uF0025" unicode="&#xe818;" d="m1116 553q0-59-42-101l-8-7q-41-42-100-42h-198q-25 0-42 17-17 18-17 42v75q0 59 39 103l106 118q40 44 99 44h104q24 0 41-18 18-17 18-41v-190z m345-362q21 24 21 57v215q0 35-23 60t-57 25h-86v74h-57v-74h-66q0 10 0 5v190q0 61-43 104-43 43-104 43h-104q-98 0-164-73l-107-118q-49-56-60-137l-151 168q1 5 1 7 9 39-12 73-21 34-60 43-11 2-22 2-77 0-94-75-5-19-1-38l-148-199q-59-2-72-59-7-29 10-56h-2l-55-213q-16-61 18-104t97-44h361l-297 350q12 15 17 34 4 20-2 40l165 154 268-435q13-26 37-39-50-16-83-60-32-44-32-98 0-70 49-119 49-49 118-49h618q70 0 119 49 49 49 49 119 0 105-96 151 30 3 50 27z" horiz-adv-x="1506.8" />
<glyph glyph-name="uF0026" unicode="&#xe819;" d="m1008-110q-37-37-85-44-27-4-46 16-114 118-159 164-16 16-91 106-43 50-68 57-10 3-102 16-56 7-88 39-44 44-56 104-11 60-12 69-2 40 23 45 24 6 61-41 11-13 28-39 18-25 23-31 16-20 34 0 10 9 40 39 28 29 38 39 19 18 0 33-6 6-32 23-25 17-39 28-46 37-41 62 5 25 45 23 11-1 70-12 61-13 105-56 79-80 53-190 62-60 164-158-3 3 164-159 20-20 16-48-8-47-45-85z m-863 777q37-22 47-16 34 20 46 48 5 10-17 40-22 30-19 41 1 5 50 37 49 32 54 31 12-1 32-34 21-34 31-38 16-6 34-1 20 5 31 19 6 8 3 45-3 35 6 43 3 4 62 7 58 3 62 0 10-8 12-46 1-40 8-49 25-28 64-17 11 3 27 36 15 33 26 36 5 1 56-26 53-26 54-31 3-11-15-46-18-34-15-46 10-39 45-47 11-2 42 19 30 22 42 18 4-2 37-50 31-49 31-54-2-13-37-34-35-21-38-32-10-38 16-62 9-8 46-5 38 4 46-5 4-4 7-61 3-58 0-63-8-10-47-12-43-1-51-9-18-14-19-69l-104 101q4 40 3 59-6 119-91 200-84 82-200 82-6 0-15-1-123-10-202-97-81-92-74-214 7-122 96-204 89-82 211-77 10 1 35 6l100-103q-57-3-74-21-7-8-4-45 3-35-4-43-4-4-62-7-58-3-62 0-11 8-11 47 0 40-9 48-29 28-64 17-11-3-26-37-16-33-27-35-5-1-56 25-53 27-54 31-5 12 14 47 20 35 17 47-11 38-47 46-10 2-41-20-30-21-41-18-6 2-37 51-32 48-31 54 1 13 36 33 35 22 38 33 9 39-16 63-9 7-47 3-37-3-46 5-3 4-6 63-3 58 0 62 8 10 48 11 42 1 51 10 25 27 15 62-4 10-41 26-34 16-33 27 8 66 56 111 9 8 46-15z" horiz-adv-x="1056.6" />
<glyph glyph-name="uF0027" unicode="&#xe81a;" d="m1004 515q0 16-16 16h-229q-16 0-16-16v-33q0-16 16-16h229q16 0 16 16v33z m0-131q0 16-16 16h-229q-16 0-16-16v-32q0-17 16-17h229q16 0 16 17v32z m-65-131q0 16-17 16h-163q-16 0-16-16v-32q0-16 16-16h163q17 0 17 16v32z m163-81q0-27-19-47-19-19-46-19h-327q-27 0-46 19-19 20-19 47v391q0 27 19 47 20 19 46 19h327q27 0 46-19 19-20 19-47v-391z m-392-135q-56 0-95 39t-40 96v130q-47-13-95-12-145 3-253 105-1 1-14 15-28-3-53-13-35-13-59-36-23-23-42-55t-30-66-17-74q-7-41-10-75-2-33-2-70 1-81 50-129 49-47 132-47h594q82 0 132 47 50 48 50 129l0 16h-248z m-475 610q0 101 71 171 72 71 173 72t171-72q52-52 66-119h-6q-56 0-95-40t-40-96v-142q-45-20-96-19-99 3-173 72-74 69-71 173z" horiz-adv-x="1102.1" />
<glyph glyph-name="uF0028" unicode="&#xe81b;" d="m874 133l147 146q9 10 6 17-3 6-15 6h-391q-14 0-23-9t-10-23v-391q0-13 7-16 7-3 16 6l147 147 209-164q11-7 25-7 14 1 24 10l19 20q9 9 10 24 1 13-7 24z m-116 585l-147 147q-9 10-16 7-7-3-7-16v-391q0-13 10-23 9-9 23-9h391q12 0 15 6 3 7-6 16l-147 147 164 210q8 10 7 24-1 15-10 24l-19 19q-10 10-24 11-14 1-25-8z m-469-702l146-147q9-9 16-6 7 3 7 16v391q0 14-9 23-10 9-24 9h-390q-14 0-16-6-3-7 6-17l147-146-164-210q-8-11-7-24 1-15 10-24l19-20q10-9 24-10 14 0 25 7z m-117 586l-147-147q-9-9-6-16 2-6 16-6h390q14 0 24 9 9 10 9 23v391q0 13-7 16t-16-7l-146-147-210 164q-11 9-25 8-14-1-24-11l-19-19q-9-9-10-24-1-14 7-24z" horiz-adv-x="1046.4" />
<glyph glyph-name="uF0029" unicode="&#xe81c;" d="m196 890h-131q-26 0-46-19-19-19-19-46v-915q0-26 19-46 20-19 46-19h65q27 0 47 19 19 20 19 46v980z m710-478q-81 103-102 127-21 24 2 52 23 27 105 130l52 66q34 43 19 73-14 30-68 30h-653v-653h653q54 0 68 30 15 30-19 72z" horiz-adv-x="997.1" />
<glyph glyph-name="CRM" unicode="&#xe81d;" d="m523 485q163 53 311 224l87-426q-201 97-373 81z m684 50q16-11 35-7l89 19q18 4 28 19t7 35q-4 18-20 28-15 11-33 7l-90-19q-18-3-28-19-11-16-6-34 3-19 18-29z m-210 64l-47 229q-8 29-35 48-27 19-58 13-228-286-487-340l-286-58q-40-9-62-43-22-33-14-73l24-114q7-39 41-61 35-23 74-15l72 15q-2-34 1-69t10-58q7-24 22-58 15-34 23-51 9-17 32-53 21-34 29-48 32-21 84-17 53 2 99 27 46 26 58 63-25 14-44 23-19 8-35 24-17 15-27 29-9 14-11 33-2 20 6 43-26 19-34 49-9 31 5 64 15 33 46 51 240 29 531-127 30 5 49 33 19 28 12 60l-47 228q31 8 49 33 18 27 11 59-6 32-33 50-28 18-58 11z m251 205q11 15 6 34-3 18-19 29-15 10-34 6-18-4-29-19l-70-107q-11-17-7-36 4-18 19-27 16-12 34-7 20 4 29 19z m-5-374q-16 10-34 7-19-4-29-20-11-16-7-34 4-19 20-29l107-71q15-10 34-7 19 5 29 20 10 16 7 34-4 19-20 29z" horiz-adv-x="1373" />
<glyph glyph-name="uF0031" unicode="&#xe81e;" d="m721 106v326q131 11 178-27 19-15 19-46 0-221-83-244-39-11-114-9z m0 458v67h-721v-655q0-54 39-92t92-39h459q54 0 92 38 38 38 39 91h17q81 0 132 15 179 50 179 370 0 93-67 147-85 71-261 58z m-314 235q33-30 0-82-33-52-88-50 1 52-43 91-41 37 6 88 44 48 92 44-33-32 33-91z" horiz-adv-x="1048.8" />
<glyph glyph-name="uF0032" unicode="&#xe81f;" d="m864 450q-34 0-59-25-25-25-24-59 1-33 24-57 23-25 58-25 35 0 60 24 25 24 25 59 0 34-25 59-24 24-56 24h-3z m-386-61q-102 2-179 73-75 72-73 178 0 104 73 176 74 73 179 74h3q101 0 173-74 72-74 74-176 0-21-4-42l-14 4q-15 5-32 5-22 0-42-9-37-15-55-49l-16-30q-19-33-14-71 3-24 16-44-39-15-83-15h-6z m-310-544q-78 0-123 44-44 42-45 118 0 37 2 72 3 34 10 74 8 41 18 75 9 33 28 64 19 31 41 53 21 21 53 33 33 13 70 13 6-2 19-12 24-16 53-33 31-19 79-36 46-17 97-17h8q40 1 77 9-2-7-4-14-6-38 13-73l18-30q17-32 53-48 21-9 44-9 17 0 32 5l21 7 7-28 1-2q11-31 37-53 31-26 69-26h39q34 2 64 24l4 3 1-53q0-73-45-116-45-44-122-44h-619z m678 262q-11 0-20 9-10 8-14 19l-13 53q-5 18-22 28-10 7-23 7-6 0-13-2l-52-15q-5-2-10-2-7 0-14 3-12 5-17 14l-18 32q-5 10-3 22 2 13 10 22l38 37q14 14 14 33 0 19-13 32l-39 39q-9 8-10 20-1 13 4 23l17 32q6 10 17 15 7 3 13 3 5 0 11-2l52-15q7-1 13-1 13 0 23 6 17 9 22 28l14 53q2 11 13 20 10 8 20 8h36q11 0 21-8t14-20l13-53q6-19 22-28 11-6 23-6 6 0 11 1l54 14q5 2 10 2 7 0 13-2 12-5 18-15l18-32q5-9 3-22-3-14-10-21l-39-38q-15-13-14-34 1-19 13-32l40-38q8-8 10-20 1-14-3-24l-18-30q-6-10-18-15-8-3-15-3-4 0-7 2l-54 15q-6 1-12 1-12 0-23-6-16-9-22-28l-13-54q-3-11-13-18-11-8-22-9h-36z" horiz-adv-x="1103.5" />
<glyph glyph-name="CRM-Planlama" unicode="&#xe820;" d="m591 103q0 27-20 46-20 20-47 20-27 0-46-20t-20-46v-121q-106 20-199 108-100 94-121 211h127q27 0 47 20 19 19 19 47 0 26-19 46-20 20-47 20h-127q21 117 121 211 93 87 199 107v-120q0-28 20-47 19-19 46-19 27 0 47 19 20 19 20 47v118q105-23 197-109 99-94 119-207h-113q-27 0-47-20t-19-46q0-28 19-47 20-20 47-20h113q-20-114-119-206-92-86-197-111v119z m-438 634q-153-154-153-369 0-217 153-370t370-153q215 0 369 153 153 153 153 370 0 215-153 369-154 153-369 153-217 0-370-153z" horiz-adv-x="1044.9" />
<glyph glyph-name="uF0034" unicode="&#xe821;" d="m914 274v-270h-783v727h671l114 143q-39 16-80 16h-627q-86 0-147-61-62-61-62-148v-627q0-86 62-147 61-62 147-62h627q86 0 147 62 62 61 62 147v384z m-289-192q-15-1-43 6-28 6-73 50l-305 306q-10 10-10 23 0 12 10 22l120 121q10 9 22 9 13 0 23-9l214-214q9-9 21-9 12 1 21 11l346 433q8 10 21 12 13 1 23-7l133-107q11-7 12-21t-7-23l-428-535q-20-25-42-46-23-20-56-22h-2z" horiz-adv-x="1161.6" />
<glyph glyph-name="CRM-Pazarlama" unicode="&#xe822;" d="m877 285q-18 0-31-12-12-13-12-31 0-17 12-30t30-13l122-2q18 0 31 12 13 13 13 31 0 18-12 30-13 14-31 14z m-40-164q-13 13-30 13-18 1-32-12-12-12-13-30 0-18 12-31l61-62q13-13 31-13 17 0 31 13 12 12 12 30t-12 31z m-214-80q-12-13-13-30l-1-122q0-18 12-31 13-13 30-13 18 0 32 12 12 12 13 31l0 122q1 18-11 31-13 12-31 13-18 0-31-13z m108 117q-41-41-99-41-58 0-99 41l-173-173q-20-20-49-20-29 0-49 20 11 136-43 264-54 129-155 230-64 64-64 139t56 148q-10 3-17 10-15 16-16 37 0 20 16 37 15 17 37 16 23-2 38-16 6-7 10-17 72 58 149 57 75-1 137-64 101-102 230-156 129-54 265-42 20-20 20-49-1-30-21-50l-173-173q42-41 42-99t-42-99z" horiz-adv-x="1042" />
<glyph glyph-name="CRM-Satış" unicode="&#xe823;" d="m1137 176l-5 0-270-28q-25-33-67-33h-186v26h186q23 0 40 17 16 16 16 39 0 23-16 39-17 17-40 17h-377q-6 0-12-2v-294q5-1 9-1l162-13q20-2 40-2 67 0 133 19l392 110q39 11 39 54v5q0 21-14 35-13 12-30 12z m-1137-331h362v441h-362v-441z m584 672q14 14 28 0l140-140q14-14 0-28l-28-28q-14-14-28 0l-140 140q-14 14 0 28z m112 112q14 14 28 0l196-196q14-14 0-28l-28-28q-14-14-28 0l-196 196q-14 14 0 28z m112 112q14 14 28 0l196-196q14-14 0-28l-28-28q-14-14-28 0l-196 196q-14 14 0 28z m-238-463h225q34 0 58-24 24-24 24-57 0 1-1-4l282 282q23 23 23 56 0 33-23 56l-280 280q-23 23-56 23t-56-23l-336-336q-24-23-24-56 0-33 24-56z" horiz-adv-x="1181.2" />
<glyph glyph-name="uF0037" unicode="&#xe824;" d="m355 553l-43-33-44 80 99 73h90v-335h-102v215z m228 146q82-81 82-196 0-115-82-196-81-81-196-81-114 0-196 81-81 81-81 196 0 115 81 196t196 81q115 0 196-81z m-91-854l103 117 149-45-81 283q-103-95-242-105z m-105 271q160 0 274 113 113 113 113 274 0 160-113 273-114 114-274 114-160 0-274-114-113-113-113-273 0-161 113-274 114-113 274-113z m-357-199l150 45 102-117 71 250q-139 10-242 105z" horiz-adv-x="773.9" />
<glyph glyph-name="uF0038" unicode="&#xe825;" d="m792 335q-17 0-17-16v-33q0-17 17-17h98q16 0 16 17v33q0 16-16 16h-98z m114 228h-131v-65h131v65z m196-228q0-13-10-23-9-10-23-10h-130v17q0 49-49 49h-98q-49 0-49-49v-17h-131q-13 0-23 10t-9 23v131q0 13 9 23 10 9 23 9h98v65q0 28 20 47t45 19h131q27 0 46-19 20-19 20-47v-65h97q14 0 23-9 10-10 10-23v-131z m-153-66q-9-32-59-32h-98q-51 0-60 32h-120v-130q0-14 10-23 9-10 23-10h392q13 0 23 10 9 9 9 23v130h-120z m-304-232q-42 0-72 30-30 30-30 72v121q-15 14-23 32-22-2-40-2-145 3-253 105-2 1-14 15-28-3-53-13-35-13-59-36-23-23-42-55t-30-66-17-74q-7-41-10-75-2-33-2-70 1-81 50-129 49-47 132-47h594q82 0 132 47 50 48 50 129l0 16h-313z m-410 610q0 101 71 171 72 71 173 72t171-72q57-57 69-133-75-35-78-117h-29q-42 0-72-30-30-30-30-72v-62q-17-2-31-2-99 3-173 72-74 69-71 173z" horiz-adv-x="1102.1" />
<glyph glyph-name="ERP-ÜrünVeStoklar" unicode="&#xe826;" d="m678 391q-35-44-35-107 0-61 35-108 35-47 83-45 28 0 56 18 33 21 48 14 14-8 15-32v-186q0-40-31-70t-72-30h-185q-20 0-29 12-9 12 2 40 27 32 27 66 0 50-44 83-44 34-108 34-63 0-106-34-45-33-46-83 0-29 16-57 23-34 16-48-6-14-32-13h-186q-42 0-71 30t-29 70v186q0 21 11 30 11 9 40-3 31-27 67-27 49 0 84 45 34 44 34 108 0 66-34 107-35 41-84 44-28 0-55-17-34-22-50-16-15 7-13 33v118q0 43 29 72t71 30h186q25 0 32 13 8 13-14 48-18 26-18 57 0 50 46 83 44 34 106 34 63 0 108-34 45-33 44-83 0-34-27-67-13-26-2-39 10-13 29-12h185q40 0 72-30t31-72v-118q0-21-13-30-12-9-39 4-31 26-67 26-48 0-83-44z" horiz-adv-x="879.9" />
<glyph glyph-name="ERP-Satış-Dağıtım" unicode="&#xe827;" d="m737 66q-17 17-42 17-25-1-42-18-16-16-16-42 0-24 17-41 17-17 42-17 24 0 41 18 18 17 17 42 0 24-17 41z m-535 0q-16-17-16-42 0-25 17-42t41-17 42 17q17 18 17 42 0 25-17 42-17 17-42 17-25-1-42-17z m453 246q-31 142-37 167-5 19-20 30-44 32-132 91-12 8-24 8-23 1-145 1v-59q32-4 46-16t21-42q3-12 45-180h246z m-478 34v270q0 44 22 73t61 39q10 3 30 3-9 0 127 0 69 0 128-40 16-10 52-35 33-23 52-35 72-48 88-126 1-6 6-9v324q0 20 1 25 1 22 18 38 17 17 39 17 22 1 39-15 17-15 20-36 2-10 2-29v-287-285q0-40 18-67 18-26 52-35 13-4 36-4h100q66 0 101 0 20 0 34-5 22-6 33-25 11-19 7-42-4-20-21-34t-40-13h-285-22q-7-31-7-32-14-56-57-92t-103-43q-52-6-101 23t-72 79q-4 10-11 14t-17 3q-14 0-41 0-27 0-41-1-4 0-9-3t-8-8q-54-110-169-106-117 3-163 118-4 10-14 15-60 27-60 91-2 82 0 153 0 45 28 71 28 27 73 27h74v24z" horiz-adv-x="1246.6" />
<glyph glyph-name="uF0041" unicode="&#xe828;" d="m46 637q45 45 110 45 64 0 109-45 46-46 45-110 0-44-24-81l315-313q21 13 44 19v432q-52 13-85 55t-34 97q0 63 46 109 46 45 109 45 65 0 111-45 45-45 43-109 0-55-33-97-33-43-85-55v-432q23-6 44-19l315 313q-24 37-24 81 0 65 46 110 46 44 109 45 64 1 109-45 46-48 46-110 0-62-46-110-45-48-109-46-41 0-80 25l-314-315q22-37 22-80 0-65-43-111-45-45-111-45-65 0-109 45-45 46-46 111 0 43 23 80l-314 315q-39-25-80-25-64 0-109 46-46 45-46 110 0 64 46 110z" horiz-adv-x="1361.8" />
<glyph glyph-name="ERP-Üretim" unicode="&#xe829;" d="m1005-146h185v556h-185v-556z m24 690q-1-6-1-13 0-22 16-37 16-16 38-16t39 16q15 15 15 37 0 11-4 21 58 30 58 88 0 28-18 53 16 25 16 53 0 59-66 101-65 43-158 43-91 0-157-43-66-42-66-101t64-100q63-42 154-44 20-42 70-58z m-570-47l-459 371v-1023h922v647l-463 376v-371z" horiz-adv-x="1189.9" />
<glyph glyph-name="ERP-FiyatYönetimi" unicode="&#xe82a;" d="m190 527q-36 35-38 86-1 52 34 89 35 37 87 38 50 2 88-34 37-35 38-86 1-51-34-89-35-36-86-38-51-1-89 34z m330 318q-50 47-117 45l-336-9q-28-1-47-21-20-21-19-48l8-337q3-67 51-114l525-498q20-18 48-18 28 1 47 21l366 386q19 21 19 48-1 29-21 47z" horiz-adv-x="1065.4" />
<glyph glyph-name="uF0044" unicode="&#xe82b;" d="m444 34q-32-32-32-78 0-46 32-78 33-33 79-33 45 0 78 33 32 32 32 78 0 46-32 78-33 32-78 32-46 0-79-32z m-61 696l-15 101q-6 25-26 42-21 17-47 17h-221q-30 0-52-22-22-21-22-52 0-30 22-52 22-22 52-22h161l105-548q11-54 72-54h555q28 0 41 21 10 14 19 51 19 76-46 76h-508l-18 73h547q74 0 85 59l54 256q5 24-10 39-16 15-46 15h-702z m430-696q-32-32-32-78 0-46 32-78 33-33 79-33 45 0 78 33 32 32 32 78 0 46-32 78t-78 32q-46 0-79-32z" horiz-adv-x="1146" />
<glyph glyph-name="uF0045" unicode="&#xe82c;" d="m523 890h-393q-53 0-91-38-39-39-39-93v-784q0-53 39-91 38-39 91-39h653q54 0 92 39 39 38 39 91v523h-391v392z m391-327h-327v327h35q31 0 51-21 1-1 41-40 40-41 70-71l110-110q20-20 20-43v-42z" horiz-adv-x="913.6" />
<glyph glyph-name="uF0046" unicode="&#xe82d;" d="m718 596q0-13-9-23-10-10-23-10h-458q-13 0-22 10-10 10-10 23v65q0 14 10 24 9 9 22 9h458q13 0 23-9 9-10 9-24v-65z m-131-523q0-13-9-22t-23-10h-327q-13 0-22 10t-10 22v66q0 13 10 23 9 9 22 9h327q14 0 23-9 9-10 9-23v-66z m131 262q0-14-9-23-10-10-23-10h-458q-13 0-22 10-10 9-10 23v65q0 13 10 23 9 10 22 10h458q13 0 23-10 9-10 9-23v-65z m-588 555q-53 0-91-38-39-39-39-93v-784q0-53 39-91 38-39 91-39h653q54 0 93 39 38 38 38 91v784q0 54-38 93-39 38-93 38h-653z" horiz-adv-x="913.6" />
<glyph glyph-name="uF0047" unicode="&#xe82e;" d="m918 471q-77 76-106 82-29 5-128-40-71-33-86-38-51-20-98-2-47 17-73 65-26 47-15 97 10 51 54 81 14 10 197 122-80 73-170 40-103-38-197-94-84-51-169-16-8 3-127 43v-495q48-16 54-18 10 13 22 25l47 48q52 51 119 51 57 0 96-39 27-26 35-63 38-9 64-35 26-27 34-64 38-9 64-35 27-27 36-64 37-8 64-35 63-64 26-156l30-38q41-33 82 3 43 39 7 84-11 14-31 35-27 26-33 33-2 2-22 32 1 0 13 10 88-95 94-101 55-58 100-15 47 44-12 106-6 6-81 86l17 17q95-106 108-117 28-26 68-18 12 3 26 18 13 15 14 29 2 29-26 67-8 8-85 91l10 11q62-58 67-62 45-44 74-52 28-9 52 16t16 53-52 71q-59 60-179 181z m-381-417q-29-1-54-19 19 25 19 53 1 29-17 47t-47 18q-28-1-54-20 19 26 20 54 1 29-18 47-18 18-47 17-28-1-53-19 18 26 19 54 0 28-18 46-20 21-54 18-33-3-59-30l-47-47q-26-26-30-59-4-34 17-55 18-18 46-17 30 1 55 19-19-26-20-54-1-28 17-47t48-17q28 1 54 19-20-25-20-54-1-29 17-47 18-18 47-17 29 0 54 19-19-25-19-53-1-29 17-47 21-21 54-17 34 3 59 29l48 48q26 26 30 59 4 34-17 55-18 18-47 17z m890 274q-146-22-161-22-42 0-85 39t-268 263q-37 36-65 41t-75-19q-34-17-87-45-72-37-87-45-37-20-70-12t-50 38q-19 33-8 65 12 33 50 54 298 169 326 185 77 46 147-13 103-86 133-113 42-38 99-24 16 5 201 44v-436z" horiz-adv-x="1427.2" />
<glyph glyph-name="uF0048" unicode="&#xe82f;" d="m128 627v49h1q47 0 56 21 12 27 41 45t57 19h481q29 0 57-19t41-45q10-21 56-21h1v-49-91-42h-1q-46 0-56-21-12-27-41-45t-57-19h-481q-29 0-57 19t-41 45q-10 21-56 21h-1v42 91z m849-426q0-29-20-49-20-21-49-21h-769q-29 0-49 21-20 20-20 49v5q0 29 20 49 20 21 49 21h769q29 0 49-21 20-20 20-49v-5z m0-217q0-29-20-49-20-20-49-20h-769q-29 0-49 20-20 20-20 49v6q0 29 20 49 20 21 49 21h769q29 0 49-21 20-20 20-49v-6z m-907 906q-29 0-49-20t-21-50v-905q0-29 21-49t49-21h907q29 0 49 21t21 49v918q0 23-21 40-20 17-49 17h-907z m505-358q21 21 21 51t-21 51q-21 22-52 22t-51-22q-21-21-21-51t21-51q21-22 51-22t52 22z" horiz-adv-x="1046.9" />
<glyph glyph-name="uF0049" unicode="&#xe830;" d="m718 531q0-14-9-24-10-9-23-9h-458q-13 0-22 9-10 10-10 24v130q0 14 10 24 9 9 22 9h458q13 0 23-9 9-10 9-24v-130z m-392-458q0-13-10-22-9-10-22-10h-66q-13 0-22 10t-10 22v66q0 13 10 23 9 9 22 9h66q13 0 22-9 10-10 10-23v-66z m0 197q0-14-10-23-9-10-22-10h-66q-13 0-22 10t-10 23v65q0 13 10 23 9 10 22 10h66q13 0 22-10 10-10 10-23v-65z m197-197q0-13-10-22t-23-10h-66q-13 0-23 10t-9 22v66q0 13 9 23 10 9 23 9h66q13 0 23-9 10-10 10-23v-66z m0 197q0-14-10-23t-23-10h-66q-13 0-23 10t-9 23v65q0 13 9 23 10 10 23 10h66q13 0 23-10 10-10 10-23v-65z m195-197q0-13-9-22t-23-10h-66q-14 0-23 10-10 9-10 22v66q0 13 10 23 9 9 23 9h66q13 0 23-9 9-10 9-23v-66z m0 197q0-14-9-23t-23-10h-66q-14 0-23 10-10 9-10 23v65q0 13 10 23 9 10 23 10h66q13 0 23-10 9-10 9-23v-65z m-588 620q-53 0-91-38-39-39-39-93v-784q0-53 39-91 38-39 91-39h653q54 0 92 39 39 38 39 91v784q0 54-39 93-38 38-92 38h-653z" horiz-adv-x="913.6" />
<glyph glyph-name="uF0050" unicode="&#xe831;" d="m679 712q-22 22-53 22-31 0-53-22t-22-53 22-53 53-22q31 0 53 22 22 22 22 53t-22 53z m-204-89q-22 21-54 21-30 0-52-21t-22-54q0-30 22-52t52-22q32 0 54 22t22 52q0 32-22 54z m-147-148q-22 22-54 22-30 0-52-22t-22-53q0-31 22-52 22-22 52-22 32 0 54 22 21 21 21 52 0 31-21 53z m-90-205q-22 22-53 22-31 0-53-22t-22-52q0-32 22-53t53-22q31 0 53 22 22 21 22 53 0 30-22 52z m1107-205q-25-25-65-25h-320q-20 0-28 17-8 17 4 33 132 168 178 226 51 66 57 76 37 55 15 117t-82 75q-81 20-142-41-101-101-285-280-15-15-31-19-146-36-172-179-2-11-11-18-8-7-20-7h0-348q-46 0-71 25t-24 72q2 122 46 237 44 111 123 202 80 90 184 148 107 59 228 76 135 19 264-11 125-29 229-101 105-71 177-177 73-109 103-242 12-50 15-139 2-40-24-65z m-730-111q-29 26-35 66-5 41 15 74 21 34 60 43 29 7 59 36 136 135 246 242 12 13 14 14 16 13 34 14t32-11q13-13 13-30 0-17-14-35-48-61-226-289-23-28-24-56-3-40-34-67-30-27-70-27-40 0-70 26z" horiz-adv-x="1370.6" />
<glyph glyph-name="ERP-Finans-Muhasebe" unicode="&#xe832;" d="m641 97q0-14-13-14h-342q-13 0-13 14v79q0 13 13 13h342q13 0 13-13v-79z m-368 407q0 16 13 16h118v116q0 16 14 16h78q13 0 13-16v-116h119q13 0 13-16v-79q0-10-13-10h-119v-122q0-10-13-10h-78q-14 0-14 10v122h-118q-13 0-13 10v79z m501-463q0-23-16-40-17-17-40-17h-522q-23 0-40 17-17 17-17 40v653q0 23 17 40 17 16 40 16h522q23 0 40-16 16-17 16-40v-653z m-578 849q-81 0-138-58t-58-138v-653q0-81 58-138 57-58 138-58h522q81 0 138 58 58 57 58 138v653q0 81-58 138-57 58-138 58h-522z" horiz-adv-x="913.6" />
<glyph glyph-name="uF0052" unicode="&#xe833;" d="m573 335q-23 23-23 57t23 57q24 23 57 23t57-23q23-24 23-57t-23-57q-24-24-57-24t-57 24z m-336 342q-25 0-25-25v-521q0-25 25-25h522q25 0 25 25v521q0 25-25 25h-522z m646-585q0-35-25-60-25-25-60-25h-599q-36 0-60 25-26 25-26 60v599q0 36 26 61 24 24 60 24h599q35 0 60-24 25-25 25-61v-599z m-826 798q-24 0-40-17t-17-40v-883q0-23 17-40 16-17 40-17h82v-30q0-18 18-18h105q17 0 17 18v30h438v-30q0-18 17-18h106q17 0 17 18v30h83q23 0 40 17 17 17 17 40v883q0 24-17 40t-40 17h-883z" horiz-adv-x="996.6" />
<glyph glyph-name="uF0053" unicode="&#xe834;" d="m17 618l33-34q16-16 40-16h876q21 0 38 17l33 33q16 16-7 27 1 0-33 17-29 14-48 23l-313 154q-59 29-84 44-25 14-48 0-21-13-81-43l-318-155q-63-30-82-40-23-11-6-27z m905-576h-790q-66 0-66-60-27 0-46-22-20-22-20-49v-66h1053v66q0 27-19 49-20 22-47 22 0 60-65 60z m-659 461h-131q-33 0-33-33 0-33 33-33v-263q-33 0-33-33t33-33h131q33 0 33 33t-33 33v263q33 0 33 33 0 33-33 33z m329 0h-131q-33 0-33-33 0-33 33-33v-263q-33 0-33-33t33-33h131q34 0 34 33t-34 33v263q34 0 34 33 0 33-34 33z m330-66q33 0 33 33 0 33-33 33h-132q-33 0-33-33 0-33 33-33v-263q-33 0-33-33t33-33h132q33 0 33 33t-33 33v263z" horiz-adv-x="1053.2" />
<glyph glyph-name="uF0054" unicode="&#xe835;" d="m913 513q41-41 0-81l-454-455q-41-41-82 0l-245 245q-41 41 0 82l454 454q41 41 82 0z m-862-127q-51-51-51-123t51-122l244-245q51-51 123-51t123 51l453 454q51 50 51 122t-51 123l-244 244q-51 51-123 51t-122-51z m467 17q20 21 0 41l-41 41q-21 20-41 0l-204-204q-21-20-1-41l42-41q20-20 41 0z m-164-244q-20-21 0-41l41-41q21-20 41 0l378 378q20 20 0 40l-41 41q-21 21-42 0z" horiz-adv-x="1044.9" />
<glyph glyph-name="uF0055" unicode="&#xe836;" d="m514 581q0-28-27-28h-55q-27 0-27 28v54q0 28 27 28h55q27 0 27-28v-54z m0-144q0-27-27-27h-55q-27 0-27 27v55q0 27 27 27h55q27 0 27-27v-55z m0-160q0-27-27-27h-55q-27 0-27 27v55q0 28 27 28h55q27 0 27-28v-55z m0-159q0-28-27-28h-55q-27 0-27 28v54q0 28 27 28h55q27 0 27-28v-54z m0-160q0-27-27-27h-55q-27 0-27 27v55q0 27 27 27h55q27 0 27-27v-55z m-164 784q0-28-27-28h-55q-27 0-27 28v54q0 28 27 28h55q27 0 27-28v-54z m0-161q0-28-27-28h-55q-27 0-27 28v54q0 28 27 28h55q27 0 27-28v-54z m0-144q0-27-27-27h-55q-27 0-27 27v55q0 27 27 27h55q27 0 27-27v-55z m0-160q0-27-27-27h-55q-27 0-27 27v55q0 28 27 28h55q27 0 27-28v-55z m0-159q0-28-27-28h-55q-27 0-27 28v54q0 28 27 28h55q27 0 27-28v-54z m0-160q0-27-27-27h-55q-27 0-27 27v55q0 27 27 27h55q27 0 27-27v-55z m-164 784q0-28-27-28h-55q-27 0-27 28v54q0 28 27 28h55q27 0 27-28v-54z m0-161q0-28-27-28h-55q-27 0-27 28v54q0 28 27 28h55q27 0 27-28v-54z m0-144q0-27-27-27h-55q-27 0-27 27v55q0 27 27 27h55q27 0 27-27v-55z m0-160q0-27-27-27h-55q-27 0-27 27v55q0 28 27 28h55q27 0 27-28v-55z m0-159q0-28-27-28h-55q-27 0-27 28v54q0 28 27 28h55q27 0 27-28v-54z m0-160q0-27-27-27h-55q-27 0-27 27v55q0 27 27 27h55q27 0 27-27v-55z m233 780v121q0 31-31 31h-357q-30 0-30-31v-398q-1-2-1-3v-466q0-61 43-104t104-43h297q61 0 103 43 43 43 43 104v207q2 6 2 9v501q0 29-29 29h-144z" horiz-adv-x="592.3" />
<glyph glyph-name="uF0056" unicode="&#xe837;" d="m1244 735q0-78-78-78h-700q-77 0-77 78v77q0 78 77 78h700q78 0 78-78v-77z m-1011 0q0-78-78-78h-77q-78 0-78 78v77q0 78 78 78h77q78 0 78-78v-77z m1011-406q0-78-78-78h-700q-77 0-77 78v78q0 77 77 77h700q78 0 78-77v-78z m-1011 0q0-78-78-78h-77q-78 0-78 78v78q0 77 78 77h77q78 0 78-77v-78z m1011-406q0-78-78-78h-700q-77 0-77 78v78q0 78 77 78h700q78 0 78-78v-78z m-1011 0q0-78-78-78h-77q-78 0-78 78v78q0 78 78 78h77q78 0 78-78v-78z" horiz-adv-x="1243.7" />
<glyph glyph-name="uF0057" unicode="&#xe838;" d="m1101 648h-970v83h970v-83z m0-644h-970v325h970v-325z m-892 886q-86 0-147-61-62-61-62-148v-627q0-86 62-147 61-62 147-62h814q87 0 148 62 61 61 61 147v627q0 87-61 148-61 61-148 61h-814z m329-735h-302v-52h302v52z" horiz-adv-x="1232.4" />
<glyph glyph-name="uF0058" unicode="&#xe839;" d="m803 466q77 83 154 171 138 158 64 232-66 66-231-76-77-66-164-147l-530 236q-31 13-53-10l-20-20q-23-23 2-44l409-351q-100-104-150-174-28-40-120-163l-132 30q-32 8-32-25v-19q0-33 27-51l59-40q-31-42-54-72-15-27 12-54 20-20 54-12 29 20 70 49l41-55q19-26 52-26h21q33 0 25 32l-30 125q107 75 151 105 74 54 189 166l345-403q22-25 45-2l19 20q23 22 10 53z" horiz-adv-x="1046.4" />
<glyph glyph-name="uF0059" unicode="&#xe83a;" d="m731 665q-246 214-570 225h-41q-50-3-84-40-34-36-36-87-1-51 32-89 33-38 83-43 11-1 31-2 22-2 30-2 353-31 530-343 70-125 78-314 3-57 42-92 38-34 94-31 54 2 90 40 35 39 34 95-3 86-14 152-54 318-299 531z m-280-276q-146 114-321 110-50-1-86-32-36-31-42-77-7-51 18-91 24-40 71-54 12-4 63-10 156-16 215-157 8-20 24-119 12-76 80-103 69-28 128 16 61 45 53 130-15 95-16 99-41 174-187 288z m-413-319q-37-38-38-92-1-55 38-93 38-39 93-38 55 0 92 37t38 92q1 55-38 94-38 38-93 38-54-1-92-38z" horiz-adv-x="1045.4" />
<glyph glyph-name="uF0060" unicode="&#xe83b;" d="m11 693q-23-87 2-203 45-211 241-401 201-195 410-233 135-26 202 9 22-2 44 11 60 35 100 86 38 47-13 82l-235 161q-42 28-71-11l-61-87q-5-7-6-17-84-47-232 101-180 180-148 267 9 2 16 7l84 64q39 30 10 71l-169 230q-37 50-82 10-49-41-83-102-12-23-9-45z m733-332q-50 8-42 57 9 66-20 98-39 42-115 36-50-3-53 46-4 50 46 54 127 6 195-67 63-67 46-181-6-43-49-43-4 0-8 0z m258-42q-50 0-47 54 14 219-98 323-105 98-310 88-50-7-56 44-7 50 43 57 236 31 392-115 146-136 130-404-3-47-51-47h-3z" horiz-adv-x="1060.5" />
<glyph glyph-name="uF0061" unicode="&#xe83c;" d="m687 176q-27 26-27 64 0 38 27 65 26 26 64 26t64-26q27-27 27-65 0-38-27-64-26-27-64-27t-64 27z m-506 216l81 161q11 21 33 21h365q23 0 33-21l81-161h-593z m-41-216q-27 26-27 64 0 38 27 65 27 26 65 26t64-26q26-27 26-65 0-38-26-64-27-27-64-27t-65 27z m762 216q0 2-1 9 1 13 1 4v424q0 61-61 61h-727q-61 0-61-61v-424q0 9 1-4-1-7-1-9h0q-25 0-41-18-15-18-11-42l43-305q9-60 69-60v-92q0-30 31-30h121q30 0 30 30v92h365v-92q0-30 30-30h122q30 0 30 30v92q61 0 69 60l44 305q4 24-12 42-15 18-40 18h-1z" horiz-adv-x="958.5" />
<glyph glyph-name="uF0062" unicode="&#xe83d;" d="m129-155v490h-129v177h129v151q-1 92 61 158t192 69q56 0 90-4t35-3l-5-164h-112q-46 0-60-21t-14-57v-129h192l-8-177h-184v-490h-187z" horiz-adv-x="507.8" />
<glyph glyph-name="uF0063" unicode="&#xe83e;" d="m783-25q0-53-39-91t-93-39h-259q-162 0-277 115t-115 276v523q0 56 38 93t93 38 93-38 38-93v-189h369q50 0 86-35t36-86-36-86-85-35h-370v-92q0-53 38-92t92-38h259q55 0 93-38t39-93z" horiz-adv-x="782.7" />
<glyph glyph-name="uF0064" unicode="&#xe83f;" d="m1210 648q-8-176-247-483-246-320-418-320-105 0-178 195l-98 359q-55 195-118 195-13 0-93-57l-58 73q90 79 177 158 119 103 179 108 141 14 173-193 36-222 49-276 41-185 90-185 38 0 114 120t81 181q11 103-81 103-44 0-90-18 90 290 342 282 188-5 176-242z" horiz-adv-x="1210.4" />
<glyph glyph-name="uF0065" unicode="&#xe840;" d="m362 890v-265h247v-164h-247v-267q0-91 9-116t36-42q35-20 79-20 79 0 158 50v-163q-67-33-121-45t-117-13q-71 0-127 18t-94 52-54 71-15 110v365h-116v149q62 20 106 57t70 90 36 133h150z" horiz-adv-x="644" />
<glyph glyph-name="uF0066" unicode="&#xe841;" d="m96 890q-41 0-68-22t-28-74v-83q6 6 13 12 65 52 133 69t128 16h321l-86-69h-93q30-25 61-71t32-122q-2-82-38-131t-85-85q-16-15-29-32t-13-43 12-41 26-25l55-42q53-42 102-96t52-131q1-43-12-75h370q40 0 68 22t28 61v606h-192v-194h-83v194h-192v81h192v193h83v-193h192v179q-1 51-28 74t-68 22h-853z m949-275v-81h1v81h-1z m-850 141q-30 0-58-13t-47-38-25-53-5-59q-1-82 43-164t141-89q29 0 56 9t46 29q21 25 30 52t8 45q0 90-47 182t-142 99z m-195-416v-270q55 38 127 43t119 6q-17 21-31 45t-14 58q0 19 4 33t10 27q-25-2-48-3-52 1-94 18t-73 43z m262-263q-12 0-60-5t-98-20q-19-6-49-22t-55-47v-55q1-40 28-61t68-22h394l4 10q2 7 2 17-2 57-56 100t-142 103q-9 1-17 2h-19z" horiz-adv-x="1045.9" />
<glyph glyph-name="uF0067" unicode="&#xe842;" d="m551 890q-32 0-56-25t-23-60 23-60 56-25 55 25 23 60-23 60-55 25z m172-163q3-20 3-51v-45h-56v-111q23 3 39 3l17-1v-2h-1v-205q0-96 24-140 31-60 115-60 59 0 102 23v114q-28-19-64-20-51 0-51 78v212h49q15 0 30-1t22-1v111h-101v47q2 27 5 49h-133z m-524-91q-78 0-134-52-58-55-58-136 0-56 32-103 28-45 66-57v-2q-37-16-37-81 0-48 38-73v-2q-106-36-106-132 0-83 71-123 56-30 142-30 213 0 213 177 0 111-165 136-37 6-56 28-15 15-15 29 0 43 45 50 70 10 114 64t44 128q0 22-9 49 30 7 46 13v117q-73-27-127-27-48 28-104 27v0z m287-5q2-21 2-74v-356q0-56-2-78h129q-2 25-2 84v352q0 50 2 72h-129z m-282-100q34 0 53-26 16-25 16-57 0-81-69-81-72 1-72 80 0 84 72 84z m7-465q98 0 97-59 0-62-88-62-101 0-101 61t92 60v0z" horiz-adv-x="966.3" />
<glyph glyph-name="uF0068" unicode="&#xe843;" d="m1001 292q6 37 6 76-5 205-142 342t-342 142q-39 0-76-6-69 43-154 44-124-3-207-86t-86-206q1-86 44-155-6-36-6-75 5-206 142-343t343-142q39 0 75 6 69-43 154-44 125 3 207 86t86 207q-1 85-44 154z m-249-145q-30-44-89-69t-140-25q-97 0-160 34-45 25-73 66t-29 80q0 24 18 40t44 16q22 0 37-13t25-37q12-29 26-48t40-31 69-13q58 0 93 25t36 62q0 30-19 48t-50 27-83 21q-72 16-119 36t-76 56-28 88 30 91 85 60 133 21q59 0 104-14t73-36 42-49 14-50-17-42-43-18-36 12-26 34q-18 35-42 53t-79 19q-50 0-81-20t-31-49q1-18 12-30t28-22 37-14l62-17q56-11 101-25t76-35 49-53 19-78q0-57-32-101z" horiz-adv-x="1044.9" />
<glyph glyph-name="uF0069" unicode="&#xe844;" d="m249-155v706h-235v-706h235z m-118 802q62 1 97 36t36 86q-1 53-36 87t-95 34-96-34-37-87q1-52 35-86t95-36h1z m247-802h235v394q0 16 1 31t6 27q14 33 43 59t77 27q64-1 92-45t27-115v-378h235v405q-2 162-77 240t-193 78q-93-3-142-42t-71-77h2v102h-235q3-88 1-378z" horiz-adv-x="1093.8" />
<glyph glyph-name="uF0070" unicode="&#xe845;" d="m782 890h-521q-111-3-184-77t-77-183v-525q3-111 77-184t184-76h521q111 3 185 76t77 184v525q-3 110-77 183t-185 77z m165-785q-3-69-49-116t-116-48h-521q-71 2-116 48t-49 116v339h207q-23-47-24-105 3-104 73-174t175-73q105 3 175 73t73 174q0 58-24 105h196v-339z m-523 234q1 44 30 73t73 29 73-29 28-73-28-72-73-29-73 29-30 72z m523 201h-277q-62 45-143 45t-144-45h-287v90q3 70 49 116t116 48h521q71-3 116-48t49-116v-90z m-105 195h-89q-13 0-21-8t-8-20v-90q0-13 8-21t21-8h89q13 0 21 8t8 21v90q0 12-8 20t-21 8z" horiz-adv-x="1043.9" />
<glyph glyph-name="uF0071" unicode="&#xe846;" d="m1030 890l-573-83v-416h573v499z m-613-90l-417-60v-349h417v409z m-417-449v-355l417-60v415h-417z m457 0v-421l573-85v506h-573z" horiz-adv-x="1030.3" />
<glyph glyph-name="uF0072" unicode="&#xe847;" d="m58 762q-25-1-41-17t-17-40v-653q1-24 17-40t41-17h1107q23 1 39 17t17 40v653q-1 23-17 40t-39 17h-1107z m-13-162h89l13-22v22h104l22-51 22 51h332q24 2 38-11v11h91v-11q24 13 57 11h130l13-22v22h98l13-22v22h94v-200h-96l-18 31v-31h-119l-12 33h-30l-13-33h-62q-37 1-55 13v-13h-148v47q0 7-5 6h-5v-53h-285v26l-10-26h-60l-10 25v-25h-114l-14 33h-29l-14-33h-59v105z m-42-172h39l13 32h71l12-32h70v112l50-112h29l50 112v-112h36v144h-58l-40-97-45 97h-57v-137l-57 137h-51z m395 144v-144h114v29h-81v30h78v30h-78v25h81v30h-114z m138 0v-144h34v52h37q18 2 24-4t6-15 0-14v-19h34v28q0 10-1 16t-5 12-16 11q8 3 15 12t8 27q0 22-15 31t-43 7h-78z m156 0v-144h35v144h-35z m122 0q-37 0-52-17-11-12-15-26t-4-30q0-38 19-55 9-9 23-12t27-4h39l13 32h71l14-32h69v108l65-108h47v144h-34v-99l-59 99h-53v-137l-58 137h-51l-48-113h-15q-15 0-25 7-8 11-8 34t9 33 26 7h33v32h-33z m-725-24l23-57h-45z m810 0l25-57h-47z m-329-6h41q10 1 17-2t7-13-7-14-17-3h-41v32z m-325-187h183l27-30 28 30h124q11 0 25-2t22-10v12h110q9 0 22-2t25-10v12h166v-12q7 6 18 9t23 3h93v-12q15 12 42 12h64v-29h-68q-27-1-38-14t-11-29q1-32 24-38t48-6q8 0 12-3t4-9-4-10-14-4h-65v-30h65q34 0 47 18v-37q-21-9-50-9h-89v12q-7-6-20-9t-27-3h-278v46q2 7-6 6h-4v-52h-92v53q-24-8-48-7h-10v-46h-112l-27 30-29-30h-180v200z m31-29v-144h134l44 47 43-47h66v48h42q23-1 41 10t18 39-18 38-39 9h-109l-43-48-42 48h-137z m404 0v-144h34v52h37q17 1 25-6 5-5 5-13v-33h35v29q0 9-1 15t-5 10q-4 9-16 13 7 2 15 12t9 26q-1 24-18 32t-41 7h-79z m156 0v-144h115v30h-80v28h78v29h-78v27h80v30h-115z m179 0q-26-1-37-14t-11-29q1-32 24-38t48-6q8 0 12-3t4-10-4-10-14-3h-67v-31h68q52 0 53 46 0 21-10 29-12 12-40 12h-18q-8 0-14 3t-6 10 5 11q4 3 14 2h62v31h-69z m-486-16v-115l-53 58z m-220-14h87l37-43-40-41h-84v28h75v29h-75v27z m254 0h44q20 1 20-17t-20-20h-44v37z m152 0h42q10 1 16-2t7-14-7-12-16-3h-42v31z m439-1h63v-42l-4 4q-9 12-39 12h-18q-7 0-12 1-8 4-8 12t4 11 14 2z" horiz-adv-x="1220.7" />
<glyph glyph-name="uF0073" unicode="&#xe848;" d="m57 762q-24-1-40-17t-17-40v-653q1-24 17-40t40-17h1107q25 1 41 17t16 40v653q0 23-16 40t-41 17h-1107z m587-217h2q42-1 68-27t27-68-27-69-68-27-69 27-27 68 27 67 67 29z m-306-3q29 0 52-20l-17-23q-13 15-29 14-23-2-24-19 0-7 5-12t21-9q29-12 39-23t11-33q0-25-17-41t-44-16q-37-2-61 33l22 22q14-24 39-24 11 0 18 7t8 18-11 17q-3 3-23 11-23 8-33 19t-9 29q0 22 15 36t38 14z m161 0q21 0 42-11v-40q-11 10-21 15t-22 4q-24 0-40-17t-17-43 16-42 42-17q24 0 42 19v-40q-22-10-43-10-40 1-66 26t-25 64 26 65 66 27z m-431-4h50q43 0 69-24t25-62q0-19-8-37t-23-29q-12-11-28-15t-35-5h-50v172z m160 0h33v-172h-33v172z m499 0h39l46-117 46 117h38l-76-178h-18z m182 0h97v-29h-63v-38h60v-29h-60v-47h63v-29h-97v172z m121 0h52q60-1 61-50 0-40-40-50l56-72h-43l-47 69h-4v-69h-35v172z m35-27v-52h9q33 1 33 27t-32 25h-10z m-962-1v-116h8q33 0 48 15 18 17 18 44 0 12-4 24t-14 18q-15 15-48 15h-8z m1103-165q0-8 1-105t-1-178q0-6-3-15t-10-18-17-12-16-5h-886q453 89 691 206t241 127z" horiz-adv-x="1220.7" />
<glyph glyph-name="uF0074" unicode="&#xe849;" d="m49 762q-21 0-35-14t-14-35v-670q0-20 14-34t35-14h1123q21 0 35 14t14 34v670q0 21-14 35t-35 14h-1123z m680-228q46-2 70-13l-12-65-7 3q-10 5-24 8t-33 3q-22 0-33-8t-11-18 11-19 33-17q65-33 63-81t-36-77-97-28q-26 1-48 5t-38 11l12 68 9-5q19-8 35-12t38-3q17 0 31 6t15 22q0 11-9 18t-32 19-44 31-22 51q1 45 36 72t93 29z m-622-11h125q12 0 21-5t14-19l26-137v0l9-41 74 202h82l-121-296h-82l-65 239q30-16 54-34t37-43q-8 16-20 34-8 11-19 21l-20 17q-22 18-52 33t-63 24v5z m382 0h80l-49-296h-79z m450 0h60l63-296h-72l-10 43h-100l-16-43h-81l115 272q12 26 41 24z m6-80q-4-9-7-18l-35-92h65z" horiz-adv-x="1220.7" />
<glyph glyph-name="uF0075" unicode="&#xe84a;" d="m58 762q-25-1-41-17t-17-39v-653q1-25 17-41t41-17h1107q23 1 39 17t17 41v653q-1 23-17 39t-39 17h-1107z m342-93q53 0 100-16t85-49q-65-57-90-142h24q23 70 75 119 53-49 75-119h25q-26 85-90 142 38 31 85 48t99 17q125-4 208-86t86-206q-4-124-86-207t-208-86q-53 0-101 19t-85 49q69 60 94 153h-25q-20-77-77-130-55 53-78 130h-22q11-45 35-83t58-68q-39-32-86-49t-101-17q-124 3-206 85t-87 205q4 125 87 207t206 84z m367-205q-28 0-48-23t-22-65q0-29 14-46t41-17q8 0 17 2l10 1 5 33-9-3q-7-4-16-4-16 0-23 10t-7 24q0 28 12 42t27 14q12 0 19-3l9-6 5 33-11 4q-11 4-23 4z m295-2h-31l-6-41q0 1-7 8t-22 8q-22-1-36-22t-15-50q0-19 9-34t29-15q13 1 20 6t8 7l-1-11h29z m-875-2l-24-143h29l18 109 4-109h20l39 109-17-109h31l25 143h-50l-29-87-1 87h-45z m307-8q-2-6-9-51t-9-60q2-27 23-26 16 1 23 3h1l3 26-8-1q-7 0-9 4t-3 5l9 53h16l5 29h-16l3 18h-29z m354-15q-16 0-25-3l-11-4-5-26 10 3q8 2 23 2 8 0 14-2t6-8q0-8-2-8l-12 1q-21 0-37-10t-16-35q1-20 10-26t18-7q16 1 24 7l7 6-1-11h27l11 85q-1 25-17 31t-24 5z m-492 0q-17 0-26-3l-11-4-5-26 9 3q9 2 24 2 9 0 14-2t5-8q0-8-1-8l-12 1q-21 0-37-10t-17-35q1-20 11-26t19-7q15 1 22 7t8 6l-2-11h27l12 85q-2 25-17 31t-23 5z m92 0q-17 0-30-9t-14-30q3-24 18-30t19-16q0-8-6-9t-13-1q-11 0-19 2l-7 2-4-26 8-2q8-2 26-2 8-1 25 4t20 34q-2 27-18 32t-18 13q0 11 17 10l20-1 4 27q-1 1-28 2z m138 0q-23-1-38-21t-15-51 17-41 36-10q16 0 24 2l8 2 5 30-10-4q-10-3-22-3-24 1-26 12t-1 12h61l2 11q3 10 3 16 0 16-9 30t-35 15z m111-1q-9-1-17-9t-8-9l5 17h-30l-20-119h32q6 39 12 64t21 21q3 14 6 21t5 13q0 1-6 1z m256 0q-10-1-16-9t-7-9l3 17h-28l-20-119h32q6 39 11 64t21 21q2 14 5 21t6 13q0 1-7 1z m-367-26q12-1 14-9t1-11h-35q0 2 4 11t16 9z m414-2q18 1 17-24 0-13-6-25t-18-13q-16 1-16 23 0 18 6 29t17 10z m-152-40h6 1q0-6-5-18t-16-13q-7 0-10 5t-3 7q0 8 6 13t21 6z m-492 0h5q2-7-3-18t-18-13q-7 0-9 5t-2 7q0 8 5 13t22 6z" horiz-adv-x="1220.7" />
<glyph glyph-name="uF0076" unicode="&#xe84b;" d="m1044 533q0 1 0 2v4q-1 0-1 2l-1 3-2 2-2 4-1 2-2 2q0 1-1 2t-2 2l-5 4-2 1q0 1-1 1l-477 319q-11 7-24 7t-25-7l-478-319 0 0t-2-2-3-2l-4-4-2-2-2-2-1-2-2-4q0-2 0-2t-2-3v-2q-1-3-1-4t-1-2v-330q1-1 1-2t1-4v-2q1-2 1-4 1 0 2-2t1-3 1-2l2-2 2-2q2-2 2-3l2-2q2 0 3-1t2-1 0-2l478-319q12-7 24-7t25 7l480 321q2 2 3 2l4 5q1 1 2 2t2 2 1 2 1 3l2 2 1 4 1 2v4l0 2v330z m-476 228l351-234-157-105-194 130v209z m-90 0v-209l-195-130-157 105z m-388-318l112-75-112-76v151z m388-469l-352 235 157 105 195-130v-210z m45 288l-159 106 159 106 158-106z m45-288v210l194 130 157-105z m387 318l-113 76 113 75v-151z" horiz-adv-x="1044.4" />
<glyph glyph-name="uF0077" unicode="&#xe84c;" d="m763 115h-48v29q0 28 24 28 24 0 24-28v-29z m55-73h-55l1-13q1-11 0-15l-3-13q-3-8-8-11-5-2-15-2-10-1-15 6-5 6-6 12-2 6-2 18v50h103v67q0 37-20 57-20 21-56 21t-59-21q-23-20-24-57v-118q0-38 21-61 21-23 57-22 81 0 81 83v19z m-50 732v-327h-67v37q-39-41-77-41-48 0-48 58v273h67v-251q0-22 18-22 18 0 40 25v248h67z m-205-766q0-22-19-22-15 0-26 11v166q10 10 23 10 22 0 22-26v-139z m55 141q0 66-52 66-26 0-48-24v115h-55v-358h55v21q23-25 51-25 49 0 49 59v146z m-166 553q0 10-10 18-9 7-20 6-10-1-19-6t-8-18v-179q0-27 28-27t29 27v179z m68-173q0-44-26-67-27-23-71-23t-70 25-27 66v169q0 41 29 63t70 21 67-23q28-24 28-62v-169z m-164-581h54v264h-54v-201q-18-19-32-19t-14 17v203h-54v-223q0-46 38-46 31 0 62 34v-29z m-104 942h77l-57-172q-5-13-11-29t-10-29l-9-29v-184h-75v176q-2 12-31 88l-59 179h76l48-177h6z m-59-636h64v52h-188v-52h63v-306h61v306z m693-288q-4-52-39-83t-90-33q-103-5-311-5t-311 5q-52 2-88 33-35 30-41 83-6 101-6 152 0 51 6 151 4 53 41 84 37 31 88 32 103 6 311 6t311-6q53-2 90-32t39-84q7-100 7-151 0-51-7-152z" horiz-adv-x="892.6" />
<glyph glyph-name="uF0078" unicode="&#xe84d;" d="m42 285q-84 83 0 166l84 85 314 313q84 83 168 0 83-84 0-167l-230-231q-84-83 0-167l230-230q83-83 0-167-84-83-168 0l-314 314z" horiz-adv-x="649.9" />
<glyph glyph-name="uF0079" unicode="&#xe84e;" d="m273 284q83 84 0 167l-231 231q-84 83 0 167 84 83 167 0l314-313 85-85q83-83-1-166l-398-398q-83-83-167 0-84 84 0 167z" horiz-adv-x="648.9" />
<glyph glyph-name="uF0080" unicode="&#xe84f;" d="m534 541q-25 20-50 0l-341-284q-25-21-25-53v-326q0-33 33-33h227v326q0 65 66 65h130q65 0 65-65v-326h228q32 0 32 33v326q0 32-24 53z m378-188l-379 324q-10 11-24 11t-24-10l-379-325-106 124 456 391q53 45 106 0l456-391z" horiz-adv-x="1017.6" />
<glyph glyph-name="uF0081" unicode="&#xe850;" d="m457 498q0-65-65-65h-327q-65 0-65 65v327q0 65 65 65h327q65 0 65-65v-327z m588 0q0-65-65-65h-327q-65 0-65 65v327q0 65 65 65h327q65 0 65-65v-327z m-588-588q0-65-65-65h-327q-65 0-65 65v327q0 65 65 65h327q65 0 65-65v-327z m588 0q0-65-65-65h-327q-65 0-65 65v327q0 65 65 65h327q65 0 65-65v-327z" horiz-adv-x="1044.9" />
<glyph glyph-name="uF0082" unicode="&#xe851;" d="m261 694q0-65-65-65h-131q-65 0-65 65v131q0 65 65 65h131q65 0 65-65v-131z m392 0q0-65-65-65h-131q-65 0-65 65v131q0 65 65 65h131q65 0 65-65v-131z m392 0q0-65-65-65h-131q-65 0-65 65v131q0 65 65 65h131q65 0 65-65v-131z m-784-392q0-65-65-65h-131q-65 0-65 65v131q0 65 65 65h131q65 0 65-65v-131z m392 0q0-65-65-65h-131q-65 0-65 65v131q0 65 65 65h131q65 0 65-65v-131z m392 0q0-65-65-65h-131q-65 0-65 65v131q0 65 65 65h131q65 0 65-65v-131z m-784-392q0-65-65-65h-131q-65 0-65 65v131q0 65 65 65h131q65 0 65-65v-131z m392 0q0-65-65-65h-131q-65 0-65 65v131q0 65 65 65h131q65 0 65-65v-131z m392 0q0-65-65-65h-131q-65 0-65 65v131q0 65 65 65h131q65 0 65-65v-131z" horiz-adv-x="1044.9" />
<glyph glyph-name="uF0083" unicode="&#xe852;" d="m1115 751q0-70-70-70h-975q-70 0-70 70v69q0 70 70 70h975q70 0 70-70v-69z m0-418q0-70-70-70h-975q-70 0-70 70v69q0 70 70 70h975q70 0 70-70v-69z m0-418q0-70-70-70h-975q-70 0-70 70v69q0 70 70 70h975q70 0 70-70v-69z" horiz-adv-x="1114.7" />
<glyph glyph-name="uF0084" unicode="&#xe853;" d="m65 890q-65 0-65-65v-327q0-65 65-65h327q65 0 65 65v327q0 65-65 65h-327z m262-327h-196v197h196v-197z m718-65q0-65-65-65h-327q-65 0-65 65v327q0 65 65 65h327q65 0 65-65v-327z m-588-588q0-65-65-65h-327q-65 0-65 65v327q0 65 65 65h327q65 0 65-65v-327z m588 0q0-65-65-65h-327q-65 0-65 65v327q0 65 65 65h327q65 0 65-65v-327z" horiz-adv-x="1044.9" />
<glyph glyph-name="uF0085" unicode="&#xe854;" d="m1115 751q0-70-70-70h-627q-70 0-70 70v69q0 70 70 70h627q70 0 70-70v-69z m0-418q0-70-70-70h-627q-70 0-70 70v69q0 70 70 70h627q70 0 70-70v-69z m0-418q0-70-70-70h-627q-70 0-70 70v69q0 70 70 70h627q70 0 70-70v-69z m-906 836q0-70-70-70h-69q-70 0-70 70v69q0 70 70 70h69q70 0 70-70v-69z m0-418q0-70-70-70h-69q-70 0-70 70v69q0 70 70 70h69q70 0 70-70v-69z m0-418q0-70-70-70h-69q-70 0-70 70v69q0 70 70 70h69q70 0 70-70v-69z" horiz-adv-x="1114.7" />
<glyph glyph-name="uF0086" unicode="&#xe855;" d="m222 243q-89 88-89 213 0 124 89 212 88 89 212 89 124 0 213-89t88-212q0-125-88-213-88-88-213-88t-212 88z m637-58q-25 26-65 28 74 110 74 243 0 180-127 307-127 127-307 127t-307-127q-127-127-127-307 0-180 127-308 127-127 307-127 141 0 256 84 3-37 28-62l166-166q70-64 142 0 31 27 30 69t-30 73z" horiz-adv-x="1056.6" />
<glyph glyph-name="uF0087" unicode="&#xe856;" d="m617 449q0-35-35-35h-106v-106q0-36-35-36h-70q-36 0-36 36v106h-105q-35 0-35 35v70q0 35 35 35h105v106q0 35 36 35h70q35 0 35-35v-106h106q35 0 35-35v-70z m177-211q-18 18-48 25 66 101 66 221 0 168-119 287-119 119-287 119-168 0-287-119-119-119-119-287t119-287q119-119 287-119 117 0 217 63 7-31 25-49l214-214q72-66 146 0 32 28 31 72 0 43-31 74z" horiz-adv-x="1039.6" />
<glyph glyph-name="uF0088" unicode="&#xe857;" d="m617 449q0-35-35-35h-352q-35 0-35 35v70q0 35 35 35h352q35 0 35-35v-70z m177-211q-18 18-48 25 66 101 66 221 0 168-119 287-119 119-287 119-168 0-287-119-119-119-119-287t119-287q119-119 287-119 117 0 217 63 7-31 25-49l214-214q72-66 146 0 32 28 31 72 0 43-31 74z" horiz-adv-x="1039.6" />
<glyph glyph-name="uF0089" unicode="&#xe858;" d="m620 329q-19-7-26-13-4-7-6-43 0-38-62-38h-21q-36 0-44 17-4 10-4 61v-3q0 106 70 125l9 4q96 25 96 81 0 65-91 65-80 0-89-52-9-51-72-51-45 2-57 21-8 14-8 39 0 76 80 121 64 36 134 36h7q105 0 169-54 65-55 65-147 0-101-133-163-4-2-17-6z m-197-232q0 99 100 99 99 0 99-99t-99-99q-100 0-100 99z m-270 640q-153-153-153-369t153-370q153-153 370-153t369 153q153 153 153 370t-153 369q-153 153-369 153t-370-153z" horiz-adv-x="1044.9" />
<glyph glyph-name="uF0090" unicode="&#xe859;" d="m428 584q0 43 31 75 31 31 75 31 106 0 106-106 0-107-106-107t-106 107z m7-547q-33 0-33 33 0 7 3 13l43 219h-53q-33 0-33 32 0 34 33 34h212q34 0 34-66h0l-45-199h52q33 0 33-33 0-33-33-33h-213z m-282 700q-153-153-153-369t153-370q153-153 370-153t369 153q153 153 153 370t-153 369q-153 153-369 153t-370-153z" horiz-adv-x="1044.9" />
<glyph glyph-name="uF0091" unicode="&#xe85a;" d="m415 70q0 102 102 102 102 0 102-102t-102-102q-102 0-102 102z m78 525h49q38 0 56-20 23-24 20-56l-14-199q-6-80-87-80t-87 81l-14 198q-2 32 20 56 19 20 57 20z m149 195q-52 100-125 100-74 0-125-100l-364-703q-51-99-8-171t156-71h682q113 0 156 71t-8 171z" horiz-adv-x="1033.7" />
<glyph glyph-name="uF0092" unicode="&#xe85b;" d="m674 115q-2 1-9 8-69-33-150-33-73 0-138 29-5-6-12-8-295-86-342-163-32-52-19-103h1037q6 42-14 103-11 34-353 167z m-159 106q-218 0-259 326-17 138 66 242 79 101 193 101 115 0 200-101 88-106 67-242-49-326-267-326z" horiz-adv-x="1046.9" />
<glyph glyph-name="uF0093" unicode="&#xe85c;" d="m886-153l-69 1q-53 0-91 45-37 43-37 99-87 0-122 93 1 0-51 0-68 0-138 32-4-4-12-7-295-86-342-163-32-52-21-102h1045q-1 34-21 94 1-1-18 15-32-107-123-107z m-125 604q15 50 22 96 21 136-67 242-85 101-200 101-113 0-193-101-82-104-65-242 41-326 258-326 19 0 44 5 19 109 129 109 0 80 72 116z m157-214v98q0 33-33 33h-66q-32 0-32-33v-98h-98q-33 0-33-32v-66q0-33 33-33h98v-98q0-32 32-32h66q33 0 33 32v98h97q33 0 33 33v66q0 32-33 32h-97z" horiz-adv-x="1047.9" />
<glyph glyph-name="uF0094" unicode="&#xe85d;" d="m689-90q-54 0-109 55t-55 109v18q0-3-25-3-65 0-130 30-8-7-9-8-291-85-339-163-32-52-17-103h1037q5 24-14 83-2 0-6-9-4-9-7-9h-326z m-173 311q-218 0-259 326-17 138 66 242 79 101 193 101 115 0 199-101 89-106 68-242-49-326-267-326z m532-147q0-33-33-33h-326q-33 0-33 33v65q0 33 33 33h326q33 0 33-33v-65z" horiz-adv-x="1047.9" />
<glyph glyph-name="uF0095" unicode="&#xe85e;" d="m704 241q-47-46-113-46-66 0-112 46t-46 112q0 66 46 112t112 47q66 0 113-47 46-46 46-112 0-65-46-112z m-334-110q-92 92-92 222 0 130 92 222t221 92 222-92 92-222q0-130-92-222t-222-91-221 91z m-370 222q43-105 137-211 190-211 454-211t454 211q96 106 138 211-42 106-138 211-189 212-454 212-359 0-591-423z" horiz-adv-x="1182.6" />
<glyph glyph-name="uF0096" unicode="&#xe85f;" d="m438 316q-6 24-6 37 0 65 47 112 46 47 112 47 12 0 36-6l118 118q-74 42-154 42-130 0-222-91t-92-222q0-81 43-155z m-239-449q-22-22-52-22t-53 22q-52 52 0 105l107 108q-139 121-201 273 58 105 161 211 206 211 430 211 133 0 249-56l145 145q53 52 105 0 53-53 0-105z m407 329q129 12 142 142z m438-54q-190-211-453-211-98 0-192 32l93 94q52-17 99-17 129 0 221 91t92 222q0 46-17 98l135 136q110-113 159-234-42-105-137-211z" horiz-adv-x="1181.2" />
<glyph glyph-name="uF0097" unicode="&#xe860;" d="m164 748q-164-136-164-293 0-211 260-345-44-138-143-238-13-12-9-22 5-10 44-1 147 35 346 189 33-4 62-4 209 0 382 129 177 130 177 292 0 155-164 291-173 144-395 144-224 0-396-142z" horiz-adv-x="1118.7" />
<glyph glyph-name="uF0098" unicode="&#xe861;" d="m703 430q0 107 107 107t107-107q0-106-107-106t-107 106z m-238 0q0 107 107 107t107-107q0-106-107-106t-107 106z m-244 0q0 107 107 107t107-107q0-106-107-106t-107 106z m-57 318q-164-136-164-293 0-211 260-345-44-138-143-238-13-12-9-22 5-10 44-1 147 35 346 189 33-4 62-4 209 0 382 129 177 130 177 292 0 155-164 291-173 144-395 144-224 0-396-142z" horiz-adv-x="1118.7" />
<glyph glyph-name="uF0099" unicode="&#xe862;" d="m618 364q15-10 29-10 11 0 24 9l603 427q-41 100-148 100h-965q-108 0-149-100z m147-132q-50-38-118-38-64 0-120 37l-527 371v-596q0-67 47-114 48-47 114-47h965q66 0 113 47 47 47 47 114v595z" horiz-adv-x="1286.1" />
<glyph glyph-name="uF0100" unicode="&#xe863;" d="m832 337q-77-76-189-76t-187 75l-345 344q-50 49 0 99t99 0l353-352q81-81 163 1l350 351q50 50 99 0t0-99z m294-402q-30 0-50 21l-211 210q-50 51 0 100 50 50 100 0l210-210q50-50 0-100-21-21-49-21z m-916 21q-20-21-49-21-29 0-50 21-50 50 0 100l211 210q49 50 99 0 50-49 0-100z m-92 934q-118 0-118-118v-809q0-118 118-118h1051q117 0 117 118v809q0 118-117 118h-1051z" horiz-adv-x="1286.1" />
<glyph glyph-name="uF0101" unicode="&#xe864;" d="m625 190q-41-31-97-31-31 0-98 31l-430 274v-488q0-54 39-92t92-39h788q54 0 93 39t38 92v487z m-44 683q-56 35-111 0l-414-270q-56-35 0-69l141-89v123h657v-123l141 89q55 34 0 69z m109-502h-329q-33 0-33 33 0 33 33 33h329q32 0 32-33 0-33-32-33z m-66-131h-197q-33 0-33 32 0 34 33 34h197q32 0 32-34 0-32-32-32z" horiz-adv-x="1050.3" />
<glyph glyph-name="uF0102" unicode="&#xe865;" d="m373-24l22 138q-68 38-68 111 0 54 38 92 39 37 93 37 55 0 93-36 38-38 38-91 0-76-68-113l20-138h-168z m84 784q82 0 128-53 74-83 71-274h-398q0 192 76 276 45 51 123 51z m330-327q3 240-104 361-86 96-226 96-136 0-221-94-108-120-108-363h-63q-65 0-65-65v-458q0-65 65-65h784q65 0 65 65v458q0 65-65 65h-62z" horiz-adv-x="914.1" />
<glyph glyph-name="uF0103" unicode="&#xe866;" d="m541-24h-168l22 138q-68 38-68 111 0 54 38 92 39 37 93 37 55 0 93-36 38-38 38-91 0-76-68-113z m-280 457q0 192 75 276 46 51 124 51 147 0 186-183 14-65 78-51 64 14 50 78-62 286-314 286-136 0-221-94-108-120-109-363h-65q-65 0-65-65v-458q0-65 65-65h784q65 0 65 65v458q0 65-65 65h-588z" horiz-adv-x="914.1" />
<glyph glyph-name="uF0104" unicode="&#xe867;" d="m350 366q1 69 50 118 49 49 119 49 69 0 118-50t49-118q0-70-49-119-50-49-119-49-70 1-119 50-49 49-49 119z m351-337q12 6 23-1l109-62q11-7 21 2 18 15 32 28 13 14 29 32 8 10 2 21l-62 109q-7 11-1 23l32 75q4 13 16 16l121 33q13 3 14 16v86q-1 13-14 16l-120 33q-12 4-17 16l-31 75q-6 12 1 24l62 108q6 11-2 21-16 19-29 32t-31 29q-10 8-21 2l-109-62q-12-6-23 0l-76 31q-12 4-16 17l-32 124q-5 17-16 17h-86q-12 0-17-17l-33-122q-4-14-16-18l-76-31q-11-6-22 1l-109 62q-12 6-21-2-18-16-32-29-13-14-29-32-8-10-2-21l62-109q7-11 1-23l-32-75q-4-13-17-16l-120-32q-13-4-14-17v-85q1-14 13-17l121-33q12-4 16-16l32-75q6-12-1-23l-62-109q-7-11 2-21 15-18 28-32 14-13 32-28 10-9 21-3l109 62q11 7 23 1l76-32q12-4 15-17l33-121q3-15 16-15h86q12 0 16 14l34 121q3 13 16 17z" horiz-adv-x="1036.6" />
<glyph glyph-name="uF0105" unicode="&#xe868;" d="m392-57q0-98 98-98t98 98q0 98-98 98t-98-98z m327 0q0-98 98-98 98 0 98 98 0 98-98 98-98 0-98-98z m-352 686l-41 208q-11 53-65 53h-196q-65 0-65-65 0-65 65-65h143l120-605q9-49 64-49h492q37 0 53 64 17 67-41 67h-450l-16 65h485q65 0 76 53l47 226q11 48-49 48h-622z" horiz-adv-x="1039.6" />
<glyph glyph-name="uF0106" unicode="&#xe869;" d="m392-57q0-98 98-98 98 0 98 98 0 98-98 98-98 0-98-98z m326 0q0-98 98-98t99 98q0 98-99 98t-98-98z m256 471q-40-46-92-46h-66q-52 0-92 46-38 45-38 101-97 0-126 114h-193l-42 208q-10 53-64 53h-196q-65 0-65-65 0-65 65-65h143l120-605q9-49 64-49h491q37 0 53 64 17 67-40 67h-451l-15 65h485q64 0 75 53l37 169q-3 0-7-5-5-4-8-4 0-56-38-101z m-59 346v97q0 33-33 33h-66q-32 0-32-33v-97h-98q-33 0-33-33v-65q0-33 33-33h98v-98q0-33 32-33h66q33 0 33 33v98h97q33 0 33 33v65q0 33-33 33h-97z" horiz-adv-x="1044.9" />
<glyph glyph-name="uF0107" unicode="&#xe86a;" d="m1002 333q53 26 50 86-3 48-48 72-45 24-281 12 13 133 16 152 13 83 13 88 6 150-95 147-64-2-64-110 0-61-77-187-67-110-71-157-6-70-105-82-5-20 0-458 70-16 110-20 31-4 60-12 28-8 46-10 184-17 272-1 91 17 112 35 59 53 10 117 94 9 94 80 0 61-59 87 85-1 90 71 6 67-73 90z m-1002-430h203v474h-203v-474z" horiz-adv-x="0" />
<glyph glyph-name="uF0108" unicode="&#xe86b;" d="m0 832h203v-474h-203v474z m1044-182q0 71-94 80 49 64-10 117-21 18-112 35-88 16-272-1-18-2-46-10-29-8-60-12-40-4-110-20-5-438 0-458 99-11 105-82 4-47 71-157 77-126 77-187 0-108 64-110 101-3 95 147 0 5-13 89-3 18-16 151 236-12 281 13 45 24 48 71 3 60-50 86 79 23 73 91-5 71-90 70 59 26 59 87z" horiz-adv-x="1080.6" />
<glyph glyph-name="uF0109" unicode="&#xe86c;" d="m836 877q-126-33-182-130-9-16-26-44l-1-2q-17 28-25 44-57 97-183 130-129 35-248-22-118-55-157-195-37-135 22-259 100-212 591-554l1 2q492 342 591 553 59 125 22 260-39 139-157 195-119 57-248 22z" horiz-adv-x="1255.9" />
<glyph glyph-name="uF0110" unicode="&#xe86d;" d="m625 208q0 62 56 102 52 37 122 37 0 62 56 102 52 36 122 36h79q139 0 156-116 1 2 4 11 2 10 3 12 59 125 22 262-39 142-158 198-119 57-248 23-127-33-183-129-9-16-26-43l-1-1q-17 28-26 44-56 97-183 131-129 35-248-22-119-56-158-195-37-136 22-260 100-212 593-555l1 2q54 51 150 126-155 22-155 156v79z m475 40v119q0 39-40 39h-79q-40 0-40-39v-119h-119q-39 0-39-40v-79q0-40 39-40h119v-118q0-40 40-40h79q40 0 40 40v118h118q40 0 40 40v79q0 40-40 40h-118z" horiz-adv-x="1257.3" />
<glyph glyph-name="uF0111" unicode="&#xe86e;" d="m625 208q0 119 197 119h381q5 48 11 53 12 9 9 2 59 125 22 264-39 145-158 201-120 57-248 25-127-32-183-129-9-16-26-41l-1-1q-17 29-26 45-56 97-183 131-129 35-248-22-119-56-158-195-37-136 22-260 100-212 593-555l1 2q54 51 150 126-155 22-155 156v79z m633-79q0-40-40-40h-396q-39 0-39 40v79q0 40 39 40h396q40 0 40-40v-79z" horiz-adv-x="1258.8" />
<glyph glyph-name="uF0112" unicode="&#xe86f;" d="m656 747q-9-16-26-44l-1-1q-17 28-26 43-83 144-277 144-81 0-154-35-119-56-157-195-38-135 21-260 100-211 593-554l1 2q493 342 593 554 59 124 22 260-39 139-158 195-72 34-154 34-194 0-277-143z m364-34q47-23 68-81 30-84-8-163-67-141-452-429-382 286-449 427-38 80-8 164 21 58 68 80 41 19 87 19 103 0 141-65l26-34q39-67 131-67h5q90 0 131 59 1 1 4 2 2 1 3 3l26 42q36 62 140 62 47 0 87-19z" horiz-adv-x="1258.8" />
<glyph glyph-name="uF0113" unicode="&#xe870;" d="m1055 520l-316 51-137 289q-14 30-46 30-32 1-47-28l-146-285-318-40q-31-5-42-35-10-30 13-53l225-227-59-315q-6-32 20-51 25-19 54-5l286 144 292-141q12-6 25-6 16 0 30 10 26 18 21 50l-60 304 233 219q23 23 13 53t-41 36z" horiz-adv-x="1099.6" />
<glyph glyph-name="uF0114" unicode="&#xe871;" d="m564 890q-35 0-46-21l-149-285-323-40q-32-4-43-34-10-31 13-54l229-229-60-320q-6-32 20-52 14-10 31-10 13 0 24 6l291 146 297-143q12-6 25-6 17 0 30 9 27 19 22 51l-61 308 237 223q24 23 14 54-9 31-42 36l-321 52-140 286q-10 23-46 23h-2z m-2-234l64-134 31-66 72-12 148-24-109-102-56-53 15-76 27-135-142 69-63 30-61-31-133-67 27 146 14 72-52 52-105 105 148 19 73 9 33 66z" horiz-adv-x="1117.7" />
<glyph glyph-name="uF0115" unicode="&#xe872;" d="m294 433q-33 0-33-33v-65q0-33 33-33h65q33 0 33 33v65q0 33-33 33h-65z m196 0q-33 0-33-33v-65q0-33 33-33h65q33 0 33 33v65q0 33-33 33h-65z m196 0q-33 0-33-33v-65q0-33 33-33h65q33 0 33 33v65q0 33-33 33h-65z m-392-196q-33 0-33-32v-66q0-33 33-33h65q33 0 33 33v66q0 32-33 32h-65z m196 0q-33 0-33-32v-66q0-33 33-33h65q33 0 33 33v66q0 32-33 32h-65z m196 0q-33 0-33-32v-66q0-33 33-33h65q33 0 33 33v66q0 32-33 32h-65z m229-196q0-65-66-65h-653q-65 0-65 65v588q0 65 65 65h65v-32q0-33 33-33h65q33 0 33 33v32h261v-32q0-33 33-33h65q33 0 33 33v32h65q66 0 66-65v-588z m-131 784v32q0 33-33 33h-65q-33 0-33-33v-32h-261v32q0 33-33 33h-65q-33 0-33-33v-32h-65q-81 0-138-58-58-57-58-138v-588q0-81 58-138t138-58h653q81 0 138 58t58 138v588q0 81-58 138-57 58-138 58h-65z" horiz-adv-x="1044.9" />
<glyph glyph-name="uF0116" unicode="&#xe873;" d="m15 693q-77-295 243-604 201-195 410-233 135-26 203 9 21-2 43 11 60 35 100 86 38 47-13 82l-235 161q-42 28-71-11l-61-87q-5-7-7-17-82-48-231 101-180 180-148 267 9 2 16 8l84 63q39 30 9 72l-168 229q-37 50-83 11-48-42-82-103-13-22-9-45z m734-332q-51 8-43 57 9 66-20 98-39 42-114 36-50-3-54 47-4 50 46 54 127 6 195-68 63-66 47-181-7-43-50-43-4 0-7 0z m258-42q-51 0-47 54 13 219-99 324-108 101-310 88-50-7-56 43t43 57q237 30 392-115 147-136 131-404-3-47-51-47h-3z" horiz-adv-x="1062.5" />
<glyph glyph-name="uF0117" unicode="&#xe874;" d="m653 155q0-49-49-49h-424q-49 0-49 49v555q0 50 49 50h424q49 0 49-50v-555z m-310-245q-65 0-65 66 0 65 65 65h97q66 0 66-65 0-66-66-66h-97z m-147 980q-81 0-138-58t-58-138v-653q0-81 58-138t138-58h392q81 0 138 58t58 138v653q0 81-58 138t-138 58h-392z" horiz-adv-x="783.7" />
<glyph glyph-name="uF0118" unicode="&#xe875;" d="m653 416q0-48-49-48h-424q-49 0-49 48v164q0 49 49 49h424q49 0 49-49v-164z m0-211q0-33-32-33h-66q-32 0-32 33v64q0 33 32 33h66q32 0 32-33v-64z m0-197q0-32-32-32h-66q-32 0-32 32v66q0 32 32 32h66q32 0 32-32v-66z m-196 197q0-33-33-33h-65q-32 0-32 33v64q0 33 32 33h65q33 0 33-33v-64z m0-197q0-32-33-32h-65q-32 0-32 32v66q0 32 32 32h65q33 0 33-32v-66z m-196 197q0-33-32-33h-66q-32 0-32 33v64q0 33 32 33h66q32 0 32-33v-64z m0-197q0-32-32-32h-66q-32 0-32 32v66q0 32 32 32h66q32 0 32-32v-66z m392 752v65q0 65-65 65t-65-65v-65h-327q-81 0-138-58t-58-139v-522q0-81 58-138t138-58h392q81 0 138 58t58 138v522q0 139-133 185 2 12 2 12z" horiz-adv-x="783.7" />
<glyph glyph-name="uF0119" unicode="&#xe876;" d="m408 753q-42-34-75-98-22 7-39 7h-147q-61 0-104-44-43-43-43-103v-294q0-61 43-104 43-43 104-43h147q17 0 39 6 33-64 75-98l138-111q47-37 81-21t33 77v882q0 60-33 76t-81-21z m385-568q-36 42 6 78 52 45 54 95 1 67-56 116-40 38-3 78 38 40 78 3 92-87 90-200-2-99-91-176-16-14-36-14-26 0-42 20z" horiz-adv-x="964.4" />
<glyph glyph-name="uF0120" unicode="&#xe877;" d="m408 753q-43-34-75-98-22 7-39 7h-147q-61 0-104-44-43-43-43-103v-294q0-61 43-104 43-43 104-43h147q17 0 39 6 32-64 75-98l137-111q48-37 82-21t33 77v882q0 60-33 76t-82-21z m369-568q-36 42 6 78 52 45 53 95 2 67-55 116-40 38-2 78 37 41 77 3 93-87 90-200-2-99-91-176-16-14-36-14-25 0-42 20z m126-188q-27 48 21 75 140 79 140 287 0 225-140 304-48 27-21 75 27 48 75 21 195-110 195-400 0-273-195-383-13-7-27-7-32 0-48 28z" horiz-adv-x="1173.3" />
<glyph glyph-name="uF0121" unicode="&#xe878;" d="m409 753q-43-34-76-97-21 6-39 6h-147q-61 0-104-43-43-44-43-104v-294q0-61 43-104 43-43 104-43h147q18 0 39 6 33-64 76-98l138-111q47-37 81-21t34 77v882q0 60-34 76t-81-21z m625-385l108 108q39 39 0 78t-78 0l-108-108-108 108q-39 39-78 0t0-78l107-108-107-108q-39-39 0-78 16-17 39-17t39 17l108 108 108-108q16-17 39-17t39 17q39 39 0 78z" horiz-adv-x="1161.6" />
<glyph glyph-name="uF0122" unicode="&#xe879;" d="m573 420q60-52 0-105l-513-449q-60-52-60 27v949q0 79 60 28z" horiz-adv-x="603.5" />
<glyph glyph-name="uF0123" unicode="&#xe87a;" d="m261-68q0-87-87-87h-87q-87 0-87 87v871q0 87 87 87h87q87 0 87-87v-871z m610 0q0-87-87-87h-88q-87 0-87 87v871q0 87 87 87h88q87 0 87-87v-871z" horiz-adv-x="870.6" />
<glyph glyph-name="uF0124" unicode="&#xe87b;" d="m1045 19q0-71-51-123t-123-51h-697q-71 0-123 51t-51 123v697q0 72 51 123t123 51h697q71 0 123-51t51-123v-697z" horiz-adv-x="1044.9" />
<glyph glyph-name="uF0125" unicode="&#xe87c;" d="m534 870q-59 51-59-28v-336l-415 364q-60 51-60-28v-949q0-79 60-27l415 363v-336q0-79 59-27l514 449q60 53 0 105z" horiz-adv-x="1078.6" />
<glyph glyph-name="uF0126" unicode="&#xe87d;" d="m604 506v336q0 79-60 28l-514-450q-60-52 0-105l514-449q60-52 60 27v336l415-363q59-52 59 27v949q0 79-59 28z" horiz-adv-x="1078.1" />
<glyph glyph-name="uF0127" unicode="&#xe87e;" d="m588 106v-65q0-65-65-65h-327q-65 0-65 65v261q0 66 65 66v130q-81 0-138-57t-58-139v-261q0-81 58-138t138-58h327q81 0 138 58 57 57 57 138v65h-130z m-65 784q-82 0-139-58-57-57-57-138v-261q0-81 57-139 57-57 139-57h326q81 0 138 57 58 58 58 139v261q0 81-58 138t-138 58h-326z m326-130q66 0 66-66v-261q0-65-66-65h-326q-66 0-66 65v261q0 66 66 66h326z" horiz-adv-x="1044.9" />
<glyph glyph-name="uF0128" unicode="&#xe87f;" d="m621 890q-34 0-10-24l147-147-164-210q-20-26 3-49l19-19q23-24 49-4l210 165 147-147q23-23 23 9v392q0 34-33 34h-391z m-187-594q-23 23-49 3l-214-168-148 148q-23 24-23-10v-391q0-33 33-33h391q33 0 10 23l-146 147 168 213q20 26-3 49z" horiz-adv-x="1044.9" />
<glyph glyph-name="uF0129" unicode="&#xe880;" d="m621 890q-34 0-10-24l147-147-164-210q-20-26 3-49l19-19q23-24 49-4l210 165 147-147q23-23 23 9v392q0 34-33 34h-391z m-187-594q-23 23-49 3l-214-168-148 148q-23 23-23-10v-391q0-33 33-33h391q33 0 10 23l-146 147 168 213q20 26-3 49z m-147 422l147 148q24 24-10 24h-391q-33 0-33-34v-392q0-32 23-9l147 147 210-165q26-20 49 3l19 20q23 23 3 49z m587-587l-214 168q-26 21-49-3l-19-19q-23-23-3-49l168-213-146-147q-23-23 10-23h391q33 0 33 33v391q0 33-23 10z" horiz-adv-x="1044.9" />
<glyph glyph-name="uF0130" unicode="&#xe881;" d="m872 133l147 147q23 23-10 23h-389q-33 0-33-33v-389q0-33 23-10l147 147 208-164q26-20 49 3l19 19q23 23 3 49z m-700 469l-146-146q-23-23 10-23h389q33 0 33 32v389q0 33-23 10l-147-146-208 163q-26 20-49-3l-19-19q-23-23-3-49z m116-584l147-147q23-23 23 10v389q0 33-33 33h-389q-33 0-10-23l146-147-163-208q-20-26 3-49l19-19q23-23 49-3z m469 700l-147 146q-23 23-23-10v-389q0-32 33-32h389q33 0 10 23l-147 146 164 208q20 26-3 49l-19 19q-23 23-49 3z" horiz-adv-x="1044.9" />
<glyph glyph-name="uF0131" unicode="&#xe882;" d="m814 592q-26 24-26-11v-146h-200v200h143q33 0 11 25l-196 217q-22 25-45 1l-203-218q-22-25 11-25h146v-200h-200v146q0 34-24 11l-219-203q-24-23 1-45l217-196q25-22 25 11v142h200v-201h-146q-33 0-11-24l203-219q23-24 45 1l196 217q22 25-11 25h-143v201h200v-142q0-34 27-11l217 196q25 23 1 45z" horiz-adv-x="1044.9" />
<glyph glyph-name="uF0132" unicode="&#xe883;" d="m17 618l32-33q16-17 41-17h873q22 0 38 17l33 33q16 16-7 27-4 2-33 17-30 14-48 23l-312 154q-59 29-84 44t-47 0q-22-13-81-42l-318-156q-72-35-81-40-23-11-6-27z m902-576h-788q-66 0-66-60-65 0-65-71v-66h1050v66q0 71-65 71 0 60-66 60z m-656 461h-132q-32 0-32-33 0-33 32-33v-263q-32 0-32-33t32-33h132q32 0 32 33t-32 33v263q32 0 32 33 0 33-32 33z m328 0h-131q-33 0-33-33 0-33 33-33v-263q-33 0-33-33t33-33h131q33 0 33 33t-33 33v263q33 0 33 33 0 33-33 33z m328-66q33 0 33 33 0 33-33 33h-131q-33 0-33-33 0-33 33-33v-263q-33 0-33-33t33-33h131q33 0 33 33t-33 33v263z" horiz-adv-x="1050.3" />
<glyph glyph-name="uF0133" unicode="&#xe884;" d="m740 172q-18-66-119-66h-197q-101 0-119 66h-240v-262q0-65 66-65h784q65 0 65 65v262h-240z m-87 457h-261v131h261v-131z m131 0v131q0 53-38 92-39 38-93 38h-261q-54 0-93-38-38-39-38-92v-131h-196q-65 0-65-66v-261q0-65 65-65h262v32q0 99 97 99h197q97 0 97-99v-32h262q65 0 65 65v261q0 66-65 66h-196z m-163-327q32 0 32-33v-64q0-33-32-33h-197q-32 0-32 33v64q0 33 32 33h197z" horiz-adv-x="1044.9" />
<glyph glyph-name="uF0134" unicode="&#xe885;" d="m718 531q0-33-32-33h-457q-33 0-33 33v131q0 32 33 32h457q32 0 32-32v-131z m0-262q0-32-32-32h-66q-33 0-33 32v66q0 33 33 33h66q32 0 32-33v-66z m0-195q0-33-32-33h-66q-33 0-33 33v65q0 33 33 33h66q32 0 32-33v-65z m-195 195q0-32-33-32h-66q-32 0-32 32v66q0 33 32 33h66q33 0 33-33v-66z m0-195q0-33-33-33h-66q-32 0-32 33v65q0 33 32 33h66q33 0 33-33v-65z m-196 195q0-32-33-32h-65q-33 0-33 32v66q0 33 33 33h65q33 0 33-33v-66z m0-195q0-33-33-33h-65q-33 0-33 33v65q0 33 33 33h65q33 0 33-33v-65z m-197 816q-53 0-91-38-39-39-39-92v-784q0-54 39-92 38-39 91-39h654q53 0 92 39 38 38 38 92v784q0 53-38 92-39 38-92 38h-654z" horiz-adv-x="914.1" />
<glyph glyph-name="uF0135" unicode="&#xe886;" d="m731 335q0 86 85 86t86-86-86-86-85 86z m-600 163q-54 0-92-38-39-39-39-92v-262q0-53 39-92 38-39 92-39v197h784v-197q53 0 91 39 39 39 39 92v262q0 53-39 92-38 38-91 38h-784z m718-653h-653v261h653v-261z m0 718h-653v327h653v-327z" horiz-adv-x="1044.9" />
<glyph glyph-name="uF0136" unicode="&#xe887;" d="m718 596q0-33-32-33h-457q-33 0-33 33v66q0 32 33 32h457q32 0 32-32v-66z m0-261q0-33-32-33h-457q-33 0-33 33v65q0 33 33 33h457q32 0 32-33v-65z m-131-261q0-33-32-33h-326q-33 0-33 33v65q0 33 33 33h326q32 0 32-33v-65z m-457 816q-53 0-91-38-39-39-39-92v-784q0-54 39-92 38-39 91-39h654q53 0 92 39 38 38 38 92v784q0 53-38 92-39 38-92 38h-654z" horiz-adv-x="914.1" />
<glyph glyph-name="uF0137" unicode="&#xe888;" d="m718 400q0 33-32 33h-457q-33 0-33-33v-65q0-33 33-33h457q32 0 32 33v65z m0-261q0 33-32 33h-457q-33 0-33-33v-65q0-33 33-33h457q32 0 32 33v65z m-522 457q0-33 33-33h261q33 0 33 33v66q0 32-33 32h-261q-33 0-33-32v-66z m718-33v-587q0-54-38-92-39-39-92-39h-654q-53 0-91 39-39 38-39 92v784q0 53 39 92 38 38 91 38h457v-327h327z m-261 319q14-6 20-12l111-111 110-110q8-8 14-20h-255v253z" horiz-adv-x="914.1" />
<glyph glyph-name="uF0138" unicode="&#xe889;" d="m784 759l-111 111q-20 20-51 20h-35v-327h327v43q0 23-20 43z m-261-261h391v-522q0-54-38-92-39-39-92-39h-654q-53 0-91 39-39 38-39 92v784q0 53 39 92 38 38 91 38h393v-392z" horiz-adv-x="914.1" />
<glyph glyph-name="uF0139" unicode="&#xe88a;" d="m644 866q-48 48-96 0l-73-73 473-473 73 74q48 47 0 95z m-285-872l-203 203 34 176 338-337z m20 703l-208-208q-48-48-63-114l-106-476q-14-66 52-51l476 105q66 15 114 63l208 209z" horiz-adv-x="1044.4" />
<glyph glyph-name="uF0140" unicode="&#xe88b;" d="m426 333q-14-14-34-14-20 0-35 14l-130 131q-35 34 0 69 34 34 69 0l96-96 96 96q35 34 69 0 35-35 0-69z m-311 452q-115-105-115-254 0-169 142-277 49-48 54-110v-5q0-33 33-33h326q33 0 33 33v5q0 63 65 120 131 107 131 267 0 149-115 254-115 105-277 105-162 0-277-105z m473-777q0 33-33 33h-326q-33 0-33-33v-2q0-30 0-30h0q0-54 38-92 39-39 93-39h130q54 0 92 39 39 38 39 92h-1q1 0 1 30v2z" horiz-adv-x="783.7" />
<glyph glyph-name="uF0141" unicode="&#xe88c;" d="m131 890q-54 0-92-38-39-39-39-92v-131h1045v131q0 53-39 92-38 38-91 38h-784z m587-621q0-32-32-32h-327q-32 0-32 32v131q0 33 32 33h327q32 0 32-33v-131z m-653 294v-587q0-54 39-92 38-39 92-39h653q54 0 92 39 39 38 39 92v587h-915z" horiz-adv-x="1044.9" />
<glyph glyph-name="uF0142" unicode="&#xe88d;" d="m490 890q-33 0-33-33v-65q0-32 33-32h97v-131h-97q-33 0-33-33v-65q0-33 33-33h97v-130h-97q33 0 33-33v-23q133-71 133-206 0-135-199-135-200 0-200 135 0 134 135 206v23q0 33 32 33t33 32v66q0 32-33 32h-97v131h97q33 0 33 33v65q0 33-33 33h-97v130h-197q-53 0-91-38-39-39-39-92v-784q0-54 39-92 38-39 91-39h654q53 0 92 39 38 38 38 92v784q0 53-38 92-39 38-92 38h-294z m-48-653q-31 0-63-43-31-43-31-86 0-25 11-33 21-15 98-15t98 17q10 7 10 35 0 42-30 84t-61 41h-32z" horiz-adv-x="914.1" />
<glyph glyph-name="uF0143" unicode="&#xe88e;" d="m196 302q65 0 65-65v-327q0-65-65-65h-131q-65 0-65 65v327q0 65 65 65h131z m392 261q65 0 65-65v-588q0-65-65-65h-131q-65 0-65 65v588q0 65 65 65h131z m392 327q65 0 65-65v-915q0-65-65-65h-131q-65 0-65 65v915q0 65 65 65h131z" horiz-adv-x="1044.9" />
<glyph glyph-name="uF0144" unicode="&#xe88f;" d="m1030 542v69q0 58-41 99t-98 41h-348q0 57-41 98t-99 41h-209q-57 0-98-41t-41-98v-209h975z m15-558q-6-57-51-98-46-41-103-41h-697q-57 0-102 41-46 41-52 98l-39 349q-6 58 30 99 36 40 94 40h835q58 0 94-40 37-41 31-99z" horiz-adv-x="1085.4" />
<glyph glyph-name="uF0145" unicode="&#xe890;" d="m458 303v512q-192-11-325-151-133-140-133-333 0-202 142-344t343-142q194 0 334 133 140 133 151 325h-512z m130 130h457q-2 194-136 325-131 130-321 132v-457z m65 386q273-49 322-321h-322v321z" horiz-adv-x="1044.9" />
<glyph glyph-name="uF0146" unicode="&#xe891;" d="m0-155v980q0 65 65 65 65 0 65-65v-849h850q65 0 65-66t-65-65h-980z m684 925q-31-10-4-29l123-81-155-195-131 131-274-334q-41-52 10-92 18-15 41-15 31 0 51 25l183 220 131-130 253 317 106-70q27-19 27 14v326q0 33-31 23z" horiz-adv-x="0" />
<glyph glyph-name="uF0147" unicode="&#xe892;" d="m342 742q25 2 51 2 209 0 357-148 148-148 148-357 0-24-3-50 147 119 147 308 0 163-115 278t-278 115q-189 0-307-148z m-69-700q-33 0-33 33 0 33 33 33h55v262h-52q-32 0-32 33 0 33 32 33h148q35 0 35-32v-296h54q32 0 32-33 0-33-32-33h-240z m-158 476q-115-116-115-279t115-279q115-115 278-115t278 115q115 116 115 279t-115 279q-115 115-278 115t-278-115z" horiz-adv-x="1042" />
<glyph glyph-name="uF0148" unicode="&#xe893;" d="m65 371v-395q0-54 39-92t93-39h197v526h-329z m591 0v-526h198q54 0 92 39t39 92v395h-329z m-59 328q127 10 209 68 83 58 18 101-78 51-176-16-84-60-123-152-38 92-123 152-97 67-176 16-64-43 19-101 81-58 209-68h143z m59 0v-263h394v132q0 54-38 93t-93 38h-263z m-262 0h-263q-54 0-92-38t-39-93v-132h394v263z" horiz-adv-x="1050.3" />
<glyph glyph-name="uF0149" unicode="&#xe894;" d="m1 310q0 10 6 17 7 6 17 7h49q-1 42 0 78h-49q-10 0-17 6-6 7-6 17v85q0 10 6 18 7 8 17 6h73q50 156 180 250t298 96q75 0 143-17 8-3 14-12 6-8 3-17l-31-119q-3-9-11-14-8-5-17-2l-3 2q-4 0-9 1l-30 5q-15 3-20 3l-21 1q-17 2-21 0-94 0-168-46-72-47-111-131h347q12 0 19-9t5-20l-17-83q-5-20-24-20h-363q-2-27 0-78h340q12 0 19-9 6-9 5-20l-19-83q-1-8-8-14t-14-5h-288q37-86 112-138 76-52 169-51 13 0 27 2l46 5q9 1 19 4l13 4 9 1 4 3q10 3 19-3t12-14l25-119q3-9-1-17-4-8-14-11h-4q-2-1-7-2-6-1-13-4-6-3-16-4-8-2-18-4-9-3-23-3-13 0-24-4t-27-2q-18 1-28 0-175 0-303 96-129 98-177 261h-71q-9 0-17 6-8 7-6 18v83z" horiz-adv-x="752.9" />
<glyph glyph-name="uF0150" unicode="&#xe895;" d="m0-21q0 11 7 17 6 7 17 7h72v285h-71q-10 0-17 6-6 7-6 18v97q0 10 6 17 7 7 17 7h71v165q0 127 92 210t231 82q139 0 250-93 6-7 8-16 1-9-6-16l-75-94q-7-8-17-9-10-2-18 5-3 4-18 15-17 10-52 24-36 13-68 13-64 0-103-36-38-36-38-91v-159h226q11 0 17-7 7-7 7-17v-97q0-10-7-18-6-7-17-6h-226v-282h307v134q0 11 7 18 6 6 17 6h119q11 0 18-6 6-7 6-18v-271q0-11-6-17-7-7-18-7h-708q-11 0-17 7-7 6-7 17v110z" horiz-adv-x="756.3" />
<glyph glyph-name="uF0151" unicode="&#xe896;" d="m65 173q3 6 12 7t15-6l1-1q66-57 141-73 22-4 44-4 47 0 82 25 36 25 37 71 0 16-9 31-10 15-19 25t-34 21l-40 19q-14 7-46 19-20 8-36 15-13 5-36 15l-36 18q-14 7-34 21-19 14-30 25-12 12-26 28t-21 34q-6 16-11 38t-6 46q0 81 58 141t148 79v104q0 7 6 14 5 6 13 5h78q9 0 14-5t5-14v-102q34-4 65-14t50-20q21-11 38-22 19-11 22-16 3-6 9-9 10-10 4-22l-49-84q-4-10-12-11t-17 6l-30 22q-15 10-35 18-20 9-44 16-24 7-49 6-55 0-91-25t-34-65q0-14 4-28 4-13 18-24 13-10 23-19t32-19l36-15q14-6 40-16 32-12 47-19 17-7 45-19 30-13 44-26 16-13 36-29 21-17 31-36 11-20 19-45 8-26 7-55 0-90-58-153-59-64-151-81v-101q0-8-5-14t-14-5h-78q-7 0-13 5-7 5-6 14v101q-39 6-74 19-36 14-60 26t-42 28q-20 15-27 22-9 6-11 10-9 12-1 24z" horiz-adv-x="545.4" />
<glyph glyph-name="uF0152" unicode="&#xe897;" d="m1 388q0 10 6 17 7 7 17 7h83q98 0 158 31 60 32 76 94h-317q-10 0-17 6-6 7-6 17v76q0 11 6 17 7 7 17 7h306q-41 84-198 84h-108q-9 0-17 6-8 7-6 17v99q0 11 6 17 7 7 17 7h618q10 0 17-7 7-6 7-17v-76q0-10-7-17-7-6-17-6h-174q35-46 49-107h126q10 0 17-7 7-6 7-17v-76q0-10-7-17-7-6-17-6h-124q-17-107-96-175-78-68-205-81 123-130 341-397 9-13 3-26-7-13-21-13h-145q-13 0-19 9-228 272-370 423-6 7-6 16v95z" horiz-adv-x="666.5" />
<glyph glyph-name="uF0153" unicode="&#xe898;" d="m2 854q-5 12 2 24 6 12 20 12h144q14 0 21-13l160-317q14-27 42-91 7 17 23 49 16 31 20 46l142 311q6 14 22 14h141q13 0 20-11 6-10 1-24l-233-429h160q9 0 17-7 8-6 6-17v-77q0-11-6-17-7-7-17-7h-216v-63h216q9 0 17-6 8-7 6-18v-75q0-11-6-17-7-7-17-7h-216v-245q0-11-7-17-6-7-16-7h-127q-11 0-18 7-7 6-7 17v245h-213q-10 0-18 7-8 6-6 17v75q0 10 6 18 7 8 18 6h213v63h-213q-10 0-18 7t-6 17v77q0 11 6 17 7 7 18 7h158z" horiz-adv-x="765.1" />
<glyph glyph-name="uF0154" unicode="&#xe899;" d="m362 399h237q79 0 127 46 48 45 48 121 0 76-48 119-48 44-127 47h-237v-333z m-362-270q0 11 7 18 6 7 17 7h166v87h-166q-11 0-17 7-7 6-7 17v110q0 10 7 17 6 6 17 7h166v467q0 11 7 17 7 7 17 7h400q148 0 242-92t94-232q-2-141-94-235-91-92-242-90h-252v-87h375q9 0 16-7 6-7 6-18v-94q0-10-6-17-7-7-16-7h-375v-142q0-11-8-17-8-7-16-7h-124q-10 0-17 7-7 6-7 17v142h-166q-11 0-17 7-7 6-7 17v94z" horiz-adv-x="950.7" />
<glyph glyph-name="uF0155" unicode="&#xe89a;" d="m0 392q0 15 17 22l173 53v68l-159-49h-7q-8 0-15 4-9 8-9 20v94q0 18 17 24l173 52v186q0 11 7 17 6 7 17 7h118q11 0 18-7 6-6 6-17v-134l278 85q12 4 21-3 10-6 10-20v-94q0-17-18-24l-291-89v-69l278 86q12 4 21-4 10-8 10-19v-95q0-17-18-23l-291-90v-362q140 11 235 113 96 103 98 244 0 10 6 17 7 7 17 7h119q10 0 17-7 7-7 7-17 0-143-71-262-70-120-190-191-119-70-262-70h-118q-11 0-17 7-7 6-7 17v453l-159-49q-3-1-7-1-8 0-15 5-9 7-9 19v96z" horiz-adv-x="854.5" />
<glyph glyph-name="uF0156" unicode="&#xe89b;" d="m879 320l61-222v-3q0-3 1-3v6l59 222h-121z m-50 190l25-96h169l26 96h-220z m-220-96h102l-24 96h-52z m-286-94l55-222q2-2 2-3v-3q0 2 1 3 1 2 0 3l60 222h-118z m-47 190l24-96h167l26 96h-217z m-276-118q0 9 6 16 7 6 18 6h130l-25 96h-105q-11 0-18 7-6 6-6 17v47q0 10 6 17 7 6 18 6h81l-66 255q-4 13 3 22t19 9h102q19 0 23-18l66-268h267l72 268q5 18 22 18h94q18 0 23-18l72-268h271l69 268q4 18 23 18h102q11 0 19-9t3-22l-67-255h82q11 0 17-6 7-7 7-17v-47q0-11-7-17-6-7-17-7h-108l-25-96h133q11 0 17-6 7-7 7-16v-48q0-11-7-17-6-7-17-7h-158l-121-458q-5-17-24-17h-117q-19 0-24 17l-122 458h-155l-123-458q-6-17-23-17h-119q-7 0-14 5-7 6-8 12l-118 458h-154q-11 0-18 7-6 6-6 17v48z" horiz-adv-x="1327.6" />
<glyph glyph-name="uF0157" unicode="&#xe89c;" d="m293 120h54q11 0 32 1l38 2q16 1 36 5 18 5 34 10 16 4 30 12t25 19q11 11 15 25t6 33q0 22-9 39-9 17-24 29-14 13-36 19-22 7-40 12t-48 6q-28 2-42 1-15-1-41 0-26 1-30-1v-212z m0 309h51q10 0 31 1 20 1 35 4 15 1 32 6 18 5 31 12 12 6 23 16 12 10 17 25 6 15 6 31 0 22-8 37-8 17-19 26-11 11-31 18t-34 11l-39 5q-22 3-37 2-15-3-34 0-19 1-24-2v-192z m-293-423l20 115h70q31 0 36 31v433q-8 43-56 43h-70v103l134-1q38 0 61 1v159h97v-155q49 1 76 1v154h97v-159q49-4 88-14 38-11 71-28 32-18 51-48 19-31 23-73 11-114-82-162 73-17 110-65t28-134q-4-45-20-79-16-33-41-54-24-22-61-37-36-17-76-22-41-6-91-10v-160h-97v157q-50 0-76 2v-159h-97v160q-11 0-34 1-22 1-35 0h-126z" horiz-adv-x="763.2" />
<glyph glyph-name="uF0158" unicode="&#xe89d;" d="m920 317q-10 126 116 137t137-116q11-126-115-137-127-10-138 116z m206 412h-925q-40 0-40 40t40 41h902q-47 80-138 80h-804q-67 0-114-47-47-47-47-114v-723q0-66 47-114 47-47 114-47h804q66 0 113 47t48 114v80q65 0 113 48 47 47 47 113v161q0 66-47 113t-113 48v160z" horiz-adv-x="1286.1" />
<glyph glyph-name="uF0159" unicode="&#xe89e;" d="m776 866q-48 48-97 0l-17-18 149-149q36-36 0-73-16-15-37-15t-36 15l-149 149-64-64 77-77q36-36 0-72-15-15-37-15t-36 15l-77 77-64-64 149-149q37-37 0-73-15-15-36-15t-36 15l-150 149-63-64 76-77q37-36 0-72-14-15-36-15-21 0-36 15l-77 77-64-65 149-149q36-36 0-72-15-15-36-15-21 0-37 15l-148 149-19-18q-48-48 0-97l246-245q48-48 96 0l655 655q48 49 0 97z" horiz-adv-x="1045.4" />
<glyph glyph-name="uF0160" unicode="&#xe89f;" d="m435 548q-42-79-68-193-2-10-4-15-19-71-103-71-102 0-102 99 0 30 20 56 5 20 14 46-2-22-2-37 0-65 66-65 65 0 65 65 0 81 26 165 50 162 170 162 134 0 179-197h-253z m546-50q-5 46-50 62l-2-5q-7-27-29-136-13-72-17-81l-4-8q0-1-5-11-5-8-11-15-7-6-11-11-7-5-17-10-25-14-50-14-104 0-104 99 0 37 26 64 3 12 5 24 1-17 1-23 0-65 65-65 66 0 66 65 0 161-67 288-88 169-260 169-249 0-313-327h-78q-66 0-72-65l-53-588q-6-65 59-65h915q65 0 59 65z" horiz-adv-x="1034.2" />
<glyph glyph-name="uF0161" unicode="&#xe8a0;" d="m181 537q-36 35-36 86t36 86q35 37 86 37t87-37q36-35 36-86t-36-86q-36-37-87-37t-86 37z m334 306q-48 47-114 47h-334q-67 0-67-67v-334q0-66 47-114l507-506q47-47 94 0l374 373q46 47 0 94z" horiz-adv-x="1043.9" />
<glyph glyph-name="uF0162" unicode="&#xe8a1;" d="m588 302h-131v-200q0-104-23-134-21-27-52-27-30 0-51 22-15 16-17 74 5 65-48 69-59 4-64-59-6-79 49-138 58-64 141-64 78 0 135 58 57 56 61 203v196z m457 66q-15 88-80 180-129 186-377 208v69q0 65-65 65t-66-65v-69q-248-22-377-208-65-92-80-180h1045z" horiz-adv-x="1044.9" />
<glyph glyph-name="uF0163" unicode="&#xe8a2;" d="m914-90q0-65-65-65h-784q-65 0-65 65v66q0 65 65 65h784q65 0 65-65v-66z m-327 588v327q0 65-64 65h-131q-65 0-65-65v-327h-229q-33 0-8-21l342-284q25-21 50 0l342 284q25 21-8 21h-229z" horiz-adv-x="914.1" />
<glyph glyph-name="uF0164" unicode="&#xe8a3;" d="m363 694q3 94 94 94 87 0 90-94h-184z m290 0q0 72-44 128-54 68-152 68t-152-68q-44-56-44-128h-131q-43 0-89-32t-40-33h-1v-131h914v131h0q6 0-40 33t-90 32h-131z m65-686q0-32-32-32h-66q-32 0-32 32v261q0 33 32 33h66q32 0 32-33v-261z m-195 0q0-32-33-32h-66q-32 0-32 32v261q0 33 32 33h66q33 0 33-33v-261z m-196 0q0-32-33-32h-65q-33 0-33 32v261q0 33 33 33h65q33 0 33-33v-261z m-262 425v-457q0-54 39-92 38-39 92-39h522q54 0 93 39 38 38 38 92v457h-784z" horiz-adv-x="914.1" />
<glyph glyph-name="uF0165" unicode="&#xe8a4;" d="m948 619q24-12 56-3 13 3 24 22l34 60q9 18 5 35-6 25-34 39-236 118-499 118-267 0-507-121-19-11-26-35-3-12 5-37l35-61q11-17 24-21 30-8 54 4 196 97 415 97t414-97z m-200-337q36-15 56-10 16 4 35 37l28 48q12 28 8 43-7 26-30 37-148 70-311 70-165 0-314-71-19-9-27-38-4-17 12-49l28-49q15-21 28-25 26-7 59 7 102 44 214 44t214-44z m-116-396q-41-41-98-41-58 0-99 41-41 41-41 98 0 58 41 99 41 41 99 41 57 0 98-41 41-41 41-99 0-57-41-98z" horiz-adv-x="1068.8" />
<glyph glyph-name="uF0166" unicode="&#xe8a5;" d="m1142 488q0 167-119 284-117 118-284 118-146 0-257-93-110-91-138-232-140-12-241-114-103-105-103-244 0-143 108-252 103-105 229-109v-1h241v321h-120q-41 0-16 32l272 339q25 32 50 0l272-339q25-32-15-32h-121v-321h81v1q123 2 219 96 99 96 99 224 0 189-162 280 5 41 5 42z" horiz-adv-x="1299.3" />
<glyph glyph-name="uF0167" unicode="&#xe8a6;" d="m745 360q-50 8-43 58 9 66-20 98-39 41-114 35-50-3-54 47-4 50 46 54 128 6 196-67 63-67 46-182-6-43-50-43-3 0-7 0z m259-42q-51 0-47 54 13 220-99 324-108 101-311 89-50-8-56 43-7 50 43 57 238 30 393-115 147-137 131-405-3-47-51-47h-3z m-821 425l715-715q48-48-17-69-85-28-204-23-238 10-407 179t-179 407q-6 120 23 205 21 64 69 16z m48-858q-40-40-96-40-56 0-95 40t-40 95q0 56 40 96t95 39q56 0 96-39t39-96q0-56-39-95z" horiz-adv-x="1060.5" />
<glyph glyph-name="uF0168" unicode="&#xe8a7;" d="m153 737q-153-153-153-369t153-370q153-153 370-153t369 153q153 153 153 370t-153 369q-153 153-369 153t-370-153z m645-93q115-115 115-276 0-162-115-276-114-115-275-115-162 0-276 115-115 114-115 276 0 161 115 276 114 114 276 114 161 0 275-114z m-364-275q0 89 89 89t90-89-90-90-89 90z m-35 127l-84-333 333 84 83 330z" horiz-adv-x="1044.9" />
<glyph glyph-name="uF0169" unicode="&#xe8a8;" d="m653 629h-261v59q0 40 39 69 38 29 92 29t91-29q39-29 39-69v-59z m131 33q0 94-77 161-77 67-184 67t-185-67q-77-67-77-161v-817h523v817z m65-817q81 0 138 58t58 138v392q0 81-58 138t-138 58v-784z m-849 196q0-81 58-138t138-58v784q-81 0-138-58t-58-138v-392z" horiz-adv-x="1044.9" />
<glyph glyph-name="uF0170" unicode="&#xe8a9;" d="m976 542v-418h-837v696q0 70-69 70-70 0-70-70v-905q0-70 70-70 69 0 69 70v69h837v-69q0-70 69-70 70 0 70 70v627q0 69-70 69-69 0-69-69z m-70-279q0-70-70-70h-348q-70 0-70 70v139q0 70 70 70h348q70 0 70-70v-139z m-558 0q0-70-69-70-70 0-70 70v139q0 70 70 70 69 0 69-70v-139z" horiz-adv-x="1114.7" />
<glyph glyph-name="uF0171" unicode="&#xe8aa;" d="m424 849q-29-15-29-48v-230h-66v230q0 33-23 57l-19 19q-24 23-47 0l-19-19q-24-24-24-57v-230h-65v230q0 33-30 48l-73 37q-29 14-29-19v-298q0-5 2-11 9-51 67-112 60-63 116-71v-1-1l-40-397q-6-54 29-92 35-39 89-39t90 39q34 38 29 92l-40 397 0 2q58 9 122 79 62 68 62 117v296q0 33-29 19z m484-21q-118-59-118-191v-198q0-55 39-93 38-39 92-39-65 0-65-66v-330q0-66 65-66h66q66 0 66 66v858q0 54-34 75t-83-3z" horiz-adv-x="1053.2" />
<glyph glyph-name="uF0172" unicode="&#xe8ab;" d="m915 352q0-50-50-50h-685q-49 0-49 50v358q0 50 49 50h685q50 0 50-50v-358z m-719 538q-81 0-138-58t-58-138v-392q0-80 58-138t138-58h653q81 0 138 58t58 138v392q0 81-58 138t-138 58h-653z m552-929q-12 6-30 10v70h-391v-70q-18-4-30-10l-72-36q-29-15-29-47t33-33h587q33 0 33 33t-29 47z" horiz-adv-x="1044.9" />
<glyph glyph-name="uF0173" unicode="&#xe8ac;" d="m244-16q-35 0-35 35 0 35 35 35h627q35 0 35-35 0-35-35-35h-627z m-35 715q0 52 52 52h593q52 0 52-52v-384q0-52-52-52h-593q-52 0-52 52v384z m735-544q101 62 101 178v348q0 87-61 148-62 61-148 61h-557q-87 0-148-61-61-61-61-148v-348q0-116 100-178l-146-146q-24-25-24-59v-70q0-35 35-35h1045q35 0 35 35v70q0 34-25 59z" horiz-adv-x="1114.7" />
<glyph glyph-name="uF0174" unicode="&#xe8ad;" d="m784 155q0-49-50-49h-554q-50 0-50 49v555q0 50 50 50h554q50 0 50-50v-555z m-365-245q-65 0-65 66 0 65 65 65h76q65 0 65-65 0-66-65-66h-76z m-223 980q-81 0-138-58t-58-138v-653q0-81 58-138t138-58h522q81 0 138 58t58 138v653q0 81-58 138t-138 58h-522z" horiz-adv-x="914.1" />
<glyph glyph-name="uF0175" unicode="&#xe8ae;" d="m921 159q0-50-49-50h-691q-49 0-49 50v296q0 50 49 50h691q49 0 49-50v-296z m-485-182q0 91 91 91 90 0 90-91 0-90-90-90-91 0-91 90z m203 660l195 195q23 23 0 46-23 24-47 0l-241-241h-39l-235 235q-23 23-46 0-24-23 0-46l188-189h-217q-81 0-139-58t-58-140v-396q0-82 58-140t139-58h659q81 0 139 58t58 140v396q0 81-58 140t-139 58h-217z" horiz-adv-x="1053.2" />
<glyph glyph-name="uF0176" unicode="&#xe8af;" d="m327 499v131q0 158 130 158t130-158v-131h323q-24 154-152 270-133 121-301 121t-301-121q-128-116-152-270h323z m260-65v-65q0-158-130-158t-130 158v65h-327v-131q0-189 134-323 135-135 323-135 188 0 319 133 130 132 138 325v131 0h-327z m-64-65q0-66-66-66t-65 66v261q0 66 65 66t66-66v-261z" horiz-adv-x="914.1" />
<glyph glyph-name="uF0177" unicode="&#xe8b0;" d="m849 303v-66q0-32-33-32t-32 32v66h-66q-32 0-32 32t32 33h66v66q0 32 32 32t33-32v-66h66q32 0 32-33t-32-32h-66z m-588 0v-66q0-32-32-32t-33 32v66h-65q-33 0-33 32t33 33h65v66q0 32 33 32t32-32v-66h66q32 0 32-33t-32-32h-66z m717 195q-67 66-162 66-107 0-176-85-49-8-99-9 13 146 95 202 139 93 120 192-6 31-37 25-31-5-27-37 8-59-92-126-110-74-125-254-36 3-71 9-69 83-175 83-95 0-162-66-67-68-67-163 0 1 2-22-2-11-2-10v-393q0-65 65-65h66q65 0 94 59l117 234q36 21 63 54 113 19 236-2 24-28 61-50l118-236q29-59 95-59h65q65 0 65 65v393q0-1-2 10 2 23 2 22 0 95-67 163z" horiz-adv-x="1044.9" />
<glyph glyph-name="uF0178" unicode="&#xe8b1;" d="m653 710q0 50-48 50h-425q-49 0-49-50v-294q0-48 49-48h425q48 0 48 48v294z m-132-476q-54 54-129 54t-128-54q-53-52-53-128t53-128q53-53 128-53t129 53q52 53 52 128t-52 128z m460-193q0-165-115-165-40 0-76 47-38 50-38 118 0 66 30 116 31 49 69 49 33 0 61-33 27 213-128 343v-242q-136-40-136-228 0-98 50-167-48-34-110-34h-392q-81 0-138 58t-58 138v653q0 81 58 138t138 58h392q81 0 139-58t57-138v-98q270-184 197-554v-1z m-589-33q-98 0-98 98t98 99 98-99-98-98z" horiz-adv-x="998" />
<glyph glyph-name="uF0179" unicode="&#xe8b2;" d="m588 433q0-81-58-139-57-57-138-57-81 0-139 57-57 58-57 139v261q0 81 57 138t139 58q81 0 138-58t58-138v-261z m65 130v-130q0-119-63-196-69-87-197-87-122 0-193 77-69 77-69 206v130q0 50-62 50-69 0-69-50v-130q0-141 96-246 92-102 231-124v-90q-19-3-32-8l-133-44q-31-11-31-43t32-33h458q32 0 32 33t-31 43l-134 44q-12 5-31 8v90q143 23 237 134 90 107 90 236v130q0 50-68 50-63 0-63-50z" horiz-adv-x="783.7" />
<glyph glyph-name="uF0180" unicode="&#xe8b3;" d="m784 498q0-43-44-43h-174q-43 0-43 43v174q0 44 43 44h174q44 0 44-44v-174z m-610 392q-71 0-123-51t-51-123v-697q0-71 51-123t123-51h610q72 0 123 51 51 52 51 123v697q0 72-51 123-51 51-123 51h-610z m910-329q-39-19-39-63v-261q0-44 39-63l270-135q39-20 39 24v609q0 44-39 24z" horiz-adv-x="1393.1" />
<glyph glyph-name="uF0181" unicode="&#xe8b4;" d="m980 727q0-33-33-33h-131q-32 0-32 33v65q0 33 32 33h131q33 0 33-33v-65z m0-784q0-33-33-33h-131q-32 0-32 33v65q0 33 32 33h131q33 0 33-33v-65z m-502 245q-18-10-36-10-50 0-50 59v261q0 60 50 60 18 0 36-12l214-128q33-20 33-51 0-30-33-50z m175-245q0-33-32-33h-131q-33 0-33 33v65q0 33 33 33h131q32 0 32-33v-65z m-326 784q0-33-33-33h-131q-32 0-32 33v65q0 33 32 33h131q33 0 33-33v-65z m0-784q0-33-33-33h-131q-32 0-32 33v65q0 33 32 33h131q33 0 33-33v-65z m326 784q0-33-32-33h-131q-33 0-33 33v65q0 33 33 33h131q32 0 32-33v-65z m-457 163q-81 0-138-58t-58-138v-653q0-81 58-138t138-58h653q81 0 138 58t58 138v653q0 81-58 138t-138 58h-653z" horiz-adv-x="1044.9" />
<glyph glyph-name="uF0182" unicode="&#xe8b5;" d="m295 769q-32-5-32-38v-557q-34 5-66 0-82-12-139-70-58-56-58-124t58-106q57-39 139-26 82 13 139 69 58 57 58 124v484l460 83v-306q-35 4-66-1-82-12-140-69t-57-124 57-107q58-38 140-26 80 13 137 69 57 55 58 122 2 6 2 7v689q0 33-32 27z" horiz-adv-x="984.9" />
<glyph glyph-name="uF0183" unicode="&#xe8b6;" d="m239 397q-53 53-53 127t53 127 127 53q74 0 127-53t53-127-53-127-127-52q-74 0-127 52z m-132 386q-107-107-107-259 0-83 35-156 115-266 331-523 215 257 330 523 36 75 36 156 0 152-107 259-107 107-259 107-152 0-259-107z" horiz-adv-x="731.9" />
<glyph glyph-name="uF0184" unicode="&#xe8b7;" d="m247 92q-115 114-115 276 0 128 77 231 17-126 34-141 5-4 9-28 5-23 15-32 19-16 55-46-2 29-10 55-14 39-8 33-4 3-14-3-13-6-23-4-16 3-14 31 2 29 24 42 30 17 54-39 16-1 19 27 5 45 112 144 5 5 22 5 18-1 19 0 2 1-17 22-20 22-19 24 12 21-8 63 34 6 64 6 52 0 104-15 1-26 21-32 44-13 49-12 15 5 24 4 8-4 10-7 2-4 0-11-6-17-3-14-29-32-8-38 15-4 23 8 9 15 20 18 11 4 15 3 10-9 15-14 6-19 22-23 35-40 59-88-9-2-2-1-59-14-68-13-15 2-45 16-23 10-36 6-10-8-24-5-12 2-24-23-2-3-18-17-12-11-11-23 5-83 22-98 28-25 64-12 25 7 71-4 14-4 36-78 18-59 21-52-17-43-3-47 4-1 15 9-108-218-349-218-162 0-276 115z m-94 645q-153-153-153-369t153-370q153-153 370-153t369 153q153 153 153 370t-153 369q-153 153-369 153t-370-153z m303-380q-52 48-81 21-14-12-45-22l5-66 60-44q19-14 24-89 9-127 13-138 8-25 37-37-7 19-9 48-1 20 42 50 5 3 81 167 17 37 18 36-2 5-58 18-36 8-87 56z" horiz-adv-x="1044.9" />
<glyph glyph-name="uF0185" unicode="&#xe8b8;" d="m929 105q0-33-29-16l-73 44q-19 11-57 34l-12 7q-28 17-28 50v487q0 33 28 16l142-85q29-18 29-51v-486z m-566-102l-201 100q-29 15-29 48v500q0 33 29 18l147-73q8-4 30-15t30-15q29-15 29-48v-493q0-33-3-35-3-1-32 13z m395 879q-28 16-57 0l-274-165q-29-17-58-3l-339 170q-30 14-30-18v-797q0-33 30-48l339-169q29-15 58 2l274 165q29 17 57 0l275-165q29-17 29 16v796q0 34-29 51z" horiz-adv-x="1061.5" />
<glyph glyph-name="uF0186" unicode="&#xe8b9;" d="m129 170l-129-325 235 118 36 214q-23 29-44 58z m778 0l-98 66q-20-28-43-57l35-216 236-118z m-389-229q-42 0-71 31-60 65-122 138l-26-155 219-110 219 110-26 156q-60-72-122-139-28-31-71-31z m-105 516q-44 44-44 106 0 62 44 106 44 44 105 44 62 0 106-44 44-44 44-106 0-62-44-106-44-43-106-43-61 0-105 43z m-125 337q-96-95-96-231 0-74 32-140 48-118 294-385 228 246 295 385 31 68 31 140 0 136-95 231-96 96-231 96-135 0-230-96z" horiz-adv-x="1036.6" />
<glyph glyph-name="uF0187" unicode="&#xe8ba;" d="m710 269q0 99 98 99 98 0 98-99 0-97-98-97-98 0-98 97z m-587 0q0 99 97 99 98 0 98-99 0-97-98-97-97 0-97 97z m159 337q12 23 36 23h392q25 0 37-23l86-173h-638z m689-173q0 17-7 29l-101 203q-47 95-153 95h-392q-105 0-152-95l-102-203q-6-12-6-29h-1q-65 0-56-65l47-328q9-64 75-64v-98q0-33 32-33h131q32 0 32 33v98h392v-98q0-33 33-33h131q32 0 32 33v98q65 0 75 64l46 328q10 65-55 65h-1z m-564 415q-23-23 10-23h195q33 0 10 23l-19 19q-23 23-56 23h-66q-32 0-55-23z" horiz-adv-x="1028.3" />
<glyph glyph-name="uF0188" unicode="&#xe8bb;" d="m464 205q0 91 91 91t92-91q0-92-92-92t-91 92z m-308 361q-10 53 21 91t84 37h262q53 0 84-37 31-38 20-91l-14-70q-25-128-156-128h-130q-131 0-157 128z m-19-361q0 91 92 91 91 0 91-91 0-92-91-92-92 0-92 92z m306 620q33 0 33-33 0-32-33-32h-101q-32 0-32 32 0 33 32 33h101z m341-196q0 81-58 138-57 58-138 58 0 65-65 65h-262q-65 0-65-65-81 0-138-58-58-57-58-138v-457q0-81 58-139 57-57 138-57h-32q-33 0-57-24l-84-84q-23-23 10-23h65q33 0 56 23l84 84q23 24-9 24h326q-32 0-10-24l85-84q23-23 56-23h65q33 0 10 23l-85 84q-23 24-55 24h-33q81 0 138 57 58 58 58 139v457z" horiz-adv-x="783.7" />
<glyph glyph-name="uF0189" unicode="&#xe8bc;" d="m801 466q76 82 155 171 137 158 63 232-65 66-231-76-76-65-163-147l-530 236q-30 13-52-10l-20-20q-23-22 2-44l408-351q-100-105-150-174-27-38-119-163l-132 30q-32 8-32-25v-19q0-33 27-51l59-40q-32-42-54-72-15-27 12-54 20-20 54-12 29 20 70 49l40-55q20-26 52-26h21q33 0 26 32l-31 125q110 76 151 106 74 52 189 165l345-403q21-25 44-2l19 20q23 22 10 53z" horiz-adv-x="1044.4" />
<glyph glyph-name="uF0190" unicode="&#xe8bd;" d="m430 460q-38-38-38-92t38-93q38-38 93-38t92 38 38 93-38 92q-38 38-92 38t-93-38z m-92-277q-77 77-77 185t77 184 185 77 184-77 77-184-77-185-184-77-185 77z m-123 399l-116 117q-46 46 0 92 46 46 92 0l117-116q46-46 0-93-20-19-47-19t-46 19z m522 0q-46 47 0 93l114 113q46 46 92 0 46-46 0-92l-113-114q-19-19-46-19t-47 19z m-638-638q-46 46 0 93l116 116q46 46 92 0 47-47 0-93l-116-116q-19-19-46-19-27 0-46 19z m752 3l-114 113q-46 46 0 93 47 46 93 0l113-113q46-47 0-93-19-19-46-19-27 0-46 19z m-394 777v101q0 65 66 65t65-65v-101q0-65-65-65t-66 65z m0-814v103q0 66 66 66t65-66v-103q0-65-65-65t-66 65z m422 392q-65 0-65 66t65 65h101q65 0 65-65t-65-66h-101z m-814 0q-65 0-65 66t65 65h103q65 0 65-65t-65-66h-103z" horiz-adv-x="1044.9" />
</font>
</defs>
</svg>
